<?xml version="1.0" standalone="no"?>
<!DOCTYPE svg PUBLIC "-//W3C//DTD SVG 1.1//EN" "http://www.w3.org/Graphics/SVG/1.1/DTD/svg11.dtd" >
<svg xmlns="http://www.w3.org/2000/svg" xmlns:xlink="http://www.w3.org/1999/xlink" version="1.1">
<metadata>
Created by FontForge 20170731 at Sun Nov 22 11:20:21 2020
 By Aleksey,,,
Copyright 2020 The Bodoni Moda Project Authors (https://github.com/indestructible-type)
</metadata>
<defs>
<font id="BodoniModa18pt-SemiBold" horiz-adv-x="1232" >
  <font-face 
    font-family="Bodoni Moda 18pt SemiBold"
    font-weight="600"
    font-stretch="normal"
    units-per-em="2000"
    panose-1="0 0 0 0 0 0 0 0 0 0"
    ascent="1600"
    descent="-400"
    x-height="920"
    cap-height="1500"
    bbox="-393 -685 2918 2098"
    underline-thickness="50"
    underline-position="-175"
    unicode-range="U+000D-FB02"
  />
<missing-glyph horiz-adv-x="1200" 
d="M213 0v1500h774v-1500h-774zM253 39h694v1422h-694v-1422zM601 443q-56 0 -56 69q0 13 1 21q5 38 12.5 61t13.5 49t8 71q-38 -24 -57 -42.5t-35.5 -36.5t-46.5 -41q-5 -4 -9.5 -6.5t-8.5 -5.5q-59 -33 -87 15q-29 49 31 83q11 7 18 10q36 14 59.5 19.5t49 12.5t65.5 28
q-40 21 -65.5 28.5t-49 13t-59.5 19.5q-7 3 -18 10q-60 34 -31 83q28 48 87 14q4 -2 8.5 -4.5t9.5 -6.5q30 -23 46.5 -41t35.5 -36.5t57 -42.5q-2 45 -8 70.5t-13.5 49t-12.5 61.5q-1 7 -1 20q0 69 56 69q57 0 57 -69q0 -13 -1 -20q-6 -38 -13 -61.5t-13 -49t-9 -70.5
q39 24 58 42.5t35.5 36.5t46.5 41q5 4 9 6.5t8 4.5q60 34 88 -14q29 -49 -31 -83q-11 -7 -19 -10q-35 -14 -58.5 -19.5t-49 -13t-65.5 -28.5q40 -21 65.5 -28t49 -12.5t58.5 -19.5q8 -3 19 -10q60 -34 31 -83q-28 -48 -88 -15q-4 3 -8 5.5t-9 6.5q-30 23 -46.5 41
t-35.5 36.5t-58 42.5q3 -45 9 -71t13 -49t13 -61q1 -8 1 -21q0 -69 -57 -69z" />
    <glyph glyph-name="fi" unicode="fi" horiz-adv-x="1253" 
d="M219 0v1023q0 109 38 200t107 157.5t162 103t204 36.5q91 0 167 -30t121.5 -78.5t45.5 -104.5q0 -72 -42.5 -111.5t-99.5 -39.5q-49 0 -93.5 32.5t-44.5 103.5q0 43 21 74t52.5 47.5t64.5 16.5q52 0 96 -33.5t44 -89.5h-23q0 50 -43.5 92.5t-113.5 69t-152 26.5
q-90 0 -152 -49.5t-93.5 -142.5t-31.5 -223v-1080h-234zM49 0v25h1146v-25h-1146zM815 0v895h-766v25h1006v-920h-240z" />
    <glyph glyph-name="fl" unicode="fl" horiz-adv-x="1321" 
d="M219 0v1023q0 138 56 251t157 179.5t239 66.5q87 0 146 -32t88.5 -80.5t29.5 -100.5q0 -72 -42.5 -111.5t-99.5 -39.5q-48 0 -93 32.5t-45 103.5q0 64 45 99.5t93 35.5q52 0 96 -32t44 -88h-23q0 48 -28.5 91t-82 70t-128.5 27q-74 0 -122.5 -51t-72 -144t-23.5 -220
v-1080h-234zM49 0v25h1215v-25h-1215zM49 895v25h674v-25h-674zM856 0v1460l240 80v-1540h-240z" />
    <glyph glyph-name="f_f" unicode="ff" horiz-adv-x="1431" 
d="M1291 1520q87 0 145.5 -33.5t88.5 -83t30 -96.5q0 -72 -42.5 -111.5t-99.5 -39.5q-49 0 -93.5 32.5t-44.5 103.5q0 42 20.5 73t51.5 47.5t63 16.5q27 -1 51.5 -15t35.5 -40q-19 47 -71 84t-135 37q-76 0 -123 -51t-69 -144t-22 -220v-160h280v-25h-280v-870h240v-25
h-1268v25h794v870h-794v25h794v103q0 137 53.5 250t153.5 180t241 67zM697 1420q91 0 160.5 -33t109 -83.5t39.5 -103.5q0 -72 -42.5 -111.5t-99.5 -39.5q-49 0 -93.5 32.5t-44.5 103.5q0 40 21 70t52.5 47.5t63.5 17.5q28 -1 53.5 -17t36.5 -43q-15 37 -51.5 67.5t-87.5 49
t-111 18.5q-85 0 -140.5 -51t-82.5 -144t-27 -220v-968h-234v911q0 135 58.5 248.5t166 181t253.5 67.5z" />
    <glyph glyph-name="f_f_i" unicode="ffi" horiz-adv-x="1856" 
d="M1427 0v895h-1378v25h1618v-920h-240zM49 0v25h1748v-25h-1748zM219 0v923q0 102 33.5 191.5t96 158t148.5 108t191 39.5q98 0 169.5 -32.5t110 -82.5t38.5 -105q0 -72 -42.5 -111.5t-99.5 -39.5q-49 0 -93.5 32.5t-44.5 103.5q0 64 44.5 99.5t93.5 35.5q34 0 66.5 -17.5
t53 -45t20.5 -57.5h-23q0 51 -36 95.5t-99 71.5t-143 27q-81 0 -136.5 -47.5t-84.5 -140t-29 -226.5v-980h-234zM831 0v1023q0 138 61.5 251t175 179.5t268.5 66.5q101 0 178 -32t119.5 -80.5t42.5 -100.5q0 -72 -42.5 -111.5t-99.5 -39.5q-49 0 -93.5 32.5t-44.5 103.5
q0 64 44.5 99.5t93.5 35.5q52 0 96 -32t44 -88h-23q0 46 -41 89.5t-112 71t-162 27.5q-90 0 -150.5 -51t-90.5 -144t-30 -220v-1080h-234z" />
    <glyph glyph-name="f_f_l" unicode="ffl" horiz-adv-x="1943" 
d="M49 0v25h794v870h-794v25h794v103q0 140 56.5 252.5t157 178.5t235.5 66q84 0 146 -31t96.5 -79t34.5 -100q0 -72 -42.5 -111.5t-99.5 -39.5q-49 0 -93.5 32.5t-44.5 103.5q0 63 43.5 98t90.5 37q31 -1 59.5 -21t38.5 -48q-19 53 -78.5 93t-141.5 40q-79 0 -128.5 -50.5
t-72.5 -143.5t-23 -220v-160h280v-25h-280v-870h809v-25h-1837zM219 13v910q0 135 58.5 248.5t164.5 181t249 67.5q98 0 168.5 -33.5t108.5 -84t38 -102.5q0 -72 -42.5 -111.5t-99.5 -39.5q-49 0 -93.5 32.5t-44.5 103.5q0 64 44.5 99.5t92.5 35.5q26 -1 50 -14.5t36 -36.5
q-25 49 -89 87t-154 38q-84 0 -140.5 -50.5t-84.5 -143.5t-28 -220v-967h-234zM1480 13v1447l240 80v-1527h-240z" />
    <glyph glyph-name="f_j.liga" unicode="fj" horiz-adv-x="1190" 
d="M633 -520q-86 0 -148.5 31.5t-96.5 84t-34 114.5q0 69 42 108.5t102 39.5q34 0 66 -15.5t53.5 -45.5t21.5 -74q0 -51 -37 -92t-100 -41q-38 0 -71.5 16.5t-54 43.5t-20.5 60h23q0 -56 31.5 -102.5t85.5 -74t123 -27.5q70 0 104.5 47t46.5 125t12 172.5v189.5v855h-733v25
h972v-943q0 -98 -24 -187.5t-72.5 -159t-121 -110t-170.5 -40.5zM49 0v25h626v-25h-626zM219 0v1023q0 137 58 250t169 180t269 67q102 0 171 -33.5t104.5 -83t35.5 -99.5q0 -72 -43.5 -110t-98.5 -38q-31 0 -63 13.5t-53.5 43t-21.5 76.5q0 64 43 99.5t92 35.5
q34 0 67 -14.5t54.5 -41t21.5 -64.5h-23q0 45 -34 89t-95.5 72.5t-147.5 28.5q-96 0 -155.5 -50.5t-87.5 -143.5t-28 -220v-1080h-234z" />
    <glyph glyph-name=".notdef" horiz-adv-x="1200" 
d="M213 0v1500h774v-1500h-774zM253 39h694v1422h-694v-1422zM601 443q-56 0 -56 69q0 13 1 21q5 38 12.5 61t13.5 49t8 71q-38 -24 -57 -42.5t-35.5 -36.5t-46.5 -41q-5 -4 -9.5 -6.5t-8.5 -5.5q-59 -33 -87 15q-29 49 31 83q11 7 18 10q36 14 59.5 19.5t49 12.5t65.5 28
q-40 21 -65.5 28.5t-49 13t-59.5 19.5q-7 3 -18 10q-60 34 -31 83q28 48 87 14q4 -2 8.5 -4.5t9.5 -6.5q30 -23 46.5 -41t35.5 -36.5t57 -42.5q-2 45 -8 70.5t-13.5 49t-12.5 61.5q-1 7 -1 20q0 69 56 69q57 0 57 -69q0 -13 -1 -20q-6 -38 -13 -61.5t-13 -49t-9 -70.5
q39 24 58 42.5t35.5 36.5t46.5 41q5 4 9 6.5t8 4.5q60 34 88 -14q29 -49 -31 -83q-11 -7 -19 -10q-35 -14 -58.5 -19.5t-49 -13t-65.5 -28.5q40 -21 65.5 -28t49 -12.5t58.5 -19.5q8 -3 19 -10q60 -34 31 -83q-28 -48 -88 -15q-4 3 -8 5.5t-9 6.5q-30 23 -46.5 41
t-35.5 36.5t-58 42.5q3 -45 9 -71t13 -49t13 -61q1 -8 1 -21q0 -69 -57 -69z" />
    <glyph glyph-name=".null" horiz-adv-x="0" 
 />
    <glyph glyph-name="nonmarkingreturn" horiz-adv-x="666" 
 />
    <glyph glyph-name="CR" unicode="&#xd;" horiz-adv-x="500" 
 />
    <glyph glyph-name="space" unicode=" " horiz-adv-x="500" 
 />
    <glyph glyph-name="exclam" unicode="!" horiz-adv-x="706" 
d="M339 476q0 102 -18.5 198t-44 194t-48 203t-30.5 223q-1 11 -0.5 19.5t0.5 18.5q0 77 35 130.5t119 53.5t120 -53.5t36 -130.5q0 -9 -1 -18t-1 -20q-8 -118 -31 -223t-48.5 -203t-44 -194t-18.5 -198h-25zM354 -20q-43 0 -78.5 21t-56.5 56.5t-21 78.5t21 78.5t56.5 57
t78.5 21.5t78 -21.5t56.5 -57t21.5 -78.5t-21.5 -78.5t-56.5 -56.5t-78 -21z" />
    <glyph glyph-name="quotedbl" unicode="&#x22;" horiz-adv-x="871" 
d="M624 934q0 83 -15.5 136t-37.5 92.5t-41.5 79.5t-27.5 96q-1 11 -1.5 19t-0.5 17q0 68 39.5 107t96.5 39t96.5 -39t39.5 -107v-17t-2 -19q-8 -56 -27.5 -96t-41.5 -79.5t-37.5 -92.5t-15.5 -136h-24zM224 934q0 83 -15.5 136t-37.5 92.5t-41.5 79.5t-27.5 96
q-1 11 -1.5 19t-0.5 17q0 68 39.5 107t96.5 39t96.5 -39t39.5 -107v-17t-2 -19q-8 -56 -27.5 -96t-41.5 -79.5t-37.5 -92.5t-15.5 -136h-24z" />
    <glyph glyph-name="numbersign" unicode="#" horiz-adv-x="1269" 
d="M704 -12l200 1520l25 2l-200 -1520zM60 490v24h1090v-24h-1090zM321 -10l200 1520h25l-200 -1520h-25zM120 1016v25h1090v-25h-1090z" />
    <glyph glyph-name="dollar" unicode="$" horiz-adv-x="1157" 
d="M588 -29q-174 0 -292 53t-178 130t-60 148q0 76 42 129t115 53q35 0 69 -17t57 -51t23 -82q0 -45 -22 -78.5t-57 -52t-73 -18.5q-37 0 -72 13.5t-57.5 39.5t-22.5 64l24 -4q0 -65 57 -136t168.5 -120t273.5 -49q160 0 237 80t77 215q0 86 -42.5 144t-112.5 100t-153 77.5
t-166.5 75.5t-153.5 95.5t-112.5 137t-42.5 200.5q0 92 39 166.5t105.5 127t151 80.5t176.5 28q114 0 214.5 -44.5t162.5 -117t62 -158.5q0 -66 -40.5 -116t-113.5 -50q-35 0 -69 17t-56.5 50t-22.5 80q0 64 43 105t103 41q37 0 72.5 -16.5t58.5 -45t23 -65.5h-23
q0 80 -58.5 147.5t-152.5 108.5t-201 41q-104 0 -168 -32t-94 -89t-30 -131q0 -78 42 -131.5t112 -92.5t153.5 -74t166.5 -76t152.5 -97.5t112 -139t42.5 -202.5q0 -142 -61.5 -245.5t-172 -159.5t-255.5 -56zM463 -160v1820h25v-1820h-25zM633 -160v1820h25v-1820h-25z" />
    <glyph glyph-name="percent" unicode="%" horiz-adv-x="2024" 
d="M477 0l1041 1500h29l-1041 -1500h-29zM494 640q-85 0 -161 28.5t-135.5 84.5t-93.5 138t-34 189t34 189t93.5 138t135.5 84.5t161 28.5t161.5 -28.5t135.5 -84.5t93 -138t34 -189t-39.5 -189t-103 -138t-137.5 -84.5t-144 -28.5zM494 665q45 0 73.5 30.5t45.5 86t24 132
t7 166.5q0 91 -7 167t-24 131.5t-45.5 86t-73.5 30.5q-44 0 -73 -30.5t-46 -86t-24 -131.5t-7 -167q0 -90 7 -166.5t24 -132t46 -86t73 -30.5zM1529 -20q-84 0 -160.5 28.5t-135.5 84.5t-93 138t-34 189t34 189t93 138t135.5 84.5t160.5 28.5q85 0 161.5 -28.5t136 -84.5
t93.5 -138t34 -189t-39.5 -189t-103 -138t-138 -84.5t-144.5 -28.5zM1529 5q45 0 74 30.5t46 86t24 132t7 166.5q0 91 -7 167t-24 131.5t-46 86t-74 30.5q-43 0 -72 -30.5t-46 -86t-24 -131.5t-7 -167q0 -90 7 -166.5t24 -132t46 -86t72 -30.5z" />
    <glyph glyph-name="ampersand" unicode="&#x26;" horiz-adv-x="1676" 
d="M1076 0l-662 980q-39 57 -65.5 125.5t-26.5 120.5q0 90 56.5 156t156.5 102t231 36q122 0 215 -31.5t144.5 -88t51.5 -133.5q0 -74 -33 -128t-90.5 -94t-132 -74t-156.5 -68l-14 17q37 23 76 63t66 108.5t27 177.5q0 52 -13 105t-46.5 88.5t-97.5 35.5t-101.5 -29.5
t-54.5 -75.5t-17 -95q0 -57 39 -139.5t103 -178.5l628 -955h256v-25h-540zM556 -20q-148 0 -255 46t-164.5 129t-57.5 195q0 91 39.5 162t100.5 123.5t127 89.5t120.5 60t79.5 34l10 -18q-63 -34 -106.5 -81t-66.5 -114t-23 -160q0 -73 22.5 -144.5t65 -129.5t104 -93
t138.5 -35q108 0 206.5 48t183 132.5t150 195.5t107 237.5t53.5 256.5h25q-14 -134 -58 -267.5t-117.5 -253t-175 -213t-228.5 -147t-280 -53.5zM1136 895v25h480v-25h-480z" />
    <glyph glyph-name="quotesingle" unicode="'" horiz-adv-x="471" 
d="M224 934q0 83 -15.5 136t-37.5 92.5t-41.5 79.5t-27.5 96q-1 11 -1.5 19t-0.5 17q0 68 39.5 107t96.5 39t96.5 -39t39.5 -107v-17t-2 -19q-8 -56 -27.5 -96t-41.5 -79.5t-37.5 -92.5t-15.5 -136h-24z" />
    <glyph glyph-name="parenleft" unicode="(" horiz-adv-x="737" 
d="M698 -340q-122 53 -225.5 148t-180.5 224.5t-119.5 286t-42.5 331.5q0 233 74 422t202.5 323.5t291.5 204.5l11 -18q-81 -53 -141 -151t-99 -224.5t-58 -269.5t-19 -287t19 -293t58 -283.5t99 -238t141 -156.5z" />
    <glyph glyph-name="parenright" unicode=")" horiz-adv-x="740" 
d="M43 -340l-11 18q81 54 141 151.5t99 224t58 269.5t19 287t-19 293t-58 283.5t-99 238t-141 156.5l11 19q122 -52 225.5 -147.5t180.5 -225t119.5 -286t42.5 -331.5q0 -233 -74 -422t-202.5 -323.5t-291.5 -204.5z" />
    <glyph glyph-name="asterisk" unicode="*" horiz-adv-x="1261" 
d="M631 349q-58 0 -94 39.5t-36 106.5q0 9 0.5 18t1.5 19q7 54 25 92.5t38 76t35 87t17 124.5q-65 -39 -100 -76.5t-58 -73.5t-47 -71t-67 -68q-8 -7 -15.5 -11t-15.5 -9q-59 -34 -110.5 -22t-80.5 61q-29 50 -13.5 101t74.5 85q8 5 15.5 8.5t17.5 7.5q50 21 92.5 25t85 5
t92.5 13t116 48q-66 36 -116 47.5t-92.5 12.5t-85 5.5t-92.5 24.5q-10 4 -17.5 8.5t-15.5 8.5q-59 33 -74.5 84.5t13.5 100.5q29 50 80.5 61.5t110.5 -21.5q8 -4 15.5 -8.5t15.5 -11.5q43 -34 67 -68.5t47 -70.5t58 -74t100 -76q-2 74 -17 123.5t-35 87t-38 76t-25 92.5
q-1 11 -1.5 19.5t-0.5 17.5q0 68 36 107t94 39q57 0 93 -39t36 -107v-17.5t-2 -19.5q-7 -54 -25 -92.5t-38 -76t-35 -87t-17 -123.5q65 38 100 76t58 74t47 70.5t67 68.5q8 7 16 11.5t15 8.5q59 33 110.5 21.5t80.5 -61.5q29 -49 13.5 -100.5t-74.5 -84.5q-7 -4 -15 -8.5
t-18 -8.5q-50 -20 -92.5 -24.5t-85 -5.5t-92.5 -12.5t-116 -47.5q66 -36 116 -48t92.5 -13t85 -5.5t92.5 -24.5q10 -4 18 -7.5t15 -8.5q59 -34 74.5 -85t-13.5 -101q-29 -49 -80.5 -61t-110.5 22q-7 5 -15 9t-16 11q-43 33 -67 68t-47 71t-58 73.5t-100 76.5
q2 -75 17 -124.5t35 -87t38 -76t25 -92.5q2 -10 2 -19v-18q0 -67 -36 -106.5t-93 -39.5z" />
    <glyph glyph-name="plus" unicode="+" horiz-adv-x="1059" 
d="M233 647v250h593v-250h-593zM404 474v594h250v-594h-250z" />
    <glyph glyph-name="comma" unicode="," horiz-adv-x="503" 
d="M76 -303v25q79 0 143 31.5t107.5 87t61 128.5t2.5 157h9q2 -34 -19 -68t-58.5 -56t-82.5 -22q-78 0 -118.5 45.5t-40.5 108.5q0 42 22.5 77t61.5 56t86 21q48 0 88 -27.5t64 -78.5t24 -123q0 -96 -42 -178.5t-120.5 -133t-187.5 -50.5z" />
    <glyph glyph-name="hyphen" unicode="-" horiz-adv-x="719" 
d="M120 538v24h480v-24h-480z" />
    <glyph glyph-name="period" unicode="." horiz-adv-x="471" 
d="M236 -20q-43 0 -78 21t-56.5 56.5t-21.5 78.5t21.5 78.5t56.5 57t78 21.5t78.5 -21.5t56.5 -57t21 -78.5t-21 -78.5t-56.5 -56.5t-78.5 -21z" />
    <glyph glyph-name="slash" unicode="/" horiz-adv-x="1049" 
d="M80 -300l865 1861h25l-865 -1861h-25z" />
    <glyph glyph-name="zero" unicode="0" horiz-adv-x="1287" 
d="M644 -20q-127 0 -230.5 59t-178 164t-115 245t-40.5 302t43 302t119.5 245t179 164t222.5 59t222.5 -59t179 -164t119.5 -245t43 -302t-40.5 -302t-115 -245t-178.5 -164t-230 -59zM644 3q87 0 139 60.5t79 165.5t35.5 239.5t8.5 281.5q0 148 -10.5 282.5t-38.5 239
t-79.5 165t-133.5 60.5q-80 0 -131 -60.5t-79.5 -165.5t-40 -239t-11.5 -282q0 -147 9 -281.5t35.5 -239.5t78.5 -165.5t139 -60.5z" />
    <glyph glyph-name="one" unicode="1" horiz-adv-x="941" 
d="M360 7v1468h-226v25h488v-1493h-262zM100 0v25h742v-25h-742z" />
    <glyph glyph-name="two" unicode="2" horiz-adv-x="1159" 
d="M80 0v172l450 377q126 104 186 238.5t60 288.5q0 112 -36.5 201t-102 141.5t-151.5 52.5q-105 0 -189.5 -48t-131 -138.5t-36.5 -215.5h-23q0 34 24 64t62 48.5t80 18.5q39 0 74.5 -19t58 -52t22.5 -77q0 -49 -22 -85t-58.5 -56t-80.5 -20t-80 22.5t-58 62.5t-24 93
q-10 135 45.5 236.5t166 158t264.5 56.5q148 0 253 -52t160 -138.5t55 -189.5q0 -81 -27.5 -146.5t-71.5 -118.5t-96.5 -97.5t-103.5 -84.5l-518 -441h833v150h25v-402h-1009z" />
    <glyph glyph-name="three" unicode="3" horiz-adv-x="1101" 
d="M492 -20q-150 0 -247.5 47t-146 120t-48.5 151q0 73 43.5 115.5t106.5 42.5q57 0 97 -38t40 -103q0 -40 -20.5 -70t-53 -47.5t-69.5 -17.5t-69 16t-52.5 42.5t-20.5 59.5h23q0 -76 45.5 -141t128 -105t191.5 -40q108 0 176 52.5t100 142t32 199.5q0 61 -14 129t-52.5 128
t-110 98t-187.5 38v15q181 0 304 -33t196 -91t105.5 -132.5t32.5 -157.5q0 -97 -42.5 -175t-116.5 -132.5t-169.5 -83.5t-201.5 -29zM384 807v16q108 0 169.5 33t90.5 86t36.5 114.5t7.5 118.5q0 64 -13.5 121t-40.5 100t-68.5 67.5t-97.5 24.5q-55 0 -113.5 -19
t-108.5 -53.5t-81 -81.5t-31 -104h-23q0 38 22.5 65.5t55.5 42.5t66 15q37 0 69.5 -16.5t53 -46.5t20.5 -73q0 -47 -22.5 -78.5t-55.5 -47t-65 -15.5q-38 0 -71 18.5t-54 53t-21 82.5q0 59 33.5 111t91.5 92t130 62.5t148 22.5q84 0 164 -21.5t144.5 -63.5t103 -105
t38.5 -146q0 -75 -26 -142.5t-89.5 -120t-176.5 -82.5t-286 -30z" />
    <glyph glyph-name="four" unicode="4" horiz-adv-x="1243" 
d="M552 0v25h190v1342l-628 -924h1110v-25h-1156l734 1082h202v-1475h150v-25h-602z" />
    <glyph glyph-name="five" unicode="5" horiz-adv-x="1041" 
d="M432 -20q-109 0 -198.5 39.5t-143 105t-53.5 145.5q0 75 42.5 117.5t106.5 42.5q56 0 103 -37.5t47 -110.5q0 -44 -21.5 -76.5t-55.5 -51t-73 -18.5q-26 0 -52 12.5t-47.5 32t-34.5 43.5t-13 46h24q0 -55 28.5 -103t77 -84t111 -56.5t130.5 -20.5q90 0 147 40.5t88 106.5
t43 144t12 154q0 124 -34.5 220t-97.5 150t-147 54q-71 0 -125 -24t-89.5 -57.5t-51.5 -63.5h-23q16 37 62 81.5t124.5 77t191.5 32.5q138 0 244.5 -55t166.5 -160t60 -255q0 -97 -41 -182.5t-115 -150.5t-174 -101.5t-219 -36.5zM122 730v770h765v109h25v-361h-765v-518
h-25z" />
    <glyph glyph-name="six" unicode="6" horiz-adv-x="1179" 
d="M618 -20q-157 0 -273.5 72.5t-180.5 215t-64 352.5q0 182 65.5 344.5t184 287.5t277 196.5t343.5 71.5v-23q-133 0 -241.5 -67t-186.5 -182.5t-120 -261t-42 -303.5l-2 -123q0 -110 13 -210t42 -178t75.5 -122.5t115.5 -44.5q68 0 111 41t66 111t32 158.5t9 184.5
q0 147 -27.5 245t-79 147t-125.5 49q-82 0 -133.5 -45t-75 -130t-23.5 -206h-21q0 125 26 220t92 149t189 54q80 0 160.5 -28t147.5 -86t107.5 -149.5t40.5 -219.5q0 -150 -60 -267.5t-172.5 -185t-269.5 -67.5z" />
    <glyph glyph-name="seven" unicode="7" horiz-adv-x="1051" 
d="M480 -20q-72 0 -120 44.5t-48 145.5q0 59 26.5 125.5t69.5 138.5t93 149t97 159q37 65 80 147.5t89.5 172t90.5 176.5h-753v-150h-25v412h952l-26.5 -51.5t-70 -136t-96 -185t-106 -201t-98.5 -180.5q-48 -88 -77.5 -140.5t-42.5 -88.5t-13 -75q0 -50 21.5 -84.5
t49.5 -64.5t49.5 -64t21.5 -83q0 -69 -42.5 -117.5t-121.5 -48.5z" />
    <glyph glyph-name="eight" unicode="8" horiz-adv-x="1159" 
d="M580 -20q-255 0 -377.5 110t-122.5 290q0 167 105 271t323 119q-190 16 -289 107t-99 243q0 110 52 201t155 145t253 54t252.5 -54t155 -145t52.5 -201q0 -152 -99 -243t-289 -107q218 -15 323 -119t105 -271q0 -180 -122.5 -290t-377.5 -110zM580 5q84 0 134 52
t72 137.5t22 185.5t-22 185.5t-72 138t-134 52.5t-134 -52.5t-72 -138t-22 -185.5t22 -185.5t72 -137.5t134 -52zM580 785q71 0 112 42.5t58.5 118t17.5 174.5q0 72 -9.5 139t-31 120.5t-58 84.5t-89.5 31q-54 0 -90 -31t-57.5 -84.5t-31 -120.5t-9.5 -139
q0 -99 17.5 -174.5t58.5 -118t112 -42.5z" />
    <glyph glyph-name="nine" unicode="9" horiz-adv-x="1179" 
d="M210 -20v23q133 0 241.5 67t186.5 182.5t120 261t42 303.5l2 123q0 110 -13 210t-42 178t-75.5 122.5t-115.5 44.5q-68 0 -111 -41t-66 -111t-32 -158.5t-9 -184.5q0 -147 27.5 -245t79 -147t125.5 -49q82 0 133.5 45t75 130t23.5 206h21q0 -125 -26 -220t-92 -149
t-189 -54q-81 0 -161 28t-147 86t-107.5 150t-40.5 219q0 150 60 267.5t172.5 185t269.5 67.5t273.5 -72.5t180.5 -215t64 -352.5q0 -182 -65.5 -344.5t-184 -287.5t-277 -196.5t-343.5 -71.5z" />
    <glyph glyph-name="colon" unicode=":" horiz-adv-x="468" 
d="M236 760q-43 0 -78 21t-56.5 56.5t-21.5 78.5t21.5 78.5t56.5 57t78 21.5t78.5 -21.5t56.5 -57t21 -78.5t-21 -78.5t-56.5 -56.5t-78.5 -21zM236 -20q-43 0 -78 21t-56.5 56.5t-21.5 78.5t21.5 78.5t56.5 57t78 21.5t78.5 -21.5t56.5 -57t21 -78.5t-21 -78.5t-56.5 -56.5
t-78.5 -21z" />
    <glyph glyph-name="semicolon" unicode=";" horiz-adv-x="503" 
d="M237 760q-43 0 -78 21t-56.5 56.5t-21.5 78.5t21.5 78.5t56.5 57t78 21.5t78.5 -21.5t56.5 -57t21 -78.5t-21 -78.5t-56.5 -56.5t-78.5 -21zM77 -303v25q79 0 143 31.5t107.5 87t61 128.5t2.5 157h9q2 -34 -19 -68t-58.5 -56t-82.5 -22q-78 0 -118.5 45.5t-40.5 108.5
q0 42 22.5 77t61.5 56t86 21q48 0 88 -27.5t64 -78.5t24 -123q0 -96 -42 -178.5t-120.5 -133t-187.5 -50.5z" />
    <glyph glyph-name="less" unicode="&#x3c;" horiz-adv-x="1119" 
d="M120 765v27l880 416v-27zM1000 343l-880 415v27l880 -416v-26z" />
    <glyph glyph-name="equal" unicode="=" horiz-adv-x="1119" 
d="M120 909v24h880v-24h-880zM120 608v24h880v-24h-880z" />
    <glyph glyph-name="greater" unicode="&#x3e;" horiz-adv-x="1119" 
d="M120 1181v26l880 -415v-34l-880 -416v27l859 406z" />
    <glyph glyph-name="question" unicode="?" horiz-adv-x="1141" 
d="M489 460v251q100 29 161.5 90t89.5 143.5t28 175.5q0 71 -8.5 137t-33.5 118.5t-75.5 83.5t-134.5 31q-74 0 -140 -27t-118 -73.5t-82.5 -104t-30.5 -118.5h-23q0 38 20.5 66.5t53 44.5t68.5 16q37 0 70 -17t53.5 -48t20.5 -74q0 -47 -22.5 -78.5t-56 -47t-65.5 -15.5
q-57 0 -100.5 40.5t-43.5 112.5q0 62 32 124.5t90.5 114t138.5 83t175 31.5q148 0 257.5 -50t169 -140t59.5 -210q0 -115 -68 -207t-187.5 -148.5t-272.5 -65.5v-239h-25zM522 -20q-43 0 -78 21t-56.5 56.5t-21.5 78.5t21.5 78.5t56.5 57t78 21.5t78.5 -21.5t56.5 -57
t21 -78.5t-21 -78.5t-56.5 -56.5t-78.5 -21z" />
    <glyph glyph-name="at" unicode="@" horiz-adv-x="2019" 
d="M838 -428q-137 0 -267 45t-234.5 144.5t-166 262.5t-61.5 398q0 188 53.5 360.5t151 317.5t230 253t291.5 167.5t335 59.5q190 0 329.5 -69t230.5 -183t135.5 -251.5t44.5 -274.5q0 -122 -35 -240.5t-103.5 -214.5t-170.5 -153.5t-237 -57.5q-80 0 -130 26.5t-74 69
t-28 92.5t6 96l144 620h252l-146 -626q-4 -18 -11.5 -46.5t-12 -61t-0.5 -61.5t22 -47.5t57 -18.5q93 0 173.5 50.5t140.5 138t94 199.5t34 235q0 134 -42.5 267t-130.5 243t-223 176.5t-320 66.5q-170 0 -325 -58.5t-284 -164t-224.5 -247.5t-148 -310.5t-52.5 -352.5
q0 -230 59.5 -388t160 -254.5t226 -139.5t257.5 -43q161 0 291 32t234.5 96.5t189.5 162.5l17 -16q-126 -147 -306.5 -223.5t-425.5 -76.5zM822 140q-83 0 -151.5 36.5t-109.5 108t-41 175.5q0 113 38 219.5t104 192t150 136.5t175 51q66 0 108 -31.5t66 -83t33.5 -113.5
t9.5 -123q0 -114 -28 -216.5t-80 -181.5t-121.5 -124.5t-152.5 -45.5zM908 206q50 0 98.5 39.5t88 107.5t63 155t23.5 184q0 32 -3.5 81.5t-16.5 100t-40 85t-75 34.5q-46 0 -91 -47t-81 -125t-58 -171.5t-22 -186.5q0 -67 11 -125.5t36 -95t67 -36.5z" />
    <glyph glyph-name="A" unicode="A" horiz-adv-x="1558" 
d="M410 475v25h615v-25h-615zM842 1529l522 -1504h149v-25h-643v25h191l-384 1187l-416 -1187h224v-25h-440v25h187l529 1504h81z" />
    <glyph glyph-name="B" unicode="B" horiz-adv-x="1362" 
d="M45 0v25h636q83 0 150 49t106.5 138t39.5 208t-39.5 193.5t-106.5 109.5t-150 35h-228v16h273q150 0 273 -35t196.5 -115t73.5 -216q0 -220 -144 -314t-399 -94h-681zM225 11v1478h263v-1478h-263zM453 766v17h208q73 0 136 32t102 103.5t39 190.5t-39 200.5t-102 123.5
t-136 42h-616v25h640q241 0 382.5 -87.5t141.5 -282.5q0 -191 -134 -277.5t-390 -86.5h-232z" />
    <glyph glyph-name="C" unicode="C" horiz-adv-x="1415" 
d="M797 -20q-215 0 -373 99.5t-244 273.5t-86 397t86 397t244 273.5t373 99.5q96 0 179.5 -33t148.5 -93l146 106h22v-428h-26q-23 123 -87.5 216.5t-158.5 146t-204 52.5q-119 0 -200 -63t-129.5 -169t-70.5 -237t-22 -268q0 -136 22 -267.5t70.5 -237.5t129.5 -169
t200 -63q101 0 181 32t139.5 89.5t97 133t52.5 160.5h26v-428h-23l-134 114q-65 -62 -156.5 -98t-202.5 -36z" />
    <glyph glyph-name="D" unicode="D" horiz-adv-x="1490" 
d="M653 1500q232 0 398.5 -96t256 -265.5t89.5 -388.5q0 -164 -53.5 -301.5t-152 -238t-235.5 -155.5t-303 -55h-608v25h180v1450h-180v25h608zM488 25h165q124 0 209 58.5t136.5 160.5t74 232.5t22.5 273.5t-25.5 273.5t-79 232.5t-137 160.5t-200.5 58.5h-165v-1450z" />
    <glyph glyph-name="E" unicode="E" horiz-adv-x="1247" 
d="M45 0v25h180v1450h-180v25h1111v-410h-24q-9 107 -53 194.5t-123.5 139t-196.5 51.5h-271v-1450h250q137 0 225 53.5t134 149t55 222.5h24v-450h-1131zM809 538q-9 67 -43 118t-84.5 79.5t-107.5 28.5h-150v24h150q57 0 107.5 26t84.5 74.5t43 115.5h25v-466h-25z" />
    <glyph glyph-name="F" unicode="F" horiz-adv-x="1201" 
d="M817 512q-9 67 -41 117t-88 77.5t-137 27.5h-131v24h131q81 0 137 25t88 72t41 114h25v-457h-25zM1130 1500v-410h-25q-9 107 -49.5 194.5t-116 139t-189.5 51.5h-262v-1450h199v-25h-642v25h180v1450h-180v25h1085z" />
    <glyph glyph-name="G" unicode="G" horiz-adv-x="1498" 
d="M867 583h601v-26h-109v-239q-38 -49 -88 -107.5t-118 -111t-159.5 -86t-213.5 -33.5q-217 0 -370.5 97t-234.5 270.5t-81 402.5q0 171 54 312.5t151 244t227.5 158t282.5 55.5q92 0 176.5 -32t150.5 -89l159 101h22v-428h-26q-10 84 -50 159t-102 132.5t-140.5 90.5
t-165.5 33q-119 0 -202.5 -63t-135.5 -169t-76 -237t-24 -268q0 -136 17 -269t59.5 -240.5t117.5 -171.5t191 -64q75 0 127 28t86.5 69t54.5 82t30 66v307h-211v26z" />
    <glyph glyph-name="H" unicode="H" horiz-adv-x="1562" 
d="M1517 1500v-25h-180v-1450h180v-25h-630v25h188v703h-587v-703h187v-25h-630v25h180v1450h-180v25h630v-25h-187v-723h587v723h-188v25h630z" />
    <glyph glyph-name="I" unicode="I" horiz-adv-x="812" 
d="M45 0v25h220v1450h-220v25h722v-25h-240v-1450h240v-25h-722z" />
    <glyph glyph-name="J" unicode="J" horiz-adv-x="998" 
d="M953 1500v-25h-200v-1135q-23 -64 -56.5 -134t-82.5 -130.5t-118 -98.5t-162 -38q-92 0 -160.5 34t-106.5 89.5t-38 120.5q0 51 21 88t56 57t76 20q35 0 70 -17t58.5 -51t23.5 -84q0 -48 -22.5 -80.5t-58.5 -48.5t-77 -15q-31 2 -61 23t-39 52q12 -45 46 -81.5t83 -57.5
t107 -21q75 0 113.5 45t52.5 137t14 231v1095h-260v25h721z" />
    <glyph glyph-name="K" unicode="K" horiz-adv-x="1484" 
d="M275 434l843 1041h-225v25h480v-25h-219l-843 -1041h-36zM45 0v25h180v1450h-180v25h642v-25h-199v-1450h187v-25h-630zM783 0v25h198l-424 747l173 202l563 -949h170v-25h-680z" />
    <glyph glyph-name="L" unicode="L" horiz-adv-x="1220" 
d="M45 0v25h180v1450h-180v25h622v-25h-179v-1450h243q113 0 189.5 30.5t123.5 86.5t70 134.5t30 173.5h25v-450h-1124z" />
    <glyph glyph-name="M" unicode="M" horiz-adv-x="1765" 
d="M767 -20l-556 1520h264l425 -1145l399 1145h27l-529 -1520h-30zM224 1500v-1475h151v-25h-320v25h143v1450h-153v25h179zM1721 1500v-25h-140v-1450h140v-25h-563v25h161v1475h402z" />
    <glyph glyph-name="N" unicode="N" horiz-adv-x="1527" 
d="M273 1500v-1475h234v-25h-462v25h202v1450h-202v25h228zM1483 1500v-25h-211v-1495h-34l-983 1520h314l678 -1071v1046h-231v25h467z" />
    <glyph glyph-name="O" unicode="O" horiz-adv-x="1514" 
d="M758 -20q-157 0 -280 59t-209 164t-130.5 245t-44.5 302t47 302t135 245t210 164t272 59q149 0 271 -59t210 -164t135 -245t47 -302t-44.5 -302t-130 -245.5t-209 -164t-279.5 -58.5zM758 3q115 0 186 60.5t109.5 165.5t52.5 239.5t14 281.5q0 148 -17 282t-57.5 239
t-110.5 165.5t-177 60.5t-177.5 -60.5t-111 -165t-57.5 -239t-17 -282.5q0 -147 14.5 -282t52.5 -239.5t109.5 -165t186.5 -60.5z" />
    <glyph glyph-name="P" unicode="P" horiz-adv-x="1321" 
d="M695 1500q186 0 305 -52.5t176 -148t57 -225.5t-57 -222.5t-176 -141.5t-305 -49h-207v-636h179v-25h-622v25h180v1450h-180v25h650zM488 686h183q67 0 118 35t84.5 92.5t50.5 125.5t17 135t-17 137.5t-50.5 130.5t-84.5 96.5t-118 36.5h-183v-789z" />
    <glyph glyph-name="Q" unicode="Q" horiz-adv-x="1514" 
d="M1133 -500q-175 0 -281 26.5t-160 85t-72 155t-18 237.5q77 -17 151.5 -17t149.5 17q0 -136 7 -228.5t29.5 -147.5t69 -79t124.5 -24v-25zM758 -20q-157 0 -280 59t-209 164t-130.5 245t-44.5 302t47 302t135 245t210 164t272 59q149 0 271 -59t210 -164t135 -245
t47 -302t-44.5 -302t-130 -245.5t-209 -164t-279.5 -58.5zM758 3q115 0 186 60.5t109.5 165.5t52.5 239.5t14 281.5q0 148 -17 282t-57.5 239t-110.5 165.5t-177 60.5t-177.5 -60.5t-111 -165t-57.5 -239t-17 -282.5q0 -147 14.5 -282t52.5 -239.5t109.5 -165t186.5 -60.5z
" />
    <glyph glyph-name="R" unicode="R" horiz-adv-x="1469" 
d="M405 762v15h294q96 0 161.5 39t99.5 116.5t34 192.5t-34 193t-99.5 117.5t-161.5 39.5h-654v25h684q160 0 281 -39.5t188 -122.5t67 -213t-63 -210t-183 -116.5t-290 -36.5h-324zM45 0v25h679v-25h-679zM253 13v1472h262v-1472h-262zM1219 -13q-96 0 -150 32t-79.5 87
t-32.5 123t-8 140.5t-7 141t-29 123t-74.5 86.5t-143.5 32h-290v14h402q142 0 225 -40t124 -106.5t54.5 -145.5t14 -158.5t3 -146t21.5 -106.5t71 -40q31 0 58.5 7t47.5 17l9 -23q-24 -13 -81 -25t-135 -12z" />
    <glyph glyph-name="S" unicode="S" horiz-adv-x="1177" 
d="M617 -29q-120 0 -207.5 38t-147.5 103l-144 -132h-22v446h25q23 -85 62 -162t97 -137.5t138 -95t185 -34.5q100 0 172.5 36.5t112.5 103.5t40 159q0 84 -44 141.5t-115.5 99t-157.5 78t-172 78t-157.5 98.5t-115 139.5t-43.5 201.5t60 206.5t158 134.5t214 47
q94 0 172.5 -30t138.5 -90l140 120h21v-435h-24q-32 132 -92.5 223t-146 137.5t-194.5 46.5q-129 0 -196.5 -66t-67.5 -172q0 -76 43 -128.5t114 -92.5t155.5 -77t169.5 -81t155.5 -104t113.5 -145.5t43 -207.5q0 -136 -62 -236.5t-171 -155.5t-250 -55z" />
    <glyph glyph-name="T" unicode="T" horiz-adv-x="1353" 
d="M326 0v25h220v1450h-155q-83 0 -141 -33t-95.5 -93t-57.5 -141t-27 -176h-25v468h1264v-468h-25q-6 95 -26.5 176t-57.5 141t-95.5 93t-141.5 33h-155v-1450h220v-25h-702z" />
    <glyph glyph-name="U" unicode="U" horiz-adv-x="1451" 
d="M1403 1500v-25h-192v-1015q0 -247 -111.5 -368t-353.5 -121q-272 0 -398 115t-126 374v1015h-179v25h642v-25h-200v-995q0 -99 13 -185t47.5 -150.5t98 -101t164.5 -36.5q119 0 203.5 46.5t130 146.5t45.5 260v1015h-185v25h401z" />
    <glyph glyph-name="V" unicode="V" horiz-adv-x="1557" 
d="M1515 1500v-25h-177l-540 -1504h-86l-522 1504h-148v25h664v-25h-212l388 -1196l427 1196h-246v25h452z" />
    <glyph glyph-name="W" unicode="W" horiz-adv-x="2125" 
d="M717 -20l-512 1495h-174v25h1572v-25h-521l390 -1157l423 1157h-198v25h398v-25h-172l-546 -1495h-56l-512 1495h-313l393 -1157l188 507l14 -42l-299 -803h-75zM1238 934l-22 18l193 539l27 -5z" />
    <glyph glyph-name="X" unicode="X" horiz-adv-x="1561" 
d="M891 0v25h182l-840 1450h-134v25h632v-25h-194l849 -1450h142v-25h-637zM30 0v25h211l529 809l23 -12l-521 -797h233v-25h-475zM778 781l432 694h-229v25h437v-25h-179l-438 -707z" />
    <glyph glyph-name="Y" unicode="Y" horiz-adv-x="1469" 
d="M441 0v25h180v695l-448 755h-143v25h652v-25h-205l393 -685l370 685h-220v25h416v-25h-167l-386 -712v-738h201v-25h-643z" />
    <glyph glyph-name="Z" unicode="Z" horiz-adv-x="1196" 
d="M34 0v25l778 1450h-330q-136 0 -215 -38.5t-116.5 -113t-49.5 -181.5h-24v358h1029v-25l-778 -1450h389q137 0 215.5 40.5t116 123t49.5 209.5h25v-398h-1089z" />
    <glyph glyph-name="bracketleft" unicode="[" horiz-adv-x="685" 
d="M109 -300v1860h253v-1860h-253zM109 -300v25h517v-25h-517zM109 1535v25h517v-25h-517z" />
    <glyph glyph-name="backslash" unicode="\" horiz-adv-x="1046" 
d="M939 -300l-859 1860h28l859 -1860h-28z" />
    <glyph glyph-name="bracketright" unicode="]" horiz-adv-x="685" 
d="M324 -300v1860h253v-1860h-253zM60 -300v25h517v-25h-517zM60 1535v25h517v-25h-517z" />
    <glyph glyph-name="asciicircum" unicode="^" horiz-adv-x="1089" 
d="M215 1246l-15 14l280 280h129l282 -280l-16 -14l-331 199z" />
    <glyph glyph-name="underscore" unicode="_" horiz-adv-x="1119" 
d="M-11 -312v24h1140v-24h-1140z" />
    <glyph glyph-name="grave" unicode="`" horiz-adv-x="1000" 
d="M669 1682l-273 105q-36 10 -56 36.5t-22.5 59t14.5 58.5q15 23 45.5 35t65 4t59.5 -45l181 -236z" />
    <glyph glyph-name="a" unicode="a" horiz-adv-x="1114" 
d="M870 -20q-57 0 -104 16.5t-75 55t-28 103.5v454q0 72 -12.5 141t-52 114t-119.5 45q-46 0 -97.5 -11t-96.5 -33.5t-73 -57t-28 -81.5h-29q0 58 42 93t95 35q56 0 100 -32t44 -92q0 -67 -44.5 -99.5t-99.5 -32.5q-59 0 -99 33.5t-40 94.5q0 52 32 91.5t85 65.5t119 39.5
t134 13.5q147 0 229 -45t115.5 -119.5t33.5 -162.5v-498q0 -34 14 -57.5t53 -23.5q28 0 65 24t59 70l14 -18q-27 -58 -89.5 -92t-146.5 -34zM368 -20q-130 0 -207.5 66.5t-77.5 180.5q0 134 115 208.5t328 74.5h230v-22h-190q-81 0 -129.5 -38.5t-70 -93.5t-21.5 -107
q0 -49 12.5 -93.5t40.5 -73t73 -28.5q49 0 93 33t71.5 101.5t27.5 174.5h16q0 -116 -35.5 -202t-104.5 -133.5t-171 -47.5z" />
    <glyph glyph-name="b" unicode="b" horiz-adv-x="1245" 
d="M741 -20q-127 0 -208 89t-107 247v-316h-371v25h131v1450h-131v25h371v-897q26 159 107 247t208 88q108 0 203.5 -57t155.5 -164t60 -257t-60 -257.5t-155.5 -165t-203.5 -57.5zM689 23q66 0 110 51.5t65.5 149t21.5 236.5t-21.5 236t-65.5 148t-110 51q-68 0 -128 -49.5
t-97.5 -146t-37.5 -239.5t37.5 -240t97.5 -147t128 -50z" />
    <glyph glyph-name="c" unicode="c" horiz-adv-x="1037" 
d="M560 -20q-134 0 -241.5 54.5t-170 161.5t-62.5 264q0 137 55.5 245.5t163 171.5t261.5 63q111 0 193 -36t127.5 -96t45.5 -131q0 -65 -40.5 -102t-97.5 -37q-33 0 -66 14.5t-55.5 45t-22.5 77.5q0 64 43.5 99t100.5 35q54 0 95 -34t41 -98h-23q0 54 -27 97t-70.5 73.5
t-96 46.5t-103.5 16q-78 0 -126 -43t-73 -111.5t-34 -146.5t-9 -149q0 -86 10.5 -165.5t36.5 -141.5t73 -98.5t119 -36.5q82 0 142 33t101.5 91.5t66.5 133.5h27q-39 -130 -130 -213t-254 -83z" />
    <glyph glyph-name="d" unicode="d" horiz-adv-x="1245" 
d="M505 -19q-108 0 -203.5 57t-155.5 164t-60 257t60 257.5t155.5 165t203.5 57.5q127 0 207.5 -89t106.5 -247v872h-130v25h371v-1475h130v-25h-371v315q-26 -158 -106.5 -246t-207.5 -88zM557 25q67 0 127 49t97.5 145.5t37.5 239.5t-37.5 240t-97.5 147t-127 50
q-66 0 -110 -51.5t-65.5 -149t-21.5 -236.5t21.5 -236t65.5 -147.5t110 -50.5z" />
    <glyph glyph-name="e" unicode="e" horiz-adv-x="1059" 
d="M562 -20q-136 0 -243.5 56.5t-170 163.5t-62.5 260t60 260t165.5 163.5t241.5 56.5q148 0 240.5 -59.5t136.5 -155t44 -204.5h-754v25h491q0 59 -4.5 123.5t-20.5 120t-47.5 90.5t-85.5 35q-59 0 -98 -36.5t-61 -99.5t-31 -142t-9 -165q0 -92 10.5 -175.5t37 -147.5
t73.5 -101t120 -37q138 0 230 75.5t130 189.5h27q-39 -127 -142.5 -211.5t-277.5 -84.5z" />
    <glyph glyph-name="f" unicode="f" horiz-adv-x="803" 
d="M217 0v1023q0 137 53.5 250t153.5 180t241 67q85 0 144 -33.5t89.5 -83t30.5 -99.5q0 -72 -43.5 -110t-98.5 -38q-31 0 -63 13.5t-53.5 43t-21.5 76.5q0 64 43 99.5t92 35.5q34 0 67 -14.5t54.5 -41t21.5 -64.5h-23q0 51 -30 94t-82.5 70t-117.5 27q-82 0 -131 -51
t-70.5 -144t-21.5 -220v-1080h-234zM47 0v25h634v-25h-634zM47 895v25h674v-25h-674z" />
    <glyph glyph-name="g" unicode="g" 
d="M516 -520q-91 0 -173.5 15t-147.5 46t-102.5 80.5t-37.5 119.5q0 64 33 107t82.5 67.5t99 35t83.5 10.5h19q-54 -30 -76.5 -79t-22.5 -116q0 -65 31 -124t93.5 -96t158.5 -37q71 0 136 17t116 50.5t81 82t30 112.5q0 63 -35 103t-92 59t-122 19h-67h-92.5h-68.5
q-146 0 -234.5 42.5t-88.5 138.5q0 58 33 98.5t88 66t123 37.5t139 12l-1 -15q-30 0 -67.5 -6.5t-71.5 -20t-56.5 -34t-22.5 -47.5q0 -45 52 -56t134 -11q35 0 66 0.5t60.5 1t58.5 0.5q56 0 114.5 -12.5t108.5 -47t80.5 -98t30.5 -165.5q0 -95 -38 -162.5t-104.5 -110
t-151.5 -63t-178 -20.5zM493 327q-67 0 -135 17t-125.5 53.5t-92.5 95t-35 140.5q0 83 35 141.5t92.5 94.5t125.5 53t135 17q66 0 133.5 -17t123.5 -53t90 -94.5t34 -141.5q0 -82 -34 -140.5t-90 -95t-123.5 -53.5t-133.5 -17zM493 352q48 0 79 39t46 103t15 139
q0 79 -15 142.5t-46 101t-79 37.5q-49 0 -80 -37.5t-45.5 -101t-14.5 -142.5q0 -75 8 -139t38 -103t94 -39zM1067 639q-45 0 -80.5 30t-35.5 86q0 57 36.5 82.5t79.5 25.5q41 0 80 -25.5t39 -73.5h-24q0 53 -41 97.5t-116 44.5q-41 0 -88.5 -19t-88.5 -66t-61 -131l-17 12
q20 88 63.5 137.5t95 70t94.5 20.5q58 0 99 -24.5t63.5 -62.5t22.5 -79q0 -71 -38.5 -98t-82.5 -27z" />
    <glyph glyph-name="h" unicode="h" horiz-adv-x="1219" 
d="M55 0v25h131v1450h-131v25h371v-1475h112v-25h-483zM684 0v25h112v594q0 84 -7.5 143t-30 89.5t-69.5 30.5q-75 0 -126 -42t-81 -108.5t-43 -142t-13 -142.5l-19 -5q0 71 14 156.5t50.5 163.5t104.5 128t176 50q114 0 175 -39t84 -107t23 -155v-614h131v-25h-481z" />
    <glyph glyph-name="i" unicode="i" horiz-adv-x="622" 
d="M316 1218q-63 0 -106.5 43.5t-43.5 106.5t43.5 106.5t106.5 43.5t106.5 -43.5t43.5 -106.5t-43 -106.5t-107 -43.5zM436 920v-895h130v-25h-501v25h131v870h-131v25h371z" />
    <glyph glyph-name="j" unicode="j" horiz-adv-x="638" 
d="M80 -520q-86 0 -148.5 31.5t-96.5 84t-34 114.5q0 69 42 108.5t102 39.5q34 0 66 -15.5t53.5 -45.5t21.5 -74q0 -51 -39 -92t-103 -41q-38 0 -70 16.5t-51.5 43.5t-19.5 60h23q0 -57 32 -103.5t86 -74t122 -27.5q70 0 104.5 47t46.5 125.5t12 173.5v190v854h-171v25h410
v-943q0 -98 -24 -187.5t-72.5 -159t-121 -110t-170.5 -40.5zM333 1219q-63 0 -106.5 44.5t-43.5 106.5q0 64 43.5 107t106.5 43t106 -43t43 -107q0 -62 -43 -106.5t-106 -44.5z" />
    <glyph glyph-name="k" unicode="k" horiz-adv-x="1251" 
d="M55 0v25h171v1450h-171v25h411v-1475h122v-25h-533zM698 0v25h128l-398 505l493 365h-218v25h427v-25h-174l-333 -253l498 -617h95v-25h-518z" />
    <glyph glyph-name="l" unicode="l" horiz-adv-x="690" 
d="M466 1500v-1475h170v-25h-581v25h171v1450h-171v25h411z" />
    <glyph glyph-name="m" unicode="m" horiz-adv-x="1749" 
d="M424 920v-895h109v-25h-478v25h131v870h-131v25h369zM994 639v-614h109v-25h-456v25h109v596q0 84 -6 143t-27 89.5t-65 30.5q-63 0 -108 -41.5t-73 -108t-40.5 -141.5t-12.5 -143l-16 -5q0 71 12.5 156t47 162.5t98 127t166.5 49.5q100 0 157.5 -39t81 -107t23.5 -155z
M1564 639v-614h130v-25h-478v25h110v596q0 84 -7.5 143t-29 89.5t-65.5 30.5q-64 0 -108.5 -41.5t-71 -108t-38.5 -141.5t-12 -143l-16 -5q0 71 11.5 156t44.5 162.5t96.5 127t166.5 49.5q100 0 158.5 -39t83.5 -107t25 -155z" />
    <glyph glyph-name="n" unicode="n" horiz-adv-x="1219" 
d="M424 920v-895h112v-25h-481v25h131v870h-131v25h369zM1034 639v-614h131v-25h-481v25h112v594q0 84 -7.5 143t-30 89.5t-69.5 30.5q-75 0 -126 -42t-81.5 -108.5t-44 -142t-13.5 -142.5l-18 -5q0 71 13.5 156.5t50.5 163.5t105.5 128t177.5 50q114 0 175 -39t83.5 -107
t22.5 -155z" />
    <glyph glyph-name="o" unicode="o" horiz-adv-x="1123" 
d="M562 -20q-147 0 -253.5 66t-164.5 175t-58 239t58 239t164.5 175t253.5 66t253.5 -66t164.5 -175t58 -239t-58 -239t-164.5 -175t-253.5 -66zM562 5q65 0 107.5 40t65.5 106t32 147t9 162q0 82 -9 162.5t-32 146.5t-65.5 106t-107.5 40q-66 0 -107.5 -40t-65 -106
t-32.5 -146.5t-9 -162.5q0 -81 9 -162t32.5 -147t65 -106t107.5 -40z" />
    <glyph glyph-name="p" unicode="p" horiz-adv-x="1245" 
d="M55 -500v25h131v1370h-131v25h371v-317q26 159 107 247t208 88q108 0 203.5 -57t155.5 -164t60 -257t-60 -257.5t-155.5 -165t-203.5 -57.5q-127 0 -208 89t-107 247v-791h129v-25h-500zM689 23q66 0 110 51.5t65.5 149t21.5 236.5t-21.5 236t-65.5 148t-110 51
q-68 0 -128 -49.5t-97.5 -146t-37.5 -239.5t37.5 -240t97.5 -147t128 -50z" />
    <glyph glyph-name="q" unicode="q" horiz-adv-x="1245" 
d="M689 -500v25h130v790q-26 -158 -106.5 -246t-207.5 -88q-108 0 -203.5 57t-155.5 164t-60 257t60 257.5t155.5 165t203.5 57.5q127 0 207.5 -89t106.5 -247v317h371v-25h-130v-1370h130v-25h-501zM557 25q67 0 127 49t97.5 145.5t37.5 239.5t-37.5 240t-97.5 147t-127 50
q-66 0 -110 -51.5t-65.5 -149t-21.5 -236.5t21.5 -236t65.5 -147.5t110 -50.5z" />
    <glyph glyph-name="r" unicode="r" horiz-adv-x="937" 
d="M409 434q0 97 15 187.5t49 162t89 113.5t135 42q63 0 108 -26.5t68 -69t23 -90.5q0 -62 -40 -107t-105 -45q-67 0 -107.5 39.5t-40.5 95.5q0 67 43 106.5t104 39.5q41 0 74 -18.5t51.5 -47.5t18.5 -63h-24q0 42 -21.5 79t-61 59.5t-93.5 22.5q-69 0 -120 -39t-84.5 -107
t-49.5 -154.5t-16 -179.5h-15zM424 920v-895h144v-25h-513v25h131v870h-131v25h369z" />
    <glyph glyph-name="s" unicode="s" horiz-adv-x="895" 
d="M89 -20v303h26q19 -81 68.5 -143.5t120 -97.5t153.5 -35q60 0 109.5 17t79.5 52t30 89q0 58 -40.5 91.5t-104.5 56t-136 46t-136.5 58t-105 92.5t-40.5 152q0 73 34.5 136t100 102t160.5 39q70 0 127 -23t100 -59l99 84h22v-280h-25q-17 64 -59.5 121.5t-108.5 94
t-154 36.5q-51 0 -91 -16.5t-63.5 -46t-23.5 -69.5q0 -54 42.5 -87t109.5 -57t141.5 -48.5t141.5 -60.5t109 -93t42 -147q0 -98 -48.5 -166.5t-128 -104.5t-171.5 -36q-75 0 -140 24.5t-116 68.5l-102 -93h-22z" />
    <glyph glyph-name="t" unicode="t" horiz-adv-x="712" 
d="M393 -14q-91 0 -137.5 34t-63 89t-16.5 119v892q59 0 128 17t112 43v-1003q0 -75 18 -104t59 -29q48 0 97 44t78 112l22 -11q-38 -90 -111.5 -146.5t-185.5 -56.5zM35 895v25h595v-25h-595z" />
    <glyph glyph-name="u" unicode="u" horiz-adv-x="1221" 
d="M468 -20q-114 0 -175 39.5t-84 107.5t-23 155v613h-131v25h371v-619q0 -84 7 -143t30 -89.5t70 -30.5q75 0 126 42t81 108.5t43 142t13 142.5l17 5q0 -71 -13 -156.5t-48.5 -163.5t-104 -128t-179.5 -50zM796 0v895h-134v25h374v-895h130v-25h-370z" />
    <glyph glyph-name="v" unicode="v" horiz-adv-x="1124" 
d="M1097 920v-25h-143l-372 -915h-68l-376 915h-120v25h541v-25h-156l249 -670l273 670h-185v25h357z" />
    <glyph glyph-name="w" unicode="w" horiz-adv-x="1604" 
d="M1576 920v-25h-167l-306 -915h-68l-248 696l-288 -696h-69l-292 915h-120v25h528v-25h-162l195 -653l289 698h103l204 -659l206 614h-194v25h389z" />
    <glyph glyph-name="x" unicode="x" horiz-adv-x="1153" 
d="M618 0v25h118l-568 870h-116v25h526v-25h-132l573 -870h97v-25h-498zM38 0v25h136l728 870h-159v25h346v-25h-156l-727 -870h195v-25h-363z" />
    <glyph glyph-name="y" unicode="y" horiz-adv-x="1161" 
d="M403 895l324 -655l-133 -285l-472 940h-110v25h567v-25h-176zM1164 920v-25h-138l-568 -1280q-28 -62 -65.5 -100t-101.5 -38q-33 0 -65 14.5t-53.5 44t-21.5 74.5q0 41 19 72t51 49t71 18q35 0 66 -18t50 -49t18 -71l570 1284h-179v25h347z" />
    <glyph glyph-name="z" unicode="z" horiz-adv-x="954" 
d="M46 0v25l545 870h-166q-102 0 -164.5 -37.5t-94 -109t-40.5 -172.5h-24v344h764v-25l-547 -870h210q93 0 156.5 18.5t102.5 59.5t59 106.5t27 158.5h24v-368h-852z" />
    <glyph glyph-name="braceleft" unicode="{" horiz-adv-x="615" 
d="M556 1560v-25q-62 0 -104 -34t-63 -89t-21 -118q0 -70 17 -128.5t34 -125t17 -160.5q0 -80 -33.5 -127.5t-101.5 -74.5t-172 -47q104 -20 172 -47t101.5 -74t33.5 -128q0 -94 -17 -160.5t-34 -125t-17 -128.5q0 -63 21 -118.5t63 -90t104 -34.5v-25q-172 0 -269.5 33.5
t-137.5 98.5t-40 160q0 98 18.5 168t42.5 122t42 96.5t18 92.5q0 61 -37.5 96.5t-83.5 50.5v25q46 15 83.5 51.5t37.5 97.5q0 47 -18 91.5t-42 96.5t-42.5 122t-18.5 168q0 95 40 159.5t137.5 97.5t269.5 33z" />
    <glyph glyph-name="bar" unicode="|" horiz-adv-x="469" 
d="M223 -500v2060h25v-2060h-25z" />
    <glyph glyph-name="braceright" unicode="}" horiz-adv-x="615" 
d="M507 625q-110 20 -182.5 47t-108.5 75t-36 131q0 94 17 160.5t34 125t17 128.5q0 63 -21 118.5t-63 90t-104 34.5v25q172 0 269.5 -33.5t137.5 -98.5t40 -160q0 -98 -18.5 -168t-42.5 -122t-42 -96.5t-18 -92.5q0 -61 37.5 -96.5t83.5 -50.5v-17zM60 -300v25q62 0 104 34
t63 89t21 118q0 70 -17 128.5t-34 125t-17 160.5q0 83 36 131t108.5 75t182.5 47v-16q-46 -15 -83.5 -51t-37.5 -98q0 -47 18 -91.5t42 -96.5t42.5 -122t18.5 -168q0 -95 -40 -159.5t-137.5 -97.5t-269.5 -33z" />
    <glyph glyph-name="asciitilde" unicode="~" horiz-adv-x="1375" 
d="M878 668q-76 0 -125 19t-84 47t-67 56t-73 47t-104 19q-53 0 -98.5 -16t-73.5 -53.5t-28 -100.5h-25q0 115 39 193.5t106.5 118.5t152.5 40q66 0 111.5 -19t80 -47t67.5 -56t74 -47t100 -19q63 0 112.5 16t78.5 53.5t29 100.5h25q0 -115 -39 -193.5t-106.5 -118.5
t-152.5 -40z" />
    <glyph glyph-name="uni00A0" unicode="&#xa0;" horiz-adv-x="500" 
 />
    <glyph glyph-name="exclamdown" unicode="&#xa1;" horiz-adv-x="709" 
d="M359 -476q-83 0 -119.5 53.5t-36.5 130.5q0 10 1 19t2 19q8 118 30.5 223t48 203t44 194.5t18.5 197.5h25q0 -101 18.5 -197.5t44 -194.5t48.5 -203t31 -223v-19v-19q0 -77 -35 -130.5t-120 -53.5zM358 747q-43 0 -78.5 21.5t-56.5 57t-21 78.5t21 78.5t56.5 56.5
t78.5 21q42 0 78 -21t57 -56.5t21 -78.5t-21 -78.5t-57 -57t-78 -21.5z" />
    <glyph glyph-name="cent" unicode="&#xa2;" horiz-adv-x="1037" 
d="M560 -20q-134 0 -241.5 54.5t-170 161.5t-62.5 264q0 137 55.5 245.5t163 171.5t261.5 63q111 0 193 -36t127.5 -96t45.5 -131q0 -65 -40.5 -102t-97.5 -37q-33 0 -66 14.5t-55.5 45t-22.5 77.5q0 64 43.5 99t100.5 35q54 0 95 -34t41 -98h-23q0 54 -27 97t-70.5 73.5
t-96 46.5t-103.5 16q-78 0 -126 -43t-73 -111.5t-34 -146.5t-9 -149q0 -86 10.5 -165.5t36.5 -141.5t73 -98.5t119 -36.5q82 0 142 33t101.5 91.5t66.5 133.5h27q-39 -130 -130 -213t-254 -83zM555 -170v1279h25v-1279h-25z" />
    <glyph glyph-name="sterling" unicode="&#xa3;" horiz-adv-x="1287" 
d="M145 -40q-12 83 8 152.5t55.5 128t74 107.5t65 92t26.5 81q0 86 -24.5 155.5t-56.5 134t-56.5 134t-24.5 155.5q0 140 69 233t194 140t293 47q122 0 212 -30.5t150 -81.5t89.5 -112t29.5 -123q0 -48 -22 -84t-57 -55.5t-77 -19.5q-35 0 -69.5 17.5t-57 50.5t-22.5 80
q0 43 20.5 75.5t55 51.5t73.5 19q40 0 75 -18t57 -48.5t22 -68.5h-22q0 60 -28.5 116.5t-83.5 103t-135 74t-183 27.5q-88 0 -144.5 -32.5t-88 -84.5t-44 -111.5t-12.5 -115.5q0 -74 17 -134.5t39 -112.5t39 -103.5t17 -107.5q0 -90 -34.5 -155t-88.5 -116.5t-113.5 -98
t-110.5 -97t-80.5 -114t-21.5 -151.5h-24zM893 -61q-102 0 -178.5 18.5t-136 42.5t-108.5 42.5t-96 18.5q-41 0 -84.5 -12.5t-76.5 -35t-43 -53.5h-14q15 61 45.5 116t75 97.5t101.5 67t125 24.5q75 0 127.5 -10t95 -23.5t86 -23.5t100.5 -10q47 0 100 6.5t99 26t75 57
t29 98.5h25q0 -168 -46 -265.5t-124.5 -139.5t-176.5 -42zM29 785v26h901v-26h-901z" />
    <glyph glyph-name="currency" unicode="&#xa4;" horiz-adv-x="1140" 
d="M94 275l-18 18l157 157q-121 129 -121 320t121 319l-158 157l19 19l157 -158q59 57 140 89.5t180 32.5t180 -32.5t139 -88.5l157 156l18 -18l-157 -157q120 -127 120 -319q0 -190 -119 -320l156 -156l-19 -19l-155 157q-59 -56 -140 -89t-180 -33t-180.5 32.5
t-139.5 89.5zM571 338q133 0 228.5 59.5t147 158t51.5 214.5t-51.5 214.5t-147 157.5t-228.5 59t-229 -59t-148 -157.5t-52 -214.5t52 -214.5t148 -158t229 -59.5z" />
    <glyph glyph-name="yen" unicode="&#xa5;" horiz-adv-x="1469" 
d="M621 0v720l-462 780h304l407 -710l383 707l30 -1l-400 -733v-763h-262zM441 0v25h643v-25h-643zM299 329v24h949v-24h-949zM299 630v24h949v-24h-949zM30 1475v25h652v-25h-652zM1020 1475v25h416v-25h-416z" />
    <glyph glyph-name="brokenbar" unicode="&#xa6;" horiz-adv-x="439" 
d="M213 -500v832h25v-832h-25zM213 818v742h25v-742h-25z" />
    <glyph glyph-name="section" unicode="&#xa7;" horiz-adv-x="928" 
d="M264 1310q0 -61 42.5 -104t110.5 -76t144 -65t144 -70.5t110.5 -91.5t42.5 -130q0 -65 -30.5 -110.5t-79 -80.5t-102.5 -68l-20 3q52 37 77 67.5t25 73.5q0 62 -43 102t-111.5 69.5t-145 58.5t-145 68t-111.5 98t-43 150q0 104 52 174.5t132.5 106t166.5 35.5
q66 0 130 -15.5t116 -49t83 -87t31 -131.5q0 -68 -39 -112.5t-99 -44.5q-53 0 -89.5 32.5t-36.5 93.5q0 55 40.5 90.5t91.5 35.5q31 0 59 -16.5t37 -38.5q-9 78 -57.5 126.5t-119 70t-147.5 21.5q-63 0 -112 -26.5t-76.5 -69t-27.5 -89.5zM219 852q0 -62 46 -100.5
t117.5 -65t152 -53.5t152.5 -64t117.5 -95t45.5 -150q0 -104 -50.5 -181.5t-142 -120t-214.5 -42.5q-66 0 -133.5 14.5t-124 48t-91 89.5t-34.5 138q0 69 39 112.5t98 43.5q53 0 89.5 -33t36.5 -94q0 -55 -41 -90t-93 -35q-30 0 -58 14.5t-36 39.5q9 -63 42.5 -106
t83.5 -68.5t107.5 -37t114.5 -11.5q86 0 141 29.5t81.5 75t26.5 92.5q0 61 -43.5 101.5t-112.5 70.5t-146.5 58.5t-146.5 63.5t-112.5 85t-43.5 123t32 128.5t76.5 95.5t83.5 66h22q-16 -12 -34.5 -32.5t-33 -48t-14.5 -61.5z" />
    <glyph glyph-name="dieresis" unicode="&#xa8;" horiz-adv-x="1000" 
d="M676 1687q-44 0 -75.5 31.5t-31.5 76.5q0 44 31.5 76t75.5 32q45 0 76.5 -32t31.5 -76q0 -45 -31.5 -76.5t-76.5 -31.5zM324 1687q-45 0 -76.5 31.5t-31.5 76.5q0 44 31.5 76t76.5 32t76.5 -32t31.5 -76q0 -45 -31.5 -76.5t-76.5 -31.5z" />
    <glyph glyph-name="copyright" unicode="&#xa9;" horiz-adv-x="1739" 
d="M892 308q80 0 138.5 33.5t94.5 90.5t49 125h15v-257h-13l-80 69q-40 -38 -95 -59.5t-121 -21.5q-129 0 -224 60t-146.5 164t-51.5 238t51.5 238t146.5 164t224 60q58 0 108 -20t88 -55l88 63h13v-257h-16q-13 74 -51.5 130t-95 87.5t-122.5 31.5q-71 0 -120 -37.5
t-78 -101.5t-42 -142.5t-13 -160.5t13 -160.5t42 -142.5t78 -101.5t120 -37.5zM870 1520q160 0 299.5 -59.5t245.5 -165.5t165.5 -245.5t59.5 -299.5t-59.5 -299.5t-165.5 -245.5t-245.5 -165.5t-299.5 -59.5t-299.5 59.5t-245.5 165.5t-165.5 245.5t-59.5 299.5t59.5 299.5
t165.5 245.5t245.5 165.5t299.5 59.5zM870 5q154 0 289 58t237.5 160.5t160.5 237.5t58 289t-58 289t-160.5 237.5t-237.5 160.5t-289 58t-289 -58t-237.5 -160.5t-160.5 -237.5t-58 -289t58 -289t160.5 -237.5t237.5 -160.5t289 -58z" />
    <glyph glyph-name="ordfeminine" unicode="&#xaa;" horiz-adv-x="674" 
d="M514 952q-51 0 -87.5 23t-36.5 82v272q0 44 -7.5 85t-31 68.5t-71.5 27.5q-38 0 -79 -12t-70 -36.5t-29 -62.5h-17q0 35 25.5 56t57.5 21q33 0 59.5 -19t26.5 -55q0 -40 -27 -59.5t-59 -19.5q-36 0 -60 20t-24 56q0 42 32.5 70t83.5 42.5t106 14.5q87 0 136.5 -27t70 -72
t20.5 -98v-299q0 -20 8 -34t32 -14q17 0 39 14.5t36 42.5l8 -11q-17 -35 -54.5 -55.5t-87.5 -20.5zM213 952q-78 0 -124.5 40t-46.5 108q0 80 69 125t197 45h138v-13h-115q-48 0 -77 -23t-42 -56.5t-13 -63.5q0 -44 17.5 -80.5t57.5 -36.5q45 0 80.5 44.5t35.5 140.5h10
q0 -105 -47.5 -167.5t-139.5 -62.5z" />
    <glyph glyph-name="guillemotleft" unicode="&#xab;" horiz-adv-x="1425" 
d="M1306 290l-697 464v42l697 464l13 -12l-385 -472l385 -474zM746 290l-696 464v42l696 464l12 -12l-396 -472l396 -474z" />
    <glyph glyph-name="logicalnot" unicode="&#xac;" horiz-adv-x="971" 
d="M827 406v354h-707v25h732v-379h-25z" />
    <glyph glyph-name="uni00AD" unicode="&#xad;" horiz-adv-x="719" 
d="M120 538v24h480v-24h-480z" />
    <glyph glyph-name="registered" unicode="&#xae;" horiz-adv-x="1739" 
d="M870 -20q-160 0 -299.5 59.5t-245.5 165.5t-165.5 245.5t-59.5 299.5t59.5 299.5t165.5 245.5t245.5 165.5t299.5 59.5t299.5 -59.5t245.5 -165.5t165.5 -245.5t59.5 -299.5t-59.5 -299.5t-165.5 -245.5t-245.5 -165.5t-299.5 -59.5zM870 5q154 0 289 58t237.5 160.5
t160.5 237.5t58 289t-58 289t-160.5 237.5t-237.5 160.5t-289 58t-289 -58t-237.5 -160.5t-160.5 -237.5t-58 -289t58 -289t160.5 -237.5t237.5 -160.5t289 -58zM1182 288q-77 0 -111 33t-42.5 85.5t-8.5 111.5t-7.5 111t-39 85.5t-105.5 33.5h-108v-437h124v-15h-407v15
h125v870h-125v15h411q144 0 233 -54t89 -171q0 -106 -69 -157t-195 -59q96 -4 146 -38t69.5 -84.5t21.5 -106t2 -105t10.5 -80.5t46.5 -31q19 0 35.5 4t28.5 9l6 -13q-14 -8 -48.5 -15t-81.5 -7zM760 762h110q86 0 131 52.5t45 155.5q0 105 -45 158t-131 53h-110v-419z" />
    <glyph glyph-name="macron" unicode="&#xaf;" horiz-adv-x="1000" 
d="M260 1700v25h480v-25h-480z" />
    <glyph glyph-name="degree" unicode="&#xb0;" horiz-adv-x="639" 
d="M320 1120q-66 0 -120.5 32.5t-87 86.5t-32.5 121q0 65 32.5 120t87 87.5t120.5 32.5t120.5 -32.5t87 -87.5t32.5 -120q0 -67 -32.5 -121t-87 -86.5t-120.5 -32.5zM320 1181q76 0 127.5 51t51.5 128t-51.5 128t-127.5 51t-127.5 -51t-51.5 -129q0 -76 51.5 -127t127.5 -51
z" />
    <glyph glyph-name="plusminus" unicode="&#xb1;" horiz-adv-x="1059" 
d="M233 647v250h593v-250h-593zM121 9v24h819v-24h-819zM404 474v594h250v-594h-250z" />
    <glyph glyph-name="uni00B2" unicode="&#xb2;" horiz-adv-x="939" 
d="M183 915v103l270 226q75 63 111 143.5t36 173.5q0 100 -48.5 168.5t-125.5 68.5q-63 0 -113.5 -29t-78.5 -83t-22 -129h-14q0 30 31 54t69 24q34 0 63.5 -24.5t29.5 -64.5q0 -44 -28.5 -70.5t-68.5 -26.5q-39 0 -67 30t-30 78q-9 121 69 195.5t217 74.5q133 0 207 -67.5
t74 -160.5q0 -49 -16.5 -88t-43.5 -70.5t-58.5 -58.5t-61.5 -51l-311 -265h500v90h15v-241h-605z" />
    <glyph glyph-name="uni00B3" unicode="&#xb3;" horiz-adv-x="899" 
d="M412 902q-90 0 -148.5 28t-87.5 71.5t-29 91.5q0 44 26 69.5t64 25.5q34 0 58 -23t24 -62q0 -36 -26.5 -58.5t-59.5 -22.5t-59 20.5t-26 50.5h14q0 -45 27.5 -84.5t76.5 -63.5t115 -24q97 0 141 68.5t44 168.5q0 48 -16.5 103t-63 93.5t-138.5 38.5v10q144 0 227.5 -34.5
t119 -91.5t35.5 -123q0 -78 -44 -134.5t-116.5 -87t-157.5 -30.5zM348 1399v9q86 0 124 33.5t48 82.5t10 95q0 52 -14.5 94.5t-43.5 68t-74 25.5q-33 0 -68.5 -11.5t-65.5 -32.5t-48 -49t-18 -62h-14q0 34 28 54t58 20q33 0 59.5 -21.5t26.5 -60.5q0 -43 -28.5 -63.5
t-57.5 -20.5q-34 0 -61 24t-27 68q0 48 35 87t90.5 62.5t116.5 23.5q67 0 129 -23t101.5 -68t39.5 -111q0 -60 -29 -111t-104 -82t-213 -31z" />
    <glyph glyph-name="acute" unicode="&#xb4;" horiz-adv-x="1000" 
d="M332 1682l-14 17l181 236q25 37 59 45t65 -4t46 -35q16 -26 13.5 -58.5t-22.5 -59t-55 -36.5z" />
    <glyph glyph-name="uni00B5" unicode="&#xb5;" horiz-adv-x="1221" 
d="M1036 920v-895h130v-25h-370v321q-14 -83 -48.5 -161t-101 -129t-178.5 -51q-123 0 -181 49.5t-76 129.5v-401q0 -77 33 -131t88 -84t118 -37q-29 14 -47.5 54.5t-18.5 82.5q0 57 41.5 99t99.5 42q59 0 100 -42.5t41 -106.5q0 -65 -45.5 -110t-139.5 -45q-75 0 -142.5 32
t-110 94t-42.5 152v1137h-131v25h371v-619q0 -84 7 -143t30 -89.5t70 -30.5q75 0 126 42t81 108.5t43 142t13 142.5v422h-134v25h374z" />
    <glyph glyph-name="paragraph" unicode="&#xb6;" horiz-adv-x="1255" 
d="M656 659q-155 0 -275 47.5t-187.5 141.5t-67.5 231q0 138 67.5 231.5t187.5 141.5t275 48h513v-25h-353v-816h-160zM610 -300v25h559v-25h-559zM802 -300v1800h25v-1800h-25zM960 -300v1800h25v-1800h-25z" />
    <glyph glyph-name="periodcentered" unicode="&#xb7;" horiz-adv-x="468" 
d="M236 680q-43 0 -78 21t-56.5 56.5t-21.5 78.5t21.5 78.5t56.5 57t78 21.5t78.5 -21.5t56.5 -57t21 -78.5t-21 -78.5t-56.5 -56.5t-78.5 -21z" />
    <glyph glyph-name="cedilla" unicode="&#xb8;" horiz-adv-x="1000" 
d="M323 -492v24q89 0 136.5 34t47.5 87q0 50 -27 76t-73 34.5t-102 8.5l173 233h32l-114 -153q86 -3 154 -20t107.5 -51.5t39.5 -90.5q0 -50 -35.5 -91.5t-117.5 -66t-221 -24.5z" />
    <glyph glyph-name="uni00B9" unicode="&#xb9;" horiz-adv-x="1059" 
d="M422 917v880h-136v15h293v-895h-157zM266 912v15h445v-15h-445z" />
    <glyph glyph-name="ordmasculine" unicode="&#xba;" horiz-adv-x="1123" 
d="M566 950q-89 0 -152.5 39.5t-98.5 105t-35 143.5t35 143.5t98.5 105t152.5 39.5q88 0 152 -39.5t99 -105t35 -143.5t-35 -143.5t-99 -105t-152 -39.5zM566 965q52 0 80 41t38.5 104t10.5 128t-10.5 128t-38.5 104t-80 41q-53 0 -80.5 -41t-38 -104t-10.5 -128t10.5 -128
t38 -104t80.5 -41z" />
    <glyph glyph-name="guillemotright" unicode="&#xbb;" horiz-adv-x="1431" 
d="M686 290l-13 12l397 472l-397 474l13 12l696 -464v-42zM126 290l-13 12l385 472l-385 474l13 12l696 -464v-42z" />
    <glyph glyph-name="onequarter" unicode="&#xbc;" horiz-adv-x="1317" 
d="M79 -200l961 1500h25l-960 -1500h-26zM44 712v15h445v-15h-445zM871 -206v15h114v805l-377 -555h666v-14h-693l440 649h121v-885h90v-15h-361zM200 717v880h-136v15h293v-895h-157z" />
    <glyph glyph-name="onehalf" unicode="&#xbd;" horiz-adv-x="1375" 
d="M77 -200l960 1500h25l-960 -1500h-25zM44 712v15h445v-15h-445zM730 -202v103l270 226q75 63 111.5 143.5t36.5 173.5q0 100 -48.5 168.5t-126.5 68.5q-62 0 -113 -29t-78.5 -83.5t-22.5 -128.5h-14q0 30 31.5 54t68.5 24q35 0 64 -24.5t29 -64.5q0 -44 -28 -70.5
t-68 -26.5t-68 30t-30 78q-9 121 69 195.5t217 74.5q134 0 207.5 -67.5t73.5 -160.5q0 -49 -16.5 -88t-43 -71t-58 -58.5t-62.5 -50.5l-311 -265h501v90h14v-241h-605zM200 717v880h-136v15h293v-895h-157z" />
    <glyph glyph-name="threequarters" unicode="&#xbe;" horiz-adv-x="1437" 
d="M197 -200l960 1500h25l-960 -1500h-25zM305 696q-90 0 -148.5 28t-87.5 71.5t-29 91.5q0 44 26 69.5t64 25.5q34 0 58 -23t24 -62q0 -36 -26 -58.5t-60 -22.5q-33 0 -59 20.5t-26 50.5h14q0 -45 27.5 -84.5t76.5 -63.5t115 -24q97 0 141 68.5t44 168.5q0 48 -16.5 103
t-63 93.5t-138.5 38.5v10q144 0 227.5 -34.5t119 -91.5t35.5 -123q0 -78 -44 -134.5t-116.5 -87t-157.5 -30.5zM991 -206v15h114v805l-377 -555h666v-14h-693l440 649h121v-885h90v-15h-361zM241 1193v9q86 0 124 33.5t48 82.5t10 95q0 52 -14.5 94.5t-43.5 68t-74 25.5
q-33 0 -68 -11.5t-65.5 -32.5t-48.5 -49t-18 -62h-14q0 34 28 54t58 20q34 0 60 -21.5t26 -60.5q0 -43 -28 -63.5t-58 -20.5q-34 0 -61 24t-27 68q0 48 35 87t90.5 62.5t116.5 23.5q67 0 129 -23t101.5 -68t39.5 -111q0 -60 -29 -111t-104 -82t-213 -31z" />
    <glyph glyph-name="questiondown" unicode="&#xbf;" horiz-adv-x="1141" 
d="M579 -480q-149 0 -257.5 50t-168.5 140t-60 210q0 115 68.5 207t187.5 148.5t272 65.5v239h25v-251q-100 -29 -161.5 -90t-89.5 -143.5t-28 -175.5q0 -70 8.5 -136.5t33.5 -119t75.5 -83.5t134.5 -31q74 0 140 27t118 73.5t82.5 104t30.5 118.5h23q0 -38 -20.5 -66
t-53 -44.5t-68.5 -16.5q-37 0 -70 17t-53.5 48t-20.5 74q0 47 22.5 78.5t55.5 47t66 15.5q57 0 100.5 -40t43.5 -113q0 -61 -32 -124t-90.5 -114.5t-138.5 -83t-175 -31.5zM613 747q-43 0 -78.5 21.5t-56.5 57t-21 78.5t21 78.5t56.5 56.5t78.5 21t78.5 -21t56.5 -56.5
t21 -78.5t-21 -78.5t-56.5 -57t-78.5 -21.5z" />
    <glyph glyph-name="Agrave" unicode="&#xc0;" horiz-adv-x="1558" 
d="M410 475v25h615v-25h-615zM842 1529l522 -1504h149v-25h-643v25h191l-384 1187l-416 -1187h224v-25h-440v25h187l529 1504h81zM878 1682l-273 105q-36 10 -56 36.5t-22.5 59t14.5 58.5q15 23 45.5 35t65 4t59.5 -45l181 -236z" />
    <glyph glyph-name="Aacute" unicode="&#xc1;" horiz-adv-x="1558" 
d="M410 475v25h615v-25h-615zM842 1529l522 -1504h149v-25h-643v25h191l-384 1187l-416 -1187h224v-25h-440v25h187l529 1504h81zM718 1682l-14 17l181 236q25 37 59 45t65 -4t46 -35q16 -26 13.5 -58.5t-22.5 -59t-55 -36.5z" />
    <glyph glyph-name="Acircumflex" unicode="&#xc2;" horiz-adv-x="1558" 
d="M410 475v25h615v-25h-615zM842 1529l522 -1504h149v-25h-643v25h191l-384 1187l-416 -1187h224v-25h-440v25h187l529 1504h81zM502 1704l-12 14l232 250h154l232 -250l-13 -14l-297 144z" />
    <glyph glyph-name="Atilde" unicode="&#xc3;" horiz-adv-x="1558" 
d="M410 475v25h615v-25h-615zM842 1529l522 -1504h149v-25h-643v25h191l-384 1187l-416 -1187h224v-25h-440v25h187l529 1504h81zM964 1668q-57 0 -103 24t-86.5 55t-82.5 55t-91 24q-51 0 -88 -30.5t-37 -95.5h-25q0 85 26.5 147.5t72.5 96.5t104 34q60 0 104.5 -24
t82.5 -55t75 -55t81 -24q58 0 91.5 30.5t33.5 95.5h25q0 -95 -17.5 -156.5t-57.5 -91.5t-108 -30z" />
    <glyph glyph-name="Adieresis" unicode="&#xc4;" horiz-adv-x="1558" 
d="M410 475v25h615v-25h-615zM842 1529l522 -1504h149v-25h-643v25h191l-384 1187l-416 -1187h224v-25h-440v25h187l529 1504h81zM973 1687q-44 0 -75.5 31.5t-31.5 76.5q0 44 31.5 76t75.5 32q45 0 76.5 -32t31.5 -76q0 -45 -31.5 -76.5t-76.5 -31.5zM621 1687
q-45 0 -76.5 31.5t-31.5 76.5q0 44 31.5 76t76.5 32t76.5 -32t31.5 -76q0 -45 -31.5 -76.5t-76.5 -31.5z" />
    <glyph glyph-name="Aring" unicode="&#xc5;" horiz-adv-x="1558" 
d="M410 475v25h615v-25h-615zM842 1529l522 -1504h149v-25h-643v25h191l-384 1187l-416 -1187h224v-25h-440v25h187l529 1504h81zM798 1680q-85 0 -138.5 52t-53.5 128q0 77 53.5 128.5t138.5 51.5q86 0 139 -51.5t53 -128.5q0 -76 -53 -128t-139 -52zM798 1705
q34 0 53.5 20.5t28 55t8.5 79.5q0 44 -8.5 79.5t-28 55.5t-53.5 20t-53.5 -20t-28 -55.5t-8.5 -79.5q0 -45 8.5 -79.5t28 -55t53.5 -20.5z" />
    <glyph glyph-name="AE" unicode="&#xc6;" horiz-adv-x="2064" 
d="M200 0l847 1500h26l-844 -1500h-29zM29 0v25h442v-25h-442zM489 477l3 25h578v-25h-581zM870 0v25h702q134 0 221 53.5t132 149t54 222.5h25v-450h-1134zM1050 0v1500h262v-1500h-262zM1637 538q-9 67 -43 118t-85 79.5t-108 28.5h-119v24h119q57 0 108 26t85 74.5
t43 115.5h25v-466h-25zM1959 1090q-9 107 -52.5 194.5t-122 139t-192.5 51.5h-542v25h934v-410h-25z" />
    <glyph glyph-name="Ccedilla" unicode="&#xc7;" horiz-adv-x="1415" 
d="M797 -20q-215 0 -373 99.5t-244 273.5t-86 397t86 397t244 273.5t373 99.5q96 0 179.5 -33t148.5 -93l146 106h22v-428h-26q-23 123 -87.5 216.5t-158.5 146t-204 52.5q-119 0 -200 -63t-129.5 -169t-70.5 -237t-22 -268q0 -136 22 -267.5t70.5 -237.5t129.5 -169
t200 -63q101 0 181 32t139.5 89.5t97 133t52.5 160.5h26v-428h-23l-134 114q-65 -62 -156.5 -98t-202.5 -36zM651 -501v24q89 0 136.5 34t47.5 87q0 50 -27 76t-73 34.5t-102 8.5l173 233h32l-114 -153q86 -3 154 -20t107.5 -51.5t39.5 -90.5q0 -50 -35.5 -91.5t-117.5 -66
t-221 -24.5z" />
    <glyph glyph-name="Egrave" unicode="&#xc8;" horiz-adv-x="1247" 
d="M45 0v25h180v1450h-180v25h1111v-410h-24q-9 107 -53 194.5t-123.5 139t-196.5 51.5h-271v-1450h250q137 0 225 53.5t134 149t55 222.5h24v-450h-1131zM809 538q-9 67 -43 118t-84.5 79.5t-107.5 28.5h-150v24h150q57 0 107.5 26t84.5 74.5t43 115.5h25v-466h-25z
M739 1682l-273 105q-36 10 -56 36.5t-22.5 59t14.5 58.5q15 23 45.5 35t65 4t59.5 -45l181 -236z" />
    <glyph glyph-name="Eacute" unicode="&#xc9;" horiz-adv-x="1247" 
d="M45 0v25h180v1450h-180v25h1111v-410h-24q-9 107 -53 194.5t-123.5 139t-196.5 51.5h-271v-1450h250q137 0 225 53.5t134 149t55 222.5h24v-450h-1131zM809 538q-9 67 -43 118t-84.5 79.5t-107.5 28.5h-150v24h150q57 0 107.5 26t84.5 74.5t43 115.5h25v-466h-25z
M578 1682l-14 17l181 236q25 37 59 45t65 -4t46 -35q16 -26 13.5 -58.5t-22.5 -59t-55 -36.5z" />
    <glyph glyph-name="Ecircumflex" unicode="&#xca;" horiz-adv-x="1247" 
d="M45 0v25h180v1450h-180v25h1111v-410h-24q-9 107 -53 194.5t-123.5 139t-196.5 51.5h-271v-1450h250q137 0 225 53.5t134 149t55 222.5h24v-450h-1131zM809 538q-9 67 -43 118t-84.5 79.5t-107.5 28.5h-150v24h150q57 0 107.5 26t84.5 74.5t43 115.5h25v-466h-25z
M363 1704l-12 14l232 250h154l232 -250l-13 -14l-297 144z" />
    <glyph glyph-name="Edieresis" unicode="&#xcb;" horiz-adv-x="1247" 
d="M45 0v25h180v1450h-180v25h1111v-410h-24q-9 107 -53 194.5t-123.5 139t-196.5 51.5h-271v-1450h250q137 0 225 53.5t134 149t55 222.5h24v-450h-1131zM809 538q-9 67 -43 118t-84.5 79.5t-107.5 28.5h-150v24h150q57 0 107.5 26t84.5 74.5t43 115.5h25v-466h-25z
M834 1687q-44 0 -75.5 31.5t-31.5 76.5q0 44 31.5 76t75.5 32q45 0 76.5 -32t31.5 -76q0 -45 -31.5 -76.5t-76.5 -31.5zM482 1687q-45 0 -76.5 31.5t-31.5 76.5q0 44 31.5 76t76.5 32t76.5 -32t31.5 -76q0 -45 -31.5 -76.5t-76.5 -31.5z" />
    <glyph glyph-name="Igrave" unicode="&#xcc;" horiz-adv-x="812" 
d="M45 0v25h220v1450h-220v25h722v-25h-240v-1450h240v-25h-722zM477 1682l-273 105q-36 10 -56 36.5t-22.5 59t14.5 58.5q15 23 45.5 35t65 4t59.5 -45l181 -236z" />
    <glyph glyph-name="Iacute" unicode="&#xcd;" horiz-adv-x="812" 
d="M45 0v25h220v1450h-220v25h722v-25h-240v-1450h240v-25h-722zM317 1682l-14 17l181 236q25 37 59 45t65 -4t46 -35q16 -26 13.5 -58.5t-22.5 -59t-55 -36.5z" />
    <glyph glyph-name="Icircumflex" unicode="&#xce;" horiz-adv-x="812" 
d="M45 0v25h220v1450h-220v25h722v-25h-240v-1450h240v-25h-722zM101 1704l-12 14l232 250h154l232 -250l-13 -14l-297 144z" />
    <glyph glyph-name="Idieresis" unicode="&#xcf;" horiz-adv-x="812" 
d="M45 0v25h220v1450h-220v25h722v-25h-240v-1450h240v-25h-722zM572 1687q-44 0 -75.5 31.5t-31.5 76.5q0 44 31.5 76t75.5 32q45 0 76.5 -32t31.5 -76q0 -45 -31.5 -76.5t-76.5 -31.5zM220 1687q-45 0 -76.5 31.5t-31.5 76.5q0 44 31.5 76t76.5 32t76.5 -32t31.5 -76
q0 -45 -31.5 -76.5t-76.5 -31.5z" />
    <glyph glyph-name="Eth" unicode="&#xd0;" horiz-adv-x="1490" 
d="M73 738v24h668v-24h-668zM653 1500q232 0 398.5 -96t256 -265.5t89.5 -388.5q0 -164 -53.5 -301.5t-152 -238t-235.5 -155.5t-303 -55h-608v25h180v1450h-180v25h608zM488 25h165q124 0 209 58.5t136.5 160.5t74 232.5t22.5 273.5t-25.5 273.5t-79 232.5t-137 160.5
t-200.5 58.5h-165v-1450z" />
    <glyph glyph-name="Ntilde" unicode="&#xd1;" horiz-adv-x="1527" 
d="M273 1500v-1475h234v-25h-462v25h202v1450h-202v25h228zM1483 1500v-25h-211v-1495h-34l-983 1520h314l678 -1071v1046h-231v25h467zM960 1668q-57 0 -103 24t-86.5 55t-82.5 55t-91 24q-51 0 -88 -30.5t-37 -95.5h-25q0 85 26.5 147.5t72.5 96.5t104 34q60 0 104.5 -24
t82.5 -55t75 -55t81 -24q58 0 91.5 30.5t33.5 95.5h25q0 -95 -17.5 -156.5t-57.5 -91.5t-108 -30z" />
    <glyph glyph-name="Ograve" unicode="&#xd2;" horiz-adv-x="1514" 
d="M758 -20q-157 0 -280 59t-209 164t-130.5 245t-44.5 302t47 302t135 245t210 164t272 59q149 0 271 -59t210 -164t135 -245t47 -302t-44.5 -302t-130 -245.5t-209 -164t-279.5 -58.5zM758 3q115 0 186 60.5t109.5 165.5t52.5 239.5t14 281.5q0 148 -17 282t-57.5 239
t-110.5 165.5t-177 60.5t-177.5 -60.5t-111 -165t-57.5 -239t-17 -282.5q0 -147 14.5 -282t52.5 -239.5t109.5 -165t186.5 -60.5zM838 1682l-273 105q-36 10 -56 36.5t-22.5 59t14.5 58.5q15 23 45.5 35t65 4t59.5 -45l181 -236z" />
    <glyph glyph-name="Oacute" unicode="&#xd3;" horiz-adv-x="1514" 
d="M758 -20q-157 0 -280 59t-209 164t-130.5 245t-44.5 302t47 302t135 245t210 164t272 59q149 0 271 -59t210 -164t135 -245t47 -302t-44.5 -302t-130 -245.5t-209 -164t-279.5 -58.5zM758 3q115 0 186 60.5t109.5 165.5t52.5 239.5t14 281.5q0 148 -17 282t-57.5 239
t-110.5 165.5t-177 60.5t-177.5 -60.5t-111 -165t-57.5 -239t-17 -282.5q0 -147 14.5 -282t52.5 -239.5t109.5 -165t186.5 -60.5zM678 1682l-14 17l181 236q25 37 59 45t65 -4t46 -35q16 -26 13.5 -58.5t-22.5 -59t-55 -36.5z" />
    <glyph glyph-name="Ocircumflex" unicode="&#xd4;" horiz-adv-x="1514" 
d="M758 -20q-157 0 -280 59t-209 164t-130.5 245t-44.5 302t47 302t135 245t210 164t272 59q149 0 271 -59t210 -164t135 -245t47 -302t-44.5 -302t-130 -245.5t-209 -164t-279.5 -58.5zM758 3q115 0 186 60.5t109.5 165.5t52.5 239.5t14 281.5q0 148 -17 282t-57.5 239
t-110.5 165.5t-177 60.5t-177.5 -60.5t-111 -165t-57.5 -239t-17 -282.5q0 -147 14.5 -282t52.5 -239.5t109.5 -165t186.5 -60.5zM462 1704l-12 14l232 250h154l232 -250l-13 -14l-297 144z" />
    <glyph glyph-name="Otilde" unicode="&#xd5;" horiz-adv-x="1514" 
d="M758 -20q-157 0 -280 59t-209 164t-130.5 245t-44.5 302t47 302t135 245t210 164t272 59q149 0 271 -59t210 -164t135 -245t47 -302t-44.5 -302t-130 -245.5t-209 -164t-279.5 -58.5zM758 3q115 0 186 60.5t109.5 165.5t52.5 239.5t14 281.5q0 148 -17 282t-57.5 239
t-110.5 165.5t-177 60.5t-177.5 -60.5t-111 -165t-57.5 -239t-17 -282.5q0 -147 14.5 -282t52.5 -239.5t109.5 -165t186.5 -60.5zM924 1668q-57 0 -103 24t-86.5 55t-82.5 55t-91 24q-51 0 -88 -30.5t-37 -95.5h-25q0 85 26.5 147.5t72.5 96.5t104 34q60 0 104.5 -24
t82.5 -55t75 -55t81 -24q58 0 91.5 30.5t33.5 95.5h25q0 -95 -17.5 -156.5t-57.5 -91.5t-108 -30z" />
    <glyph glyph-name="Odieresis" unicode="&#xd6;" horiz-adv-x="1514" 
d="M758 -20q-157 0 -280 59t-209 164t-130.5 245t-44.5 302t47 302t135 245t210 164t272 59q149 0 271 -59t210 -164t135 -245t47 -302t-44.5 -302t-130 -245.5t-209 -164t-279.5 -58.5zM758 3q115 0 186 60.5t109.5 165.5t52.5 239.5t14 281.5q0 148 -17 282t-57.5 239
t-110.5 165.5t-177 60.5t-177.5 -60.5t-111 -165t-57.5 -239t-17 -282.5q0 -147 14.5 -282t52.5 -239.5t109.5 -165t186.5 -60.5zM934 1687q-44 0 -75.5 31.5t-31.5 76.5q0 44 31.5 76t75.5 32q45 0 76.5 -32t31.5 -76q0 -45 -31.5 -76.5t-76.5 -31.5zM582 1687
q-45 0 -76.5 31.5t-31.5 76.5q0 44 31.5 76t76.5 32t76.5 -32t31.5 -76q0 -45 -31.5 -76.5t-76.5 -31.5z" />
    <glyph glyph-name="multiply" unicode="&#xd7;" horiz-adv-x="922" 
d="M309 472l-177 177l420 420l177 -177zM552 472l-419 420l177 177l419 -420z" />
    <glyph glyph-name="Oslash" unicode="&#xd8;" horiz-adv-x="1514" 
d="M331 -200l865 1861h25l-865 -1861h-25zM758 -20q-157 0 -280 59t-209 164t-130.5 245t-44.5 302t47 302t135 245t210 164t272 59q149 0 271 -59t210 -164t135 -245t47 -302t-44.5 -302t-130 -245.5t-209 -164t-279.5 -58.5zM758 3q115 0 186 60.5t109.5 165.5t52.5 239.5
t14 281.5q0 148 -17 282t-57.5 239t-110.5 165.5t-177 60.5t-177.5 -60.5t-111 -165t-57.5 -239t-17 -282.5q0 -147 14.5 -282t52.5 -239.5t109.5 -165t186.5 -60.5z" />
    <glyph glyph-name="Ugrave" unicode="&#xd9;" horiz-adv-x="1451" 
d="M1403 1500v-25h-192v-1015q0 -247 -111.5 -368t-353.5 -121q-272 0 -398 115t-126 374v1015h-179v25h642v-25h-200v-995q0 -99 13 -185t47.5 -150.5t98 -101t164.5 -36.5q119 0 203.5 46.5t130 146.5t45.5 260v1015h-185v25h401zM870 1682l-273 105q-36 10 -56 36.5
t-22.5 59t14.5 58.5q15 23 45.5 35t65 4t59.5 -45l181 -236z" />
    <glyph glyph-name="Uacute" unicode="&#xda;" horiz-adv-x="1451" 
d="M1403 1500v-25h-192v-1015q0 -247 -111.5 -368t-353.5 -121q-272 0 -398 115t-126 374v1015h-179v25h642v-25h-200v-995q0 -99 13 -185t47.5 -150.5t98 -101t164.5 -36.5q119 0 203.5 46.5t130 146.5t45.5 260v1015h-185v25h401zM709 1682l-14 17l181 236q25 37 59 45
t65 -4t46 -35q16 -26 13.5 -58.5t-22.5 -59t-55 -36.5z" />
    <glyph glyph-name="Ucircumflex" unicode="&#xdb;" horiz-adv-x="1451" 
d="M1403 1500v-25h-192v-1015q0 -247 -111.5 -368t-353.5 -121q-272 0 -398 115t-126 374v1015h-179v25h642v-25h-200v-995q0 -99 13 -185t47.5 -150.5t98 -101t164.5 -36.5q119 0 203.5 46.5t130 146.5t45.5 260v1015h-185v25h401zM494 1704l-12 14l232 250h154l232 -250
l-13 -14l-297 144z" />
    <glyph glyph-name="Udieresis" unicode="&#xdc;" horiz-adv-x="1451" 
d="M1403 1500v-25h-192v-1015q0 -247 -111.5 -368t-353.5 -121q-272 0 -398 115t-126 374v1015h-179v25h642v-25h-200v-995q0 -99 13 -185t47.5 -150.5t98 -101t164.5 -36.5q119 0 203.5 46.5t130 146.5t45.5 260v1015h-185v25h401zM965 1687q-44 0 -75.5 31.5t-31.5 76.5
q0 44 31.5 76t75.5 32q45 0 76.5 -32t31.5 -76q0 -45 -31.5 -76.5t-76.5 -31.5zM613 1687q-45 0 -76.5 31.5t-31.5 76.5q0 44 31.5 76t76.5 32t76.5 -32t31.5 -76q0 -45 -31.5 -76.5t-76.5 -31.5z" />
    <glyph glyph-name="Yacute" unicode="&#xdd;" horiz-adv-x="1469" 
d="M441 0v25h180v695l-448 755h-143v25h652v-25h-205l393 -685l370 685h-220v25h416v-25h-167l-386 -712v-738h201v-25h-643zM714 1682l-14 17l181 236q25 37 59 45t65 -4t46 -35q16 -26 13.5 -58.5t-22.5 -59t-55 -36.5z" />
    <glyph glyph-name="Thorn" unicode="&#xde;" horiz-adv-x="1287" 
d="M432 360v25h218q72 0 124 36t85.5 94.5t50 128t16.5 136.5q0 66 -16.5 136t-50 128.5t-85.5 94.5t-124 36h-218v25h260q271 0 398.5 -113t127.5 -307q0 -195 -127.5 -307.5t-398.5 -112.5h-260zM29 0v25h623v-25h-623zM210 0v1500h262v-1500h-262zM29 1475v25h623v-25
h-623z" />
    <glyph glyph-name="germandbls" unicode="&#xdf;" horiz-adv-x="1469" 
d="M210 0v982q0 134 45.5 235t127 168t189.5 101t231 34q109 0 205 -28t168.5 -77t113.5 -114t41 -139q0 -106 -59.5 -185.5t-186 -124t-327.5 -44.5v15q88 0 145.5 31.5t91 81t47.5 104.5t14 103q0 54 -13 115.5t-42 115.5t-79 88.5t-125 34.5q-98 0 -163 -43t-102.5 -118
t-53 -171t-15.5 -203v-962h-253zM29 0v25h595v-25h-595zM971 -20q-139 0 -223 84.5t-84 233.5q0 71 44 114.5t107 43.5q57 0 97.5 -38t40.5 -101q0 -40 -20.5 -71.5t-53.5 -48.5t-70 -17q-30 0 -62.5 14.5t-56 41.5t-24.5 62h23q0 -98 36 -161.5t92 -95t115 -31.5t95.5 30
t55.5 77t26 101t7 102q0 71 -12.5 153.5t-49 156.5t-107.5 121.5t-189 47.5v15q181 0 303 -38t194 -104t103.5 -152.5t31.5 -184.5q0 -83 -35 -149t-94.5 -111.5t-134.5 -70t-155 -24.5z" />
    <glyph glyph-name="agrave" unicode="&#xe0;" horiz-adv-x="1114" 
d="M870 -20q-57 0 -104 16.5t-75 55t-28 103.5v454q0 72 -12.5 141t-52 114t-119.5 45q-46 0 -97.5 -11t-96.5 -33.5t-73 -57t-28 -81.5h-29q0 58 42 93t95 35q56 0 100 -32t44 -92q0 -67 -44.5 -99.5t-99.5 -32.5q-59 0 -99 33.5t-40 94.5q0 52 32 91.5t85 65.5t119 39.5
t134 13.5q147 0 229 -45t115.5 -119.5t33.5 -162.5v-498q0 -34 14 -57.5t53 -23.5q28 0 65 24t59 70l14 -18q-27 -58 -89.5 -92t-146.5 -34zM368 -20q-130 0 -207.5 66.5t-77.5 180.5q0 134 115 208.5t328 74.5h230v-22h-190q-81 0 -129.5 -38.5t-70 -93.5t-21.5 -107
q0 -49 12.5 -93.5t40.5 -73t73 -28.5q49 0 93 33t71.5 101.5t27.5 174.5h16q0 -116 -35.5 -202t-104.5 -133.5t-171 -47.5zM623 1102l-273 105q-36 10 -56 36.5t-22.5 59t14.5 58.5q15 23 45.5 35t65 4t59.5 -45l181 -236z" />
    <glyph glyph-name="aacute" unicode="&#xe1;" horiz-adv-x="1114" 
d="M870 -20q-57 0 -104 16.5t-75 55t-28 103.5v454q0 72 -12.5 141t-52 114t-119.5 45q-46 0 -97.5 -11t-96.5 -33.5t-73 -57t-28 -81.5h-29q0 58 42 93t95 35q56 0 100 -32t44 -92q0 -67 -44.5 -99.5t-99.5 -32.5q-59 0 -99 33.5t-40 94.5q0 52 32 91.5t85 65.5t119 39.5
t134 13.5q147 0 229 -45t115.5 -119.5t33.5 -162.5v-498q0 -34 14 -57.5t53 -23.5q28 0 65 24t59 70l14 -18q-27 -58 -89.5 -92t-146.5 -34zM368 -20q-130 0 -207.5 66.5t-77.5 180.5q0 134 115 208.5t328 74.5h230v-22h-190q-81 0 -129.5 -38.5t-70 -93.5t-21.5 -107
q0 -49 12.5 -93.5t40.5 -73t73 -28.5q49 0 93 33t71.5 101.5t27.5 174.5h16q0 -116 -35.5 -202t-104.5 -133.5t-171 -47.5zM462 1102l-14 17l181 236q25 37 59 45t65 -4t46 -35q16 -26 13.5 -58.5t-22.5 -59t-55 -36.5z" />
    <glyph glyph-name="acircumflex" unicode="&#xe2;" horiz-adv-x="1114" 
d="M870 -20q-57 0 -104 16.5t-75 55t-28 103.5v454q0 72 -12.5 141t-52 114t-119.5 45q-46 0 -97.5 -11t-96.5 -33.5t-73 -57t-28 -81.5h-29q0 58 42 93t95 35q56 0 100 -32t44 -92q0 -67 -44.5 -99.5t-99.5 -32.5q-59 0 -99 33.5t-40 94.5q0 52 32 91.5t85 65.5t119 39.5
t134 13.5q147 0 229 -45t115.5 -119.5t33.5 -162.5v-498q0 -34 14 -57.5t53 -23.5q28 0 65 24t59 70l14 -18q-27 -58 -89.5 -92t-146.5 -34zM368 -20q-130 0 -207.5 66.5t-77.5 180.5q0 134 115 208.5t328 74.5h230v-22h-190q-81 0 -129.5 -38.5t-70 -93.5t-21.5 -107
q0 -49 12.5 -93.5t40.5 -73t73 -28.5q49 0 93 33t71.5 101.5t27.5 174.5h16q0 -116 -35.5 -202t-104.5 -133.5t-171 -47.5zM247 1124l-12 14l232 250h154l232 -250l-13 -14l-297 144z" />
    <glyph glyph-name="atilde" unicode="&#xe3;" horiz-adv-x="1114" 
d="M870 -20q-57 0 -104 16.5t-75 55t-28 103.5v454q0 72 -12.5 141t-52 114t-119.5 45q-46 0 -97.5 -11t-96.5 -33.5t-73 -57t-28 -81.5h-29q0 58 42 93t95 35q56 0 100 -32t44 -92q0 -67 -44.5 -99.5t-99.5 -32.5q-59 0 -99 33.5t-40 94.5q0 52 32 91.5t85 65.5t119 39.5
t134 13.5q147 0 229 -45t115.5 -119.5t33.5 -162.5v-498q0 -34 14 -57.5t53 -23.5q28 0 65 24t59 70l14 -18q-27 -58 -89.5 -92t-146.5 -34zM368 -20q-130 0 -207.5 66.5t-77.5 180.5q0 134 115 208.5t328 74.5h230v-22h-190q-81 0 -129.5 -38.5t-70 -93.5t-21.5 -107
q0 -49 12.5 -93.5t40.5 -73t73 -28.5q49 0 93 33t71.5 101.5t27.5 174.5h16q0 -116 -35.5 -202t-104.5 -133.5t-171 -47.5zM709 1088q-57 0 -103 24t-86.5 55t-82.5 55t-91 24q-51 0 -88 -30.5t-37 -95.5h-25q0 85 26.5 147.5t72.5 96.5t104 34q60 0 104.5 -24t82.5 -55
t75 -55t81 -24q58 0 91.5 30.5t33.5 95.5h25q0 -95 -17.5 -156.5t-57.5 -91.5t-108 -30z" />
    <glyph glyph-name="adieresis" unicode="&#xe4;" horiz-adv-x="1114" 
d="M870 -20q-57 0 -104 16.5t-75 55t-28 103.5v454q0 72 -12.5 141t-52 114t-119.5 45q-46 0 -97.5 -11t-96.5 -33.5t-73 -57t-28 -81.5h-29q0 58 42 93t95 35q56 0 100 -32t44 -92q0 -67 -44.5 -99.5t-99.5 -32.5q-59 0 -99 33.5t-40 94.5q0 52 32 91.5t85 65.5t119 39.5
t134 13.5q147 0 229 -45t115.5 -119.5t33.5 -162.5v-498q0 -34 14 -57.5t53 -23.5q28 0 65 24t59 70l14 -18q-27 -58 -89.5 -92t-146.5 -34zM368 -20q-130 0 -207.5 66.5t-77.5 180.5q0 134 115 208.5t328 74.5h230v-22h-190q-81 0 -129.5 -38.5t-70 -93.5t-21.5 -107
q0 -49 12.5 -93.5t40.5 -73t73 -28.5q49 0 93 33t71.5 101.5t27.5 174.5h16q0 -116 -35.5 -202t-104.5 -133.5t-171 -47.5zM718 1107q-44 0 -75.5 31.5t-31.5 76.5q0 44 31.5 76t75.5 32q45 0 76.5 -32t31.5 -76q0 -45 -31.5 -76.5t-76.5 -31.5zM366 1107q-45 0 -76.5 31.5
t-31.5 76.5q0 44 31.5 76t76.5 32t76.5 -32t31.5 -76q0 -45 -31.5 -76.5t-76.5 -31.5z" />
    <glyph glyph-name="aring" unicode="&#xe5;" horiz-adv-x="1114" 
d="M870 -20q-57 0 -104 16.5t-75 55t-28 103.5v454q0 72 -12.5 141t-52 114t-119.5 45q-46 0 -97.5 -11t-96.5 -33.5t-73 -57t-28 -81.5h-29q0 58 42 93t95 35q56 0 100 -32t44 -92q0 -67 -44.5 -99.5t-99.5 -32.5q-59 0 -99 33.5t-40 94.5q0 52 32 91.5t85 65.5t119 39.5
t134 13.5q147 0 229 -45t115.5 -119.5t33.5 -162.5v-498q0 -34 14 -57.5t53 -23.5q28 0 65 24t59 70l14 -18q-27 -58 -89.5 -92t-146.5 -34zM368 -20q-130 0 -207.5 66.5t-77.5 180.5q0 134 115 208.5t328 74.5h230v-22h-190q-81 0 -129.5 -38.5t-70 -93.5t-21.5 -107
q0 -49 12.5 -93.5t40.5 -73t73 -28.5q49 0 93 33t71.5 101.5t27.5 174.5h16q0 -116 -35.5 -202t-104.5 -133.5t-171 -47.5zM543 1100q-85 0 -138.5 52t-53.5 128q0 77 53.5 128.5t138.5 51.5q86 0 139 -51.5t53 -128.5q0 -76 -53 -128t-139 -52zM543 1125q34 0 53.5 20.5
t28 55t8.5 79.5q0 44 -8.5 79.5t-28 55.5t-53.5 20t-53.5 -20t-28 -55.5t-8.5 -79.5q0 -45 8.5 -79.5t28 -55t53.5 -20.5z" />
    <glyph glyph-name="ae" unicode="&#xe6;" horiz-adv-x="1668" 
d="M426 -20q-59 0 -119 12.5t-110.5 40.5t-81 76t-30.5 118q0 84 51.5 148.5t150.5 101t241 36.5h129v96q0 50 -6.5 103t-25 97.5t-55 72t-95.5 27.5q-39 0 -80.5 -8t-80 -24t-68 -40.5t-45.5 -57.5q15 29 43.5 48t57.5 24q53 0 92.5 -35t39.5 -86q0 -67 -48.5 -99.5
t-99.5 -32.5q-57 0 -95 33.5t-38 94.5q0 69 53.5 116t138 70.5t176.5 23.5q100 0 163 -26t99 -70.5t51 -98.5l-22 -3q50 98 140 150t213 52q147 0 240.5 -59t138 -154.5t44.5 -204.5h-622v-26.5v-26.5q0 -91 10 -173.5t36.5 -146t73.5 -100.5t121 -37q137 0 230.5 75.5
t130.5 189.5h27q-39 -127 -143 -211.5t-279 -84.5q-139 0 -237 67t-145 192l22 1q-25 -87 -81 -145t-134.5 -87t-171.5 -29zM489 19q49 0 87 41.5t59.5 118t21.5 182.5v128h-97q-71 0 -118 -35.5t-71 -92.5t-24 -121q0 -111 39.5 -166t102.5 -55zM968 547h357q0 59 -5 123
t-21 120t-48 91t-86 35q-70 0 -111.5 -51t-61.5 -135t-24 -183z" />
    <glyph glyph-name="ccedilla" unicode="&#xe7;" horiz-adv-x="1037" 
d="M560 -20q-134 0 -241.5 54.5t-170 161.5t-62.5 264q0 137 55.5 245.5t163 171.5t261.5 63q111 0 193 -36t127.5 -96t45.5 -131q0 -65 -40.5 -102t-97.5 -37q-33 0 -66 14.5t-55.5 45t-22.5 77.5q0 64 43.5 99t100.5 35q54 0 95 -34t41 -98h-23q0 54 -27 97t-70.5 73.5
t-96 46.5t-103.5 16q-78 0 -126 -43t-73 -111.5t-34 -146.5t-9 -149q0 -86 10.5 -165.5t36.5 -141.5t73 -98.5t119 -36.5q82 0 142 33t101.5 91.5t66.5 133.5h27q-39 -130 -130 -213t-254 -83zM384 -499v24q89 0 136.5 34t47.5 87q0 50 -27 76t-73 34.5t-102 8.5l173 233h32
l-114 -153q86 -3 154 -20t107.5 -51.5t39.5 -90.5q0 -50 -35.5 -91.5t-117.5 -66t-221 -24.5z" />
    <glyph glyph-name="egrave" unicode="&#xe8;" horiz-adv-x="1059" 
d="M562 -20q-136 0 -243.5 56.5t-170 163.5t-62.5 260t60 260t165.5 163.5t241.5 56.5q148 0 240.5 -59.5t136.5 -155t44 -204.5h-754v25h491q0 59 -4.5 123.5t-20.5 120t-47.5 90.5t-85.5 35q-59 0 -98 -36.5t-61 -99.5t-31 -142t-9 -165q0 -92 10.5 -175.5t37 -147.5
t73.5 -101t120 -37q138 0 230 75.5t130 189.5h27q-39 -127 -142.5 -211.5t-277.5 -84.5zM626 1102l-273 105q-36 10 -56 36.5t-22.5 59t14.5 58.5q15 23 45.5 35t65 4t59.5 -45l181 -236z" />
    <glyph glyph-name="eacute" unicode="&#xe9;" horiz-adv-x="1059" 
d="M562 -20q-136 0 -243.5 56.5t-170 163.5t-62.5 260t60 260t165.5 163.5t241.5 56.5q148 0 240.5 -59.5t136.5 -155t44 -204.5h-754v25h491q0 59 -4.5 123.5t-20.5 120t-47.5 90.5t-85.5 35q-59 0 -98 -36.5t-61 -99.5t-31 -142t-9 -165q0 -92 10.5 -175.5t37 -147.5
t73.5 -101t120 -37q138 0 230 75.5t130 189.5h27q-39 -127 -142.5 -211.5t-277.5 -84.5zM465 1102l-14 17l181 236q25 37 59 45t65 -4t46 -35q16 -26 13.5 -58.5t-22.5 -59t-55 -36.5z" />
    <glyph glyph-name="ecircumflex" unicode="&#xea;" horiz-adv-x="1059" 
d="M562 -20q-136 0 -243.5 56.5t-170 163.5t-62.5 260t60 260t165.5 163.5t241.5 56.5q148 0 240.5 -59.5t136.5 -155t44 -204.5h-754v25h491q0 59 -4.5 123.5t-20.5 120t-47.5 90.5t-85.5 35q-59 0 -98 -36.5t-61 -99.5t-31 -142t-9 -165q0 -92 10.5 -175.5t37 -147.5
t73.5 -101t120 -37q138 0 230 75.5t130 189.5h27q-39 -127 -142.5 -211.5t-277.5 -84.5zM249 1124l-12 14l232 250h154l232 -250l-13 -14l-297 144z" />
    <glyph glyph-name="edieresis" unicode="&#xeb;" horiz-adv-x="1059" 
d="M562 -20q-136 0 -243.5 56.5t-170 163.5t-62.5 260t60 260t165.5 163.5t241.5 56.5q148 0 240.5 -59.5t136.5 -155t44 -204.5h-754v25h491q0 59 -4.5 123.5t-20.5 120t-47.5 90.5t-85.5 35q-59 0 -98 -36.5t-61 -99.5t-31 -142t-9 -165q0 -92 10.5 -175.5t37 -147.5
t73.5 -101t120 -37q138 0 230 75.5t130 189.5h27q-39 -127 -142.5 -211.5t-277.5 -84.5zM721 1107q-44 0 -75.5 31.5t-31.5 76.5q0 44 31.5 76t75.5 32q45 0 76.5 -32t31.5 -76q0 -45 -31.5 -76.5t-76.5 -31.5zM369 1107q-45 0 -76.5 31.5t-31.5 76.5q0 44 31.5 76t76.5 32
t76.5 -32t31.5 -76q0 -45 -31.5 -76.5t-76.5 -31.5z" />
    <glyph glyph-name="igrave" unicode="&#xec;" horiz-adv-x="624" 
d="M436 920v-895h130v-25h-501v25h131v870h-131v25h371zM399 1102l-273 105q-36 10 -56 36.5t-22.5 59t14.5 58.5q15 23 45.5 35t65 4t59.5 -45l181 -236z" />
    <glyph glyph-name="iacute" unicode="&#xed;" horiz-adv-x="624" 
d="M436 920v-895h130v-25h-501v25h131v870h-131v25h371zM238 1102l-14 17l181 236q25 37 59 45t65 -4t46 -35q16 -26 13.5 -58.5t-22.5 -59t-55 -36.5z" />
    <glyph glyph-name="icircumflex" unicode="&#xee;" horiz-adv-x="624" 
d="M436 920v-895h130v-25h-501v25h131v870h-131v25h371zM23 1124l-12 14l232 250h154l232 -250l-13 -14l-297 144z" />
    <glyph glyph-name="idieresis" unicode="&#xef;" horiz-adv-x="624" 
d="M436 920v-895h130v-25h-501v25h131v870h-131v25h371zM494 1107q-44 0 -75.5 31.5t-31.5 76.5q0 44 31.5 76t75.5 32q45 0 76.5 -32t31.5 -76q0 -45 -31.5 -76.5t-76.5 -31.5zM142 1107q-45 0 -76.5 31.5t-31.5 76.5q0 44 31.5 76t76.5 32t76.5 -32t31.5 -76
q0 -45 -31.5 -76.5t-76.5 -31.5z" />
    <glyph glyph-name="eth" unicode="&#xf0;" horiz-adv-x="1179" 
d="M562 -20q-157 0 -269 67.5t-172 185t-60 267.5q0 128 40 219.5t107 149.5t147.5 86t160.5 28q119 0 186 -55.5t94 -151t27 -215.5h-21q0 122 -25.5 206t-77 127.5t-131.5 43.5q-56 0 -98.5 -26.5t-72 -80.5t-44.5 -136.5t-15 -194.5q0 -97 8.5 -186t31.5 -158.5t66 -110
t111 -40.5q69 0 116 44.5t76 122t42 177.5t13 212l-5 162q0 103 -27 212t-77.5 209t-123 179.5t-163 126.5t-196.5 47v23q180 0 338 -68.5t277.5 -191.5t187 -286.5t67.5 -353.5q0 -210 -64 -352.5t-180.5 -215t-273.5 -72.5zM245 1236v24h870v-25z" />
    <glyph glyph-name="ntilde" unicode="&#xf1;" horiz-adv-x="1219" 
d="M424 920v-895h112v-25h-481v25h131v870h-131v25h369zM1034 639v-614h131v-25h-481v25h112v594q0 84 -7.5 143t-30 89.5t-69.5 30.5q-75 0 -126 -42t-81.5 -108.5t-44 -142t-13.5 -142.5l-18 -5q0 71 13.5 156.5t50.5 163.5t105.5 128t177.5 50q114 0 175 -39t83.5 -107
t22.5 -155zM792 1088q-57 0 -103 24t-86.5 55t-82.5 55t-91 24q-51 0 -88 -30.5t-37 -95.5h-25q0 85 26.5 147.5t72.5 96.5t104 34q60 0 104.5 -24t82.5 -55t75 -55t81 -24q58 0 91.5 30.5t33.5 95.5h25q0 -95 -17.5 -156.5t-57.5 -91.5t-108 -30z" />
    <glyph glyph-name="ograve" unicode="&#xf2;" horiz-adv-x="1123" 
d="M562 -20q-147 0 -253.5 66t-164.5 175t-58 239t58 239t164.5 175t253.5 66t253.5 -66t164.5 -175t58 -239t-58 -239t-164.5 -175t-253.5 -66zM562 5q65 0 107.5 40t65.5 106t32 147t9 162q0 82 -9 162.5t-32 146.5t-65.5 106t-107.5 40q-66 0 -107.5 -40t-65 -106
t-32.5 -146.5t-9 -162.5q0 -81 9 -162t32.5 -147t65 -106t107.5 -40zM642 1102l-273 105q-36 10 -56 36.5t-22.5 59t14.5 58.5q15 23 45.5 35t65 4t59.5 -45l181 -236z" />
    <glyph glyph-name="oacute" unicode="&#xf3;" horiz-adv-x="1123" 
d="M562 -20q-147 0 -253.5 66t-164.5 175t-58 239t58 239t164.5 175t253.5 66t253.5 -66t164.5 -175t58 -239t-58 -239t-164.5 -175t-253.5 -66zM562 5q65 0 107.5 40t65.5 106t32 147t9 162q0 82 -9 162.5t-32 146.5t-65.5 106t-107.5 40q-66 0 -107.5 -40t-65 -106
t-32.5 -146.5t-9 -162.5q0 -81 9 -162t32.5 -147t65 -106t107.5 -40zM482 1102l-14 17l181 236q25 37 59 45t65 -4t46 -35q16 -26 13.5 -58.5t-22.5 -59t-55 -36.5z" />
    <glyph glyph-name="ocircumflex" unicode="&#xf4;" horiz-adv-x="1123" 
d="M562 -20q-147 0 -253.5 66t-164.5 175t-58 239t58 239t164.5 175t253.5 66t253.5 -66t164.5 -175t58 -239t-58 -239t-164.5 -175t-253.5 -66zM562 5q65 0 107.5 40t65.5 106t32 147t9 162q0 82 -9 162.5t-32 146.5t-65.5 106t-107.5 40q-66 0 -107.5 -40t-65 -106
t-32.5 -146.5t-9 -162.5q0 -81 9 -162t32.5 -147t65 -106t107.5 -40zM266 1124l-12 14l232 250h154l232 -250l-13 -14l-297 144z" />
    <glyph glyph-name="otilde" unicode="&#xf5;" horiz-adv-x="1123" 
d="M562 -20q-147 0 -253.5 66t-164.5 175t-58 239t58 239t164.5 175t253.5 66t253.5 -66t164.5 -175t58 -239t-58 -239t-164.5 -175t-253.5 -66zM562 5q65 0 107.5 40t65.5 106t32 147t9 162q0 82 -9 162.5t-32 146.5t-65.5 106t-107.5 40q-66 0 -107.5 -40t-65 -106
t-32.5 -146.5t-9 -162.5q0 -81 9 -162t32.5 -147t65 -106t107.5 -40zM728 1088q-57 0 -103 24t-86.5 55t-82.5 55t-91 24q-51 0 -88 -30.5t-37 -95.5h-25q0 85 26.5 147.5t72.5 96.5t104 34q60 0 104.5 -24t82.5 -55t75 -55t81 -24q58 0 91.5 30.5t33.5 95.5h25
q0 -95 -17.5 -156.5t-57.5 -91.5t-108 -30z" />
    <glyph glyph-name="odieresis" unicode="&#xf6;" horiz-adv-x="1123" 
d="M562 -20q-147 0 -253.5 66t-164.5 175t-58 239t58 239t164.5 175t253.5 66t253.5 -66t164.5 -175t58 -239t-58 -239t-164.5 -175t-253.5 -66zM562 5q65 0 107.5 40t65.5 106t32 147t9 162q0 82 -9 162.5t-32 146.5t-65.5 106t-107.5 40q-66 0 -107.5 -40t-65 -106
t-32.5 -146.5t-9 -162.5q0 -81 9 -162t32.5 -147t65 -106t107.5 -40zM737 1107q-44 0 -75.5 31.5t-31.5 76.5q0 44 31.5 76t75.5 32q45 0 76.5 -32t31.5 -76q0 -45 -31.5 -76.5t-76.5 -31.5zM385 1107q-45 0 -76.5 31.5t-31.5 76.5q0 44 31.5 76t76.5 32t76.5 -32t31.5 -76
q0 -45 -31.5 -76.5t-76.5 -31.5z" />
    <glyph glyph-name="divide" unicode="&#xf7;" horiz-adv-x="1119" 
d="M561 972q-56 0 -98 41t-42 97q0 57 42 97.5t98 40.5q58 0 97.5 -40.5t39.5 -97.5q0 -56 -39.5 -97t-97.5 -41zM100 758v24h920v-24h-920zM561 262q-56 0 -98 41t-42 97q0 57 42 97.5t98 40.5q58 0 97.5 -40.5t39.5 -97.5q0 -56 -39.5 -97t-97.5 -41z" />
    <glyph glyph-name="oslash" unicode="&#xf8;" horiz-adv-x="1123" 
d="M114 -246l866 1404h24l-865 -1404h-25zM562 -20q-147 0 -253.5 66t-164.5 175t-58 239t58 239t164.5 175t253.5 66t253.5 -66t164.5 -175t58 -239t-58 -239t-164.5 -175t-253.5 -66zM562 5q65 0 107.5 40t65.5 106t32 147t9 162q0 82 -9 162.5t-32 146.5t-65.5 106
t-107.5 40q-66 0 -107.5 -40t-65 -106t-32.5 -146.5t-9 -162.5q0 -81 9 -162t32.5 -147t65 -106t107.5 -40z" />
    <glyph glyph-name="ugrave" unicode="&#xf9;" horiz-adv-x="1221" 
d="M468 -20q-114 0 -175 39.5t-84 107.5t-23 155v613h-131v25h371v-619q0 -84 7 -143t30 -89.5t70 -30.5q75 0 126 42t81 108.5t43 142t13 142.5l17 5q0 -71 -13 -156.5t-48.5 -163.5t-104 -128t-179.5 -50zM796 0v895h-134v25h374v-895h130v-25h-370zM645 1102l-273 105
q-36 10 -56 36.5t-22.5 59t14.5 58.5q15 23 45.5 35t65 4t59.5 -45l181 -236z" />
    <glyph glyph-name="uacute" unicode="&#xfa;" horiz-adv-x="1221" 
d="M468 -20q-114 0 -175 39.5t-84 107.5t-23 155v613h-131v25h371v-619q0 -84 7 -143t30 -89.5t70 -30.5q75 0 126 42t81 108.5t43 142t13 142.5l17 5q0 -71 -13 -156.5t-48.5 -163.5t-104 -128t-179.5 -50zM796 0v895h-134v25h374v-895h130v-25h-370zM484 1102l-14 17
l181 236q25 37 59 45t65 -4t46 -35q16 -26 13.5 -58.5t-22.5 -59t-55 -36.5z" />
    <glyph glyph-name="ucircumflex" unicode="&#xfb;" horiz-adv-x="1221" 
d="M468 -20q-114 0 -175 39.5t-84 107.5t-23 155v613h-131v25h371v-619q0 -84 7 -143t30 -89.5t70 -30.5q75 0 126 42t81 108.5t43 142t13 142.5l17 5q0 -71 -13 -156.5t-48.5 -163.5t-104 -128t-179.5 -50zM796 0v895h-134v25h374v-895h130v-25h-370zM268 1124l-12 14
l232 250h154l232 -250l-13 -14l-297 144z" />
    <glyph glyph-name="udieresis" unicode="&#xfc;" horiz-adv-x="1221" 
d="M468 -20q-114 0 -175 39.5t-84 107.5t-23 155v613h-131v25h371v-619q0 -84 7 -143t30 -89.5t70 -30.5q75 0 126 42t81 108.5t43 142t13 142.5l17 5q0 -71 -13 -156.5t-48.5 -163.5t-104 -128t-179.5 -50zM796 0v895h-134v25h374v-895h130v-25h-370zM740 1107
q-44 0 -75.5 31.5t-31.5 76.5q0 44 31.5 76t75.5 32q45 0 76.5 -32t31.5 -76q0 -45 -31.5 -76.5t-76.5 -31.5zM388 1107q-45 0 -76.5 31.5t-31.5 76.5q0 44 31.5 76t76.5 32t76.5 -32t31.5 -76q0 -45 -31.5 -76.5t-76.5 -31.5z" />
    <glyph glyph-name="yacute" unicode="&#xfd;" horiz-adv-x="1161" 
d="M403 895l324 -655l-133 -285l-472 940h-110v25h567v-25h-176zM1164 920v-25h-138l-568 -1280q-28 -62 -65.5 -100t-101.5 -38q-33 0 -65 14.5t-53.5 44t-21.5 74.5q0 41 19 72t51 49t71 18q35 0 66 -18t50 -49t18 -71l570 1284h-179v25h347zM555 1102l-14 17l181 236
q25 37 59 45t65 -4t46 -35q16 -26 13.5 -58.5t-22.5 -59t-55 -36.5z" />
    <glyph glyph-name="thorn" unicode="&#xfe;" horiz-adv-x="1225" 
d="M41 -500v25h140v1950h-140v25h380v-897q26 159 107 247t208 88q107 0 203 -57t156 -164t60 -257t-60 -257.5t-156 -165t-203 -57.5q-127 0 -208 89t-107 247v-791h140v-25h-520zM684 23q66 0 110 51.5t65.5 149t21.5 236.5t-21.5 236t-65.5 148t-110 51
q-67 0 -127.5 -49.5t-98 -146t-37.5 -239.5t37.5 -240t98 -147t127.5 -50z" />
    <glyph glyph-name="ydieresis" unicode="&#xff;" horiz-adv-x="1161" 
d="M403 895l324 -655l-133 -285l-472 940h-110v25h567v-25h-176zM1164 920v-25h-138l-568 -1280q-28 -62 -65.5 -100t-101.5 -38q-33 0 -65 14.5t-53.5 44t-21.5 74.5q0 41 19 72t51 49t71 18q35 0 66 -18t50 -49t18 -71l570 1284h-179v25h347zM811 1107q-44 0 -75.5 31.5
t-31.5 76.5q0 44 31.5 76t75.5 32q45 0 76.5 -32t31.5 -76q0 -45 -31.5 -76.5t-76.5 -31.5zM459 1107q-45 0 -76.5 31.5t-31.5 76.5q0 44 31.5 76t76.5 32t76.5 -32t31.5 -76q0 -45 -31.5 -76.5t-76.5 -31.5z" />
    <glyph glyph-name="Amacron" unicode="&#x100;" horiz-adv-x="1558" 
d="M410 475v25h615v-25h-615zM842 1529l522 -1504h149v-25h-643v25h191l-384 1187l-416 -1187h224v-25h-440v25h187l529 1504h81zM558 1700v25h480v-25h-480z" />
    <glyph glyph-name="amacron" unicode="&#x101;" horiz-adv-x="1114" 
d="M870 -20q-57 0 -104 16.5t-75 55t-28 103.5v454q0 72 -12.5 141t-52 114t-119.5 45q-46 0 -97.5 -11t-96.5 -33.5t-73 -57t-28 -81.5h-29q0 58 42 93t95 35q56 0 100 -32t44 -92q0 -67 -44.5 -99.5t-99.5 -32.5q-59 0 -99 33.5t-40 94.5q0 52 32 91.5t85 65.5t119 39.5
t134 13.5q147 0 229 -45t115.5 -119.5t33.5 -162.5v-498q0 -34 14 -57.5t53 -23.5q28 0 65 24t59 70l14 -18q-27 -58 -89.5 -92t-146.5 -34zM368 -20q-130 0 -207.5 66.5t-77.5 180.5q0 134 115 208.5t328 74.5h230v-22h-190q-81 0 -129.5 -38.5t-70 -93.5t-21.5 -107
q0 -49 12.5 -93.5t40.5 -73t73 -28.5q49 0 93 33t71.5 101.5t27.5 174.5h16q0 -116 -35.5 -202t-104.5 -133.5t-171 -47.5zM303 1120v25h480v-25h-480z" />
    <glyph glyph-name="Abreve" unicode="&#x102;" horiz-adv-x="1558" 
d="M410 475v25h615v-25h-615zM842 1529l522 -1504h149v-25h-643v25h191l-384 1187l-416 -1187h224v-25h-440v25h187l529 1504h81zM798 1680q-87 0 -138 39.5t-72.5 106t-21.5 148.5h18q0 -48 31 -78t80 -44t103 -14t103 14t80 44t31 78h18q0 -82 -21.5 -148.5t-72.5 -106
t-138 -39.5z" />
    <glyph glyph-name="abreve" unicode="&#x103;" horiz-adv-x="1114" 
d="M870 -20q-57 0 -104 16.5t-75 55t-28 103.5v454q0 72 -12.5 141t-52 114t-119.5 45q-46 0 -97.5 -11t-96.5 -33.5t-73 -57t-28 -81.5h-29q0 58 42 93t95 35q56 0 100 -32t44 -92q0 -67 -44.5 -99.5t-99.5 -32.5q-59 0 -99 33.5t-40 94.5q0 52 32 91.5t85 65.5t119 39.5
t134 13.5q147 0 229 -45t115.5 -119.5t33.5 -162.5v-498q0 -34 14 -57.5t53 -23.5q28 0 65 24t59 70l14 -18q-27 -58 -89.5 -92t-146.5 -34zM368 -20q-130 0 -207.5 66.5t-77.5 180.5q0 134 115 208.5t328 74.5h230v-22h-190q-81 0 -129.5 -38.5t-70 -93.5t-21.5 -107
q0 -49 12.5 -93.5t40.5 -73t73 -28.5q49 0 93 33t71.5 101.5t27.5 174.5h16q0 -116 -35.5 -202t-104.5 -133.5t-171 -47.5zM543 1100q-87 0 -138 39.5t-72.5 106t-21.5 148.5h18q0 -48 31 -78t80 -44t103 -14t103 14t80 44t31 78h18q0 -82 -21.5 -148.5t-72.5 -106
t-138 -39.5z" />
    <glyph glyph-name="Aogonek" unicode="&#x104;" horiz-adv-x="1558" 
d="M410 475v25h615v-25h-615zM842 1529l522 -1504h149v-25h-643v25h191l-384 1187l-416 -1187h224v-25h-440v25h187l529 1504h81zM1174 -435q-60 0 -113 18t-87 56t-34 98t29.5 108t77.5 85.5t104 64t109 42.5l8 -16q-24 -14 -45.5 -47t-35 -82t-13.5 -110q0 -72 28.5 -115
t74.5 -43q45 0 72 28.5t50 68.5l17 -11q-15 -28 -41 -62t-73.5 -58.5t-127.5 -24.5z" />
    <glyph glyph-name="aogonek" unicode="&#x105;" horiz-adv-x="1114" 
d="M870 -20q-57 0 -104 16.5t-75 55t-28 103.5v454q0 72 -12.5 141t-52 114t-119.5 45q-46 0 -97.5 -11t-96.5 -33.5t-73 -57t-28 -81.5h-29q0 58 42 93t95 35q56 0 100 -32t44 -92q0 -67 -44.5 -99.5t-99.5 -32.5q-59 0 -99 33.5t-40 94.5q0 52 32 91.5t85 65.5t119 39.5
t134 13.5q147 0 229 -45t115.5 -119.5t33.5 -162.5v-498q0 -34 14 -57.5t53 -23.5q28 0 65 24t59 70l14 -18q-27 -58 -89.5 -92t-146.5 -34zM368 -20q-130 0 -207.5 66.5t-77.5 180.5q0 134 115 208.5t328 74.5h230v-22h-190q-81 0 -129.5 -38.5t-70 -93.5t-21.5 -107
q0 -49 12.5 -93.5t40.5 -73t73 -28.5q49 0 93 33t71.5 101.5t27.5 174.5h16q0 -116 -35.5 -202t-104.5 -133.5t-171 -47.5zM930 -435q-60 0 -113 18t-87 56t-34 98t29.5 108t77.5 85.5t104 64t109 42.5l8 -16q-24 -14 -45.5 -47t-35 -82t-13.5 -110q0 -72 28.5 -115
t74.5 -43q45 0 72 28.5t50 68.5l17 -11q-15 -28 -41 -62t-73.5 -58.5t-127.5 -24.5z" />
    <glyph glyph-name="Cacute" unicode="&#x106;" horiz-adv-x="1415" 
d="M797 -20q-215 0 -373 99.5t-244 273.5t-86 397t86 397t244 273.5t373 99.5q96 0 179.5 -33t148.5 -93l146 106h22v-428h-26q-23 123 -87.5 216.5t-158.5 146t-204 52.5q-119 0 -200 -63t-129.5 -169t-70.5 -237t-22 -268q0 -136 22 -267.5t70.5 -237.5t129.5 -169
t200 -63q101 0 181 32t139.5 89.5t97 133t52.5 160.5h26v-428h-23l-134 114q-65 -62 -156.5 -98t-202.5 -36zM718 1682l-14 17l181 236q25 37 59 45t65 -4t46 -35q16 -26 13.5 -58.5t-22.5 -59t-55 -36.5z" />
    <glyph glyph-name="cacute" unicode="&#x107;" horiz-adv-x="1037" 
d="M560 -20q-134 0 -241.5 54.5t-170 161.5t-62.5 264q0 137 55.5 245.5t163 171.5t261.5 63q111 0 193 -36t127.5 -96t45.5 -131q0 -65 -40.5 -102t-97.5 -37q-33 0 -66 14.5t-55.5 45t-22.5 77.5q0 64 43.5 99t100.5 35q54 0 95 -34t41 -98h-23q0 54 -27 97t-70.5 73.5
t-96 46.5t-103.5 16q-78 0 -126 -43t-73 -111.5t-34 -146.5t-9 -149q0 -86 10.5 -165.5t36.5 -141.5t73 -98.5t119 -36.5q82 0 142 33t101.5 91.5t66.5 133.5h27q-39 -130 -130 -213t-254 -83zM486 1102l-14 17l181 236q25 37 59 45t65 -4t46 -35q16 -26 13.5 -58.5
t-22.5 -59t-55 -36.5z" />
    <glyph glyph-name="Ccircumflex" unicode="&#x108;" horiz-adv-x="1415" 
d="M797 -20q-215 0 -373 99.5t-244 273.5t-86 397t86 397t244 273.5t373 99.5q96 0 179.5 -33t148.5 -93l146 106h22v-428h-26q-23 123 -87.5 216.5t-158.5 146t-204 52.5q-119 0 -200 -63t-129.5 -169t-70.5 -237t-22 -268q0 -136 22 -267.5t70.5 -237.5t129.5 -169
t200 -63q101 0 181 32t139.5 89.5t97 133t52.5 160.5h26v-428h-23l-134 114q-65 -62 -156.5 -98t-202.5 -36zM503 1704l-12 14l232 250h154l232 -250l-13 -14l-297 144z" />
    <glyph glyph-name="ccircumflex" unicode="&#x109;" horiz-adv-x="1037" 
d="M560 -20q-134 0 -241.5 54.5t-170 161.5t-62.5 264q0 137 55.5 245.5t163 171.5t261.5 63q111 0 193 -36t127.5 -96t45.5 -131q0 -65 -40.5 -102t-97.5 -37q-33 0 -66 14.5t-55.5 45t-22.5 77.5q0 64 43.5 99t100.5 35q54 0 95 -34t41 -98h-23q0 54 -27 97t-70.5 73.5
t-96 46.5t-103.5 16q-78 0 -126 -43t-73 -111.5t-34 -146.5t-9 -149q0 -86 10.5 -165.5t36.5 -141.5t73 -98.5t119 -36.5q82 0 142 33t101.5 91.5t66.5 133.5h27q-39 -130 -130 -213t-254 -83zM270 1124l-12 14l232 250h154l232 -250l-13 -14l-297 144z" />
    <glyph glyph-name="Cdotaccent" unicode="&#x10a;" horiz-adv-x="1415" 
d="M797 -20q-215 0 -373 99.5t-244 273.5t-86 397t86 397t244 273.5t373 99.5q96 0 179.5 -33t148.5 -93l146 106h22v-428h-26q-23 123 -87.5 216.5t-158.5 146t-204 52.5q-119 0 -200 -63t-129.5 -169t-70.5 -237t-22 -268q0 -136 22 -267.5t70.5 -237.5t129.5 -169
t200 -63q101 0 181 32t139.5 89.5t97 133t52.5 160.5h26v-428h-23l-134 114q-65 -62 -156.5 -98t-202.5 -36zM800 1798q-63 0 -106.5 43.5t-43.5 106.5t43.5 106.5t106.5 43.5t106.5 -43.5t43.5 -106.5t-43.5 -106.5t-106.5 -43.5z" />
    <glyph glyph-name="cdotaccent" unicode="&#x10b;" horiz-adv-x="1037" 
d="M560 -20q-134 0 -241.5 54.5t-170 161.5t-62.5 264q0 137 55.5 245.5t163 171.5t261.5 63q111 0 193 -36t127.5 -96t45.5 -131q0 -65 -40.5 -102t-97.5 -37q-33 0 -66 14.5t-55.5 45t-22.5 77.5q0 64 43.5 99t100.5 35q54 0 95 -34t41 -98h-23q0 54 -27 97t-70.5 73.5
t-96 46.5t-103.5 16q-78 0 -126 -43t-73 -111.5t-34 -146.5t-9 -149q0 -86 10.5 -165.5t36.5 -141.5t73 -98.5t119 -36.5q82 0 142 33t101.5 91.5t66.5 133.5h27q-39 -130 -130 -213t-254 -83zM567 1218q-63 0 -106.5 43.5t-43.5 106.5t43.5 106.5t106.5 43.5t106.5 -43.5
t43.5 -106.5t-43.5 -106.5t-106.5 -43.5z" />
    <glyph glyph-name="Ccaron" unicode="&#x10c;" horiz-adv-x="1415" 
d="M797 -20q-215 0 -373 99.5t-244 273.5t-86 397t86 397t244 273.5t373 99.5q96 0 179.5 -33t148.5 -93l146 106h22v-428h-26q-23 123 -87.5 216.5t-158.5 146t-204 52.5q-119 0 -200 -63t-129.5 -169t-70.5 -237t-22 -268q0 -136 22 -267.5t70.5 -237.5t129.5 -169
t200 -63q101 0 181 32t139.5 89.5t97 133t52.5 160.5h26v-428h-23l-134 114q-65 -62 -156.5 -98t-202.5 -36zM723 1700l-232 250l13 12l296 -142l295 142l14 -12l-232 -250h-154z" />
    <glyph glyph-name="ccaron" unicode="&#x10d;" horiz-adv-x="1037" 
d="M560 -20q-134 0 -241.5 54.5t-170 161.5t-62.5 264q0 137 55.5 245.5t163 171.5t261.5 63q111 0 193 -36t127.5 -96t45.5 -131q0 -65 -40.5 -102t-97.5 -37q-33 0 -66 14.5t-55.5 45t-22.5 77.5q0 64 43.5 99t100.5 35q54 0 95 -34t41 -98h-23q0 54 -27 97t-70.5 73.5
t-96 46.5t-103.5 16q-78 0 -126 -43t-73 -111.5t-34 -146.5t-9 -149q0 -86 10.5 -165.5t36.5 -141.5t73 -98.5t119 -36.5q82 0 142 33t101.5 91.5t66.5 133.5h27q-39 -130 -130 -213t-254 -83zM490 1120l-232 250l13 12l296 -142l295 142l14 -12l-232 -250h-154z" />
    <glyph glyph-name="Dcaron" unicode="&#x10e;" horiz-adv-x="1490" 
d="M653 1500q232 0 398.5 -96t256 -265.5t89.5 -388.5q0 -164 -53.5 -301.5t-152 -238t-235.5 -155.5t-303 -55h-608v25h180v1450h-180v25h608zM488 25h165q124 0 209 58.5t136.5 160.5t74 232.5t22.5 273.5t-25.5 273.5t-79 232.5t-137 160.5t-200.5 58.5h-165v-1450z
M567 1700l-232 250l13 12l296 -142l295 142l14 -12l-232 -250h-154z" />
    <glyph glyph-name="dcaron" unicode="&#x10f;" horiz-adv-x="1245" 
d="M505 -19q-108 0 -203.5 57t-155.5 164t-60 257t60 257.5t155.5 165t203.5 57.5q127 0 207.5 -89t106.5 -247v872h-130v25h371v-1475h130v-25h-371v315q-26 -158 -106.5 -246t-207.5 -88zM557 25q67 0 127 49t97.5 145.5t37.5 239.5t-37.5 240t-97.5 147t-127 50
q-66 0 -110 -51.5t-65.5 -149t-21.5 -236.5t21.5 -236t65.5 -147.5t110 -50.5zM1196 981v23q70 0 126 28.5t93.5 78.5t52.5 115.5t1 138.5h8q2 -29 -16 -58.5t-50.5 -48.5t-71.5 -19q-69 0 -104 39.5t-35 93.5q0 56 43 95t105 39q63 0 108.5 -53t45.5 -150
q0 -84 -36.5 -157.5t-104.5 -119t-165 -45.5z" />
    <glyph glyph-name="Dcroat" unicode="&#x110;" horiz-adv-x="1490" 
d="M73 738v24h668v-24h-668zM653 1500q232 0 398.5 -96t256 -265.5t89.5 -388.5q0 -164 -53.5 -301.5t-152 -238t-235.5 -155.5t-303 -55h-608v25h180v1450h-180v25h608zM488 25h165q124 0 209 58.5t136.5 160.5t74 232.5t22.5 273.5t-25.5 273.5t-79 232.5t-137 160.5
t-200.5 58.5h-165v-1450z" />
    <glyph glyph-name="dcroat" unicode="&#x111;" horiz-adv-x="1245" 
d="M546 1128v24h658v-24h-658zM505 -19q-108 0 -203.5 57t-155.5 164t-60 257t60 257.5t155.5 165t203.5 57.5q127 0 207.5 -89t106.5 -247v872h-130v25h371v-1475h130v-25h-371v315q-26 -158 -106.5 -246t-207.5 -88zM557 25q67 0 127 49t97.5 145.5t37.5 239.5t-37.5 240
t-97.5 147t-127 50q-66 0 -110 -51.5t-65.5 -149t-21.5 -236.5t21.5 -236t65.5 -147.5t110 -50.5z" />
    <glyph glyph-name="Emacron" unicode="&#x112;" horiz-adv-x="1247" 
d="M45 0v25h180v1450h-180v25h1111v-410h-24q-9 107 -53 194.5t-123.5 139t-196.5 51.5h-271v-1450h250q137 0 225 53.5t134 149t55 222.5h24v-450h-1131zM809 538q-9 67 -43 118t-84.5 79.5t-107.5 28.5h-150v24h150q57 0 107.5 26t84.5 74.5t43 115.5h25v-466h-25z
M419 1700v25h480v-25h-480z" />
    <glyph glyph-name="emacron" unicode="&#x113;" horiz-adv-x="1059" 
d="M562 -20q-136 0 -243.5 56.5t-170 163.5t-62.5 260t60 260t165.5 163.5t241.5 56.5q148 0 240.5 -59.5t136.5 -155t44 -204.5h-754v25h491q0 59 -4.5 123.5t-20.5 120t-47.5 90.5t-85.5 35q-59 0 -98 -36.5t-61 -99.5t-31 -142t-9 -165q0 -92 10.5 -175.5t37 -147.5
t73.5 -101t120 -37q138 0 230 75.5t130 189.5h27q-39 -127 -142.5 -211.5t-277.5 -84.5zM305 1120v25h480v-25h-480z" />
    <glyph glyph-name="Ebreve" unicode="&#x114;" horiz-adv-x="1247" 
d="M45 0v25h180v1450h-180v25h1111v-410h-24q-9 107 -53 194.5t-123.5 139t-196.5 51.5h-271v-1450h250q137 0 225 53.5t134 149t55 222.5h24v-450h-1131zM809 538q-9 67 -43 118t-84.5 79.5t-107.5 28.5h-150v24h150q57 0 107.5 26t84.5 74.5t43 115.5h25v-466h-25z
M659 1680q-87 0 -138 39.5t-72.5 106t-21.5 148.5h18q0 -48 31 -78t80 -44t103 -14t103 14t80 44t31 78h18q0 -82 -21.5 -148.5t-72.5 -106t-138 -39.5z" />
    <glyph glyph-name="ebreve" unicode="&#x115;" horiz-adv-x="1059" 
d="M562 -20q-136 0 -243.5 56.5t-170 163.5t-62.5 260t60 260t165.5 163.5t241.5 56.5q148 0 240.5 -59.5t136.5 -155t44 -204.5h-754v25h491q0 59 -4.5 123.5t-20.5 120t-47.5 90.5t-85.5 35q-59 0 -98 -36.5t-61 -99.5t-31 -142t-9 -165q0 -92 10.5 -175.5t37 -147.5
t73.5 -101t120 -37q138 0 230 75.5t130 189.5h27q-39 -127 -142.5 -211.5t-277.5 -84.5zM546 1100q-87 0 -138 39.5t-72.5 106t-21.5 148.5h18q0 -48 31 -78t80 -44t103 -14t103 14t80 44t31 78h18q0 -82 -21.5 -148.5t-72.5 -106t-138 -39.5z" />
    <glyph glyph-name="Edotaccent" unicode="&#x116;" horiz-adv-x="1247" 
d="M45 0v25h180v1450h-180v25h1111v-410h-24q-9 107 -53 194.5t-123.5 139t-196.5 51.5h-271v-1450h250q137 0 225 53.5t134 149t55 222.5h24v-450h-1131zM809 538q-9 67 -43 118t-84.5 79.5t-107.5 28.5h-150v24h150q57 0 107.5 26t84.5 74.5t43 115.5h25v-466h-25z
M660 1798q-63 0 -106.5 43.5t-43.5 106.5t43.5 106.5t106.5 43.5t106.5 -43.5t43.5 -106.5t-43.5 -106.5t-106.5 -43.5z" />
    <glyph glyph-name="edotaccent" unicode="&#x117;" horiz-adv-x="1059" 
d="M562 -20q-136 0 -243.5 56.5t-170 163.5t-62.5 260t60 260t165.5 163.5t241.5 56.5q148 0 240.5 -59.5t136.5 -155t44 -204.5h-754v25h491q0 59 -4.5 123.5t-20.5 120t-47.5 90.5t-85.5 35q-59 0 -98 -36.5t-61 -99.5t-31 -142t-9 -165q0 -92 10.5 -175.5t37 -147.5
t73.5 -101t120 -37q138 0 230 75.5t130 189.5h27q-39 -127 -142.5 -211.5t-277.5 -84.5zM546 1218q-63 0 -106.5 43.5t-43.5 106.5t43.5 106.5t106.5 43.5t106.5 -43.5t43.5 -106.5t-43.5 -106.5t-106.5 -43.5z" />
    <glyph glyph-name="Eogonek" unicode="&#x118;" horiz-adv-x="1247" 
d="M45 0v25h180v1450h-180v25h1111v-410h-24q-9 107 -53 194.5t-123.5 139t-196.5 51.5h-271v-1450h250q137 0 225 53.5t134 149t55 222.5h24v-450h-1131zM809 538q-9 67 -43 118t-84.5 79.5t-107.5 28.5h-150v24h150q57 0 107.5 26t84.5 74.5t43 115.5h25v-466h-25z
M925 -435q-60 0 -113 18t-87 56t-34 98t29.5 108t77.5 85.5t104 64t109 42.5l8 -16q-24 -14 -45.5 -47t-35 -82t-13.5 -110q0 -72 28.5 -115t74.5 -43q45 0 72 28.5t50 68.5l17 -11q-15 -28 -41 -62t-73.5 -58.5t-127.5 -24.5z" />
    <glyph glyph-name="eogonek" unicode="&#x119;" horiz-adv-x="1059" 
d="M562 -20q-136 0 -243.5 56.5t-170 163.5t-62.5 260t60 260t165.5 163.5t241.5 56.5q148 0 240.5 -59.5t136.5 -155t44 -204.5h-754v25h491q0 59 -4.5 123.5t-20.5 120t-47.5 90.5t-85.5 35q-59 0 -98 -36.5t-61 -99.5t-31 -142t-9 -165q0 -92 10.5 -175.5t37 -147.5
t73.5 -101t120 -37q138 0 230 75.5t130 189.5h27q-39 -127 -142.5 -211.5t-277.5 -84.5zM666 -435q-60 0 -113 18t-87 56t-34 98t29.5 108t77.5 85.5t104 64t109 42.5l8 -16q-24 -14 -45.5 -47t-35 -82t-13.5 -110q0 -72 28.5 -115t74.5 -43q45 0 72 28.5t50 68.5l17 -11
q-15 -28 -41 -62t-73.5 -58.5t-127.5 -24.5z" />
    <glyph glyph-name="Ecaron" unicode="&#x11a;" horiz-adv-x="1247" 
d="M45 0v25h180v1450h-180v25h1111v-410h-24q-9 107 -53 194.5t-123.5 139t-196.5 51.5h-271v-1450h250q137 0 225 53.5t134 149t55 222.5h24v-450h-1131zM809 538q-9 67 -43 118t-84.5 79.5t-107.5 28.5h-150v24h150q57 0 107.5 26t84.5 74.5t43 115.5h25v-466h-25z
M583 1700l-232 250l13 12l296 -142l295 142l14 -12l-232 -250h-154z" />
    <glyph glyph-name="ecaron" unicode="&#x11b;" horiz-adv-x="1059" 
d="M562 -20q-136 0 -243.5 56.5t-170 163.5t-62.5 260t60 260t165.5 163.5t241.5 56.5q148 0 240.5 -59.5t136.5 -155t44 -204.5h-754v25h491q0 59 -4.5 123.5t-20.5 120t-47.5 90.5t-85.5 35q-59 0 -98 -36.5t-61 -99.5t-31 -142t-9 -165q0 -92 10.5 -175.5t37 -147.5
t73.5 -101t120 -37q138 0 230 75.5t130 189.5h27q-39 -127 -142.5 -211.5t-277.5 -84.5zM469 1120l-232 250l13 12l296 -142l295 142l14 -12l-232 -250h-154z" />
    <glyph glyph-name="Gcircumflex" unicode="&#x11c;" horiz-adv-x="1498" 
d="M867 583h601v-26h-109v-239q-38 -49 -88 -107.5t-118 -111t-159.5 -86t-213.5 -33.5q-217 0 -370.5 97t-234.5 270.5t-81 402.5q0 171 54 312.5t151 244t227.5 158t282.5 55.5q92 0 176.5 -32t150.5 -89l159 101h22v-428h-26q-10 84 -50 159t-102 132.5t-140.5 90.5
t-165.5 33q-119 0 -202.5 -63t-135.5 -169t-76 -237t-24 -268q0 -136 17 -269t59.5 -240.5t117.5 -171.5t191 -64q75 0 127 28t86.5 69t54.5 82t30 66v307h-211v26zM515 1704l-12 14l232 250h154l232 -250l-13 -14l-297 144z" />
    <glyph glyph-name="gcircumflex" unicode="&#x11d;" 
d="M516 -520q-91 0 -173.5 15t-147.5 46t-102.5 80.5t-37.5 119.5q0 64 33 107t82.5 67.5t99 35t83.5 10.5h19q-54 -30 -76.5 -79t-22.5 -116q0 -65 31 -124t93.5 -96t158.5 -37q71 0 136 17t116 50.5t81 82t30 112.5q0 63 -35 103t-92 59t-122 19h-67h-92.5h-68.5
q-146 0 -234.5 42.5t-88.5 138.5q0 58 33 98.5t88 66t123 37.5t139 12l-1 -15q-30 0 -67.5 -6.5t-71.5 -20t-56.5 -34t-22.5 -47.5q0 -45 52 -56t134 -11q35 0 66 0.5t60.5 1t58.5 0.5q56 0 114.5 -12.5t108.5 -47t80.5 -98t30.5 -165.5q0 -95 -38 -162.5t-104.5 -110
t-151.5 -63t-178 -20.5zM493 327q-67 0 -135 17t-125.5 53.5t-92.5 95t-35 140.5q0 83 35 141.5t92.5 94.5t125.5 53t135 17q66 0 133.5 -17t123.5 -53t90 -94.5t34 -141.5q0 -82 -34 -140.5t-90 -95t-123.5 -53.5t-133.5 -17zM493 352q48 0 79 39t46 103t15 139
q0 79 -15 142.5t-46 101t-79 37.5q-49 0 -80 -37.5t-45.5 -101t-14.5 -142.5q0 -75 8 -139t38 -103t94 -39zM1067 639q-45 0 -80.5 30t-35.5 86q0 57 36.5 82.5t79.5 25.5q41 0 80 -25.5t39 -73.5h-24q0 53 -41 97.5t-116 44.5q-41 0 -88.5 -19t-88.5 -66t-61 -131l-17 12
q20 88 63.5 137.5t95 70t94.5 20.5q58 0 99 -24.5t63.5 -62.5t22.5 -79q0 -71 -38.5 -98t-82.5 -27zM251 1124l-12 14l232 250h154l232 -250l-13 -14l-297 144z" />
    <glyph glyph-name="Gbreve" unicode="&#x11e;" horiz-adv-x="1498" 
d="M867 583h601v-26h-109v-239q-38 -49 -88 -107.5t-118 -111t-159.5 -86t-213.5 -33.5q-217 0 -370.5 97t-234.5 270.5t-81 402.5q0 171 54 312.5t151 244t227.5 158t282.5 55.5q92 0 176.5 -32t150.5 -89l159 101h22v-428h-26q-10 84 -50 159t-102 132.5t-140.5 90.5
t-165.5 33q-119 0 -202.5 -63t-135.5 -169t-76 -237t-24 -268q0 -136 17 -269t59.5 -240.5t117.5 -171.5t191 -64q75 0 127 28t86.5 69t54.5 82t30 66v307h-211v26zM811 1680q-87 0 -138 39.5t-72.5 106t-21.5 148.5h18q0 -48 31 -78t80 -44t103 -14t103 14t80 44t31 78h18
q0 -82 -21.5 -148.5t-72.5 -106t-138 -39.5z" />
    <glyph glyph-name="gbreve" unicode="&#x11f;" 
d="M516 -520q-91 0 -173.5 15t-147.5 46t-102.5 80.5t-37.5 119.5q0 64 33 107t82.5 67.5t99 35t83.5 10.5h19q-54 -30 -76.5 -79t-22.5 -116q0 -65 31 -124t93.5 -96t158.5 -37q71 0 136 17t116 50.5t81 82t30 112.5q0 63 -35 103t-92 59t-122 19h-67h-92.5h-68.5
q-146 0 -234.5 42.5t-88.5 138.5q0 58 33 98.5t88 66t123 37.5t139 12l-1 -15q-30 0 -67.5 -6.5t-71.5 -20t-56.5 -34t-22.5 -47.5q0 -45 52 -56t134 -11q35 0 66 0.5t60.5 1t58.5 0.5q56 0 114.5 -12.5t108.5 -47t80.5 -98t30.5 -165.5q0 -95 -38 -162.5t-104.5 -110
t-151.5 -63t-178 -20.5zM493 327q-67 0 -135 17t-125.5 53.5t-92.5 95t-35 140.5q0 83 35 141.5t92.5 94.5t125.5 53t135 17q66 0 133.5 -17t123.5 -53t90 -94.5t34 -141.5q0 -82 -34 -140.5t-90 -95t-123.5 -53.5t-133.5 -17zM493 352q48 0 79 39t46 103t15 139
q0 79 -15 142.5t-46 101t-79 37.5q-49 0 -80 -37.5t-45.5 -101t-14.5 -142.5q0 -75 8 -139t38 -103t94 -39zM1067 639q-45 0 -80.5 30t-35.5 86q0 57 36.5 82.5t79.5 25.5q41 0 80 -25.5t39 -73.5h-24q0 53 -41 97.5t-116 44.5q-41 0 -88.5 -19t-88.5 -66t-61 -131l-17 12
q20 88 63.5 137.5t95 70t94.5 20.5q58 0 99 -24.5t63.5 -62.5t22.5 -79q0 -71 -38.5 -98t-82.5 -27zM547 1100q-87 0 -138 39.5t-72.5 106t-21.5 148.5h18q0 -48 31 -78t80 -44t103 -14t103 14t80 44t31 78h18q0 -82 -21.5 -148.5t-72.5 -106t-138 -39.5z" />
    <glyph glyph-name="Gdotaccent" unicode="&#x120;" horiz-adv-x="1498" 
d="M867 583h601v-26h-109v-239q-38 -49 -88 -107.5t-118 -111t-159.5 -86t-213.5 -33.5q-217 0 -370.5 97t-234.5 270.5t-81 402.5q0 171 54 312.5t151 244t227.5 158t282.5 55.5q92 0 176.5 -32t150.5 -89l159 101h22v-428h-26q-10 84 -50 159t-102 132.5t-140.5 90.5
t-165.5 33q-119 0 -202.5 -63t-135.5 -169t-76 -237t-24 -268q0 -136 17 -269t59.5 -240.5t117.5 -171.5t191 -64q75 0 127 28t86.5 69t54.5 82t30 66v307h-211v26zM812 1798q-63 0 -106.5 43.5t-43.5 106.5t43.5 106.5t106.5 43.5t106.5 -43.5t43.5 -106.5t-43.5 -106.5
t-106.5 -43.5z" />
    <glyph glyph-name="gdotaccent" unicode="&#x121;" 
d="M516 -520q-91 0 -173.5 15t-147.5 46t-102.5 80.5t-37.5 119.5q0 64 33 107t82.5 67.5t99 35t83.5 10.5h19q-54 -30 -76.5 -79t-22.5 -116q0 -65 31 -124t93.5 -96t158.5 -37q71 0 136 17t116 50.5t81 82t30 112.5q0 63 -35 103t-92 59t-122 19h-67h-92.5h-68.5
q-146 0 -234.5 42.5t-88.5 138.5q0 58 33 98.5t88 66t123 37.5t139 12l-1 -15q-30 0 -67.5 -6.5t-71.5 -20t-56.5 -34t-22.5 -47.5q0 -45 52 -56t134 -11q35 0 66 0.5t60.5 1t58.5 0.5q56 0 114.5 -12.5t108.5 -47t80.5 -98t30.5 -165.5q0 -95 -38 -162.5t-104.5 -110
t-151.5 -63t-178 -20.5zM493 327q-67 0 -135 17t-125.5 53.5t-92.5 95t-35 140.5q0 83 35 141.5t92.5 94.5t125.5 53t135 17q66 0 133.5 -17t123.5 -53t90 -94.5t34 -141.5q0 -82 -34 -140.5t-90 -95t-123.5 -53.5t-133.5 -17zM493 352q48 0 79 39t46 103t15 139
q0 79 -15 142.5t-46 101t-79 37.5q-49 0 -80 -37.5t-45.5 -101t-14.5 -142.5q0 -75 8 -139t38 -103t94 -39zM1067 639q-45 0 -80.5 30t-35.5 86q0 57 36.5 82.5t79.5 25.5q41 0 80 -25.5t39 -73.5h-24q0 53 -41 97.5t-116 44.5q-41 0 -88.5 -19t-88.5 -66t-61 -131l-17 12
q20 88 63.5 137.5t95 70t94.5 20.5q58 0 99 -24.5t63.5 -62.5t22.5 -79q0 -71 -38.5 -98t-82.5 -27zM548 1218q-63 0 -106.5 43.5t-43.5 106.5t43.5 106.5t106.5 43.5t106.5 -43.5t43.5 -106.5t-43.5 -106.5t-106.5 -43.5z" />
    <glyph glyph-name="uni0122" unicode="&#x122;" horiz-adv-x="1498" 
d="M867 583h601v-26h-109v-239q-38 -49 -88 -107.5t-118 -111t-159.5 -86t-213.5 -33.5q-217 0 -370.5 97t-234.5 270.5t-81 402.5q0 171 54 312.5t151 244t227.5 158t282.5 55.5q92 0 176.5 -32t150.5 -89l159 101h22v-428h-26q-10 84 -50 159t-102 132.5t-140.5 90.5
t-165.5 33q-119 0 -202.5 -63t-135.5 -169t-76 -237t-24 -268q0 -136 17 -269t59.5 -240.5t117.5 -171.5t191 -64q75 0 127 28t86.5 69t54.5 82t30 66v307h-211v26zM647 -668v21q84 0 146.5 43.5t91.5 116.5t14 163h7q2 -28 -15.5 -55t-47 -44.5t-65.5 -17.5
q-63 0 -95.5 36.5t-32.5 86.5q0 34 18.5 62t49.5 44.5t68 16.5q58 0 99.5 -48.5t41.5 -134.5q0 -77 -33.5 -143t-96 -106.5t-150.5 -40.5z" />
    <glyph glyph-name="uni0123" unicode="&#x123;" 
d="M516 -520q-91 0 -173.5 15t-147.5 46t-102.5 80.5t-37.5 119.5q0 64 33 107t82.5 67.5t99 35t83.5 10.5h19q-54 -30 -76.5 -79t-22.5 -116q0 -65 31 -124t93.5 -96t158.5 -37q71 0 136 17t116 50.5t81 82t30 112.5q0 63 -35 103t-92 59t-122 19h-67h-92.5h-68.5
q-146 0 -234.5 42.5t-88.5 138.5q0 58 33 98.5t88 66t123 37.5t139 12l-1 -15q-30 0 -67.5 -6.5t-71.5 -20t-56.5 -34t-22.5 -47.5q0 -45 52 -56t134 -11q35 0 66 0.5t60.5 1t58.5 0.5q56 0 114.5 -12.5t108.5 -47t80.5 -98t30.5 -165.5q0 -95 -38 -162.5t-104.5 -110
t-151.5 -63t-178 -20.5zM493 327q-67 0 -135 17t-125.5 53.5t-92.5 95t-35 140.5q0 83 35 141.5t92.5 94.5t125.5 53t135 17q66 0 133.5 -17t123.5 -53t90 -94.5t34 -141.5q0 -82 -34 -140.5t-90 -95t-123.5 -53.5t-133.5 -17zM493 352q48 0 79 39t46 103t15 139
q0 79 -15 142.5t-46 101t-79 37.5q-49 0 -80 -37.5t-45.5 -101t-14.5 -142.5q0 -75 8 -139t38 -103t94 -39zM1067 639q-45 0 -80.5 30t-35.5 86q0 57 36.5 82.5t79.5 25.5q41 0 80 -25.5t39 -73.5h-24q0 53 -41 97.5t-116 44.5q-41 0 -88.5 -19t-88.5 -66t-61 -131l-17 12
q20 88 63.5 137.5t95 70t94.5 20.5q58 0 99 -24.5t63.5 -62.5t22.5 -79q0 -71 -38.5 -98t-82.5 -27zM551 1109q-58 0 -99.5 48t-41.5 135q0 77 33.5 143t96 106.5t149.5 40.5v-21q-83 0 -145.5 -43.5t-91.5 -116.5t-14 -163h-7q-2 28 15 55t47 44.5t66 17.5q63 0 95 -36.5
t32 -86.5q0 -33 -18 -61.5t-48.5 -45t-68.5 -16.5z" />
    <glyph glyph-name="Hcircumflex" unicode="&#x124;" horiz-adv-x="1562" 
d="M1517 1500v-25h-180v-1450h180v-25h-630v25h188v703h-587v-703h187v-25h-630v25h180v1450h-180v25h630v-25h-187v-723h587v723h-188v25h630zM487 1704l-12 14l232 250h154l232 -250l-13 -14l-297 144z" />
    <glyph glyph-name="hcircumflex" unicode="&#x125;" horiz-adv-x="1219" 
d="M55 0v25h131v1450h-131v25h371v-1475h112v-25h-483zM684 0v25h112v594q0 84 -7.5 143t-30 89.5t-69.5 30.5q-75 0 -126 -42t-81 -108.5t-43 -142t-13 -142.5l-19 -5q0 71 14 156.5t50.5 163.5t104.5 128t176 50q114 0 175 -39t84 -107t23 -155v-614h131v-25h-481z
M357 1618l-12 14l232 250h154l232 -250l-13 -14l-297 144z" />
    <glyph glyph-name="Hbar" unicode="&#x126;" horiz-adv-x="1562" 
d="M44 1112v24h1473v-24h-1473zM1517 1500v-25h-180v-1450h180v-25h-630v25h188v703h-587v-703h187v-25h-630v25h180v1450h-180v25h630v-25h-187v-723h587v723h-188v25h630z" />
    <glyph glyph-name="hbar" unicode="&#x127;" horiz-adv-x="1191" 
d="M66 1178v24h584v-24h-584zM55 0v25h131v1450h-131v25h371v-1475h112v-25h-483zM684 0v25h112v594q0 84 -7.5 143t-30 89.5t-69.5 30.5q-75 0 -126 -42t-81 -108.5t-43 -142t-13 -142.5l-19 -5q0 71 14 156.5t50.5 163.5t104.5 128t176 50q114 0 175 -39t84 -107t23 -155
v-614h131v-25h-481z" />
    <glyph glyph-name="Itilde" unicode="&#x128;" horiz-adv-x="812" 
d="M45 0v25h220v1450h-220v25h722v-25h-240v-1450h240v-25h-722zM563 1668q-57 0 -103 24t-86.5 55t-82.5 55t-91 24q-51 0 -88 -30.5t-37 -95.5h-25q0 85 26.5 147.5t72.5 96.5t104 34q60 0 104.5 -24t82.5 -55t75 -55t81 -24q58 0 91.5 30.5t33.5 95.5h25
q0 -95 -17.5 -156.5t-57.5 -91.5t-108 -30z" />
    <glyph glyph-name="itilde" unicode="&#x129;" horiz-adv-x="624" 
d="M436 920v-895h130v-25h-501v25h131v870h-131v25h371zM485 1088q-57 0 -103 24t-86.5 55t-82.5 55t-91 24q-51 0 -88 -30.5t-37 -95.5h-25q0 85 26.5 147.5t72.5 96.5t104 34q60 0 104.5 -24t82.5 -55t75 -55t81 -24q58 0 91.5 30.5t33.5 95.5h25q0 -95 -17.5 -156.5
t-57.5 -91.5t-108 -30z" />
    <glyph glyph-name="Imacron" unicode="&#x12a;" horiz-adv-x="812" 
d="M45 0v25h220v1450h-220v25h722v-25h-240v-1450h240v-25h-722zM157 1700v25h480v-25h-480z" />
    <glyph glyph-name="imacron" unicode="&#x12b;" horiz-adv-x="624" 
d="M436 920v-895h130v-25h-501v25h131v870h-131v25h371zM79 1120v25h480v-25h-480z" />
    <glyph glyph-name="Ibreve" unicode="&#x12c;" horiz-adv-x="812" 
d="M45 0v25h220v1450h-220v25h722v-25h-240v-1450h240v-25h-722zM397 1680q-87 0 -138 39.5t-72.5 106t-21.5 148.5h18q0 -48 31 -78t80 -44t103 -14t103 14t80 44t31 78h18q0 -82 -21.5 -148.5t-72.5 -106t-138 -39.5z" />
    <glyph glyph-name="ibreve" unicode="&#x12d;" horiz-adv-x="624" 
d="M436 920v-895h130v-25h-501v25h131v870h-131v25h371zM319 1100q-87 0 -138 39.5t-72.5 106t-21.5 148.5h18q0 -48 31 -78t80 -44t103 -14t103 14t80 44t31 78h18q0 -82 -21.5 -148.5t-72.5 -106t-138 -39.5z" />
    <glyph glyph-name="Iogonek" unicode="&#x12e;" horiz-adv-x="812" 
d="M45 0v25h220v1450h-220v25h722v-25h-240v-1450h240v-25h-722zM389 -435q-60 0 -113 18t-87 56t-34 98t29.5 108t77.5 85.5t104 64t109 42.5l8 -16q-24 -14 -45.5 -47t-35 -82t-13.5 -110q0 -72 28.5 -115t74.5 -43q45 0 72 28.5t50 68.5l17 -11q-15 -28 -41 -62
t-73.5 -58.5t-127.5 -24.5z" />
    <glyph glyph-name="iogonek" unicode="&#x12f;" horiz-adv-x="624" 
d="M436 920v-895h130v-25h-501v25h131v870h-131v25h371zM320 1218q-63 0 -106.5 43.5t-43.5 106.5t43.5 106.5t106.5 43.5t106.5 -43.5t43.5 -106.5t-43.5 -106.5t-106.5 -43.5zM317 -435q-60 0 -113 18t-87 56t-34 98t29.5 108t77.5 85.5t104 64t109 42.5l8 -16
q-24 -14 -45.5 -47t-35 -82t-13.5 -110q0 -72 28.5 -115t74.5 -43q45 0 72 28.5t50 68.5l17 -11q-15 -28 -41 -62t-73.5 -58.5t-127.5 -24.5z" />
    <glyph glyph-name="Idotaccent" unicode="&#x130;" horiz-adv-x="812" 
d="M45 0v25h220v1450h-220v25h722v-25h-240v-1450h240v-25h-722zM398 1798q-63 0 -106.5 43.5t-43.5 106.5t43.5 106.5t106.5 43.5t106.5 -43.5t43.5 -106.5t-43.5 -106.5t-106.5 -43.5z" />
    <glyph glyph-name="dotlessi" unicode="&#x131;" horiz-adv-x="624" 
d="M436 920v-895h130v-25h-501v25h131v870h-131v25h371z" />
    <glyph glyph-name="IJ" unicode="&#x132;" horiz-adv-x="1853" 
d="M45 0v25h220v1450h-220v25h722v-25h-240v-1450h240v-25h-722zM1755 1500v-25h-200v-1135q-23 -64 -56.5 -134t-82.5 -130.5t-118 -98.5t-162 -38q-92 0 -160.5 34t-106.5 89.5t-38 120.5q0 51 21 88t56 57t76 20q35 0 70 -17t58.5 -51t23.5 -84q0 -48 -22.5 -80.5
t-58.5 -48.5t-77 -15q-31 2 -61 23t-39 52q12 -45 46 -81.5t83 -57.5t107 -21q75 0 113.5 45t52.5 137t14 231v1095h-260v25h721z" />
    <glyph glyph-name="ij" unicode="&#x133;" horiz-adv-x="1185" 
d="M316 1218q-63 0 -106.5 43.5t-43.5 106.5t43.5 106.5t106.5 43.5t106.5 -43.5t43.5 -106.5t-43 -106.5t-107 -43.5zM436 920v-895h130v-25h-501v25h131v870h-131v25h371zM600 -520q-86 0 -148.5 31.5t-96.5 84t-34 114.5q0 69 42 108.5t102 39.5q34 0 66 -15.5
t53.5 -45.5t21.5 -74q0 -51 -39 -92t-103 -41q-38 0 -70 16.5t-51.5 43.5t-19.5 60h23q0 -57 32 -103.5t86 -74t122 -27.5q70 0 104.5 47t46.5 125.5t12 173.5v190v854h-171v25h410v-943q0 -98 -24 -187.5t-72.5 -159t-121 -110t-170.5 -40.5zM853 1219q-63 0 -106.5 44.5
t-43.5 106.5q0 64 43.5 107t106.5 43t106 -43t43 -107q0 -62 -43 -106.5t-106 -44.5z" />
    <glyph glyph-name="Jcircumflex" unicode="&#x134;" horiz-adv-x="998" 
d="M953 1500v-25h-200v-1135q-23 -64 -56.5 -134t-82.5 -130.5t-118 -98.5t-162 -38q-92 0 -160.5 34t-106.5 89.5t-38 120.5q0 51 21 88t56 57t76 20q35 0 70 -17t58.5 -51t23.5 -84q0 -48 -22.5 -80.5t-58.5 -48.5t-77 -15q-31 2 -61 23t-39 52q12 -45 46 -81.5t83 -57.5
t107 -21q75 0 113.5 45t52.5 137t14 231v1095h-260v25h721zM299 1704l-12 14l232 250h154l232 -250l-13 -14l-297 144z" />
    <glyph glyph-name="jcircumflex" unicode="&#x135;" horiz-adv-x="638" 
d="M80 -520q-86 0 -148.5 31.5t-96.5 84t-34 114.5q0 69 42 108.5t102 39.5q34 0 66 -15.5t53.5 -45.5t21.5 -74q0 -51 -39 -92t-103 -41q-38 0 -70 16.5t-51.5 43.5t-19.5 60h23q0 -57 32 -103.5t86 -74t122 -27.5q70 0 104.5 47t46.5 125.5t12 173.5v190v854h-171v25h410
v-943q0 -98 -24 -187.5t-72.5 -159t-121 -110t-170.5 -40.5zM23 1124l-12 14l232 250h154l232 -250l-13 -14l-297 144z" />
    <glyph glyph-name="uni0136" unicode="&#x136;" horiz-adv-x="1484" 
d="M275 434l843 1041h-225v25h480v-25h-219l-843 -1041h-36zM45 0v25h180v1450h-180v25h642v-25h-199v-1450h187v-25h-630zM783 0v25h198l-424 747l173 202l563 -949h170v-25h-680zM598 -668v21q84 0 146.5 43.5t91.5 116.5t14 163h7q2 -28 -15.5 -55t-47 -44.5t-65.5 -17.5
q-63 0 -95.5 36.5t-32.5 86.5q0 34 18.5 62t49.5 44.5t68 16.5q58 0 99.5 -48.5t41.5 -134.5q0 -77 -33.5 -143t-96 -106.5t-150.5 -40.5z" />
    <glyph glyph-name="uni0137" unicode="&#x137;" horiz-adv-x="1251" 
d="M55 0v25h171v1450h-171v25h411v-1475h122v-25h-533zM698 0v25h128l-398 505l493 365h-218v25h427v-25h-174l-333 -253l498 -617h95v-25h-518zM498 -668v21q84 0 146.5 43.5t91.5 116.5t14 163h7q2 -28 -15.5 -55t-47 -44.5t-65.5 -17.5q-63 0 -95.5 36.5t-32.5 86.5
q0 34 18.5 62t49.5 44.5t68 16.5q58 0 99.5 -48.5t41.5 -134.5q0 -77 -33.5 -143t-96 -106.5t-150.5 -40.5z" />
    <glyph glyph-name="kgreenlandic" unicode="&#x138;" horiz-adv-x="1250" 
d="M850 0l-417 530l526 390h34l-365 -278l517 -642h-295zM50 0v25h543v-25h-543zM231 0v895h-181v25h421v-920h-240zM693 0v25h528v-25h-528zM689 895v25h446v-25h-446z" />
    <glyph glyph-name="Lacute" unicode="&#x139;" horiz-adv-x="1220" 
d="M45 0v25h180v1450h-180v25h622v-25h-179v-1450h243q113 0 189.5 30.5t123.5 86.5t70 134.5t30 173.5h25v-450h-1124zM274 1682l-14 17l181 236q25 37 59 45t65 -4t46 -35q16 -26 13.5 -58.5t-22.5 -59t-55 -36.5z" />
    <glyph glyph-name="lacute" unicode="&#x13a;" horiz-adv-x="690" 
d="M466 1500v-1475h170v-25h-581v25h171v1450h-171v25h411zM273 1682l-14 17l181 236q25 37 59 45t65 -4t46 -35q16 -26 13.5 -58.5t-22.5 -59t-55 -36.5z" />
    <glyph glyph-name="uni013B" unicode="&#x13b;" horiz-adv-x="1220" 
d="M45 0v25h180v1450h-180v25h622v-25h-179v-1450h243q113 0 189.5 30.5t123.5 86.5t70 134.5t30 173.5h25v-450h-1124zM487 -668v21q84 0 146.5 43.5t91.5 116.5t14 163h7q2 -28 -15.5 -55t-47 -44.5t-65.5 -17.5q-63 0 -95.5 36.5t-32.5 86.5q0 34 18.5 62t49.5 44.5
t68 16.5q58 0 99.5 -48.5t41.5 -134.5q0 -77 -33.5 -143t-96 -106.5t-150.5 -40.5z" />
    <glyph glyph-name="uni013C" unicode="&#x13c;" horiz-adv-x="690" 
d="M466 1500v-1475h170v-25h-581v25h171v1450h-171v25h411zM223 -668v21q84 0 146.5 43.5t91.5 116.5t14 163h7q2 -28 -15.5 -55t-47 -44.5t-65.5 -17.5q-63 0 -95.5 36.5t-32.5 86.5q0 34 18.5 62t49.5 44.5t68 16.5q58 0 99.5 -48.5t41.5 -134.5q0 -77 -33.5 -143
t-96 -106.5t-150.5 -40.5z" />
    <glyph glyph-name="Lcaron" unicode="&#x13d;" horiz-adv-x="1220" 
d="M45 0v25h180v1450h-180v25h622v-25h-179v-1450h243q113 0 189.5 30.5t123.5 86.5t70 134.5t30 173.5h25v-450h-1124zM813 996v23q70 0 126 28.5t93.5 78.5t52.5 115.5t1 138.5h8q2 -29 -16 -58.5t-50.5 -48.5t-71.5 -19q-69 0 -104 39.5t-35 93.5q0 56 43 95t105 39
q63 0 108.5 -53t45.5 -150q0 -84 -36.5 -157.5t-104.5 -119t-165 -45.5z" />
    <glyph glyph-name="lcaron" unicode="&#x13e;" horiz-adv-x="690" 
d="M466 1500v-1475h170v-25h-581v25h171v1450h-171v25h411zM596 981v23q70 0 126 28.5t93.5 78.5t52.5 115.5t1 138.5h8q2 -29 -16 -58.5t-50.5 -48.5t-71.5 -19q-69 0 -104 39.5t-35 93.5q0 56 43 95t105 39q63 0 108.5 -53t45.5 -150q0 -84 -36.5 -157.5t-104.5 -119
t-165 -45.5z" />
    <glyph glyph-name="Ldot" unicode="&#x13f;" horiz-adv-x="1220" 
d="M45 0v25h180v1450h-180v25h622v-25h-179v-1450h243q113 0 189.5 30.5t123.5 86.5t70 134.5t30 173.5h25v-450h-1124zM982 680q-43 0 -78 21t-56.5 56.5t-21.5 78.5t21.5 78.5t56.5 57t78 21.5t78.5 -21.5t56.5 -57t21 -78.5t-21 -78.5t-56.5 -56.5t-78.5 -21z" />
    <glyph glyph-name="ldot" unicode="&#x140;" horiz-adv-x="793" 
d="M466 1500v-1475h170v-25h-581v25h171v1450h-171v25h411zM751 680q-43 0 -78 21t-56.5 56.5t-21.5 78.5t21.5 78.5t56.5 57t78 21.5t78.5 -21.5t56.5 -57t21 -78.5t-21 -78.5t-56.5 -56.5t-78.5 -21z" />
    <glyph glyph-name="Lslash" unicode="&#x141;" horiz-adv-x="1220" 
d="M48 691v29l749 440v-29zM45 0v25h180v1450h-180v25h622v-25h-179v-1450h243q113 0 189.5 30.5t123.5 86.5t70 134.5t30 173.5h25v-450h-1124z" />
    <glyph glyph-name="lslash" unicode="&#x142;" horiz-adv-x="690" 
d="M48 747v29l630 384v-29zM466 1500v-1475h170v-25h-581v25h171v1450h-171v25h411z" />
    <glyph glyph-name="Nacute" unicode="&#x143;" horiz-adv-x="1527" 
d="M273 1500v-1475h234v-25h-462v25h202v1450h-202v25h228zM1483 1500v-25h-211v-1495h-34l-983 1520h314l678 -1071v1046h-231v25h467zM714 1682l-14 17l181 236q25 37 59 45t65 -4t46 -35q16 -26 13.5 -58.5t-22.5 -59t-55 -36.5z" />
    <glyph glyph-name="nacute" unicode="&#x144;" horiz-adv-x="1219" 
d="M424 920v-895h112v-25h-481v25h131v870h-131v25h369zM1034 639v-614h131v-25h-481v25h112v594q0 84 -7.5 143t-30 89.5t-69.5 30.5q-75 0 -126 -42t-81.5 -108.5t-44 -142t-13.5 -142.5l-18 -5q0 71 13.5 156.5t50.5 163.5t105.5 128t177.5 50q114 0 175 -39t83.5 -107
t22.5 -155zM545 1102l-14 17l181 236q25 37 59 45t65 -4t46 -35q16 -26 13.5 -58.5t-22.5 -59t-55 -36.5z" />
    <glyph glyph-name="uni0145" unicode="&#x145;" horiz-adv-x="1527" 
d="M273 1500v-1475h234v-25h-462v25h202v1450h-202v25h228zM1483 1500v-25h-211v-1495h-34l-983 1520h314l678 -1071v1046h-231v25h467zM595 -668v21q84 0 146.5 43.5t91.5 116.5t14 163h7q2 -28 -15.5 -55t-47 -44.5t-65.5 -17.5q-63 0 -95.5 36.5t-32.5 86.5q0 34 18.5 62
t49.5 44.5t68 16.5q58 0 99.5 -48.5t41.5 -134.5q0 -77 -33.5 -143t-96 -106.5t-150.5 -40.5z" />
    <glyph glyph-name="uni0146" unicode="&#x146;" horiz-adv-x="1219" 
d="M424 920v-895h112v-25h-481v25h131v870h-131v25h369zM1034 639v-614h131v-25h-481v25h112v594q0 84 -7.5 143t-30 89.5t-69.5 30.5q-75 0 -126 -42t-81.5 -108.5t-44 -142t-13.5 -142.5l-18 -5q0 71 13.5 156.5t50.5 163.5t105.5 128t177.5 50q114 0 175 -39t83.5 -107
t22.5 -155zM477 -668v21q84 0 146.5 43.5t91.5 116.5t14 163h7q2 -28 -15.5 -55t-47 -44.5t-65.5 -17.5q-63 0 -95.5 36.5t-32.5 86.5q0 34 18.5 62t49.5 44.5t68 16.5q58 0 99.5 -48.5t41.5 -134.5q0 -77 -33.5 -143t-96 -106.5t-150.5 -40.5z" />
    <glyph glyph-name="Ncaron" unicode="&#x147;" horiz-adv-x="1527" 
d="M273 1500v-1475h234v-25h-462v25h202v1450h-202v25h228zM1483 1500v-25h-211v-1495h-34l-983 1520h314l678 -1071v1046h-231v25h467zM718 1700l-232 250l13 12l296 -142l295 142l14 -12l-232 -250h-154z" />
    <glyph glyph-name="ncaron" unicode="&#x148;" horiz-adv-x="1219" 
d="M424 920v-895h112v-25h-481v25h131v870h-131v25h369zM1034 639v-614h131v-25h-481v25h112v594q0 84 -7.5 143t-30 89.5t-69.5 30.5q-75 0 -126 -42t-81.5 -108.5t-44 -142t-13.5 -142.5l-18 -5q0 71 13.5 156.5t50.5 163.5t105.5 128t177.5 50q114 0 175 -39t83.5 -107
t22.5 -155zM550 1120l-232 250l13 12l296 -142l295 142l14 -12l-232 -250h-154z" />
    <glyph glyph-name="napostrophe" unicode="&#x149;" horiz-adv-x="1489" 
d="M658 920v-895h112v-25h-481v25h131v870h-131v25h369zM1268 639v-614h131v-25h-481v25h112v594q0 84 -7.5 143t-30 89.5t-69.5 30.5q-75 0 -126 -42t-81.5 -108.5t-44 -142t-13.5 -142.5l-18 -5q0 71 13.5 156.5t50.5 163.5t105.5 128t177.5 50q114 0 175 -39t83.5 -107
t22.5 -155zM15 937v25q79 0 143 31.5t107.5 87t61 128.5t2.5 157h9q2 -34 -19 -68t-58.5 -56t-82.5 -22q-78 0 -118.5 45.5t-40.5 108.5q0 42 22.5 77t61.5 56t86 21q48 0 88 -27.5t64 -78.5t24 -123q0 -96 -42 -178.5t-120.5 -133t-187.5 -50.5z" />
    <glyph glyph-name="Eng" unicode="&#x14a;" horiz-adv-x="1563" 
d="M954 -520q-96 0 -166.5 33t-109 87.5t-38.5 116.5q0 69 42.5 108.5t101.5 39.5q34 0 66 -15.5t53.5 -45.5t21.5 -74q0 -51 -37 -92t-100 -41q-38 0 -71 16.5t-54 43.5t-21 60h24q0 -56 36 -104t97.5 -77t140.5 -29q70 0 110 46.5t59 124.5t24 172.5t5 189.5v964
q0 94 -20 177t-59.5 146.5t-97.5 99t-134 35.5q-101 0 -174 -46t-120 -118.5t-69.5 -155t-22.5 -156.5h-17q0 59 14 129.5t46 141.5t86 130.5t133 95.5t187 36q168 0 276 -65.5t160 -174t52 -238.5l-1 -1064q0 -97 -26.5 -186.5t-79.5 -159.5t-132 -110.5t-185 -40.5zM67 0
v25h512v-25h-512zM207 0v1475h-140v25h374v-1500h-234z" />
    <glyph glyph-name="eng" unicode="&#x14b;" horiz-adv-x="1242" 
d="M668 -520q-85 0 -147.5 31.5t-97 84t-34.5 114.5q0 69 42.5 108.5t101.5 39.5q34 0 66.5 -15.5t53.5 -45.5t21 -74q0 -51 -36.5 -92t-100.5 -41q-38 0 -71 16.5t-54 43.5t-21 60h23q0 -56 32 -103t88 -75.5t130 -28.5q70 0 103 47.5t43 126t8.5 173.5t-1.5 190v562
l240 37l-1 -662q0 -97 -24 -186.5t-72.5 -159.5t-121 -110.5t-170.5 -40.5zM67 0v25h512v-25h-512zM207 0v895h-140v25h374v-920h-234zM424 451q0 62 19 144.5t60.5 161t109 130.5t165.5 52q115 0 175 -38.5t82 -106.5t22 -155l-240 -37q0 86 -7.5 147.5t-30.5 95t-69 33.5
q-61 0 -110.5 -41t-85 -106t-54.5 -139t-19 -141h-17z" />
    <glyph glyph-name="Omacron" unicode="&#x14c;" horiz-adv-x="1514" 
d="M758 -20q-157 0 -280 59t-209 164t-130.5 245t-44.5 302t47 302t135 245t210 164t272 59q149 0 271 -59t210 -164t135 -245t47 -302t-44.5 -302t-130 -245.5t-209 -164t-279.5 -58.5zM758 3q115 0 186 60.5t109.5 165.5t52.5 239.5t14 281.5q0 148 -17 282t-57.5 239
t-110.5 165.5t-177 60.5t-177.5 -60.5t-111 -165t-57.5 -239t-17 -282.5q0 -147 14.5 -282t52.5 -239.5t109.5 -165t186.5 -60.5zM518 1700v25h480v-25h-480z" />
    <glyph glyph-name="omacron" unicode="&#x14d;" horiz-adv-x="1123" 
d="M562 -20q-147 0 -253.5 66t-164.5 175t-58 239t58 239t164.5 175t253.5 66t253.5 -66t164.5 -175t58 -239t-58 -239t-164.5 -175t-253.5 -66zM562 5q65 0 107.5 40t65.5 106t32 147t9 162q0 82 -9 162.5t-32 146.5t-65.5 106t-107.5 40q-66 0 -107.5 -40t-65 -106
t-32.5 -146.5t-9 -162.5q0 -81 9 -162t32.5 -147t65 -106t107.5 -40zM322 1120v25h480v-25h-480z" />
    <glyph glyph-name="Obreve" unicode="&#x14e;" horiz-adv-x="1514" 
d="M758 -20q-157 0 -280 59t-209 164t-130.5 245t-44.5 302t47 302t135 245t210 164t272 59q149 0 271 -59t210 -164t135 -245t47 -302t-44.5 -302t-130 -245.5t-209 -164t-279.5 -58.5zM758 3q115 0 186 60.5t109.5 165.5t52.5 239.5t14 281.5q0 148 -17 282t-57.5 239
t-110.5 165.5t-177 60.5t-177.5 -60.5t-111 -165t-57.5 -239t-17 -282.5q0 -147 14.5 -282t52.5 -239.5t109.5 -165t186.5 -60.5zM758 1680q-87 0 -138 39.5t-72.5 106t-21.5 148.5h18q0 -48 31 -78t80 -44t103 -14t103 14t80 44t31 78h18q0 -82 -21.5 -148.5t-72.5 -106
t-138 -39.5z" />
    <glyph glyph-name="obreve" unicode="&#x14f;" horiz-adv-x="1123" 
d="M562 -20q-147 0 -253.5 66t-164.5 175t-58 239t58 239t164.5 175t253.5 66t253.5 -66t164.5 -175t58 -239t-58 -239t-164.5 -175t-253.5 -66zM562 5q65 0 107.5 40t65.5 106t32 147t9 162q0 82 -9 162.5t-32 146.5t-65.5 106t-107.5 40q-66 0 -107.5 -40t-65 -106
t-32.5 -146.5t-9 -162.5q0 -81 9 -162t32.5 -147t65 -106t107.5 -40zM562 1100q-87 0 -138 39.5t-72.5 106t-21.5 148.5h18q0 -48 31 -78t80 -44t103 -14t103 14t80 44t31 78h18q0 -82 -21.5 -148.5t-72.5 -106t-138 -39.5z" />
    <glyph glyph-name="Ohungarumlaut" unicode="&#x150;" horiz-adv-x="1514" 
d="M758 -20q-157 0 -280 59t-209 164t-130.5 245t-44.5 302t47 302t135 245t210 164t272 59q149 0 271 -59t210 -164t135 -245t47 -302t-44.5 -302t-130 -245.5t-209 -164t-279.5 -58.5zM758 3q115 0 186 60.5t109.5 165.5t52.5 239.5t14 281.5q0 148 -17 282t-57.5 239
t-110.5 165.5t-177 60.5t-177.5 -60.5t-111 -165t-57.5 -239t-17 -282.5q0 -147 14.5 -282t52.5 -239.5t109.5 -165t186.5 -60.5zM459 1681l-14 17l181 236q25 37 59 45t65 -4t46 -35q16 -26 13.5 -58.5t-22.5 -59t-55 -36.5zM899 1681l-14 17l181 236q25 37 59 45t65 -4
t46 -35q16 -26 13.5 -58.5t-22.5 -59t-55 -36.5z" />
    <glyph glyph-name="ohungarumlaut" unicode="&#x151;" horiz-adv-x="1123" 
d="M562 -20q-147 0 -253.5 66t-164.5 175t-58 239t58 239t164.5 175t253.5 66t253.5 -66t164.5 -175t58 -239t-58 -239t-164.5 -175t-253.5 -66zM562 5q65 0 107.5 40t65.5 106t32 147t9 162q0 82 -9 162.5t-32 146.5t-65.5 106t-107.5 40q-66 0 -107.5 -40t-65 -106
t-32.5 -146.5t-9 -162.5q0 -81 9 -162t32.5 -147t65 -106t107.5 -40zM263 1101l-14 17l181 236q25 37 59 45t65 -4t46 -35q16 -26 13.5 -58.5t-22.5 -59t-55 -36.5zM703 1101l-14 17l181 236q25 37 59 45t65 -4t46 -35q16 -26 13.5 -58.5t-22.5 -59t-55 -36.5z" />
    <glyph glyph-name="OE" unicode="&#x152;" horiz-adv-x="1967" 
d="M382 750q0 143 21 273.5t68.5 232.5t127.5 160.5t198 58.5l-32 25q-203 0 -357.5 -94.5t-241 -263.5t-86.5 -392t86.5 -392t241 -263.5t357.5 -94.5l32 25q-118 0 -198 58.5t-127.5 160.5t-68.5 232.5t-21 273.5zM763 0v25h180v1450h-180v25h1111v-410h-24
q-9 107 -53 194.5t-123.5 139t-196.5 51.5h-271v-1450h250q137 0 225 53.5t134 149t55 222.5h24v-450h-1131zM1527 538q-9 67 -43 118t-84.5 79.5t-107.5 28.5h-149v24h149q57 0 107.5 26t84.5 74.5t43 115.5h26v-466h-26z" />
    <glyph glyph-name="oe" unicode="&#x153;" horiz-adv-x="1753" 
d="M562 -20q-147 0 -253.5 66t-164.5 175t-58 239t58 239t164.5 175t253.5 66t253.5 -66t164.5 -175t58 -239t-58 -239t-164.5 -175t-253.5 -66zM562 5q65 0 107.5 40t65.5 106t32 147t9 162q0 82 -9 162.5t-32 146.5t-65.5 106t-107.5 40q-66 0 -107.5 -40t-65 -106
t-32.5 -146.5t-9 -162.5q0 -81 9 -162t32.5 -147t65 -106t107.5 -40zM1255 -20q-136 0 -243.5 56.5t-170 163.5t-62.5 260t60 260t165.5 163.5t241.5 56.5q148 0 240.5 -59.5t136.5 -155t44 -204.5h-754v25h491q0 59 -4.5 123.5t-20.5 120t-47.5 90.5t-85.5 35
q-59 0 -98 -36.5t-61 -99.5t-31 -142t-9 -165q0 -92 10.5 -175.5t37 -147.5t73.5 -101t120 -37q138 0 230 75.5t130 189.5h27q-39 -127 -142.5 -211.5t-277.5 -84.5z" />
    <glyph glyph-name="Racute" unicode="&#x154;" horiz-adv-x="1469" 
d="M405 762v15h294q96 0 161.5 39t99.5 116.5t34 192.5t-34 193t-99.5 117.5t-161.5 39.5h-654v25h684q160 0 281 -39.5t188 -122.5t67 -213t-63 -210t-183 -116.5t-290 -36.5h-324zM45 0v25h679v-25h-679zM253 13v1472h262v-1472h-262zM1219 -13q-96 0 -150 32t-79.5 87
t-32.5 123t-8 140.5t-7 141t-29 123t-74.5 86.5t-143.5 32h-290v14h402q142 0 225 -40t124 -106.5t54.5 -145.5t14 -158.5t3 -146t21.5 -106.5t71 -40q31 0 58.5 7t47.5 17l9 -23q-24 -13 -81 -25t-135 -12zM581 1682l-14 17l181 236q25 37 59 45t65 -4t46 -35
q16 -26 13.5 -58.5t-22.5 -59t-55 -36.5z" />
    <glyph glyph-name="racute" unicode="&#x155;" horiz-adv-x="937" 
d="M409 434q0 97 15 187.5t49 162t89 113.5t135 42q63 0 108 -26.5t68 -69t23 -90.5q0 -62 -40 -107t-105 -45q-67 0 -107.5 39.5t-40.5 95.5q0 67 43 106.5t104 39.5q41 0 74 -18.5t51.5 -47.5t18.5 -63h-24q0 42 -21.5 79t-61 59.5t-93.5 22.5q-69 0 -120 -39t-84.5 -107
t-49.5 -154.5t-16 -179.5h-15zM424 920v-895h144v-25h-513v25h131v870h-131v25h369zM437 1102l-14 17l181 236q25 37 59 45t65 -4t46 -35q16 -26 13.5 -58.5t-22.5 -59t-55 -36.5z" />
    <glyph glyph-name="uni0156" unicode="&#x156;" horiz-adv-x="1469" 
d="M405 762v15h294q96 0 161.5 39t99.5 116.5t34 192.5t-34 193t-99.5 117.5t-161.5 39.5h-654v25h684q160 0 281 -39.5t188 -122.5t67 -213t-63 -210t-183 -116.5t-290 -36.5h-324zM45 0v25h679v-25h-679zM253 13v1472h262v-1472h-262zM1219 -13q-96 0 -150 32t-79.5 87
t-32.5 123t-8 140.5t-7 141t-29 123t-74.5 86.5t-143.5 32h-290v14h402q142 0 225 -40t124 -106.5t54.5 -145.5t14 -158.5t3 -146t21.5 -106.5t71 -40q31 0 58.5 7t47.5 17l9 -23q-24 -13 -81 -25t-135 -12zM627 -668v21q84 0 146.5 43.5t91.5 116.5t14 163h7
q2 -28 -15.5 -55t-47 -44.5t-65.5 -17.5q-63 0 -95.5 36.5t-32.5 86.5q0 34 18.5 62t49.5 44.5t68 16.5q58 0 99.5 -48.5t41.5 -134.5q0 -77 -33.5 -143t-96 -106.5t-150.5 -40.5z" />
    <glyph glyph-name="uni0157" unicode="&#x157;" horiz-adv-x="937" 
d="M409 434q0 97 15 187.5t49 162t89 113.5t135 42q63 0 108 -26.5t68 -69t23 -90.5q0 -62 -40 -107t-105 -45q-67 0 -107.5 39.5t-40.5 95.5q0 67 43 106.5t104 39.5q41 0 74 -18.5t51.5 -47.5t18.5 -63h-24q0 42 -21.5 79t-61 59.5t-93.5 22.5q-69 0 -120 -39t-84.5 -107
t-49.5 -154.5t-16 -179.5h-15zM424 920v-895h144v-25h-513v25h131v870h-131v25h369zM179 -668v21q84 0 146.5 43.5t91.5 116.5t14 163h7q2 -28 -15.5 -55t-47 -44.5t-65.5 -17.5q-63 0 -95.5 36.5t-32.5 86.5q0 34 18.5 62t49.5 44.5t68 16.5q58 0 99.5 -48.5t41.5 -134.5
q0 -77 -33.5 -143t-96 -106.5t-150.5 -40.5z" />
    <glyph glyph-name="Rcaron" unicode="&#x158;" horiz-adv-x="1469" 
d="M405 762v15h294q96 0 161.5 39t99.5 116.5t34 192.5t-34 193t-99.5 117.5t-161.5 39.5h-654v25h684q160 0 281 -39.5t188 -122.5t67 -213t-63 -210t-183 -116.5t-290 -36.5h-324zM45 0v25h679v-25h-679zM253 13v1472h262v-1472h-262zM1219 -13q-96 0 -150 32t-79.5 87
t-32.5 123t-8 140.5t-7 141t-29 123t-74.5 86.5t-143.5 32h-290v14h402q142 0 225 -40t124 -106.5t54.5 -145.5t14 -158.5t3 -146t21.5 -106.5t71 -40q31 0 58.5 7t47.5 17l9 -23q-24 -13 -81 -25t-135 -12zM585 1700l-232 250l13 12l296 -142l295 142l14 -12l-232 -250
h-154z" />
    <glyph glyph-name="rcaron" unicode="&#x159;" horiz-adv-x="937" 
d="M409 434q0 97 15 187.5t49 162t89 113.5t135 42q63 0 108 -26.5t68 -69t23 -90.5q0 -62 -40 -107t-105 -45q-67 0 -107.5 39.5t-40.5 95.5q0 67 43 106.5t104 39.5q41 0 74 -18.5t51.5 -47.5t18.5 -63h-24q0 42 -21.5 79t-61 59.5t-93.5 22.5q-69 0 -120 -39t-84.5 -107
t-49.5 -154.5t-16 -179.5h-15zM424 920v-895h144v-25h-513v25h131v870h-131v25h369zM442 1120l-232 250l13 12l296 -142l295 142l14 -12l-232 -250h-154z" />
    <glyph glyph-name="Sacute" unicode="&#x15a;" horiz-adv-x="1177" 
d="M617 -29q-120 0 -207.5 38t-147.5 103l-144 -132h-22v446h25q23 -85 62 -162t97 -137.5t138 -95t185 -34.5q100 0 172.5 36.5t112.5 103.5t40 159q0 84 -44 141.5t-115.5 99t-157.5 78t-172 78t-157.5 98.5t-115 139.5t-43.5 201.5t60 206.5t158 134.5t214 47
q94 0 172.5 -30t138.5 -90l140 120h21v-435h-24q-32 132 -92.5 223t-146 137.5t-194.5 46.5q-129 0 -196.5 -66t-67.5 -172q0 -76 43 -128.5t114 -92.5t155.5 -77t169.5 -81t155.5 -104t113.5 -145.5t43 -207.5q0 -136 -62 -236.5t-171 -155.5t-250 -55zM494 1682l-14 17
l181 236q25 37 59 45t65 -4t46 -35q16 -26 13.5 -58.5t-22.5 -59t-55 -36.5z" />
    <glyph glyph-name="sacute" unicode="&#x15b;" horiz-adv-x="895" 
d="M89 -20v303h26q19 -81 68.5 -143.5t120 -97.5t153.5 -35q60 0 109.5 17t79.5 52t30 89q0 58 -40.5 91.5t-104.5 56t-136 46t-136.5 58t-105 92.5t-40.5 152q0 73 34.5 136t100 102t160.5 39q70 0 127 -23t100 -59l99 84h22v-280h-25q-17 64 -59.5 121.5t-108.5 94
t-154 36.5q-51 0 -91 -16.5t-63.5 -46t-23.5 -69.5q0 -54 42.5 -87t109.5 -57t141.5 -48.5t141.5 -60.5t109 -93t42 -147q0 -98 -48.5 -166.5t-128 -104.5t-171.5 -36q-75 0 -140 24.5t-116 68.5l-102 -93h-22zM362 1102l-14 17l181 236q25 37 59 45t65 -4t46 -35
q16 -26 13.5 -58.5t-22.5 -59t-55 -36.5z" />
    <glyph glyph-name="Scircumflex" unicode="&#x15c;" horiz-adv-x="1177" 
d="M617 -29q-120 0 -207.5 38t-147.5 103l-144 -132h-22v446h25q23 -85 62 -162t97 -137.5t138 -95t185 -34.5q100 0 172.5 36.5t112.5 103.5t40 159q0 84 -44 141.5t-115.5 99t-157.5 78t-172 78t-157.5 98.5t-115 139.5t-43.5 201.5t60 206.5t158 134.5t214 47
q94 0 172.5 -30t138.5 -90l140 120h21v-435h-24q-32 132 -92.5 223t-146 137.5t-194.5 46.5q-129 0 -196.5 -66t-67.5 -172q0 -76 43 -128.5t114 -92.5t155.5 -77t169.5 -81t155.5 -104t113.5 -145.5t43 -207.5q0 -136 -62 -236.5t-171 -155.5t-250 -55zM278 1704l-12 14
l232 250h154l232 -250l-13 -14l-297 144z" />
    <glyph glyph-name="scircumflex" unicode="&#x15d;" horiz-adv-x="895" 
d="M89 -20v303h26q19 -81 68.5 -143.5t120 -97.5t153.5 -35q60 0 109.5 17t79.5 52t30 89q0 58 -40.5 91.5t-104.5 56t-136 46t-136.5 58t-105 92.5t-40.5 152q0 73 34.5 136t100 102t160.5 39q70 0 127 -23t100 -59l99 84h22v-280h-25q-17 64 -59.5 121.5t-108.5 94
t-154 36.5q-51 0 -91 -16.5t-63.5 -46t-23.5 -69.5q0 -54 42.5 -87t109.5 -57t141.5 -48.5t141.5 -60.5t109 -93t42 -147q0 -98 -48.5 -166.5t-128 -104.5t-171.5 -36q-75 0 -140 24.5t-116 68.5l-102 -93h-22zM147 1124l-12 14l232 250h154l232 -250l-13 -14l-297 144z" />
    <glyph glyph-name="Scedilla" unicode="&#x15e;" horiz-adv-x="1177" 
d="M617 -29q-120 0 -207.5 38t-147.5 103l-144 -132h-22v446h25q23 -85 62 -162t97 -137.5t138 -95t185 -34.5q100 0 172.5 36.5t112.5 103.5t40 159q0 84 -44 141.5t-115.5 99t-157.5 78t-172 78t-157.5 98.5t-115 139.5t-43.5 201.5t60 206.5t158 134.5t214 47
q94 0 172.5 -30t138.5 -90l140 120h21v-435h-24q-32 132 -92.5 223t-146 137.5t-194.5 46.5q-129 0 -196.5 -66t-67.5 -172q0 -76 43 -128.5t114 -92.5t155.5 -77t169.5 -81t155.5 -104t113.5 -145.5t43 -207.5q0 -136 -62 -236.5t-171 -155.5t-250 -55zM464 -511v24
q89 0 136.5 34t47.5 87q0 50 -27 76t-73 34.5t-102 8.5l173 233h32l-114 -153q86 -3 154 -20t107.5 -51.5t39.5 -90.5q0 -50 -35.5 -91.5t-117.5 -66t-221 -24.5z" />
    <glyph glyph-name="scedilla" unicode="&#x15f;" horiz-adv-x="895" 
d="M89 -20v303h26q19 -81 68.5 -143.5t120 -97.5t153.5 -35q60 0 109.5 17t79.5 52t30 89q0 58 -40.5 91.5t-104.5 56t-136 46t-136.5 58t-105 92.5t-40.5 152q0 73 34.5 136t100 102t160.5 39q70 0 127 -23t100 -59l99 84h22v-280h-25q-17 64 -59.5 121.5t-108.5 94
t-154 36.5q-51 0 -91 -16.5t-63.5 -46t-23.5 -69.5q0 -54 42.5 -87t109.5 -57t141.5 -48.5t141.5 -60.5t109 -93t42 -147q0 -98 -48.5 -166.5t-128 -104.5t-171.5 -36q-75 0 -140 24.5t-116 68.5l-102 -93h-22zM293 -506v24q89 0 136.5 34t47.5 87q0 50 -27 76t-73 34.5
t-102 8.5l173 233h32l-114 -153q86 -3 154 -20t107.5 -51.5t39.5 -90.5q0 -50 -35.5 -91.5t-117.5 -66t-221 -24.5z" />
    <glyph glyph-name="Scaron" unicode="&#x160;" horiz-adv-x="1177" 
d="M617 -29q-120 0 -207.5 38t-147.5 103l-144 -132h-22v446h25q23 -85 62 -162t97 -137.5t138 -95t185 -34.5q100 0 172.5 36.5t112.5 103.5t40 159q0 84 -44 141.5t-115.5 99t-157.5 78t-172 78t-157.5 98.5t-115 139.5t-43.5 201.5t60 206.5t158 134.5t214 47
q94 0 172.5 -30t138.5 -90l140 120h21v-435h-24q-32 132 -92.5 223t-146 137.5t-194.5 46.5q-129 0 -196.5 -66t-67.5 -172q0 -76 43 -128.5t114 -92.5t155.5 -77t169.5 -81t155.5 -104t113.5 -145.5t43 -207.5q0 -136 -62 -236.5t-171 -155.5t-250 -55zM498 1700l-232 250
l13 12l296 -142l295 142l14 -12l-232 -250h-154z" />
    <glyph glyph-name="scaron" unicode="&#x161;" horiz-adv-x="895" 
d="M89 -20v303h26q19 -81 68.5 -143.5t120 -97.5t153.5 -35q60 0 109.5 17t79.5 52t30 89q0 58 -40.5 91.5t-104.5 56t-136 46t-136.5 58t-105 92.5t-40.5 152q0 73 34.5 136t100 102t160.5 39q70 0 127 -23t100 -59l99 84h22v-280h-25q-17 64 -59.5 121.5t-108.5 94
t-154 36.5q-51 0 -91 -16.5t-63.5 -46t-23.5 -69.5q0 -54 42.5 -87t109.5 -57t141.5 -48.5t141.5 -60.5t109 -93t42 -147q0 -98 -48.5 -166.5t-128 -104.5t-171.5 -36q-75 0 -140 24.5t-116 68.5l-102 -93h-22zM367 1120l-232 250l13 12l296 -142l295 142l14 -12l-232 -250
h-154z" />
    <glyph glyph-name="uni0162" unicode="&#x162;" horiz-adv-x="1353" 
d="M326 0v25h220v1450h-155q-83 0 -141 -33t-95.5 -93t-57.5 -141t-27 -176h-25v468h1264v-468h-25q-6 95 -26.5 176t-57.5 141t-95.5 93t-141.5 33h-155v-1450h220v-25h-702zM515 -494v24q89 0 136.5 34t47.5 87q0 50 -27 76t-73 34.5t-102 8.5l173 233h32l-114 -153
q86 -3 154 -20t107.5 -51.5t39.5 -90.5q0 -50 -35.5 -91.5t-117.5 -66t-221 -24.5z" />
    <glyph glyph-name="uni0163" unicode="&#x163;" horiz-adv-x="712" 
d="M393 -14q-91 0 -137.5 34t-63 89t-16.5 119v892q59 0 128 17t112 43v-1003q0 -75 18 -104t59 -29q48 0 97 44t78 112l22 -11q-38 -90 -111.5 -146.5t-185.5 -56.5zM35 895v25h595v-25h-595zM229 -494v24q89 0 136.5 34t47.5 87q0 50 -27 76t-73 34.5t-102 8.5l173 233h32
l-114 -153q86 -3 154 -20t107.5 -51.5t39.5 -90.5q0 -50 -35.5 -91.5t-117.5 -66t-221 -24.5z" />
    <glyph glyph-name="Tcaron" unicode="&#x164;" horiz-adv-x="1353" 
d="M326 0v25h220v1450h-155q-83 0 -141 -33t-95.5 -93t-57.5 -141t-27 -176h-25v468h1264v-468h-25q-6 95 -26.5 176t-57.5 141t-95.5 93t-141.5 33h-155v-1450h220v-25h-702zM605 1700l-232 250l13 12l296 -142l295 142l14 -12l-232 -250h-154z" />
    <glyph glyph-name="tcaron" unicode="&#x165;" horiz-adv-x="712" 
d="M393 -14q-91 0 -137.5 34t-63 89t-16.5 119v892q59 0 128 17t112 43v-1003q0 -75 18 -104t59 -29q48 0 97 44t78 112l22 -11q-38 -90 -111.5 -146.5t-185.5 -56.5zM35 895v25h595v-25h-595zM528 1081v23q70 0 126 28.5t93.5 78.5t52.5 115.5t1 138.5h8q2 -29 -16 -58.5
t-50.5 -48.5t-71.5 -19q-69 0 -104 39.5t-35 93.5q0 56 43 95t105 39q63 0 108.5 -53t45.5 -150q0 -84 -36.5 -157.5t-104.5 -119t-165 -45.5z" />
    <glyph glyph-name="Tbar" unicode="&#x166;" horiz-adv-x="1347" 
d="M344 713v24h669v-24h-669zM326 0v25h220v1450h-155q-83 0 -141 -33t-95.5 -93t-57.5 -141t-27 -176h-25v468h1264v-468h-25q-6 95 -26.5 176t-57.5 141t-95.5 93t-141.5 33h-155v-1450h220v-25h-702z" />
    <glyph glyph-name="tbar" unicode="&#x167;" horiz-adv-x="712" 
d="M34 581v24h599v-24h-599zM393 -14q-91 0 -137.5 34t-63 89t-16.5 119v892q59 0 127.5 17t112.5 43v-1003q0 -75 18 -104t59 -29q48 0 97 44t78 112l22 -11q-38 -90 -111.5 -146.5t-185.5 -56.5zM35 895v25h595v-25h-595z" />
    <glyph glyph-name="Utilde" unicode="&#x168;" horiz-adv-x="1451" 
d="M1403 1500v-25h-192v-1015q0 -247 -111.5 -368t-353.5 -121q-272 0 -398 115t-126 374v1015h-179v25h642v-25h-200v-995q0 -99 13 -185t47.5 -150.5t98 -101t164.5 -36.5q119 0 203.5 46.5t130 146.5t45.5 260v1015h-185v25h401zM956 1668q-57 0 -103 24t-86.5 55
t-82.5 55t-91 24q-51 0 -88 -30.5t-37 -95.5h-25q0 85 26.5 147.5t72.5 96.5t104 34q60 0 104.5 -24t82.5 -55t75 -55t81 -24q58 0 91.5 30.5t33.5 95.5h25q0 -95 -17.5 -156.5t-57.5 -91.5t-108 -30z" />
    <glyph glyph-name="utilde" unicode="&#x169;" horiz-adv-x="1221" 
d="M468 -20q-114 0 -175 39.5t-84 107.5t-23 155v613h-131v25h371v-619q0 -84 7 -143t30 -89.5t70 -30.5q75 0 126 42t81 108.5t43 142t13 142.5l17 5q0 -71 -13 -156.5t-48.5 -163.5t-104 -128t-179.5 -50zM796 0v895h-134v25h374v-895h130v-25h-370zM730 1088
q-57 0 -103 24t-86.5 55t-82.5 55t-91 24q-51 0 -88 -30.5t-37 -95.5h-25q0 85 26.5 147.5t72.5 96.5t104 34q60 0 104.5 -24t82.5 -55t75 -55t81 -24q58 0 91.5 30.5t33.5 95.5h25q0 -95 -17.5 -156.5t-57.5 -91.5t-108 -30z" />
    <glyph glyph-name="Umacron" unicode="&#x16a;" horiz-adv-x="1451" 
d="M1403 1500v-25h-192v-1015q0 -247 -111.5 -368t-353.5 -121q-272 0 -398 115t-126 374v1015h-179v25h642v-25h-200v-995q0 -99 13 -185t47.5 -150.5t98 -101t164.5 -36.5q119 0 203.5 46.5t130 146.5t45.5 260v1015h-185v25h401zM550 1700v25h480v-25h-480z" />
    <glyph glyph-name="umacron" unicode="&#x16b;" horiz-adv-x="1221" 
d="M468 -20q-114 0 -175 39.5t-84 107.5t-23 155v613h-131v25h371v-619q0 -84 7 -143t30 -89.5t70 -30.5q75 0 126 42t81 108.5t43 142t13 142.5l17 5q0 -71 -13 -156.5t-48.5 -163.5t-104 -128t-179.5 -50zM796 0v895h-134v25h374v-895h130v-25h-370zM324 1120v25h480v-25
h-480z" />
    <glyph glyph-name="Ubreve" unicode="&#x16c;" horiz-adv-x="1451" 
d="M1403 1500v-25h-192v-1015q0 -247 -111.5 -368t-353.5 -121q-272 0 -398 115t-126 374v1015h-179v25h642v-25h-200v-995q0 -99 13 -185t47.5 -150.5t98 -101t164.5 -36.5q119 0 203.5 46.5t130 146.5t45.5 260v1015h-185v25h401zM790 1680q-87 0 -138 39.5t-72.5 106
t-21.5 148.5h18q0 -48 31 -78t80 -44t103 -14t103 14t80 44t31 78h18q0 -82 -21.5 -148.5t-72.5 -106t-138 -39.5z" />
    <glyph glyph-name="ubreve" unicode="&#x16d;" horiz-adv-x="1221" 
d="M468 -20q-114 0 -175 39.5t-84 107.5t-23 155v613h-131v25h371v-619q0 -84 7 -143t30 -89.5t70 -30.5q75 0 126 42t81 108.5t43 142t13 142.5l17 5q0 -71 -13 -156.5t-48.5 -163.5t-104 -128t-179.5 -50zM796 0v895h-134v25h374v-895h130v-25h-370zM565 1100
q-87 0 -138 39.5t-72.5 106t-21.5 148.5h18q0 -48 31 -78t80 -44t103 -14t103 14t80 44t31 78h18q0 -82 -21.5 -148.5t-72.5 -106t-138 -39.5z" />
    <glyph glyph-name="Uring" unicode="&#x16e;" horiz-adv-x="1451" 
d="M1403 1500v-25h-192v-1015q0 -247 -111.5 -368t-353.5 -121q-272 0 -398 115t-126 374v1015h-179v25h642v-25h-200v-995q0 -99 13 -185t47.5 -150.5t98 -101t164.5 -36.5q119 0 203.5 46.5t130 146.5t45.5 260v1015h-185v25h401zM790 1680q-85 0 -138.5 52t-53.5 128
q0 77 53.5 128.5t138.5 51.5q86 0 139 -51.5t53 -128.5q0 -76 -53 -128t-139 -52zM790 1705q34 0 53.5 20.5t28 55t8.5 79.5q0 44 -8.5 79.5t-28 55.5t-53.5 20t-53.5 -20t-28 -55.5t-8.5 -79.5q0 -45 8.5 -79.5t28 -55t53.5 -20.5z" />
    <glyph glyph-name="uring" unicode="&#x16f;" horiz-adv-x="1221" 
d="M468 -20q-114 0 -175 39.5t-84 107.5t-23 155v613h-131v25h371v-619q0 -84 7 -143t30 -89.5t70 -30.5q75 0 126 42t81 108.5t43 142t13 142.5l17 5q0 -71 -13 -156.5t-48.5 -163.5t-104 -128t-179.5 -50zM796 0v895h-134v25h374v-895h130v-25h-370zM564 1100
q-85 0 -138.5 52t-53.5 128q0 77 53.5 128.5t138.5 51.5q86 0 139 -51.5t53 -128.5q0 -76 -53 -128t-139 -52zM564 1125q34 0 53.5 20.5t28 55t8.5 79.5q0 44 -8.5 79.5t-28 55.5t-53.5 20t-53.5 -20t-28 -55.5t-8.5 -79.5q0 -45 8.5 -79.5t28 -55t53.5 -20.5z" />
    <glyph glyph-name="Uhungarumlaut" unicode="&#x170;" horiz-adv-x="1451" 
d="M1403 1500v-25h-192v-1015q0 -247 -111.5 -368t-353.5 -121q-272 0 -398 115t-126 374v1015h-179v25h642v-25h-200v-995q0 -99 13 -185t47.5 -150.5t98 -101t164.5 -36.5q119 0 203.5 46.5t130 146.5t45.5 260v1015h-185v25h401zM491 1681l-14 17l181 236q25 37 59 45
t65 -4t46 -35q16 -26 13.5 -58.5t-22.5 -59t-55 -36.5zM931 1681l-14 17l181 236q25 37 59 45t65 -4t46 -35q16 -26 13.5 -58.5t-22.5 -59t-55 -36.5z" />
    <glyph glyph-name="uhungarumlaut" unicode="&#x171;" horiz-adv-x="1221" 
d="M468 -20q-114 0 -175 39.5t-84 107.5t-23 155v613h-131v25h371v-619q0 -84 7 -143t30 -89.5t70 -30.5q75 0 126 42t81 108.5t43 142t13 142.5l17 5q0 -71 -13 -156.5t-48.5 -163.5t-104 -128t-179.5 -50zM796 0v895h-134v25h374v-895h130v-25h-370zM265 1101l-14 17
l181 236q25 37 59 45t65 -4t46 -35q16 -26 13.5 -58.5t-22.5 -59t-55 -36.5zM705 1101l-14 17l181 236q25 37 59 45t65 -4t46 -35q16 -26 13.5 -58.5t-22.5 -59t-55 -36.5z" />
    <glyph glyph-name="Uogonek" unicode="&#x172;" horiz-adv-x="1451" 
d="M1403 1500v-25h-192v-1015q0 -247 -111.5 -368t-353.5 -121q-272 0 -398 115t-126 374v1015h-179v25h642v-25h-200v-995q0 -99 13 -185t47.5 -150.5t98 -101t164.5 -36.5q119 0 203.5 46.5t130 146.5t45.5 260v1015h-185v25h401zM906 -435q-60 0 -113 18t-87 56t-34 98
t29.5 108t77.5 85.5t104 64t109 42.5l8 -16q-24 -14 -45.5 -47t-35 -82t-13.5 -110q0 -72 28.5 -115t74.5 -43q45 0 72 28.5t50 68.5l17 -11q-15 -28 -41 -62t-73.5 -58.5t-127.5 -24.5z" />
    <glyph glyph-name="uogonek" unicode="&#x173;" horiz-adv-x="1221" 
d="M468 -20q-114 0 -175 39.5t-84 107.5t-23 155v613h-131v25h371v-619q0 -84 7 -143t30 -89.5t70 -30.5q75 0 126 42t81 108.5t43 142t13 142.5l17 5q0 -71 -13 -156.5t-48.5 -163.5t-104 -128t-179.5 -50zM796 0v895h-134v25h374v-895h130v-25h-370zM907 -435
q-60 0 -113 18t-87 56t-34 98t29.5 108t77.5 85.5t104 64t109 42.5l8 -16q-24 -14 -45.5 -47t-35 -82t-13.5 -110q0 -72 28.5 -115t74.5 -43q45 0 72 28.5t50 68.5l17 -11q-15 -28 -41 -62t-73.5 -58.5t-127.5 -24.5z" />
    <glyph glyph-name="Wcircumflex" unicode="&#x174;" horiz-adv-x="2125" 
d="M717 -20l-512 1495h-174v25h1572v-25h-521l390 -1157l423 1157h-198v25h398v-25h-172l-546 -1495h-56l-512 1495h-313l393 -1157l188 507l14 -42l-299 -803h-75zM1238 934l-22 18l193 539l27 -5zM843 1704l-12 14l232 250h154l232 -250l-13 -14l-297 144z" />
    <glyph glyph-name="wcircumflex" unicode="&#x175;" horiz-adv-x="1604" 
d="M1576 920v-25h-167l-306 -915h-68l-248 696l-288 -696h-69l-292 915h-120v25h528v-25h-162l195 -653l289 698h103l204 -659l206 614h-194v25h389zM511 1124l-12 14l232 250h154l232 -250l-13 -14l-297 144z" />
    <glyph glyph-name="Ycircumflex" unicode="&#x176;" horiz-adv-x="1469" 
d="M441 0v25h180v695l-448 755h-143v25h652v-25h-205l393 -685l370 685h-220v25h416v-25h-167l-386 -712v-738h201v-25h-643zM498 1704l-12 14l232 250h154l232 -250l-13 -14l-297 144z" />
    <glyph glyph-name="ycircumflex" unicode="&#x177;" horiz-adv-x="1161" 
d="M403 895l324 -655l-133 -285l-472 940h-110v25h567v-25h-176zM1164 920v-25h-138l-568 -1280q-28 -62 -65.5 -100t-101.5 -38q-33 0 -65 14.5t-53.5 44t-21.5 74.5q0 41 19 72t51 49t71 18q35 0 66 -18t50 -49t18 -71l570 1284h-179v25h347zM339 1124l-12 14l232 250h154
l232 -250l-13 -14l-297 144z" />
    <glyph glyph-name="Ydieresis" unicode="&#x178;" horiz-adv-x="1469" 
d="M441 0v25h180v695l-448 755h-143v25h652v-25h-205l393 -685l370 685h-220v25h416v-25h-167l-386 -712v-738h201v-25h-643zM970 1687q-44 0 -75.5 31.5t-31.5 76.5q0 44 31.5 76t75.5 32q45 0 76.5 -32t31.5 -76q0 -45 -31.5 -76.5t-76.5 -31.5zM618 1687
q-45 0 -76.5 31.5t-31.5 76.5q0 44 31.5 76t76.5 32t76.5 -32t31.5 -76q0 -45 -31.5 -76.5t-76.5 -31.5z" />
    <glyph glyph-name="Zacute" unicode="&#x179;" horiz-adv-x="1196" 
d="M34 0v25l778 1450h-330q-136 0 -215 -38.5t-116.5 -113t-49.5 -181.5h-24v358h1029v-25l-778 -1450h389q137 0 215.5 40.5t116 123t49.5 209.5h25v-398h-1089zM487 1682l-14 17l181 236q25 37 59 45t65 -4t46 -35q16 -26 13.5 -58.5t-22.5 -59t-55 -36.5z" />
    <glyph glyph-name="zacute" unicode="&#x17a;" horiz-adv-x="954" 
d="M46 0v25l545 870h-166q-102 0 -164.5 -37.5t-94 -109t-40.5 -172.5h-24v344h764v-25l-547 -870h210q93 0 156.5 18.5t102.5 59.5t59 106.5t27 158.5h24v-368h-852zM407 1102l-14 17l181 236q25 37 59 45t65 -4t46 -35q16 -26 13.5 -58.5t-22.5 -59t-55 -36.5z" />
    <glyph glyph-name="Zdotaccent" unicode="&#x17b;" horiz-adv-x="1196" 
d="M34 0v25l778 1450h-330q-136 0 -215 -38.5t-116.5 -113t-49.5 -181.5h-24v358h1029v-25l-778 -1450h389q137 0 215.5 40.5t116 123t49.5 209.5h25v-398h-1089zM568 1798q-63 0 -106.5 43.5t-43.5 106.5t43.5 106.5t106.5 43.5t106.5 -43.5t43.5 -106.5t-43.5 -106.5
t-106.5 -43.5z" />
    <glyph glyph-name="zdotaccent" unicode="&#x17c;" horiz-adv-x="954" 
d="M46 0v25l545 870h-166q-102 0 -164.5 -37.5t-94 -109t-40.5 -172.5h-24v344h764v-25l-547 -870h210q93 0 156.5 18.5t102.5 59.5t59 106.5t27 158.5h24v-368h-852zM489 1218q-63 0 -106.5 43.5t-43.5 106.5t43.5 106.5t106.5 43.5t106.5 -43.5t43.5 -106.5t-43.5 -106.5
t-106.5 -43.5z" />
    <glyph glyph-name="Zcaron" unicode="&#x17d;" horiz-adv-x="1196" 
d="M34 0v25l778 1450h-330q-136 0 -215 -38.5t-116.5 -113t-49.5 -181.5h-24v358h1029v-25l-778 -1450h389q137 0 215.5 40.5t116 123t49.5 209.5h25v-398h-1089zM491 1700l-232 250l13 12l296 -142l295 142l14 -12l-232 -250h-154z" />
    <glyph glyph-name="zcaron" unicode="&#x17e;" horiz-adv-x="954" 
d="M46 0v25l545 870h-166q-102 0 -164.5 -37.5t-94 -109t-40.5 -172.5h-24v344h764v-25l-547 -870h210q93 0 156.5 18.5t102.5 59.5t59 106.5t27 158.5h24v-368h-852zM412 1120l-232 250l13 12l296 -142l295 142l14 -12l-232 -250h-154z" />
    <glyph glyph-name="longs" unicode="&#x17f;" horiz-adv-x="803" 
d="M665 1520q85 0 144 -33.5t89.5 -83t30.5 -99.5q0 -72 -43.5 -110t-98.5 -38q-31 0 -63 13.5t-53.5 43t-21.5 76.5q0 44 21 74.5t53 46t65 14.5q30 -1 57.5 -18.5t36.5 -46.5q-11 38 -40.5 68.5t-72.5 49t-95 18.5q-82 0 -131 -51t-70.5 -144t-21.5 -220v-1055h230v-25
h-634v25h170v998q0 137 53.5 250t153.5 180t241 67z" />
    <glyph glyph-name="florin" unicode="&#x192;" horiz-adv-x="751" 
d="M-118 -520q-87 0 -148.5 33t-94 83t-32.5 101q0 48 20 81.5t52.5 51t69.5 17.5q33 0 65.5 -14.5t54.5 -44.5t22 -78q0 -42 -21 -71t-52.5 -43t-64.5 -14q-29 0 -62.5 14t-57.5 39.5t-24 61.5h23q0 -37 18.5 -71.5t51.5 -62t79.5 -43t103.5 -15.5q66 0 116 53t81.5 146.5
t44.5 215.5l113 1103q14 134 80 247t176 181.5t255 68.5q87 0 145.5 -32.5t88.5 -81.5t30 -99q0 -72 -42 -113t-99 -41q-33 0 -66 14.5t-56 44.5t-23 78q0 42 21.5 71t53.5 43t63 14q29 0 63 -13t58.5 -38t24.5 -60h-23q0 36 -17 69.5t-48 60t-74 42.5t-97 16
q-75 0 -128 -53t-85.5 -146t-46.5 -216l-122 -1103q-15 -132 -75.5 -245.5t-165 -182.5t-249.5 -69zM63 895v25h701v-25h-701z" />
    <glyph glyph-name="uni0212" unicode="&#x212;" horiz-adv-x="1469" 
d="M405 762v15h294q96 0 161.5 39t99.5 116.5t34 192.5t-34 193t-99.5 117.5t-161.5 39.5h-654v25h684q160 0 281 -39.5t188 -122.5t67 -213t-63 -210t-183 -116.5t-290 -36.5h-324zM45 0v25h679v-25h-679zM253 13v1472h262v-1472h-262zM1219 -13q-96 0 -150 32t-79.5 87
t-32.5 123t-8 140.5t-7 141t-29 123t-74.5 86.5t-143.5 32h-290v14h402q142 0 225 -40t124 -106.5t54.5 -145.5t14 -158.5t3 -146t21.5 -106.5t71 -40q31 0 58.5 7t47.5 17l9 -23q-24 -13 -81 -25t-135 -12zM432 1680q0 82 22 149t72.5 106t137.5 39t138 -39t72.5 -106
t21.5 -149h-18q0 48 -31 78t-80 44t-103 14t-103 -14t-80 -44t-31 -78h-18z" />
    <glyph glyph-name="uni0213" unicode="&#x213;" horiz-adv-x="937" 
d="M409 434q0 97 15 187.5t49 162t89 113.5t135 42q63 0 108 -26.5t68 -69t23 -90.5q0 -62 -40 -107t-105 -45q-67 0 -107.5 39.5t-40.5 95.5q0 67 43 106.5t104 39.5q41 0 74 -18.5t51.5 -47.5t18.5 -63h-24q0 42 -21.5 79t-61 59.5t-93.5 22.5q-69 0 -120 -39t-84.5 -107
t-49.5 -154.5t-16 -179.5h-15zM424 920v-895h144v-25h-513v25h131v870h-131v25h369zM288 1100q0 82 22 149t72.5 106t137.5 39t138 -39t72.5 -106t21.5 -149h-18q0 48 -31 78t-80 44t-103 14t-103 -14t-80 -44t-31 -78h-18z" />
    <glyph glyph-name="uni0218" unicode="&#x218;" horiz-adv-x="1177" 
d="M617 -29q-120 0 -207.5 38t-147.5 103l-144 -132h-22v446h25q23 -85 62 -162t97 -137.5t138 -95t185 -34.5q100 0 172.5 36.5t112.5 103.5t40 159q0 84 -44 141.5t-115.5 99t-157.5 78t-172 78t-157.5 98.5t-115 139.5t-43.5 201.5t60 206.5t158 134.5t214 47
q94 0 172.5 -30t138.5 -90l140 120h21v-435h-24q-32 132 -92.5 223t-146 137.5t-194.5 46.5q-129 0 -196.5 -66t-67.5 -172q0 -76 43 -128.5t114 -92.5t155.5 -77t169.5 -81t155.5 -104t113.5 -145.5t43 -207.5q0 -136 -62 -236.5t-171 -155.5t-250 -55zM495 -685v21
q84 0 146.5 43.5t91.5 116.5t14 163h7q2 -28 -15.5 -55t-47 -44.5t-65.5 -17.5q-63 0 -95.5 36.5t-32.5 86.5q0 34 18.5 62t49.5 44.5t68 16.5q58 0 99.5 -48.5t41.5 -134.5q0 -77 -33.5 -143t-96 -106.5t-150.5 -40.5z" />
    <glyph glyph-name="uni0219" unicode="&#x219;" horiz-adv-x="895" 
d="M89 -20v303h26q19 -81 68.5 -143.5t120 -97.5t153.5 -35q60 0 109.5 17t79.5 52t30 89q0 58 -40.5 91.5t-104.5 56t-136 46t-136.5 58t-105 92.5t-40.5 152q0 73 34.5 136t100 102t160.5 39q70 0 127 -23t100 -59l99 84h22v-280h-25q-17 64 -59.5 121.5t-108.5 94
t-154 36.5q-51 0 -91 -16.5t-63.5 -46t-23.5 -69.5q0 -54 42.5 -87t109.5 -57t141.5 -48.5t141.5 -60.5t109 -93t42 -147q0 -98 -48.5 -166.5t-128 -104.5t-171.5 -36q-75 0 -140 24.5t-116 68.5l-102 -93h-22zM324 -680v21q84 0 146.5 43.5t91.5 116.5t14 163h7
q2 -28 -15.5 -55t-47 -44.5t-65.5 -17.5q-63 0 -95.5 36.5t-32.5 86.5q0 34 18.5 62t49.5 44.5t68 16.5q58 0 99.5 -48.5t41.5 -134.5q0 -77 -33.5 -143t-96 -106.5t-150.5 -40.5z" />
    <glyph glyph-name="uni021A" unicode="&#x21a;" horiz-adv-x="1353" 
d="M326 0v25h220v1450h-155q-83 0 -141 -33t-95.5 -93t-57.5 -141t-27 -176h-25v468h1264v-468h-25q-6 95 -26.5 176t-57.5 141t-95.5 93t-141.5 33h-155v-1450h220v-25h-702zM546 -668v21q84 0 146.5 43.5t91.5 116.5t14 163h7q2 -28 -15.5 -55t-47 -44.5t-65.5 -17.5
q-63 0 -95.5 36.5t-32.5 86.5q0 34 18.5 62t49.5 44.5t68 16.5q58 0 99.5 -48.5t41.5 -134.5q0 -77 -33.5 -143t-96 -106.5t-150.5 -40.5z" />
    <glyph glyph-name="uni021B" unicode="&#x21b;" horiz-adv-x="712" 
d="M393 -14q-91 0 -137.5 34t-63 89t-16.5 119v892q59 0 128 17t112 43v-1003q0 -75 18 -104t59 -29q48 0 97 44t78 112l22 -11q-38 -90 -111.5 -146.5t-185.5 -56.5zM35 895v25h595v-25h-595zM260 -668v21q84 0 146.5 43.5t91.5 116.5t14 163h7q2 -28 -15.5 -55t-47 -44.5
t-65.5 -17.5q-63 0 -95.5 36.5t-32.5 86.5q0 34 18.5 62t49.5 44.5t68 16.5q58 0 99.5 -48.5t41.5 -134.5q0 -77 -33.5 -143t-96 -106.5t-150.5 -40.5z" />
    <glyph glyph-name="uni0237" unicode="&#x237;" horiz-adv-x="638" 
d="M80 -520q-86 0 -148.5 31.5t-96.5 84t-34 114.5q0 69 42 108.5t102 39.5q34 0 66 -15.5t53.5 -45.5t21.5 -74q0 -51 -39 -92t-103 -41q-38 0 -70 16.5t-51.5 43.5t-19.5 60h23q0 -57 32 -103.5t86 -74t122 -27.5q70 0 104.5 47t46.5 125.5t12 173.5v190v854h-171v25h410
v-943q0 -98 -24 -187.5t-72.5 -159t-121 -110t-170.5 -40.5z" />
    <glyph glyph-name="circumflex" unicode="&#x2c6;" horiz-adv-x="1000" 
d="M203 1704l-12 14l232 250h154l232 -250l-13 -14l-297 144z" />
    <glyph glyph-name="caron" unicode="&#x2c7;" horiz-adv-x="1000" 
d="M423 1700l-232 250l13 12l296 -142l295 142l14 -12l-232 -250h-154z" />
    <glyph glyph-name="breve" unicode="&#x2d8;" horiz-adv-x="1000" 
d="M500 1680q-87 0 -138 39.5t-72.5 106t-21.5 148.5h18q0 -48 31 -78t80 -44t103 -14t103 14t80 44t31 78h18q0 -82 -21.5 -148.5t-72.5 -106t-138 -39.5z" />
    <glyph glyph-name="dotaccent" unicode="&#x2d9;" horiz-adv-x="1000" 
d="M501 1218q-63 0 -106.5 43.5t-43.5 106.5t43.5 106.5t106.5 43.5t106.5 -43.5t43.5 -106.5t-43.5 -106.5t-106.5 -43.5z" />
    <glyph glyph-name="ring" unicode="&#x2da;" horiz-adv-x="1000" 
d="M500 1680q-85 0 -138.5 52t-53.5 128q0 77 53.5 128.5t138.5 51.5q86 0 139 -51.5t53 -128.5q0 -76 -53 -128t-139 -52zM500 1705q34 0 53.5 20.5t28 55t8.5 79.5q0 44 -8.5 79.5t-28 55.5t-53.5 20t-53.5 -20t-28 -55.5t-8.5 -79.5q0 -45 8.5 -79.5t28 -55t53.5 -20.5z
" />
    <glyph glyph-name="ogonek" unicode="&#x2db;" horiz-adv-x="1000" 
d="M496 -391q-60 0 -113 18t-87 56t-34 98t29.5 108t77.5 85.5t104 64t109 42.5l8 -16q-24 -14 -45.5 -47t-35 -82t-13.5 -110q0 -72 28.5 -115t74.5 -43q45 0 72 28.5t50 68.5l17 -11q-15 -28 -41 -62t-73.5 -58.5t-127.5 -24.5z" />
    <glyph glyph-name="tilde" unicode="&#x2dc;" horiz-adv-x="1000" 
d="M665 1668q-57 0 -103 24t-86.5 55t-82.5 55t-91 24q-51 0 -88 -30.5t-37 -95.5h-25q0 85 26.5 147.5t72.5 96.5t104 34q60 0 104.5 -24t82.5 -55t75 -55t81 -24q58 0 91.5 30.5t33.5 95.5h25q0 -95 -17.5 -156.5t-57.5 -91.5t-108 -30z" />
    <glyph glyph-name="hungarumlaut" unicode="&#x2dd;" horiz-adv-x="1000" 
d="M112 1682l-14 17l181 236q25 37 59 45t65 -4t46 -35q16 -26 13.5 -58.5t-22.5 -59t-55 -36.5zM552 1682l-14 17l181 236q25 37 59 45t65 -4t46 -35q16 -26 13.5 -58.5t-22.5 -59t-55 -36.5z" />
    <glyph glyph-name="gravecomb" unicode="&#x300;" horiz-adv-x="0" 
d="M669 1682l-273 105q-36 10 -56 36.5t-22.5 59t14.5 58.5q15 23 45.5 35t65 4t59.5 -45l181 -236z" />
    <glyph glyph-name="acutecomb" unicode="&#x301;" horiz-adv-x="0" 
d="M332 1682l-14 17l181 236q25 37 59 45t65 -4t46 -35q16 -26 13.5 -58.5t-22.5 -59t-55 -36.5z" />
    <glyph glyph-name="uni0302" unicode="&#x302;" horiz-adv-x="0" 
d="M203 1704l-12 14l232 250h154l232 -250l-13 -14l-297 144z" />
    <glyph glyph-name="tildecomb" unicode="&#x303;" horiz-adv-x="0" 
d="M665 1668q-57 0 -103 24t-86.5 55t-82.5 55t-91 24q-51 0 -88 -30.5t-37 -95.5h-25q0 85 26.5 147.5t72.5 96.5t104 34q60 0 104.5 -24t82.5 -55t75 -55t81 -24q58 0 91.5 30.5t33.5 95.5h25q0 -95 -17.5 -156.5t-57.5 -91.5t-108 -30z" />
    <glyph glyph-name="uni0304" unicode="&#x304;" horiz-adv-x="0" 
d="M260 1700v25h480v-25h-480z" />
    <glyph glyph-name="uni0306" unicode="&#x306;" horiz-adv-x="0" 
d="M500 1680q-87 0 -138 39.5t-72.5 106t-21.5 148.5h18q0 -48 31 -78t80 -44t103 -14t103 14t80 44t31 78h18q0 -82 -21.5 -148.5t-72.5 -106t-138 -39.5z" />
    <glyph glyph-name="uni0307" unicode="&#x307;" horiz-adv-x="0" 
d="M501 1218q-63 0 -106.5 43.5t-43.5 106.5t43.5 106.5t106.5 43.5t106.5 -43.5t43.5 -106.5t-43.5 -106.5t-106.5 -43.5z" />
    <glyph glyph-name="uni0308" unicode="&#x308;" horiz-adv-x="0" 
d="M676 1687q-44 0 -75.5 31.5t-31.5 76.5q0 44 31.5 76t75.5 32q45 0 76.5 -32t31.5 -76q0 -45 -31.5 -76.5t-76.5 -31.5zM324 1687q-45 0 -76.5 31.5t-31.5 76.5q0 44 31.5 76t76.5 32t76.5 -32t31.5 -76q0 -45 -31.5 -76.5t-76.5 -31.5z" />
    <glyph glyph-name="uni030A" unicode="&#x30a;" horiz-adv-x="0" 
d="M500 1680q-85 0 -138.5 52t-53.5 128q0 77 53.5 128.5t138.5 51.5q86 0 139 -51.5t53 -128.5q0 -76 -53 -128t-139 -52zM500 1705q34 0 53.5 20.5t28 55t8.5 79.5q0 44 -8.5 79.5t-28 55.5t-53.5 20t-53.5 -20t-28 -55.5t-8.5 -79.5q0 -45 8.5 -79.5t28 -55t53.5 -20.5z
" />
    <glyph glyph-name="uni030B" unicode="&#x30b;" horiz-adv-x="0" 
d="M112 1682l-14 17l181 236q25 37 59 45t65 -4t46 -35q16 -26 13.5 -58.5t-22.5 -59t-55 -36.5zM552 1682l-14 17l181 236q25 37 59 45t65 -4t46 -35q16 -26 13.5 -58.5t-22.5 -59t-55 -36.5z" />
    <glyph glyph-name="uni030C" unicode="&#x30c;" horiz-adv-x="0" 
d="M423 1700l-232 250l13 12l296 -142l295 142l14 -12l-232 -250h-154z" />
    <glyph glyph-name="uni0311" unicode="&#x311;" horiz-adv-x="0" 
d="M268 1680q0 82 22 149t72.5 106t137.5 39t138 -39t72.5 -106t21.5 -149h-18q0 48 -31 78t-80 44t-103 14t-103 -14t-80 -44t-31 -78h-18z" />
    <glyph glyph-name="uni0312" unicode="&#x312;" horiz-adv-x="0" 
d="M502 1109q-58 0 -99.5 48t-41.5 135q0 77 33.5 143t96 106.5t149.5 40.5v-21q-83 0 -145.5 -43.5t-91.5 -116.5t-14 -163h-7q-2 28 15 55t47 44.5t66 17.5q63 0 95 -36.5t32 -86.5q0 -33 -18 -61.5t-48.5 -45t-68.5 -16.5z" />
    <glyph glyph-name="dotbelowcomb" unicode="&#x323;" horiz-adv-x="0" 
d="M501 -456q-63 0 -106.5 44t-43.5 107t43.5 106.5t106.5 43.5t106.5 -43.5t43.5 -106.5t-43.5 -107t-106.5 -44z" />
    <glyph glyph-name="uni0326" unicode="&#x326;" horiz-adv-x="0" 
d="M360 -668v21q84 0 146.5 43.5t91.5 116.5t14 163h7q2 -28 -15.5 -55t-47 -44.5t-65.5 -17.5q-63 0 -95.5 36.5t-32.5 86.5q0 34 18.5 62t49.5 44.5t68 16.5q58 0 99.5 -48.5t41.5 -134.5q0 -77 -33.5 -143t-96 -106.5t-150.5 -40.5z" />
    <glyph glyph-name="uni0327" unicode="&#x327;" horiz-adv-x="0" 
d="M323 -492v24q89 0 136.5 34t47.5 87q0 50 -27 76t-73 34.5t-102 8.5l173 233h32l-114 -153q86 -3 154 -20t107.5 -51.5t39.5 -90.5q0 -50 -35.5 -91.5t-117.5 -66t-221 -24.5z" />
    <glyph glyph-name="uni0328" unicode="&#x328;" horiz-adv-x="0" 
d="M496 -391q-60 0 -113 18t-87 56t-34 98t29.5 108t77.5 85.5t104 64t109 42.5l8 -16q-24 -14 -45.5 -47t-35 -82t-13.5 -110q0 -72 28.5 -115t74.5 -43q45 0 72 28.5t50 68.5l17 -11q-15 -28 -41 -62t-73.5 -58.5t-127.5 -24.5z" />
    <glyph glyph-name="uni0394" unicode="&#x394;" horiz-adv-x="1300" 
d="M75 0l542 1529h93l530 -1529h-303l-404 1219l-429 -1219h-29zM92 0v25h1044v-25h-1044z" />
    <glyph glyph-name="uni03A9" unicode="&#x3a9;" horiz-adv-x="1552" 
d="M626 336q-90 19 -179.5 66t-162.5 120t-117.5 172t-44.5 221q0 188 79.5 323.5t227 208.5t347.5 73q201 0 348 -73t227 -208.5t80 -323.5q0 -122 -44.5 -219.5t-117.5 -169t-162 -117t-180 -64.5v23q77 33 128 112.5t76.5 191.5t25.5 243q0 117 -16.5 222.5t-58.5 186.5
t-116.5 127t-189.5 46t-189.5 -46t-116 -127t-58 -186.5t-16.5 -222.5q0 -131 25.5 -245t76.5 -196t128 -115v-23zM172 0v360h25q0 -70 39 -103.5t116 -33.5h250v127l24 -2v-348h-454zM927 0v358l24 1v-136h250q77 0 116 33.5t39 103.5h25v-360h-454z" />
    <glyph glyph-name="uni03BC" unicode="&#x3bc;" horiz-adv-x="1221" 
d="M1036 920v-895h130v-25h-370v321q-14 -83 -48.5 -161t-101 -129t-178.5 -51q-123 0 -181 49.5t-76 129.5v-401q0 -77 33 -131t88 -84t118 -37q-29 14 -47.5 54.5t-18.5 82.5q0 57 41.5 99t99.5 42q59 0 100 -42.5t41 -106.5q0 -65 -45.5 -110t-139.5 -45q-75 0 -142.5 32
t-110 94t-42.5 152v1137h-131v25h371v-619q0 -84 7 -143t30 -89.5t70 -30.5q75 0 126 42t81 108.5t43 142t13 142.5v422h-134v25h374z" />
    <glyph glyph-name="pi" unicode="&#x3c0;" horiz-adv-x="1221" 
d="M82 530v390h1030v-240h-1005v-150h-25zM232 -20q-70 0 -109 34.5t-39 85.5q0 41 20 67t51.5 45.5t67.5 42.5t67.5 59t51.5 95t20 150v225h112v-298q0 -237 -63.5 -371.5t-178.5 -134.5zM906 -20q-88 0 -151 42.5t-63 135.5v578h240v-562q0 -30 18 -52.5t57 -22.5
q37 0 67.5 26.5t59.5 91.5l18 -11q-34 -105 -92.5 -165.5t-153.5 -60.5z" />
    <glyph glyph-name="Wgrave" unicode="&#x1e80;" horiz-adv-x="2125" 
d="M717 -20l-512 1495h-174v25h1572v-25h-521l390 -1157l423 1157h-198v25h398v-25h-172l-546 -1495h-56l-512 1495h-313l393 -1157l188 507l14 -42l-299 -803h-75zM1238 934l-22 18l193 539l27 -5zM1219 1682l-273 105q-36 10 -56 36.5t-22.5 59t14.5 58.5q15 23 45.5 35
t65 4t59.5 -45l181 -236z" />
    <glyph glyph-name="wgrave" unicode="&#x1e81;" horiz-adv-x="1604" 
d="M1576 920v-25h-167l-306 -915h-68l-248 696l-288 -696h-69l-292 915h-120v25h528v-25h-162l195 -653l289 698h103l204 -659l206 614h-194v25h389zM888 1102l-273 105q-36 10 -56 36.5t-22.5 59t14.5 58.5q15 23 45.5 35t65 4t59.5 -45l181 -236z" />
    <glyph glyph-name="Wacute" unicode="&#x1e82;" horiz-adv-x="2125" 
d="M717 -20l-512 1495h-174v25h1572v-25h-521l390 -1157l423 1157h-198v25h398v-25h-172l-546 -1495h-56l-512 1495h-313l393 -1157l188 507l14 -42l-299 -803h-75zM1238 934l-22 18l193 539l27 -5zM1059 1682l-14 17l181 236q25 37 59 45t65 -4t46 -35q16 -26 13.5 -58.5
t-22.5 -59t-55 -36.5z" />
    <glyph glyph-name="wacute" unicode="&#x1e83;" horiz-adv-x="1604" 
d="M1576 920v-25h-167l-306 -915h-68l-248 696l-288 -696h-69l-292 915h-120v25h528v-25h-162l195 -653l289 698h103l204 -659l206 614h-194v25h389zM727 1102l-14 17l181 236q25 37 59 45t65 -4t46 -35q16 -26 13.5 -58.5t-22.5 -59t-55 -36.5z" />
    <glyph glyph-name="Wdieresis" unicode="&#x1e84;" horiz-adv-x="2125" 
d="M717 -20l-512 1495h-174v25h1572v-25h-521l390 -1157l423 1157h-198v25h398v-25h-172l-546 -1495h-56l-512 1495h-313l393 -1157l188 507l14 -42l-299 -803h-75zM1238 934l-22 18l193 539l27 -5zM1315 1687q-44 0 -75.5 31.5t-31.5 76.5q0 44 31.5 76t75.5 32
q45 0 76.5 -32t31.5 -76q0 -45 -31.5 -76.5t-76.5 -31.5zM963 1687q-45 0 -76.5 31.5t-31.5 76.5q0 44 31.5 76t76.5 32t76.5 -32t31.5 -76q0 -45 -31.5 -76.5t-76.5 -31.5z" />
    <glyph glyph-name="wdieresis" unicode="&#x1e85;" horiz-adv-x="1604" 
d="M1576 920v-25h-167l-306 -915h-68l-248 696l-288 -696h-69l-292 915h-120v25h528v-25h-162l195 -653l289 698h103l204 -659l206 614h-194v25h389zM983 1107q-44 0 -75.5 31.5t-31.5 76.5q0 44 31.5 76t75.5 32q45 0 76.5 -32t31.5 -76q0 -45 -31.5 -76.5t-76.5 -31.5z
M631 1107q-45 0 -76.5 31.5t-31.5 76.5q0 44 31.5 76t76.5 32t76.5 -32t31.5 -76q0 -45 -31.5 -76.5t-76.5 -31.5z" />
    <glyph glyph-name="uni1E86" unicode="&#x1e86;" horiz-adv-x="2125" 
d="M717 -20l-512 1495h-174v25h1572v-25h-521l390 -1157l423 1157h-198v25h398v-25h-172l-546 -1495h-56l-512 1495h-313l393 -1157l188 507l14 -42l-299 -803h-75zM1238 934l-22 18l193 539l27 -5zM1140 1798q-63 0 -106.5 43.5t-43.5 106.5t43.5 106.5t106.5 43.5
t106.5 -43.5t43.5 -106.5t-43.5 -106.5t-106.5 -43.5z" />
    <glyph glyph-name="uni1E87" unicode="&#x1e87;" horiz-adv-x="1604" 
d="M1576 920v-25h-167l-306 -915h-68l-248 696l-288 -696h-69l-292 915h-120v25h528v-25h-162l195 -653l289 698h103l204 -659l206 614h-194v25h389zM808 1218q-63 0 -106.5 43.5t-43.5 106.5t43.5 106.5t106.5 43.5t106.5 -43.5t43.5 -106.5t-43.5 -106.5t-106.5 -43.5z
" />
    <glyph glyph-name="uni1E88" unicode="&#x1e88;" horiz-adv-x="2125" 
d="M717 -20l-512 1495h-174v25h1572v-25h-521l390 -1157l423 1157h-198v25h398v-25h-172l-546 -1495h-56l-512 1495h-313l393 -1157l188 507l14 -42l-299 -803h-75zM1238 934l-22 18l193 539l27 -5zM1080 -456q-63 0 -106.5 44t-43.5 107t43.5 106.5t106.5 43.5t106.5 -43.5
t43.5 -106.5t-43.5 -107t-106.5 -44z" />
    <glyph glyph-name="uni1E89" unicode="&#x1e89;" horiz-adv-x="1604" 
d="M1576 920v-25h-167l-306 -915h-68l-248 696l-288 -696h-69l-292 915h-120v25h528v-25h-162l195 -653l289 698h103l204 -659l206 614h-194v25h389zM789 -456q-63 0 -106.5 44t-43.5 107t43.5 106.5t106.5 43.5t106.5 -43.5t43.5 -106.5t-43.5 -107t-106.5 -44z" />
    <glyph glyph-name="uni1E9E" unicode="&#x1e9e;" horiz-adv-x="1709" 
d="M210 0v882q0 156 60.5 275.5t168.5 200t252.5 121.5t312.5 41q154 0 268.5 -36t189.5 -84t108 -84l-421 -536q-40 13 -113.5 24.5t-147.5 16.5l477 593q-58 31 -147 55.5t-214 24.5q-139 0 -238.5 -47.5t-162.5 -133.5t-92 -201t-29 -251v-861h-272zM29 0v25h633v-25
h-633zM1099 -20q-150 0 -247.5 47.5t-146 121.5t-48.5 152q0 73 43.5 118.5t108.5 45.5q60 0 100 -40t40 -105q0 -40 -20.5 -71.5t-53 -50t-69.5 -18.5q-38 0 -71.5 17.5t-54.5 45t-21 58.5h23q0 -62 29.5 -115t80.5 -92t117 -61t139 -22q110 0 176.5 53.5t96 140.5
t29.5 187q0 49 -10.5 105t-38 109t-78.5 96t-133.5 69t-201.5 26v24q224 0 368.5 -33t226 -92t114 -136.5t32.5 -164.5q0 -102 -42.5 -179.5t-116.5 -130t-169.5 -79t-201.5 -26.5z" />
    <glyph glyph-name="Ygrave" unicode="&#x1ef2;" horiz-adv-x="1469" 
d="M441 0v25h180v695l-448 755h-143v25h652v-25h-205l393 -685l370 685h-220v25h416v-25h-167l-386 -712v-738h201v-25h-643zM875 1682l-273 105q-36 10 -56 36.5t-22.5 59t14.5 58.5q15 23 45.5 35t65 4t59.5 -45l181 -236z" />
    <glyph glyph-name="ygrave" unicode="&#x1ef3;" horiz-adv-x="1161" 
d="M403 895l324 -655l-133 -285l-472 940h-110v25h567v-25h-176zM1164 920v-25h-138l-568 -1280q-28 -62 -65.5 -100t-101.5 -38q-33 0 -65 14.5t-53.5 44t-21.5 74.5q0 41 19 72t51 49t71 18q35 0 66 -18t50 -49t18 -71l570 1284h-179v25h347zM715 1102l-273 105
q-36 10 -56 36.5t-22.5 59t14.5 58.5q15 23 45.5 35t65 4t59.5 -45l181 -236z" />
    <glyph glyph-name="uni2000" unicode="&#x2000;" horiz-adv-x="1000" 
 />
    <glyph glyph-name="uni2001" unicode="&#x2001;" horiz-adv-x="2000" 
 />
    <glyph glyph-name="uni2002" unicode="&#x2002;" horiz-adv-x="1000" 
 />
    <glyph glyph-name="uni2003" unicode="&#x2003;" horiz-adv-x="2000" 
 />
    <glyph glyph-name="uni2004" unicode="&#x2004;" horiz-adv-x="666" 
 />
    <glyph glyph-name="uni2005" unicode="&#x2005;" horiz-adv-x="500" 
 />
    <glyph glyph-name="uni2006" unicode="&#x2006;" horiz-adv-x="333" 
 />
    <glyph glyph-name="uni2007" unicode="&#x2007;" horiz-adv-x="1160" 
 />
    <glyph glyph-name="uni2008" unicode="&#x2008;" horiz-adv-x="399" 
 />
    <glyph glyph-name="uni2009" unicode="&#x2009;" horiz-adv-x="333" 
 />
    <glyph glyph-name="uni200A" unicode="&#x200a;" horiz-adv-x="200" 
 />
    <glyph glyph-name="uni200B" unicode="&#x200b;" horiz-adv-x="0" 
 />
    <glyph glyph-name="uni2010" unicode="&#x2010;" horiz-adv-x="719" 
d="M120 538v24h480v-24h-480z" />
    <glyph glyph-name="uni2011" unicode="&#x2011;" horiz-adv-x="719" 
d="M120 538v24h480v-24h-480z" />
    <glyph glyph-name="figuredash" unicode="&#x2012;" horiz-adv-x="934" 
d="M120 538v24h695v-24h-695z" />
    <glyph glyph-name="endash" unicode="&#x2013;" horiz-adv-x="1081" 
d="M119 538v24h842v-24h-842z" />
    <glyph glyph-name="emdash" unicode="&#x2014;" horiz-adv-x="1569" 
d="M119 538v24h1330v-24h-1330z" />
    <glyph glyph-name="uni2015" unicode="&#x2015;" horiz-adv-x="1715" 
d="M120 538v24h1476v-24h-1476z" />
    <glyph glyph-name="quoteleft" unicode="&#x2018;" horiz-adv-x="501" 
d="M252 960q-48 0 -88 27t-64 78.5t-24 123.5q0 96 42 178.5t120 133t188 50.5v-25q-79 0 -143 -31.5t-107.5 -87t-61 -128.5t-2.5 -157h-9q-2 34 19 68t58.5 56t82.5 22q78 0 118.5 -45t40.5 -109q0 -42 -23 -77t-61.5 -56t-85.5 -21z" />
    <glyph glyph-name="quoteright" unicode="&#x2019;" horiz-adv-x="501" 
d="M76 949v25q79 0 143 31.5t107.5 87t61 128.5t2.5 157h9q2 -34 -19 -68t-58.5 -56t-82.5 -22q-78 0 -118.5 45.5t-40.5 108.5q0 42 22.5 77t61.5 56t86 21q48 0 88 -27.5t64 -78.5t24 -123q0 -96 -42 -178.5t-120.5 -133t-187.5 -50.5z" />
    <glyph glyph-name="quotesinglbase" unicode="&#x201a;" horiz-adv-x="677" 
d="M76 -303v25q79 0 143 31.5t107.5 87t61 128.5t2.5 157h9q2 -34 -19 -68t-58.5 -56t-82.5 -22q-78 0 -118.5 45.5t-40.5 108.5q0 42 22.5 77t61.5 56t86 21q48 0 88 -27.5t64 -78.5t24 -123q0 -96 -42 -178.5t-120.5 -133t-187.5 -50.5z" />
    <glyph glyph-name="quotedblleft" unicode="&#x201c;" horiz-adv-x="957" 
d="M708 960q-48 0 -88 27t-64 78.5t-24 123.5q0 96 42 178.5t120 133t188 50.5v-25q-79 0 -143 -31.5t-107.5 -87t-61 -128.5t-2.5 -157h-9q-2 34 19 68t58.5 56t82.5 22q78 0 118.5 -45t40.5 -109q0 -42 -23 -77t-61.5 -56t-85.5 -21zM252 960q-48 0 -88 27t-64 78.5
t-24 123.5q0 96 42 178.5t120 133t188 50.5v-25q-79 0 -143 -31.5t-107.5 -87t-61 -128.5t-2.5 -157h-9q-2 34 19 68t58.5 56t82.5 22q78 0 118.5 -45t40.5 -109q0 -42 -23 -77t-61.5 -56t-85.5 -21z" />
    <glyph glyph-name="quotedblright" unicode="&#x201d;" horiz-adv-x="957" 
d="M532 949v25q79 0 143 31.5t107.5 87t61 128.5t2.5 157h9q2 -34 -19 -68t-58.5 -56t-82.5 -22q-78 0 -118.5 46t-40.5 108q0 42 22.5 77.5t61.5 56t86 20.5q48 0 88 -27.5t64 -78.5t24 -123q0 -96 -42 -178.5t-120.5 -133t-187.5 -50.5zM76 949v25q79 0 143 31.5t107.5 87
t61 128.5t2.5 157h9q2 -34 -19 -68t-58.5 -56t-82.5 -22q-78 0 -118.5 46t-40.5 108q0 42 22.5 77.5t61.5 56t86 20.5q48 0 88 -27.5t64 -78.5t24 -123q0 -96 -42 -178.5t-120.5 -133t-187.5 -50.5z" />
    <glyph glyph-name="quotedblbase" unicode="&#x201e;" horiz-adv-x="957" 
d="M532 -303v25q79 0 143 31.5t107.5 87t61 128.5t2.5 157h9q2 -34 -19 -68t-58.5 -56t-82.5 -22q-78 0 -118.5 45.5t-40.5 108.5q0 42 22.5 77t61.5 56t86 21q48 0 88 -27.5t64 -78.5t24 -123q0 -96 -42 -178.5t-120.5 -133t-187.5 -50.5zM76 -303v25q79 0 143 31.5
t107.5 87t61 128.5t2.5 157h9q2 -34 -19 -68t-58.5 -56t-82.5 -22q-78 0 -118.5 45.5t-40.5 108.5q0 42 22.5 77t61.5 56t86 21q48 0 88 -27.5t64 -78.5t24 -123q0 -96 -42 -178.5t-120.5 -133t-187.5 -50.5z" />
    <glyph glyph-name="dagger" unicode="&#x2020;" horiz-adv-x="1217" 
d="M596 -500q0 199 -8.5 359t-26 283.5t-45 212.5t-65.5 145h314q-37 -56 -64.5 -145t-45 -212.5t-26.5 -283.5t-9 -359h-24zM246 838q-67 0 -106.5 39.5t-39.5 96.5t39.5 96.5t106.5 39.5h17.5t19.5 -2q52 -8 92 -27t75.5 -41t73 -37.5t84.5 -15.5v-25q-47 0 -84.5 -16
t-73 -38t-75.5 -41.5t-92 -26.5q-11 -1 -19.5 -1.5t-17.5 -0.5zM451 500q35 50 68 119t55 158.5t22 199.5h24q0 -110 22 -199.5t55 -158.5t68 -119h-314zM971 838q-9 0 -17.5 0.5t-19.5 1.5q-53 7 -93 26.5t-75 41.5t-72.5 38t-85.5 16v25q48 0 85.5 15.5t72.5 37.5t75 41
t93 27q11 2 19.5 2h17.5q68 0 107 -39.5t39 -96.5t-39 -96.5t-107 -39.5zM596 977q0 74 -16 120t-38 80.5t-41 71t-27 88.5q-1 11 -1.5 19.5t-0.5 17.5q0 68 39.5 107t96.5 39q58 0 97 -39t39 -107v-17.5t-2 -19.5q-7 -52 -26.5 -88.5t-41.5 -71t-38 -80.5t-16 -120h-24z
" />
    <glyph glyph-name="daggerdbl" unicode="&#x2021;" horiz-adv-x="1217" 
d="M608 -520q-57 0 -96.5 39.5t-39.5 106.5q0 9 0.5 18t1.5 19q8 52 26.5 87.5t40.5 68.5t38 78t17 116q-45 -2 -80.5 -18.5t-69.5 -37.5t-73 -39.5t-90 -25.5q-10 -1 -19 -1.5t-18 -0.5q-67 0 -106.5 39.5t-39.5 96.5q0 58 39.5 97t106.5 39h18t19 -2q51 -7 90 -25.5
t73 -40t70 -38t80 -18.5q-1 107 -23 193t-54.5 153t-67.5 116q35 49 67.5 116t54.5 153.5t23 192.5q-44 -2 -80 -18.5t-70 -38t-73 -40t-90 -25.5q-10 -1 -19 -1.5t-18 -0.5q-67 0 -106.5 39.5t-39.5 96.5t39.5 96.5t106.5 39.5h18t19 -2q51 -7 90 -25.5t73 -39.5
t69.5 -37.5t80.5 -18.5q-1 71 -17 115.5t-38 78t-40.5 69t-26.5 87.5q-1 11 -1.5 19.5t-0.5 17.5q0 68 39.5 107t96.5 39q58 0 97 -39t39 -107v-17.5t-2 -19.5q-7 -52 -26 -87.5t-40.5 -68.5t-37.5 -78t-17 -116q44 2 80 18.5t70 37.5t73 39.5t90 25.5q11 2 19.5 2h17.5
q68 0 107 -39.5t39 -96.5t-39 -96.5t-107 -39.5q-9 0 -17.5 0.5t-19.5 1.5q-51 7 -90 25.5t-73 40t-70 38t-80 18.5q1 -106 22.5 -192.5t54.5 -153.5t67 -116q-34 -49 -67 -116t-54.5 -153t-22.5 -193q44 2 80 18.5t70 38t73 40t90 25.5q11 2 19.5 2h17.5q68 0 107 -39
t39 -97q0 -57 -39 -96.5t-107 -39.5q-9 0 -17.5 0.5t-19.5 1.5q-51 7 -90 25.5t-73 39.5t-70 37.5t-80 18.5q1 -71 17 -115.5t37.5 -78t40.5 -69t26 -87.5q2 -10 2 -19v-18q0 -67 -39 -106.5t-97 -39.5z" />
    <glyph glyph-name="bullet" unicode="&#x2022;" horiz-adv-x="399" 
d="M236 610q-43 0 -78 21t-56.5 56.5t-21.5 78.5t21.5 78.5t56.5 57t78 21.5t78.5 -21.5t56.5 -57t21 -78.5t-21 -78.5t-56.5 -56.5t-78.5 -21z" />
    <glyph glyph-name="ellipsis" unicode="&#x2026;" horiz-adv-x="1415" 
d="M1180 -20q-43 0 -78 21t-56.5 56.5t-21.5 78.5t21.5 78.5t56.5 57t78 21.5t78.5 -21.5t56.5 -57t21 -78.5t-21 -78.5t-56.5 -56.5t-78.5 -21zM708 -20q-43 0 -78 21t-56.5 56.5t-21.5 78.5t21.5 78.5t56.5 57t78 21.5t78.5 -21.5t56.5 -57t21 -78.5t-21 -78.5
t-56.5 -56.5t-78.5 -21zM236 -20q-43 0 -78 21t-56.5 56.5t-21.5 78.5t21.5 78.5t56.5 57t78 21.5t78.5 -21.5t56.5 -57t21 -78.5t-21 -78.5t-56.5 -56.5t-78.5 -21z" />
    <glyph glyph-name="perthousand" unicode="&#x2030;" horiz-adv-x="2987" 
d="M478 0l1042 1500h26l-1042 -1500h-26zM494 640q-85 0 -161 28.5t-135.5 84.5t-93.5 138t-34 189t34 189t93.5 138t135.5 84.5t161 28.5t161.5 -28.5t135.5 -84.5t93 -138t34 -189t-39.5 -189t-103 -138t-137.5 -84.5t-144 -28.5zM494 662q45 0 73.5 31t45.5 87t24 133
t7 167q0 91 -7 167.5t-24 132.5t-45.5 87t-73.5 31q-44 0 -73 -31t-46 -87t-24 -132.5t-7 -167.5q0 -90 7 -167t24 -133t46 -87t73 -31zM1529 -20q-84 0 -160.5 28.5t-135.5 84.5t-93 138t-34 189t34 189t93 138t135.5 84.5t160.5 28.5q85 0 161.5 -28.5t136 -84.5
t93.5 -138t34 -189t-39.5 -189t-103 -138t-138 -84.5t-144.5 -28.5zM1529 2q45 0 74 31t46 87t24 133t7 167q0 91 -7 167.5t-24 132.5t-46 87t-74 31q-43 0 -72 -31t-46 -87t-24 -132.5t-7 -167.5q0 -90 7 -167t24 -133t46 -87t72 -31zM2494 -20q-85 0 -161.5 28.5
t-135.5 84.5t-93 138t-34 189t34 189t93 138t135.5 84.5t161.5 28.5t161.5 -28.5t135.5 -84.5t93 -138t34 -189t-39.5 -189t-103 -138t-137.5 -84.5t-144 -28.5zM2494 2q45 0 73.5 31t45.5 87t24 133t7 167q0 91 -7 167.5t-24 132.5t-45.5 87t-73.5 31q-44 0 -73 -31
t-46 -87t-24 -132.5t-7 -167.5q0 -90 7 -167t24 -133t46 -87t73 -31z" />
    <glyph glyph-name="uni2031" unicode="&#x2031;" horiz-adv-x="2987" 
d="M478 0l1042 1500h26l-1042 -1500h-26zM494 640q-85 0 -161 28.5t-135.5 84.5t-93.5 138t-34 189t34 189t93.5 138t135.5 84.5t161 28.5t161.5 -28.5t135.5 -84.5t93 -138t34 -189t-39.5 -189t-103 -138t-137.5 -84.5t-144 -28.5zM494 662q45 0 73.5 31t45.5 87t24 133
t7 167q0 91 -7 167.5t-24 132.5t-45.5 87t-73.5 31q-44 0 -73 -31t-46 -87t-24 -132.5t-7 -167.5q0 -90 7 -167t24 -133t46 -87t73 -31zM1529 -20q-84 0 -160.5 28.5t-135.5 84.5t-93 138t-34 189t34 189t93 138t135.5 84.5t160.5 28.5q85 0 161.5 -28.5t136 -84.5
t93.5 -138t34 -189t-39.5 -189t-103 -138t-138 -84.5t-144.5 -28.5zM1529 2q45 0 74 31t46 87t24 133t7 167q0 91 -7 167.5t-24 132.5t-46 87t-74 31q-43 0 -72 -31t-46 -87t-24 -132.5t-7 -167.5q0 -90 7 -167t24 -133t46 -87t72 -31zM2494 -20q-85 0 -161.5 28.5
t-135.5 84.5t-93 138t-34 189t34 189t93 138t135.5 84.5t161.5 28.5t161.5 -28.5t135.5 -84.5t93 -138t34 -189t-39.5 -189t-103 -138t-137.5 -84.5t-144 -28.5zM2494 2q45 0 73.5 31t45.5 87t24 133t7 167q0 91 -7 167.5t-24 132.5t-45.5 87t-73.5 31q-44 0 -73 -31
t-46 -87t-24 -132.5t-7 -167.5q0 -90 7 -167t24 -133t46 -87t73 -31z" />
    <glyph glyph-name="guilsinglleft" unicode="&#x2039;" horiz-adv-x="865" 
d="M746 290l-696 464v42l696 464l12 -12l-396 -472l396 -474z" />
    <glyph glyph-name="guilsinglright" unicode="&#x203a;" horiz-adv-x="865" 
d="M118 290l-12 12l392 472l-392 474l12 12l696 -464v-42z" />
    <glyph glyph-name="uni203D" unicode="&#x203d;" horiz-adv-x="1271" 
d="M657 670v21q66 6 123.5 45t100 100t66 135t23.5 149q0 101 -42.5 184.5t-120.5 132.5t-187 49q-86 0 -161.5 -28t-134.5 -75t-98 -105.5t-51 -120.5q10 30 39.5 47.5t57.5 17.5q37 0 68.5 -18t50.5 -49t19 -70q0 -45 -21 -75.5t-53 -47t-64 -16.5q-57 0 -97 41.5
t-40 109.5q0 71 35 145t103.5 137.5t167.5 102t226 38.5q113 0 210 -28t170 -81.5t113.5 -131.5t40.5 -179q0 -77 -32 -143t-87 -119.5t-125.5 -90.5t-147.5 -57t-152 -20zM622 -20q-43 0 -78.5 21t-56.5 56.5t-21 78.5t21 78.5t56.5 57t78.5 21.5t78.5 -21.5t56.5 -57
t21 -78.5t-21 -78.5t-56.5 -56.5t-78.5 -21zM605 458q0 71 -20 163t-43 193t-34 196q-1 11 -1.5 20t-0.5 18q0 35 14.5 69.5t45 57.5t77.5 23t78 -23t46 -57.5t15 -69.5v-18t-2 -20q-8 -72 -29.5 -147t-46 -148t-42.5 -138.5t-18 -118.5h-39z" />
    <glyph glyph-name="uni203E" unicode="&#x203e;" horiz-adv-x="719" 
d="M-10 1567v24h740v-24h-740z" />
    <glyph glyph-name="fraction" unicode="&#x2044;" horiz-adv-x="1072" 
d="M80 -300l865 1861h25l-865 -1861h-25z" />
    <glyph glyph-name="uni2074" unicode="&#x2074;" horiz-adv-x="805" 
d="M342 919v15h114v805l-376 -555h665v-14h-693l440 649h121v-885h90v-15h-361z" />
    <glyph glyph-name="Euro" unicode="&#x20ac;" horiz-adv-x="1417" 
d="M863 -20q-123 0 -236.5 55t-203 157.5t-142 244t-52.5 313.5q0 158 48.5 297t138.5 245.5t216.5 167t282.5 60.5q92 0 169 -28t134 -73t88.5 -97.5t31.5 -101.5q0 -50 -21.5 -84.5t-54.5 -52.5t-70 -18q-34 0 -66.5 17t-54.5 49t-22 78q0 41 20 72.5t52.5 49t70.5 17.5
q32 0 65.5 -17.5t56 -46.5t22.5 -64h-23q0 47 -29.5 95t-81 88t-118 64.5t-140.5 24.5q-115 0 -193.5 -66t-125 -175t-67.5 -239.5t-21 -261.5q0 -146 21.5 -278t66.5 -234.5t114.5 -161.5t166.5 -59q96 0 175 46.5t134.5 123.5t80.5 168h26q-26 -96 -86.5 -182
t-154.5 -139.5t-218 -53.5zM56 768v24h880v-24h-880zM56 467v24h880v-24h-880z" />
    <glyph glyph-name="uni2116" unicode="&#x2116;" horiz-adv-x="2259" 
d="M1699 1141q0 170 35 263.5t114 93.5q80 0 115 -93.5t35 -263.5q0 -172 -35 -265.5t-115 -93.5q-79 0 -114 93.5t-35 265.5zM1493 1140q0 -123 45.5 -207.5t125.5 -128.5t184 -44t184.5 44t126.5 129t46 207q0 123 -46 207.5t-126.5 128.5t-184.5 44t-184 -44t-125.5 -128
t-45.5 -208zM1609 618v24h480v-24h-480zM273 1500v-1475h234v-25h-462v25h202v1450h-202v25h228zM1483 1500v-25h-211v-1495h-34l-983 1520h314l678 -1071v1046h-231v25h467z" />
    <glyph glyph-name="trademark" unicode="&#x2122;" horiz-adv-x="1271" 
d="M860 968l-195 533v-518h54v-8h-115v8h51v523h-55v9h154l154 -412l144 412h151v-9h-50v-523h50v-8h-202v8h57v523l-187 -538h-11zM183 975v8h79v523h-56q-59 0 -84.5 -45.5t-30.5 -114.5h-9v169h455v-169h-9q-5 69 -30 114.5t-86 45.5h-55v-523h79v-8h-253z" />
    <glyph glyph-name="partialdiff" unicode="&#x2202;" horiz-adv-x="1179" 
d="M561 -20q-113 0 -205.5 38.5t-159 109t-102.5 165.5t-36 207q0 128 45 219t116.5 148.5t154.5 85t159 27.5q79 0 134 -28.5t89.5 -81t50.5 -124t16 -157.5h-22q0 166 -61.5 258.5t-168.5 92.5q-77 0 -129 -54t-78 -153t-26 -233q0 -86 8.5 -173.5t31.5 -160t65.5 -117
t111.5 -44.5q71 0 118 52.5t75.5 139t40.5 189.5t12 203l-11 311q0 55 -3 131.5t-16 157t-41.5 150.5t-78 113t-126.5 43l20 25q112 0 208.5 -51t170 -149.5t114.5 -242t41 -327.5q0 -163 -35 -303t-101.5 -245t-163 -163.5t-218.5 -58.5zM353 1170q-53 0 -90 33.5t-37 94.5
q0 67 46.5 117t120 78t152.5 27l-20 -25q-60 0 -122 -22.5t-104 -66t-42 -108.5h-29q0 58 39 93t86 35q50 0 91 -33t41 -91q0 -67 -42 -99.5t-90 -32.5z" />
    <glyph glyph-name="emptyset" unicode="&#x2205;" horiz-adv-x="1140" 
d="M94 275l-19 19l971 971l19 -19zM571 310q-141 0 -244 63t-159 167.5t-56 229.5t56 229.5t159 167t244 62.5t243.5 -62.5t158 -167t55.5 -229.5t-55.5 -229.5t-158 -167.5t-243.5 -63zM571 338q134 0 229.5 60t146.5 158t51 214t-51 214t-146.5 157.5t-229.5 59.5
t-230 -59.5t-147.5 -157.5t-51.5 -214t51.5 -214t147.5 -158t230 -60z" />
    <glyph glyph-name="product" unicode="&#x220f;" horiz-adv-x="1609" 
d="M1099 0v1500h263v-1500h-263zM69 0v25h630v-25h-630zM250 0v1500h262v-1500h-262zM911 0v25h630v-25h-630zM69 1475v25h1472v-25h-1472z" />
    <glyph glyph-name="summation" unicode="&#x2211;" horiz-adv-x="1332" 
d="M56 0l541 671l-511 804v25h1111v-410h-25q-8 107 -56.5 194.5t-134 139t-202.5 51.5h-399l400 -641l-673 -809h648q137 0 231.5 53.5t146 149t58.5 222.5h25v-450h-1160z" />
    <glyph glyph-name="minus" unicode="&#x2212;" horiz-adv-x="934" 
d="M120 758v24h695v-24h-695z" />
    <glyph glyph-name="uni2215" unicode="&#x2215;" horiz-adv-x="1072" 
d="M80 -300l865 1861h25l-865 -1861h-25z" />
    <glyph glyph-name="uni2219" unicode="&#x2219;" horiz-adv-x="450" 
d="M236 610q-43 0 -78 21t-56.5 56.5t-21.5 78.5t21.5 78.5t56.5 57t78 21.5t78.5 -21.5t56.5 -57t21 -78.5t-21 -78.5t-56.5 -56.5t-78.5 -21z" />
    <glyph glyph-name="radical" unicode="&#x221a;" horiz-adv-x="1148" 
d="M539 -20l-308 508l-110 -60l-10 22l280 159l231 -394l305 1285h221v-25h-201l-353 -1495h-55z" />
    <glyph glyph-name="infinity" unicode="&#x221e;" horiz-adv-x="1874" 
d="M1398 330q138 0 228 52.5t134 139t44 187.5h-241q0 -44 -7 -103t-27 -114t-58.5 -92t-101.5 -37q-66 0 -124.5 34t-111 87.5t-97.5 113.5t-83 111q-68 91 -136 178.5t-149.5 144t-192.5 56.5q-138 0 -227.5 -52t-133.5 -138.5t-44 -188.5h240q0 44 7 103t26.5 114.5
t58 92t102.5 36.5q66 0 124.5 -33.5t110.5 -87t97 -113.5l84 -112q67 -90 136 -177t152 -144.5t190 -57.5zM475 330q111 0 193 57.5t150 144.5t135 177q38 52 83 112t97.5 113.5t111 87t124.5 33.5q63 0 101.5 -36.5t58.5 -92t27 -114.5t7 -103h241q0 102 -44 188.5
t-134 138.5t-228 52q-111 0 -193 -56.5t-149.5 -144t-135.5 -178.5q-38 -51 -83.5 -111t-97.5 -113.5t-110.5 -87.5t-124.5 -34q-64 0 -102.5 37t-58 92t-26.5 114t-7 103h-240q0 -103 44 -189t133.5 -138t227.5 -52z" />
    <glyph glyph-name="integral" unicode="&#x222b;" horiz-adv-x="834" 
d="M1002 1313h23q0 35 -24.5 60t-58.5 38t-63 13q-31 0 -63 -14t-53.5 -42.5t-21.5 -71.5q0 -47 23 -77.5t56.5 -45t65.5 -14.5q57 0 99 41t42 113q0 50 -31 97.5t-90 78.5t-143 31q-143 0 -252.5 -68.5t-172.5 -181.5t-67 -247l-29 -1103q-3 -123 -32.5 -216.5t-78.5 -146
t-112 -52.5q-56 0 -102 15.5t-80 42t-52.5 59.5t-18.5 69h-23q0 -36 23.5 -62t57 -39.5t63.5 -13.5q33 0 64.5 14t52.5 42.5t21 71.5q0 47 -22 77.5t-55 45t-65 14.5q-39 0 -71 -18t-51.5 -51.5t-19.5 -80.5q0 -52 33 -100.5t95 -79.5t147 -31q141 0 245.5 69t162.5 182
t63 246l38 1103q4 123 33.5 216.5t82 146t125.5 52.5q51 0 94 -16t74.5 -42t49.5 -58t18 -66z" />
    <glyph glyph-name="approxequal" unicode="&#x2248;" horiz-adv-x="1200" 
d="M798 884q-81 0 -131.5 39t-89.5 90q-23 30 -49 55.5t-62.5 41.5t-92.5 16q-72 0 -125.5 -33.5t-77.5 -89t-6 -121.5h-28q-20 70 8.5 132t89.5 101t139 39q66 0 108 -19.5t70 -49t52 -59.5q38 -51 81.5 -82.5t110.5 -31.5q66 0 115 32t70.5 87t3.5 125h28
q18 -75 -8 -136.5t-81.5 -98.5t-124.5 -37zM798 384q-81 0 -131.5 39t-89.5 90q-23 30 -49 55.5t-62.5 41.5t-92.5 16q-72 0 -125.5 -33.5t-77.5 -89t-6 -121.5h-28q-20 70 8.5 132t89.5 101t139 39q66 0 108 -19.5t70 -49t52 -59.5q38 -51 81.5 -82.5t110.5 -31.5
q66 0 115 32t70.5 87t3.5 125h28q18 -75 -8 -136.5t-81.5 -98.5t-124.5 -37z" />
    <glyph glyph-name="notequal" unicode="&#x2260;" horiz-adv-x="1119" 
d="M249 299l-20 14l643 917l19 -14zM120 608v24h880v-24h-880zM120 909v24h880v-24h-880z" />
    <glyph glyph-name="lessequal" unicode="&#x2264;" horiz-adv-x="1119" 
d="M120 765v27l880 416v-27zM120 68v24h880v-24h-880zM1000 343l-880 415v27l880 -416v-26z" />
    <glyph glyph-name="greaterequal" unicode="&#x2265;" horiz-adv-x="1119" 
d="M120 1181v26l880 -415v-34l-880 -416v27l859 406zM1000 68h-880v24h880v-24z" />
    <glyph glyph-name="lozenge" unicode="&#x25ca;" horiz-adv-x="1200" 
d="M612 30l-412 682l412 680l388 -680zM612 86l357 626l-357 624l-379 -624z" />
    <glyph glyph-name="uni2761" unicode="&#x2761;" horiz-adv-x="1322" 
d="M475 -94q-112 0 -191 48.5t-120 120.5t-41 142q0 111 54.5 163t123.5 52q62 0 109.5 -43.5t47.5 -121.5q0 -61 -48.5 -99.5t-108.5 -38.5q-52 0 -93 21.5t-56 45.5q7 -63 47 -124t110.5 -101t165.5 -40q128 0 214 72.5t129 191t43 256.5v1149h25v-1143q0 -145 -45 -271
t-136 -203t-230 -77zM686 619q-271 0 -413 98t-142 293t142 293.5t413 98.5h488v-25h-459q-50 0 -94.5 -42.5t-72 -124.5t-27.5 -200t27.5 -199.5t72 -124t94.5 -42.5h165v-25h-194z" />
    <glyph glyph-name="uniF8E8" unicode="&#xf8e8;" horiz-adv-x="1153" 
d="M574 668q-128 0 -233 62.5t-167 167t-62 232.5t62 232.5t167 167t233 62.5t233 -62.5t167 -167t62 -232.5t-62 -232.5t-167 -167t-233 -62.5zM339 858v8h244v-8h-244zM414 858v540h94v-540h-94zM761 853q-55 0 -74 28t-21 69t-3 82t-19 68.5t-71 27.5h-105v5h145
q71 0 102.5 -27t40 -67t7.5 -79.5t3.5 -66.5t31.5 -27q11 0 20.5 2.5t17.5 5.5l3 -8q-8 -5 -29 -9t-49 -4zM574 683q124 0 225 60.5t161.5 162t60.5 224.5t-60.5 224.5t-161.5 162t-225 60.5q-123 0 -224.5 -60.5t-162 -162t-60.5 -224.5t60.5 -224.5t162 -162t224.5 -60.5z
M468 1132v5h106q52 0 79 31.5t27 93.5q0 63 -27 95t-79 32h-235v9h246q86 0 139.5 -32.5t53.5 -103.5q0 -70 -50.5 -100t-142.5 -30h-117z" />
    <glyph glyph-name="uniF8E9" unicode="&#xf8e9;" horiz-adv-x="1127" 
d="M561 1592q128 0 233 -62t167.5 -167t62.5 -233t-62.5 -233t-167.5 -167t-233 -62t-233 62t-167 167t-62 233t62 233t167 167t233 62zM562 683q123 0 224.5 60.5t162 162t60.5 224.5t-60.5 224.5t-162 162t-224.5 60.5q-124 0 -225.5 -60.5t-162 -162t-60.5 -224.5
t60.5 -224.5t162 -162t225.5 -60.5zM575 864q48 0 83 20.5t56.5 54.5t29.5 75h9v-154h-8l-48 41q-50 -48 -129 -48q-116 0 -185 78.5t-69 198.5t69 198.5t185 78.5q69 0 117 -45l53 38h8v-154h-9q-13 66 -57.5 108t-104.5 42q-57 0 -90.5 -39t-47.5 -100t-14 -127
q0 -65 14 -126.5t47.5 -100.5t90.5 -39z" />
    <glyph glyph-name="i.loclTRK" horiz-adv-x="624" 
d="M436 920v-895h130v-25h-501v25h131v870h-131v25h371zM320 1218q-63 0 -106.5 43.5t-43.5 106.5t43.5 106.5t106.5 43.5t106.5 -43.5t43.5 -106.5t-43.5 -106.5t-106.5 -43.5z" />
    <glyph glyph-name="longs_t" horiz-adv-x="1396" 
d="M1083 -14q-89 0 -136 33.5t-64.5 88t-17.5 115.5v857q0 127 -19 220t-65 144t-127 51q-82 0 -127.5 -51t-64.5 -144t-19 -220v-1080h-234v1023q0 131 47.5 244.5t146.5 183t251 69.5q153 0 253 -69.5t149 -183t49 -244.5l-1 -851q0 -75 19.5 -101t61.5 -26q29 0 61.5 20
t62 55t48.5 80l22 -11q-38 -90 -112.5 -146.5t-183.5 -56.5zM49 0v25h619v-25h-619zM743 895v25h575v-25h-575z" />
    <glyph glyph-name="a.sc" horiz-adv-x="1199" 
d="M98 0l466 1039h88l454 -1039h-305l-331 770l-344 -770h-28zM0 0v25h321v-25h-321zM258 310v25h612v-25h-612zM619 0v25h580v-25h-580z" />
    <glyph glyph-name="aacute.sc" horiz-adv-x="1199" 
d="M98 0l466 1039h88l454 -1039h-305l-331 770l-344 -770h-28zM0 0v25h321v-25h-321zM258 310v25h612v-25h-612zM619 0v25h580v-25h-580zM523 1193l-14 17l181 236q25 37 59 45t65 -4t46 -35q16 -26 13.5 -58.5t-22.5 -59t-55 -36.5z" />
    <glyph glyph-name="abreve.sc" horiz-adv-x="1199" 
d="M98 0l466 1039h88l454 -1039h-305l-331 770l-344 -770h-28zM0 0v25h321v-25h-321zM258 310v25h612v-25h-612zM619 0v25h580v-25h-580zM604 1191q-87 0 -138 39.5t-72.5 106t-21.5 148.5h18q0 -48 31 -78t80 -44t103 -14t103 14t80 44t31 78h18q0 -82 -21.5 -148.5
t-72.5 -106t-138 -39.5z" />
    <glyph glyph-name="acircumflex.sc" horiz-adv-x="1199" 
d="M98 0l466 1039h88l454 -1039h-305l-331 770l-344 -770h-28zM0 0v25h321v-25h-321zM258 310v25h612v-25h-612zM619 0v25h580v-25h-580zM308 1215l-12 14l232 250h154l232 -250l-13 -14l-297 144z" />
    <glyph glyph-name="adieresis.sc" horiz-adv-x="1199" 
d="M98 0l466 1039h88l454 -1039h-305l-331 770l-344 -770h-28zM0 0v25h321v-25h-321zM258 310v25h612v-25h-612zM619 0v25h580v-25h-580zM779 1198q-44 0 -75.5 31.5t-31.5 76.5q0 44 31.5 76t75.5 32q45 0 76.5 -32t31.5 -76q0 -45 -31.5 -76.5t-76.5 -31.5zM427 1198
q-45 0 -76.5 31.5t-31.5 76.5q0 44 31.5 76t76.5 32t76.5 -32t31.5 -76q0 -45 -31.5 -76.5t-76.5 -31.5z" />
    <glyph glyph-name="agrave.sc" horiz-adv-x="1199" 
d="M98 0l466 1039h88l454 -1039h-305l-331 770l-344 -770h-28zM0 0v25h321v-25h-321zM258 310v25h612v-25h-612zM619 0v25h580v-25h-580zM684 1193l-273 105q-36 10 -56 36.5t-22.5 59t14.5 58.5q15 23 45.5 35t65 4t59.5 -45l181 -236z" />
    <glyph glyph-name="aogonek.sc" horiz-adv-x="1199" 
d="M98 0l466 1039h88l454 -1039h-305l-331 770l-344 -770h-28zM0 0v25h321v-25h-321zM258 310v25h612v-25h-612zM619 0v25h580v-25h-580zM901 -435q-60 0 -113 18t-87 56t-34 98t29.5 108t77.5 85.5t104 64t109 42.5l8 -16q-24 -14 -45.5 -47t-35 -82t-13.5 -110
q0 -72 28.5 -115t74.5 -43q45 0 72 28.5t50 68.5l17 -11q-15 -28 -41 -62t-73.5 -58.5t-127.5 -24.5z" />
    <glyph glyph-name="aring.sc" horiz-adv-x="1199" 
d="M98 0l466 1039h88l454 -1039h-305l-331 770l-344 -770h-28zM0 0v25h321v-25h-321zM258 310v25h612v-25h-612zM619 0v25h580v-25h-580zM604 1191q-85 0 -138.5 52t-53.5 128q0 77 53.5 128.5t138.5 51.5q86 0 139 -51.5t53 -128.5q0 -76 -53 -128t-139 -52zM604 1216
q34 0 53.5 20.5t28 55t8.5 79.5q0 44 -8.5 79.5t-28 55.5t-53.5 20t-53.5 -20t-28 -55.5t-8.5 -79.5q0 -45 8.5 -79.5t28 -55t53.5 -20.5z" />
    <glyph glyph-name="atilde.sc" horiz-adv-x="1199" 
d="M98 0l466 1039h88l454 -1039h-305l-331 770l-344 -770h-28zM0 0v25h321v-25h-321zM258 310v25h612v-25h-612zM619 0v25h580v-25h-580zM770 1179q-57 0 -103 24t-86.5 55t-82.5 55t-91 24q-51 0 -88 -30.5t-37 -95.5h-25q0 85 26.5 147.5t72.5 96.5t104 34q60 0 104.5 -24
t82.5 -55t75 -55t81 -24q58 0 91.5 30.5t33.5 95.5h25q0 -95 -17.5 -156.5t-57.5 -91.5t-108 -30z" />
    <glyph glyph-name="ae.sc" horiz-adv-x="1750" 
d="M120 0l712 1020h32l-712 -1020h-32zM0 0v25h350v-25h-350zM377 334l4 25h594v-25h-598zM715 0v25h583q87 0 156 31.5t111.5 102.5t49.5 191h25v-350h-925zM846 0v1020h262v-1020h-262zM1354 377q-4 52 -36.5 87t-75 52t-80.5 17h-110v25h110q38 0 80.5 15.5t75 48
t36.5 84.5h25v-329h-25zM1606 710q-8 100 -48.5 163t-101 92.5t-127.5 29.5h-397v25h699v-310h-25z" />
    <glyph glyph-name="b.sc" horiz-adv-x="1236" 
d="M85 0v25h574q63 0 106.5 36.5t66 98.5t22.5 138q0 113 -50 175t-145 62h-194v16h244q129 0 227.5 -23.5t154 -80t55.5 -155.5q0 -103 -47 -167.5t-144 -94.5t-246 -30h-624zM237 0v1026h262v-1026h-262zM465 543v17h153q85 0 140.5 57t55.5 166q0 117 -55.5 167.5
t-140.5 50.5h-533v25h563q213 0 325.5 -53.5t112.5 -178.5q0 -126 -105 -188.5t-333 -62.5h-183z" />
    <glyph glyph-name="c.sc" horiz-adv-x="1153" 
d="M628 -20q-94 0 -187.5 27.5t-170.5 89.5t-123.5 163.5t-46.5 249.5t47 249.5t124 163.5t165.5 89.5t170.5 27.5t150.5 -33t118.5 -84l105 97h22v-339h-25q-13 54 -42.5 110.5t-72 104t-94.5 76.5t-109 29q-88 0 -148.5 -57.5t-91.5 -167t-31 -266.5q0 -156 33 -265.5
t95.5 -167t152.5 -57.5q55 0 106.5 29t95 76.5t74 103.5t43.5 110h24v-339h-22l-98 106q-52 -55 -121.5 -90.5t-143.5 -35.5z" />
    <glyph glyph-name="cacute.sc" horiz-adv-x="1153" 
d="M628 -20q-94 0 -187.5 27.5t-170.5 89.5t-123.5 163.5t-46.5 249.5t47 249.5t124 163.5t165.5 89.5t170.5 27.5t150.5 -33t118.5 -84l105 97h22v-339h-25q-13 54 -42.5 110.5t-72 104t-94.5 76.5t-109 29q-88 0 -148.5 -57.5t-91.5 -167t-31 -266.5q0 -156 33 -265.5
t95.5 -167t152.5 -57.5q55 0 106.5 29t95 76.5t74 103.5t43.5 110h24v-339h-22l-98 106q-52 -55 -121.5 -90.5t-143.5 -35.5zM557 1202l-14 17l181 236q25 37 59 45t65 -4t46 -35q16 -26 13.5 -58.5t-22.5 -59t-55 -36.5z" />
    <glyph glyph-name="ccaron.sc" horiz-adv-x="1153" 
d="M628 -20q-94 0 -187.5 27.5t-170.5 89.5t-123.5 163.5t-46.5 249.5t47 249.5t124 163.5t165.5 89.5t170.5 27.5t150.5 -33t118.5 -84l105 97h22v-339h-25q-13 54 -42.5 110.5t-72 104t-94.5 76.5t-109 29q-88 0 -148.5 -57.5t-91.5 -167t-31 -266.5q0 -156 33 -265.5
t95.5 -167t152.5 -57.5q55 0 106.5 29t95 76.5t74 103.5t43.5 110h24v-339h-22l-98 106q-52 -55 -121.5 -90.5t-143.5 -35.5zM562 1220l-232 250l13 12l296 -142l295 142l14 -12l-232 -250h-154z" />
    <glyph glyph-name="ccedilla.sc" horiz-adv-x="1153" 
d="M628 -20q-94 0 -187.5 27.5t-170.5 89.5t-123.5 163.5t-46.5 249.5t47 249.5t124 163.5t165.5 89.5t170.5 27.5t150.5 -33t118.5 -84l105 97h22v-339h-25q-13 54 -42.5 110.5t-72 104t-94.5 76.5t-109 29q-88 0 -148.5 -57.5t-91.5 -167t-31 -266.5q0 -156 33 -265.5
t95.5 -167t152.5 -57.5q55 0 106.5 29t95 76.5t74 103.5t43.5 110h24v-339h-22l-98 106q-52 -55 -121.5 -90.5t-143.5 -35.5zM469 -497v24q89 0 136.5 34t47.5 87q0 50 -27 76t-73 34.5t-102 8.5l173 233h32l-114 -153q86 -3 154 -20t107.5 -51.5t39.5 -90.5
q0 -50 -35.5 -91.5t-117.5 -66t-221 -24.5z" />
    <glyph glyph-name="d.sc" horiz-adv-x="1305" 
d="M85 0v25h544q95 0 154.5 58.5t87.5 167t28 259.5q0 148 -29.5 257t-89 168.5t-151.5 59.5h-544v25h544q179 0 305 -54t193.5 -167t67.5 -289q0 -179 -74 -291.5t-202 -165.5t-290 -53h-544zM237 0v1020h262v-1020h-262z" />
    <glyph glyph-name="eth.sc" horiz-adv-x="1305" 
d="M100 538v24h576v-24h-576zM85 0v25h544q95 0 154.5 58.5t87.5 167t28 259.5q0 148 -29.5 257t-89 168.5t-151.5 59.5h-544v25h544q179 0 305 -54t193.5 -167t67.5 -289q0 -179 -74 -291.5t-202 -165.5t-290 -53h-544zM237 0v1020h262v-1020h-262z" />
    <glyph glyph-name="dcaron.sc" horiz-adv-x="1305" 
d="M85 0v25h544q95 0 154.5 58.5t87.5 167t28 259.5q0 148 -29.5 257t-89 168.5t-151.5 59.5h-544v25h544q179 0 305 -54t193.5 -167t67.5 -289q0 -179 -74 -291.5t-202 -165.5t-290 -53h-544zM237 0v1020h262v-1020h-262zM528 1220l-232 250l13 12l296 -142l295 142l14 -12
l-232 -250h-154z" />
    <glyph glyph-name="dcroat.sc" horiz-adv-x="1305" 
d="M100 538v24h576v-24h-576zM85 0v25h544q95 0 154.5 58.5t87.5 167t28 259.5q0 148 -29.5 257t-89 168.5t-151.5 59.5h-544v25h544q179 0 305 -54t193.5 -167t67.5 -289q0 -179 -74 -291.5t-202 -165.5t-290 -53h-544zM237 0v1020h262v-1020h-262z" />
    <glyph glyph-name="e.sc" horiz-adv-x="1120" 
d="M724 377q-6 52 -38 86.5t-74.5 52t-79.5 17.5h-110v25h110q37 0 79.5 15t74.5 48t38 85h25v-329h-25zM985 350h25v-350h-925v25h131v970h-131v25h916v-310h-25q-8 100 -48.5 163t-101 92.5t-127.5 29.5h-221v-970h190q87 0 156 31t111.5 102.5t49.5 191.5z" />
    <glyph glyph-name="eacute.sc" horiz-adv-x="1120" 
d="M724 377q-6 52 -38 86.5t-74.5 52t-79.5 17.5h-110v25h110q37 0 79.5 15t74.5 48t38 85h25v-329h-25zM985 350h25v-350h-925v25h131v970h-131v25h916v-310h-25q-8 100 -48.5 163t-101 92.5t-127.5 29.5h-221v-970h190q87 0 156 31t111.5 102.5t49.5 191.5zM530 1202
l-14 17l181 236q25 37 59 45t65 -4t46 -35q16 -26 13.5 -58.5t-22.5 -59t-55 -36.5z" />
    <glyph glyph-name="ecaron.sc" horiz-adv-x="1120" 
d="M724 377q-6 52 -38 86.5t-74.5 52t-79.5 17.5h-110v25h110q37 0 79.5 15t74.5 48t38 85h25v-329h-25zM985 350h25v-350h-925v25h131v970h-131v25h916v-310h-25q-8 100 -48.5 163t-101 92.5t-127.5 29.5h-221v-970h190q87 0 156 31t111.5 102.5t49.5 191.5zM535 1220
l-232 250l13 12l296 -142l295 142l14 -12l-232 -250h-154z" />
    <glyph glyph-name="ecircumflex.sc" horiz-adv-x="1120" 
d="M724 377q-6 52 -38 86.5t-74.5 52t-79.5 17.5h-110v25h110q37 0 79.5 15t74.5 48t38 85h25v-329h-25zM985 350h25v-350h-925v25h131v970h-131v25h916v-310h-25q-8 100 -48.5 163t-101 92.5t-127.5 29.5h-221v-970h190q87 0 156 31t111.5 102.5t49.5 191.5zM315 1224
l-12 14l232 250h154l232 -250l-13 -14l-297 144z" />
    <glyph glyph-name="edieresis.sc" horiz-adv-x="1120" 
d="M724 377q-6 52 -38 86.5t-74.5 52t-79.5 17.5h-110v25h110q37 0 79.5 15t74.5 48t38 85h25v-329h-25zM985 350h25v-350h-925v25h131v970h-131v25h916v-310h-25q-8 100 -48.5 163t-101 92.5t-127.5 29.5h-221v-970h190q87 0 156 31t111.5 102.5t49.5 191.5zM786 1207
q-44 0 -75.5 31.5t-31.5 76.5q0 44 31.5 76t75.5 32q45 0 76.5 -32t31.5 -76q0 -45 -31.5 -76.5t-76.5 -31.5zM434 1207q-45 0 -76.5 31.5t-31.5 76.5q0 44 31.5 76t76.5 32t76.5 -32t31.5 -76q0 -45 -31.5 -76.5t-76.5 -31.5z" />
    <glyph glyph-name="egrave.sc" horiz-adv-x="1120" 
d="M724 377q-6 52 -38 86.5t-74.5 52t-79.5 17.5h-110v25h110q37 0 79.5 15t74.5 48t38 85h25v-329h-25zM985 350h25v-350h-925v25h131v970h-131v25h916v-310h-25q-8 100 -48.5 163t-101 92.5t-127.5 29.5h-221v-970h190q87 0 156 31t111.5 102.5t49.5 191.5zM691 1202
l-273 105q-36 10 -56 36.5t-22.5 59t14.5 58.5q15 23 45.5 35t65 4t59.5 -45l181 -236z" />
    <glyph glyph-name="eogonek.sc" horiz-adv-x="1120" 
d="M724 377q-6 52 -38 86.5t-74.5 52t-79.5 17.5h-110v25h110q37 0 79.5 15t74.5 48t38 85h25v-329h-25zM985 350h25v-350h-925v25h131v970h-131v25h916v-310h-25q-8 100 -48.5 163t-101 92.5t-127.5 29.5h-221v-970h190q87 0 156 31t111.5 102.5t49.5 191.5zM807 -435
q-60 0 -113 18t-87 56t-34 98t29.5 108t77.5 85.5t104 64t109 42.5l8 -16q-24 -14 -45.5 -47t-35 -82t-13.5 -110q0 -72 28.5 -115t74.5 -43q45 0 72 28.5t50 68.5l17 -11q-15 -28 -41 -62t-73.5 -58.5t-127.5 -24.5z" />
    <glyph glyph-name="f.sc" horiz-adv-x="1040" 
d="M744 346q-11 63 -65 105.5t-136 42.5h-111v24h111q82 0 136 37t65 100h25v-309h-25zM980 1020v-310h-25q-7 92 -47.5 155.5t-103.5 96.5t-137 33h-189v-970h149v-25h-542v25h131v970h-131v25h895z" />
    <glyph glyph-name="g.sc" horiz-adv-x="1230" 
d="M630 -20q-88 0 -179.5 27.5t-169 89.5t-124.5 163.5t-47 249.5t48 249.5t125.5 163.5t166 89.5t169.5 27.5t151.5 -33.5t125 -87t89 -114t43.5 -115.5h-25q-11 54 -44 110t-80.5 102t-104 74.5t-116.5 28.5q-84 0 -141.5 -58.5t-87.5 -169t-30 -267.5q0 -156 32 -269
t86.5 -174t122.5 -61q42 0 71.5 19t49.5 47.5t31.5 58t17.5 49.5v247h254v-167q-33 -63 -90 -127.5t-141.5 -108.5t-202.5 -44zM649 416v28h516v-28h-516zM1028 690q-19 47 -41.5 86.5t-51.5 76.5t-69 77l140 90h22v-330z" />
    <glyph glyph-name="gbreve.sc" horiz-adv-x="1230" 
d="M630 -20q-88 0 -179.5 27.5t-169 89.5t-124.5 163.5t-47 249.5t48 249.5t125.5 163.5t166 89.5t169.5 27.5t151.5 -33.5t125 -87t89 -114t43.5 -115.5h-25q-11 54 -44 110t-80.5 102t-104 74.5t-116.5 28.5q-84 0 -141.5 -58.5t-87.5 -169t-30 -267.5q0 -156 32 -269
t86.5 -174t122.5 -61q42 0 71.5 19t49.5 47.5t31.5 58t17.5 49.5v247h254v-167q-33 -63 -90 -127.5t-141.5 -108.5t-202.5 -44zM649 416v28h516v-28h-516zM1028 690q-19 47 -41.5 86.5t-51.5 76.5t-69 77l140 90h22v-330zM619 1200q-87 0 -138 39.5t-72.5 106t-21.5 148.5
h18q0 -48 31 -78t80 -44t103 -14t103 14t80 44t31 78h18q0 -82 -21.5 -148.5t-72.5 -106t-138 -39.5z" />
    <glyph glyph-name="h.sc" horiz-adv-x="1402" 
d="M937 0v1020h263v-1020h-263zM85 0v25h527v-25h-527zM216 0v1020h262v-1020h-262zM802 0v25h527v-25h-527zM407 517v25h570v-25h-570zM85 995v25h527v-25h-527zM802 995v25h527v-25h-527z" />
    <glyph glyph-name="i.sc" horiz-adv-x="792" 
d="M256 0v1020h261v-1020h-261zM85 0v25h622v-25h-622zM85 995v25h622v-25h-622z" />
    <glyph glyph-name="iacute.sc" horiz-adv-x="792" 
d="M256 0v1020h261v-1020h-261zM85 0v25h622v-25h-622zM85 995v25h622v-25h-622zM310 1202l-14 17l181 236q25 37 59 45t65 -4t46 -35q16 -26 13.5 -58.5t-22.5 -59t-55 -36.5z" />
    <glyph glyph-name="icircumflex.sc" horiz-adv-x="792" 
d="M256 0v1020h261v-1020h-261zM85 0v25h622v-25h-622zM85 995v25h622v-25h-622zM95 1224l-12 14l232 250h154l232 -250l-13 -14l-297 144z" />
    <glyph glyph-name="idieresis.sc" horiz-adv-x="792" 
d="M256 0v1020h261v-1020h-261zM85 0v25h622v-25h-622zM85 995v25h622v-25h-622zM566 1207q-44 0 -75.5 31.5t-31.5 76.5q0 44 31.5 76t75.5 32q45 0 76.5 -32t31.5 -76q0 -45 -31.5 -76.5t-76.5 -31.5zM214 1207q-45 0 -76.5 31.5t-31.5 76.5q0 44 31.5 76t76.5 32
t76.5 -32t31.5 -76q0 -45 -31.5 -76.5t-76.5 -31.5z" />
    <glyph glyph-name="igrave.sc" horiz-adv-x="792" 
d="M256 0v1020h261v-1020h-261zM85 0v25h622v-25h-622zM85 995v25h622v-25h-622zM471 1202l-273 105q-36 10 -56 36.5t-22.5 59t14.5 58.5q15 23 45.5 35t65 4t59.5 -45l181 -236z" />
    <glyph glyph-name="ij.sc" horiz-adv-x="1736" 
d="M256 0v1020h261v-1020h-261zM85 0v25h622v-25h-622zM85 995v25h622v-25h-622zM1097 -20q-91 0 -159.5 34.5t-107 94t-38.5 132.5q0 80 50 130.5t119 50.5q62 0 110.5 -35.5t48.5 -113.5q0 -61 -48.5 -103.5t-108.5 -42.5q-29 0 -58.5 10.5t-54.5 28t-40.5 37.5t-15.5 38
h23q0 -52 21 -95t57 -74t83.5 -48t100.5 -17q75 0 113.5 65t52.5 177t14 251v520h262v-709q-19 -49 -54 -106t-87.5 -108.5t-123 -84t-159.5 -32.5zM1019 995v25h652v-25h-652z" />
    <glyph glyph-name="j.sc" horiz-adv-x="944" 
d="M305 -20q-91 0 -159.5 34.5t-107 94t-38.5 132.5q0 80 50 130.5t119 50.5q62 0 110.5 -35.5t48.5 -113.5q0 -61 -48.5 -103.5t-108.5 -42.5q-29 0 -58.5 10.5t-54.5 28t-40.5 37.5t-15.5 38h23q0 -52 21 -95t57 -74t83.5 -48t100.5 -17q75 0 113.5 65t52.5 177t14 251
v520h262v-709q-19 -49 -54 -106t-87.5 -108.5t-123 -84t-159.5 -32.5zM227 995v25h652v-25h-652z" />
    <glyph glyph-name="k.sc" horiz-adv-x="1289" 
d="M271 244l758 772h36l-758 -772h-36zM85 0v25h518v-25h-518zM216 0v1020h262v-1020h-262zM718 0v25h551v-25h-551zM871 0l-306 537l184 187l434 -724h-312zM85 995v25h542v-25h-542zM831 995v25h381v-25h-381z" />
    <glyph glyph-name="l.sc" horiz-adv-x="1036" 
d="M85 0v25h131v970h-131v25h523v-25h-130v-970h115q107 0 178.5 23.5t116 66.5t68.5 102.5t35 132.5h25v-350h-931z" />
    <glyph glyph-name="lacute.sc" horiz-adv-x="1036" 
d="M85 0v25h131v970h-131v25h523v-25h-130v-970h115q107 0 178.5 23.5t116 66.5t68.5 102.5t35 132.5h25v-350h-931zM262 1202l-14 17l181 236q25 37 59 45t65 -4t46 -35q16 -26 13.5 -58.5t-22.5 -59t-55 -36.5z" />
    <glyph glyph-name="lcaron.sc" horiz-adv-x="1036" 
d="M85 0v25h131v970h-131v25h523v-25h-130v-970h115q107 0 178.5 23.5t116 66.5t68.5 102.5t35 132.5h25v-350h-931zM708 524v23q70 0 126 28.5t93.5 78.5t52.5 115.5t1 138.5h8q2 -29 -16 -58.5t-50.5 -48.5t-71.5 -19q-69 0 -104 39.5t-35 93.5q0 56 43 95t105 39
q63 0 108.5 -53t45.5 -150q0 -84 -36.5 -157.5t-104.5 -119t-165 -45.5z" />
    <glyph glyph-name="lslash.sc" horiz-adv-x="1036" 
d="M85 421v30l596 289v-29zM85 0v25h131v970h-131v25h523v-25h-130v-970h115q107 0 178.5 23.5t116 66.5t68.5 102.5t35 132.5h25v-350h-931z" />
    <glyph glyph-name="m.sc" horiz-adv-x="1544" 
d="M636 -20l-439 1040h265l334 -767l293 767h26l-388 -1040h-91zM95 0v25h206v-25h-206zM185 0v995h-100v25h126v-1020h-26zM1015 0v25h462v-25h-462zM1107 0v1020h352v-25h-90v-995h-262z" />
    <glyph glyph-name="n.sc" horiz-adv-x="1277" 
d="M971 -20l-718 1040h311l455 -646v646h26v-1040h-74zM85 0v25h353v-25h-353zM246 0v995h-161v25h187v-1020h-26zM848 995v25h359v-25h-359z" />
    <glyph glyph-name="nacute.sc" horiz-adv-x="1277" 
d="M971 -20l-718 1040h311l455 -646v646h26v-1040h-74zM85 0v25h353v-25h-353zM246 0v995h-161v25h187v-1020h-26zM848 995v25h359v-25h-359zM616 1202l-14 17l181 236q25 37 59 45t65 -4t46 -35q16 -26 13.5 -58.5t-22.5 -59t-55 -36.5z" />
    <glyph glyph-name="ncaron.sc" horiz-adv-x="1277" 
d="M971 -20l-718 1040h311l455 -646v646h26v-1040h-74zM85 0v25h353v-25h-353zM246 0v995h-161v25h187v-1020h-26zM848 995v25h359v-25h-359zM620 1220l-232 250l13 12l296 -142l295 142l14 -12l-232 -250h-154z" />
    <glyph glyph-name="eng.sc" horiz-adv-x="1396" 
d="M838 -520q-86 0 -148.5 31.5t-96.5 84t-34 114.5q0 69 42 108.5t102 39.5q34 0 66 -15.5t53.5 -45.5t21.5 -74q0 -51 -37 -92t-100 -41q-38 0 -71.5 16.5t-54 43.5t-20.5 60h23q0 -56 32 -103t88 -75.5t129 -28.5q71 0 104 47.5t43 126t8.5 173.5t-1.5 190v662l240 37
l-1 -762q0 -97 -24 -186.5t-72.5 -159.5t-121.5 -110.5t-170 -40.5zM67 0v25h512v-25h-512zM207 0v995h-140v25h374v-1020h-234zM424 551q0 71 25.5 155t79 160t136.5 124.5t198 48.5q134 0 214 -38.5t115 -106.5t35 -155l-240 -37q0 86 -21.5 147.5t-64 95t-106.5 33.5
q-77 0 -142 -37.5t-112.5 -100t-73.5 -138t-26 -151.5h-17z" />
    <glyph glyph-name="ntilde.sc" horiz-adv-x="1277" 
d="M971 -20l-718 1040h311l455 -646v646h26v-1040h-74zM85 0v25h353v-25h-353zM246 0v995h-161v25h187v-1020h-26zM848 995v25h359v-25h-359zM862 1188q-57 0 -103 24t-86.5 55t-82.5 55t-91 24q-51 0 -88 -30.5t-37 -95.5h-25q0 85 26.5 147.5t72.5 96.5t104 34
q60 0 104.5 -24t82.5 -55t75 -55t81 -24q58 0 91.5 30.5t33.5 95.5h25q0 -95 -17.5 -156.5t-57.5 -91.5t-108 -30z" />
    <glyph glyph-name="o.sc" horiz-adv-x="1269" 
d="M634 -20q-158 0 -283 64.5t-198 183.5t-73 282t77 282t203 183.5t274 64.5t274.5 -64.5t203.5 -183.5t77 -282t-73 -282t-199 -183.5t-283 -64.5zM634 3q73 0 124 39t82 108.5t45.5 161.5t14.5 198t-17 198t-50.5 161.5t-83.5 108.5t-115 39t-115 -39t-83 -108.5
t-50 -161.5t-17 -198t14.5 -198t45.5 -161.5t81.5 -108.5t123.5 -39z" />
    <glyph glyph-name="oacute.sc" horiz-adv-x="1269" 
d="M634 -20q-158 0 -283 64.5t-198 183.5t-73 282t77 282t203 183.5t274 64.5t274.5 -64.5t203.5 -183.5t77 -282t-73 -282t-199 -183.5t-283 -64.5zM634 3q73 0 124 39t82 108.5t45.5 161.5t14.5 198t-17 198t-50.5 161.5t-83.5 108.5t-115 39t-115 -39t-83 -108.5
t-50 -161.5t-17 -198t14.5 -198t45.5 -161.5t81.5 -108.5t123.5 -39zM553 1202l-14 17l181 236q25 37 59 45t65 -4t46 -35q16 -26 13.5 -58.5t-22.5 -59t-55 -36.5z" />
    <glyph glyph-name="ocircumflex.sc" horiz-adv-x="1269" 
d="M634 -20q-158 0 -283 64.5t-198 183.5t-73 282t77 282t203 183.5t274 64.5t274.5 -64.5t203.5 -183.5t77 -282t-73 -282t-199 -183.5t-283 -64.5zM634 3q73 0 124 39t82 108.5t45.5 161.5t14.5 198t-17 198t-50.5 161.5t-83.5 108.5t-115 39t-115 -39t-83 -108.5
t-50 -161.5t-17 -198t14.5 -198t45.5 -161.5t81.5 -108.5t123.5 -39zM338 1224l-12 14l232 250h154l232 -250l-13 -14l-297 144z" />
    <glyph glyph-name="odieresis.sc" horiz-adv-x="1269" 
d="M634 -20q-158 0 -283 64.5t-198 183.5t-73 282t77 282t203 183.5t274 64.5t274.5 -64.5t203.5 -183.5t77 -282t-73 -282t-199 -183.5t-283 -64.5zM634 3q73 0 124 39t82 108.5t45.5 161.5t14.5 198t-17 198t-50.5 161.5t-83.5 108.5t-115 39t-115 -39t-83 -108.5
t-50 -161.5t-17 -198t14.5 -198t45.5 -161.5t81.5 -108.5t123.5 -39zM809 1207q-44 0 -75.5 31.5t-31.5 76.5q0 44 31.5 76t75.5 32q45 0 76.5 -32t31.5 -76q0 -45 -31.5 -76.5t-76.5 -31.5zM457 1207q-45 0 -76.5 31.5t-31.5 76.5q0 44 31.5 76t76.5 32t76.5 -32t31.5 -76
q0 -45 -31.5 -76.5t-76.5 -31.5z" />
    <glyph glyph-name="ograve.sc" horiz-adv-x="1269" 
d="M634 -20q-158 0 -283 64.5t-198 183.5t-73 282t77 282t203 183.5t274 64.5t274.5 -64.5t203.5 -183.5t77 -282t-73 -282t-199 -183.5t-283 -64.5zM634 3q73 0 124 39t82 108.5t45.5 161.5t14.5 198t-17 198t-50.5 161.5t-83.5 108.5t-115 39t-115 -39t-83 -108.5
t-50 -161.5t-17 -198t14.5 -198t45.5 -161.5t81.5 -108.5t123.5 -39zM714 1202l-273 105q-36 10 -56 36.5t-22.5 59t14.5 58.5q15 23 45.5 35t65 4t59.5 -45l181 -236z" />
    <glyph glyph-name="ohungarumlaut.sc" horiz-adv-x="1269" 
d="M634 -20q-158 0 -283 64.5t-198 183.5t-73 282t77 282t203 183.5t274 64.5t274.5 -64.5t203.5 -183.5t77 -282t-73 -282t-199 -183.5t-283 -64.5zM634 3q73 0 124 39t82 108.5t45.5 161.5t14.5 198t-17 198t-50.5 161.5t-83.5 108.5t-115 39t-115 -39t-83 -108.5
t-50 -161.5t-17 -198t14.5 -198t45.5 -161.5t81.5 -108.5t123.5 -39zM334 1201l-14 17l181 236q25 37 59 45t65 -4t46 -35q16 -26 13.5 -58.5t-22.5 -59t-55 -36.5zM774 1201l-14 17l181 236q25 37 59 45t65 -4t46 -35q16 -26 13.5 -58.5t-22.5 -59t-55 -36.5z" />
    <glyph glyph-name="oslash.sc" horiz-adv-x="1269" 
d="M119 -60l1004 1141h29l-1003 -1141h-30zM634 -20q-158 0 -283 64.5t-198 183.5t-73 282t77 282t203 183.5t274 64.5t274.5 -64.5t203.5 -183.5t77 -282t-73 -282t-199 -183.5t-283 -64.5zM634 3q73 0 124 39t82 108.5t45.5 161.5t14.5 198t-17 198t-50.5 161.5
t-83.5 108.5t-115 39t-115 -39t-83 -108.5t-50 -161.5t-17 -198t14.5 -198t45.5 -161.5t81.5 -108.5t123.5 -39z" />
    <glyph glyph-name="otilde.sc" horiz-adv-x="1269" 
d="M634 -20q-158 0 -283 64.5t-198 183.5t-73 282t77 282t203 183.5t274 64.5t274.5 -64.5t203.5 -183.5t77 -282t-73 -282t-199 -183.5t-283 -64.5zM634 3q73 0 124 39t82 108.5t45.5 161.5t14.5 198t-17 198t-50.5 161.5t-83.5 108.5t-115 39t-115 -39t-83 -108.5
t-50 -161.5t-17 -198t14.5 -198t45.5 -161.5t81.5 -108.5t123.5 -39zM800 1188q-57 0 -103 24t-86.5 55t-82.5 55t-91 24q-51 0 -88 -30.5t-37 -95.5h-25q0 85 26.5 147.5t72.5 96.5t104 34q60 0 104.5 -24t82.5 -55t75 -55t81 -24q58 0 91.5 30.5t33.5 95.5h25
q0 -95 -17.5 -156.5t-57.5 -91.5t-108 -30z" />
    </font>
</defs>
</svg>
