<?xml version="1.0" standalone="no"?>
<!DOCTYPE svg PUBLIC "-//W3C//DTD SVG 1.1//EN" "http://www.w3.org/Graphics/SVG/1.1/DTD/svg11.dtd" >
<svg xmlns="http://www.w3.org/2000/svg" xmlns:xlink="http://www.w3.org/1999/xlink" version="1.1">
<metadata>
Created by FontForge 20170731 at Sun Nov 22 11:20:21 2020
 By Aleksey,,,
Copyright 2020 The Bodoni Moda Project Authors (https://github.com/indestructible-type)
</metadata>
<defs>
<font id="BodoniModa18pt-Bold" horiz-adv-x="0" >
  <font-face 
    font-family="Bodoni Moda 18pt"
    font-weight="700"
    font-stretch="normal"
    units-per-em="2000"
    panose-1="0 0 0 0 0 0 0 0 0 0"
    ascent="1600"
    descent="-400"
    x-height="920"
    cap-height="1500"
    bbox="-421 -722 2950 2099"
    underline-thickness="50"
    underline-position="-175"
    unicode-range="U+000D-FB02"
  />
<missing-glyph horiz-adv-x="1200" 
d="M213 0v1500h774v-1500h-774zM253 39h694v1422h-694v-1422zM601 443q-56 0 -56 69q0 13 1 21q5 38 12.5 61t13.5 49t8 71q-38 -24 -57 -42.5t-35.5 -36.5t-46.5 -41q-5 -4 -9.5 -6.5t-8.5 -5.5q-59 -33 -87 15q-29 49 31 83q11 7 18 10q36 14 59.5 19.5t49 12.5t65.5 28
q-40 21 -65.5 28.5t-49 13t-59.5 19.5q-7 3 -18 10q-60 34 -31 83q28 48 87 14q4 -2 8.5 -4.5t9.5 -6.5q30 -23 46.5 -41t35.5 -36.5t57 -42.5q-2 45 -8 70.5t-13.5 49t-12.5 61.5q-1 7 -1 20q0 69 56 69q57 0 57 -69q0 -13 -1 -20q-6 -38 -13 -61.5t-13 -49t-9 -70.5
q39 24 58 42.5t35.5 36.5t46.5 41q5 4 9 6.5t8 4.5q60 34 88 -14q29 -49 -31 -83q-11 -7 -19 -10q-35 -14 -58.5 -19.5t-49 -13t-65.5 -28.5q40 -21 65.5 -28t49 -12.5t58.5 -19.5q8 -3 19 -10q60 -34 31 -83q-28 -48 -88 -15q-4 3 -8 5.5t-9 6.5q-30 23 -46.5 41
t-35.5 36.5t-58 42.5q3 -45 9 -71t13 -49t13 -61q1 -8 1 -21q0 -69 -57 -69z" />
    <glyph glyph-name="fi" unicode="fi" horiz-adv-x="1287" 
d="M214 0v1023q0 117 42.5 209t118 156.5t175 98t213.5 33.5q91 0 170 -30t127.5 -80.5t48.5 -112.5q0 -80 -47.5 -124.5t-112.5 -44.5q-56 0 -106 38t-50 116q0 48 23.5 83t59.5 54t73 19q59 0 108.5 -38.5t49.5 -102.5h-23q0 56 -46 100.5t-119 71t-156 26.5
q-90 0 -152 -48.5t-94.5 -141.5t-32.5 -225v-1080h-270zM41 0v25h1201v-25h-1201zM822 0v895h-781v25h1061v-920h-280z" />
    <glyph glyph-name="fl" unicode="fl" horiz-adv-x="1388" 
d="M214 0v1023q0 144 62 256t171 176.5t251 64.5q90 0 152 -33t94.5 -84t32.5 -106q0 -80 -47.5 -124.5t-112.5 -44.5q-56 0 -106 38t-50 116q0 72 50 111.5t106 39.5q60 0 109 -36t49 -100h-23q0 51 -31 96t-88 73.5t-135 28.5q-70 0 -117.5 -51t-72 -144t-24.5 -220v-1080
h-270zM41 0v25h1299v-25h-1299zM41 895v25h716v-25h-716zM889 0v1460l280 80v-1540h-280z" />
    <glyph glyph-name="f_f" unicode="ff" horiz-adv-x="1462" 
d="M1338 1520q91 0 152.5 -36t92.5 -88t31 -99q0 -80 -47.5 -124.5t-112.5 -44.5q-56 0 -106 38t-50 116q0 47 22.5 81t57 53.5t70.5 20.5q29 -1 55 -15.5t40 -40.5q-21 45 -73 79.5t-132 34.5q-72 0 -119.5 -51t-71 -144t-23.5 -220v-160h280v-25h-280v-870h240v-25h-1323
v25h813v870h-813v25h813v103q0 141 60 253.5t168.5 178t255.5 65.5zM718 1420q91 0 163.5 -33t115 -85.5t42.5 -109.5q0 -80 -47.5 -124.5t-112.5 -44.5q-56 0 -106 38t-50 116q0 42 23 76t58.5 54t71.5 21q32 -1 61 -19t41 -47q-17 38 -55 68t-88.5 47.5t-106.5 17.5
q-82 0 -136.5 -51t-81 -144t-26.5 -220v-968h-270v911q0 139 63.5 251.5t177 179t263.5 66.5z" />
    <glyph glyph-name="f_f_i" unicode="ffi" horiz-adv-x="1900" 
d="M1442 0v895h-1401v25h1681v-920h-280zM41 0v25h1814v-25h-1814zM214 0v923q0 104 36.5 194.5t103 158t155.5 106t194 38.5q104 0 179 -32t116 -84t41 -112q0 -80 -47.5 -124.5t-112.5 -44.5q-56 0 -106 38t-50 116q0 72 50 111.5t106 39.5q40 0 76 -21.5t59 -53t23 -61.5
h-23q0 58 -39.5 103.5t-104.5 72t-142 26.5q-75 0 -129.5 -45.5t-84.5 -137.5t-30 -231v-980h-270zM834 0v1023q0 144 66 256t187 176.5t286 64.5q109 0 189 -33t123.5 -84t43.5 -106q0 -80 -47.5 -124.5t-112.5 -44.5q-56 0 -106 38t-50 116q0 72 50 111.5t106 39.5
q59 0 108.5 -36t49.5 -100h-23q0 50 -42.5 95t-117 74t-171.5 29q-90 0 -149.5 -51t-89.5 -144t-30 -220v-1080h-270z" />
    <glyph glyph-name="f_f_l" unicode="ffl" horiz-adv-x="2025" 
d="M41 0v25h813v870h-813v25h813v103q0 146 62.5 258.5t171 175.5t245.5 63q89 0 154 -31.5t101 -81.5t36 -105q0 -80 -47.5 -124.5t-112.5 -44.5q-56 0 -106 38t-50 116q0 69 47.5 108.5t102.5 41.5q35 0 68.5 -24t44.5 -56q-19 55 -79.5 95.5t-143.5 40.5
q-77 0 -127 -50.5t-73.5 -143t-23.5 -219.5v-160h280v-25h-280v-870h852v-25h-1935zM214 13v910q0 139 63.5 251.5t174.5 179t256 66.5q104 0 178 -34t113.5 -86.5t39.5 -107.5q0 -80 -47.5 -124.5t-112.5 -44.5q-56 0 -106 38t-50 116q0 71 49 110.5t104 40.5q29 -1 55 -15
t40 -37q-28 48 -92 82.5t-146 34.5q-80 0 -135.5 -50t-84.5 -143t-29 -220v-967h-270zM1529 13v1447l280 80v-1527h-280z" />
    <glyph glyph-name="f_j.liga" unicode="fj" horiz-adv-x="1239" 
d="M640 -520q-88 0 -156 32t-106.5 86t-38.5 120q0 73 48 118.5t116 45.5q40 0 77 -18.5t60.5 -52.5t23.5 -82q0 -60 -42 -104.5t-115 -44.5q-44 0 -81.5 20t-61 51.5t-23.5 66.5h23q0 -60 36.5 -108.5t95.5 -76.5t128 -28q71 0 108 47.5t51 125.5t15 172.5t1 189.5v855
h-758v25h1037v-943q0 -98 -31.5 -187.5t-90 -159t-138.5 -110t-178 -40.5zM41 0v25h653v-25h-653zM214 0v1023q0 141 63.5 253.5t184 178t290.5 65.5q108 0 181 -35.5t109.5 -88t36.5 -104.5q0 -80 -49.5 -122t-110.5 -42q-35 0 -71 15.5t-60.5 48.5t-24.5 85
q0 72 47.5 111.5t103.5 39.5q40 0 77.5 -16t61.5 -46.5t24 -73.5h-23q0 48 -35 94t-99 76.5t-153 30.5q-100 0 -162.5 -50.5t-91.5 -143t-29 -219.5v-1080h-270z" />
    <glyph glyph-name=".notdef" horiz-adv-x="1200" 
d="M213 0v1500h774v-1500h-774zM253 39h694v1422h-694v-1422zM601 443q-56 0 -56 69q0 13 1 21q5 38 12.5 61t13.5 49t8 71q-38 -24 -57 -42.5t-35.5 -36.5t-46.5 -41q-5 -4 -9.5 -6.5t-8.5 -5.5q-59 -33 -87 15q-29 49 31 83q11 7 18 10q36 14 59.5 19.5t49 12.5t65.5 28
q-40 21 -65.5 28.5t-49 13t-59.5 19.5q-7 3 -18 10q-60 34 -31 83q28 48 87 14q4 -2 8.5 -4.5t9.5 -6.5q30 -23 46.5 -41t35.5 -36.5t57 -42.5q-2 45 -8 70.5t-13.5 49t-12.5 61.5q-1 7 -1 20q0 69 56 69q57 0 57 -69q0 -13 -1 -20q-6 -38 -13 -61.5t-13 -49t-9 -70.5
q39 24 58 42.5t35.5 36.5t46.5 41q5 4 9 6.5t8 4.5q60 34 88 -14q29 -49 -31 -83q-11 -7 -19 -10q-35 -14 -58.5 -19.5t-49 -13t-65.5 -28.5q40 -21 65.5 -28t49 -12.5t58.5 -19.5q8 -3 19 -10q60 -34 31 -83q-28 -48 -88 -15q-4 3 -8 5.5t-9 6.5q-30 23 -46.5 41
t-35.5 36.5t-58 42.5q3 -45 9 -71t13 -49t13 -61q1 -8 1 -21q0 -69 -57 -69z" />
    <glyph glyph-name=".null" 
 />
    <glyph glyph-name="nonmarkingreturn" horiz-adv-x="666" 
 />
    <glyph glyph-name="CR" unicode="&#xd;" horiz-adv-x="500" 
 />
    <glyph glyph-name="space" unicode=" " horiz-adv-x="500" 
 />
    <glyph glyph-name="exclam" unicode="!" horiz-adv-x="755" 
d="M364 516q0 94 -22.5 184t-52.5 181.5t-56.5 189.5t-34.5 207v20v18q0 84 43 142t135 58q94 0 137.5 -58t43.5 -142q0 -9 -1 -18t-2 -20q-8 -109 -34 -207t-56.5 -189.5t-52.5 -181.5t-22 -184h-25zM378 -20q-49 0 -90 24.5t-65.5 65.5t-24.5 90q0 50 24.5 91t65.5 65.5
t90 24.5q50 0 91 -24.5t65 -65.5t24 -91q0 -49 -24 -90t-65 -65.5t-91 -24.5z" />
    <glyph glyph-name="quotedbl" unicode="&#x22;" horiz-adv-x="959" 
d="M688 906q0 83 -19 137.5t-46 96.5t-50 84t-31 98q-1 11 -1.5 19t-0.5 17q0 74 47 118t113 44q67 0 113.5 -44t46.5 -118v-17t-2 -19q-8 -56 -31 -98t-50 -84t-46 -96.5t-19 -137.5h-24zM248 906q0 83 -19 137.5t-46 96.5t-50 84t-31 98q-1 11 -1.5 19t-0.5 17
q0 74 47 118t113 44q67 0 113.5 -44t46.5 -118v-17t-2 -19q-8 -56 -31 -98t-50 -84t-46 -96.5t-19 -137.5h-24z" />
    <glyph glyph-name="numbersign" unicode="#" horiz-adv-x="1269" 
d="M704 -12l200 1520l25 2l-200 -1520zM60 490v24h1090v-24h-1090zM321 -10l200 1520h25l-200 -1520h-25zM120 1016v25h1090v-25h-1090z" />
    <glyph glyph-name="dollar" unicode="$" horiz-adv-x="1189" 
d="M600 -29q-178 0 -299.5 53.5t-183 132t-61.5 153.5q0 81 46 137.5t123 56.5q39 0 76 -19t62 -55t25 -88q0 -47 -23.5 -83.5t-61 -57t-79.5 -20.5q-39 0 -77.5 15.5t-63.5 44.5t-25 69l25 -6q0 -68 58.5 -140t172 -121.5t280.5 -49.5q153 0 230 75t77 201q0 86 -43 143
t-113.5 97.5t-154.5 75.5t-168.5 76t-155 98t-113.5 142t-43 209q0 94 40.5 169.5t109.5 129.5t155.5 82.5t178.5 28.5q118 0 222 -42.5t168.5 -114.5t64.5 -160q0 -71 -43 -124t-121 -53q-37 0 -74.5 19t-62.5 54t-25 84q0 68 45 112t110 44q40 0 79 -17.5t64.5 -48
t25.5 -70.5h-23q0 83 -61 149.5t-158.5 105.5t-208.5 39q-97 0 -158 -30t-89.5 -82.5t-28.5 -120.5q0 -77 43 -130t113 -92.5t154.5 -75t168.5 -77t154.5 -99.5t113 -142.5t42.5 -207.5q0 -144 -65 -249.5t-180 -162.5t-264 -57zM477 -160v1820h25v-1820h-25zM637 -160v1820
h25v-1820h-25z" />
    <glyph glyph-name="percent" unicode="%" horiz-adv-x="2039" 
d="M485 0l1041 1500h29l-1041 -1500h-29zM510 640q-85 0 -163.5 28.5t-141 84.5t-99 138t-36.5 189t36.5 189t99 138t141 84.5t163.5 28.5t164 -28.5t141 -84.5t98.5 -138t36.5 -189t-41.5 -189t-108.5 -138t-143.5 -84.5t-146.5 -28.5zM510 665q37 0 62 27t40 80
t21.5 130.5t6.5 177.5q0 101 -6.5 178t-21.5 130t-40 80t-62 27q-36 0 -61 -27t-40.5 -80t-22 -130t-6.5 -178q0 -100 6.5 -177.5t22 -130.5t40.5 -80t61 -27zM1529 -20q-84 0 -163 28.5t-141 84.5t-98.5 138t-36.5 189t36.5 189t98.5 138t141 84.5t163 28.5q85 0 164 -28.5
t141.5 -84.5t99 -138t36.5 -189t-42 -189t-108.5 -138t-143.5 -84.5t-147 -28.5zM1529 5q37 0 62 27t40.5 80t22 130.5t6.5 177.5q0 101 -6.5 178t-22 130t-40.5 80t-62 27q-36 0 -61 -27t-40 -80t-21.5 -130t-6.5 -178q0 -100 6.5 -177.5t21.5 -130.5t40 -80t61 -27z" />
    <glyph glyph-name="ampersand" unicode="&#x26;" horiz-adv-x="1722" 
d="M1080 0l-662 980q-39 57 -65.5 125.5t-26.5 120.5q0 90 59.5 156t165.5 102t247 36q132 0 230 -30t151.5 -85t53.5 -130q0 -70 -34 -122t-93 -92t-135 -72t-161 -63l-13 17q28 20 59.5 53.5t53.5 99.5t22 179q0 55 -11.5 106t-41.5 84t-86 33q-54 0 -87.5 -28t-48.5 -71
t-15 -89q0 -60 41 -147t105 -183l628 -955h252v-25h-588zM568 -20q-158 0 -267.5 47.5t-166 132t-56.5 193.5q0 94 38.5 166t98.5 125t125 89.5t119.5 59t79.5 34.5l11 -18q-48 -27 -81 -66t-50.5 -97t-17.5 -139q0 -82 21.5 -162.5t64.5 -147t106 -106.5t145 -40
q102 0 197.5 46.5t178 129t147.5 191.5t106.5 235.5t54.5 260.5h25q-13 -133 -57 -267t-117.5 -253.5t-176.5 -213t-235 -147t-293 -53.5zM1168 895v25h480v-25h-480z" />
    <glyph glyph-name="quotesingle" unicode="'" horiz-adv-x="519" 
d="M248 906q0 83 -19 137.5t-46 96.5t-50 84t-31 98q-1 11 -1.5 19t-0.5 17q0 74 47 118t113 44q67 0 113.5 -44t46.5 -118v-17t-2 -19q-8 -56 -31 -98t-50 -84t-46 -96.5t-19 -137.5h-24z" />
    <glyph glyph-name="parenleft" unicode="(" horiz-adv-x="746" 
d="M706 -340q-122 53 -227 148t-183.5 224.5t-122 286t-43.5 331.5q0 233 76 422t206.5 323.5t293.5 204.5l11 -18q-74 -49 -126.5 -146t-86 -225t-49 -272.5t-15.5 -288.5t15.5 -294.5t49 -286.5t86 -239t126.5 -152z" />
    <glyph glyph-name="parenright" unicode=")" horiz-adv-x="752" 
d="M46 -340l-11 18q74 49 126.5 146t86 225t49 272.5t15.5 288.5t-15.5 294.5t-49 286.5t-86 239t-126.5 152l11 18q122 -52 227 -147.5t183.5 -225t122 -286t43.5 -331.5q0 -233 -76 -422t-206.5 -323.5t-293.5 -204.5z" />
    <glyph glyph-name="asterisk" unicode="*" horiz-adv-x="1259" 
d="M630 293q-66 0 -108 44.5t-42 117.5q0 9 0.5 18t1.5 19q7 54 27.5 94t44.5 80t42 91t20 126q-64 -39 -99.5 -80.5t-58 -81.5t-47 -78t-67.5 -72q-8 -7 -15 -11t-15 -9q-64 -36 -123 -22t-92 71q-33 58 -16 116t81 95q8 5 15 8.5t17 7.5q50 21 95.5 23.5t92 1.5t99.5 9
t120 46q-67 35 -120 45t-99.5 9t-92 1.5t-95.5 23.5q-10 4 -17 8.5t-15 8.5q-64 36 -81 94.5t16 115.5q33 58 92 72t123 -23q8 -4 15 -8.5t15 -11.5q43 -33 67.5 -71.5t47 -78.5t58 -81.5t99.5 -80.5q-2 75 -20 126t-42 91t-44.5 80t-27.5 95q-1 11 -1.5 19t-0.5 17
q0 74 42 118t108 44t108 -44t42 -118v-17t-2 -19q-8 -55 -28.5 -95t-44.5 -80t-42 -91t-20 -126q64 39 99.5 80.5t58 81.5t47 78.5t67.5 71.5q8 7 16 11.5t15 8.5q64 37 123 23t92 -72q33 -57 16 -115.5t-81 -94.5q-7 -4 -15 -8.5t-18 -8.5q-50 -21 -95.5 -23.5t-92 -1.5
t-99.5 -9t-120 -45q67 -36 120 -46t99.5 -9.5t92 -2t95.5 -22.5q10 -4 18 -7.5t15 -8.5q64 -37 81 -95t-16 -116q-33 -57 -92 -71t-123 22q-7 5 -15 9t-16 11q-43 34 -67.5 72t-47 78t-58 81.5t-99.5 80.5q2 -75 20 -126t42 -91t44.5 -80t28.5 -94q2 -10 2 -19v-18
q0 -73 -42 -117.5t-108 -44.5z" />
    <glyph glyph-name="plus" unicode="+" horiz-adv-x="1059" 
d="M233 647v250h593v-250h-593zM404 474v594h250v-594h-250z" />
    <glyph glyph-name="comma" unicode="," horiz-adv-x="553" 
d="M76 -306v26q87 0 160 31.5t123.5 89t72.5 136.5t7 175h8q2 -43 -24 -82.5t-69 -64.5t-93 -25q-86 0 -133.5 53.5t-47.5 124.5q0 48 26.5 89t70.5 65t97 24q54 0 100 -30.5t73 -87t27 -134.5q0 -108 -48.5 -196.5t-137.5 -141t-212 -52.5z" />
    <glyph glyph-name="hyphen" unicode="-" horiz-adv-x="719" 
d="M120 538v24h480v-24h-480z" />
    <glyph glyph-name="period" unicode="." horiz-adv-x="519" 
d="M260 -20q-50 0 -90.5 24.5t-65 65.5t-24.5 90t24.5 90.5t65 66t90.5 24.5q49 0 90.5 -24.5t65.5 -66t24 -90.5t-24 -90t-65.5 -65.5t-90.5 -24.5z" />
    <glyph glyph-name="slash" unicode="/" horiz-adv-x="1049" 
d="M80 -300l865 1861h25l-865 -1861h-25z" />
    <glyph glyph-name="zero" unicode="0" horiz-adv-x="1319" 
d="M660 -20q-129 0 -236 58.5t-183.5 163t-118.5 244.5t-42 304t44.5 304t123.5 245t184 163t228 58t228 -58t184.5 -163t123.5 -245t44 -304t-41.5 -304t-118.5 -244.5t-183.5 -163t-236.5 -58.5zM660 3q79 0 124.5 58t68.5 160.5t30 238t7 290.5t-8.5 290.5t-32 238
t-69 160.5t-120.5 58q-70 0 -115 -58t-70 -160.5t-35 -238t-10 -290.5t7 -290.5t30 -238t69.5 -160.5t123.5 -58z" />
    <glyph glyph-name="one" unicode="1" horiz-adv-x="989" 
d="M360 7v1468h-226v25h536v-1493h-310zM100 0v25h790v-25h-790z" />
    <glyph glyph-name="two" unicode="2" horiz-adv-x="1199" 
d="M80 0v200l439 343q126 98 187.5 226t61.5 291q0 115 -35 206.5t-99 145.5t-150 54q-99 0 -183 -47t-132.5 -135t-41.5 -211h-23q0 39 28 73.5t72.5 56t92.5 21.5q45 0 85.5 -22t66.5 -61t26 -89q0 -55 -25 -96t-67.5 -64t-92.5 -23t-92.5 25.5t-68 71.5t-27.5 107
q-7 133 52.5 233.5t174.5 157t271 56.5q154 0 263 -51t167 -137.5t58 -191.5q0 -85 -32 -152.5t-83 -121.5t-111 -99t-117 -86l-476 -381h835v150h25v-450h-1049z" />
    <glyph glyph-name="three" unicode="3" horiz-adv-x="1141" 
d="M512 -20q-154 0 -256.5 50.5t-154 128t-51.5 159.5q0 81 49.5 129.5t120.5 48.5q65 0 111 -44t46 -117q0 -44 -23 -79t-60 -55.5t-80 -20.5q-41 0 -78 19t-60.5 50.5t-23.5 68.5h23q0 -80 49.5 -150t134.5 -112.5t193 -42.5q102 0 165.5 51.5t93 141.5t29.5 204
q0 60 -13.5 127t-50 126.5t-104.5 97t-176 37.5v16q181 0 308 -33t206 -91t115.5 -132.5t36.5 -157.5q0 -97 -45.5 -175t-123.5 -132.5t-176.5 -83.5t-204.5 -29zM396 807v16q101 0 158.5 33t84.5 86t34 113t7 115q0 62 -11.5 119t-35.5 101.5t-62 70.5t-92 26
q-52 0 -111.5 -19t-112.5 -54.5t-87 -84.5t-34 -109h-23q0 43 25.5 75t63.5 50t75 18q43 0 80 -19t60 -54t23 -83q0 -52 -25 -88t-62.5 -54.5t-75.5 -18.5q-42 0 -80 21.5t-62 60.5t-24 92q0 62 37 116t98.5 95t136.5 64t151 23q84 0 167 -21.5t151.5 -63.5t110 -105
t41.5 -146q0 -75 -30 -142.5t-99.5 -120t-186.5 -82.5t-290 -30z" />
    <glyph glyph-name="four" unicode="4" horiz-adv-x="1279" 
d="M540 0v25h190v1315l-616 -897h1146v-25h-1192l742 1082h230v-1475h150v-25h-650z" />
    <glyph glyph-name="five" unicode="5" horiz-adv-x="1069" 
d="M432 -20q-114 0 -207 39.5t-148.5 107t-55.5 151.5q0 85 48.5 134.5t124.5 49.5q68 0 121 -44.5t53 -127.5q0 -50 -24.5 -88t-64.5 -60t-85 -22q-30 0 -60.5 16t-55.5 40.5t-40 52t-15 49.5h24q0 -60 29.5 -110t80.5 -86t113.5 -55.5t128.5 -19.5q86 0 140.5 39.5
t85.5 105t43 142.5t12 151q0 122 -34 215.5t-95 146.5t-142 53q-69 0 -122 -24t-87.5 -58t-50.5 -64h-24q16 37 61.5 82.5t126 79t201.5 33.5q144 0 256 -53.5t175.5 -157t63.5 -253.5q0 -97 -43.5 -181.5t-122 -148t-183.5 -99.5t-228 -36zM114 714v786h801v109h25v-409
h-801v-486h-25z" />
    <glyph glyph-name="six" unicode="6" horiz-adv-x="1219" 
d="M638 -20q-161 0 -282 72.5t-188.5 215t-67.5 352.5q0 182 67.5 344.5t190 287.5t289 196.5t363.5 71.5v-23q-134 0 -241.5 -67t-183 -182t-115.5 -260t-40 -300v-128q0 -117 11.5 -218t36.5 -177t65.5 -118t100.5 -42q59 0 96 38.5t56.5 106.5t26.5 158t7 192
q0 156 -23 253t-67.5 141.5t-108.5 44.5q-72 0 -116.5 -41.5t-64.5 -125.5t-20 -212h-20q0 129 22 224.5t82.5 148t177.5 52.5q84 0 166.5 -28t151 -86.5t109.5 -150.5t41 -220q0 -150 -63 -267.5t-180.5 -185t-278.5 -67.5z" />
    <glyph glyph-name="seven" unicode="7" horiz-adv-x="1079" 
d="M488 -20q-81 0 -136.5 48t-55.5 154q0 59 29 124t76.5 136t102 146.5t104.5 157.5q34 58 73 128t82 149.5t90 166.5h-748v-150h-25v460h980l-27 -51t-72.5 -135t-100 -183.5t-110 -198.5t-102.5 -177q-49 -85 -78 -134t-41.5 -81.5t-12.5 -68.5q0 -47 24.5 -80t56 -63.5
t55.5 -68t24 -93.5q0 -77 -49.5 -131.5t-138.5 -54.5z" />
    <glyph glyph-name="eight" unicode="8" horiz-adv-x="1199" 
d="M600 -20q-263 0 -391.5 110t-128.5 290q0 167 109.5 271t335.5 119q-197 16 -301 107t-104 243q0 110 55 201t162 145t263 54t263.5 -54t162 -145t54.5 -201q0 -152 -103.5 -243t-301.5 -107q226 -15 335.5 -119t109.5 -271q0 -180 -127.5 -290t-392.5 -110zM600 5
q74 0 118 50.5t63 135.5t19 189t-19 189t-63 135.5t-118 50.5t-118 -50.5t-63 -135.5t-19 -189t19 -189t63 -135.5t118 -50.5zM600 786q59 0 94 38t50.5 112.5t15.5 183.5q0 78 -8.5 146t-27 119.5t-49 80.5t-75.5 29q-44 0 -75 -29t-49.5 -80.5t-27 -119.5t-8.5 -146
q0 -109 15.5 -183.5t50.5 -112.5t94 -38z" />
    <glyph glyph-name="nine" unicode="9" horiz-adv-x="1219" 
d="M210 -20v23q135 0 242 67t182.5 182t115.5 260t40 300v128q0 117 -11 218t-36.5 177t-66 118t-100.5 42q-59 0 -95.5 -38.5t-56.5 -106.5t-27 -158t-7 -192q0 -156 23 -253t67.5 -141.5t108.5 -44.5q72 0 116.5 41.5t64.5 125.5t20 212h20q0 -129 -22 -224.5t-82.5 -148
t-177.5 -52.5q-83 0 -166 28.5t-151.5 87t-109.5 150.5t-41 219q0 150 63.5 267.5t180.5 185t278 67.5t282 -72.5t188.5 -215t67.5 -352.5q0 -182 -67.5 -344.5t-190 -287.5t-289 -196.5t-363.5 -71.5z" />
    <glyph glyph-name="colon" unicode=":" horiz-adv-x="517" 
d="M260 720q-50 0 -90.5 24.5t-65 65.5t-24.5 90t24.5 90.5t65 66t90.5 24.5q49 0 90.5 -24.5t65.5 -66t24 -90.5t-24 -90t-65.5 -65.5t-90.5 -24.5zM260 -20q-50 0 -90.5 24.5t-65 65.5t-24.5 90t24.5 90.5t65 66t90.5 24.5q49 0 90.5 -24.5t65.5 -66t24 -90.5t-24 -90
t-65.5 -65.5t-90.5 -24.5z" />
    <glyph glyph-name="semicolon" unicode=";" horiz-adv-x="553" 
d="M262 720q-50 0 -90.5 24.5t-65 65.5t-24.5 90t24.5 90.5t65 66t90.5 24.5q49 0 90.5 -24.5t65.5 -66t24 -90.5t-24 -90t-65.5 -65.5t-90.5 -24.5zM78 -306v26q87 0 160 31.5t123.5 89t72.5 136.5t7 175h8q2 -43 -24 -82.5t-69 -64.5t-93 -25q-86 0 -133.5 53.5
t-47.5 124.5q0 48 26.5 89t70.5 65t97 24q54 0 100 -30.5t73 -87t27 -134.5q0 -108 -48.5 -196.5t-137.5 -141t-212 -52.5z" />
    <glyph glyph-name="less" unicode="&#x3c;" horiz-adv-x="1119" 
d="M120 765v27l880 416v-27zM1000 343l-880 415v27l880 -416v-26z" />
    <glyph glyph-name="equal" unicode="=" horiz-adv-x="1119" 
d="M120 909v24h880v-24h-880zM120 608v24h880v-24h-880z" />
    <glyph glyph-name="greater" unicode="&#x3e;" horiz-adv-x="1119" 
d="M120 1181v26l880 -415v-34l-880 -416v27l859 406z" />
    <glyph glyph-name="question" unicode="?" horiz-adv-x="1169" 
d="M494 488v229q94 30 149.5 89.5t80 140t24.5 173.5q0 71 -7 136.5t-30 117.5t-70 82.5t-126 30.5q-72 0 -137.5 -27t-118 -74t-83.5 -106.5t-31 -122.5h-23q0 43 23.5 76t61 52t77.5 19q43 0 80 -19.5t60.5 -55.5t23.5 -84q0 -52 -25 -88t-63 -54.5t-76 -18.5
q-64 0 -114 46.5t-50 126.5q0 62 32 126t91.5 117.5t142.5 86.5t186 33q154 0 265.5 -50t172 -140t60.5 -210q0 -115 -70.5 -205t-195 -145t-285.5 -64v-218h-25zM538 -20q-49 0 -90 24.5t-65.5 65.5t-24.5 90q0 50 24.5 91t65.5 65.5t90 24.5q50 0 91 -24.5t65 -65.5
t24 -91q0 -49 -24 -90t-65 -65.5t-91 -24.5z" />
    <glyph glyph-name="at" unicode="@" horiz-adv-x="2019" 
d="M838 -428q-137 0 -267 45t-234.5 144.5t-166 262.5t-61.5 398q0 188 53.5 360.5t151 317.5t230 253t291.5 167.5t335 59.5q190 0 329.5 -69t230.5 -183t135.5 -251.5t44.5 -274.5q0 -123 -35 -242t-104.5 -214.5t-174 -152.5t-244.5 -57q-89 0 -142.5 26.5t-78.5 69
t-28 92.5t7 96l144 620h300l-147 -631q-5 -20 -12 -48.5t-10.5 -59t0 -57t20.5 -42.5t51 -16q86 0 163.5 48.5t137 134t94 196.5t34.5 237q0 134 -42.5 267t-130.5 243t-222.5 176.5t-320.5 66.5q-170 0 -325 -58.5t-284 -163.5t-224.5 -247.5t-148 -311t-52.5 -352.5
q0 -230 59.5 -388t160 -254.5t226 -139.5t257.5 -43q161 0 291 32t234.5 96.5t189.5 162.5l17 -16q-126 -147 -306.5 -223.5t-425.5 -76.5zM791 140q-86 0 -154.5 36.5t-108.5 108t-40 175.5q0 113 37.5 219.5t103 192t149.5 136.5t176 51q68 0 111.5 -30.5t67.5 -81
t33.5 -111t9.5 -122.5q0 -116 -27.5 -220t-78 -183.5t-121.5 -125t-158 -45.5zM914 229q42 0 84 36.5t77 101t56 148.5t21 177q0 32 -3 78t-13.5 92.5t-33 77.5t-61.5 31q-40 0 -81 -42.5t-74.5 -114.5t-54.5 -161t-21 -182q0 -67 10.5 -122t33.5 -87.5t60 -32.5z" />
    <glyph glyph-name="A" unicode="A" horiz-adv-x="1587" 
d="M405 474v25h596v-25h-596zM876 1529l522 -1504h149v-25h-685v25h176l-375 1158l-406 -1158h224v-25h-440v25h187l530 1504h118z" />
    <glyph glyph-name="B" unicode="B" horiz-adv-x="1409" 
d="M41 0v25h660q81 0 144 49t99.5 138t36.5 208t-36.5 193.5t-99.5 109.5t-144 35h-220v16h280q156 0 283 -35t202 -117t75 -222q0 -217 -148 -308.5t-412 -91.5h-720zM221 11v1478h310v-1478h-310zM481 766v17h200q71 0 130 32t94.5 103.5t35.5 190.5t-35.5 200.5
t-94.5 123.5t-130 42h-640v25h680q249 0 394.5 -87.5t145.5 -282.5q0 -187 -137.5 -275.5t-402.5 -88.5h-240z" />
    <glyph glyph-name="C" unicode="C" horiz-adv-x="1430" 
d="M809 -20q-223 0 -384 99.5t-248 273.5t-87 397t87 397t248 273.5t384 99.5q93 0 172.5 -32t141.5 -90l170 102h22v-440h-27q-36 126 -102 222.5t-156.5 150.5t-200.5 54q-111 0 -186.5 -63t-120 -169t-64 -237t-19.5 -268q0 -136 19.5 -267.5t64 -237.5t120 -169
t186.5 -63q101 0 179 33.5t137 92t99.5 136t64.5 165.5h26v-440h-23l-155 110q-65 -61 -153 -95.5t-195 -34.5z" />
    <glyph glyph-name="D" unicode="D" horiz-adv-x="1529" 
d="M681 1500q237 0 407.5 -94.5t261.5 -263.5t91 -392q0 -167 -54.5 -304.5t-155 -237.5t-240.5 -154t-310 -54h-640v25h180v1450h-180v25h640zM531 25h150q115 0 194 57t126.5 157.5t68.5 232t21 278.5q0 148 -24 279t-73.5 231.5t-127 157.5t-185.5 57h-150v-1450z" />
    <glyph glyph-name="E" unicode="E" horiz-adv-x="1273" 
d="M41 0v25h180v1450h-180v25h1145v-410h-25q-15 107 -66 194.5t-136.5 139t-202.5 51.5h-225v-1450h205q137 0 230.5 53.5t146.5 149t68 222.5h25v-450h-1165zM851 526q-15 67 -54 121t-91.5 85.5t-109.5 31.5h-130v24h130q57 0 109.5 29t91.5 80.5t54 118.5h25v-490h-25z
" />
    <glyph glyph-name="F" unicode="F" horiz-adv-x="1223" 
d="M851 496q-15 67 -50.5 121t-91.5 85.5t-133 31.5h-130v24h130q77 0 133 29t91.5 80t50.5 118h25v-489h-25zM1156 1500v-410h-25q-15 107 -61 194.5t-124 139t-190 51.5h-225v-1450h200v-25h-690v25h180v1450h-180v25h1115z" />
    <glyph glyph-name="G" unicode="G" horiz-adv-x="1527" 
d="M859 583h641v-26h-101v-247q-48 -51 -103 -108t-123.5 -107.5t-159.5 -82.5t-213 -32q-223 0 -382 95.5t-243.5 268.5t-84.5 406q0 175 57.5 316.5t159.5 243t236 156t286 54.5q87 0 167.5 -30.5t146.5 -82.5l190 93h22v-440h-25q-17 80 -59 155.5t-105 137t-142 97.5
t-168 36q-112 0 -191 -63t-129 -169t-73.5 -236.5t-23.5 -267.5q0 -136 16.5 -269t56 -240.5t110 -172t178.5 -64.5q63 0 108.5 26t77.5 65.5t52 81.5t32 73v307h-211v26z" />
    <glyph glyph-name="H" unicode="H" horiz-adv-x="1601" 
d="M1561 1500v-25h-180v-1450h180v-25h-670v25h180v703h-540v-703h180v-25h-670v25h180v1450h-180v25h670v-25h-180v-723h540v723h-180v25h670z" />
    <glyph glyph-name="I" unicode="I" horiz-adv-x="851" 
d="M41 0v25h220v1450h-220v25h770v-25h-240v-1450h240v-25h-770z" />
    <glyph glyph-name="J" unicode="J" horiz-adv-x="1079" 
d="M1037 1500v-25h-200v-1135q-28 -71 -67.5 -142t-94.5 -129.5t-129.5 -94t-173.5 -35.5q-102 0 -180 34.5t-122.5 94.5t-44.5 135q0 57 24.5 99t65.5 65t89 23q43 0 84 -20t67.5 -59t26.5 -95q0 -55 -26 -92.5t-67.5 -57t-89.5 -18.5q-39 1 -74 27t-45 63q14 -52 53 -90.5
t93.5 -59t115.5 -20.5q77 0 117 45t54.5 136.5t14.5 230.5v1095h-260v25h769z" />
    <glyph glyph-name="K" unicode="K" horiz-adv-x="1548" 
d="M295 434l890 1041h-224v25h479v-25h-220l-890 -1041h-35zM41 0v25h180v1450h-180v25h690v-25h-200v-1450h180v-25h-670zM811 0v25h190l-419 736l206 231l572 -967h171v-25h-720z" />
    <glyph glyph-name="L" unicode="L" horiz-adv-x="1248" 
d="M41 0v25h180v1450h-180v25h670v-25h-180v-1450h200q110 0 189.5 30.5t132 86.5t82.5 134.5t41 173.5h25v-450h-1160z" />
    <glyph glyph-name="M" unicode="M" horiz-adv-x="1803" 
d="M763 -20l-556 1520h312l400 -1076l375 1076h27l-528 -1520h-30zM220 1500v-1475h151v-25h-320v25h143v1450h-153v25h179zM1764 1500v-25h-141v-1450h141v-25h-611v25h161v1475h450z" />
    <glyph glyph-name="N" unicode="N" horiz-adv-x="1537" 
d="M269 1500v-1475h231v-25h-459v25h202v1450h-202v25h228zM1497 1500v-25h-211v-1495h-33l-1002 1520h369l641 -990v965h-228v25h464z" />
    <glyph glyph-name="O" unicode="O" horiz-adv-x="1538" 
d="M770 -20q-160 0 -286 58.5t-214 163t-134 244.5t-46 304t48.5 304t138.5 245t215 163t278 58q152 0 277 -58t215 -163t138.5 -245t48.5 -304t-46 -304t-134 -245t-214 -163t-285 -58zM770 3q104 0 169 58t100 160.5t48 238t13 290.5t-16 290.5t-53 238t-100.5 160.5
t-160.5 58t-161 -58t-101 -160.5t-53 -238t-16 -290.5t13 -290.5t48 -238t100.5 -160.5t169.5 -58z" />
    <glyph glyph-name="P" unicode="P" horiz-adv-x="1363" 
d="M731 1500q190 0 312 -52.5t180 -148t58 -225.5q0 -129 -58 -221.5t-180 -142t-312 -49.5h-200v-636h180v-25h-670v25h180v1450h-180v25h690zM531 686h160q64 0 111 35t78 92.5t46 126t15 135.5q0 66 -15 136.5t-46 130.5t-78 96.5t-111 36.5h-160v-789z" />
    <glyph glyph-name="Q" unicode="Q" horiz-adv-x="1538" 
d="M1169 -500q-186 0 -300.5 24.5t-175 81.5t-82 155.5t-21.5 247.5q89 -22 176 -22t173 22q0 -136 6.5 -229.5t28.5 -149.5t68.5 -80.5t126.5 -24.5v-25zM770 -20q-160 0 -286 58.5t-214 163t-134 244.5t-46 304t48.5 304t138.5 245t215 163t278 58q152 0 277 -58t215 -163
t138.5 -245t48.5 -304t-46 -304t-134 -245t-214 -163t-285 -58zM770 3q104 0 169 58t100 160.5t48 238t13 290.5t-16 290.5t-53 238t-100.5 160.5t-160.5 58t-161 -58t-101 -160.5t-53 -238t-16 -290.5t13 -290.5t48 -238t100.5 -160.5t169.5 -58z" />
    <glyph glyph-name="R" unicode="R" horiz-adv-x="1500" 
d="M401 763v16h290q96 0 160.5 37t97 114t32.5 196t-32.5 196.5t-97 115t-160.5 37.5h-650v25h700q166 0 292 -39.5t197 -122t71 -212.5t-66.5 -210t-192 -116.5t-301.5 -36.5h-340zM41 0v25h710v-25h-710zM241 13v1473h310v-1473h-310zM1231 -15q-102 0 -160.5 32.5
t-86 87.5t-35.5 123t-8.5 141t-6 141.5t-27.5 123.5t-73 87.5t-143 32.5h-290v14h450q139 0 220.5 -40.5t121.5 -106.5t52.5 -145.5t13 -159t3 -146t21.5 -106.5t71 -40q31 0 59 7t49 17l9 -23q-24 -13 -88 -26.5t-152 -13.5z" />
    <glyph glyph-name="S" unicode="S" horiz-adv-x="1203" 
d="M626 -29q-111 0 -195 36t-144 97l-173 -124h-23v470h26q28 -85 69.5 -166t101 -146t140 -103.5t187.5 -38.5q95 0 164 36.5t106.5 101t37.5 149.5q0 81 -44 136t-116 95t-158 75.5t-172 77t-157.5 100t-115.5 144t-44 209.5q0 125 62.5 215t163.5 137.5t218 47.5
q90 0 166 -28.5t136 -85.5l168 114h21v-451h-25q-40 133 -103.5 227.5t-150.5 145t-199 50.5q-120 0 -183 -63.5t-63 -164.5q0 -73 43.5 -123.5t114.5 -90t156 -76t170.5 -81t156.5 -105t114.5 -147.5t43.5 -211q0 -140 -66 -243t-179.5 -159.5t-254.5 -56.5z" />
    <glyph glyph-name="T" unicode="T" horiz-adv-x="1380" 
d="M316 0v25h220v1450h-125q-80 0 -140 -35t-101.5 -97t-67 -145t-36.5 -178h-25v480h1300v-480h-25q-11 95 -36.5 178t-67 145t-101.5 97t-140 35h-125v-1450h220v-25h-750z" />
    <glyph glyph-name="U" unicode="U" horiz-adv-x="1466" 
d="M1424 1500v-25h-193v-1015q0 -247 -114 -368t-358 -121q-282 0 -411 115t-129 374v1015h-180v25h690v-25h-200v-995q0 -99 12 -184.5t44.5 -149.5t93 -100t156.5 -36q113 0 196.5 46t129.5 145t46 259v1015h-184v25h401z" />
    <glyph glyph-name="V" unicode="V" horiz-adv-x="1583" 
d="M1547 1500v-25h-179l-538 -1504h-124l-522 1504h-148v25h720v-25h-213l379 -1169l417 1169h-243v25h451z" />
    <glyph glyph-name="W" unicode="W" horiz-adv-x="2222" 
d="M738 -20l-543 1495h-167v25h1677v-25h-541l405 -1132l422 1132h-196v25h400v-25h-177l-555 -1495h-76l-544 1495h-296l406 -1132l178 474l15 -40l-302 -797h-106zM1325 925l-23 17l206 550l28 -3z" />
    <glyph glyph-name="X" unicode="X" horiz-adv-x="1600" 
d="M888 0v25h181l-838 1450h-134v25h680v-25h-194l846 -1450h142v-25h-683zM27 0v25h213l542 809l26 -9l-537 -800h233v-25h-477zM794 773l452 702h-222v25h437v-25h-187l-455 -711z" />
    <glyph glyph-name="Y" unicode="Y" horiz-adv-x="1486" 
d="M427 0v25h179v695l-439 755h-140v25h700v-25h-200l377 -683l355 683h-219v25h417v-25h-168l-373 -714v-736h201v-25h-690z" />
    <glyph glyph-name="Z" unicode="Z" horiz-adv-x="1240" 
d="M30 0v25l770 1450h-298q-137 0 -218.5 -41.5t-124 -119t-62.5 -184.5h-25v370h1078v-25l-770 -1450h358q137 0 218.5 43.5t124 129t62.5 212.5h25v-410h-1138z" />
    <glyph glyph-name="bracketleft" unicode="[" horiz-adv-x="709" 
d="M109 -300v1860h301v-1860h-301zM109 -300v25h541v-25h-541zM109 1535v25h541v-25h-541z" />
    <glyph glyph-name="backslash" unicode="\" horiz-adv-x="1044" 
d="M937 -300l-857 1860h28l857 -1860h-28z" />
    <glyph glyph-name="bracketright" unicode="]" horiz-adv-x="709" 
d="M300 -300v1860h301v-1860h-301zM60 -300v25h541v-25h-541zM60 1535v25h541v-25h-541z" />
    <glyph glyph-name="asciicircum" unicode="^" horiz-adv-x="1089" 
d="M215 1246l-15 14l280 280h129l282 -280l-16 -14l-331 199z" />
    <glyph glyph-name="underscore" unicode="_" horiz-adv-x="1119" 
d="M-11 -312v24h1140v-24h-1140z" />
    <glyph glyph-name="grave" unicode="`" horiz-adv-x="1000" 
d="M685 1680l-277 88q-48 10 -75 43t-30.5 74t17.5 73q18 28 56.5 41t80.5 1.5t71 -59.5l170 -244z" />
    <glyph glyph-name="a" unicode="a" horiz-adv-x="1160" 
d="M890 -20q-65 0 -116 17.5t-80.5 56.5t-29.5 102v453q0 72 -14 141t-54 114t-120 45q-45 0 -96.5 -10.5t-97.5 -33t-75 -58t-29 -85.5h-29q0 63 47.5 101.5t109.5 38.5q65 0 114.5 -35t49.5 -101q0 -71 -50 -107.5t-114 -36.5q-68 0 -113.5 37.5t-45.5 102.5q0 56 33 96.5
t87.5 66.5t121.5 38.5t136 12.5q152 0 243.5 -42.5t132.5 -116.5t41 -168v-496q0 -33 15 -56t53 -23q26 0 64 22.5t62 70.5l15 -15q-29 -63 -98.5 -97.5t-162.5 -34.5zM362 -20q-130 0 -207.5 66.5t-77.5 180.5q0 134 116 208.5t329 74.5h235v-22h-169q-76 0 -121.5 -37.5
t-66 -91.5t-20.5 -104q0 -47 11 -88t36.5 -67t66.5 -26q44 0 82.5 31t63 95t24.5 162h16q0 -117 -37.5 -203t-108 -132.5t-172.5 -46.5z" />
    <glyph glyph-name="b" unicode="b" horiz-adv-x="1269" 
d="M774 -20q-127 0 -208 87.5t-107 245.5v-313h-413v25h134v1450h-134v25h413v-893q26 158 106.5 244.5t208.5 86.5q107 0 203.5 -57t156.5 -164t60 -257t-60 -257.5t-156.5 -165t-203.5 -57.5zM708 27q57 0 94 49t55.5 145t18.5 239t-18.5 238.5t-55.5 144t-94 48.5
q-61 0 -118.5 -48.5t-94 -144t-36.5 -238.5t36.5 -239.5t94 -145t118.5 -48.5z" />
    <glyph glyph-name="c" unicode="c" horiz-adv-x="1051" 
d="M563 -20q-136 0 -246 52.5t-175 159t-65 268.5q0 143 57 251t166.5 168.5t265.5 60.5q117 0 205 -36.5t137 -97.5t49 -135q0 -72 -47 -114t-111 -42q-38 0 -76 16.5t-63 51t-25 86.5q0 71 49.5 111t114.5 40q61 0 108.5 -39t47.5 -110h-23q0 54 -28 98t-74 75t-99.5 47.5
t-103.5 16.5q-73 0 -116.5 -42.5t-66 -110.5t-30 -146t-7.5 -149q0 -86 10 -164.5t34.5 -140t68.5 -97t112 -35.5q79 0 138.5 32.5t100.5 90.5t66 133h26q-39 -133 -134 -216t-266 -83z" />
    <glyph glyph-name="d" unicode="d" horiz-adv-x="1269" 
d="M497 -19q-108 0 -204 57t-156.5 164t-60.5 257t60.5 257.5t156.5 165t204 57.5q127 0 207.5 -87.5t106.5 -245.5v869h-134v25h414v-1475h133v-25h-413v312q-26 -158 -106.5 -244.5t-207.5 -86.5zM562 28q61 0 118 48.5t94 144t37 238.5t-37 239.5t-94 145t-118 48.5
q-57 0 -94 -49t-55 -145t-18 -239t18 -238.5t55 -144t94 -48.5z" />
    <glyph glyph-name="e" unicode="e" horiz-adv-x="1065" 
d="M564 -20q-140 0 -250.5 55.5t-174 162.5t-63.5 262t61.5 262t170 162.5t248.5 55.5q148 0 244 -60t142.5 -156t46.5 -205h-779v25h482q0 63 -4 128t-17.5 120.5t-40.5 89t-74 33.5q-51 0 -84 -35t-52 -96.5t-27 -139.5t-8 -164q0 -97 9.5 -181.5t34.5 -148.5t69 -100
t114 -36q134 0 227 75t130 190h26q-39 -128 -144.5 -213.5t-286.5 -85.5z" />
    <glyph glyph-name="f" unicode="f" horiz-adv-x="815" 
d="M211 0v1023q0 141 59.5 253.5t168 178t256.5 65.5q88 0 149.5 -35.5t94 -88t32.5 -104.5q0 -80 -49.5 -122t-110.5 -42q-35 0 -71 15.5t-60.5 48.5t-24.5 85q0 72 47 111.5t104 39.5q39 0 76.5 -16t62 -46.5t24.5 -73.5h-24q0 55 -32 101t-85.5 73.5t-117.5 27.5
q-83 0 -133.5 -50.5t-73 -143.5t-22.5 -220v-1080h-270zM38 0v25h676v-25h-676zM38 895v25h716v-25h-716z" />
    <glyph glyph-name="g" unicode="g" horiz-adv-x="1268" 
d="M521 -520q-91 0 -176 14.5t-152.5 44.5t-107 78.5t-39.5 116.5q0 63 35 103.5t86 63.5t102 32t85 9h19q-45 -25 -66.5 -70.5t-21.5 -109.5q0 -66 31 -123.5t94.5 -93.5t161.5 -36q67 0 130.5 15.5t115.5 46t83 77t31 108.5q0 65 -36 103.5t-93.5 55.5t-122.5 17h-67.5
h-93h-68.5q-154 0 -247.5 46t-93.5 148q0 61 35.5 103t94 67t129 36t141.5 11l-1 -13q-29 0 -65.5 -6t-71 -18t-57 -30.5t-22.5 -43.5q0 -40 49 -51.5t131 -11.5q35 0 70 0.5t67.5 1t61.5 0.5q56 0 115.5 -14.5t111 -51t83.5 -102t32 -167.5q0 -96 -39 -164t-107.5 -110
t-157.5 -62t-189 -20zM504 325q-70 0 -142 17t-132.5 53.5t-97 95.5t-36.5 141q0 83 36.5 141.5t97 95t132.5 53.5t142 17t141 -17t130.5 -53.5t95.5 -95t36 -141.5q0 -82 -36 -141t-95.5 -95.5t-130.5 -53.5t-141 -17zM504 350q41 0 67.5 38.5t39 103t12.5 140.5
q0 82 -12.5 145.5t-39 100t-67.5 36.5q-42 0 -68 -36.5t-39 -100t-13 -145.5q0 -76 7.5 -140.5t33 -103t79.5 -38.5zM1101 619q-49 0 -87.5 33t-38.5 93q0 62 39.5 90t86.5 28q44 0 86.5 -28t42.5 -81h-24q0 58 -45.5 105t-126.5 47q-42 0 -89.5 -19t-88 -65.5t-60.5 -129.5
l-17 12q20 87 63 136.5t94 69.5t96 20q64 0 108.5 -26t68 -66.5t23.5 -83.5q0 -75 -41 -105t-90 -30z" />
    <glyph glyph-name="h" unicode="h" horiz-adv-x="1246" 
d="M46 0v25h134v1450h-134v25h413v-1475h103v-25h-516zM686 0v25h103v598q0 84 -7 137.5t-27.5 79.5t-62.5 26q-64 0 -108.5 -39.5t-72 -102.5t-40 -136t-12.5 -141l-19 -4q0 73 13.5 158.5t50 162.5t104.5 126.5t176 49.5q113 0 174.5 -39t85.5 -107t24 -155v-614h133v-25
h-515z" />
    <glyph glyph-name="i" unicode="i" horiz-adv-x="643" 
d="M330 1178q-72 0 -121 49.5t-49 121.5t49 121t121 49t121 -49t49 -121t-49 -121.5t-121 -49.5zM469 920v-895h133v-25h-546v25h133v870h-133v25h413z" />
    <glyph glyph-name="j" unicode="j" horiz-adv-x="664" 
d="M65 -520q-88 0 -156 32t-106.5 86t-38.5 120q0 73 48 118.5t116 45.5q40 0 77 -18.5t60.5 -52.5t23.5 -82q0 -60 -44 -104.5t-116 -44.5q-44 0 -81 20t-59.5 51.5t-22.5 66.5h23q0 -61 36.5 -109t95.5 -76t128 -28q71 0 108 47t51 126t15 174t1 190v853h-173v25h452v-943
q0 -98 -31.5 -187.5t-90 -159t-138.5 -110t-178 -40.5zM348 1180q-72 0 -121 49.5t-49 120.5q0 73 49 121.5t121 48.5t120.5 -48.5t48.5 -121.5q0 -71 -48.5 -120.5t-120.5 -49.5z" />
    <glyph glyph-name="k" unicode="k" horiz-adv-x="1287" 
d="M46 0v25h174v1450h-174v25h453v-1475h110v-25h-563zM704 0v25h119l-378 508l508 362h-222v25h432v-25h-174l-318 -233l496 -637h95v-25h-558z" />
    <glyph glyph-name="l" unicode="l" horiz-adv-x="717" 
d="M499 1500v-1475h173v-25h-626v25h174v1450h-174v25h453z" />
    <glyph glyph-name="m" unicode="m" horiz-adv-x="1776" 
d="M458 920v-895h98v-25h-510v25h134v870h-134v25h412zM1028 639v-614h98v-25h-474v25h97v600q0 84 -6.5 138t-25 80t-54.5 26q-54 0 -92.5 -38.5t-63.5 -101t-37 -136t-12 -144.5l-16 -4q0 73 12 158t45.5 162t97.5 126t168 49q99 0 156.5 -39t82 -107t24.5 -155zM1598 639
v-614h133v-25h-510v25h98v600q0 84 -7 138t-26.5 80t-55.5 26q-54 0 -92.5 -38.5t-62.5 -101t-35.5 -136t-11.5 -144.5l-16 -4q0 73 11 158t43.5 162t96.5 126t169 49q99 0 157 -39t83.5 -107t25.5 -155z" />
    <glyph glyph-name="n" unicode="n" horiz-adv-x="1246" 
d="M458 920v-895h103v-25h-515v25h134v870h-134v25h412zM1068 639v-614h133v-25h-515v25h103v598q0 84 -7 137.5t-27.5 79.5t-62.5 26q-64 0 -108.5 -39.5t-72.5 -102.5t-40.5 -136t-12.5 -141l-19 -4q0 73 13.5 158.5t50.5 162.5t105 126.5t177 49.5q113 0 174 -39t85 -107
t24 -155z" />
    <glyph glyph-name="o" unicode="o" horiz-adv-x="1128" 
d="M565 -20q-151 0 -260.5 66t-169 175t-59.5 239t59.5 239t169 175t260.5 66t260 -66t168 -175t59 -239t-59 -239t-168 -175t-260 -66zM565 5q55 0 91.5 37t58 101t30.5 146t9 171q0 90 -9 171.5t-30.5 145.5t-58 101t-91.5 37q-56 0 -92.5 -37t-58 -101t-30.5 -145.5
t-9 -171.5q0 -89 9 -171t30.5 -146t58 -101t92.5 -37z" />
    <glyph glyph-name="p" unicode="p" horiz-adv-x="1269" 
d="M46 -500v25h134v1370h-134v25h413v-313q26 158 106.5 244.5t208.5 86.5q107 0 203.5 -57t156.5 -164t60 -257t-60 -257.5t-156.5 -165t-203.5 -57.5q-127 0 -208 87.5t-107 245.5v-788h133v-25h-546zM708 27q57 0 94 49t55.5 145t18.5 239t-18.5 238.5t-55.5 144
t-94 48.5q-61 0 -118.5 -48.5t-94 -144t-36.5 -238.5t36.5 -239.5t94 -145t118.5 -48.5z" />
    <glyph glyph-name="q" unicode="q" horiz-adv-x="1269" 
d="M677 -500v25h134v787q-26 -158 -106.5 -244.5t-207.5 -86.5q-108 0 -204 57t-156.5 164t-60.5 257t60.5 257.5t156.5 165t204 57.5q127 0 207.5 -87.5t106.5 -245.5v314h413v-25h-133v-1370h133v-25h-547zM562 28q61 0 118 48.5t94 144t37 238.5t-37 239.5t-94 145
t-118 48.5q-57 0 -94 -49t-55 -145t-18 -239t18 -238.5t55 -144t94 -48.5z" />
    <glyph glyph-name="r" unicode="r" horiz-adv-x="983" 
d="M443 432q0 102 15 193.5t49 162t90 111t137 40.5q68 0 116 -30t73 -77.5t25 -100.5q0 -69 -46 -120t-120 -51t-120.5 45.5t-46.5 109.5q0 73 47 119t119 46q47 0 84.5 -21t59 -55t21.5 -73h-24q0 48 -23 89.5t-66 67.5t-102 26q-70 0 -121.5 -37.5t-85 -104.5t-50 -154.5
t-16.5 -185.5h-15zM458 920v-895h152v-25h-564v25h134v870h-134v25h412z" />
    <glyph glyph-name="s" unicode="s" horiz-adv-x="904" 
d="M84 -20v314h25q27 -89 79 -153t123 -99t157 -35q61 0 109 16.5t75.5 49t27.5 79.5q0 54 -41.5 85.5t-107 54t-138.5 46.5t-139 60.5t-107.5 97t-41.5 156.5q0 79 38 144t107 103.5t163 38.5q70 0 126.5 -22.5t99.5 -59.5l110 84h22v-280h-25q-26 66 -70.5 123.5t-109 93
t-151.5 35.5q-51 0 -89.5 -16t-60.5 -44t-22 -64q0 -52 43 -83.5t110.5 -55t143 -48.5t143 -62t110.5 -96t43 -151q0 -104 -51.5 -173.5t-133.5 -104t-173 -34.5q-77 0 -142.5 25t-117.5 70l-113 -95h-21z" />
    <glyph glyph-name="t" unicode="t" horiz-adv-x="738" 
d="M404 -14q-97 0 -147.5 32.5t-69 88t-18.5 125.5v888q67 0 147 15.5t132 44.5v-994q0 -75 18 -106t59 -31q46 0 95.5 41.5t79.5 112.5l23 -10q-38 -91 -117 -149t-202 -58zM26 895v25h636v-25h-636z" />
    <glyph glyph-name="u" unicode="u" horiz-adv-x="1248" 
d="M463 -20q-112 0 -173.5 39.5t-85.5 107.5t-24 155v613h-134v25h413v-623q0 -84 7 -137.5t28 -79.5t62 -26q65 0 109.5 39.5t71.5 102.5t39.5 136t12.5 141l19 4q0 -73 -13 -158.5t-49.5 -162.5t-104.5 -126.5t-178 -49.5zM789 0v895h-130v25h411v-895h133v-25h-414z" />
    <glyph glyph-name="v" unicode="v" horiz-adv-x="1145" 
d="M1129 920v-25h-151l-371 -915h-95l-376 915h-126v25h581v-25h-147l238 -656l266 656h-185v25h366z" />
    <glyph glyph-name="w" unicode="w" horiz-adv-x="1654" 
d="M1637 920v-25h-173l-306 -915h-97l-252 695l-282 -695h-98l-294 915h-125v25h584v-25h-167l184 -637l277 682h154l195 -640l199 595h-200v25h401z" />
    <glyph glyph-name="x" unicode="x" horiz-adv-x="1162" 
d="M583 0v25h124l-549 870h-118v25h568v-25h-131l558 -870h99v-25h-551zM30 0v25h139l749 870h-156v25h347v-25h-159l-749 -870h196v-25h-367z" />
    <glyph glyph-name="y" unicode="y" horiz-adv-x="1204" 
d="M457 895l313 -619l-158 -324l-489 943h-123v25h646v-25h-189zM1215 920v-25h-150l-589 -1272q-30 -63 -71.5 -103.5t-111.5 -40.5q-37 0 -73 17t-60 50.5t-24 83.5q0 46 21.5 81.5t58 56t81.5 20.5q40 0 76 -22t57 -59t17 -85l588 1273h-189v25h369z" />
    <glyph glyph-name="z" unicode="z" horiz-adv-x="968" 
d="M37 0v25l538 870h-147q-94 0 -158 -37.5t-101 -109t-52 -172.5h-25v344h798v-25l-540 -870h191q87 0 150 18.5t104.5 59.5t66.5 106.5t36 158.5h24v-368h-885z" />
    <glyph glyph-name="braceleft" unicode="{" horiz-adv-x="663" 
d="M604 1560v-25q-62 0 -104 -34t-63 -89t-21 -118q0 -66 17 -123.5t34 -123t17 -155.5q0 -80 -35.5 -130.5t-113 -80.5t-202.5 -50q125 -20 202.5 -50t113 -80t35.5 -131q0 -90 -17 -155.5t-34 -123t-17 -123.5q0 -63 21 -118.5t63 -90t104 -34.5v-25q-190 0 -298 34
t-152.5 100.5t-44.5 165.5q0 96 18.5 164t42.5 119.5t42 95.5t18 92q0 61 -37.5 96.5t-83.5 50.5v25q46 15 83.5 51.5t37.5 97.5q0 47 -18 91.5t-42 96t-42.5 119.5t-18.5 163q0 99 44.5 165.5t152.5 99.5t298 33z" />
    <glyph glyph-name="bar" unicode="|" horiz-adv-x="469" 
d="M223 -500v2060h25v-2060h-25z" />
    <glyph glyph-name="braceright" unicode="}" horiz-adv-x="663" 
d="M555 625q-134 20 -216.5 50t-120.5 81t-38 134q0 90 17 155.5t34 123t17 123.5q0 63 -21 118.5t-63 90t-104 34.5v25q190 0 298 -33.5t152.5 -100.5t44.5 -166q0 -95 -18.5 -163t-42.5 -120t-42 -96t-18 -92q0 -61 37.5 -96.5t83.5 -50.5v-17zM60 -300v25q62 0 104 34
t63 89t21 118q0 66 -17 123.5t-34 123t-17 155.5q0 83 38 134t120.5 81t216.5 50v-16q-46 -15 -83.5 -51t-37.5 -98q0 -47 18 -91t42 -95.5t42.5 -119.5t18.5 -164q0 -99 -44.5 -165t-152.5 -99.5t-298 -33.5z" />
    <glyph glyph-name="asciitilde" unicode="~" horiz-adv-x="1375" 
d="M878 656q-76 0 -125.5 19t-85 47t-68.5 56t-75 47t-106 19q-53 0 -96.5 -15.5t-70 -50.5t-26.5 -92h-25q0 115 37.5 196.5t104.5 124.5t156 43q66 0 112 -19t81.5 -47t69.5 -56t76 -47t101 -19q63 0 111 16t75 50.5t27 91.5h25q0 -115 -37 -196.5t-104.5 -124.5
t-156.5 -43z" />
    <glyph glyph-name="uni00A0" unicode="&#xa0;" horiz-adv-x="500" 
 />
    <glyph glyph-name="exclamdown" unicode="&#xa1;" horiz-adv-x="758" 
d="M383 -476q-92 0 -136 58t-44 142q0 9 1 18.5t1 19.5q8 110 34.5 207.5t56.5 189.5t52.5 182t22.5 183h25q0 -93 22 -183t52 -182t56.5 -189.5t34.5 -207.5q1 -10 0.5 -19.5t-0.5 -18.5q0 -84 -42 -142t-136 -58zM381 700q-50 0 -90.5 24.5t-65 65.5t-24.5 90t24.5 90.5
t65 65.5t90.5 24q49 0 90.5 -24t65.5 -65.5t24 -90.5t-24 -90t-65.5 -65.5t-90.5 -24.5z" />
    <glyph glyph-name="cent" unicode="&#xa2;" horiz-adv-x="1051" 
d="M563 -20q-136 0 -246 52.5t-175 159t-65 268.5q0 143 57 251t166.5 168.5t265.5 60.5q117 0 205 -36.5t137 -97.5t49 -135q0 -72 -47 -114t-111 -42q-38 0 -76 16.5t-63 51t-25 86.5q0 71 49.5 111t114.5 40q61 0 108.5 -39t47.5 -110h-23q0 54 -28 98t-74 75t-99.5 47.5
t-103.5 16.5q-73 0 -116.5 -42.5t-66 -110.5t-30 -146t-7.5 -149q0 -86 10 -164.5t34.5 -140t68.5 -97t112 -35.5q79 0 138.5 32.5t100.5 90.5t66 133h26q-39 -133 -134 -216t-266 -83zM559 -170v1279h25v-1279h-25z" />
    <glyph glyph-name="sterling" unicode="&#xa3;" horiz-adv-x="1311" 
d="M145 -40q-11 83 7 152.5t51.5 128t69 107.5t60.5 92t25 81q0 86 -24.5 155.5t-56.5 134t-56.5 134t-24.5 155.5q0 140 71 233t199.5 140t301.5 47q122 0 214.5 -32.5t155.5 -85.5t95 -116t32 -125q0 -53 -25 -94.5t-65.5 -65t-89.5 -23.5q-42 0 -81.5 21.5t-65.5 60
t-26 90.5q0 48 24 86.5t63.5 61t85.5 22.5q47 0 87.5 -22t65.5 -58t25 -79h-22q0 60 -30.5 118t-88 106t-138 77t-179.5 29q-78 0 -129.5 -29t-82 -76t-43 -103.5t-12.5 -112.5q0 -74 17 -132t39 -107.5t39 -99t17 -105.5q0 -90 -37 -156t-95 -118.5t-122 -101.5
t-119 -103.5t-86 -123.5t-22 -163h-24zM913 -61q-102 0 -181.5 18.5t-143 42.5t-115.5 42.5t-99 18.5q-41 0 -84 -12.5t-76 -35t-43 -53.5h-15q15 65 50.5 128t86.5 114t115 81t135 30q75 0 125 -10t89.5 -23.5t80.5 -23.5t98 -10q47 0 100 6.5t99 26t75 57t29 98.5h25
q0 -182 -44 -290.5t-123.5 -156.5t-183.5 -48zM29 785v26h901v-26h-901z" />
    <glyph glyph-name="currency" unicode="&#xa4;" horiz-adv-x="1140" 
d="M94 275l-18 18l157 157q-121 129 -121 320t121 319l-158 157l19 19l157 -158q59 57 140 89.5t180 32.5t180 -32.5t139 -88.5l157 156l18 -18l-157 -157q120 -127 120 -319q0 -190 -119 -320l156 -156l-19 -19l-155 157q-59 -56 -140 -89t-180 -33t-180.5 32.5
t-139.5 89.5zM571 338q133 0 228.5 59.5t147 158t51.5 214.5t-51.5 214.5t-147 157.5t-228.5 59t-229 -59t-148 -157.5t-52 -214.5t52 -214.5t148 -158t229 -59.5z" />
    <glyph glyph-name="yen" unicode="&#xa5;" horiz-adv-x="1486" 
d="M606 0v720l-453 780h360l391 -708l368 705l29 -1l-385 -735v-761h-310zM427 0v25h690v-25h-690zM277 328v25h995v-25h-995zM277 629v25h995v-25h-995zM27 1475v25h700v-25h-700zM1040 1475v25h417v-25h-417z" />
    <glyph glyph-name="brokenbar" unicode="&#xa6;" horiz-adv-x="439" 
d="M213 -500v832h25v-832h-25zM213 818v742h25v-742h-25z" />
    <glyph glyph-name="section" unicode="&#xa7;" horiz-adv-x="952" 
d="M288 1311q0 -60 42.5 -102t109.5 -75.5t142 -65.5t142 -70.5t109.5 -92t42.5 -130.5q0 -67 -30.5 -112.5t-79 -79.5t-102.5 -65l-20 2q52 36 74.5 63.5t22.5 69.5q0 60 -44 98.5t-113 67.5t-147 58.5t-147 69t-113 99t-44 150.5q0 104 53 176.5t136.5 110t175.5 37.5
q66 0 131 -14.5t119 -47t86 -85t32 -128.5q0 -72 -43 -118.5t-107 -46.5q-57 0 -97.5 35.5t-40.5 100.5q0 60 44.5 98t99.5 38q33 0 63.5 -18.5t39.5 -43.5q-11 74 -60.5 119.5t-120.5 65.5t-146 20q-63 0 -110.5 -26.5t-73.5 -68.5t-26 -89zM238 864q0 -59 46 -97.5
t118 -66.5t153 -56.5t153 -68t118 -99.5t46 -152q0 -104 -51 -181.5t-145 -120t-221 -42.5q-66 0 -135.5 14.5t-128 47t-95 87t-36.5 133.5q0 73 43 118.5t106 45.5q57 0 97.5 -35.5t40.5 -101.5q0 -59 -44.5 -97t-102.5 -38q-33 0 -62.5 17t-38.5 45q11 -60 46 -100.5
t86 -64.5t109.5 -35t114.5 -11q84 0 138.5 29.5t81.5 75t27 92.5q0 59 -43.5 98t-113 68t-147 57.5t-146.5 63.5t-113 85.5t-44 125.5q0 73 32 128.5t77.5 95.5t86.5 66h22q-18 -13 -35 -31t-28.5 -41.5t-11.5 -53.5z" />
    <glyph glyph-name="dieresis" unicode="&#xa8;" horiz-adv-x="1000" 
d="M687 1685q-47 0 -81 34t-34 81q0 48 34 82t81 34q48 0 82 -34t34 -82q0 -47 -34 -81t-82 -34zM313 1685q-47 0 -81 34t-34 81q0 48 34 82t81 34q48 0 82 -34t34 -82q0 -47 -34 -81t-82 -34z" />
    <glyph glyph-name="copyright" unicode="&#xa9;" horiz-adv-x="1739" 
d="M894 308q79 0 136.5 34.5t94.5 93t56 128.5h16v-264h-14l-93 66q-39 -36 -91.5 -57t-116.5 -21q-134 0 -231 60t-149 164t-52 238t52 238t149 164t231 60q55 0 102.5 -19t85.5 -54l101 61h14v-264h-17q-21 75 -60.5 133t-94 90.5t-119.5 32.5q-68 0 -113 -37.5
t-71.5 -101.5t-38 -142.5t-11.5 -160.5t11.5 -160.5t38 -142.5t71.5 -101.5t113 -37.5zM870 1520q160 0 299.5 -59.5t245.5 -165.5t165.5 -245.5t59.5 -299.5t-59.5 -299.5t-165.5 -245.5t-245.5 -165.5t-299.5 -59.5t-299.5 59.5t-245.5 165.5t-165.5 245.5t-59.5 299.5
t59.5 299.5t165.5 245.5t245.5 165.5t299.5 59.5zM870 5q154 0 289 58t237.5 160.5t160.5 237.5t58 289t-58 289t-160.5 237.5t-237.5 160.5t-289 58t-289 -58t-237.5 -160.5t-160.5 -237.5t-58 -289t58 -289t160.5 -237.5t237.5 -160.5t289 -58z" />
    <glyph glyph-name="ordfeminine" unicode="&#xaa;" horiz-adv-x="712" 
d="M526 952q-58 0 -97 24.5t-39 81.5v271q0 44 -8 85t-32 68.5t-72 27.5q-36 0 -78 -11.5t-71.5 -36.5t-29.5 -65h-18q0 38 29 61t66 23q39 0 68.5 -21t29.5 -60q0 -43 -30 -65t-68 -22q-41 0 -68.5 22.5t-27.5 61.5q0 45 34 73.5t86 42t107 13.5q91 0 146 -25.5t79.5 -70
t24.5 -101.5v-297q0 -20 9 -34t32 -14q16 0 38.5 14t37.5 43l9 -10q-18 -37 -59.5 -58t-97.5 -21zM209 952q-78 0 -124.5 40t-46.5 108q0 80 69.5 125t197.5 45h141v-13h-101q-46 0 -73.5 -22.5t-39.5 -55t-12 -61.5q0 -43 16 -76t52 -33q40 0 71 41.5t31 131.5h10
q0 -106 -49.5 -168t-141.5 -62z" />
    <glyph glyph-name="guillemotleft" unicode="&#xab;" horiz-adv-x="1449" 
d="M1330 290l-721 467v36l721 467l13 -12l-361 -472l361 -474zM770 290l-720 467v36l720 467l12 -12l-380 -472l380 -474z" />
    <glyph glyph-name="logicalnot" unicode="&#xac;" horiz-adv-x="971" 
d="M827 406v354h-707v25h732v-379h-25z" />
    <glyph glyph-name="uni00AD" unicode="&#xad;" horiz-adv-x="719" 
d="M120 538v24h480v-24h-480z" />
    <glyph glyph-name="registered" unicode="&#xae;" horiz-adv-x="1739" 
d="M870 -20q-160 0 -299.5 59.5t-245.5 165.5t-165.5 245.5t-59.5 299.5t59.5 299.5t165.5 245.5t245.5 165.5t299.5 59.5t299.5 -59.5t245.5 -165.5t165.5 -245.5t59.5 -299.5t-59.5 -299.5t-165.5 -245.5t-245.5 -165.5t-299.5 -59.5zM870 5q154 0 289 58t237.5 160.5
t160.5 237.5t58 289t-58 289t-160.5 237.5t-237.5 160.5t-289 58t-289 -58t-237.5 -160.5t-160.5 -237.5t-58 -289t58 -289t160.5 -237.5t237.5 -160.5t289 -58zM1179 287q-81 0 -118 33.5t-46.5 86t-9.5 111.5t-7 111.5t-38 85.5t-105 33h-84v-437h120v-15h-426v15h120v870
h-120v15h420q149 0 242.5 -53.5t93.5 -170.5q0 -105 -71.5 -156t-201.5 -60q100 -3 151.5 -36.5t71.5 -84t22.5 -106.5t1.5 -106t9.5 -81.5t48.5 -31.5q19 0 36 4.5t29 10.5l5 -14q-14 -8 -52.5 -16t-91.5 -8zM771 763h84q86 0 130 51t44 157q0 108 -44 159t-130 51h-84
v-418z" />
    <glyph glyph-name="macron" unicode="&#xaf;" horiz-adv-x="1000" 
d="M260 1700v25h480v-25h-480z" />
    <glyph glyph-name="degree" unicode="&#xb0;" horiz-adv-x="639" 
d="M320 1120q-66 0 -120.5 32.5t-87 86.5t-32.5 121q0 65 32.5 120t87 87.5t120.5 32.5t120.5 -32.5t87 -87.5t32.5 -120q0 -67 -32.5 -121t-87 -86.5t-120.5 -32.5zM320 1181q76 0 127.5 51t51.5 128t-51.5 128t-127.5 51t-127.5 -51t-51.5 -128q0 -76 51.5 -127.5
t127.5 -51.5z" />
    <glyph glyph-name="plusminus" unicode="&#xb1;" horiz-adv-x="1059" 
d="M233 647v250h593v-250h-593zM121 9v24h819v-24h-819zM404 474v594h250v-594h-250z" />
    <glyph glyph-name="uni00B2" unicode="&#xb2;" horiz-adv-x="939" 
d="M171 916v120l263 206q76 59 113 135.5t37 174.5q0 103 -46.5 173t-124.5 70q-59 0 -109.5 -28t-79.5 -81t-25 -126h-14q0 34 36.5 62t79.5 28q40 0 73.5 -28.5t33.5 -74.5q0 -49 -32.5 -79.5t-78.5 -30.5q-44 0 -77.5 34t-35.5 89q-6 120 76 194t223 74
q138 0 215.5 -66.5t77.5 -161.5q0 -51 -19 -91.5t-50 -72.5t-67 -59.5t-70 -51.5l-286 -229h502v90h14v-270h-629z" />
    <glyph glyph-name="uni00B3" unicode="&#xb3;" horiz-adv-x="899" 
d="M415 902q-92 0 -153.5 30t-92.5 76.5t-31 96.5q0 48 30 77.5t72 29.5q39 0 66.5 -26.5t27.5 -70.5q0 -40 -30 -66.5t-68 -26.5q-37 0 -67 24.5t-30 58.5h14q0 -48 29.5 -90t80.5 -67.5t116 -25.5q92 0 132.5 67.5t40.5 170.5q0 47 -15.5 101.5t-60 93t-130.5 38.5v9
q144 0 232 -34t127.5 -91t39.5 -123q0 -78 -47 -134.5t-122.5 -87t-160.5 -30.5zM346 1398v10q80 0 116 33.5t45 82t9 92.5q0 50 -12 93t-39 70t-70 27q-30 0 -66 -11.5t-68 -32.5t-52 -50.5t-20 -65.5h-14q0 39 32 62.5t66 23.5q38 0 68 -25.5t30 -68.5q0 -47 -32 -71.5
t-66 -24.5q-38 0 -69 28t-31 76q0 50 38 90.5t96.5 64.5t119.5 24q67 0 132 -23t107.5 -68t42.5 -111q0 -60 -33 -111t-112.5 -82.5t-217.5 -31.5z" />
    <glyph glyph-name="acute" unicode="&#xb4;" horiz-adv-x="1000" 
d="M315 1680l-13 17l170 244q29 48 71 59.5t80.5 -1.5t57.5 -41q21 -32 17 -73t-31 -74t-75 -43z" />
    <glyph glyph-name="uni00B5" unicode="&#xb5;" horiz-adv-x="1248" 
d="M1070 920v-895h133v-25h-414v319q-14 -82 -48 -160t-100.5 -128.5t-177.5 -50.5q-123 0 -181.5 50t-77.5 131v-403q0 -76 34 -130t90 -84.5t122 -36.5q-33 14 -53.5 57t-20.5 89q0 61 44 106t109 45q64 0 108.5 -45t44.5 -114t-49.5 -117t-147.5 -48q-78 0 -148 32
t-113.5 94t-43.5 152v1137h-134v25h413v-623q0 -84 7 -137.5t28 -79.5t62 -26q65 0 109.5 39.5t71.5 102.5t39.5 136t12.5 141v422h-130v25h411z" />
    <glyph glyph-name="paragraph" unicode="&#xb6;" horiz-adv-x="1298" 
d="M696 579q-165 0 -294 51.5t-202.5 154t-73.5 254.5q0 153 73.5 255.5t202.5 154t294 51.5h516v-25h-356v-896h-160zM646 -300v25h566v-25h-566zM842 -300v1800h25v-1800h-25zM999 -300v1800h25v-1800h-25z" />
    <glyph glyph-name="periodcentered" unicode="&#xb7;" horiz-adv-x="517" 
d="M260 680q-50 0 -90.5 24.5t-65 65.5t-24.5 90t24.5 90.5t65 66t90.5 24.5q49 0 90.5 -24.5t65.5 -66t24 -90.5t-24 -90t-65.5 -65.5t-90.5 -24.5z" />
    <glyph glyph-name="cedilla" unicode="&#xb8;" horiz-adv-x="1000" 
d="M309 -497v24q88 0 132 35t44 90q0 51 -26 77t-68.5 34.5t-92.5 8.5l172 232h32l-113 -152q94 -3 165.5 -20t112 -51.5t40.5 -90.5q0 -50 -37 -93t-124 -68.5t-237 -25.5z" />
    <glyph glyph-name="uni00B9" unicode="&#xb9;" horiz-adv-x="1059" 
d="M417 917v880h-136v15h322v-895h-186zM261 912v15h474v-15h-474z" />
    <glyph glyph-name="ordmasculine" unicode="&#xba;" horiz-adv-x="1128" 
d="M567 950q-91 0 -156.5 39.5t-101 105t-35.5 143.5t35.5 143.5t101 105t156.5 39.5t156.5 -39.5t101 -105t35.5 -143.5t-35.5 -143.5t-101 -105t-156.5 -39.5zM567 965q44 0 69 38.5t35 101t10 133.5t-10 133.5t-35 101t-69 38.5t-68.5 -38.5t-35 -101t-10.5 -133.5
t10.5 -133.5t35 -101t68.5 -38.5z" />
    <glyph glyph-name="guillemotright" unicode="&#xbb;" horiz-adv-x="1459" 
d="M689 290l-12 12l380 472l-380 474l12 12l720 -467v-36zM129 290l-12 12l360 472l-360 474l12 12l721 -467v-36z" />
    <glyph glyph-name="onequarter" unicode="&#xbc;" horiz-adv-x="1341" 
d="M82 -200l963 1500h25l-962 -1500h-26zM44 712v15h474v-15h-474zM864 -206v15h114v789l-369 -539h687v-14h-715l445 649h138v-885h90v-15h-390zM200 717v880h-136v15h322v-895h-186z" />
    <glyph glyph-name="onehalf" unicode="&#xbd;" horiz-adv-x="1399" 
d="M78 -200l963 1500h24l-962 -1500h-25zM44 712v15h474v-15h-474zM730 -202v120l263 206q76 59 113 135.5t37 174.5q0 103 -46.5 173t-124.5 70q-59 0 -109.5 -28t-79.5 -81t-25 -126h-14q0 34 36.5 62t79.5 28q40 0 73.5 -28.5t33.5 -74.5q0 -49 -32.5 -79.5t-78.5 -30.5
q-44 0 -77.5 34t-35.5 89q-6 120 76 194t223 74q138 0 215.5 -66.5t77.5 -161.5q0 -51 -19 -91.5t-50 -72.5t-67 -59.5t-70 -51.5l-286 -229h502v90h14v-270h-629zM200 717v880h-136v15h322v-895h-186z" />
    <glyph glyph-name="threequarters" unicode="&#xbe;" horiz-adv-x="1461" 
d="M198 -200l963 1500h24l-962 -1500h-25zM317 696q-92 0 -153.5 30t-92.5 76.5t-31 96.5q0 48 30 77.5t72 29.5q39 0 66.5 -26.5t27.5 -70.5q0 -40 -30 -66.5t-68 -26.5q-37 0 -67 24.5t-30 58.5h14q0 -48 29.5 -90t80.5 -67.5t116 -25.5q92 0 132.5 67.5t40.5 170.5
q0 47 -15.5 101.5t-60 93t-130.5 38.5v9q144 0 232 -34t127.5 -91t39.5 -123q0 -78 -47 -134.5t-122.5 -87t-160.5 -30.5zM984 -206v15h114v789l-369 -539h687v-14h-715l445 649h138v-885h90v-15h-390zM248 1192v10q80 0 116 33.5t45 82t9 92.5q0 50 -12 93t-39 70t-70 27
q-30 0 -66 -11.5t-68 -32.5t-52 -50.5t-20 -65.5h-14q0 39 32 62.5t66 23.5q38 0 68 -25.5t30 -68.5q0 -47 -32 -71.5t-66 -24.5q-38 0 -69 28t-31 76q0 50 38 90.5t96.5 64.5t119.5 24q67 0 132 -23t107.5 -68t42.5 -111q0 -60 -33 -111t-112.5 -82.5t-217.5 -31.5z" />
    <glyph glyph-name="questiondown" unicode="&#xbf;" horiz-adv-x="1169" 
d="M593 -480q-153 0 -264.5 50t-172.5 140t-61 210q0 115 71 205t195 145t285 64v218h25v-229q-94 -30 -149.5 -89.5t-80 -140t-24.5 -173.5q0 -70 7 -136t30 -118t70 -82.5t126 -30.5q72 0 137.5 27t118 74t83.5 106.5t31 122.5h23q0 -42 -23 -75t-60 -52.5t-79 -19.5
q-41 0 -79 20t-61.5 56t-23.5 83q0 53 25.5 89t63.5 54t75 18q65 0 114.5 -46t49.5 -127q0 -61 -31.5 -125t-91 -117.5t-143 -87t-186.5 -33.5zM627 700q-49 0 -90 24.5t-65.5 65.5t-24.5 90q0 50 24.5 91t65.5 65t90 24q50 0 91 -24t65 -65t24 -91q0 -49 -24 -90t-65 -65.5
t-91 -24.5z" />
    <glyph glyph-name="Agrave" unicode="&#xc0;" horiz-adv-x="1587" 
d="M405 474v25h596v-25h-596zM876 1529l522 -1504h149v-25h-685v25h176l-375 1158l-406 -1158h224v-25h-440v25h187l530 1504h118zM900 1680l-277 88q-48 10 -75 43t-30.5 74t17.5 73q18 28 56.5 41t80.5 1.5t71 -59.5l170 -244z" />
    <glyph glyph-name="Aacute" unicode="&#xc1;" horiz-adv-x="1587" 
d="M405 474v25h596v-25h-596zM876 1529l522 -1504h149v-25h-685v25h176l-375 1158l-406 -1158h224v-25h-440v25h187l530 1504h118zM719 1680l-13 17l170 244q29 48 71 59.5t80.5 -1.5t57.5 -41q21 -32 17 -73t-31 -74t-75 -43z" />
    <glyph glyph-name="Acircumflex" unicode="&#xc2;" horiz-adv-x="1587" 
d="M405 474v25h596v-25h-596zM876 1529l522 -1504h149v-25h-685v25h176l-375 1158l-406 -1158h224v-25h-440v25h187l530 1504h118zM499 1704l-12 13l240 270h170l240 -270l-13 -13l-313 143z" />
    <glyph glyph-name="Atilde" unicode="&#xc3;" horiz-adv-x="1587" 
d="M405 474v25h596v-25h-596zM876 1529l522 -1504h149v-25h-685v25h176l-375 1158l-406 -1158h224v-25h-440v25h187l530 1504h118zM976 1660q-59 0 -105.5 24t-86.5 55t-82.5 55t-94.5 24t-86 -31t-34 -87h-25q0 85 23.5 151.5t69 104.5t109.5 38q62 0 107 -24t82.5 -55
t75 -55t84.5 -24q57 0 88.5 31.5t31.5 86.5h25q0 -95 -14.5 -160.5t-54 -99.5t-113.5 -34z" />
    <glyph glyph-name="Adieresis" unicode="&#xc4;" horiz-adv-x="1587" 
d="M405 474v25h596v-25h-596zM876 1529l522 -1504h149v-25h-685v25h176l-375 1158l-406 -1158h224v-25h-440v25h187l530 1504h118zM997 1685q-47 0 -81 34t-34 81q0 48 34 82t81 34q48 0 82 -34t34 -82q0 -47 -34 -81t-82 -34zM623 1685q-47 0 -81 34t-34 81q0 48 34 82
t81 34q48 0 82 -34t34 -82q0 -47 -34 -81t-82 -34z" />
    <glyph glyph-name="Aring" unicode="&#xc5;" horiz-adv-x="1587" 
d="M405 474v25h596v-25h-596zM876 1529l522 -1504h149v-25h-685v25h176l-375 1158l-406 -1158h224v-25h-440v25h187l530 1504h118zM811 1680q-91 0 -145.5 52t-54.5 128q0 77 54.5 128.5t145.5 51.5q92 0 146 -51.5t54 -128.5q0 -76 -54 -128t-146 -52zM811 1705
q29 0 46.5 19t25 53.5t7.5 82.5t-7.5 82.5t-25 53.5t-46.5 19t-46.5 -19t-25 -53.5t-7.5 -82.5t7.5 -82.5t25 -53.5t46.5 -19z" />
    <glyph glyph-name="AE" unicode="&#xc6;" horiz-adv-x="2100" 
d="M196 0l849 1500h27l-846 -1500h-30zM29 0v25h442v-25h-442zM486 477l5 25h579v-25h-584zM870 0v25h710q132 0 223.5 53.5t144 149t67.5 222.5h25v-450h-1170zM1050 0v1500h310v-1500h-310zM1685 526q-15 67 -53.5 121t-92 85.5t-109.5 31.5h-120v24h120q56 0 109.5 29
t92 80.5t53.5 118.5h25v-490h-25zM1995 1090q-15 107 -66 194.5t-134 139t-195 51.5h-550v25h970v-410h-25z" />
    <glyph glyph-name="Ccedilla" unicode="&#xc7;" horiz-adv-x="1430" 
d="M809 -20q-223 0 -384 99.5t-248 273.5t-87 397t87 397t248 273.5t384 99.5q93 0 172.5 -32t141.5 -90l170 102h22v-440h-27q-36 126 -102 222.5t-156.5 150.5t-200.5 54q-111 0 -186.5 -63t-120 -169t-64 -237t-19.5 -268q0 -136 19.5 -267.5t64 -237.5t120 -169
t186.5 -63q101 0 179 33.5t137 92t99.5 136t64.5 165.5h26v-440h-23l-155 110q-65 -61 -153 -95.5t-195 -34.5zM655 -505v24q88 0 132 35t44 90q0 51 -26 77t-68.5 34.5t-92.5 8.5l172 232h32l-113 -152q94 -3 165.5 -20t112 -51.5t40.5 -90.5q0 -50 -37 -93t-124 -68.5
t-237 -25.5z" />
    <glyph glyph-name="Egrave" unicode="&#xc8;" horiz-adv-x="1273" 
d="M41 0v25h180v1450h-180v25h1145v-410h-25q-15 107 -66 194.5t-136.5 139t-202.5 51.5h-225v-1450h205q137 0 230.5 53.5t146.5 149t68 222.5h25v-450h-1165zM851 526q-15 67 -54 121t-91.5 85.5t-109.5 31.5h-130v24h130q57 0 109.5 29t91.5 80.5t54 118.5h25v-490h-25z
M761 1680l-277 88q-48 10 -75 43t-30.5 74t17.5 73q18 28 56.5 41t80.5 1.5t71 -59.5l170 -244z" />
    <glyph glyph-name="Eacute" unicode="&#xc9;" horiz-adv-x="1273" 
d="M41 0v25h180v1450h-180v25h1145v-410h-25q-15 107 -66 194.5t-136.5 139t-202.5 51.5h-225v-1450h205q137 0 230.5 53.5t146.5 149t68 222.5h25v-450h-1165zM851 526q-15 67 -54 121t-91.5 85.5t-109.5 31.5h-130v24h130q57 0 109.5 29t91.5 80.5t54 118.5h25v-490h-25z
M580 1680l-13 17l170 244q29 48 71 59.5t80.5 -1.5t57.5 -41q21 -32 17 -73t-31 -74t-75 -43z" />
    <glyph glyph-name="Ecircumflex" unicode="&#xca;" horiz-adv-x="1273" 
d="M41 0v25h180v1450h-180v25h1145v-410h-25q-15 107 -66 194.5t-136.5 139t-202.5 51.5h-225v-1450h205q137 0 230.5 53.5t146.5 149t68 222.5h25v-450h-1165zM851 526q-15 67 -54 121t-91.5 85.5t-109.5 31.5h-130v24h130q57 0 109.5 29t91.5 80.5t54 118.5h25v-490h-25z
M360 1704l-12 13l240 270h170l240 -270l-13 -13l-313 143z" />
    <glyph glyph-name="Edieresis" unicode="&#xcb;" horiz-adv-x="1273" 
d="M41 0v25h180v1450h-180v25h1145v-410h-25q-15 107 -66 194.5t-136.5 139t-202.5 51.5h-225v-1450h205q137 0 230.5 53.5t146.5 149t68 222.5h25v-450h-1165zM851 526q-15 67 -54 121t-91.5 85.5t-109.5 31.5h-130v24h130q57 0 109.5 29t91.5 80.5t54 118.5h25v-490h-25z
M858 1685q-47 0 -81 34t-34 81q0 48 34 82t81 34q48 0 82 -34t34 -82q0 -47 -34 -81t-82 -34zM484 1685q-47 0 -81 34t-34 81q0 48 34 82t81 34q48 0 82 -34t34 -82q0 -47 -34 -81t-82 -34z" />
    <glyph glyph-name="Igrave" unicode="&#xcc;" horiz-adv-x="851" 
d="M41 0v25h220v1450h-220v25h770v-25h-240v-1450h240v-25h-770zM505 1680l-277 88q-48 10 -75 43t-30.5 74t17.5 73q18 28 56.5 41t80.5 1.5t71 -59.5l170 -244z" />
    <glyph glyph-name="Iacute" unicode="&#xcd;" horiz-adv-x="851" 
d="M41 0v25h220v1450h-220v25h770v-25h-240v-1450h240v-25h-770zM324 1680l-13 17l170 244q29 48 71 59.5t80.5 -1.5t57.5 -41q21 -32 17 -73t-31 -74t-75 -43z" />
    <glyph glyph-name="Icircumflex" unicode="&#xce;" horiz-adv-x="851" 
d="M41 0v25h220v1450h-220v25h770v-25h-240v-1450h240v-25h-770zM103 1704l-12 13l240 270h170l240 -270l-13 -13l-313 143z" />
    <glyph glyph-name="Idieresis" unicode="&#xcf;" horiz-adv-x="851" 
d="M41 0v25h220v1450h-220v25h770v-25h-240v-1450h240v-25h-770zM602 1685q-47 0 -81 34t-34 81q0 48 34 82t81 34q48 0 82 -34t34 -82q0 -47 -34 -81t-82 -34zM228 1685q-47 0 -81 34t-34 81q0 48 34 82t81 34q48 0 82 -34t34 -82q0 -47 -34 -81t-82 -34z" />
    <glyph glyph-name="Eth" unicode="&#xd0;" horiz-adv-x="1529" 
d="M64 738v24h710v-24h-710zM681 1500q237 0 407.5 -94.5t261.5 -263.5t91 -392q0 -167 -54.5 -304.5t-155 -237.5t-240.5 -154t-310 -54h-640v25h180v1450h-180v25h640zM531 25h150q115 0 194 57t126.5 157.5t68.5 232t21 278.5q0 148 -24 279t-73.5 231.5t-127 157.5
t-185.5 57h-150v-1450z" />
    <glyph glyph-name="Ntilde" unicode="&#xd1;" horiz-adv-x="1537" 
d="M269 1500v-1475h231v-25h-459v25h202v1450h-202v25h228zM1497 1500v-25h-211v-1495h-33l-1002 1520h369l641 -990v965h-228v25h464zM965 1660q-59 0 -105.5 24t-86.5 55t-82.5 55t-94.5 24t-86 -31t-34 -87h-25q0 85 23.5 151.5t69 104.5t109.5 38q62 0 107 -24t82.5 -55
t75 -55t84.5 -24q57 0 88.5 31.5t31.5 86.5h25q0 -95 -14.5 -160.5t-54 -99.5t-113.5 -34z" />
    <glyph glyph-name="Ograve" unicode="&#xd2;" horiz-adv-x="1538" 
d="M770 -20q-160 0 -286 58.5t-214 163t-134 244.5t-46 304t48.5 304t138.5 245t215 163t278 58q152 0 277 -58t215 -163t138.5 -245t48.5 -304t-46 -304t-134 -245t-214 -163t-285 -58zM770 3q104 0 169 58t100 160.5t48 238t13 290.5t-16 290.5t-53 238t-100.5 160.5
t-160.5 58t-161 -58t-101 -160.5t-53 -238t-16 -290.5t13 -290.5t48 -238t100.5 -160.5t169.5 -58zM860 1680l-277 88q-48 10 -75 43t-30.5 74t17.5 73q18 28 56.5 41t80.5 1.5t71 -59.5l170 -244z" />
    <glyph glyph-name="Oacute" unicode="&#xd3;" horiz-adv-x="1538" 
d="M770 -20q-160 0 -286 58.5t-214 163t-134 244.5t-46 304t48.5 304t138.5 245t215 163t278 58q152 0 277 -58t215 -163t138.5 -245t48.5 -304t-46 -304t-134 -245t-214 -163t-285 -58zM770 3q104 0 169 58t100 160.5t48 238t13 290.5t-16 290.5t-53 238t-100.5 160.5
t-160.5 58t-161 -58t-101 -160.5t-53 -238t-16 -290.5t13 -290.5t48 -238t100.5 -160.5t169.5 -58zM679 1680l-13 17l170 244q29 48 71 59.5t80.5 -1.5t57.5 -41q21 -32 17 -73t-31 -74t-75 -43z" />
    <glyph glyph-name="Ocircumflex" unicode="&#xd4;" horiz-adv-x="1538" 
d="M770 -20q-160 0 -286 58.5t-214 163t-134 244.5t-46 304t48.5 304t138.5 245t215 163t278 58q152 0 277 -58t215 -163t138.5 -245t48.5 -304t-46 -304t-134 -245t-214 -163t-285 -58zM770 3q104 0 169 58t100 160.5t48 238t13 290.5t-16 290.5t-53 238t-100.5 160.5
t-160.5 58t-161 -58t-101 -160.5t-53 -238t-16 -290.5t13 -290.5t48 -238t100.5 -160.5t169.5 -58zM458 1704l-12 13l240 270h170l240 -270l-13 -13l-313 143z" />
    <glyph glyph-name="Otilde" unicode="&#xd5;" horiz-adv-x="1538" 
d="M770 -20q-160 0 -286 58.5t-214 163t-134 244.5t-46 304t48.5 304t138.5 245t215 163t278 58q152 0 277 -58t215 -163t138.5 -245t48.5 -304t-46 -304t-134 -245t-214 -163t-285 -58zM770 3q104 0 169 58t100 160.5t48 238t13 290.5t-16 290.5t-53 238t-100.5 160.5
t-160.5 58t-161 -58t-101 -160.5t-53 -238t-16 -290.5t13 -290.5t48 -238t100.5 -160.5t169.5 -58zM935 1660q-59 0 -105.5 24t-86.5 55t-82.5 55t-94.5 24t-86 -31t-34 -87h-25q0 85 23.5 151.5t69 104.5t109.5 38q62 0 107 -24t82.5 -55t75 -55t84.5 -24q57 0 88.5 31.5
t31.5 86.5h25q0 -95 -14.5 -160.5t-54 -99.5t-113.5 -34z" />
    <glyph glyph-name="Odieresis" unicode="&#xd6;" horiz-adv-x="1538" 
d="M770 -20q-160 0 -286 58.5t-214 163t-134 244.5t-46 304t48.5 304t138.5 245t215 163t278 58q152 0 277 -58t215 -163t138.5 -245t48.5 -304t-46 -304t-134 -245t-214 -163t-285 -58zM770 3q104 0 169 58t100 160.5t48 238t13 290.5t-16 290.5t-53 238t-100.5 160.5
t-160.5 58t-161 -58t-101 -160.5t-53 -238t-16 -290.5t13 -290.5t48 -238t100.5 -160.5t169.5 -58zM957 1685q-47 0 -81 34t-34 81q0 48 34 82t81 34q48 0 82 -34t34 -82q0 -47 -34 -81t-82 -34zM583 1685q-47 0 -81 34t-34 81q0 48 34 82t81 34q48 0 82 -34t34 -82
q0 -47 -34 -81t-82 -34z" />
    <glyph glyph-name="multiply" unicode="&#xd7;" horiz-adv-x="922" 
d="M309 472l-177 177l420 420l177 -177zM552 472l-419 420l177 177l419 -420z" />
    <glyph glyph-name="Oslash" unicode="&#xd8;" horiz-adv-x="1538" 
d="M337 -200l865 1861h25l-865 -1861h-25zM770 -20q-160 0 -286 58.5t-214 163t-134 244.5t-46 304t48.5 304t138.5 245t215 163t278 58q152 0 277 -58t215 -163t138.5 -245t48.5 -304t-46 -304t-134 -245t-214 -163t-285 -58zM770 3q104 0 169 58t100 160.5t48 238
t13 290.5t-16 290.5t-53 238t-100.5 160.5t-160.5 58t-161 -58t-101 -160.5t-53 -238t-16 -290.5t13 -290.5t48 -238t100.5 -160.5t169.5 -58z" />
    <glyph glyph-name="Ugrave" unicode="&#xd9;" horiz-adv-x="1466" 
d="M1424 1500v-25h-193v-1015q0 -247 -114 -368t-358 -121q-282 0 -411 115t-129 374v1015h-180v25h690v-25h-200v-995q0 -99 12 -184.5t44.5 -149.5t93 -100t156.5 -36q113 0 196.5 46t129.5 145t46 259v1015h-184v25h401zM901 1680l-277 88q-48 10 -75 43t-30.5 74
t17.5 73q18 28 56.5 41t80.5 1.5t71 -59.5l170 -244z" />
    <glyph glyph-name="Uacute" unicode="&#xda;" horiz-adv-x="1466" 
d="M1424 1500v-25h-193v-1015q0 -247 -114 -368t-358 -121q-282 0 -411 115t-129 374v1015h-180v25h690v-25h-200v-995q0 -99 12 -184.5t44.5 -149.5t93 -100t156.5 -36q113 0 196.5 46t129.5 145t46 259v1015h-184v25h401zM720 1680l-13 17l170 244q29 48 71 59.5
t80.5 -1.5t57.5 -41q21 -32 17 -73t-31 -74t-75 -43z" />
    <glyph glyph-name="Ucircumflex" unicode="&#xdb;" horiz-adv-x="1466" 
d="M1424 1500v-25h-193v-1015q0 -247 -114 -368t-358 -121q-282 0 -411 115t-129 374v1015h-180v25h690v-25h-200v-995q0 -99 12 -184.5t44.5 -149.5t93 -100t156.5 -36q113 0 196.5 46t129.5 145t46 259v1015h-184v25h401zM499 1704l-12 13l240 270h170l240 -270l-13 -13
l-313 143z" />
    <glyph glyph-name="Udieresis" unicode="&#xdc;" horiz-adv-x="1466" 
d="M1424 1500v-25h-193v-1015q0 -247 -114 -368t-358 -121q-282 0 -411 115t-129 374v1015h-180v25h690v-25h-200v-995q0 -99 12 -184.5t44.5 -149.5t93 -100t156.5 -36q113 0 196.5 46t129.5 145t46 259v1015h-184v25h401zM997 1685q-47 0 -81 34t-34 81q0 48 34 82t81 34
q48 0 82 -34t34 -82q0 -47 -34 -81t-82 -34zM623 1685q-47 0 -81 34t-34 81q0 48 34 82t81 34q48 0 82 -34t34 -82q0 -47 -34 -81t-82 -34z" />
    <glyph glyph-name="Yacute" unicode="&#xdd;" horiz-adv-x="1486" 
d="M427 0v25h179v695l-439 755h-140v25h700v-25h-200l377 -683l355 683h-219v25h417v-25h-168l-373 -714v-736h201v-25h-690zM720 1680l-13 17l170 244q29 48 71 59.5t80.5 -1.5t57.5 -41q21 -32 17 -73t-31 -74t-75 -43z" />
    <glyph glyph-name="Thorn" unicode="&#xde;" horiz-adv-x="1339" 
d="M480 360v25h190q72 0 121.5 36t80.5 94.5t44.5 128t13.5 136.5t-13.5 136.5t-44.5 128t-80.5 94.5t-121.5 36h-190v25h260q271 0 400.5 -113t129.5 -307q0 -195 -129.5 -307.5t-400.5 -112.5h-260zM29 0v25h671v-25h-671zM210 0v1500h310v-1500h-310zM29 1475v25h671v-25
h-671z" />
    <glyph glyph-name="germandbls" unicode="&#xdf;" horiz-adv-x="1541" 
d="M210 0v982q0 138 51.5 239t140 167.5t202 99t237.5 32.5q111 0 212.5 -26.5t180 -75t124 -113.5t45.5 -143q0 -110 -65.5 -189.5t-198 -122t-333.5 -42.5v15q82 0 135.5 31.5t84 81t42.5 104.5t12 103q0 54 -12 115.5t-40 115.5t-76 88.5t-121 34.5q-96 0 -158.5 -43
t-98 -118t-49.5 -171t-14 -203v-962h-301zM29 0v25h631v-25h-631zM1017 -20q-159 0 -250 90t-91 246q0 77 49 126.5t120 49.5q65 0 111.5 -44t46.5 -113q0 -46 -23.5 -81t-60.5 -54.5t-80 -19.5q-34 0 -71 17.5t-63 48.5t-27 70h23q0 -104 39 -170.5t98.5 -99.5t119.5 -33
q59 0 95 29.5t55 76t25.5 100t6.5 101.5q0 71 -10.5 153.5t-44 156.5t-100.5 121.5t-179 47.5v15q181 0 306.5 -36.5t202.5 -100.5t112 -149t35 -183q0 -88 -37.5 -156t-101.5 -114.5t-143 -70.5t-163 -24z" />
    <glyph glyph-name="agrave" unicode="&#xe0;" horiz-adv-x="1160" 
d="M890 -20q-65 0 -116 17.5t-80.5 56.5t-29.5 102v453q0 72 -14 141t-54 114t-120 45q-45 0 -96.5 -10.5t-97.5 -33t-75 -58t-29 -85.5h-29q0 63 47.5 101.5t109.5 38.5q65 0 114.5 -35t49.5 -101q0 -71 -50 -107.5t-114 -36.5q-68 0 -113.5 37.5t-45.5 102.5q0 56 33 96.5
t87.5 66.5t121.5 38.5t136 12.5q152 0 243.5 -42.5t132.5 -116.5t41 -168v-496q0 -33 15 -56t53 -23q26 0 64 22.5t62 70.5l15 -15q-29 -63 -98.5 -97.5t-162.5 -34.5zM362 -20q-130 0 -207.5 66.5t-77.5 180.5q0 134 116 208.5t329 74.5h235v-22h-169q-76 0 -121.5 -37.5
t-66 -91.5t-20.5 -104q0 -47 11 -88t36.5 -67t66.5 -26q44 0 82.5 31t63 95t24.5 162h16q0 -117 -37.5 -203t-108 -132.5t-172.5 -46.5zM652 1100l-277 88q-48 10 -75 43t-30.5 74t17.5 73q18 28 56.5 41t80.5 1.5t71 -59.5l170 -244z" />
    <glyph glyph-name="aacute" unicode="&#xe1;" horiz-adv-x="1160" 
d="M890 -20q-65 0 -116 17.5t-80.5 56.5t-29.5 102v453q0 72 -14 141t-54 114t-120 45q-45 0 -96.5 -10.5t-97.5 -33t-75 -58t-29 -85.5h-29q0 63 47.5 101.5t109.5 38.5q65 0 114.5 -35t49.5 -101q0 -71 -50 -107.5t-114 -36.5q-68 0 -113.5 37.5t-45.5 102.5q0 56 33 96.5
t87.5 66.5t121.5 38.5t136 12.5q152 0 243.5 -42.5t132.5 -116.5t41 -168v-496q0 -33 15 -56t53 -23q26 0 64 22.5t62 70.5l15 -15q-29 -63 -98.5 -97.5t-162.5 -34.5zM362 -20q-130 0 -207.5 66.5t-77.5 180.5q0 134 116 208.5t329 74.5h235v-22h-169q-76 0 -121.5 -37.5
t-66 -91.5t-20.5 -104q0 -47 11 -88t36.5 -67t66.5 -26q44 0 82.5 31t63 95t24.5 162h16q0 -117 -37.5 -203t-108 -132.5t-172.5 -46.5zM471 1100l-13 17l170 244q29 48 71 59.5t80.5 -1.5t57.5 -41q21 -32 17 -73t-31 -74t-75 -43z" />
    <glyph glyph-name="acircumflex" unicode="&#xe2;" horiz-adv-x="1160" 
d="M890 -20q-65 0 -116 17.5t-80.5 56.5t-29.5 102v453q0 72 -14 141t-54 114t-120 45q-45 0 -96.5 -10.5t-97.5 -33t-75 -58t-29 -85.5h-29q0 63 47.5 101.5t109.5 38.5q65 0 114.5 -35t49.5 -101q0 -71 -50 -107.5t-114 -36.5q-68 0 -113.5 37.5t-45.5 102.5q0 56 33 96.5
t87.5 66.5t121.5 38.5t136 12.5q152 0 243.5 -42.5t132.5 -116.5t41 -168v-496q0 -33 15 -56t53 -23q26 0 64 22.5t62 70.5l15 -15q-29 -63 -98.5 -97.5t-162.5 -34.5zM362 -20q-130 0 -207.5 66.5t-77.5 180.5q0 134 116 208.5t329 74.5h235v-22h-169q-76 0 -121.5 -37.5
t-66 -91.5t-20.5 -104q0 -47 11 -88t36.5 -67t66.5 -26q44 0 82.5 31t63 95t24.5 162h16q0 -117 -37.5 -203t-108 -132.5t-172.5 -46.5zM251 1124l-12 13l240 270h170l240 -270l-13 -13l-313 143z" />
    <glyph glyph-name="atilde" unicode="&#xe3;" horiz-adv-x="1160" 
d="M890 -20q-65 0 -116 17.5t-80.5 56.5t-29.5 102v453q0 72 -14 141t-54 114t-120 45q-45 0 -96.5 -10.5t-97.5 -33t-75 -58t-29 -85.5h-29q0 63 47.5 101.5t109.5 38.5q65 0 114.5 -35t49.5 -101q0 -71 -50 -107.5t-114 -36.5q-68 0 -113.5 37.5t-45.5 102.5q0 56 33 96.5
t87.5 66.5t121.5 38.5t136 12.5q152 0 243.5 -42.5t132.5 -116.5t41 -168v-496q0 -33 15 -56t53 -23q26 0 64 22.5t62 70.5l15 -15q-29 -63 -98.5 -97.5t-162.5 -34.5zM362 -20q-130 0 -207.5 66.5t-77.5 180.5q0 134 116 208.5t329 74.5h235v-22h-169q-76 0 -121.5 -37.5
t-66 -91.5t-20.5 -104q0 -47 11 -88t36.5 -67t66.5 -26q44 0 82.5 31t63 95t24.5 162h16q0 -117 -37.5 -203t-108 -132.5t-172.5 -46.5zM728 1080q-59 0 -105.5 24t-86.5 55t-82.5 55t-94.5 24t-86 -31t-34 -87h-25q0 85 23.5 151.5t69 104.5t109.5 38q62 0 107 -24
t82.5 -55t75 -55t84.5 -24q57 0 88.5 31.5t31.5 86.5h25q0 -95 -14.5 -160.5t-54 -99.5t-113.5 -34z" />
    <glyph glyph-name="adieresis" unicode="&#xe4;" horiz-adv-x="1160" 
d="M890 -20q-65 0 -116 17.5t-80.5 56.5t-29.5 102v453q0 72 -14 141t-54 114t-120 45q-45 0 -96.5 -10.5t-97.5 -33t-75 -58t-29 -85.5h-29q0 63 47.5 101.5t109.5 38.5q65 0 114.5 -35t49.5 -101q0 -71 -50 -107.5t-114 -36.5q-68 0 -113.5 37.5t-45.5 102.5q0 56 33 96.5
t87.5 66.5t121.5 38.5t136 12.5q152 0 243.5 -42.5t132.5 -116.5t41 -168v-496q0 -33 15 -56t53 -23q26 0 64 22.5t62 70.5l15 -15q-29 -63 -98.5 -97.5t-162.5 -34.5zM362 -20q-130 0 -207.5 66.5t-77.5 180.5q0 134 116 208.5t329 74.5h235v-22h-169q-76 0 -121.5 -37.5
t-66 -91.5t-20.5 -104q0 -47 11 -88t36.5 -67t66.5 -26q44 0 82.5 31t63 95t24.5 162h16q0 -117 -37.5 -203t-108 -132.5t-172.5 -46.5zM749 1105q-47 0 -81 34t-34 81q0 48 34 82t81 34q48 0 82 -34t34 -82q0 -47 -34 -81t-82 -34zM375 1105q-47 0 -81 34t-34 81
q0 48 34 82t81 34q48 0 82 -34t34 -82q0 -47 -34 -81t-82 -34z" />
    <glyph glyph-name="aring" unicode="&#xe5;" horiz-adv-x="1160" 
d="M890 -20q-65 0 -116 17.5t-80.5 56.5t-29.5 102v453q0 72 -14 141t-54 114t-120 45q-45 0 -96.5 -10.5t-97.5 -33t-75 -58t-29 -85.5h-29q0 63 47.5 101.5t109.5 38.5q65 0 114.5 -35t49.5 -101q0 -71 -50 -107.5t-114 -36.5q-68 0 -113.5 37.5t-45.5 102.5q0 56 33 96.5
t87.5 66.5t121.5 38.5t136 12.5q152 0 243.5 -42.5t132.5 -116.5t41 -168v-496q0 -33 15 -56t53 -23q26 0 64 22.5t62 70.5l15 -15q-29 -63 -98.5 -97.5t-162.5 -34.5zM362 -20q-130 0 -207.5 66.5t-77.5 180.5q0 134 116 208.5t329 74.5h235v-22h-169q-76 0 -121.5 -37.5
t-66 -91.5t-20.5 -104q0 -47 11 -88t36.5 -67t66.5 -26q44 0 82.5 31t63 95t24.5 162h16q0 -117 -37.5 -203t-108 -132.5t-172.5 -46.5zM563 1100q-91 0 -145.5 52t-54.5 128q0 77 54.5 128.5t145.5 51.5q92 0 146 -51.5t54 -128.5q0 -76 -54 -128t-146 -52zM563 1125
q29 0 46.5 19t25 53.5t7.5 82.5t-7.5 82.5t-25 53.5t-46.5 19t-46.5 -19t-25 -53.5t-7.5 -82.5t7.5 -82.5t25 -53.5t46.5 -19z" />
    <glyph glyph-name="ae" unicode="&#xe6;" horiz-adv-x="1708" 
d="M430 -20q-59 0 -120.5 12.5t-113.5 40.5t-84 76t-32 118q0 84 52.5 148t152.5 100.5t242 36.5h134v97q0 50 -7.5 103t-27 97.5t-56.5 72t-97 27.5q-36 0 -77.5 -7.5t-80.5 -23t-69 -40.5t-44 -60q15 34 48.5 54.5t67.5 25.5q62 0 106 -38.5t44 -93.5q0 -71 -53.5 -107.5
t-114.5 -36.5q-64 0 -108.5 37.5t-44.5 102.5q0 75 55.5 122.5t142 69.5t180.5 22q102 0 170.5 -25.5t110 -69.5t61.5 -97l-24 -5q52 99 143.5 150.5t212.5 51.5q148 0 244.5 -59.5t143.5 -155.5t47 -205h-605v-22.5v-23.5q0 -94 9.5 -177.5t34 -146.5t68.5 -99.5t114 -36.5
q134 0 227.5 75t130.5 190h27q-39 -128 -145.5 -213.5t-287.5 -85.5q-134 0 -233 63.5t-148 182.5h25q-33 -84 -98 -139t-149 -81.5t-174 -26.5zM509 20q43 0 77.5 39.5t54.5 115.5t20 186v128h-79q-69 0 -113 -36.5t-65 -93.5t-21 -121q0 -108 34.5 -163t91.5 -55z
M1030 546h307q0 62 -4.5 127t-18 120.5t-41 89.5t-74.5 34q-60 0 -95.5 -51t-52.5 -135.5t-21 -184.5z" />
    <glyph glyph-name="ccedilla" unicode="&#xe7;" horiz-adv-x="1051" 
d="M563 -20q-136 0 -246 52.5t-175 159t-65 268.5q0 143 57 251t166.5 168.5t265.5 60.5q117 0 205 -36.5t137 -97.5t49 -135q0 -72 -47 -114t-111 -42q-38 0 -76 16.5t-63 51t-25 86.5q0 71 49.5 111t114.5 40q61 0 108.5 -39t47.5 -110h-23q0 54 -28 98t-74 75t-99.5 47.5
t-103.5 16.5q-73 0 -116.5 -42.5t-66 -110.5t-30 -146t-7.5 -149q0 -86 10 -164.5t34.5 -140t68.5 -97t112 -35.5q79 0 138.5 32.5t100.5 90.5t66 133h26q-39 -133 -134 -216t-266 -83zM376 -502v24q88 0 132 35t44 90q0 51 -26 77t-68.5 34.5t-92.5 8.5l172 232h32
l-113 -152q94 -3 165.5 -20t112 -51.5t40.5 -90.5q0 -50 -37 -93t-124 -68.5t-237 -25.5z" />
    <glyph glyph-name="egrave" unicode="&#xe8;" horiz-adv-x="1065" 
d="M564 -20q-140 0 -250.5 55.5t-174 162.5t-63.5 262t61.5 262t170 162.5t248.5 55.5q148 0 244 -60t142.5 -156t46.5 -205h-779v25h482q0 63 -4 128t-17.5 120.5t-40.5 89t-74 33.5q-51 0 -84 -35t-52 -96.5t-27 -139.5t-8 -164q0 -97 9.5 -181.5t34.5 -148.5t69 -100
t114 -36q134 0 227 75t130 190h26q-39 -128 -144.5 -213.5t-286.5 -85.5zM642 1100l-277 88q-48 10 -75 43t-30.5 74t17.5 73q18 28 56.5 41t80.5 1.5t71 -59.5l170 -244z" />
    <glyph glyph-name="eacute" unicode="&#xe9;" horiz-adv-x="1065" 
d="M564 -20q-140 0 -250.5 55.5t-174 162.5t-63.5 262t61.5 262t170 162.5t248.5 55.5q148 0 244 -60t142.5 -156t46.5 -205h-779v25h482q0 63 -4 128t-17.5 120.5t-40.5 89t-74 33.5q-51 0 -84 -35t-52 -96.5t-27 -139.5t-8 -164q0 -97 9.5 -181.5t34.5 -148.5t69 -100
t114 -36q134 0 227 75t130 190h26q-39 -128 -144.5 -213.5t-286.5 -85.5zM461 1100l-13 17l170 244q29 48 71 59.5t80.5 -1.5t57.5 -41q21 -32 17 -73t-31 -74t-75 -43z" />
    <glyph glyph-name="ecircumflex" unicode="&#xea;" horiz-adv-x="1065" 
d="M564 -20q-140 0 -250.5 55.5t-174 162.5t-63.5 262t61.5 262t170 162.5t248.5 55.5q148 0 244 -60t142.5 -156t46.5 -205h-779v25h482q0 63 -4 128t-17.5 120.5t-40.5 89t-74 33.5q-51 0 -84 -35t-52 -96.5t-27 -139.5t-8 -164q0 -97 9.5 -181.5t34.5 -148.5t69 -100
t114 -36q134 0 227 75t130 190h26q-39 -128 -144.5 -213.5t-286.5 -85.5zM241 1124l-12 13l240 270h170l240 -270l-13 -13l-313 143z" />
    <glyph glyph-name="edieresis" unicode="&#xeb;" horiz-adv-x="1065" 
d="M564 -20q-140 0 -250.5 55.5t-174 162.5t-63.5 262t61.5 262t170 162.5t248.5 55.5q148 0 244 -60t142.5 -156t46.5 -205h-779v25h482q0 63 -4 128t-17.5 120.5t-40.5 89t-74 33.5q-51 0 -84 -35t-52 -96.5t-27 -139.5t-8 -164q0 -97 9.5 -181.5t34.5 -148.5t69 -100
t114 -36q134 0 227 75t130 190h26q-39 -128 -144.5 -213.5t-286.5 -85.5zM739 1105q-47 0 -81 34t-34 81q0 48 34 82t81 34q48 0 82 -34t34 -82q0 -47 -34 -81t-82 -34zM365 1105q-47 0 -81 34t-34 81q0 48 34 82t81 34q48 0 82 -34t34 -82q0 -47 -34 -81t-82 -34z" />
    <glyph glyph-name="igrave" unicode="&#xec;" horiz-adv-x="647" 
d="M469 920v-895h133v-25h-546v25h133v870h-133v25h413zM420 1100l-277 88q-48 10 -75 43t-30.5 74t17.5 73q18 28 56.5 41t80.5 1.5t71 -59.5l170 -244z" />
    <glyph glyph-name="iacute" unicode="&#xed;" horiz-adv-x="647" 
d="M469 920v-895h133v-25h-546v25h133v870h-133v25h413zM239 1100l-13 17l170 244q29 48 71 59.5t80.5 -1.5t57.5 -41q21 -32 17 -73t-31 -74t-75 -43z" />
    <glyph glyph-name="icircumflex" unicode="&#xee;" horiz-adv-x="647" 
d="M469 920v-895h133v-25h-546v25h133v870h-133v25h413zM19 1124l-12 13l240 270h170l240 -270l-13 -13l-313 143z" />
    <glyph glyph-name="idieresis" unicode="&#xef;" horiz-adv-x="647" 
d="M469 920v-895h133v-25h-546v25h133v870h-133v25h413zM517 1105q-47 0 -81 34t-34 81q0 48 34 82t81 34q48 0 82 -34t34 -82q0 -47 -34 -81t-82 -34zM143 1105q-47 0 -81 34t-34 81q0 48 34 82t81 34q48 0 82 -34t34 -82q0 -47 -34 -81t-82 -34z" />
    <glyph glyph-name="eth" unicode="&#xf0;" horiz-adv-x="1219" 
d="M582 -20q-161 0 -277.5 67.5t-180 185t-63.5 267.5q0 128 41 220t109 150.5t151 86.5t166 28q111 0 172.5 -55t86 -151t24.5 -218h-21q0 130 -23.5 213.5t-69 124t-112.5 40.5q-48 0 -84.5 -24t-61 -76t-37 -135.5t-12.5 -203.5q0 -104 7 -194t26.5 -157.5t56 -105.5
t96.5 -38q59 0 100 41.5t66.5 117t36.5 177t11 220.5l-2 151q0 103 -26 213t-74.5 211.5t-119.5 183t-161 129.5t-197 48v23q192 0 357.5 -68t289.5 -190.5t193.5 -286t69.5 -355.5q0 -210 -67.5 -352.5t-188.5 -215t-282 -72.5zM261 1236v24h890v-25z" />
    <glyph glyph-name="ntilde" unicode="&#xf1;" horiz-adv-x="1246" 
d="M458 920v-895h103v-25h-515v25h134v870h-134v25h412zM1068 639v-614h133v-25h-515v25h103v598q0 84 -7 137.5t-27.5 79.5t-62.5 26q-64 0 -108.5 -39.5t-72.5 -102.5t-40.5 -136t-12.5 -141l-19 -4q0 73 13.5 158.5t50.5 162.5t105 126.5t177 49.5q113 0 174 -39t85 -107
t24 -155zM800 1080q-59 0 -105.5 24t-86.5 55t-82.5 55t-94.5 24t-86 -31t-34 -87h-25q0 85 23.5 151.5t69 104.5t109.5 38q62 0 107 -24t82.5 -55t75 -55t84.5 -24q57 0 88.5 31.5t31.5 86.5h25q0 -95 -14.5 -160.5t-54 -99.5t-113.5 -34z" />
    <glyph glyph-name="ograve" unicode="&#xf2;" horiz-adv-x="1128" 
d="M565 -20q-151 0 -260.5 66t-169 175t-59.5 239t59.5 239t169 175t260.5 66t260 -66t168 -175t59 -239t-59 -239t-168 -175t-260 -66zM565 5q55 0 91.5 37t58 101t30.5 146t9 171q0 90 -9 171.5t-30.5 145.5t-58 101t-91.5 37q-56 0 -92.5 -37t-58 -101t-30.5 -145.5
t-9 -171.5q0 -89 9 -171t30.5 -146t58 -101t92.5 -37zM654 1100l-277 88q-48 10 -75 43t-30.5 74t17.5 73q18 28 56.5 41t80.5 1.5t71 -59.5l170 -244z" />
    <glyph glyph-name="oacute" unicode="&#xf3;" horiz-adv-x="1128" 
d="M565 -20q-151 0 -260.5 66t-169 175t-59.5 239t59.5 239t169 175t260.5 66t260 -66t168 -175t59 -239t-59 -239t-168 -175t-260 -66zM565 5q55 0 91.5 37t58 101t30.5 146t9 171q0 90 -9 171.5t-30.5 145.5t-58 101t-91.5 37q-56 0 -92.5 -37t-58 -101t-30.5 -145.5
t-9 -171.5q0 -89 9 -171t30.5 -146t58 -101t92.5 -37zM473 1100l-13 17l170 244q29 48 71 59.5t80.5 -1.5t57.5 -41q21 -32 17 -73t-31 -74t-75 -43z" />
    <glyph glyph-name="ocircumflex" unicode="&#xf4;" horiz-adv-x="1128" 
d="M565 -20q-151 0 -260.5 66t-169 175t-59.5 239t59.5 239t169 175t260.5 66t260 -66t168 -175t59 -239t-59 -239t-168 -175t-260 -66zM565 5q55 0 91.5 37t58 101t30.5 146t9 171q0 90 -9 171.5t-30.5 145.5t-58 101t-91.5 37q-56 0 -92.5 -37t-58 -101t-30.5 -145.5
t-9 -171.5q0 -89 9 -171t30.5 -146t58 -101t92.5 -37zM252 1124l-12 13l240 270h170l240 -270l-13 -13l-313 143z" />
    <glyph glyph-name="otilde" unicode="&#xf5;" horiz-adv-x="1128" 
d="M565 -20q-151 0 -260.5 66t-169 175t-59.5 239t59.5 239t169 175t260.5 66t260 -66t168 -175t59 -239t-59 -239t-168 -175t-260 -66zM565 5q55 0 91.5 37t58 101t30.5 146t9 171q0 90 -9 171.5t-30.5 145.5t-58 101t-91.5 37q-56 0 -92.5 -37t-58 -101t-30.5 -145.5
t-9 -171.5q0 -89 9 -171t30.5 -146t58 -101t92.5 -37zM729 1080q-59 0 -105.5 24t-86.5 55t-82.5 55t-94.5 24t-86 -31t-34 -87h-25q0 85 23.5 151.5t69 104.5t109.5 38q62 0 107 -24t82.5 -55t75 -55t84.5 -24q57 0 88.5 31.5t31.5 86.5h25q0 -95 -14.5 -160.5t-54 -99.5
t-113.5 -34z" />
    <glyph glyph-name="odieresis" unicode="&#xf6;" horiz-adv-x="1128" 
d="M565 -20q-151 0 -260.5 66t-169 175t-59.5 239t59.5 239t169 175t260.5 66t260 -66t168 -175t59 -239t-59 -239t-168 -175t-260 -66zM565 5q55 0 91.5 37t58 101t30.5 146t9 171q0 90 -9 171.5t-30.5 145.5t-58 101t-91.5 37q-56 0 -92.5 -37t-58 -101t-30.5 -145.5
t-9 -171.5q0 -89 9 -171t30.5 -146t58 -101t92.5 -37zM751 1105q-47 0 -81 34t-34 81q0 48 34 82t81 34q48 0 82 -34t34 -82q0 -47 -34 -81t-82 -34zM377 1105q-47 0 -81 34t-34 81q0 48 34 82t81 34q48 0 82 -34t34 -82q0 -47 -34 -81t-82 -34z" />
    <glyph glyph-name="divide" unicode="&#xf7;" horiz-adv-x="1119" 
d="M561 960q-61 0 -106.5 44.5t-45.5 105.5q0 62 45.5 106t106.5 44q63 0 106 -44t43 -106q0 -61 -43 -105.5t-106 -44.5zM100 758v24h920v-24h-920zM561 250q-61 0 -106.5 44.5t-45.5 105.5q0 62 45.5 106t106.5 44q63 0 106 -44t43 -106q0 -61 -43 -105.5t-106 -44.5z" />
    <glyph glyph-name="oslash" unicode="&#xf8;" horiz-adv-x="1128" 
d="M116 -246l865 1404h25l-865 -1404h-25zM565 -20q-151 0 -260.5 66t-169 175t-59.5 239t59.5 239t169 175t260.5 66t260 -66t168 -175t59 -239t-59 -239t-168 -175t-260 -66zM565 5q55 0 91.5 37t58 101t30.5 146t9 171q0 90 -9 171.5t-30.5 145.5t-58 101t-91.5 37
q-56 0 -92.5 -37t-58 -101t-30.5 -146t-9 -171t9 -171t30.5 -146t58 -101t92.5 -37z" />
    <glyph glyph-name="ugrave" unicode="&#xf9;" horiz-adv-x="1248" 
d="M463 -20q-112 0 -173.5 39.5t-85.5 107.5t-24 155v613h-134v25h413v-623q0 -84 7 -137.5t28 -79.5t62 -26q65 0 109.5 39.5t71.5 102.5t39.5 136t12.5 141l19 4q0 -73 -13 -158.5t-49.5 -162.5t-104.5 -126.5t-178 -49.5zM789 0v895h-130v25h411v-895h133v-25h-414z
M672 1100l-277 88q-48 10 -75 43t-30.5 74t17.5 73q18 28 56.5 41t80.5 1.5t71 -59.5l170 -244z" />
    <glyph glyph-name="uacute" unicode="&#xfa;" horiz-adv-x="1248" 
d="M463 -20q-112 0 -173.5 39.5t-85.5 107.5t-24 155v613h-134v25h413v-623q0 -84 7 -137.5t28 -79.5t62 -26q65 0 109.5 39.5t71.5 102.5t39.5 136t12.5 141l19 4q0 -73 -13 -158.5t-49.5 -162.5t-104.5 -126.5t-178 -49.5zM789 0v895h-130v25h411v-895h133v-25h-414z
M491 1100l-13 17l170 244q29 48 71 59.5t80.5 -1.5t57.5 -41q21 -32 17 -73t-31 -74t-75 -43z" />
    <glyph glyph-name="ucircumflex" unicode="&#xfb;" horiz-adv-x="1248" 
d="M463 -20q-112 0 -173.5 39.5t-85.5 107.5t-24 155v613h-134v25h413v-623q0 -84 7 -137.5t28 -79.5t62 -26q65 0 109.5 39.5t71.5 102.5t39.5 136t12.5 141l19 4q0 -73 -13 -158.5t-49.5 -162.5t-104.5 -126.5t-178 -49.5zM789 0v895h-130v25h411v-895h133v-25h-414z
M270 1124l-12 13l240 270h170l240 -270l-13 -13l-313 143z" />
    <glyph glyph-name="udieresis" unicode="&#xfc;" horiz-adv-x="1248" 
d="M463 -20q-112 0 -173.5 39.5t-85.5 107.5t-24 155v613h-134v25h413v-623q0 -84 7 -137.5t28 -79.5t62 -26q65 0 109.5 39.5t71.5 102.5t39.5 136t12.5 141l19 4q0 -73 -13 -158.5t-49.5 -162.5t-104.5 -126.5t-178 -49.5zM789 0v895h-130v25h411v-895h133v-25h-414z
M768 1105q-47 0 -81 34t-34 81q0 48 34 82t81 34q48 0 82 -34t34 -82q0 -47 -34 -81t-82 -34zM394 1105q-47 0 -81 34t-34 81q0 48 34 82t81 34q48 0 82 -34t34 -82q0 -47 -34 -81t-82 -34z" />
    <glyph glyph-name="yacute" unicode="&#xfd;" horiz-adv-x="1204" 
d="M457 895l313 -619l-158 -324l-489 943h-123v25h646v-25h-189zM1215 920v-25h-150l-589 -1272q-30 -63 -71.5 -103.5t-111.5 -40.5q-37 0 -73 17t-60 50.5t-24 83.5q0 46 21.5 81.5t58 56t81.5 20.5q40 0 76 -22t57 -59t17 -85l588 1273h-189v25h369zM561 1100l-13 17
l170 244q29 48 71 59.5t80.5 -1.5t57.5 -41q21 -32 17 -73t-31 -74t-75 -43z" />
    <glyph glyph-name="thorn" unicode="&#xfe;" horiz-adv-x="1259" 
d="M38 -500v25h140v1950h-140v25h420v-893q26 158 106 244.5t208 86.5q108 0 204 -57t156 -164t60 -257t-60 -257.5t-156 -165t-204 -57.5q-127 0 -207.5 87.5t-106.5 245.5v-788h139v-25h-559zM707 27q57 0 94 49t55 145t18 239t-18 238.5t-55 144t-94 48.5
q-61 0 -118.5 -48.5t-94 -144t-36.5 -238.5t36.5 -239.5t94 -145t118.5 -48.5z" />
    <glyph glyph-name="ydieresis" unicode="&#xff;" horiz-adv-x="1204" 
d="M457 895l313 -619l-158 -324l-489 943h-123v25h646v-25h-189zM1215 920v-25h-150l-589 -1272q-30 -63 -71.5 -103.5t-111.5 -40.5q-37 0 -73 17t-60 50.5t-24 83.5q0 46 21.5 81.5t58 56t81.5 20.5q40 0 76 -22t57 -59t17 -85l588 1273h-189v25h369zM839 1105
q-47 0 -81 34t-34 81q0 48 34 82t81 34q48 0 82 -34t34 -82q0 -47 -34 -81t-82 -34zM465 1105q-47 0 -81 34t-34 81q0 48 34 82t81 34q48 0 82 -34t34 -82q0 -47 -34 -81t-82 -34z" />
    <glyph glyph-name="Amacron" unicode="&#x100;" horiz-adv-x="1587" 
d="M405 474v25h596v-25h-596zM876 1529l522 -1504h149v-25h-685v25h176l-375 1158l-406 -1158h224v-25h-440v25h187l530 1504h118zM571 1700v25h480v-25h-480z" />
    <glyph glyph-name="amacron" unicode="&#x101;" horiz-adv-x="1160" 
d="M890 -20q-65 0 -116 17.5t-80.5 56.5t-29.5 102v453q0 72 -14 141t-54 114t-120 45q-45 0 -96.5 -10.5t-97.5 -33t-75 -58t-29 -85.5h-29q0 63 47.5 101.5t109.5 38.5q65 0 114.5 -35t49.5 -101q0 -71 -50 -107.5t-114 -36.5q-68 0 -113.5 37.5t-45.5 102.5q0 56 33 96.5
t87.5 66.5t121.5 38.5t136 12.5q152 0 243.5 -42.5t132.5 -116.5t41 -168v-496q0 -33 15 -56t53 -23q26 0 64 22.5t62 70.5l15 -15q-29 -63 -98.5 -97.5t-162.5 -34.5zM362 -20q-130 0 -207.5 66.5t-77.5 180.5q0 134 116 208.5t329 74.5h235v-22h-169q-76 0 -121.5 -37.5
t-66 -91.5t-20.5 -104q0 -47 11 -88t36.5 -67t66.5 -26q44 0 82.5 31t63 95t24.5 162h16q0 -117 -37.5 -203t-108 -132.5t-172.5 -46.5zM323 1120v25h480v-25h-480z" />
    <glyph glyph-name="Abreve" unicode="&#x102;" horiz-adv-x="1587" 
d="M405 474v25h596v-25h-596zM876 1529l522 -1504h149v-25h-685v25h176l-375 1158l-406 -1158h224v-25h-440v25h187l530 1504h118zM811 1680q-85 0 -138 39.5t-77.5 111t-24.5 167.5h20q0 -46 32.5 -74.5t83 -41t104.5 -12.5t104.5 12.5t83 41t32.5 74.5h20
q0 -96 -24.5 -167.5t-77.5 -111t-138 -39.5z" />
    <glyph glyph-name="abreve" unicode="&#x103;" horiz-adv-x="1160" 
d="M890 -20q-65 0 -116 17.5t-80.5 56.5t-29.5 102v453q0 72 -14 141t-54 114t-120 45q-45 0 -96.5 -10.5t-97.5 -33t-75 -58t-29 -85.5h-29q0 63 47.5 101.5t109.5 38.5q65 0 114.5 -35t49.5 -101q0 -71 -50 -107.5t-114 -36.5q-68 0 -113.5 37.5t-45.5 102.5q0 56 33 96.5
t87.5 66.5t121.5 38.5t136 12.5q152 0 243.5 -42.5t132.5 -116.5t41 -168v-496q0 -33 15 -56t53 -23q26 0 64 22.5t62 70.5l15 -15q-29 -63 -98.5 -97.5t-162.5 -34.5zM362 -20q-130 0 -207.5 66.5t-77.5 180.5q0 134 116 208.5t329 74.5h235v-22h-169q-76 0 -121.5 -37.5
t-66 -91.5t-20.5 -104q0 -47 11 -88t36.5 -67t66.5 -26q44 0 82.5 31t63 95t24.5 162h16q0 -117 -37.5 -203t-108 -132.5t-172.5 -46.5zM563 1100q-85 0 -138 39.5t-77.5 111t-24.5 167.5h20q0 -46 32.5 -74.5t83 -41t104.5 -12.5t104.5 12.5t83 41t32.5 74.5h20
q0 -96 -24.5 -167.5t-77.5 -111t-138 -39.5z" />
    <glyph glyph-name="Aogonek" unicode="&#x104;" horiz-adv-x="1587" 
d="M405 474v25h596v-25h-596zM876 1529l522 -1504h149v-25h-685v25h176l-375 1158l-406 -1158h224v-25h-440v25h187l530 1504h118zM1161 -446q-66 0 -121.5 18t-90 56t-34.5 98t32 109.5t84.5 88.5t113 67t117.5 45l8 -16q-21 -12 -41.5 -45t-34 -83.5t-13.5 -113.5
q0 -77 28 -119.5t71 -42.5q41 0 66 27t47 67l18 -11q-15 -28 -40 -62t-74.5 -58.5t-135.5 -24.5z" />
    <glyph glyph-name="aogonek" unicode="&#x105;" horiz-adv-x="1160" 
d="M890 -20q-65 0 -116 17.5t-80.5 56.5t-29.5 102v453q0 72 -14 141t-54 114t-120 45q-45 0 -96.5 -10.5t-97.5 -33t-75 -58t-29 -85.5h-29q0 63 47.5 101.5t109.5 38.5q65 0 114.5 -35t49.5 -101q0 -71 -50 -107.5t-114 -36.5q-68 0 -113.5 37.5t-45.5 102.5q0 56 33 96.5
t87.5 66.5t121.5 38.5t136 12.5q152 0 243.5 -42.5t132.5 -116.5t41 -168v-496q0 -33 15 -56t53 -23q26 0 64 22.5t62 70.5l15 -15q-29 -63 -98.5 -97.5t-162.5 -34.5zM362 -20q-130 0 -207.5 66.5t-77.5 180.5q0 134 116 208.5t329 74.5h235v-22h-169q-76 0 -121.5 -37.5
t-66 -91.5t-20.5 -104q0 -47 11 -88t36.5 -67t66.5 -26q44 0 82.5 31t63 95t24.5 162h16q0 -117 -37.5 -203t-108 -132.5t-172.5 -46.5zM947 -446q-66 0 -121.5 18t-90 56t-34.5 98t32 109.5t84.5 88.5t113 67t117.5 45l8 -16q-21 -12 -41.5 -45t-34 -83.5t-13.5 -113.5
q0 -77 28 -119.5t71 -42.5q41 0 66 27t47 67l18 -11q-15 -28 -40 -62t-74.5 -58.5t-135.5 -24.5z" />
    <glyph glyph-name="Cacute" unicode="&#x106;" horiz-adv-x="1430" 
d="M809 -20q-223 0 -384 99.5t-248 273.5t-87 397t87 397t248 273.5t384 99.5q93 0 172.5 -32t141.5 -90l170 102h22v-440h-27q-36 126 -102 222.5t-156.5 150.5t-200.5 54q-111 0 -186.5 -63t-120 -169t-64 -237t-19.5 -268q0 -136 19.5 -267.5t64 -237.5t120 -169
t186.5 -63q101 0 179 33.5t137 92t99.5 136t64.5 165.5h26v-440h-23l-155 110q-65 -61 -153 -95.5t-195 -34.5zM719 1680l-13 17l170 244q29 48 71 59.5t80.5 -1.5t57.5 -41q21 -32 17 -73t-31 -74t-75 -43z" />
    <glyph glyph-name="cacute" unicode="&#x107;" horiz-adv-x="1051" 
d="M563 -20q-136 0 -246 52.5t-175 159t-65 268.5q0 143 57 251t166.5 168.5t265.5 60.5q117 0 205 -36.5t137 -97.5t49 -135q0 -72 -47 -114t-111 -42q-38 0 -76 16.5t-63 51t-25 86.5q0 71 49.5 111t114.5 40q61 0 108.5 -39t47.5 -110h-23q0 54 -28 98t-74 75t-99.5 47.5
t-103.5 16.5q-73 0 -116.5 -42.5t-66 -110.5t-30 -146t-7.5 -149q0 -86 10 -164.5t34.5 -140t68.5 -97t112 -35.5q79 0 138.5 32.5t100.5 90.5t66 133h26q-39 -133 -134 -216t-266 -83zM476 1100l-13 17l170 244q29 48 71 59.5t80.5 -1.5t57.5 -41q21 -32 17 -73t-31 -74
t-75 -43z" />
    <glyph glyph-name="Ccircumflex" unicode="&#x108;" horiz-adv-x="1430" 
d="M809 -20q-223 0 -384 99.5t-248 273.5t-87 397t87 397t248 273.5t384 99.5q93 0 172.5 -32t141.5 -90l170 102h22v-440h-27q-36 126 -102 222.5t-156.5 150.5t-200.5 54q-111 0 -186.5 -63t-120 -169t-64 -237t-19.5 -268q0 -136 19.5 -267.5t64 -237.5t120 -169
t186.5 -63q101 0 179 33.5t137 92t99.5 136t64.5 165.5h26v-440h-23l-155 110q-65 -61 -153 -95.5t-195 -34.5zM499 1704l-12 13l240 270h170l240 -270l-13 -13l-313 143z" />
    <glyph glyph-name="ccircumflex" unicode="&#x109;" horiz-adv-x="1051" 
d="M563 -20q-136 0 -246 52.5t-175 159t-65 268.5q0 143 57 251t166.5 168.5t265.5 60.5q117 0 205 -36.5t137 -97.5t49 -135q0 -72 -47 -114t-111 -42q-38 0 -76 16.5t-63 51t-25 86.5q0 71 49.5 111t114.5 40q61 0 108.5 -39t47.5 -110h-23q0 54 -28 98t-74 75t-99.5 47.5
t-103.5 16.5q-73 0 -116.5 -42.5t-66 -110.5t-30 -146t-7.5 -149q0 -86 10 -164.5t34.5 -140t68.5 -97t112 -35.5q79 0 138.5 32.5t100.5 90.5t66 133h26q-39 -133 -134 -216t-266 -83zM255 1124l-12 13l240 270h170l240 -270l-13 -13l-313 143z" />
    <glyph glyph-name="Cdotaccent" unicode="&#x10a;" horiz-adv-x="1430" 
d="M809 -20q-223 0 -384 99.5t-248 273.5t-87 397t87 397t248 273.5t384 99.5q93 0 172.5 -32t141.5 -90l170 102h22v-440h-27q-36 126 -102 222.5t-156.5 150.5t-200.5 54q-111 0 -186.5 -63t-120 -169t-64 -237t-19.5 -268q0 -136 19.5 -267.5t64 -237.5t120 -169
t186.5 -63q101 0 179 33.5t137 92t99.5 136t64.5 165.5h26v-440h-23l-155 110q-65 -61 -153 -95.5t-195 -34.5zM812 1758q-72 0 -121 49.5t-49 121.5t49 121t121 49t121 -49t49 -121t-49 -121.5t-121 -49.5z" />
    <glyph glyph-name="cdotaccent" unicode="&#x10b;" horiz-adv-x="1051" 
d="M563 -20q-136 0 -246 52.5t-175 159t-65 268.5q0 143 57 251t166.5 168.5t265.5 60.5q117 0 205 -36.5t137 -97.5t49 -135q0 -72 -47 -114t-111 -42q-38 0 -76 16.5t-63 51t-25 86.5q0 71 49.5 111t114.5 40q61 0 108.5 -39t47.5 -110h-23q0 54 -28 98t-74 75t-99.5 47.5
t-103.5 16.5q-73 0 -116.5 -42.5t-66 -110.5t-30 -146t-7.5 -149q0 -86 10 -164.5t34.5 -140t68.5 -97t112 -35.5q79 0 138.5 32.5t100.5 90.5t66 133h26q-39 -133 -134 -216t-266 -83zM568 1178q-72 0 -121 49.5t-49 121.5t49 121t121 49t121 -49t49 -121t-49 -121.5
t-121 -49.5z" />
    <glyph glyph-name="Ccaron" unicode="&#x10c;" horiz-adv-x="1430" 
d="M809 -20q-223 0 -384 99.5t-248 273.5t-87 397t87 397t248 273.5t384 99.5q93 0 172.5 -32t141.5 -90l170 102h22v-440h-27q-36 126 -102 222.5t-156.5 150.5t-200.5 54q-111 0 -186.5 -63t-120 -169t-64 -237t-19.5 -268q0 -136 19.5 -267.5t64 -237.5t120 -169
t186.5 -63q101 0 179 33.5t137 92t99.5 136t64.5 165.5h26v-440h-23l-155 110q-65 -61 -153 -95.5t-195 -34.5zM727 1700l-240 270l13 12l312 -142l312 142l13 -12l-240 -270h-170z" />
    <glyph glyph-name="ccaron" unicode="&#x10d;" horiz-adv-x="1051" 
d="M563 -20q-136 0 -246 52.5t-175 159t-65 268.5q0 143 57 251t166.5 168.5t265.5 60.5q117 0 205 -36.5t137 -97.5t49 -135q0 -72 -47 -114t-111 -42q-38 0 -76 16.5t-63 51t-25 86.5q0 71 49.5 111t114.5 40q61 0 108.5 -39t47.5 -110h-23q0 54 -28 98t-74 75t-99.5 47.5
t-103.5 16.5q-73 0 -116.5 -42.5t-66 -110.5t-30 -146t-7.5 -149q0 -86 10 -164.5t34.5 -140t68.5 -97t112 -35.5q79 0 138.5 32.5t100.5 90.5t66 133h26q-39 -133 -134 -216t-266 -83zM483 1120l-240 270l13 12l312 -142l312 142l13 -12l-240 -270h-170z" />
    <glyph glyph-name="Dcaron" unicode="&#x10e;" horiz-adv-x="1529" 
d="M681 1500q237 0 407.5 -94.5t261.5 -263.5t91 -392q0 -167 -54.5 -304.5t-155 -237.5t-240.5 -154t-310 -54h-640v25h180v1450h-180v25h640zM531 25h150q115 0 194 57t126.5 157.5t68.5 232t21 278.5q0 148 -24 279t-73.5 231.5t-127 157.5t-185.5 57h-150v-1450z
M588 1700l-240 270l13 12l312 -142l312 142l13 -12l-240 -270h-170z" />
    <glyph glyph-name="dcaron" unicode="&#x10f;" horiz-adv-x="1269" 
d="M497 -19q-108 0 -204 57t-156.5 164t-60.5 257t60.5 257.5t156.5 165t204 57.5q127 0 207.5 -87.5t106.5 -245.5v869h-134v25h414v-1475h133v-25h-413v312q-26 -158 -106.5 -244.5t-207.5 -86.5zM562 28q61 0 118 48.5t94 144t37 238.5t-37 239.5t-94 145t-118 48.5
q-57 0 -94 -49t-55 -145t-18 -239t18 -238.5t55 -144t94 -48.5zM1226 978v22q72 0 131 27t100 75.5t58.5 114.5t4.5 143h7q1 -34 -19 -65.5t-55 -52t-76 -20.5q-71 0 -109 43t-38 101q0 59 46 101.5t111 42.5q66 0 114.5 -55.5t48.5 -152.5q0 -88 -39 -161.5t-111.5 -118
t-173.5 -44.5z" />
    <glyph glyph-name="Dcroat" unicode="&#x110;" horiz-adv-x="1529" 
d="M64 738v24h710v-24h-710zM681 1500q237 0 407.5 -94.5t261.5 -263.5t91 -392q0 -167 -54.5 -304.5t-155 -237.5t-240.5 -154t-310 -54h-640v25h180v1450h-180v25h640zM531 25h150q115 0 194 57t126.5 157.5t68.5 232t21 278.5q0 148 -24 279t-73.5 231.5t-127 157.5
t-185.5 57h-150v-1450z" />
    <glyph glyph-name="dcroat" unicode="&#x111;" horiz-adv-x="1269" 
d="M530 1128v24h703v-24h-703zM497 -19q-108 0 -204 57t-156.5 164t-60.5 257t60.5 257.5t156.5 165t204 57.5q127 0 207.5 -87.5t106.5 -245.5v869h-134v25h414v-1475h133v-25h-413v312q-26 -158 -106.5 -244.5t-207.5 -86.5zM562 28q61 0 118 48.5t94 144t37 238.5
t-37 239.5t-94 145t-118 48.5q-57 0 -94 -49t-55 -145t-18 -239t18 -238.5t55 -144t94 -48.5z" />
    <glyph glyph-name="Emacron" unicode="&#x112;" horiz-adv-x="1273" 
d="M41 0v25h180v1450h-180v25h1145v-410h-25q-15 107 -66 194.5t-136.5 139t-202.5 51.5h-225v-1450h205q137 0 230.5 53.5t146.5 149t68 222.5h25v-450h-1165zM851 526q-15 67 -54 121t-91.5 85.5t-109.5 31.5h-130v24h130q57 0 109.5 29t91.5 80.5t54 118.5h25v-490h-25z
M432 1700v25h480v-25h-480z" />
    <glyph glyph-name="emacron" unicode="&#x113;" horiz-adv-x="1065" 
d="M564 -20q-140 0 -250.5 55.5t-174 162.5t-63.5 262t61.5 262t170 162.5t248.5 55.5q148 0 244 -60t142.5 -156t46.5 -205h-779v25h482q0 63 -4 128t-17.5 120.5t-40.5 89t-74 33.5q-51 0 -84 -35t-52 -96.5t-27 -139.5t-8 -164q0 -97 9.5 -181.5t34.5 -148.5t69 -100
t114 -36q134 0 227 75t130 190h26q-39 -128 -144.5 -213.5t-286.5 -85.5zM313 1120v25h480v-25h-480z" />
    <glyph glyph-name="Ebreve" unicode="&#x114;" horiz-adv-x="1273" 
d="M41 0v25h180v1450h-180v25h1145v-410h-25q-15 107 -66 194.5t-136.5 139t-202.5 51.5h-225v-1450h205q137 0 230.5 53.5t146.5 149t68 222.5h25v-450h-1165zM851 526q-15 67 -54 121t-91.5 85.5t-109.5 31.5h-130v24h130q57 0 109.5 29t91.5 80.5t54 118.5h25v-490h-25z
M672 1680q-85 0 -138 39.5t-77.5 111t-24.5 167.5h20q0 -46 32.5 -74.5t83 -41t104.5 -12.5t104.5 12.5t83 41t32.5 74.5h20q0 -96 -24.5 -167.5t-77.5 -111t-138 -39.5z" />
    <glyph glyph-name="ebreve" unicode="&#x115;" horiz-adv-x="1065" 
d="M564 -20q-140 0 -250.5 55.5t-174 162.5t-63.5 262t61.5 262t170 162.5t248.5 55.5q148 0 244 -60t142.5 -156t46.5 -205h-779v25h482q0 63 -4 128t-17.5 120.5t-40.5 89t-74 33.5q-51 0 -84 -35t-52 -96.5t-27 -139.5t-8 -164q0 -97 9.5 -181.5t34.5 -148.5t69 -100
t114 -36q134 0 227 75t130 190h26q-39 -128 -144.5 -213.5t-286.5 -85.5zM553 1100q-85 0 -138 39.5t-77.5 111t-24.5 167.5h20q0 -46 32.5 -74.5t83 -41t104.5 -12.5t104.5 12.5t83 41t32.5 74.5h20q0 -96 -24.5 -167.5t-77.5 -111t-138 -39.5z" />
    <glyph glyph-name="Edotaccent" unicode="&#x116;" horiz-adv-x="1273" 
d="M41 0v25h180v1450h-180v25h1145v-410h-25q-15 107 -66 194.5t-136.5 139t-202.5 51.5h-225v-1450h205q137 0 230.5 53.5t146.5 149t68 222.5h25v-450h-1165zM851 526q-15 67 -54 121t-91.5 85.5t-109.5 31.5h-130v24h130q57 0 109.5 29t91.5 80.5t54 118.5h25v-490h-25z
M673 1758q-72 0 -121 49.5t-49 121.5t49 121t121 49t121 -49t49 -121t-49 -121.5t-121 -49.5z" />
    <glyph glyph-name="edotaccent" unicode="&#x117;" horiz-adv-x="1065" 
d="M564 -20q-140 0 -250.5 55.5t-174 162.5t-63.5 262t61.5 262t170 162.5t248.5 55.5q148 0 244 -60t142.5 -156t46.5 -205h-779v25h482q0 63 -4 128t-17.5 120.5t-40.5 89t-74 33.5q-51 0 -84 -35t-52 -96.5t-27 -139.5t-8 -164q0 -97 9.5 -181.5t34.5 -148.5t69 -100
t114 -36q134 0 227 75t130 190h26q-39 -128 -144.5 -213.5t-286.5 -85.5zM554 1178q-72 0 -121 49.5t-49 121.5t49 121t121 49t121 -49t49 -121t-49 -121.5t-121 -49.5z" />
    <glyph glyph-name="Eogonek" unicode="&#x118;" horiz-adv-x="1273" 
d="M41 0v25h180v1450h-180v25h1145v-410h-25q-15 107 -66 194.5t-136.5 139t-202.5 51.5h-225v-1450h205q137 0 230.5 53.5t146.5 149t68 222.5h25v-450h-1165zM851 526q-15 67 -54 121t-91.5 85.5t-109.5 31.5h-130v24h130q57 0 109.5 29t91.5 80.5t54 118.5h25v-490h-25z
M939 -446q-66 0 -121.5 18t-90 56t-34.5 98t32 109.5t84.5 88.5t113 67t117.5 45l8 -16q-21 -12 -41.5 -45t-34 -83.5t-13.5 -113.5q0 -77 28 -119.5t71 -42.5q41 0 66 27t47 67l18 -11q-15 -28 -40 -62t-74.5 -58.5t-135.5 -24.5z" />
    <glyph glyph-name="eogonek" unicode="&#x119;" horiz-adv-x="1065" 
d="M564 -20q-140 0 -250.5 55.5t-174 162.5t-63.5 262t61.5 262t170 162.5t248.5 55.5q148 0 244 -60t142.5 -156t46.5 -205h-779v25h482q0 63 -4 128t-17.5 120.5t-40.5 89t-74 33.5q-51 0 -84 -35t-52 -96.5t-27 -139.5t-8 -164q0 -97 9.5 -181.5t34.5 -148.5t69 -100
t114 -36q134 0 227 75t130 190h26q-39 -128 -144.5 -213.5t-286.5 -85.5zM654 -446q-66 0 -121.5 18t-90 56t-34.5 98t32 109.5t84.5 88.5t113 67t117.5 45l8 -16q-21 -12 -41.5 -45t-34 -83.5t-13.5 -113.5q0 -77 28 -119.5t71 -42.5q41 0 66 27t47 67l18 -11
q-15 -28 -40 -62t-74.5 -58.5t-135.5 -24.5z" />
    <glyph glyph-name="Ecaron" unicode="&#x11a;" horiz-adv-x="1273" 
d="M41 0v25h180v1450h-180v25h1145v-410h-25q-15 107 -66 194.5t-136.5 139t-202.5 51.5h-225v-1450h205q137 0 230.5 53.5t146.5 149t68 222.5h25v-450h-1165zM851 526q-15 67 -54 121t-91.5 85.5t-109.5 31.5h-130v24h130q57 0 109.5 29t91.5 80.5t54 118.5h25v-490h-25z
M588 1700l-240 270l13 12l312 -142l312 142l13 -12l-240 -270h-170z" />
    <glyph glyph-name="ecaron" unicode="&#x11b;" horiz-adv-x="1065" 
d="M564 -20q-140 0 -250.5 55.5t-174 162.5t-63.5 262t61.5 262t170 162.5t248.5 55.5q148 0 244 -60t142.5 -156t46.5 -205h-779v25h482q0 63 -4 128t-17.5 120.5t-40.5 89t-74 33.5q-51 0 -84 -35t-52 -96.5t-27 -139.5t-8 -164q0 -97 9.5 -181.5t34.5 -148.5t69 -100
t114 -36q134 0 227 75t130 190h26q-39 -128 -144.5 -213.5t-286.5 -85.5zM469 1120l-240 270l13 12l312 -142l312 142l13 -12l-240 -270h-170z" />
    <glyph glyph-name="Gcircumflex" unicode="&#x11c;" horiz-adv-x="1527" 
d="M859 583h641v-26h-101v-247q-48 -51 -103 -108t-123.5 -107.5t-159.5 -82.5t-213 -32q-223 0 -382 95.5t-243.5 268.5t-84.5 406q0 175 57.5 316.5t159.5 243t236 156t286 54.5q87 0 167.5 -30.5t146.5 -82.5l190 93h22v-440h-25q-17 80 -59 155.5t-105 137t-142 97.5
t-168 36q-112 0 -191 -63t-129 -169t-73.5 -236.5t-23.5 -267.5q0 -136 16.5 -269t56 -240.5t110 -172t178.5 -64.5q63 0 108.5 26t77.5 65.5t52 81.5t32 73v307h-211v26zM518 1704l-12 13l240 270h170l240 -270l-13 -13l-313 143z" />
    <glyph glyph-name="gcircumflex" unicode="&#x11d;" horiz-adv-x="1268" 
d="M521 -520q-91 0 -176 14.5t-152.5 44.5t-107 78.5t-39.5 116.5q0 63 35 103.5t86 63.5t102 32t85 9h19q-45 -25 -66.5 -70.5t-21.5 -109.5q0 -66 31 -123.5t94.5 -93.5t161.5 -36q67 0 130.5 15.5t115.5 46t83 77t31 108.5q0 65 -36 103.5t-93.5 55.5t-122.5 17h-67.5
h-93h-68.5q-154 0 -247.5 46t-93.5 148q0 61 35.5 103t94 67t129 36t141.5 11l-1 -13q-29 0 -65.5 -6t-71 -18t-57 -30.5t-22.5 -43.5q0 -40 49 -51.5t131 -11.5q35 0 70 0.5t67.5 1t61.5 0.5q56 0 115.5 -14.5t111 -51t83.5 -102t32 -167.5q0 -96 -39 -164t-107.5 -110
t-157.5 -62t-189 -20zM504 325q-70 0 -142 17t-132.5 53.5t-97 95.5t-36.5 141q0 83 36.5 141.5t97 95t132.5 53.5t142 17t141 -17t130.5 -53.5t95.5 -95t36 -141.5q0 -82 -36 -141t-95.5 -95.5t-130.5 -53.5t-141 -17zM504 350q41 0 67.5 38.5t39 103t12.5 140.5
q0 82 -12.5 145.5t-39 100t-67.5 36.5q-42 0 -68 -36.5t-39 -100t-13 -145.5q0 -76 7.5 -140.5t33 -103t79.5 -38.5zM1101 619q-49 0 -87.5 33t-38.5 93q0 62 39.5 90t86.5 28q44 0 86.5 -28t42.5 -81h-24q0 58 -45.5 105t-126.5 47q-42 0 -89.5 -19t-88 -65.5t-60.5 -129.5
l-17 12q20 87 63 136.5t94 69.5t96 20q64 0 108.5 -26t68 -66.5t23.5 -83.5q0 -75 -41 -105t-90 -30zM245 1124l-12 13l240 270h170l240 -270l-13 -13l-313 143z" />
    <glyph glyph-name="Gbreve" unicode="&#x11e;" horiz-adv-x="1527" 
d="M859 583h641v-26h-101v-247q-48 -51 -103 -108t-123.5 -107.5t-159.5 -82.5t-213 -32q-223 0 -382 95.5t-243.5 268.5t-84.5 406q0 175 57.5 316.5t159.5 243t236 156t286 54.5q87 0 167.5 -30.5t146.5 -82.5l190 93h22v-440h-25q-17 80 -59 155.5t-105 137t-142 97.5
t-168 36q-112 0 -191 -63t-129 -169t-73.5 -236.5t-23.5 -267.5q0 -136 16.5 -269t56 -240.5t110 -172t178.5 -64.5q63 0 108.5 26t77.5 65.5t52 81.5t32 73v307h-211v26zM830 1680q-85 0 -138 39.5t-77.5 111t-24.5 167.5h20q0 -46 32.5 -74.5t83 -41t104.5 -12.5
t104.5 12.5t83 41t32.5 74.5h20q0 -96 -24.5 -167.5t-77.5 -111t-138 -39.5z" />
    <glyph glyph-name="gbreve" unicode="&#x11f;" horiz-adv-x="1268" 
d="M521 -520q-91 0 -176 14.5t-152.5 44.5t-107 78.5t-39.5 116.5q0 63 35 103.5t86 63.5t102 32t85 9h19q-45 -25 -66.5 -70.5t-21.5 -109.5q0 -66 31 -123.5t94.5 -93.5t161.5 -36q67 0 130.5 15.5t115.5 46t83 77t31 108.5q0 65 -36 103.5t-93.5 55.5t-122.5 17h-67.5
h-93h-68.5q-154 0 -247.5 46t-93.5 148q0 61 35.5 103t94 67t129 36t141.5 11l-1 -13q-29 0 -65.5 -6t-71 -18t-57 -30.5t-22.5 -43.5q0 -40 49 -51.5t131 -11.5q35 0 70 0.5t67.5 1t61.5 0.5q56 0 115.5 -14.5t111 -51t83.5 -102t32 -167.5q0 -96 -39 -164t-107.5 -110
t-157.5 -62t-189 -20zM504 325q-70 0 -142 17t-132.5 53.5t-97 95.5t-36.5 141q0 83 36.5 141.5t97 95t132.5 53.5t142 17t141 -17t130.5 -53.5t95.5 -95t36 -141.5q0 -82 -36 -141t-95.5 -95.5t-130.5 -53.5t-141 -17zM504 350q41 0 67.5 38.5t39 103t12.5 140.5
q0 82 -12.5 145.5t-39 100t-67.5 36.5q-42 0 -68 -36.5t-39 -100t-13 -145.5q0 -76 7.5 -140.5t33 -103t79.5 -38.5zM1101 619q-49 0 -87.5 33t-38.5 93q0 62 39.5 90t86.5 28q44 0 86.5 -28t42.5 -81h-24q0 58 -45.5 105t-126.5 47q-42 0 -89.5 -19t-88 -65.5t-60.5 -129.5
l-17 12q20 87 63 136.5t94 69.5t96 20q64 0 108.5 -26t68 -66.5t23.5 -83.5q0 -75 -41 -105t-90 -30zM557 1100q-85 0 -138 39.5t-77.5 111t-24.5 167.5h20q0 -46 32.5 -74.5t83 -41t104.5 -12.5t104.5 12.5t83 41t32.5 74.5h20q0 -96 -24.5 -167.5t-77.5 -111t-138 -39.5z
" />
    <glyph glyph-name="Gdotaccent" unicode="&#x120;" horiz-adv-x="1527" 
d="M859 583h641v-26h-101v-247q-48 -51 -103 -108t-123.5 -107.5t-159.5 -82.5t-213 -32q-223 0 -382 95.5t-243.5 268.5t-84.5 406q0 175 57.5 316.5t159.5 243t236 156t286 54.5q87 0 167.5 -30.5t146.5 -82.5l190 93h22v-440h-25q-17 80 -59 155.5t-105 137t-142 97.5
t-168 36q-112 0 -191 -63t-129 -169t-73.5 -236.5t-23.5 -267.5q0 -136 16.5 -269t56 -240.5t110 -172t178.5 -64.5q63 0 108.5 26t77.5 65.5t52 81.5t32 73v307h-211v26zM831 1758q-72 0 -121 49.5t-49 121.5t49 121t121 49t121 -49t49 -121t-49 -121.5t-121 -49.5z" />
    <glyph glyph-name="gdotaccent" unicode="&#x121;" horiz-adv-x="1268" 
d="M521 -520q-91 0 -176 14.5t-152.5 44.5t-107 78.5t-39.5 116.5q0 63 35 103.5t86 63.5t102 32t85 9h19q-45 -25 -66.5 -70.5t-21.5 -109.5q0 -66 31 -123.5t94.5 -93.5t161.5 -36q67 0 130.5 15.5t115.5 46t83 77t31 108.5q0 65 -36 103.5t-93.5 55.5t-122.5 17h-67.5
h-93h-68.5q-154 0 -247.5 46t-93.5 148q0 61 35.5 103t94 67t129 36t141.5 11l-1 -13q-29 0 -65.5 -6t-71 -18t-57 -30.5t-22.5 -43.5q0 -40 49 -51.5t131 -11.5q35 0 70 0.5t67.5 1t61.5 0.5q56 0 115.5 -14.5t111 -51t83.5 -102t32 -167.5q0 -96 -39 -164t-107.5 -110
t-157.5 -62t-189 -20zM504 325q-70 0 -142 17t-132.5 53.5t-97 95.5t-36.5 141q0 83 36.5 141.5t97 95t132.5 53.5t142 17t141 -17t130.5 -53.5t95.5 -95t36 -141.5q0 -82 -36 -141t-95.5 -95.5t-130.5 -53.5t-141 -17zM504 350q41 0 67.5 38.5t39 103t12.5 140.5
q0 82 -12.5 145.5t-39 100t-67.5 36.5q-42 0 -68 -36.5t-39 -100t-13 -145.5q0 -76 7.5 -140.5t33 -103t79.5 -38.5zM1101 619q-49 0 -87.5 33t-38.5 93q0 62 39.5 90t86.5 28q44 0 86.5 -28t42.5 -81h-24q0 58 -45.5 105t-126.5 47q-42 0 -89.5 -19t-88 -65.5t-60.5 -129.5
l-17 12q20 87 63 136.5t94 69.5t96 20q64 0 108.5 -26t68 -66.5t23.5 -83.5q0 -75 -41 -105t-90 -30zM558 1178q-72 0 -121 49.5t-49 121.5t49 121t121 49t121 -49t49 -121t-49 -121.5t-121 -49.5z" />
    <glyph glyph-name="uni0122" unicode="&#x122;" horiz-adv-x="1527" 
d="M859 583h641v-26h-101v-247q-48 -51 -103 -108t-123.5 -107.5t-159.5 -82.5t-213 -32q-223 0 -382 95.5t-243.5 268.5t-84.5 406q0 175 57.5 316.5t159.5 243t236 156t286 54.5q87 0 167.5 -30.5t146.5 -82.5l190 93h22v-440h-25q-17 80 -59 155.5t-105 137t-142 97.5
t-168 36q-112 0 -191 -63t-129 -169t-73.5 -236.5t-23.5 -267.5q0 -136 16.5 -269t56 -240.5t110 -172t178.5 -64.5q63 0 108.5 26t77.5 65.5t52 81.5t32 73v307h-211v26zM649 -705v21q93 0 164.5 44t106.5 122t19 179h7q1 -34 -19.5 -65.5t-55 -51.5t-74.5 -20
q-70 0 -107.5 42.5t-37.5 99.5q0 39 21 71.5t56.5 52t77.5 19.5q65 0 112.5 -54t47.5 -148q0 -86 -38.5 -157t-110 -113t-169.5 -42z" />
    <glyph glyph-name="uni0123" unicode="&#x123;" horiz-adv-x="1268" 
d="M521 -520q-91 0 -176 14.5t-152.5 44.5t-107 78.5t-39.5 116.5q0 63 35 103.5t86 63.5t102 32t85 9h19q-45 -25 -66.5 -70.5t-21.5 -109.5q0 -66 31 -123.5t94.5 -93.5t161.5 -36q67 0 130.5 15.5t115.5 46t83 77t31 108.5q0 65 -36 103.5t-93.5 55.5t-122.5 17h-67.5
h-93h-68.5q-154 0 -247.5 46t-93.5 148q0 61 35.5 103t94 67t129 36t141.5 11l-1 -13q-29 0 -65.5 -6t-71 -18t-57 -30.5t-22.5 -43.5q0 -40 49 -51.5t131 -11.5q35 0 70 0.5t67.5 1t61.5 0.5q56 0 115.5 -14.5t111 -51t83.5 -102t32 -167.5q0 -96 -39 -164t-107.5 -110
t-157.5 -62t-189 -20zM504 325q-70 0 -142 17t-132.5 53.5t-97 95.5t-36.5 141q0 83 36.5 141.5t97 95t132.5 53.5t142 17t141 -17t130.5 -53.5t95.5 -95t36 -141.5q0 -82 -36 -141t-95.5 -95.5t-130.5 -53.5t-141 -17zM504 350q41 0 67.5 38.5t39 103t12.5 140.5
q0 82 -12.5 145.5t-39 100t-67.5 36.5q-42 0 -68 -36.5t-39 -100t-13 -145.5q0 -76 7.5 -140.5t33 -103t79.5 -38.5zM1101 619q-49 0 -87.5 33t-38.5 93q0 62 39.5 90t86.5 28q44 0 86.5 -28t42.5 -81h-24q0 58 -45.5 105t-126.5 47q-42 0 -89.5 -19t-88 -65.5t-60.5 -129.5
l-17 12q20 87 63 136.5t94 69.5t96 20q64 0 108.5 -26t68 -66.5t23.5 -83.5q0 -75 -41 -105t-90 -30zM560 1115q-65 0 -112.5 53.5t-47.5 147.5q0 87 38.5 158t110 113t169.5 42v-21q-93 0 -164.5 -44.5t-106.5 -122t-19 -179.5h-7q-1 35 19.5 66.5t55 51.5t74.5 20
q70 0 107.5 -42.5t37.5 -99.5q0 -39 -21 -71.5t-56 -52t-78 -19.5z" />
    <glyph glyph-name="Hcircumflex" unicode="&#x124;" horiz-adv-x="1601" 
d="M1561 1500v-25h-180v-1450h180v-25h-670v25h180v703h-540v-703h180v-25h-670v25h180v1450h-180v25h670v-25h-180v-723h540v723h-180v25h670zM490 1704l-12 13l240 270h170l240 -270l-13 -13l-313 143z" />
    <glyph glyph-name="hcircumflex" unicode="&#x125;" horiz-adv-x="1246" 
d="M46 0v25h134v1450h-134v25h413v-1475h103v-25h-516zM686 0v25h103v598q0 84 -7 137.5t-27.5 79.5t-62.5 26q-64 0 -108.5 -39.5t-72 -102.5t-40 -136t-12.5 -141l-19 -4q0 73 13.5 158.5t50 162.5t104.5 126.5t176 49.5q113 0 174.5 -39t85.5 -107t24 -155v-614h133v-25
h-515zM366 1613l-12 13l240 270h170l240 -270l-13 -13l-313 143z" />
    <glyph glyph-name="Hbar" unicode="&#x126;" horiz-adv-x="1601" 
d="M40 1117v25h1521v-25h-1521zM1561 1500v-25h-180v-1450h180v-25h-670v25h180v703h-540v-703h180v-25h-670v25h180v1450h-180v25h670v-25h-180v-723h540v723h-180v25h670z" />
    <glyph glyph-name="hbar" unicode="&#x127;" horiz-adv-x="1200" 
d="M69 1178v24h584v-24h-584zM46 0v25h134v1450h-134v25h413v-1475h103v-25h-516zM686 0v25h103v598q0 84 -7 137.5t-27.5 79.5t-62.5 26q-64 0 -108.5 -39.5t-72 -102.5t-40 -136t-12.5 -141l-19 -4q0 73 13.5 158.5t50 162.5t104.5 126.5t176 49.5q113 0 174.5 -39
t85.5 -107t24 -155v-614h133v-25h-515z" />
    <glyph glyph-name="Itilde" unicode="&#x128;" horiz-adv-x="851" 
d="M41 0v25h220v1450h-220v25h770v-25h-240v-1450h240v-25h-770zM580 1660q-59 0 -105.5 24t-86.5 55t-82.5 55t-94.5 24t-86 -31t-34 -87h-25q0 85 23.5 151.5t69 104.5t109.5 38q62 0 107 -24t82.5 -55t75 -55t84.5 -24q57 0 88.5 31.5t31.5 86.5h25q0 -95 -14.5 -160.5
t-54 -99.5t-113.5 -34z" />
    <glyph glyph-name="itilde" unicode="&#x129;" horiz-adv-x="647" 
d="M469 920v-895h133v-25h-546v25h133v870h-133v25h413zM496 1080q-59 0 -105.5 24t-86.5 55t-82.5 55t-94.5 24t-86 -31t-34 -87h-25q0 85 23.5 151.5t69 104.5t109.5 38q62 0 107 -24t82.5 -55t75 -55t84.5 -24q57 0 88.5 31.5t31.5 86.5h25q0 -95 -14.5 -160.5t-54 -99.5
t-113.5 -34z" />
    <glyph glyph-name="Imacron" unicode="&#x12a;" horiz-adv-x="851" 
d="M41 0v25h220v1450h-220v25h770v-25h-240v-1450h240v-25h-770zM175 1700v25h480v-25h-480z" />
    <glyph glyph-name="imacron" unicode="&#x12b;" horiz-adv-x="647" 
d="M469 920v-895h133v-25h-546v25h133v870h-133v25h413zM91 1120v25h480v-25h-480z" />
    <glyph glyph-name="Ibreve" unicode="&#x12c;" horiz-adv-x="851" 
d="M41 0v25h220v1450h-220v25h770v-25h-240v-1450h240v-25h-770zM416 1680q-85 0 -138 39.5t-77.5 111t-24.5 167.5h20q0 -46 32.5 -74.5t83 -41t104.5 -12.5t104.5 12.5t83 41t32.5 74.5h20q0 -96 -24.5 -167.5t-77.5 -111t-138 -39.5z" />
    <glyph glyph-name="ibreve" unicode="&#x12d;" horiz-adv-x="647" 
d="M469 920v-895h133v-25h-546v25h133v870h-133v25h413zM331 1100q-85 0 -138 39.5t-77.5 111t-24.5 167.5h20q0 -46 32.5 -74.5t83 -41t104.5 -12.5t104.5 12.5t83 41t32.5 74.5h20q0 -96 -24.5 -167.5t-77.5 -111t-138 -39.5z" />
    <glyph glyph-name="Iogonek" unicode="&#x12e;" horiz-adv-x="851" 
d="M41 0v25h220v1450h-220v25h770v-25h-240v-1450h240v-25h-770zM402 -446q-66 0 -121.5 18t-90 56t-34.5 98t32 109.5t84.5 88.5t113 67t117.5 45l8 -16q-21 -12 -41.5 -45t-34 -83.5t-13.5 -113.5q0 -77 28 -119.5t71 -42.5q41 0 66 27t47 67l18 -11q-15 -28 -40 -62
t-74.5 -58.5t-135.5 -24.5z" />
    <glyph glyph-name="iogonek" unicode="&#x12f;" horiz-adv-x="647" 
d="M469 920v-895h133v-25h-546v25h133v870h-133v25h413zM332 1178q-72 0 -121 49.5t-49 121.5t49 121t121 49t121 -49t49 -121t-49 -121.5t-121 -49.5zM323 -446q-66 0 -121.5 18t-90 56t-34.5 98t32 109.5t84.5 88.5t113 67t117.5 45l8 -16q-21 -12 -41.5 -45t-34 -83.5
t-13.5 -113.5q0 -77 28 -119.5t71 -42.5q41 0 66 27t47 67l18 -11q-15 -28 -40 -62t-74.5 -58.5t-135.5 -24.5z" />
    <glyph glyph-name="Idotaccent" unicode="&#x130;" horiz-adv-x="851" 
d="M41 0v25h220v1450h-220v25h770v-25h-240v-1450h240v-25h-770zM416 1758q-72 0 -121 49.5t-49 121.5t49 121t121 49t121 -49t49 -121t-49 -121.5t-121 -49.5z" />
    <glyph glyph-name="dotlessi" unicode="&#x131;" horiz-adv-x="647" 
d="M469 920v-895h133v-25h-546v25h133v870h-133v25h413z" />
    <glyph glyph-name="IJ" unicode="&#x132;" horiz-adv-x="1947" 
d="M41 0v25h220v1450h-220v25h770v-25h-240v-1450h240v-25h-770zM1867 1500v-25h-200v-1135q-28 -71 -67.5 -142t-94.5 -129.5t-129.5 -94t-173.5 -35.5q-102 0 -180 34.5t-122.5 94.5t-44.5 135q0 57 24.5 99t65.5 65t89 23q43 0 84 -20t67.5 -59t26.5 -95q0 -55 -26 -92.5
t-67.5 -57t-89.5 -18.5q-39 1 -74 27t-45 63q14 -52 53 -90.5t93.5 -59t115.5 -20.5q77 0 117 45t54.5 136.5t14.5 230.5v1095h-260v25h769z" />
    <glyph glyph-name="ij" unicode="&#x133;" horiz-adv-x="1245" 
d="M330 1178q-72 0 -121 49.5t-49 121.5t49 121t121 49t121 -49t49 -121t-49 -121.5t-121 -49.5zM469 920v-895h133v-25h-546v25h133v870h-133v25h413zM625 -520q-88 0 -156 32t-106.5 86t-38.5 120q0 73 48 118.5t116 45.5q40 0 77 -18.5t60.5 -52.5t23.5 -82
q0 -60 -44 -104.5t-116 -44.5q-44 0 -81 20t-59.5 51.5t-22.5 66.5h23q0 -61 36.5 -109t95.5 -76t128 -28q71 0 108 47t51 126t15 174t1 190v853h-173v25h452v-943q0 -98 -31.5 -187.5t-90 -159t-138.5 -110t-178 -40.5zM908 1180q-72 0 -121 49.5t-49 120.5q0 73 49 121.5
t121 48.5t120.5 -48.5t48.5 -121.5q0 -71 -48.5 -120.5t-120.5 -49.5z" />
    <glyph glyph-name="Jcircumflex" unicode="&#x134;" horiz-adv-x="1079" 
d="M1037 1500v-25h-200v-1135q-28 -71 -67.5 -142t-94.5 -129.5t-129.5 -94t-173.5 -35.5q-102 0 -180 34.5t-122.5 94.5t-44.5 135q0 57 24.5 99t65.5 65t89 23q43 0 84 -20t67.5 -59t26.5 -95q0 -55 -26 -92.5t-67.5 -57t-89.5 -18.5q-39 1 -74 27t-45 63q14 -52 53 -90.5
t93.5 -59t115.5 -20.5q77 0 117 45t54.5 136.5t14.5 230.5v1095h-260v25h769zM343 1704l-12 13l240 270h170l240 -270l-13 -13l-313 143z" />
    <glyph glyph-name="jcircumflex" unicode="&#x135;" horiz-adv-x="664" 
d="M65 -520q-88 0 -156 32t-106.5 86t-38.5 120q0 73 48 118.5t116 45.5q40 0 77 -18.5t60.5 -52.5t23.5 -82q0 -60 -44 -104.5t-116 -44.5q-44 0 -81 20t-59.5 51.5t-22.5 66.5h23q0 -61 36.5 -109t95.5 -76t128 -28q71 0 108 47.5t51 126t15 173.5t1 190v853h-173v25h452
v-943q0 -98 -31.5 -187.5t-90 -159t-138.5 -110t-178 -40.5zM20 1124l-12 13l240 270h170l240 -270l-13 -13l-313 143z" />
    <glyph glyph-name="uni0136" unicode="&#x136;" horiz-adv-x="1548" 
d="M295 434l890 1041h-224v25h479v-25h-220l-890 -1041h-35zM41 0v25h180v1450h-180v25h690v-25h-200v-1450h180v-25h-670zM811 0v25h190l-419 736l206 231l572 -967h171v-25h-720zM616 -705v21q93 0 164.5 44t106.5 122t19 179h7q1 -34 -19.5 -65.5t-55 -51.5t-74.5 -20
q-70 0 -107.5 42.5t-37.5 99.5q0 39 21 71.5t56.5 52t77.5 19.5q65 0 112.5 -54t47.5 -148q0 -86 -38.5 -157t-110 -113t-169.5 -42z" />
    <glyph glyph-name="uni0137" unicode="&#x137;" horiz-adv-x="1287" 
d="M46 0v25h174v1450h-174v25h453v-1475h110v-25h-563zM704 0v25h119l-378 508l508 362h-222v25h432v-25h-174l-318 -233l496 -637h95v-25h-558zM492 -705v21q93 0 164.5 44t106.5 122t19 179h7q1 -34 -19.5 -65.5t-55 -51.5t-74.5 -20q-70 0 -107.5 42.5t-37.5 99.5
q0 39 21 71.5t56.5 52t77.5 19.5q65 0 112.5 -54t47.5 -148q0 -86 -38.5 -157t-110 -113t-169.5 -42z" />
    <glyph glyph-name="kgreenlandic" unicode="&#x138;" horiz-adv-x="1290" 
d="M847 0l-397 533l543 387h35l-351 -258l514 -662h-344zM44 0v25h571v-25h-571zM225 0v895h-181v25h461v-920h-280zM703 0v25h564v-25h-564zM723 895v25h446v-25h-446z" />
    <glyph glyph-name="Lacute" unicode="&#x139;" horiz-adv-x="1248" 
d="M41 0v25h180v1450h-180v25h670v-25h-180v-1450h200q110 0 189.5 30.5t132 86.5t82.5 134.5t41 173.5h25v-450h-1160zM280 1680l-13 17l170 244q29 48 71 59.5t80.5 -1.5t57.5 -41q21 -32 17 -73t-31 -74t-75 -43z" />
    <glyph glyph-name="lacute" unicode="&#x13a;" horiz-adv-x="717" 
d="M499 1500v-1475h173v-25h-626v25h174v1450h-174v25h453zM274 1680l-13 17l170 244q29 48 71 59.5t80.5 -1.5t57.5 -41q21 -32 17 -73t-31 -74t-75 -43z" />
    <glyph glyph-name="uni013B" unicode="&#x13b;" horiz-adv-x="1248" 
d="M41 0v25h180v1450h-180v25h670v-25h-180v-1450h200q110 0 189.5 30.5t132 86.5t82.5 134.5t41 173.5h25v-450h-1160zM496 -705v21q93 0 164.5 44t106.5 122t19 179h7q1 -34 -19.5 -65.5t-55 -51.5t-74.5 -20q-70 0 -107.5 42.5t-37.5 99.5q0 39 21 71.5t56.5 52
t77.5 19.5q65 0 112.5 -54t47.5 -148q0 -86 -38.5 -157t-110 -113t-169.5 -42z" />
    <glyph glyph-name="uni013C" unicode="&#x13c;" horiz-adv-x="717" 
d="M499 1500v-1475h173v-25h-626v25h174v1450h-174v25h453zM216 -705v21q93 0 164.5 44t106.5 122t19 179h7q1 -34 -19.5 -65.5t-55 -51.5t-74.5 -20q-70 0 -107.5 42.5t-37.5 99.5q0 39 21 71.5t56.5 52t77.5 19.5q65 0 112.5 -54t47.5 -148q0 -86 -38.5 -157t-110 -113
t-169.5 -42z" />
    <glyph glyph-name="Lcaron" unicode="&#x13d;" horiz-adv-x="1248" 
d="M41 0v25h180v1450h-180v25h670v-25h-180v-1450h200q110 0 189.5 30.5t132 86.5t82.5 134.5t41 173.5h25v-450h-1160zM845 989v22q72 0 131 27t100 75.5t58.5 114.5t4.5 143h7q1 -34 -19 -65.5t-55 -52t-76 -20.5q-71 0 -109 43t-38 101q0 59 46 101.5t111 42.5
q66 0 114.5 -55.5t48.5 -152.5q0 -88 -39 -161.5t-111.5 -118t-173.5 -44.5z" />
    <glyph glyph-name="lcaron" unicode="&#x13e;" horiz-adv-x="717" 
d="M499 1500v-1475h173v-25h-626v25h174v1450h-174v25h453zM628 978v22q72 0 131 27t100 75.5t58.5 114.5t4.5 143h7q1 -34 -19 -65.5t-55 -52t-76 -20.5q-71 0 -109 43t-38 101q0 59 46 101.5t111 42.5q66 0 114.5 -55.5t48.5 -152.5q0 -88 -39 -161.5t-111.5 -118
t-173.5 -44.5z" />
    <glyph glyph-name="Ldot" unicode="&#x13f;" horiz-adv-x="1248" 
d="M41 0v25h180v1450h-180v25h670v-25h-180v-1450h200q110 0 189.5 30.5t132 86.5t82.5 134.5t41 173.5h25v-450h-1160zM1014 680q-50 0 -90.5 24.5t-65 65.5t-24.5 90t24.5 90.5t65 66t90.5 24.5q49 0 90.5 -24.5t65.5 -66t24 -90.5t-24 -90t-65.5 -65.5t-90.5 -24.5z" />
    <glyph glyph-name="ldot" unicode="&#x140;" horiz-adv-x="870" 
d="M499 1500v-1475h173v-25h-626v25h174v1450h-174v25h453zM802 680q-50 0 -90.5 24.5t-65 65.5t-24.5 90t24.5 90.5t65 66t90.5 24.5q49 0 90.5 -24.5t65.5 -66t24 -90.5t-24 -90t-65.5 -65.5t-90.5 -24.5z" />
    <glyph glyph-name="Lslash" unicode="&#x141;" horiz-adv-x="1248" 
d="M42 691v29l790 440v-29zM41 0v25h180v1450h-180v25h670v-25h-180v-1450h200q110 0 189.5 30.5t132 86.5t82.5 134.5t41 173.5h25v-450h-1160z" />
    <glyph glyph-name="lslash" unicode="&#x142;" horiz-adv-x="717" 
d="M41 731v29l670 400v-29zM499 1500v-1475h173v-25h-626v25h174v1450h-174v25h453z" />
    <glyph glyph-name="Nacute" unicode="&#x143;" horiz-adv-x="1537" 
d="M269 1500v-1475h231v-25h-459v25h202v1450h-202v25h228zM1497 1500v-25h-211v-1495h-33l-1002 1520h369l641 -990v965h-228v25h464zM709 1680l-13 17l170 244q29 48 71 59.5t80.5 -1.5t57.5 -41q21 -32 17 -73t-31 -74t-75 -43z" />
    <glyph glyph-name="nacute" unicode="&#x144;" horiz-adv-x="1246" 
d="M458 920v-895h103v-25h-515v25h134v870h-134v25h412zM1068 639v-614h133v-25h-515v25h103v598q0 84 -7 137.5t-27.5 79.5t-62.5 26q-64 0 -108.5 -39.5t-72.5 -102.5t-40.5 -136t-12.5 -141l-19 -4q0 73 13.5 158.5t50.5 162.5t105 126.5t177 49.5q113 0 174 -39t85 -107
t24 -155zM543 1100l-13 17l170 244q29 48 71 59.5t80.5 -1.5t57.5 -41q21 -32 17 -73t-31 -74t-75 -43z" />
    <glyph glyph-name="uni0145" unicode="&#x145;" horiz-adv-x="1537" 
d="M269 1500v-1475h231v-25h-459v25h202v1450h-202v25h228zM1497 1500v-25h-211v-1495h-33l-1002 1520h369l641 -990v965h-228v25h464zM593 -705v21q93 0 164.5 44t106.5 122t19 179h7q1 -34 -19.5 -65.5t-55 -51.5t-74.5 -20q-70 0 -107.5 42.5t-37.5 99.5q0 39 21 71.5
t56.5 52t77.5 19.5q65 0 112.5 -54t47.5 -148q0 -86 -38.5 -157t-110 -113t-169.5 -42z" />
    <glyph glyph-name="uni0146" unicode="&#x146;" horiz-adv-x="1246" 
d="M458 920v-895h103v-25h-515v25h134v870h-134v25h412zM1068 639v-614h133v-25h-515v25h103v598q0 84 -7 137.5t-27.5 79.5t-62.5 26q-64 0 -108.5 -39.5t-72.5 -102.5t-40.5 -136t-12.5 -141l-19 -4q0 73 13.5 158.5t50.5 162.5t105 126.5t177 49.5q113 0 174 -39t85 -107
t24 -155zM474 -705v21q93 0 164.5 44t106.5 122t19 179h7q1 -34 -19.5 -65.5t-55 -51.5t-74.5 -20q-70 0 -107.5 42.5t-37.5 99.5q0 39 21 71.5t56.5 52t77.5 19.5q65 0 112.5 -54t47.5 -148q0 -86 -38.5 -157t-110 -113t-169.5 -42z" />
    <glyph glyph-name="Ncaron" unicode="&#x147;" horiz-adv-x="1537" 
d="M269 1500v-1475h231v-25h-459v25h202v1450h-202v25h228zM1497 1500v-25h-211v-1495h-33l-1002 1520h369l641 -990v965h-228v25h464zM716 1700l-240 270l13 12l312 -142l312 142l13 -12l-240 -270h-170z" />
    <glyph glyph-name="ncaron" unicode="&#x148;" horiz-adv-x="1246" 
d="M458 920v-895h103v-25h-515v25h134v870h-134v25h412zM1068 639v-614h133v-25h-515v25h103v598q0 84 -7 137.5t-27.5 79.5t-62.5 26q-64 0 -108.5 -39.5t-72.5 -102.5t-40.5 -136t-12.5 -141l-19 -4q0 73 13.5 158.5t50.5 162.5t105 126.5t177 49.5q113 0 174 -39t85 -107
t24 -155zM551 1120l-240 270l13 12l312 -142l312 142l13 -12l-240 -270h-170z" />
    <glyph glyph-name="napostrophe" unicode="&#x149;" horiz-adv-x="1546" 
d="M728 920v-895h103v-25h-515v25h134v870h-134v25h412zM1338 639v-614h133v-25h-515v25h103v598q0 84 -7 137.5t-27.5 79.5t-62.5 26q-64 0 -108.5 -39.5t-72.5 -102.5t-40.5 -136t-12.5 -141l-19 -4q0 73 13.5 158.5t50.5 162.5t105 126.5t177 49.5q113 0 174 -39t85 -107
t24 -155zM16 934v26q87 0 160 31.5t123.5 89t72.5 136.5t7 175h8q2 -43 -24 -82.5t-69 -64.5t-93 -25q-86 0 -133.5 53.5t-47.5 124.5q0 48 26.5 89t70.5 65t97 24q54 0 100 -30.5t73 -87t27 -134.5q0 -108 -48.5 -196.5t-137.5 -141t-212 -52.5z" />
    <glyph glyph-name="Eng" unicode="&#x14a;" horiz-adv-x="1570" 
d="M938 -520q-96 0 -169.5 33t-115 88.5t-41.5 121.5q0 73 48 118.5t116 45.5q40 0 77 -18.5t60.5 -52.5t23.5 -82q0 -60 -42 -104.5t-115 -44.5q-44 0 -81.5 20t-61 51.5t-23.5 66.5h24q0 -61 39.5 -110.5t104.5 -78t140 -28.5q72 0 112.5 47t59 125t23.5 172.5t5 189.5
v972q0 95 -18.5 175.5t-54 140t-88.5 92.5t-122 33q-96 0 -165.5 -46t-113.5 -121t-65.5 -161.5t-21.5 -168.5h-18q0 65 13.5 140.5t45 150t85 136.5t133.5 99t190 37q168 0 273.5 -62.5t156 -169t50.5 -238.5l-1 -1072q0 -97 -33.5 -186.5t-95 -159.5t-146 -110.5
t-188.5 -40.5zM57 0v25h554v-25h-554zM197 0v1475h-140v25h416v-1500h-276z" />
    <glyph glyph-name="eng" unicode="&#x14b;" horiz-adv-x="1255" 
d="M648 -520q-88 0 -156 32t-106.5 86t-38.5 120q0 73 48 118.5t116 45.5q40 0 77 -18.5t60.5 -52.5t23.5 -82q0 -60 -42 -104.5t-115 -44.5q-44 0 -81.5 20t-61 51.5t-23.5 66.5h23q0 -60 36.5 -108.5t97.5 -77.5t137 -29q71 0 106.5 47.5t47 126t11 173.5t-0.5 190v562
l280 37l-1 -662q0 -97 -31.5 -186.5t-90 -159.5t-138.5 -110.5t-178 -40.5zM57 0v25h554v-25h-554zM197 0v895h-140v25h416v-920h-276zM455 451q0 62 17 144.5t56 161t106 130.5t168 52q115 0 176.5 -38.5t85 -106.5t23.5 -155l-280 -37q0 87 -7 145t-27.5 87t-62.5 29
q-53 0 -96.5 -37.5t-75 -99t-48.5 -134t-17 -141.5h-18z" />
    <glyph glyph-name="Omacron" unicode="&#x14c;" horiz-adv-x="1538" 
d="M770 -20q-160 0 -286 58.5t-214 163t-134 244.5t-46 304t48.5 304t138.5 245t215 163t278 58q152 0 277 -58t215 -163t138.5 -245t48.5 -304t-46 -304t-134 -245t-214 -163t-285 -58zM770 3q104 0 169 58t100 160.5t48 238t13 290.5t-16 290.5t-53 238t-100.5 160.5
t-160.5 58t-161 -58t-101 -160.5t-53 -238t-16 -290.5t13 -290.5t48 -238t100.5 -160.5t169.5 -58zM530 1700v25h480v-25h-480z" />
    <glyph glyph-name="omacron" unicode="&#x14d;" horiz-adv-x="1128" 
d="M565 -20q-151 0 -260.5 66t-169 175t-59.5 239t59.5 239t169 175t260.5 66t260 -66t168 -175t59 -239t-59 -239t-168 -175t-260 -66zM565 5q55 0 91.5 37t58 101t30.5 146t9 171q0 90 -9 171.5t-30.5 145.5t-58 101t-91.5 37q-56 0 -92.5 -37t-58 -101t-30.5 -145.5
t-9 -171.5q0 -89 9 -171t30.5 -146t58 -101t92.5 -37zM324 1120v25h480v-25h-480z" />
    <glyph glyph-name="Obreve" unicode="&#x14e;" horiz-adv-x="1538" 
d="M770 -20q-160 0 -286 58.5t-214 163t-134 244.5t-46 304t48.5 304t138.5 245t215 163t278 58q152 0 277 -58t215 -163t138.5 -245t48.5 -304t-46 -304t-134 -245t-214 -163t-285 -58zM770 3q104 0 169 58t100 160.5t48 238t13 290.5t-16 290.5t-53 238t-100.5 160.5
t-160.5 58t-161 -58t-101 -160.5t-53 -238t-16 -290.5t13 -290.5t48 -238t100.5 -160.5t169.5 -58zM770 1680q-85 0 -138 39.5t-77.5 111t-24.5 167.5h20q0 -46 32.5 -74.5t83 -41t104.5 -12.5t104.5 12.5t83 41t32.5 74.5h20q0 -96 -24.5 -167.5t-77.5 -111t-138 -39.5z
" />
    <glyph glyph-name="obreve" unicode="&#x14f;" horiz-adv-x="1128" 
d="M565 -20q-151 0 -260.5 66t-169 175t-59.5 239t59.5 239t169 175t260.5 66t260 -66t168 -175t59 -239t-59 -239t-168 -175t-260 -66zM565 5q55 0 91.5 37t58 101t30.5 146t9 171q0 90 -9 171.5t-30.5 145.5t-58 101t-91.5 37q-56 0 -92.5 -37t-58 -101t-30.5 -145.5
t-9 -171.5q0 -89 9 -171t30.5 -146t58 -101t92.5 -37zM565 1100q-85 0 -138 39.5t-77.5 111t-24.5 167.5h20q0 -46 32.5 -74.5t83 -41t104.5 -12.5t104.5 12.5t83 41t32.5 74.5h20q0 -96 -24.5 -167.5t-77.5 -111t-138 -39.5z" />
    <glyph glyph-name="Ohungarumlaut" unicode="&#x150;" horiz-adv-x="1538" 
d="M770 -20q-160 0 -286 58.5t-214 163t-134 244.5t-46 304t48.5 304t138.5 245t215 163t278 58q152 0 277 -58t215 -163t138.5 -245t48.5 -304t-46 -304t-134 -245t-214 -163t-285 -58zM770 3q104 0 169 58t100 160.5t48 238t13 290.5t-16 290.5t-53 238t-100.5 160.5
t-160.5 58t-161 -58t-101 -160.5t-53 -238t-16 -290.5t13 -290.5t48 -238t100.5 -160.5t169.5 -58zM447 1679l-13 17l170 244q29 48 71 59.5t80.5 -1.5t57.5 -41q21 -32 17 -73t-31 -74t-75 -43zM907 1679l-13 17l170 244q29 48 71 59.5t80.5 -1.5t57.5 -41q21 -32 17 -73
t-31 -74t-75 -43z" />
    <glyph glyph-name="ohungarumlaut" unicode="&#x151;" horiz-adv-x="1128" 
d="M565 -20q-151 0 -260.5 66t-169 175t-59.5 239t59.5 239t169 175t260.5 66t260 -66t168 -175t59 -239t-59 -239t-168 -175t-260 -66zM565 5q55 0 91.5 37t58 101t30.5 146t9 171q0 90 -9 171.5t-30.5 145.5t-58 101t-91.5 37q-56 0 -92.5 -37t-58 -101t-30.5 -145.5
t-9 -171.5q0 -89 9 -171t30.5 -146t58 -101t92.5 -37zM242 1099l-13 17l170 244q29 48 71 59.5t80.5 -1.5t57.5 -41q21 -32 17 -73t-31 -74t-75 -43zM702 1099l-13 17l170 244q29 48 71 59.5t80.5 -1.5t57.5 -41q21 -32 17 -73t-31 -74t-75 -43z" />
    <glyph glyph-name="OE" unicode="&#x152;" horiz-adv-x="1996" 
d="M430 750q0 148 19.5 279t63 231.5t115 157.5t175.5 57l-39 25q-203 0 -357 -94.5t-240.5 -263.5t-86.5 -392q0 -222 86.5 -391t240.5 -264t357 -95l39 25q-104 0 -175.5 57t-115 157.5t-63 232t-19.5 278.5zM762 0v25h180v1450h-180v25h1145v-410h-24
q-15 107 -66.5 194.5t-136.5 139t-202 51.5h-225v-1450h205q136 0 229.5 53.5t147 149t68.5 222.5h24v-450h-1165zM1572 526q-15 67 -53.5 121t-91.5 85.5t-110 31.5h-129v24h129q57 0 110 29t91.5 80.5t53.5 118.5h26v-490h-26z" />
    <glyph glyph-name="oe" unicode="&#x153;" horiz-adv-x="1746" 
d="M565 -20q-151 0 -260.5 66t-169 175t-59.5 239t59.5 239t169 175t260.5 66t260 -66t168 -175t59 -239t-59 -239t-168 -175t-260 -66zM565 5q55 0 91.5 37t58 101t30.5 146t9 171q0 90 -9 171.5t-30.5 145.5t-58 101t-91.5 37q-56 0 -92.5 -37t-58 -101t-30.5 -145.5
t-9 -171.5q0 -89 9 -171t30.5 -146t58 -101t92.5 -37zM1245 -20q-140 0 -250.5 55.5t-174 162.5t-63.5 262t61.5 262t170 162.5t248.5 55.5q148 0 244 -60t142.5 -156t46.5 -205h-779v25h482q0 63 -4 128t-17.5 120.5t-40.5 89t-74 33.5q-51 0 -84 -35t-52 -96.5t-27 -139.5
t-8 -164q0 -97 9.5 -181.5t34.5 -148.5t69 -100t114 -36q134 0 227 75t130 190h26q-39 -128 -144.5 -213.5t-286.5 -85.5z" />
    <glyph glyph-name="Racute" unicode="&#x154;" horiz-adv-x="1500" 
d="M401 763v16h290q96 0 160.5 37t97 114t32.5 196t-32.5 196.5t-97 115t-160.5 37.5h-650v25h700q166 0 292 -39.5t197 -122t71 -212.5t-66.5 -210t-192 -116.5t-301.5 -36.5h-340zM41 0v25h710v-25h-710zM241 13v1473h310v-1473h-310zM1231 -15q-102 0 -160.5 32.5
t-86 87.5t-35.5 123t-8.5 141t-6 141.5t-27.5 123.5t-73 87.5t-143 32.5h-290v14h450q139 0 220.5 -40.5t121.5 -106.5t52.5 -145.5t13 -159t3 -146t21.5 -106.5t71 -40q31 0 59 7t49 17l9 -23q-24 -13 -88 -26.5t-152 -13.5zM576 1680l-13 17l170 244q29 48 71 59.5
t80.5 -1.5t57.5 -41q21 -32 17 -73t-31 -74t-75 -43z" />
    <glyph glyph-name="racute" unicode="&#x155;" horiz-adv-x="983" 
d="M443 432q0 102 15 193.5t49 162t90 111t137 40.5q68 0 116 -30t73 -77.5t25 -100.5q0 -69 -46 -120t-120 -51t-120.5 45.5t-46.5 109.5q0 73 47 119t119 46q47 0 84.5 -21t59 -55t21.5 -73h-24q0 48 -23 89.5t-66 67.5t-102 26q-70 0 -121.5 -37.5t-85 -104.5t-50 -154.5
t-16.5 -185.5h-15zM458 920v-895h152v-25h-564v25h134v870h-134v25h412zM448 1100l-13 17l170 244q29 48 71 59.5t80.5 -1.5t57.5 -41q21 -32 17 -73t-31 -74t-75 -43z" />
    <glyph glyph-name="uni0156" unicode="&#x156;" horiz-adv-x="1500" 
d="M401 763v16h290q96 0 160.5 37t97 114t32.5 196t-32.5 196.5t-97 115t-160.5 37.5h-650v25h700q166 0 292 -39.5t197 -122t71 -212.5t-66.5 -210t-192 -116.5t-301.5 -36.5h-340zM41 0v25h710v-25h-710zM241 13v1473h310v-1473h-310zM1231 -15q-102 0 -160.5 32.5
t-86 87.5t-35.5 123t-8.5 141t-6 141.5t-27.5 123.5t-73 87.5t-143 32.5h-290v14h450q139 0 220.5 -40.5t121.5 -106.5t52.5 -145.5t13 -159t3 -146t21.5 -106.5t71 -40q31 0 59 7t49 17l9 -23q-24 -13 -88 -26.5t-152 -13.5zM627 -705v21q93 0 164.5 44t106.5 122t19 179h7
q1 -34 -19.5 -65.5t-55 -51.5t-74.5 -20q-70 0 -107.5 42.5t-37.5 99.5q0 39 21 71.5t56.5 52t77.5 19.5q65 0 112.5 -54t47.5 -148q0 -86 -38.5 -157t-110 -113t-169.5 -42z" />
    <glyph glyph-name="uni0157" unicode="&#x157;" horiz-adv-x="983" 
d="M443 432q0 102 15 193.5t49 162t90 111t137 40.5q68 0 116 -30t73 -77.5t25 -100.5q0 -69 -46 -120t-120 -51t-120.5 45.5t-46.5 109.5q0 73 47 119t119 46q47 0 84.5 -21t59 -55t21.5 -73h-24q0 48 -23 89.5t-66 67.5t-102 26q-70 0 -121.5 -37.5t-85 -104.5t-50 -154.5
t-16.5 -185.5h-15zM458 920v-895h152v-25h-564v25h134v870h-134v25h412zM176 -705v21q93 0 164.5 44t106.5 122t19 179h7q1 -34 -19.5 -65.5t-55 -51.5t-74.5 -20q-70 0 -107.5 42.5t-37.5 99.5q0 39 21 71.5t56.5 52t77.5 19.5q65 0 112.5 -54t47.5 -148q0 -86 -38.5 -157
t-110 -113t-169.5 -42z" />
    <glyph glyph-name="Rcaron" unicode="&#x158;" horiz-adv-x="1500" 
d="M401 763v16h290q96 0 160.5 37t97 114t32.5 196t-32.5 196.5t-97 115t-160.5 37.5h-650v25h700q166 0 292 -39.5t197 -122t71 -212.5t-66.5 -210t-192 -116.5t-301.5 -36.5h-340zM41 0v25h710v-25h-710zM241 13v1473h310v-1473h-310zM1231 -15q-102 0 -160.5 32.5
t-86 87.5t-35.5 123t-8.5 141t-6 141.5t-27.5 123.5t-73 87.5t-143 32.5h-290v14h450q139 0 220.5 -40.5t121.5 -106.5t52.5 -145.5t13 -159t3 -146t21.5 -106.5t71 -40q31 0 59 7t49 17l9 -23q-24 -13 -88 -26.5t-152 -13.5zM584 1700l-240 270l13 12l312 -142l312 142
l13 -12l-240 -270h-170z" />
    <glyph glyph-name="rcaron" unicode="&#x159;" horiz-adv-x="983" 
d="M443 432q0 102 15 193.5t49 162t90 111t137 40.5q68 0 116 -30t73 -77.5t25 -100.5q0 -69 -46 -120t-120 -51t-120.5 45.5t-46.5 109.5q0 73 47 119t119 46q47 0 84.5 -21t59 -55t21.5 -73h-24q0 48 -23 89.5t-66 67.5t-102 26q-70 0 -121.5 -37.5t-85 -104.5t-50 -154.5
t-16.5 -185.5h-15zM458 920v-895h152v-25h-564v25h134v870h-134v25h412zM456 1120l-240 270l13 12l312 -142l312 142l13 -12l-240 -270h-170z" />
    <glyph glyph-name="Sacute" unicode="&#x15a;" horiz-adv-x="1203" 
d="M626 -29q-111 0 -195 36t-144 97l-173 -124h-23v470h26q28 -85 69.5 -166t101 -146t140 -103.5t187.5 -38.5q95 0 164 36.5t106.5 101t37.5 149.5q0 81 -44 136t-116 95t-158 75.5t-172 77t-157.5 100t-115.5 144t-44 209.5q0 125 62.5 215t163.5 137.5t218 47.5
q90 0 166 -28.5t136 -85.5l168 114h21v-451h-25q-40 133 -103.5 227.5t-150.5 145t-199 50.5q-120 0 -183 -63.5t-63 -164.5q0 -73 43.5 -123.5t114.5 -90t156 -76t170.5 -81t156.5 -105t114.5 -147.5t43.5 -211q0 -140 -66 -243t-179.5 -159.5t-254.5 -56.5zM494 1680
l-13 17l170 244q29 48 71 59.5t80.5 -1.5t57.5 -41q21 -32 17 -73t-31 -74t-75 -43z" />
    <glyph glyph-name="sacute" unicode="&#x15b;" horiz-adv-x="904" 
d="M84 -20v314h25q27 -89 79 -153t123 -99t157 -35q61 0 109 16.5t75.5 49t27.5 79.5q0 54 -41.5 85.5t-107 54t-138.5 46.5t-139 60.5t-107.5 97t-41.5 156.5q0 79 38 144t107 103.5t163 38.5q70 0 126.5 -22.5t99.5 -59.5l110 84h22v-280h-25q-26 66 -70.5 123.5t-109 93
t-151.5 35.5q-51 0 -89.5 -16t-60.5 -44t-22 -64q0 -52 43 -83.5t110.5 -55t143 -48.5t143 -62t110.5 -96t43 -151q0 -104 -51.5 -173.5t-133.5 -104t-173 -34.5q-77 0 -142.5 25t-117.5 70l-113 -95h-21zM355 1100l-13 17l170 244q29 48 71 59.5t80.5 -1.5t57.5 -41
q21 -32 17 -73t-31 -74t-75 -43z" />
    <glyph glyph-name="Scircumflex" unicode="&#x15c;" horiz-adv-x="1203" 
d="M626 -29q-111 0 -195 36t-144 97l-173 -124h-23v470h26q28 -85 69.5 -166t101 -146t140 -103.5t187.5 -38.5q95 0 164 36.5t106.5 101t37.5 149.5q0 81 -44 136t-116 95t-158 75.5t-172 77t-157.5 100t-115.5 144t-44 209.5q0 125 62.5 215t163.5 137.5t218 47.5
q90 0 166 -28.5t136 -85.5l168 114h21v-451h-25q-40 133 -103.5 227.5t-150.5 145t-199 50.5q-120 0 -183 -63.5t-63 -164.5q0 -73 43.5 -123.5t114.5 -90t156 -76t170.5 -81t156.5 -105t114.5 -147.5t43.5 -211q0 -140 -66 -243t-179.5 -159.5t-254.5 -56.5zM274 1704
l-12 13l240 270h170l240 -270l-13 -13l-313 143z" />
    <glyph glyph-name="scircumflex" unicode="&#x15d;" horiz-adv-x="904" 
d="M84 -20v314h25q27 -89 79 -153t123 -99t157 -35q61 0 109 16.5t75.5 49t27.5 79.5q0 54 -41.5 85.5t-107 54t-138.5 46.5t-139 60.5t-107.5 97t-41.5 156.5q0 79 38 144t107 103.5t163 38.5q70 0 126.5 -22.5t99.5 -59.5l110 84h22v-280h-25q-26 66 -70.5 123.5t-109 93
t-151.5 35.5q-51 0 -89.5 -16t-60.5 -44t-22 -64q0 -52 43 -83.5t110.5 -55t143 -48.5t143 -62t110.5 -96t43 -151q0 -104 -51.5 -173.5t-133.5 -104t-173 -34.5q-77 0 -142.5 25t-117.5 70l-113 -95h-21zM135 1124l-12 13l240 270h170l240 -270l-13 -13l-313 143z" />
    <glyph glyph-name="Scedilla" unicode="&#x15e;" horiz-adv-x="1203" 
d="M626 -29q-111 0 -195 36t-144 97l-173 -124h-23v470h26q28 -85 69.5 -166t101 -146t140 -103.5t187.5 -38.5q95 0 164 36.5t106.5 101t37.5 149.5q0 81 -44 136t-116 95t-158 75.5t-172 77t-157.5 100t-115.5 144t-44 209.5q0 125 62.5 215t163.5 137.5t218 47.5
q90 0 166 -28.5t136 -85.5l168 114h21v-451h-25q-40 133 -103.5 227.5t-150.5 145t-199 50.5q-120 0 -183 -63.5t-63 -164.5q0 -73 43.5 -123.5t114.5 -90t156 -76t170.5 -81t156.5 -105t114.5 -147.5t43.5 -211q0 -140 -66 -243t-179.5 -159.5t-254.5 -56.5zM462 -516v24
q88 0 132 35t44 90q0 51 -26 77t-68.5 34.5t-92.5 8.5l172 232h32l-113 -152q94 -3 165.5 -20t112 -51.5t40.5 -90.5q0 -50 -37 -93t-124 -68.5t-237 -25.5z" />
    <glyph glyph-name="scedilla" unicode="&#x15f;" horiz-adv-x="904" 
d="M84 -20v314h25q27 -89 79 -153t123 -99t157 -35q61 0 109 16.5t75.5 49t27.5 79.5q0 54 -41.5 85.5t-107 54t-138.5 46.5t-139 60.5t-107.5 97t-41.5 156.5q0 79 38 144t107 103.5t163 38.5q70 0 126.5 -22.5t99.5 -59.5l110 84h22v-280h-25q-26 66 -70.5 123.5t-109 93
t-151.5 35.5q-51 0 -89.5 -16t-60.5 -44t-22 -64q0 -52 43 -83.5t110.5 -55t143 -48.5t143 -62t110.5 -96t43 -151q0 -104 -51.5 -173.5t-133.5 -104t-173 -34.5q-77 0 -142.5 25t-117.5 70l-113 -95h-21zM297 -511v24q88 0 132 35t44 90q0 51 -26 77t-68.5 34.5t-92.5 8.5
l172 232h32l-113 -152q94 -3 165.5 -20t112 -51.5t40.5 -90.5q0 -50 -37 -93t-124 -68.5t-237 -25.5z" />
    <glyph glyph-name="Scaron" unicode="&#x160;" horiz-adv-x="1203" 
d="M626 -29q-111 0 -195 36t-144 97l-173 -124h-23v470h26q28 -85 69.5 -166t101 -146t140 -103.5t187.5 -38.5q95 0 164 36.5t106.5 101t37.5 149.5q0 81 -44 136t-116 95t-158 75.5t-172 77t-157.5 100t-115.5 144t-44 209.5q0 125 62.5 215t163.5 137.5t218 47.5
q90 0 166 -28.5t136 -85.5l168 114h21v-451h-25q-40 133 -103.5 227.5t-150.5 145t-199 50.5q-120 0 -183 -63.5t-63 -164.5q0 -73 43.5 -123.5t114.5 -90t156 -76t170.5 -81t156.5 -105t114.5 -147.5t43.5 -211q0 -140 -66 -243t-179.5 -159.5t-254.5 -56.5zM502 1700
l-240 270l13 12l312 -142l312 142l13 -12l-240 -270h-170z" />
    <glyph glyph-name="scaron" unicode="&#x161;" horiz-adv-x="904" 
d="M84 -20v314h25q27 -89 79 -153t123 -99t157 -35q61 0 109 16.5t75.5 49t27.5 79.5q0 54 -41.5 85.5t-107 54t-138.5 46.5t-139 60.5t-107.5 97t-41.5 156.5q0 79 38 144t107 103.5t163 38.5q70 0 126.5 -22.5t99.5 -59.5l110 84h22v-280h-25q-26 66 -70.5 123.5t-109 93
t-151.5 35.5q-51 0 -89.5 -16t-60.5 -44t-22 -64q0 -52 43 -83.5t110.5 -55t143 -48.5t143 -62t110.5 -96t43 -151q0 -104 -51.5 -173.5t-133.5 -104t-173 -34.5q-77 0 -142.5 25t-117.5 70l-113 -95h-21zM363 1120l-240 270l13 12l312 -142l312 142l13 -12l-240 -270h-170z
" />
    <glyph glyph-name="uni0162" unicode="&#x162;" horiz-adv-x="1380" 
d="M316 0v25h220v1450h-125q-80 0 -140 -35t-101.5 -97t-67 -145t-36.5 -178h-25v480h1300v-480h-25q-11 95 -36.5 178t-67 145t-101.5 97t-140 35h-125v-1450h220v-25h-750zM517 -498v24q88 0 132 35t44 90q0 51 -26 77t-68.5 34.5t-92.5 8.5l172 232h32l-113 -152
q94 -3 165.5 -20t112 -51.5t40.5 -90.5q0 -50 -37 -93t-124 -68.5t-237 -25.5z" />
    <glyph glyph-name="uni0163" unicode="&#x163;" horiz-adv-x="738" 
d="M404 -14q-97 0 -147.5 32.5t-69 88t-18.5 125.5v888q67 0 147 15.5t132 44.5v-994q0 -75 18 -106t59 -31q46 0 95.5 41.5t79.5 112.5l23 -10q-38 -91 -117 -149t-202 -58zM26 895v25h636v-25h-636zM231 -498v24q88 0 132 35t44 90q0 51 -26 77t-68.5 34.5t-92.5 8.5
l172 232h32l-113 -152q94 -3 165.5 -20t112 -51.5t40.5 -90.5q0 -50 -37 -93t-124 -68.5t-237 -25.5z" />
    <glyph glyph-name="Tcaron" unicode="&#x164;" horiz-adv-x="1380" 
d="M316 0v25h220v1450h-125q-80 0 -140 -35t-101.5 -97t-67 -145t-36.5 -178h-25v480h1300v-480h-25q-11 95 -36.5 178t-67 145t-101.5 97t-140 35h-125v-1450h220v-25h-750zM612 1700l-240 270l13 12l312 -142l312 142l13 -12l-240 -270h-170z" />
    <glyph glyph-name="tcaron" unicode="&#x165;" horiz-adv-x="738" 
d="M404 -14q-97 0 -147.5 32.5t-69 88t-18.5 125.5v888q67 0 147 15.5t132 44.5v-994q0 -75 18 -106t59 -31q46 0 95.5 41.5t79.5 112.5l23 -10q-38 -91 -117 -149t-202 -58zM26 895v25h636v-25h-636zM565 1078v22q72 0 131 27t100 75.5t58.5 114.5t4.5 143h7
q1 -34 -19 -65.5t-55 -52t-76 -20.5q-71 0 -109 43t-38 101q0 59 46 101.5t111 42.5q66 0 114.5 -55.5t48.5 -152.5q0 -88 -39 -161.5t-111.5 -118t-173.5 -44.5z" />
    <glyph glyph-name="Tbar" unicode="&#x166;" horiz-adv-x="1370" 
d="M329 696v24h726v-24h-726zM316 0v25h220v1450h-125q-80 0 -140 -35t-101.5 -97t-67 -145t-36.5 -178h-25v480h1300v-480h-25q-11 95 -36.5 178t-67 145t-101.5 97t-140 35h-125v-1450h220v-25h-750z" />
    <glyph glyph-name="tbar" unicode="&#x167;" horiz-adv-x="738" 
d="M26 570v24h638v-24h-638zM404 -14q-97 0 -147.5 32.5t-69 88t-18.5 125.5v888q67 0 147 15.5t132 44.5v-994q0 -75 18 -106t59 -31q46 0 95.5 41.5t79.5 112.5l23 -10q-38 -91 -117 -149t-202 -58zM26 895v25h636v-25h-636z" />
    <glyph glyph-name="Utilde" unicode="&#x168;" horiz-adv-x="1466" 
d="M1424 1500v-25h-193v-1015q0 -247 -114 -368t-358 -121q-282 0 -411 115t-129 374v1015h-180v25h690v-25h-200v-995q0 -99 12 -184.5t44.5 -149.5t93 -100t156.5 -36q113 0 196.5 46t129.5 145t46 259v1015h-184v25h401zM976 1660q-59 0 -105.5 24t-86.5 55t-82.5 55
t-94.5 24t-86 -31t-34 -87h-25q0 85 23.5 151.5t69 104.5t109.5 38q62 0 107 -24t82.5 -55t75 -55t84.5 -24q57 0 88.5 31.5t31.5 86.5h25q0 -95 -14.5 -160.5t-54 -99.5t-113.5 -34z" />
    <glyph glyph-name="utilde" unicode="&#x169;" horiz-adv-x="1248" 
d="M463 -20q-112 0 -173.5 39.5t-85.5 107.5t-24 155v613h-134v25h413v-623q0 -84 7 -137.5t28 -79.5t62 -26q65 0 109.5 39.5t71.5 102.5t39.5 136t12.5 141l19 4q0 -73 -13 -158.5t-49.5 -162.5t-104.5 -126.5t-178 -49.5zM789 0v895h-130v25h411v-895h133v-25h-414z
M747 1080q-59 0 -105.5 24t-86.5 55t-82.5 55t-94.5 24t-86 -31t-34 -87h-25q0 85 23.5 151.5t69 104.5t109.5 38q62 0 107 -24t82.5 -55t75 -55t84.5 -24q57 0 88.5 31.5t31.5 86.5h25q0 -95 -14.5 -160.5t-54 -99.5t-113.5 -34z" />
    <glyph glyph-name="Umacron" unicode="&#x16a;" horiz-adv-x="1466" 
d="M1424 1500v-25h-193v-1015q0 -247 -114 -368t-358 -121q-282 0 -411 115t-129 374v1015h-180v25h690v-25h-200v-995q0 -99 12 -184.5t44.5 -149.5t93 -100t156.5 -36q113 0 196.5 46t129.5 145t46 259v1015h-184v25h401zM571 1700v25h480v-25h-480z" />
    <glyph glyph-name="umacron" unicode="&#x16b;" horiz-adv-x="1248" 
d="M463 -20q-112 0 -173.5 39.5t-85.5 107.5t-24 155v613h-134v25h413v-623q0 -84 7 -137.5t28 -79.5t62 -26q65 0 109.5 39.5t71.5 102.5t39.5 136t12.5 141l19 4q0 -73 -13 -158.5t-49.5 -162.5t-104.5 -126.5t-178 -49.5zM789 0v895h-130v25h411v-895h133v-25h-414z
M342 1120v25h480v-25h-480z" />
    <glyph glyph-name="Ubreve" unicode="&#x16c;" horiz-adv-x="1466" 
d="M1424 1500v-25h-193v-1015q0 -247 -114 -368t-358 -121q-282 0 -411 115t-129 374v1015h-180v25h690v-25h-200v-995q0 -99 12 -184.5t44.5 -149.5t93 -100t156.5 -36q113 0 196.5 46t129.5 145t46 259v1015h-184v25h401zM811 1680q-85 0 -138 39.5t-77.5 111t-24.5 167.5
h20q0 -46 32.5 -74.5t83 -41t104.5 -12.5t104.5 12.5t83 41t32.5 74.5h20q0 -96 -24.5 -167.5t-77.5 -111t-138 -39.5z" />
    <glyph glyph-name="ubreve" unicode="&#x16d;" horiz-adv-x="1248" 
d="M463 -20q-112 0 -173.5 39.5t-85.5 107.5t-24 155v613h-134v25h413v-623q0 -84 7 -137.5t28 -79.5t62 -26q65 0 109.5 39.5t71.5 102.5t39.5 136t12.5 141l19 4q0 -73 -13 -158.5t-49.5 -162.5t-104.5 -126.5t-178 -49.5zM789 0v895h-130v25h411v-895h133v-25h-414z
M582 1100q-85 0 -138 39.5t-77.5 111t-24.5 167.5h20q0 -46 32.5 -74.5t83 -41t104.5 -12.5t104.5 12.5t83 41t32.5 74.5h20q0 -96 -24.5 -167.5t-77.5 -111t-138 -39.5z" />
    <glyph glyph-name="Uring" unicode="&#x16e;" horiz-adv-x="1466" 
d="M1424 1500v-25h-193v-1015q0 -247 -114 -368t-358 -121q-282 0 -411 115t-129 374v1015h-180v25h690v-25h-200v-995q0 -99 12 -184.5t44.5 -149.5t93 -100t156.5 -36q113 0 196.5 46t129.5 145t46 259v1015h-184v25h401zM811 1680q-91 0 -145.5 52t-54.5 128
q0 77 54.5 128.5t145.5 51.5q92 0 146 -51.5t54 -128.5q0 -76 -54 -128t-146 -52zM811 1705q29 0 46.5 19t25 53.5t7.5 82.5t-7.5 82.5t-25 53.5t-46.5 19t-46.5 -19t-25 -53.5t-7.5 -82.5t7.5 -82.5t25 -53.5t46.5 -19z" />
    <glyph glyph-name="uring" unicode="&#x16f;" horiz-adv-x="1248" 
d="M463 -20q-112 0 -173.5 39.5t-85.5 107.5t-24 155v613h-134v25h413v-623q0 -84 7 -137.5t28 -79.5t62 -26q65 0 109.5 39.5t71.5 102.5t39.5 136t12.5 141l19 4q0 -73 -13 -158.5t-49.5 -162.5t-104.5 -126.5t-178 -49.5zM789 0v895h-130v25h411v-895h133v-25h-414z
M582 1100q-91 0 -145.5 52t-54.5 128q0 77 54.5 128.5t145.5 51.5q92 0 146 -51.5t54 -128.5q0 -76 -54 -128t-146 -52zM582 1125q29 0 46.5 19t25 53.5t7.5 82.5t-7.5 82.5t-25 53.5t-46.5 19t-46.5 -19t-25 -53.5t-7.5 -82.5t7.5 -82.5t25 -53.5t46.5 -19z" />
    <glyph glyph-name="Uhungarumlaut" unicode="&#x170;" horiz-adv-x="1466" 
d="M1424 1500v-25h-193v-1015q0 -247 -114 -368t-358 -121q-282 0 -411 115t-129 374v1015h-180v25h690v-25h-200v-995q0 -99 12 -184.5t44.5 -149.5t93 -100t156.5 -36q113 0 196.5 46t129.5 145t46 259v1015h-184v25h401zM488 1679l-13 17l170 244q29 48 71 59.5
t80.5 -1.5t57.5 -41q21 -32 17 -73t-31 -74t-75 -43zM948 1679l-13 17l170 244q29 48 71 59.5t80.5 -1.5t57.5 -41q21 -32 17 -73t-31 -74t-75 -43z" />
    <glyph glyph-name="uhungarumlaut" unicode="&#x171;" horiz-adv-x="1248" 
d="M463 -20q-112 0 -173.5 39.5t-85.5 107.5t-24 155v613h-134v25h413v-623q0 -84 7 -137.5t28 -79.5t62 -26q65 0 109.5 39.5t71.5 102.5t39.5 136t12.5 141l19 4q0 -73 -13 -158.5t-49.5 -162.5t-104.5 -126.5t-178 -49.5zM789 0v895h-130v25h411v-895h133v-25h-414z
M259 1099l-13 17l170 244q29 48 71 59.5t80.5 -1.5t57.5 -41q21 -32 17 -73t-31 -74t-75 -43zM719 1099l-13 17l170 244q29 48 71 59.5t80.5 -1.5t57.5 -41q21 -32 17 -73t-31 -74t-75 -43z" />
    <glyph glyph-name="Uogonek" unicode="&#x172;" horiz-adv-x="1466" 
d="M1424 1500v-25h-193v-1015q0 -247 -114 -368t-358 -121q-282 0 -411 115t-129 374v1015h-180v25h690v-25h-200v-995q0 -99 12 -184.5t44.5 -149.5t93 -100t156.5 -36q113 0 196.5 46t129.5 145t46 259v1015h-184v25h401zM903 -446q-66 0 -121.5 18t-90 56t-34.5 98
t32 109.5t84.5 88.5t113 67t117.5 45l8 -16q-21 -12 -41.5 -45t-34 -83.5t-13.5 -113.5q0 -77 28 -119.5t71 -42.5q41 0 66 27t47 67l18 -11q-15 -28 -40 -62t-74.5 -58.5t-135.5 -24.5z" />
    <glyph glyph-name="uogonek" unicode="&#x173;" horiz-adv-x="1248" 
d="M463 -20q-112 0 -173.5 39.5t-85.5 107.5t-24 155v613h-134v25h413v-623q0 -84 7 -137.5t28 -79.5t62 -26q65 0 109.5 39.5t71.5 102.5t39.5 136t12.5 141l19 4q0 -73 -13 -158.5t-49.5 -162.5t-104.5 -126.5t-178 -49.5zM789 0v895h-130v25h411v-895h133v-25h-414z
M919 -446q-66 0 -121.5 18t-90 56t-34.5 98t32 109.5t84.5 88.5t113 67t117.5 45l8 -16q-21 -12 -41.5 -45t-34 -83.5t-13.5 -113.5q0 -77 28 -119.5t71 -42.5q41 0 66 27t47 67l18 -11q-15 -28 -40 -62t-74.5 -58.5t-135.5 -24.5z" />
    <glyph glyph-name="Wcircumflex" unicode="&#x174;" horiz-adv-x="2222" 
d="M738 -20l-543 1495h-167v25h1677v-25h-541l405 -1132l422 1132h-196v25h400v-25h-177l-555 -1495h-76l-544 1495h-296l406 -1132l178 474l15 -40l-302 -797h-106zM1325 925l-23 17l206 550l28 -3zM889 1704l-12 13l240 270h170l240 -270l-13 -13l-313 143z" />
    <glyph glyph-name="wcircumflex" unicode="&#x175;" horiz-adv-x="1654" 
d="M1637 920v-25h-173l-306 -915h-97l-252 695l-282 -695h-98l-294 915h-125v25h584v-25h-167l184 -637l277 682h154l195 -640l199 595h-200v25h401zM535 1124l-12 13l240 270h170l240 -270l-13 -13l-313 143z" />
    <glyph glyph-name="Ycircumflex" unicode="&#x176;" horiz-adv-x="1486" 
d="M427 0v25h179v695l-439 755h-140v25h700v-25h-200l377 -683l355 683h-219v25h417v-25h-168l-373 -714v-736h201v-25h-690zM499 1704l-12 13l240 270h170l240 -270l-13 -13l-313 143z" />
    <glyph glyph-name="ycircumflex" unicode="&#x177;" horiz-adv-x="1204" 
d="M457 895l313 -619l-158 -324l-489 943h-123v25h646v-25h-189zM1215 920v-25h-150l-589 -1272q-30 -63 -71.5 -103.5t-111.5 -40.5q-37 0 -73 17t-60 50.5t-24 83.5q0 46 21.5 81.5t58 56t81.5 20.5q40 0 76 -22t57 -59t17 -85l588 1273h-189v25h369zM340 1124l-12 13
l240 270h170l240 -270l-13 -13l-313 143z" />
    <glyph glyph-name="Ydieresis" unicode="&#x178;" horiz-adv-x="1486" 
d="M427 0v25h179v695l-439 755h-140v25h700v-25h-200l377 -683l355 683h-219v25h417v-25h-168l-373 -714v-736h201v-25h-690zM998 1685q-47 0 -81 34t-34 81q0 48 34 82t81 34q48 0 82 -34t34 -82q0 -47 -34 -81t-82 -34zM624 1685q-47 0 -81 34t-34 81q0 48 34 82t81 34
q48 0 82 -34t34 -82q0 -47 -34 -81t-82 -34z" />
    <glyph glyph-name="Zacute" unicode="&#x179;" horiz-adv-x="1240" 
d="M30 0v25l770 1450h-298q-137 0 -218.5 -41.5t-124 -119t-62.5 -184.5h-25v370h1078v-25l-770 -1450h358q137 0 218.5 43.5t124 129t62.5 212.5h25v-410h-1138zM506 1680l-13 17l170 244q29 48 71 59.5t80.5 -1.5t57.5 -41q21 -32 17 -73t-31 -74t-75 -43z" />
    <glyph glyph-name="zacute" unicode="&#x17a;" horiz-adv-x="968" 
d="M37 0v25l538 870h-147q-94 0 -158 -37.5t-101 -109t-52 -172.5h-25v344h798v-25l-540 -870h191q87 0 150 18.5t104.5 59.5t66.5 106.5t36 158.5h24v-368h-885zM404 1100l-13 17l170 244q29 48 71 59.5t80.5 -1.5t57.5 -41q21 -32 17 -73t-31 -74t-75 -43z" />
    <glyph glyph-name="Zdotaccent" unicode="&#x17b;" horiz-adv-x="1240" 
d="M30 0v25l770 1450h-298q-137 0 -218.5 -41.5t-124 -119t-62.5 -184.5h-25v370h1078v-25l-770 -1450h358q137 0 218.5 43.5t124 129t62.5 212.5h25v-410h-1138zM599 1758q-72 0 -121 49.5t-49 121.5t49 121t121 49t121 -49t49 -121t-49 -121.5t-121 -49.5z" />
    <glyph glyph-name="zdotaccent" unicode="&#x17c;" horiz-adv-x="968" 
d="M37 0v25l538 870h-147q-94 0 -158 -37.5t-101 -109t-52 -172.5h-25v344h798v-25l-540 -870h191q87 0 150 18.5t104.5 59.5t66.5 106.5t36 158.5h24v-368h-885zM497 1178q-72 0 -121 49.5t-49 121.5t49 121t121 49t121 -49t49 -121t-49 -121.5t-121 -49.5z" />
    <glyph glyph-name="Zcaron" unicode="&#x17d;" horiz-adv-x="1240" 
d="M30 0v25l770 1450h-298q-137 0 -218.5 -41.5t-124 -119t-62.5 -184.5h-25v370h1078v-25l-770 -1450h358q137 0 218.5 43.5t124 129t62.5 212.5h25v-410h-1138zM514 1700l-240 270l13 12l312 -142l312 142l13 -12l-240 -270h-170z" />
    <glyph glyph-name="zcaron" unicode="&#x17e;" horiz-adv-x="968" 
d="M37 0v25l538 870h-147q-94 0 -158 -37.5t-101 -109t-52 -172.5h-25v344h798v-25l-540 -870h191q87 0 150 18.5t104.5 59.5t66.5 106.5t36 158.5h24v-368h-885zM412 1120l-240 270l13 12l312 -142l312 142l13 -12l-240 -270h-170z" />
    <glyph glyph-name="longs" unicode="&#x17f;" horiz-adv-x="815" 
d="M695 1520q88 0 149.5 -35.5t94 -88t32.5 -104.5q0 -80 -49.5 -122t-110.5 -42q-35 0 -71 15.5t-60.5 48.5t-24.5 85q0 49 23 83t59 51.5t74 16.5q34 -1 65.5 -20t41.5 -52q-12 39 -42 70.5t-73 49.5t-93 18q-83 0 -133.5 -50.5t-73 -143.5t-22.5 -220v-1055h233v-25h-676
v25h173v998q0 141 59.5 253.5t168 178t256.5 65.5z" />
    <glyph glyph-name="florin" unicode="&#x192;" horiz-adv-x="791" 
d="M-114 -520q-91 0 -160 33.5t-108 86t-39 110.5q0 52 22 89.5t59 57.5t79 20q38 0 75.5 -17t62 -51.5t24.5 -86.5q0 -48 -23.5 -79t-59.5 -46t-75 -15q-34 0 -72 17t-64 45.5t-26 65.5h23q0 -42 22 -79t61 -65.5t91.5 -44.5t112.5 -16q64 0 112 53t80 146.5t44 215.5
l113 1103q14 139 87 252t193 179t275 66q91 0 155.5 -33t98.5 -84t34 -106q0 -80 -47 -127t-112 -47q-37 0 -75 17t-64 51.5t-26 86.5q0 48 24 79t60.5 46t73.5 15q33 0 71.5 -15.5t65.5 -43t27 -62.5h-23q0 39 -19.5 74.5t-54.5 63t-82 44t-102 16.5q-77 0 -131.5 -53
t-87.5 -146t-47 -216l-122 -1103q-15 -137 -80.5 -250t-178 -180t-267.5 -67zM63 895v25h741v-25h-741z" />
    <glyph glyph-name="uni0212" unicode="&#x212;" horiz-adv-x="1500" 
d="M401 763v16h290q96 0 160.5 37t97 114t32.5 196t-32.5 196.5t-97 115t-160.5 37.5h-650v25h700q166 0 292 -39.5t197 -122t71 -212.5t-66.5 -210t-192 -116.5t-301.5 -36.5h-340zM41 0v25h710v-25h-710zM241 13v1473h310v-1473h-310zM1231 -15q-102 0 -160.5 32.5
t-86 87.5t-35.5 123t-8.5 141t-6 141.5t-27.5 123.5t-73 87.5t-143 32.5h-290v14h450q139 0 220.5 -40.5t121.5 -106.5t52.5 -145.5t13 -159t3 -146t21.5 -106.5t71 -40q31 0 59 7t49 17l9 -23q-24 -13 -88 -26.5t-152 -13.5zM430 1681q0 96 24.5 167.5t77.5 111t138 39.5
t138 -39.5t77.5 -111t24.5 -167.5h-20q0 46 -32.5 74.5t-83 41t-104.5 12.5t-104.5 -12.5t-83 -41t-32.5 -74.5h-20z" />
    <glyph glyph-name="uni0213" unicode="&#x213;" horiz-adv-x="983" 
d="M443 432q0 102 15 193.5t49 162t90 111t137 40.5q68 0 116 -30t73 -77.5t25 -100.5q0 -69 -46 -120t-120 -51t-120.5 45.5t-46.5 109.5q0 73 47 119t119 46q47 0 84.5 -21t59 -55t21.5 -73h-24q0 48 -23 89.5t-66 67.5t-102 26q-70 0 -121.5 -37.5t-85 -104.5t-50 -154.5
t-16.5 -185.5h-15zM458 920v-895h152v-25h-564v25h134v870h-134v25h412zM303 1101q0 96 24.5 167.5t77.5 111t138 39.5t138 -39.5t77.5 -111t24.5 -167.5h-20q0 46 -32.5 74.5t-83 41t-104.5 12.5t-104.5 -12.5t-83 -41t-32.5 -74.5h-20z" />
    <glyph glyph-name="uni0218" unicode="&#x218;" horiz-adv-x="1203" 
d="M626 -29q-111 0 -195 36t-144 97l-173 -124h-23v470h26q28 -85 69.5 -166t101 -146t140 -103.5t187.5 -38.5q95 0 164 36.5t106.5 101t37.5 149.5q0 81 -44 136t-116 95t-158 75.5t-172 77t-157.5 100t-115.5 144t-44 209.5q0 125 62.5 215t163.5 137.5t218 47.5
q90 0 166 -28.5t136 -85.5l168 114h21v-451h-25q-40 133 -103.5 227.5t-150.5 145t-199 50.5q-120 0 -183 -63.5t-63 -164.5q0 -73 43.5 -123.5t114.5 -90t156 -76t170.5 -81t156.5 -105t114.5 -147.5t43.5 -211q0 -140 -66 -243t-179.5 -159.5t-254.5 -56.5zM485 -722v21
q93 0 164.5 44t106.5 122t19 179h7q1 -34 -19.5 -65.5t-55 -51.5t-74.5 -20q-70 0 -107.5 42.5t-37.5 99.5q0 39 21 71.5t56.5 52t77.5 19.5q65 0 112.5 -54t47.5 -148q0 -86 -38.5 -157t-110 -113t-169.5 -42z" />
    <glyph glyph-name="uni0219" unicode="&#x219;" horiz-adv-x="904" 
d="M84 -20v314h25q27 -89 79 -153t123 -99t157 -35q61 0 109 16.5t75.5 49t27.5 79.5q0 54 -41.5 85.5t-107 54t-138.5 46.5t-139 60.5t-107.5 97t-41.5 156.5q0 79 38 144t107 103.5t163 38.5q70 0 126.5 -22.5t99.5 -59.5l110 84h22v-280h-25q-26 66 -70.5 123.5t-109 93
t-151.5 35.5q-51 0 -89.5 -16t-60.5 -44t-22 -64q0 -52 43 -83.5t110.5 -55t143 -48.5t143 -62t110.5 -96t43 -151q0 -104 -51.5 -173.5t-133.5 -104t-173 -34.5q-77 0 -142.5 25t-117.5 70l-113 -95h-21zM320 -718v21q93 0 164.5 44t106.5 122t19 179h7q1 -34 -19.5 -65.5
t-55 -51.5t-74.5 -20q-70 0 -107.5 42.5t-37.5 99.5q0 39 21 71.5t56.5 52t77.5 19.5q65 0 112.5 -54t47.5 -148q0 -86 -38.5 -157t-110 -113t-169.5 -42z" />
    <glyph glyph-name="uni021A" unicode="&#x21a;" horiz-adv-x="1380" 
d="M316 0v25h220v1450h-125q-80 0 -140 -35t-101.5 -97t-67 -145t-36.5 -178h-25v480h1300v-480h-25q-11 95 -36.5 178t-67 145t-101.5 97t-140 35h-125v-1450h220v-25h-750zM540 -705v21q93 0 164.5 44t106.5 122t19 179h7q1 -34 -19.5 -65.5t-55 -51.5t-74.5 -20
q-70 0 -107.5 42.5t-37.5 99.5q0 39 21 71.5t56.5 52t77.5 19.5q65 0 112.5 -54t47.5 -148q0 -86 -38.5 -157t-110 -113t-169.5 -42z" />
    <glyph glyph-name="uni021B" unicode="&#x21b;" horiz-adv-x="738" 
d="M404 -14q-97 0 -147.5 32.5t-69 88t-18.5 125.5v888q67 0 147 15.5t132 44.5v-994q0 -75 18 -106t59 -31q46 0 95.5 41.5t79.5 112.5l23 -10q-38 -91 -117 -149t-202 -58zM26 895v25h636v-25h-636zM254 -705v21q93 0 164.5 44t106.5 122t19 179h7q1 -34 -19.5 -65.5
t-55 -51.5t-74.5 -20q-70 0 -107.5 42.5t-37.5 99.5q0 39 21 71.5t56.5 52t77.5 19.5q65 0 112.5 -54t47.5 -148q0 -86 -38.5 -157t-110 -113t-169.5 -42z" />
    <glyph glyph-name="uni0237" unicode="&#x237;" horiz-adv-x="664" 
d="M65 -520q-88 0 -156 32t-106.5 86t-38.5 120q0 73 48 118.5t116 45.5q40 0 77 -18.5t60.5 -52.5t23.5 -82q0 -60 -44 -104.5t-116 -44.5q-44 0 -81 20t-59.5 51.5t-22.5 66.5h23q0 -61 36.5 -109t95.5 -76t128 -28q71 0 108 47.5t51 126t15 173.5t1 190v853h-173v25h452
v-943q0 -98 -31.5 -187.5t-90 -159t-138.5 -110t-178 -40.5z" />
    <glyph glyph-name="circumflex" unicode="&#x2c6;" horiz-adv-x="1000" 
d="M187 1704l-12 13l240 270h170l240 -270l-13 -13l-313 143z" />
    <glyph glyph-name="caron" unicode="&#x2c7;" horiz-adv-x="1000" 
d="M415 1700l-240 270l13 12l312 -142l312 142l13 -12l-240 -270h-170z" />
    <glyph glyph-name="breve" unicode="&#x2d8;" horiz-adv-x="1000" 
d="M500 1680q-85 0 -138 39.5t-77.5 111t-24.5 167.5h20q0 -46 32.5 -74.5t83 -41t104.5 -12.5t104.5 12.5t83 41t32.5 74.5h20q0 -96 -24.5 -167.5t-77.5 -111t-138 -39.5z" />
    <glyph glyph-name="dotaccent" unicode="&#x2d9;" horiz-adv-x="1000" 
d="M501 1178q-72 0 -121 49.5t-49 121.5t49 121t121 49t121 -49t49 -121t-49 -121.5t-121 -49.5z" />
    <glyph glyph-name="ring" unicode="&#x2da;" horiz-adv-x="1000" 
d="M500 1680q-91 0 -145.5 52t-54.5 128q0 77 54.5 128.5t145.5 51.5q92 0 146 -51.5t54 -128.5q0 -76 -54 -128t-146 -52zM500 1705q29 0 46.5 19t25 53.5t7.5 82.5t-7.5 82.5t-25 53.5t-46.5 19t-46.5 -19t-25 -53.5t-7.5 -82.5t7.5 -82.5t25 -53.5t46.5 -19z" />
    <glyph glyph-name="ogonek" unicode="&#x2db;" horiz-adv-x="1000" 
d="M498 -404q-66 0 -121.5 18t-90 56t-34.5 98t32 109.5t84.5 88.5t113 67t117.5 45l8 -16q-21 -12 -41.5 -45t-34 -83.5t-13.5 -113.5q0 -77 28 -119.5t71 -42.5q41 0 66 27t47 67l18 -11q-15 -28 -40 -62t-74.5 -58.5t-135.5 -24.5z" />
    <glyph glyph-name="tilde" unicode="&#x2dc;" horiz-adv-x="1000" 
d="M666 1660q-59 0 -105.5 24t-86.5 55t-82.5 55t-94.5 24t-86 -31t-34 -87h-25q0 85 23.5 151.5t69 104.5t109.5 38q62 0 107 -24t82.5 -55t75 -55t84.5 -24q57 0 88.5 31.5t31.5 86.5h25q0 -95 -14.5 -160.5t-54 -99.5t-113.5 -34z" />
    <glyph glyph-name="hungarumlaut" unicode="&#x2dd;" horiz-adv-x="1000" 
d="M85 1680l-13 17l170 244q29 48 71 59.5t80.5 -1.5t57.5 -41q21 -32 17 -73t-31 -74t-75 -43zM545 1680l-13 17l170 244q29 48 71 59.5t80.5 -1.5t57.5 -41q21 -32 17 -73t-31 -74t-75 -43z" />
    <glyph glyph-name="gravecomb" unicode="&#x300;" 
d="M685 1680l-277 88q-48 10 -75 43t-30.5 74t17.5 73q18 28 56.5 41t80.5 1.5t71 -59.5l170 -244z" />
    <glyph glyph-name="acutecomb" unicode="&#x301;" 
d="M315 1680l-13 17l170 244q29 48 71 59.5t80.5 -1.5t57.5 -41q21 -32 17 -73t-31 -74t-75 -43z" />
    <glyph glyph-name="uni0302" unicode="&#x302;" 
d="M187 1704l-12 13l240 270h170l240 -270l-13 -13l-313 143z" />
    <glyph glyph-name="tildecomb" unicode="&#x303;" 
d="M666 1660q-59 0 -105.5 24t-86.5 55t-82.5 55t-94.5 24t-86 -31t-34 -87h-25q0 85 23.5 151.5t69 104.5t109.5 38q62 0 107 -24t82.5 -55t75 -55t84.5 -24q57 0 88.5 31.5t31.5 86.5h25q0 -95 -14.5 -160.5t-54 -99.5t-113.5 -34z" />
    <glyph glyph-name="uni0304" unicode="&#x304;" 
d="M260 1700v25h480v-25h-480z" />
    <glyph glyph-name="uni0306" unicode="&#x306;" 
d="M500 1680q-85 0 -138 39.5t-77.5 111t-24.5 167.5h20q0 -46 32.5 -74.5t83 -41t104.5 -12.5t104.5 12.5t83 41t32.5 74.5h20q0 -96 -24.5 -167.5t-77.5 -111t-138 -39.5z" />
    <glyph glyph-name="uni0307" unicode="&#x307;" 
d="M501 1178q-72 0 -121 49.5t-49 121.5t49 121t121 49t121 -49t49 -121t-49 -121.5t-121 -49.5z" />
    <glyph glyph-name="uni0308" unicode="&#x308;" 
d="M687 1685q-47 0 -81 34t-34 81q0 48 34 82t81 34q48 0 82 -34t34 -82q0 -47 -34 -81t-82 -34zM313 1685q-47 0 -81 34t-34 81q0 48 34 82t81 34q48 0 82 -34t34 -82q0 -47 -34 -81t-82 -34z" />
    <glyph glyph-name="uni030A" unicode="&#x30a;" 
d="M500 1680q-91 0 -145.5 52t-54.5 128q0 77 54.5 128.5t145.5 51.5q92 0 146 -51.5t54 -128.5q0 -76 -54 -128t-146 -52zM500 1705q29 0 46.5 19t25 53.5t7.5 82.5t-7.5 82.5t-25 53.5t-46.5 19t-46.5 -19t-25 -53.5t-7.5 -82.5t7.5 -82.5t25 -53.5t46.5 -19z" />
    <glyph glyph-name="uni030B" unicode="&#x30b;" 
d="M85 1680l-13 17l170 244q29 48 71 59.5t80.5 -1.5t57.5 -41q21 -32 17 -73t-31 -74t-75 -43zM545 1680l-13 17l170 244q29 48 71 59.5t80.5 -1.5t57.5 -41q21 -32 17 -73t-31 -74t-75 -43z" />
    <glyph glyph-name="uni030C" unicode="&#x30c;" 
d="M415 1700l-240 270l13 12l312 -142l312 142l13 -12l-240 -270h-170z" />
    <glyph glyph-name="uni0311" unicode="&#x311;" 
d="M260 1681q0 96 24.5 167.5t77.5 111t138 39.5t138 -39.5t77.5 -111t24.5 -167.5h-20q0 46 -32.5 74.5t-83 41t-104.5 12.5t-104.5 -12.5t-83 -41t-32.5 -74.5h-20z" />
    <glyph glyph-name="uni0312" unicode="&#x312;" 
d="M502 1115q-65 0 -112.5 53.5t-47.5 147.5q0 87 38.5 158t110 113t169.5 42v-21q-93 0 -164.5 -44.5t-106.5 -122t-19 -179.5h-7q-1 35 19.5 66.5t55 51.5t74.5 20q70 0 107.5 -42.5t37.5 -99.5q0 -39 -21 -71.5t-56 -52t-78 -19.5z" />
    <glyph glyph-name="dotbelowcomb" unicode="&#x323;" 
d="M500 -486q-71 0 -120 49.5t-49 120.5q0 73 49 121.5t120 48.5q73 0 122 -48.5t49 -121.5q0 -71 -49 -120.5t-122 -49.5z" />
    <glyph glyph-name="uni0326" unicode="&#x326;" 
d="M341 -705v21q93 0 164.5 44t106.5 122t19 179h7q1 -34 -19.5 -65.5t-55 -51.5t-74.5 -20q-70 0 -107.5 42.5t-37.5 99.5q0 39 21 71.5t56.5 52t77.5 19.5q65 0 112.5 -54t47.5 -148q0 -86 -38.5 -157t-110 -113t-169.5 -42z" />
    <glyph glyph-name="uni0327" unicode="&#x327;" 
d="M309 -497v24q88 0 132 35t44 90q0 51 -26 77t-68.5 34.5t-92.5 8.5l172 232h32l-113 -152q94 -3 165.5 -20t112 -51.5t40.5 -90.5q0 -50 -37 -93t-124 -68.5t-237 -25.5z" />
    <glyph glyph-name="uni0328" unicode="&#x328;" 
d="M498 -404q-66 0 -121.5 18t-90 56t-34.5 98t32 109.5t84.5 88.5t113 67t117.5 45l8 -16q-21 -12 -41.5 -45t-34 -83.5t-13.5 -113.5q0 -77 28 -119.5t71 -42.5q41 0 66 27t47 67l18 -11q-15 -28 -40 -62t-74.5 -58.5t-135.5 -24.5z" />
    <glyph glyph-name="uni0394" unicode="&#x394;" horiz-adv-x="1322" 
d="M71 0l542 1529h119l530 -1529h-358l-389 1180l-416 -1180h-28zM88 0v25h1038v-25h-1038z" />
    <glyph glyph-name="uni03A9" unicode="&#x3a9;" horiz-adv-x="1552" 
d="M626 361q-94 18 -185.5 63t-165.5 115.5t-118.5 167t-44.5 218.5q0 188 80 321.5t229.5 203.5t354.5 70q207 0 355.5 -70t229 -203.5t80.5 -321.5q0 -122 -44.5 -217t-118.5 -164t-165 -112.5t-186 -61.5v22q72 32 118.5 108t69 185t22.5 240q0 117 -15.5 221t-55 183
t-110 123.5t-180.5 44.5t-180.5 -44.5t-109.5 -123.5t-54.5 -183t-15.5 -221q0 -131 23 -242t69.5 -189.5t117.5 -110.5v-22zM162 0v400h25q0 -70 44 -103.5t121 -33.5h250v111l24 -1v-373h-464zM927 0v382l24 1v-120h250q77 0 121 33.5t44 103.5h25v-400h-464z" />
    <glyph glyph-name="uni03BC" unicode="&#x3bc;" horiz-adv-x="1248" 
d="M1070 920v-895h133v-25h-414v319q-14 -82 -48 -160t-100.5 -128.5t-177.5 -50.5q-123 0 -181.5 50t-77.5 131v-403q0 -76 34 -130t90 -84.5t122 -36.5q-33 14 -53.5 57t-20.5 89q0 61 44 106t109 45q64 0 108.5 -45t44.5 -114t-49.5 -117t-147.5 -48q-78 0 -148 32
t-113.5 94t-43.5 152v1137h-134v25h413v-623q0 -84 7 -137.5t28 -79.5t62 -26q65 0 109.5 39.5t71.5 102.5t39.5 136t12.5 141v422h-130v25h411z" />
    <glyph glyph-name="pi" unicode="&#x3c0;" horiz-adv-x="1261" 
d="M82 490v430h1070v-280h-1045v-150h-25zM248 -20q-76 0 -122 38.5t-46 97.5q0 47 22.5 74.5t58.5 47t76.5 40.5t76 53.5t58 87t22.5 140.5v204h112v-277q0 -237 -66.5 -371.5t-191.5 -134.5zM926 -20q-100 0 -167 45t-67 141v546h280v-541q0 -30 17.5 -53t59.5 -23
q36 0 65.5 27t59.5 95l18 -11q-34 -105 -96 -165.5t-170 -60.5z" />
    <glyph glyph-name="Wgrave" unicode="&#x1e80;" horiz-adv-x="2222" 
d="M738 -20l-543 1495h-167v25h1677v-25h-541l405 -1132l422 1132h-196v25h400v-25h-177l-555 -1495h-76l-544 1495h-296l406 -1132l178 474l15 -40l-302 -797h-106zM1325 925l-23 17l206 550l28 -3zM1290 1680l-277 88q-48 10 -75 43t-30.5 74t17.5 73q18 28 56.5 41
t80.5 1.5t71 -59.5l170 -244z" />
    <glyph glyph-name="wgrave" unicode="&#x1e81;" horiz-adv-x="1654" 
d="M1637 920v-25h-173l-306 -915h-97l-252 695l-282 -695h-98l-294 915h-125v25h584v-25h-167l184 -637l277 682h154l195 -640l199 595h-200v25h401zM937 1100l-277 88q-48 10 -75 43t-30.5 74t17.5 73q18 28 56.5 41t80.5 1.5t71 -59.5l170 -244z" />
    <glyph glyph-name="Wacute" unicode="&#x1e82;" horiz-adv-x="2222" 
d="M738 -20l-543 1495h-167v25h1677v-25h-541l405 -1132l422 1132h-196v25h400v-25h-177l-555 -1495h-76l-544 1495h-296l406 -1132l178 474l15 -40l-302 -797h-106zM1325 925l-23 17l206 550l28 -3zM1109 1680l-13 17l170 244q29 48 71 59.5t80.5 -1.5t57.5 -41
q21 -32 17 -73t-31 -74t-75 -43z" />
    <glyph glyph-name="wacute" unicode="&#x1e83;" horiz-adv-x="1654" 
d="M1637 920v-25h-173l-306 -915h-97l-252 695l-282 -695h-98l-294 915h-125v25h584v-25h-167l184 -637l277 682h154l195 -640l199 595h-200v25h401zM756 1100l-13 17l170 244q29 48 71 59.5t80.5 -1.5t57.5 -41q21 -32 17 -73t-31 -74t-75 -43z" />
    <glyph glyph-name="Wdieresis" unicode="&#x1e84;" horiz-adv-x="2222" 
d="M738 -20l-543 1495h-167v25h1677v-25h-541l405 -1132l422 1132h-196v25h400v-25h-177l-555 -1495h-76l-544 1495h-296l406 -1132l178 474l15 -40l-302 -797h-106zM1325 925l-23 17l206 550l28 -3zM1387 1685q-47 0 -81 34t-34 81q0 48 34 82t81 34q48 0 82 -34t34 -82
q0 -47 -34 -81t-82 -34zM1013 1685q-47 0 -81 34t-34 81q0 48 34 82t81 34q48 0 82 -34t34 -82q0 -47 -34 -81t-82 -34z" />
    <glyph glyph-name="wdieresis" unicode="&#x1e85;" horiz-adv-x="1654" 
d="M1637 920v-25h-173l-306 -915h-97l-252 695l-282 -695h-98l-294 915h-125v25h584v-25h-167l184 -637l277 682h154l195 -640l199 595h-200v25h401zM1033 1105q-47 0 -81 34t-34 81q0 48 34 82t81 34q48 0 82 -34t34 -82q0 -47 -34 -81t-82 -34zM659 1105q-47 0 -81 34
t-34 81q0 48 34 82t81 34q48 0 82 -34t34 -82q0 -47 -34 -81t-82 -34z" />
    <glyph glyph-name="uni1E86" unicode="&#x1e86;" horiz-adv-x="2222" 
d="M738 -20l-543 1495h-167v25h1677v-25h-541l405 -1132l422 1132h-196v25h400v-25h-177l-555 -1495h-76l-544 1495h-296l406 -1132l178 474l15 -40l-302 -797h-106zM1325 925l-23 17l206 550l28 -3zM1202 1758q-72 0 -121 49.5t-49 121.5t49 121t121 49t121 -49t49 -121
t-49 -121.5t-121 -49.5z" />
    <glyph glyph-name="uni1E87" unicode="&#x1e87;" horiz-adv-x="1654" 
d="M1637 920v-25h-173l-306 -915h-97l-252 695l-282 -695h-98l-294 915h-125v25h584v-25h-167l184 -637l277 682h154l195 -640l199 595h-200v25h401zM848 1178q-72 0 -121 49.5t-49 121.5t49 121t121 49t121 -49t49 -121t-49 -121.5t-121 -49.5z" />
    <glyph glyph-name="uni1E88" unicode="&#x1e88;" horiz-adv-x="2222" 
d="M738 -20l-543 1495h-167v25h1677v-25h-541l405 -1132l422 1132h-196v25h400v-25h-177l-555 -1495h-76l-544 1495h-296l406 -1132l178 474l15 -40l-302 -797h-106zM1325 925l-23 17l206 550l28 -3zM1141 -486q-71 0 -120 49.5t-49 120.5q0 73 49 121.5t120 48.5
q73 0 122 -48.5t49 -121.5q0 -71 -49 -120.5t-122 -49.5z" />
    <glyph glyph-name="uni1E89" unicode="&#x1e89;" horiz-adv-x="1654" 
d="M1637 920v-25h-173l-306 -915h-97l-252 695l-282 -695h-98l-294 915h-125v25h584v-25h-167l184 -637l277 682h154l195 -640l199 595h-200v25h401zM815 -486q-71 0 -120 49.5t-49 120.5q0 73 49 121.5t120 48.5q73 0 122 -48.5t49 -121.5q0 -71 -49 -120.5t-122 -49.5z
" />
    <glyph glyph-name="uni1E9E" unicode="&#x1e9e;" horiz-adv-x="1781" 
d="M210 0v882q0 160 64.5 279.5t180 199t269.5 119.5t332 40q154 0 273 -36t198.5 -85t114.5 -87l-425 -545q-46 16 -128 32t-173 23l478 602q-53 27 -137 48.5t-201 21.5q-145 0 -245.5 -46t-162.5 -130.5t-90 -200.5t-28 -256v-861h-320zM29 0v25h681v-25h-681zM1151 -20
q-154 0 -256.5 51t-154 129.5t-51.5 160.5q0 81 49.5 133.5t124.5 52.5q68 0 114 -47t46 -120q0 -44 -23 -80.5t-60 -58t-80 -21.5q-42 0 -81 21t-63.5 53t-24.5 67h23q0 -66 31.5 -122.5t85 -98t121 -64.5t140.5 -23q104 0 166.5 53.5t90 141.5t27.5 192q0 53 -12.5 109
t-42 107.5t-82 92t-132 64.5t-191.5 24v25q228 0 379.5 -31t241 -87t127 -132t37.5 -167q0 -104 -45.5 -184t-123.5 -133.5t-176.5 -80.5t-204.5 -27z" />
    <glyph glyph-name="Ygrave" unicode="&#x1ef2;" horiz-adv-x="1486" 
d="M427 0v25h179v695l-439 755h-140v25h700v-25h-200l377 -683l355 683h-219v25h417v-25h-168l-373 -714v-736h201v-25h-690zM901 1680l-277 88q-48 10 -75 43t-30.5 74t17.5 73q18 28 56.5 41t80.5 1.5t71 -59.5l170 -244z" />
    <glyph glyph-name="ygrave" unicode="&#x1ef3;" horiz-adv-x="1204" 
d="M457 895l313 -619l-158 -324l-489 943h-123v25h646v-25h-189zM1215 920v-25h-150l-589 -1272q-30 -63 -71.5 -103.5t-111.5 -40.5q-37 0 -73 17t-60 50.5t-24 83.5q0 46 21.5 81.5t58 56t81.5 20.5q40 0 76 -22t57 -59t17 -85l588 1273h-189v25h369zM741 1100l-277 88
q-48 10 -75 43t-30.5 74t17.5 73q18 28 56.5 41t80.5 1.5t71 -59.5l170 -244z" />
    <glyph glyph-name="uni2000" unicode="&#x2000;" horiz-adv-x="1000" 
 />
    <glyph glyph-name="uni2001" unicode="&#x2001;" horiz-adv-x="2000" 
 />
    <glyph glyph-name="uni2002" unicode="&#x2002;" horiz-adv-x="1000" 
 />
    <glyph glyph-name="uni2003" unicode="&#x2003;" horiz-adv-x="2000" 
 />
    <glyph glyph-name="uni2004" unicode="&#x2004;" horiz-adv-x="666" 
 />
    <glyph glyph-name="uni2005" unicode="&#x2005;" horiz-adv-x="500" 
 />
    <glyph glyph-name="uni2006" unicode="&#x2006;" horiz-adv-x="333" 
 />
    <glyph glyph-name="uni2007" unicode="&#x2007;" horiz-adv-x="1160" 
 />
    <glyph glyph-name="uni2008" unicode="&#x2008;" horiz-adv-x="399" 
 />
    <glyph glyph-name="uni2009" unicode="&#x2009;" horiz-adv-x="333" 
 />
    <glyph glyph-name="uni200A" unicode="&#x200a;" horiz-adv-x="200" 
 />
    <glyph glyph-name="uni200B" unicode="&#x200b;" 
 />
    <glyph glyph-name="uni2010" unicode="&#x2010;" horiz-adv-x="719" 
d="M120 538v24h480v-24h-480z" />
    <glyph glyph-name="uni2011" unicode="&#x2011;" horiz-adv-x="719" 
d="M120 538v24h480v-24h-480z" />
    <glyph glyph-name="figuredash" unicode="&#x2012;" horiz-adv-x="934" 
d="M120 538v24h695v-24h-695z" />
    <glyph glyph-name="endash" unicode="&#x2013;" horiz-adv-x="1081" 
d="M119 538v24h842v-24h-842z" />
    <glyph glyph-name="emdash" unicode="&#x2014;" horiz-adv-x="1569" 
d="M119 538v24h1330v-24h-1330z" />
    <glyph glyph-name="uni2015" unicode="&#x2015;" horiz-adv-x="1715" 
d="M120 538v24h1476v-24h-1476z" />
    <glyph glyph-name="quoteleft" unicode="&#x2018;" horiz-adv-x="549" 
d="M276 912q-54 0 -99 30t-73 87t-28 135q0 108 48.5 196.5t138 141t211.5 52.5v-26q-87 0 -160 -31.5t-123.5 -89t-72.5 -136.5t-7 -175h-8q-2 43 24 82.5t69 64.5t93 25q88 0 134.5 -52.5t46.5 -125.5q0 -48 -26 -88.5t-70.5 -65t-97.5 -24.5z" />
    <glyph glyph-name="quoteright" unicode="&#x2019;" horiz-adv-x="549" 
d="M76 898v26q87 0 160 31.5t123.5 89t72.5 136.5t7 175h8q2 -43 -24 -82.5t-69 -64.5t-93 -25q-86 0 -133.5 53.5t-47.5 124.5q0 48 26.5 89t70.5 65t97 24q54 0 100 -30.5t73 -87t27 -134.5q0 -108 -48.5 -196.5t-137.5 -141t-212 -52.5z" />
    <glyph glyph-name="quotesinglbase" unicode="&#x201a;" horiz-adv-x="677" 
d="M76 -306v26q87 0 160 31.5t123.5 89t72.5 136.5t7 175h8q2 -43 -24 -82.5t-69 -64.5t-93 -25q-86 0 -133.5 53.5t-47.5 124.5q0 48 26.5 89t70.5 65t97 24q54 0 100 -30.5t73 -87t27 -134.5q0 -108 -48.5 -196.5t-137.5 -141t-212 -52.5z" />
    <glyph glyph-name="quotedblleft" unicode="&#x201c;" horiz-adv-x="1049" 
d="M776 912q-54 0 -99.5 30t-73 87t-27.5 135q0 108 48.5 196.5t138 141t211.5 52.5v-26q-87 0 -160 -31.5t-123.5 -89t-72.5 -136.5t-7 -175h-8q-2 43 24 82.5t69 64.5t93 25q88 0 134.5 -52.5t46.5 -125.5q0 -48 -26 -88.5t-70.5 -65t-97.5 -24.5zM276 912q-54 0 -99 30
t-73 87t-28 135q0 108 48.5 196.5t138 141t211.5 52.5v-26q-87 0 -160 -31.5t-123.5 -89t-72.5 -136.5t-7 -175h-8q-2 43 24 82.5t69 64.5t93 25q88 0 134.5 -52.5t46.5 -125.5q0 -48 -26 -88.5t-70.5 -65t-97.5 -24.5z" />
    <glyph glyph-name="quotedblright" unicode="&#x201d;" horiz-adv-x="1049" 
d="M576 898v26q87 0 160 31.5t123.5 89t72.5 136.5t7 175h8q2 -43 -24 -82.5t-69 -64.5t-93 -25q-86 0 -133.5 53.5t-47.5 124.5q0 48 26.5 89t70.5 65t97 24q54 0 99.5 -30.5t73 -87t27.5 -134.5q0 -108 -48.5 -196.5t-137.5 -141t-212 -52.5zM76 898v26q87 0 160 31.5
t123.5 89t72.5 136.5t7 175h8q2 -43 -24 -82.5t-69 -64.5t-93 -25q-86 0 -133.5 53.5t-47.5 124.5q0 48 26.5 89t70.5 65t97 24q54 0 100 -30.5t73 -87t27 -134.5q0 -108 -48.5 -196.5t-137.5 -141t-212 -52.5z" />
    <glyph glyph-name="quotedblbase" unicode="&#x201e;" horiz-adv-x="1049" 
d="M576 -306v26q87 0 160 31.5t123.5 89t72.5 136.5t7 175h8q2 -43 -24 -82.5t-69 -64.5t-93 -25q-86 0 -133.5 53.5t-47.5 124.5q0 48 26.5 89t70.5 65t97 24q54 0 99.5 -30.5t73 -87t27.5 -134.5q0 -108 -48.5 -196.5t-137.5 -141t-212 -52.5zM76 -306v26q87 0 160 31.5
t123.5 89t72.5 136.5t7 175h8q2 -43 -24 -82.5t-69 -64.5t-93 -25q-86 0 -133.5 53.5t-47.5 124.5q0 48 26.5 89t70.5 65t97 24q54 0 100 -30.5t73 -87t27 -134.5q0 -108 -48.5 -196.5t-137.5 -141t-212 -52.5z" />
    <glyph glyph-name="dagger" unicode="&#x2020;" horiz-adv-x="1237" 
d="M606 -500q0 207 -10.5 368t-31 282.5t-49.5 207.5t-67 142h342q-37 -56 -67 -142t-50.5 -207.5t-31 -282.5t-10.5 -368h-25zM262 813q-73 0 -117.5 47t-44.5 113t44.5 113t117.5 47q9 0 17.5 -0.5t19.5 -1.5q50 -7 88.5 -30t73 -50t72 -46.5t86.5 -19.5v-24
q-49 0 -86.5 -20t-72 -47t-73 -49.5t-88.5 -29.5q-11 -1 -19.5 -1.5t-17.5 -0.5zM448 500q35 50 71.5 116.5t61.5 155t25 205.5h25q0 -117 25 -205.5t62 -155t72 -116.5h-342zM975 813q-9 0 -17 0.5t-19 1.5q-51 7 -89 29.5t-72.5 49.5t-72 47t-86.5 20v24q49 0 86.5 19.5
t72 46.5t72.5 50t89 30q11 1 19 1.5t17 0.5q74 0 118 -47t44 -113t-44 -113t-118 -47zM606 977q0 68 -19.5 111.5t-46.5 77.5t-49.5 69.5t-29.5 86.5q-1 11 -1.5 19t-0.5 17q0 74 47 118t113 44t113 -44t47 -118q0 -9 -0.5 -17t-1.5 -19q-7 -51 -30 -86.5t-50 -69.5
t-46.5 -77.5t-19.5 -111.5h-25z" />
    <glyph glyph-name="daggerdbl" unicode="&#x2021;" horiz-adv-x="1237" 
d="M619 -520q-66 0 -113 44.5t-47 117.5q0 9 0.5 18t1.5 19q6 49 28.5 84t48.5 67.5t46 75.5t22 108q-46 -2 -82 -22t-69 -46t-70 -48t-86 -28q-10 -1 -19 -1.5t-18 -0.5q-73 0 -117.5 47t-44.5 113t44.5 113t117.5 47h18t19 -2q49 -7 86 -29t70.5 -48.5t69 -46.5t81.5 -22
q-1 113 -26.5 198t-61.5 149t-70 113q34 49 70 113t61.5 149.5t26.5 197.5q-46 -2 -81.5 -22t-69 -46.5t-70.5 -48.5t-86 -28q-10 -1 -19 -1.5t-18 -0.5q-73 0 -117.5 47t-44.5 113t44.5 113t117.5 47h18t19 -2q49 -7 86 -29t70 -48t69 -46t82 -22q-2 65 -22 107.5t-46 75.5
t-48.5 68t-28.5 85q-1 11 -1.5 19t-0.5 17q0 74 47 118t113 44t113 -44t47 -118v-17t-2 -19q-7 -50 -29.5 -85t-48.5 -67.5t-46 -75.5t-22 -108q46 2 82 22t69 46t70 48t87 29q11 2 19 2h17q74 0 118 -47t44 -113t-44 -113t-118 -47q-9 0 -17 0.5t-19 1.5q-50 6 -87 28
t-70.5 48.5t-69 46.5t-81.5 22q1 -112 26.5 -197.5t61.5 -149.5t71 -113q-35 -49 -71 -113t-61.5 -149t-26.5 -198q46 2 81.5 22t69 46.5t70.5 48.5t87 29q11 2 19 2h17q74 0 118 -47t44 -113t-44 -113t-118 -47q-9 0 -17 0.5t-19 1.5q-50 6 -87 28t-70 48t-69 46t-82 22
q2 -65 22 -107.5t46 -75.5t48.5 -68t29.5 -84q2 -10 2 -19v-18q0 -73 -47 -117.5t-113 -44.5z" />
    <glyph glyph-name="bullet" unicode="&#x2022;" horiz-adv-x="399" 
d="M260 610q-50 0 -90.5 24.5t-65 65.5t-24.5 90t24.5 90.5t65 66t90.5 24.5q49 0 90.5 -24.5t65.5 -66t24 -90.5t-24 -90t-65.5 -65.5t-90.5 -24.5z" />
    <glyph glyph-name="ellipsis" unicode="&#x2026;" horiz-adv-x="1559" 
d="M1300 -20q-50 0 -90.5 24.5t-65 65.5t-24.5 90t24.5 90.5t65 66t90.5 24.5q49 0 90.5 -24.5t65.5 -66t24 -90.5t-24 -90t-65.5 -65.5t-90.5 -24.5zM780 -20q-50 0 -90.5 24.5t-65 65.5t-24.5 90t24.5 90.5t65 66t90.5 24.5q49 0 90.5 -24.5t65.5 -66t24 -90.5t-24 -90
t-65.5 -65.5t-90.5 -24.5zM260 -20q-50 0 -90.5 24.5t-65 65.5t-24.5 90t24.5 90.5t65 66t90.5 24.5q49 0 90.5 -24.5t65.5 -66t24 -90.5t-24 -90t-65.5 -65.5t-90.5 -24.5z" />
    <glyph glyph-name="perthousand" unicode="&#x2030;" horiz-adv-x="3019" 
d="M487 0l1042 1500h24l-1042 -1500h-24zM510 640q-85 0 -163.5 28.5t-141 84.5t-99 138t-36.5 189t36.5 189t99 138t141 84.5t163.5 28.5t164 -28.5t141 -84.5t98.5 -138t36.5 -189t-41.5 -189t-108.5 -138t-143.5 -84.5t-146.5 -28.5zM510 660q37 0 62 28t40 81.5
t21.5 132t6.5 178.5q0 101 -6.5 179t-21.5 131.5t-40 81.5t-62 28q-36 0 -61 -28t-40.5 -81.5t-22 -131.5t-6.5 -179q0 -100 6.5 -178.5t22 -132t40.5 -81.5t61 -28zM1529 -20q-84 0 -163 28.5t-141 84.5t-98.5 138t-36.5 189t36.5 189t98.5 138t141 84.5t163 28.5
q85 0 164 -28.5t141.5 -84.5t99 -138t36.5 -189t-42 -189t-108.5 -138t-143.5 -84.5t-147 -28.5zM1529 0q37 0 62 28t40.5 81.5t22 132t6.5 178.5q0 101 -6.5 179t-22 131.5t-40.5 81.5t-62 28q-36 0 -61 -28t-40 -81.5t-21.5 -131.5t-6.5 -179q0 -100 6.5 -178.5t21.5 -132
t40 -81.5t61 -28zM2510 -20q-85 0 -164 28.5t-141 84.5t-98.5 138t-36.5 189t36.5 189t98.5 138t141 84.5t164 28.5t164 -28.5t141 -84.5t98.5 -138t36.5 -189t-41.5 -189t-108.5 -138t-143.5 -84.5t-146.5 -28.5zM2510 0q37 0 62 28t40 81.5t21.5 132t6.5 178.5
q0 101 -6.5 179t-21.5 131.5t-40 81.5t-62 28q-36 0 -61 -28t-40.5 -81.5t-22 -131.5t-6.5 -179q0 -100 6.5 -178.5t22 -132t40.5 -81.5t61 -28z" />
    <glyph glyph-name="uni2031" unicode="&#x2031;" horiz-adv-x="3018" 
d="M487 0l1042 1500h24l-1042 -1500h-24zM510 640q-85 0 -163.5 28.5t-141 84.5t-99 138t-36.5 189t36.5 189t99 138t141 84.5t163.5 28.5t164 -28.5t141 -84.5t98.5 -138t36.5 -189t-41.5 -189t-108.5 -138t-143.5 -84.5t-146.5 -28.5zM510 660q37 0 62 28t40 81.5
t21.5 132t6.5 178.5q0 101 -6.5 179t-21.5 131.5t-40 81.5t-62 28q-36 0 -61 -28t-40.5 -81.5t-22 -131.5t-6.5 -179q0 -100 6.5 -178.5t22 -132t40.5 -81.5t61 -28zM1529 -20q-84 0 -163 28.5t-141 84.5t-98.5 138t-36.5 189t36.5 189t98.5 138t141 84.5t163 28.5
q85 0 164 -28.5t141.5 -84.5t99 -138t36.5 -189t-42 -189t-108.5 -138t-143.5 -84.5t-147 -28.5zM1529 0q37 0 62 28t40.5 81.5t22 132t6.5 178.5q0 101 -6.5 179t-22 131.5t-40.5 81.5t-62 28q-36 0 -61 -28t-40 -81.5t-21.5 -131.5t-6.5 -179q0 -100 6.5 -178.5t21.5 -132
t40 -81.5t61 -28zM2510 -20q-85 0 -164 28.5t-141 84.5t-98.5 138t-36.5 189t36.5 189t98.5 138t141 84.5t164 28.5t164 -28.5t141 -84.5t98.5 -138t36.5 -189t-41.5 -189t-108.5 -138t-143.5 -84.5t-146.5 -28.5zM2510 0q37 0 62 28t40 81.5t21.5 132t6.5 178.5
q0 101 -6.5 179t-21.5 131.5t-40 81.5t-62 28q-36 0 -61 -28t-40.5 -81.5t-22 -131.5t-6.5 -179q0 -100 6.5 -178.5t22 -132t40.5 -81.5t61 -28z" />
    <glyph glyph-name="guilsinglleft" unicode="&#x2039;" horiz-adv-x="889" 
d="M770 290l-720 467v36l720 467l12 -12l-380 -472l380 -474z" />
    <glyph glyph-name="guilsinglright" unicode="&#x203a;" horiz-adv-x="889" 
d="M118 290l-12 12l374 472l-374 474l12 12l720 -467v-36z" />
    <glyph glyph-name="uni203D" unicode="&#x203d;" horiz-adv-x="1319" 
d="M668 670v21q64 5 120 42.5t99 98t67 135t24 153.5q0 107 -41.5 189.5t-119.5 130.5t-187 48q-85 0 -162 -25.5t-138 -69.5t-101 -101t-53 -119q10 35 42.5 56t65.5 21q43 0 77.5 -21t55.5 -56t21 -78q0 -47 -22.5 -82.5t-58 -55t-73.5 -19.5q-64 0 -108.5 48.5
t-44.5 120.5q0 73 36 146t106 133.5t172 97t232 36.5q113 0 215 -27t180.5 -80t123.5 -131t45 -182q0 -81 -35.5 -148t-95 -119.5t-134.5 -88.5t-154.5 -55t-153.5 -19zM638 -20q-49 0 -90 24.5t-65.5 65.5t-24.5 90q0 50 24.5 91t65.5 65.5t90 24.5q50 0 91 -24.5t65 -65.5
t24 -91q0 -49 -24 -90t-65 -65.5t-91 -24.5zM621 486q0 71 -22 163t-47 193t-36 196q-1 11 -1.5 20t-0.5 18q0 39 18 73t51.5 55.5t80.5 21.5t80.5 -21.5t51.5 -55.5t18 -73v-18t-2 -20q-8 -72 -31 -147t-48.5 -148t-44.5 -138.5t-19 -118.5h-48z" />
    <glyph glyph-name="uni203E" unicode="&#x203e;" horiz-adv-x="719" 
d="M-10 1566v25h740v-25h-740z" />
    <glyph glyph-name="fraction" unicode="&#x2044;" horiz-adv-x="1072" 
d="M80 -300l865 1861h25l-865 -1861h-25z" />
    <glyph glyph-name="uni2074" unicode="&#x2074;" horiz-adv-x="821" 
d="M329 919v15h114v789l-369 -539h687v-14h-715l445 649h138v-885h90v-15h-390z" />
    <glyph glyph-name="Euro" unicode="&#x20ac;" horiz-adv-x="1416" 
d="M862 -20q-130 0 -246.5 55t-206.5 157.5t-141.5 244t-51.5 313.5q0 158 48.5 297t140 245.5t220.5 167t289 60.5q92 0 172 -26.5t141 -71.5t95.5 -99.5t34.5 -110.5t-25 -95t-62.5 -59.5t-78.5 -20.5q-40 0 -77.5 20.5t-61.5 57t-24 86.5q0 45 22 81t59.5 57t81.5 21
q36 0 74 -22.5t64 -56.5t26 -69h-24q0 54 -32.5 104t-87 89.5t-123 62.5t-139.5 23q-108 0 -180 -65.5t-114.5 -174.5t-60.5 -239.5t-18 -261.5q0 -146 17 -277.5t56.5 -233t105 -160.5t162.5 -59q93 0 172 46t135.5 122t81.5 167h27q-26 -96 -89 -182t-159.5 -139.5
t-222.5 -53.5zM55 768v24h880v-24h-880zM55 467v24h880v-24h-880z" />
    <glyph glyph-name="uni2116" unicode="&#x2116;" horiz-adv-x="2302" 
d="M1742 1141q0 170 32.5 261t105.5 91q74 0 106 -91t32 -261q0 -172 -32 -263t-106 -91q-73 0 -105.5 91t-32.5 263zM1512 1140q0 -125 47.5 -209.5t130.5 -127.5t189 -43q107 0 190 43t131 127.5t48 209.5t-48 209.5t-131 127.5t-190 43q-106 0 -189 -43t-130.5 -127.5
t-47.5 -209.5zM1640 618v24h480v-24h-480zM269 1500v-1475h231v-25h-459v25h202v1450h-202v25h228zM1497 1500v-25h-211v-1495h-33l-1002 1520h369l641 -990v965h-228v25h464z" />
    <glyph glyph-name="trademark" unicode="&#x2122;" horiz-adv-x="1297" 
d="M863 968l-195 534v-518h55v-9h-116v9h52v523h-56v8h172l145 -387l135 387h169v-8h-50v-523h50v-9h-220v9h58v522l-188 -538h-11zM176 975v9h80v523h-45q-58 0 -87 -48t-37 -117h-10v173h469v-173h-9q-8 69 -37.5 117t-87.5 48h-45v-523h80v-9h-271z" />
    <glyph glyph-name="partialdiff" unicode="&#x2202;" horiz-adv-x="1219" 
d="M581 -20q-113 0 -208.5 38.5t-166 109t-109.5 165.5t-39 207q0 128 45.5 219t118 148.5t156 85t159.5 27.5q79 0 132 -29.5t84 -83.5t44.5 -126.5t13.5 -159.5h-22q0 166 -51.5 260t-146.5 94q-69 0 -113.5 -53t-66 -150.5t-21.5 -231.5q0 -86 7 -173.5t26.5 -160
t56 -117t95.5 -44.5q63 0 104.5 51.5t65.5 136t34 186.5t10 202l-11 319q0 55 -3.5 131.5t-17 157t-42.5 150.5t-79 113t-127 43l20 25q115 0 220.5 -50.5t189 -148.5t132 -241.5t48.5 -329.5q0 -166 -35.5 -307t-104.5 -244.5t-169.5 -161t-228.5 -57.5zM347 1146
q-57 0 -98 37.5t-41 102.5q0 70 46.5 123t120 82.5t154.5 28.5l-20 -25q-59 0 -122 -23.5t-105.5 -70t-42.5 -115.5h-29q0 63 43 101.5t94 38.5q54 0 99 -36.5t45 -99.5q0 -71 -45.5 -107.5t-98.5 -36.5z" />
    <glyph glyph-name="emptyset" unicode="&#x2205;" horiz-adv-x="1140" 
d="M94 275l-19 19l971 971l19 -19zM571 310q-141 0 -244 63t-159 167.5t-56 229.5t56 229.5t159 167t244 62.5t243.5 -62.5t158 -167t55.5 -229.5t-55.5 -229.5t-158 -167.5t-243.5 -63zM571 338q134 0 229.5 60t146.5 158t51 214t-51 214t-146.5 157.5t-229.5 59.5
t-230 -59.5t-147.5 -157.5t-51.5 -214t51.5 -214t147.5 -158t230 -60z" />
    <glyph glyph-name="product" unicode="&#x220f;" horiz-adv-x="1634" 
d="M1088 0v1500h310v-1500h-310zM57 0v25h670v-25h-670zM238 0v1500h310v-1500h-310zM908 0v25h669v-25h-669zM57 1475v25h1520v-25h-1520z" />
    <glyph glyph-name="summation" unicode="&#x2211;" horiz-adv-x="1350" 
d="M56 0l561 640l-531 835v25h1129v-410h-25q-13 107 -69 194.5t-146.5 139t-207.5 51.5h-331l404 -647l-730 -803h631q137 0 237 53.5t159.5 149t71.5 222.5h25v-450h-1178z" />
    <glyph glyph-name="minus" unicode="&#x2212;" horiz-adv-x="934" 
d="M120 758v24h695v-24h-695z" />
    <glyph glyph-name="uni2215" unicode="&#x2215;" horiz-adv-x="1072" 
d="M80 -300l865 1861h25l-865 -1861h-25z" />
    <glyph glyph-name="uni2219" unicode="&#x2219;" horiz-adv-x="483" 
d="M260 610q-50 0 -90.5 24.5t-65 65.5t-24.5 90t24.5 90.5t65 66t90.5 24.5q49 0 90.5 -24.5t65.5 -66t24 -90.5t-24 -90t-65.5 -65.5t-90.5 -24.5z" />
    <glyph glyph-name="radical" unicode="&#x221a;" horiz-adv-x="1160" 
d="M539 -20l-308 509l-110 -61l-10 22l314 178l217 -372l297 1244h221v-25h-201l-356 -1495h-64z" />
    <glyph glyph-name="infinity" unicode="&#x221e;" horiz-adv-x="1914" 
d="M1420 330q139 0 234 50.5t142.5 136.5t47.5 192h-267q0 -44 -7 -103t-26.5 -114t-57.5 -91.5t-100 -36.5q-65 0 -123.5 34t-110 87t-96.5 113t-83 111q-68 91 -136 178t-150.5 144t-193.5 57q-139 0 -233.5 -50.5t-142 -136.5t-47.5 -192h266q0 44 7 102.5t26.5 113.5
t57 91.5t100.5 36.5q65 0 123.5 -33.5t109.5 -86.5t96 -112.5t84 -111.5q67 -90 136.5 -177t152.5 -144.5t191 -57.5zM493 330q111 0 194 57.5t151 144.5t135 177q38 52 83 111.5t96.5 112.5t110 86.5t123.5 33.5q62 0 100 -36.5t57.5 -91.5t26.5 -113.5t7 -102.5h267
q0 106 -47.5 192t-142.5 136.5t-234 50.5q-111 0 -193.5 -57t-150.5 -144t-136 -178q-38 -51 -83 -111t-96.5 -113t-110 -87t-123.5 -34q-63 0 -100.5 36.5t-57 91.5t-26.5 114t-7 103h-266q0 -109 47.5 -195t142 -135t233.5 -49z" />
    <glyph glyph-name="integral" unicode="&#x222b;" horiz-adv-x="850" 
d="M1059 1301h24q0 35 -27.5 62.5t-66 43t-71.5 15.5q-37 0 -73 -14.5t-60.5 -46t-24.5 -78.5q0 -53 26 -87t64 -51.5t75 -17.5q65 0 112.5 47t47.5 127q0 55 -35 105t-100 82t-154 32q-153 0 -273.5 -66t-191.5 -178.5t-75 -252.5l-31 -1103q-3 -123 -32.5 -216.5t-78 -146
t-110.5 -52.5q-59 0 -111 15.5t-91.5 43.5t-62 64t-22.5 78h-23q0 -37 26 -66t64 -45.5t72 -16.5q39 0 75 15t59.5 46t23.5 78q0 53 -24.5 87t-62 51.5t-75.5 17.5q-43 0 -79.5 -20.5t-58.5 -58t-22 -88.5q0 -58 39.5 -110t109 -84t158.5 -32q153 0 266 67t176.5 179.5
t68.5 250.5l40 1103q5 123 35.5 216.5t85 146t130.5 52.5q53 0 100 -16t82.5 -43.5t55.5 -62t20 -72.5z" />
    <glyph glyph-name="approxequal" unicode="&#x2248;" horiz-adv-x="1200" 
d="M798 884q-81 0 -131.5 39t-89.5 90q-23 30 -49 55.5t-62.5 41.5t-92.5 16q-72 0 -125.5 -33.5t-77.5 -89t-6 -121.5h-28q-20 70 8.5 132t89.5 101t139 39q66 0 108 -19.5t70 -49t52 -59.5q38 -51 81.5 -82.5t110.5 -31.5q66 0 115 32t70.5 87t3.5 125h28
q18 -75 -8 -136.5t-81.5 -98.5t-124.5 -37zM798 384q-81 0 -131.5 39t-89.5 90q-23 30 -49 55.5t-62.5 41.5t-92.5 16q-72 0 -125.5 -33.5t-77.5 -89t-6 -121.5h-28q-20 70 8.5 132t89.5 101t139 39q66 0 108 -19.5t70 -49t52 -59.5q38 -51 81.5 -82.5t110.5 -31.5
q66 0 115 32t70.5 87t3.5 125h28q18 -75 -8 -136.5t-81.5 -98.5t-124.5 -37z" />
    <glyph glyph-name="notequal" unicode="&#x2260;" horiz-adv-x="1119" 
d="M249 299l-20 14l643 917l19 -14zM120 608v24h880v-24h-880zM120 909v24h880v-24h-880z" />
    <glyph glyph-name="lessequal" unicode="&#x2264;" horiz-adv-x="1119" 
d="M120 765v27l880 416v-27zM120 68v24h880v-24h-880zM1000 343l-880 415v27l880 -416v-26z" />
    <glyph glyph-name="greaterequal" unicode="&#x2265;" horiz-adv-x="1119" 
d="M120 1181v26l880 -415v-34l-880 -416v27l859 406zM1000 68h-880v24h880v-24z" />
    <glyph glyph-name="lozenge" unicode="&#x25ca;" horiz-adv-x="1200" 
d="M612 30l-412 682l412 680l388 -680zM612 86l357 626l-357 624l-379 -624z" />
    <glyph glyph-name="uni2761" unicode="&#x2761;" horiz-adv-x="1322" 
d="M475 -94q-112 0 -191 48.5t-120 120.5t-41 142q0 111 54.5 163t123.5 52q62 0 109.5 -43.5t47.5 -121.5q0 -61 -48.5 -99.5t-108.5 -38.5q-52 0 -93 21.5t-56 45.5q7 -63 47 -124t110.5 -101t165.5 -40q128 0 214 72.5t129 191t43 256.5v1149h25v-1143q0 -145 -45 -271
t-136 -203t-230 -77zM686 619q-271 0 -413 98t-142 293t142 293.5t413 98.5h488v-25h-459q-50 0 -94.5 -42.5t-72 -124.5t-27.5 -200t27.5 -199.5t72 -124t94.5 -42.5h165v-25h-194z" />
    <glyph glyph-name="uniF8E8" unicode="&#xf8e8;" horiz-adv-x="1143" 
d="M569 668q-127 0 -232 62.5t-167.5 167t-62.5 232.5t62.5 232.5t167.5 167t232 62.5q128 0 233 -62.5t167.5 -167t62.5 -232.5t-62.5 -232.5t-167.5 -167t-233 -62.5zM327 858v8h255v-8h-255zM399 858v540h111v-540h-111zM755 852q-59 0 -79.5 28t-23 69.5t-3 82.5t-18 69
t-70.5 28h-105v5h162q71 0 101.5 -27t38.5 -67t7 -80t3.5 -67t30.5 -27q11 0 21.5 2.5t17.5 6.5l3 -9q-8 -4 -31 -9t-55 -5zM569 683q124 0 225 60.5t161.5 162t60.5 224.5t-60.5 224.5t-161.5 162t-225 60.5q-123 0 -224.5 -60.5t-162 -162t-60.5 -224.5t60.5 -224.5
t162 -162t224.5 -60.5zM456 1132v6h105q52 0 78 30.5t26 94.5t-26 95t-78 31h-234v9h252q89 0 145 -32t56 -103q0 -70 -53 -100.5t-148 -30.5h-123z" />
    <glyph glyph-name="uniF8E9" unicode="&#xf8e9;" horiz-adv-x="1124" 
d="M560 1592q128 0 233 -62t167.5 -167t62.5 -233t-62.5 -233t-167.5 -167t-233 -62t-233 62t-167 167t-62 233t62 233t167 167t233 62zM561 683q123 0 224.5 60.5t162 162t60.5 224.5t-60.5 224.5t-162 162t-224.5 60.5q-124 0 -225.5 -60.5t-162 -162t-60.5 -224.5
t60.5 -224.5t162 -162t225.5 -60.5zM575 864q48 0 82 21t56 56t34 78h10v-159h-8l-57 40q-49 -47 -124 -47q-121 0 -190.5 78.5t-69.5 198.5t69.5 198.5t190.5 78.5q65 0 112 -43l61 36h8v-159h-9q-20 68 -63 111.5t-102 43.5q-54 0 -85 -39t-43.5 -100t-12.5 -127
q0 -65 12.5 -126.5t43.5 -100.5t85 -39z" />
    <glyph glyph-name="i.loclTRK" horiz-adv-x="647" 
d="M469 920v-895h133v-25h-546v25h133v870h-133v25h413zM332 1178q-72 0 -121 49.5t-49 121.5t49 121t121 49t121 -49t49 -121t-49 -121.5t-121 -49.5z" />
    <glyph glyph-name="longs_t" horiz-adv-x="1421" 
d="M1093 -14q-95 0 -146.5 31.5t-71.5 85.5t-20 120v857q0 127 -17 220t-58.5 144t-114.5 51q-72 0 -113 -51t-58 -144t-17 -220v-1080h-270v1023q0 131 49 244.5t151 183t259 69.5q158 0 262 -69.5t156 -183t52 -244.5l-1 -847q0 -75 20 -101t61 -26q27 0 59.5 19
t62.5 53.5t50 81.5l22 -10q-38 -92 -118 -149.5t-199 -57.5zM41 0v25h651v-25h-651zM733 895v25h616v-25h-616z" />
    <glyph glyph-name="a.sc" horiz-adv-x="1217" 
d="M98 0l462 1040h115l450 -1040h-360l-316 729l-323 -729h-28zM0 0v25h314v-25h-314zM252 299v24h607v-24h-607zM585 0v25h632v-25h-632z" />
    <glyph glyph-name="aacute.sc" horiz-adv-x="1217" 
d="M98 0l462 1040h115l450 -1040h-360l-316 729l-323 -729h-28zM0 0v25h314v-25h-314zM252 299v24h607v-24h-607zM585 0v25h632v-25h-632zM513 1191l-13 17l170 244q29 48 71 59.5t80.5 -1.5t57.5 -41q21 -32 17 -73t-31 -74t-75 -43z" />
    <glyph glyph-name="abreve.sc" horiz-adv-x="1217" 
d="M98 0l462 1040h115l450 -1040h-360l-316 729l-323 -729h-28zM0 0v25h314v-25h-314zM252 299v24h607v-24h-607zM585 0v25h632v-25h-632zM604 1191q-85 0 -138 39.5t-77.5 111t-24.5 167.5h20q0 -46 32.5 -74.5t83 -41t104.5 -12.5t104.5 12.5t83 41t32.5 74.5h20
q0 -96 -24.5 -167.5t-77.5 -111t-138 -39.5z" />
    <glyph glyph-name="acircumflex.sc" horiz-adv-x="1217" 
d="M98 0l462 1040h115l450 -1040h-360l-316 729l-323 -729h-28zM0 0v25h314v-25h-314zM252 299v24h607v-24h-607zM585 0v25h632v-25h-632zM292 1215l-12 13l240 270h170l240 -270l-13 -13l-313 143z" />
    <glyph glyph-name="adieresis.sc" horiz-adv-x="1217" 
d="M98 0l462 1040h115l450 -1040h-360l-316 729l-323 -729h-28zM0 0v25h314v-25h-314zM252 299v24h607v-24h-607zM585 0v25h632v-25h-632zM791 1196q-47 0 -81 34t-34 81q0 48 34 82t81 34q48 0 82 -34t34 -82q0 -47 -34 -81t-82 -34zM417 1196q-47 0 -81 34t-34 81
q0 48 34 82t81 34q48 0 82 -34t34 -82q0 -47 -34 -81t-82 -34z" />
    <glyph glyph-name="agrave.sc" horiz-adv-x="1217" 
d="M98 0l462 1040h115l450 -1040h-360l-316 729l-323 -729h-28zM0 0v25h314v-25h-314zM252 299v24h607v-24h-607zM585 0v25h632v-25h-632zM693 1191l-277 88q-48 10 -75 43t-30.5 74t17.5 73q18 28 56.5 41t80.5 1.5t71 -59.5l170 -244z" />
    <glyph glyph-name="aogonek.sc" horiz-adv-x="1217" 
d="M98 0l462 1040h115l450 -1040h-360l-316 729l-323 -729h-28zM0 0v25h314v-25h-314zM252 299v24h607v-24h-607zM585 0v25h632v-25h-632zM881 -446q-66 0 -121.5 18t-90 56t-34.5 98t32 109.5t84.5 88.5t113 67t117.5 45l8 -16q-21 -12 -41.5 -45t-34 -83.5t-13.5 -113.5
q0 -77 28 -119.5t71 -42.5q41 0 66 27t47 67l18 -11q-15 -28 -40 -62t-74.5 -58.5t-135.5 -24.5z" />
    <glyph glyph-name="aring.sc" horiz-adv-x="1217" 
d="M98 0l462 1040h115l450 -1040h-360l-316 729l-323 -729h-28zM0 0v25h314v-25h-314zM252 299v24h607v-24h-607zM585 0v25h632v-25h-632zM604 1191q-91 0 -145.5 52t-54.5 128q0 77 54.5 128.5t145.5 51.5q92 0 146 -51.5t54 -128.5q0 -76 -54 -128t-146 -52zM604 1216
q29 0 46.5 19t25 53.5t7.5 82.5t-7.5 82.5t-25 53.5t-46.5 19t-46.5 -19t-25 -53.5t-7.5 -82.5t7.5 -82.5t25 -53.5t46.5 -19z" />
    <glyph glyph-name="atilde.sc" horiz-adv-x="1217" 
d="M98 0l462 1040h115l450 -1040h-360l-316 729l-323 -729h-28zM0 0v25h314v-25h-314zM252 299v24h607v-24h-607zM585 0v25h632v-25h-632zM769 1171q-59 0 -105.5 24t-86.5 55t-82.5 55t-94.5 24t-86 -31t-34 -87h-25q0 85 23.5 151.5t69 104.5t109.5 38q62 0 107 -24
t82.5 -55t75 -55t84.5 -24q57 0 88.5 31.5t31.5 86.5h25q0 -95 -14.5 -160.5t-54 -99.5t-113.5 -34z" />
    <glyph glyph-name="ae.sc" horiz-adv-x="1781" 
d="M123 0l711 1020h33l-712 -1020h-32zM0 0v25h353v-25h-353zM374 329l7 25h597v-25h-604zM718 0v25h605q87 0 155 33.5t112 105.5t56 186h25v-350h-953zM849 0v1020h310v-1020h-310zM1395 377q-8 52 -41 87t-75 52t-76 17h-110v25h110q34 0 76 15.5t75 48t41 84.5h25v-329
h-25zM1637 710q-13 95 -54.5 158t-101.5 95t-127 32h-421v25h729v-310h-25z" />
    <glyph glyph-name="b.sc" horiz-adv-x="1297" 
d="M85 0v25h597q61 0 102 36.5t61.5 98t20.5 137.5q0 112 -46.5 174t-137.5 62h-191v16h261q133 0 236 -22t161 -78.5t58 -161.5t-50 -168t-151 -91t-254 -28h-667zM232 0v1030h310v-1030h-310zM491 541v17h155q81 0 131 57.5t50 167.5q0 115 -50 168.5t-131 53.5h-561v25
h612q219 0 334.5 -52.5t115.5 -179.5q0 -131 -108 -194t-342 -63h-206z" />
    <glyph glyph-name="c.sc" horiz-adv-x="1163" 
d="M634 -20q-97 0 -192 27.5t-172.5 89.5t-123.5 163.5t-46 249.5t46.5 249.5t122.5 163.5t165 89.5t172 27.5q81 0 147 -30.5t114 -80.5l114 91h23v-345h-26q-16 55 -45.5 111.5t-69 104t-87.5 76t-102 28.5q-84 0 -138 -56t-80.5 -164t-26.5 -265q0 -156 28 -265
t84.5 -165.5t142.5 -56.5q52 0 100 30.5t89 79t71 105t45 107.5h25v-345h-22l-107 98q-49 -51 -114 -84.5t-137 -33.5z" />
    <glyph glyph-name="cacute.sc" horiz-adv-x="1163" 
d="M634 -20q-97 0 -192 27.5t-172.5 89.5t-123.5 163.5t-46 249.5t46.5 249.5t122.5 163.5t165 89.5t172 27.5q81 0 147 -30.5t114 -80.5l114 91h23v-345h-26q-16 55 -45.5 111.5t-69 104t-87.5 76t-102 28.5q-84 0 -138 -56t-80.5 -164t-26.5 -265q0 -156 28 -265
t84.5 -165.5t142.5 -56.5q52 0 100 30.5t89 79t71 105t45 107.5h25v-345h-22l-107 98q-49 -51 -114 -84.5t-137 -33.5zM552 1200l-13 17l170 244q29 48 71 59.5t80.5 -1.5t57.5 -41q21 -32 17 -73t-31 -74t-75 -43z" />
    <glyph glyph-name="ccaron.sc" horiz-adv-x="1163" 
d="M634 -20q-97 0 -192 27.5t-172.5 89.5t-123.5 163.5t-46 249.5t46.5 249.5t122.5 163.5t165 89.5t172 27.5q81 0 147 -30.5t114 -80.5l114 91h23v-345h-26q-16 55 -45.5 111.5t-69 104t-87.5 76t-102 28.5q-84 0 -138 -56t-80.5 -164t-26.5 -265q0 -156 28 -265
t84.5 -165.5t142.5 -56.5q52 0 100 30.5t89 79t71 105t45 107.5h25v-345h-22l-107 98q-49 -51 -114 -84.5t-137 -33.5zM560 1220l-240 270l13 12l312 -142l312 142l13 -12l-240 -270h-170z" />
    <glyph glyph-name="ccedilla.sc" horiz-adv-x="1163" 
d="M634 -20q-97 0 -192 27.5t-172.5 89.5t-123.5 163.5t-46 249.5t46.5 249.5t122.5 163.5t165 89.5t172 27.5q81 0 147 -30.5t114 -80.5l114 91h23v-345h-26q-16 55 -45.5 111.5t-69 104t-87.5 76t-102 28.5q-84 0 -138 -56t-80.5 -164t-26.5 -265q0 -156 28 -265
t84.5 -165.5t142.5 -56.5q52 0 100 30.5t89 79t71 105t45 107.5h25v-345h-22l-107 98q-49 -51 -114 -84.5t-137 -33.5zM457 -501v24q88 0 132 35t44 90q0 51 -26 77t-68.5 34.5t-92.5 8.5l172 232h32l-113 -152q94 -3 165.5 -20t112 -51.5t40.5 -90.5q0 -50 -37 -93
t-124 -68.5t-237 -25.5z" />
    <glyph glyph-name="d.sc" horiz-adv-x="1351" 
d="M85 0v25h566q89 0 144.5 57t81 165.5t25.5 262.5q0 152 -28 260.5t-83.5 166.5t-139.5 58h-566v25h566q193 0 324.5 -53t198.5 -166t67 -291q0 -180 -73 -292.5t-206 -165t-311 -52.5h-566zM232 0v1020h310v-1020h-310z" />
    <glyph glyph-name="eth.sc" horiz-adv-x="1351" 
d="M100 538v24h604v-24h-604zM85 0v25h566q89 0 144.5 57t81 165.5t25.5 262.5q0 152 -28 260.5t-83.5 166.5t-139.5 58h-566v25h566q193 0 324.5 -53t198.5 -166t67 -291q0 -180 -73 -292.5t-206 -165t-311 -52.5h-566zM232 0v1020h310v-1020h-310z" />
    <glyph glyph-name="dcaron.sc" horiz-adv-x="1351" 
d="M85 0v25h566q89 0 144.5 57t81 165.5t25.5 262.5q0 152 -28 260.5t-83.5 166.5t-139.5 58h-566v25h566q193 0 324.5 -53t198.5 -166t67 -291q0 -180 -73 -292.5t-206 -165t-311 -52.5h-566zM232 0v1020h310v-1020h-310zM548 1220l-240 270l13 12l312 -142l312 142l13 -12
l-240 -270h-170z" />
    <glyph glyph-name="dcroat.sc" horiz-adv-x="1351" 
d="M100 538v24h604v-24h-604zM85 0v25h566q89 0 144.5 57t81 165.5t25.5 262.5q0 152 -28 260.5t-83.5 166.5t-139.5 58h-566v25h566q193 0 324.5 -53t198.5 -166t67 -291q0 -180 -73 -292.5t-206 -165t-311 -52.5h-566zM232 0v1020h310v-1020h-310z" />
    <glyph glyph-name="e.sc" horiz-adv-x="1148" 
d="M762 377q-10 52 -43 86.5t-73.5 52t-75.5 17.5h-110v25h110q35 0 75.5 15t73.5 48t43 85h25v-329h-25zM1013 350h25v-350h-953v25h131v970h-131v25h944v-310h-25q-13 95 -55 158t-101.5 95t-126.5 32h-195v-970h164q87 0 155.5 33.5t112 105.5t55.5 186z" />
    <glyph glyph-name="eacute.sc" horiz-adv-x="1148" 
d="M762 377q-10 52 -43 86.5t-73.5 52t-75.5 17.5h-110v25h110q35 0 75.5 15t73.5 48t43 85h25v-329h-25zM1013 350h25v-350h-953v25h131v970h-131v25h944v-310h-25q-13 95 -55 158t-101.5 95t-126.5 32h-195v-970h164q87 0 155.5 33.5t112 105.5t55.5 186zM534 1200l-13 17
l170 244q29 48 71 59.5t80.5 -1.5t57.5 -41q21 -32 17 -73t-31 -74t-75 -43z" />
    <glyph glyph-name="ecaron.sc" horiz-adv-x="1148" 
d="M762 377q-10 52 -43 86.5t-73.5 52t-75.5 17.5h-110v25h110q35 0 75.5 15t73.5 48t43 85h25v-329h-25zM1013 350h25v-350h-953v25h131v970h-131v25h944v-310h-25q-13 95 -55 158t-101.5 95t-126.5 32h-195v-970h164q87 0 155.5 33.5t112 105.5t55.5 186zM542 1220
l-240 270l13 12l312 -142l312 142l13 -12l-240 -270h-170z" />
    <glyph glyph-name="ecircumflex.sc" horiz-adv-x="1148" 
d="M762 377q-10 52 -43 86.5t-73.5 52t-75.5 17.5h-110v25h110q35 0 75.5 15t73.5 48t43 85h25v-329h-25zM1013 350h25v-350h-953v25h131v970h-131v25h944v-310h-25q-13 95 -55 158t-101.5 95t-126.5 32h-195v-970h164q87 0 155.5 33.5t112 105.5t55.5 186zM314 1224l-12 13
l240 270h170l240 -270l-13 -13l-313 143z" />
    <glyph glyph-name="edieresis.sc" horiz-adv-x="1148" 
d="M762 377q-10 52 -43 86.5t-73.5 52t-75.5 17.5h-110v25h110q35 0 75.5 15t73.5 48t43 85h25v-329h-25zM1013 350h25v-350h-953v25h131v970h-131v25h944v-310h-25q-13 95 -55 158t-101.5 95t-126.5 32h-195v-970h164q87 0 155.5 33.5t112 105.5t55.5 186zM812 1205
q-47 0 -81 34t-34 81q0 48 34 82t81 34q48 0 82 -34t34 -82q0 -47 -34 -81t-82 -34zM438 1205q-47 0 -81 34t-34 81q0 48 34 82t81 34q48 0 82 -34t34 -82q0 -47 -34 -81t-82 -34z" />
    <glyph glyph-name="egrave.sc" horiz-adv-x="1148" 
d="M762 377q-10 52 -43 86.5t-73.5 52t-75.5 17.5h-110v25h110q35 0 75.5 15t73.5 48t43 85h25v-329h-25zM1013 350h25v-350h-953v25h131v970h-131v25h944v-310h-25q-13 95 -55 158t-101.5 95t-126.5 32h-195v-970h164q87 0 155.5 33.5t112 105.5t55.5 186zM715 1200
l-277 88q-48 10 -75 43t-30.5 74t17.5 73q18 28 56.5 41t80.5 1.5t71 -59.5l170 -244z" />
    <glyph glyph-name="eogonek.sc" horiz-adv-x="1148" 
d="M762 377q-10 52 -43 86.5t-73.5 52t-75.5 17.5h-110v25h110q35 0 75.5 15t73.5 48t43 85h25v-329h-25zM1013 350h25v-350h-953v25h131v970h-131v25h944v-310h-25q-13 95 -55 158t-101.5 95t-126.5 32h-195v-970h164q87 0 155.5 33.5t112 105.5t55.5 186zM822 -446
q-66 0 -121.5 18t-90 56t-34.5 98t32 109.5t84.5 88.5t113 67t117.5 45l8 -16q-21 -12 -41.5 -45t-34 -83.5t-13.5 -113.5q0 -77 28 -119.5t71 -42.5q41 0 66 27t47 67l18 -11q-15 -28 -40 -62t-74.5 -58.5t-135.5 -24.5z" />
    <glyph glyph-name="f.sc" horiz-adv-x="1068" 
d="M782 346q-19 63 -72.5 105.5t-128.5 42.5h-111v24h111q75 0 128.5 37t72.5 100h25v-309h-25zM1008 1020v-310h-25q-12 92 -54 155.5t-103 96.5t-131 33h-169v-970h149v-25h-590v25h131v970h-131v25h923z" />
    <glyph glyph-name="g.sc" horiz-adv-x="1240" 
d="M630 -20q-88 0 -179.5 27.5t-169 89.5t-124.5 163.5t-47 249.5t48 249.5t125.5 163.5t166 89.5t169.5 27.5t152 -33.5t127 -87t92 -114t48 -115.5h-25q-14 54 -48.5 109.5t-82.5 102t-104 74.5t-114 28q-76 0 -126 -58.5t-74.5 -168.5t-24.5 -267q0 -156 26 -269
t71.5 -174t103.5 -61q36 0 62 19.5t43.5 48.5t28.5 58t16 48v247h284v-167q-35 -63 -94 -127.5t-145.5 -108.5t-204.5 -44zM649 416v28h526v-28h-526zM1038 690q-20 48 -44 88.5t-55.5 79t-74.5 78.5l152 84h22v-330z" />
    <glyph glyph-name="gbreve.sc" horiz-adv-x="1240" 
d="M630 -20q-88 0 -179.5 27.5t-169 89.5t-124.5 163.5t-47 249.5t48 249.5t125.5 163.5t166 89.5t169.5 27.5t152 -33.5t127 -87t92 -114t48 -115.5h-25q-14 54 -48.5 109.5t-82.5 102t-104 74.5t-114 28q-76 0 -126 -58.5t-74.5 -168.5t-24.5 -267q0 -156 26 -269
t71.5 -174t103.5 -61q36 0 62 19.5t43.5 48.5t28.5 58t16 48v247h284v-167q-35 -63 -94 -127.5t-145.5 -108.5t-204.5 -44zM649 416v28h526v-28h-526zM1038 690q-20 48 -44 88.5t-55.5 79t-74.5 78.5l152 84h22v-330zM619 1200q-85 0 -138 39.5t-77.5 111t-24.5 167.5h20
q0 -46 32.5 -74.5t83 -41t104.5 -12.5t104.5 12.5t83 41t32.5 74.5h20q0 -96 -24.5 -167.5t-77.5 -111t-138 -39.5z" />
    <glyph glyph-name="h.sc" horiz-adv-x="1450" 
d="M945 0v1020h311v-1020h-311zM85 0v25h565v-25h-565zM216 0v1020h310v-1020h-310zM820 0v25h565v-25h-565zM435 516v25h550v-25h-550zM85 995v25h565v-25h-565zM820 995v25h565v-25h-565z" />
    <glyph glyph-name="i.sc" horiz-adv-x="840" 
d="M256 0v1020h309v-1020h-309zM85 0v25h670v-25h-670zM85 995v25h670v-25h-670z" />
    <glyph glyph-name="iacute.sc" horiz-adv-x="840" 
d="M256 0v1020h309v-1020h-309zM85 0v25h670v-25h-670zM85 995v25h670v-25h-670zM323 1200l-13 17l170 244q29 48 71 59.5t80.5 -1.5t57.5 -41q21 -32 17 -73t-31 -74t-75 -43z" />
    <glyph glyph-name="icircumflex.sc" horiz-adv-x="840" 
d="M256 0v1020h309v-1020h-309zM85 0v25h670v-25h-670zM85 995v25h670v-25h-670zM103 1224l-12 13l240 270h170l240 -270l-13 -13l-313 143z" />
    <glyph glyph-name="idieresis.sc" horiz-adv-x="840" 
d="M256 0v1020h309v-1020h-309zM85 0v25h670v-25h-670zM85 995v25h670v-25h-670zM602 1205q-47 0 -81 34t-34 81q0 48 34 82t81 34q48 0 82 -34t34 -82q0 -47 -34 -81t-82 -34zM228 1205q-47 0 -81 34t-34 81q0 48 34 82t81 34q48 0 82 -34t34 -82q0 -47 -34 -81t-82 -34z
" />
    <glyph glyph-name="igrave.sc" horiz-adv-x="840" 
d="M256 0v1020h309v-1020h-309zM85 0v25h670v-25h-670zM85 995v25h670v-25h-670zM505 1200l-277 88q-48 10 -75 43t-30.5 74t17.5 73q18 28 56.5 41t80.5 1.5t71 -59.5l170 -244z" />
    <glyph glyph-name="ij.sc" horiz-adv-x="1842" 
d="M256 0v1020h309v-1020h-309zM85 0v25h670v-25h-670zM85 995v25h670v-25h-670zM1167 -20q-97 0 -170.5 37.5t-115 100t-41.5 137.5q0 86 54 140.5t129 54.5q68 0 120.5 -39.5t52.5 -123.5q0 -67 -52 -113.5t-118 -46.5q-31 0 -63.5 12t-59.5 31.5t-44 42t-17 42.5h23
q0 -55 23 -100t62 -77.5t87.5 -50.5t99.5 -18q71 0 110 64.5t54.5 176t15.5 250.5v520h310v-709q-19 -49 -58 -106t-97.5 -108.5t-135 -84t-169.5 -32.5zM1077 995v25h700v-25h-700z" />
    <glyph glyph-name="j.sc" horiz-adv-x="1002" 
d="M327 -20q-97 0 -170.5 37.5t-115 100t-41.5 137.5q0 86 54 140.5t129 54.5q68 0 120.5 -39.5t52.5 -123.5q0 -67 -52 -113.5t-118 -46.5q-31 0 -63.5 12t-59.5 31.5t-44 42t-17 42.5h23q0 -55 23 -100t62 -77.5t87.5 -50.5t99.5 -18q71 0 110 64.5t54.5 176t15.5 250.5
v520h310v-709q-19 -49 -58 -106t-97.5 -108.5t-135 -84t-169.5 -32.5zM237 995v25h700v-25h-700z" />
    <glyph glyph-name="k.sc" horiz-adv-x="1345" 
d="M299 244l778 772h36l-778 -772h-36zM85 0v25h550v-25h-550zM216 0v1020h310v-1020h-310zM740 0v25h585v-25h-585zM879 0l-297 520l219 216l438 -736h-360zM85 995v25h590v-25h-590zM875 995v25h381v-25h-381z" />
    <glyph glyph-name="l.sc" horiz-adv-x="1065" 
d="M85 0v25h131v970h-131v25h571v-25h-130v-970h85q99 0 168.5 23.5t116.5 66.5t76.5 102.5t47.5 132.5h25v-350h-960z" />
    <glyph glyph-name="lacute.sc" horiz-adv-x="1065" 
d="M85 0v25h131v970h-131v25h571v-25h-130v-970h85q99 0 168.5 23.5t116.5 66.5t76.5 102.5t47.5 132.5h25v-350h-960zM271 1200l-13 17l170 244q29 48 71 59.5t80.5 -1.5t57.5 -41q21 -32 17 -73t-31 -74t-75 -43z" />
    <glyph glyph-name="lcaron.sc" horiz-adv-x="1065" 
d="M85 0v25h131v970h-131v25h571v-25h-130v-970h85q99 0 168.5 23.5t116.5 66.5t76.5 102.5t47.5 132.5h25v-350h-960zM744 521v22q72 0 131 27t100 75.5t58.5 114.5t4.5 143h7q1 -34 -19 -65.5t-55 -52t-76 -20.5q-71 0 -109 43t-38 101q0 59 46 101.5t111 42.5
q66 0 114.5 -55.5t48.5 -152.5q0 -88 -39 -161.5t-111.5 -118t-173.5 -44.5z" />
    <glyph glyph-name="lslash.sc" horiz-adv-x="1065" 
d="M85 421v30l646 289v-29zM85 0v25h131v970h-131v25h571v-25h-130v-970h85q99 0 168.5 23.5t116.5 66.5t76.5 102.5t47.5 132.5h25v-350h-960z" />
    <glyph glyph-name="m.sc" horiz-adv-x="1575" 
d="M624 -20l-427 1040h313l302 -707l260 707h27l-370 -1040h-105zM95 0v25h206v-25h-206zM185 0v995h-100v25h126v-1020h-26zM1009 0v25h510v-25h-510zM1090 0v1020h400v-25h-90v-995h-310z" />
    <glyph glyph-name="n.sc" horiz-adv-x="1297" 
d="M977 -20l-724 1040h365l421 -606v606h26v-1040h-88zM85 0v25h343v-25h-343zM246 0v995h-161v25h187v-1020h-26zM868 995v25h359v-25h-359z" />
    <glyph glyph-name="nacute.sc" horiz-adv-x="1297" 
d="M977 -20l-724 1040h365l421 -606v606h26v-1040h-88zM85 0v25h343v-25h-343zM246 0v995h-161v25h187v-1020h-26zM868 995v25h359v-25h-359zM609 1200l-13 17l170 244q29 48 71 59.5t80.5 -1.5t57.5 -41q21 -32 17 -73t-31 -74t-75 -43z" />
    <glyph glyph-name="ncaron.sc" horiz-adv-x="1297" 
d="M977 -20l-724 1040h365l421 -606v606h26v-1040h-88zM85 0v25h343v-25h-343zM246 0v995h-161v25h187v-1020h-26zM868 995v25h359v-25h-359zM616 1220l-240 270l13 12l312 -142l312 142l13 -12l-240 -270h-170z" />
    <glyph glyph-name="eng.sc" horiz-adv-x="1413" 
d="M818 -520q-89 0 -157 32t-106 86t-38 120q0 73 47.5 118.5t116.5 45.5q40 0 76.5 -18.5t60.5 -52.5t24 -82q0 -60 -42.5 -104.5t-114.5 -44.5q-44 0 -82 20t-61 51.5t-23 66.5h23q0 -60 36 -108.5t97.5 -77.5t137.5 -29q71 0 106.5 47.5t47 126t11 173.5t-0.5 190v662
l280 37l-1 -762q0 -97 -31.5 -186.5t-90 -159.5t-139 -110.5t-177.5 -40.5zM57 0v25h554v-25h-554zM197 0v995h-140v25h416v-1020h-276zM455 551q0 69 24 152.5t75.5 160t133.5 126t199 49.5q134 0 215 -38.5t118 -106.5t37 -155l-280 -37q0 87 -21.5 145t-62 87t-98.5 29
q-68 0 -127 -35.5t-102.5 -95t-68 -132.5t-24.5 -149h-18z" />
    <glyph glyph-name="ntilde.sc" horiz-adv-x="1297" 
d="M977 -20l-724 1040h365l421 -606v606h26v-1040h-88zM85 0v25h343v-25h-343zM246 0v995h-161v25h187v-1020h-26zM868 995v25h359v-25h-359zM865 1180q-59 0 -105.5 24t-86.5 55t-82.5 55t-94.5 24t-86 -31t-34 -87h-25q0 85 23.5 151.5t69 104.5t109.5 38q62 0 107 -24
t82.5 -55t75 -55t84.5 -24q57 0 88.5 31.5t31.5 86.5h25q0 -95 -14.5 -160.5t-54 -99.5t-113.5 -34z" />
    <glyph glyph-name="o.sc" horiz-adv-x="1289" 
d="M644 -20q-160 0 -287.5 64.5t-202 183.5t-74.5 282t78 282t207 183.5t279 64.5q152 0 280.5 -64.5t206.5 -183.5t78 -282t-74 -282t-202 -183.5t-289 -64.5zM644 3q67 0 112.5 40t72.5 110t39 161.5t12 195.5t-14.5 195.5t-44 161.5t-74 110t-103.5 40t-103 -40
t-73.5 -110t-44 -161.5t-14.5 -195.5t12 -195.5t39 -161.5t72 -110t112 -40z" />
    <glyph glyph-name="oacute.sc" horiz-adv-x="1289" 
d="M644 -20q-160 0 -287.5 64.5t-202 183.5t-74.5 282t78 282t207 183.5t279 64.5q152 0 280.5 -64.5t206.5 -183.5t78 -282t-74 -282t-202 -183.5t-289 -64.5zM644 3q67 0 112.5 40t72.5 110t39 161.5t12 195.5t-14.5 195.5t-44 161.5t-74 110t-103.5 40t-103 -40
t-73.5 -110t-44 -161.5t-14.5 -195.5t12 -195.5t39 -161.5t72 -110t112 -40zM552 1200l-13 17l170 244q29 48 71 59.5t80.5 -1.5t57.5 -41q21 -32 17 -73t-31 -74t-75 -43z" />
    <glyph glyph-name="ocircumflex.sc" horiz-adv-x="1289" 
d="M644 -20q-160 0 -287.5 64.5t-202 183.5t-74.5 282t78 282t207 183.5t279 64.5q152 0 280.5 -64.5t206.5 -183.5t78 -282t-74 -282t-202 -183.5t-289 -64.5zM644 3q67 0 112.5 40t72.5 110t39 161.5t12 195.5t-14.5 195.5t-44 161.5t-74 110t-103.5 40t-103 -40
t-73.5 -110t-44 -161.5t-14.5 -195.5t12 -195.5t39 -161.5t72 -110t112 -40zM332 1224l-12 13l240 270h170l240 -270l-13 -13l-313 143z" />
    <glyph glyph-name="odieresis.sc" horiz-adv-x="1289" 
d="M644 -20q-160 0 -287.5 64.5t-202 183.5t-74.5 282t78 282t207 183.5t279 64.5q152 0 280.5 -64.5t206.5 -183.5t78 -282t-74 -282t-202 -183.5t-289 -64.5zM644 3q67 0 112.5 40t72.5 110t39 161.5t12 195.5t-14.5 195.5t-44 161.5t-74 110t-103.5 40t-103 -40
t-73.5 -110t-44 -161.5t-14.5 -195.5t12 -195.5t39 -161.5t72 -110t112 -40zM831 1205q-47 0 -81 34t-34 81q0 48 34 82t81 34q48 0 82 -34t34 -82q0 -47 -34 -81t-82 -34zM457 1205q-47 0 -81 34t-34 81q0 48 34 82t81 34q48 0 82 -34t34 -82q0 -47 -34 -81t-82 -34z" />
    <glyph glyph-name="ograve.sc" horiz-adv-x="1289" 
d="M644 -20q-160 0 -287.5 64.5t-202 183.5t-74.5 282t78 282t207 183.5t279 64.5q152 0 280.5 -64.5t206.5 -183.5t78 -282t-74 -282t-202 -183.5t-289 -64.5zM644 3q67 0 112.5 40t72.5 110t39 161.5t12 195.5t-14.5 195.5t-44 161.5t-74 110t-103.5 40t-103 -40
t-73.5 -110t-44 -161.5t-14.5 -195.5t12 -195.5t39 -161.5t72 -110t112 -40zM734 1200l-277 88q-48 10 -75 43t-30.5 74t17.5 73q18 28 56.5 41t80.5 1.5t71 -59.5l170 -244z" />
    <glyph glyph-name="ohungarumlaut.sc" horiz-adv-x="1289" 
d="M644 -20q-160 0 -287.5 64.5t-202 183.5t-74.5 282t78 282t207 183.5t279 64.5q152 0 280.5 -64.5t206.5 -183.5t78 -282t-74 -282t-202 -183.5t-289 -64.5zM644 3q67 0 112.5 40t72.5 110t39 161.5t12 195.5t-14.5 195.5t-44 161.5t-74 110t-103.5 40t-103 -40
t-73.5 -110t-44 -161.5t-14.5 -195.5t12 -195.5t39 -161.5t72 -110t112 -40zM321 1199l-13 17l170 244q29 48 71 59.5t80.5 -1.5t57.5 -41q21 -32 17 -73t-31 -74t-75 -43zM781 1199l-13 17l170 244q29 48 71 59.5t80.5 -1.5t57.5 -41q21 -32 17 -73t-31 -74t-75 -43z" />
    <glyph glyph-name="oslash.sc" horiz-adv-x="1289" 
d="M133 -60l1003 1141h30l-1004 -1141h-29zM644 -20q-160 0 -287.5 64.5t-202 183.5t-74.5 282t78 282t207 183.5t279 64.5q152 0 280.5 -64.5t206.5 -183.5t78 -282t-74 -282t-202 -183.5t-289 -64.5zM644 3q67 0 112.5 40t72.5 110t39 161.5t12 195.5t-14.5 195.5
t-44 161.5t-74 110t-103.5 40t-103 -40t-73.5 -110t-44 -161.5t-14.5 -195.5t12 -195.5t39 -161.5t72 -110t112 -40z" />
    <glyph glyph-name="otilde.sc" horiz-adv-x="1289" 
d="M644 -20q-160 0 -287.5 64.5t-202 183.5t-74.5 282t78 282t207 183.5t279 64.5q152 0 280.5 -64.5t206.5 -183.5t78 -282t-74 -282t-202 -183.5t-289 -64.5zM644 3q67 0 112.5 40t72.5 110t39 161.5t12 195.5t-14.5 195.5t-44 161.5t-74 110t-103.5 40t-103 -40
t-73.5 -110t-44 -161.5t-14.5 -195.5t12 -195.5t39 -161.5t72 -110t112 -40zM809 1180q-59 0 -105.5 24t-86.5 55t-82.5 55t-94.5 24t-86 -31t-34 -87h-25q0 85 23.5 151.5t69 104.5t109.5 38q62 0 107 -24t82.5 -55t75 -55t84.5 -24q57 0 88.5 31.5t31.5 86.5h25
q0 -95 -14.5 -160.5t-54 -99.5t-113.5 -34z" />
    <glyph glyph-name="oe.sc" horiz-adv-x="1708" 
d="M645 1020q-156 0 -284 -59.5t-204.5 -173.5t-76.5 -277t72.5 -277t200 -173.5t292.5 -59.5l15 25q-98 0 -152.5 66.5t-76.5 177t-22 241.5q0 132 26.5 242t81.5 176.5t143 66.5zM1322 377q-10 52 -43 86.5t-73.5 52t-75.5 17.5h-110v25h110q35 0 75.5 15t73.5 48t43 85
h25v-329h-25zM1573 350h25v-350h-953v25h131v970h-131v25h944v-310h-25q-13 95 -55 158t-101.5 95t-126.5 32h-195v-970h164q87 0 155.5 33.5t112 105.5t55.5 186z" />
    <glyph glyph-name="p.sc" horiz-adv-x="1205" 
d="M435 389v25h200q71 0 113 37.5t60 103.5t18 149t-18 149t-60 104t-113 38h-550v25h575q151 0 259.5 -30t167 -99t58.5 -187q0 -117 -58.5 -186t-167 -99t-259.5 -30h-225zM85 0v25h571v-25h-571zM216 0v1020h310v-1020h-310z" />
    <glyph glyph-name="thorn.sc" horiz-adv-x="1225" 
d="M435 194v25h210q63 0 103 39t59 105t19 146t-19 146t-59 105.5t-103 39.5h-180v25h180q264 0 392 -79t128 -237q0 -157 -128 -236t-392 -79h-210zM85 0v25h670v-25h-670zM256 0v1020h309v-1020h-309zM85 995v25h670v-25h-670z" />
    </font>
</defs>
</svg>
