<?xml version="1.0" standalone="no"?>
<!DOCTYPE svg PUBLIC "-//W3C//DTD SVG 1.1//EN" "http://www.w3.org/Graphics/SVG/1.1/DTD/svg11.dtd" >
<svg xmlns="http://www.w3.org/2000/svg" xmlns:xlink="http://www.w3.org/1999/xlink" version="1.1">
<metadata>
Created by FontForge 20170731 at Sun Nov 22 11:20:21 2020
 By Aleksey,,,
Copyright 2020 The Bodoni Moda Project Authors (https://github.com/indestructible-type)
</metadata>
<defs>
<font id="BodoniModa18pt-MediumItalic" horiz-adv-x="0" >
  <font-face 
    font-family="Bodoni Moda 18pt Medium"
    font-weight="500"
    font-style="italic"
    font-stretch="normal"
    units-per-em="2000"
    panose-1="0 0 0 0 0 0 0 0 0 0"
    ascent="1600"
    descent="-400"
    x-height="920"
    cap-height="1500"
    bbox="-435 -647 3861 2093"
    underline-thickness="50"
    underline-position="-175"
    slope="-13"
    unicode-range="U+000D-FB02"
  />
<missing-glyph horiz-adv-x="1200" 
d="M122 0l330 1500h774l-330 -1500h-774zM172 39h692l313 1423h-693zM687 733l-21 35q53 31 86.5 55t59.5 46.5t60 49.5q27 18 57.5 22.5t47.5 -26.5q16 -27 -1 -53t-49 -40q-40 -16 -74 -24t-73 -21.5t-93 -43.5zM479 583q-27 -19 -57.5 -23.5t-47.5 26.5q-15 28 1.5 54
t48.5 39q40 16 74 24.5t73 21.5t93 44l21 -35q-53 -31 -86.5 -55t-59.5 -46.5t-60 -49.5zM627 442q-30 0 -44 26t-4 64q12 42 26.5 72t27.5 63t22 84h42q-12 -63 -12.5 -95t2.5 -57t3 -67q0 -40 -17 -65t-46 -25zM664 734q-53 31 -77.5 40.5t-44.5 14t-60 20.5
q-34 14 -50 42t0 55q16 30 47.5 30t59.5 -19q34 -26 45.5 -49t30 -47t71.5 -54zM814 587q-34 27 -46 49t-31 45t-73 54l22 33q54 -31 78.5 -40.5t44.5 -14t60 -20.5q34 -14 50 -42t0 -56q-16 -29 -47 -27t-58 19zM655 751q11 62 11.5 94t-2.5 57t-3 68q0 40 17 64.5t46 24.5
q30 0 44.5 -25.5t3.5 -63.5q-12 -43 -26.5 -73t-27.5 -62.5t-21 -83.5h-42z" />
    <glyph glyph-name="fi" unicode="fi" horiz-adv-x="1195" 
d="M-160 -520q-67 0 -115 23.5t-73.5 60t-25.5 77.5q0 59 35 89.5t85 30.5q28 0 55 -12.5t44 -38t17 -63.5q0 -29 -16.5 -54.5t-43.5 -41t-59 -15.5q-26 0 -52.5 10.5t-44.5 33.5t-18 61h23q0 -36 24.5 -67t67.5 -50.5t98 -19.5q71 0 118.5 54t80.5 148t60 214l244 1103
q21 96 60 185t98.5 159.5t144 111.5t197.5 41q78 0 132.5 -20t88 -51.5t49.5 -67t16 -67.5q0 -65 -36 -100.5t-89 -35.5q-29 0 -59 12.5t-50.5 39t-20.5 69.5q0 37 17.5 65t46.5 43t61 15q27 0 56.5 -11.5t50.5 -35.5t21 -61h-24q0 40 -26 82t-83.5 70.5t-148.5 28.5
q-83 0 -138 -53.5t-91 -148t-64 -213.5l-255 -1103q-22 -96 -58 -185t-90.5 -159.5t-130.5 -111.5t-179 -41zM823 -20q-84 0 -124.5 35.5t-40.5 107.5q0 8 3 24.5t6 28.5l206 719h-731v25h925l-232 -826q-5 -20 -5 -36t9.5 -28t28.5 -12q46 0 89 29.5t85.5 95.5t83.5 174
l24 -8q-66 -176 -140 -252.5t-187 -76.5z" />
    <glyph glyph-name="fl" unicode="fl" horiz-adv-x="1260" 
d="M-153 -520q-69 0 -118.5 22t-76 59t-26.5 82q0 54 33.5 86t84.5 32q43 0 80.5 -25.5t37.5 -77.5q0 -39 -17.5 -66.5t-45 -41.5t-57.5 -14q-25 0 -51.5 10.5t-44.5 34t-18 62.5h23q0 -38 24 -70t67.5 -50.5t103.5 -18.5q71 0 117.5 54t78.5 148t58 214l244 1103
q21 99 60 188t99 159t144 110t197 40q92 0 154.5 -33.5t94 -81t31.5 -91.5t-17.5 -74t-46 -46t-62.5 -16q-27 0 -56.5 12.5t-50 39t-20.5 69.5q0 38 18 65.5t47 42t59 14.5q25 0 55 -11t51 -35t21 -61h-23q0 41 -29.5 83t-86 70t-137.5 28q-85 0 -141 -53.5t-91.5 -147.5
t-62.5 -214l-253 -1103q-22 -96 -62.5 -185t-98.5 -159.5t-130.5 -111.5t-159.5 -41zM140 895v25h648v-25h-648zM864 -20q-61 0 -96.5 17t-50.5 47.5t-15 69.5q0 14 2.5 31t5.5 31l337 1274l213 90l-382 -1447q-5 -19 -5 -36q0 -16 10.5 -27t28.5 -11q47 0 90 30t84.5 95.5
t81.5 172.5l24 -8q-63 -169 -136.5 -249t-191.5 -80z" />
    <glyph glyph-name="f_f" unicode="ff" horiz-adv-x="1326" 
d="M414 -420q-88 0 -145 33.5t-85 81.5t-28 93q0 66 38 100t88 34q28 0 57.5 -12t49.5 -38t20 -69q0 -38 -18 -66t-46.5 -43t-58.5 -15q-28 0 -57.5 11.5t-50 35.5t-20.5 62h24q0 -42 26 -84.5t77.5 -70.5t127.5 -28q71 0 123 53.5t90 147.5t64 214l220 1003q21 95 62.5 184
t100.5 159.5t133 112t159 41.5q58 0 99.5 -15t68.5 -39.5t39.5 -52t12.5 -52.5q0 -55 -32 -88.5t-85 -33.5q-29 0 -56.5 12t-45.5 36t-18 59q0 36 16.5 63t44 42t59.5 15q25 0 51.5 -11t45 -34t18.5 -60h-23q0 28 -21 59.5t-63.5 53.5t-108.5 22t-111 -54t-77 -148.5
t-60 -213.5l-232 -1003q-29 -129 -91.5 -242.5t-157.5 -184t-224 -70.5zM-161 -520q-66 0 -114.5 22.5t-74 60t-25.5 82.5q0 53 35.5 84.5t85.5 31.5q28 0 54.5 -13t44 -37.5t17.5 -59.5q0 -34 -16 -59.5t-41 -40.5t-54 -15q-28 0 -57 11.5t-48 35t-19 62.5h23q0 -39 24 -71
t67 -51t99 -19q71 0 119 54t81.5 148t59.5 214l222 1003q21 96 58.5 185t94.5 159.5t137 111.5t186 41q70 0 119 -20t80.5 -51.5t46.5 -67t15 -67.5q0 -65 -35.5 -100.5t-88.5 -35.5q-29 0 -59 12.5t-50.5 39t-20.5 69.5q0 37 18 65t46.5 43t60.5 15q22 0 52 -11.5
t52.5 -35.5t22.5 -61h-23q0 40 -25.5 82t-77.5 70.5t-131 28.5q-74 0 -125.5 -53.5t-87 -147.5t-63.5 -214l-227 -1003q-21 -96 -60.5 -185t-97 -159.5t-132.5 -111.5t-168 -41zM140 895v25h1209v-25h-1209z" />
    <glyph glyph-name="f_f_i" unicode="ffi" horiz-adv-x="1832" 
d="M415 -420q-89 0 -146 33.5t-85 81.5t-28 93q0 66 38 100t88 34q28 0 57.5 -12t49.5 -38t20 -69q0 -38 -18 -66t-46.5 -43t-58.5 -15q-22 0 -52 11.5t-53 35.5t-23 62h24q0 -43 26.5 -85t78.5 -70t126 -28q71 0 123.5 53.5t90.5 147.5t64 214l219 1003q25 127 89.5 241
t169 185t251.5 71q74 0 129 -20t90 -51.5t52 -67t17 -67.5q0 -65 -36.5 -100.5t-88.5 -35.5q-29 0 -58.5 12.5t-49.5 39t-20 69.5q0 37 18.5 65t48 43t61.5 15q30 0 58.5 -11.5t46.5 -35.5t18 -61h-23q0 31 -17 62.5t-49.5 58.5t-81.5 43.5t-114 16.5q-78 0 -136.5 -54
t-99 -147.5t-66.5 -213.5l-232 -1003q-28 -129 -91 -242.5t-158 -184t-223 -70.5zM-161 -520q-66 0 -114.5 22.5t-74 60t-25.5 82.5q0 56 36 86t86 30q28 0 53.5 -12t42 -36.5t16.5 -61.5q0 -33 -14 -59t-38.5 -41t-56.5 -15q-26 0 -54.5 11.5t-48.5 35.5t-20 62h23
q0 -38 23.5 -70.5t66 -51.5t101.5 -19q71 0 118.5 54t81 148t60.5 214l222 1003q26 128 83.5 242t154 184.5t238.5 70.5q69 0 118 -20t80.5 -51.5t47 -67t15.5 -67.5q0 -65 -36 -100.5t-89 -35.5q-29 0 -59 12.5t-50.5 39t-20.5 69.5q0 37 18 65t46.5 43t60.5 15
q26 0 55.5 -11.5t51 -35.5t21.5 -61h-24q0 40 -25.5 82t-77.5 70.5t-131 28.5q-74 0 -125.5 -53.5t-87 -147.5t-62.5 -214l-227 -1003q-22 -96 -61.5 -185t-97 -159.5t-132.5 -111.5t-168 -41zM1426 -20q-84 0 -124 36t-40 116q0 8 1 21t3 23l165 719h-1289v25h1503
l-195 -826q-2 -9 -3 -19t-1 -17q0 -38 36 -38q54 0 106 41.5t97 112t78 159.5l24 -7q-57 -150 -143 -248t-218 -98z" />
    <glyph glyph-name="f_f_l" unicode="ffl" horiz-adv-x="1846" 
d="M414 -420q-88 0 -145 33.5t-85 81.5t-28 93q0 66 38 100t88 34q28 0 57.5 -12t49.5 -38t20 -69q0 -38 -18 -66t-46.5 -43t-58.5 -15q-22 0 -52 11.5t-53 35.5t-23 62h24q0 -42 26 -84.5t77.5 -70.5t127.5 -28q71 0 123.5 53.5t90.5 147.5t64 214l219 1003q25 127 88 241
t168 185t255 71q71 0 124 -18.5t88 -49t52.5 -64.5t17.5 -66q0 -64 -36.5 -99.5t-89.5 -35.5q-29 0 -58.5 12.5t-49 39t-19.5 68.5q0 37 18 65t46 43.5t56 15.5q26 0 56 -12t52.5 -36t22.5 -61h-24q0 41 -29.5 81t-86 66t-138.5 26q-83 0 -140.5 -54t-96 -147.5
t-65.5 -213.5l-234 -1003q-30 -129 -92 -242.5t-157 -184t-224 -70.5zM-161 -520q-66 0 -114.5 22.5t-74 60t-25.5 82.5q0 53 34 84.5t84 31.5q28 0 55.5 -12t45.5 -36.5t18 -61.5q0 -33 -17 -59t-43 -41t-55 -15q-24 0 -52 11.5t-48 35.5t-20 62h23q0 -38 23 -70.5
t66 -51.5t101 -19q70 0 118 54t82.5 148t60.5 214l221 1003q21 96 58.5 185t94.5 159t137 111.5t186 41.5q70 0 119 -20t80.5 -51.5t46.5 -67t15 -67.5q0 -65 -35.5 -100.5t-88.5 -35.5q-29 0 -59 12.5t-50.5 39t-20.5 69.5q0 38 18 65.5t46.5 42.5t60.5 15q29 0 58.5 -11.5
t49 -35.5t19.5 -61h-23q0 40 -26 82t-78 70.5t-130 28.5q-74 0 -125.5 -53.5t-87 -147.5t-63.5 -214l-227 -1003q-21 -96 -61.5 -185t-99 -159.5t-133 -111.5t-164.5 -41zM140 895v25h1224v-25h-1224zM1459 -20q-84 0 -128 31t-44 103q0 14 3.5 33.5t5.5 28.5l336 1275
l213 89l-381 -1445q-2 -9 -3 -19t-1 -17q0 -16 9 -27.5t28 -11.5q49 0 92 30t83.5 95.5t81.5 171.5l23 -8q-63 -169 -137 -249t-181 -80z" />
    <glyph glyph-name="f_j.liga" unicode="fj" horiz-adv-x="1131" 
d="M-163 -520q-81 0 -133.5 30.5t-77.5 75t-25 86.5q0 64 35.5 97.5t86.5 33.5q45 0 84.5 -27t39.5 -89q0 -55 -32.5 -82.5t-72.5 -30.5q-23 -1 -40 8t-27.5 21t-14.5 20q7 -24 26 -52t54.5 -47t90.5 -19q70 0 123.5 53t90.5 147t60 215l208 1103q18 103 61 192.5t109.5 158
t156 107.5t201.5 39q105 0 166.5 -33t88 -81t26.5 -92q0 -66 -36.5 -101t-87.5 -35q-44 0 -85.5 28t-41.5 92q0 63 39.5 91.5t81.5 29.5q35 1 55.5 -17.5t27.5 -31.5q-9 29 -35 58t-73.5 48t-118.5 19q-87 0 -151 -53t-105.5 -146.5t-63.5 -215.5l-216 -1103
q-19 -102 -61 -191.5t-102.5 -158.5t-139 -108t-172.5 -39zM405 -420q-91 0 -148.5 32.5t-84.5 79.5t-27 92q0 67 39 102.5t90 35.5q44 0 84.5 -28t40.5 -90q0 -39 -17.5 -66t-45 -41t-58.5 -15q-34 -1 -55 16.5t-27 30.5q9 -28 35 -56.5t69.5 -48t102.5 -19.5q63 0 108 33
t78 92t56.5 137.5t42.5 169.5l176 857l-743 1v25h949l-174 -844q-19 -94 -59.5 -182.5t-102 -159.5t-144 -112.5t-185.5 -41.5z" />
    <glyph glyph-name=".notdef" horiz-adv-x="1200" 
d="M122 0l330 1500h774l-330 -1500h-774zM172 39h692l313 1423h-693zM687 733l-21 35q53 31 86.5 55t59.5 46.5t60 49.5q27 18 57.5 22.5t47.5 -26.5q16 -27 -1 -53t-49 -40q-40 -16 -74 -24t-73 -21.5t-93 -43.5zM479 583q-27 -19 -57.5 -23.5t-47.5 26.5q-15 28 1.5 54
t48.5 39q40 16 74 24.5t73 21.5t93 44l21 -35q-53 -31 -86.5 -55t-59.5 -46.5t-60 -49.5zM627 442q-30 0 -44 26t-4 64q12 42 26.5 72t27.5 63t22 84h42q-12 -63 -12.5 -95t2.5 -57t3 -67q0 -40 -17 -65t-46 -25zM664 734q-53 31 -77.5 40.5t-44.5 14t-60 20.5
q-34 14 -50 42t0 55q16 30 47.5 30t59.5 -19q34 -26 45.5 -49t30 -47t71.5 -54zM814 587q-34 27 -46 49t-31 45t-73 54l22 33q54 -31 78.5 -40.5t44.5 -14t60 -20.5q34 -14 50 -42t0 -56q-16 -29 -47 -27t-58 19zM655 751q11 62 11.5 94t-2.5 57t-3 68q0 40 17 64.5t46 24.5
q30 0 44.5 -25.5t3.5 -63.5q-12 -43 -26.5 -73t-27.5 -62.5t-21 -83.5h-42z" />
    <glyph glyph-name=".null" 
 />
    <glyph glyph-name="nonmarkingreturn" horiz-adv-x="666" 
 />
    <glyph glyph-name="CR" unicode="&#xd;" horiz-adv-x="500" 
 />
    <glyph glyph-name="space" unicode=" " horiz-adv-x="500" 
 />
    <glyph glyph-name="exclam" unicode="!" horiz-adv-x="671" 
d="M349 444q18 90 30.5 180t19.5 179t11 174t5.5 166.5t1.5 157.5q0 60 16 109t49 77.5t85 28.5q59 0 96 -41t27 -105q-11 -66 -38.5 -151t-64.5 -182t-77.5 -199t-76.5 -202.5t-61 -191.5h-23zM279 -20q-38 0 -68 18t-48.5 49t-18.5 68q0 38 18.5 68.5t48.5 48.5t68 18
t68.5 -18t48.5 -48.5t18 -68.5q0 -37 -18 -68t-48.5 -49t-68.5 -18z" />
    <glyph glyph-name="quotedbl" unicode="&#x22;" horiz-adv-x="800" 
d="M660 957q19 68 23 117.5t-1 90.5t-14.5 84.5t-17.5 99.5q-1 11 -2 20t-1 18q0 63 38.5 98t90.5 35q50 0 81.5 -32.5t31.5 -80.5q0 -10 -1.5 -21t-4.5 -22q-14 -56 -38 -99.5t-52.5 -85.5t-56.5 -94.5t-51 -127.5h-25zM291 957q19 68 23 117.5t-1 90.5t-14.5 84.5
t-17.5 99.5q-1 11 -2 20t-1 18q0 63 38.5 98t90.5 35q50 0 81.5 -32.5t31.5 -80.5q0 -10 -1.5 -21t-4.5 -22q-14 -56 -38 -99.5t-52.5 -85.5t-56.5 -94.5t-51 -127.5h-25z" />
    <glyph glyph-name="numbersign" unicode="#" horiz-adv-x="1259" 
d="M739 -12l350 1520l26 2l-350 -1520zM132 488v27h1080v-27h-1080zM339 -10l351 1520h25l-350 -1520h-26zM232 1015v27h1080v-27h-1080z" />
    <glyph glyph-name="dollar" unicode="$" horiz-adv-x="1134" 
d="M543 -29q-125 0 -216.5 32.5t-150 83t-87 106.5t-28.5 105q0 73 39 123t108 50q49 0 93 -35.5t44 -105.5q0 -42 -21 -73t-53.5 -48.5t-69.5 -17.5q-52 0 -95 25.5t-43 81.5h23q0 -45 26.5 -98t81.5 -100.5t141 -77t205 -29.5q102 0 173 46t107.5 123.5t36.5 174.5
q0 86 -33 140.5t-88 91t-120.5 64.5t-131 60t-120.5 78.5t-88 120t-33 184.5q0 93 41.5 173.5t112.5 141.5t159.5 95t182.5 34q108 0 203 -43t154 -114t59 -152q0 -73 -39.5 -122.5t-108.5 -49.5q-49 0 -92.5 35t-43.5 105q0 64 43.5 102t97.5 38q34 0 66.5 -18t53.5 -42.5
t21 -47.5h-23q0 73 -53 138t-141.5 106.5t-194.5 41.5q-94 0 -161.5 -36.5t-104.5 -98.5t-37 -139q0 -82 33.5 -135.5t88.5 -91.5t121.5 -70.5t132.5 -70t121 -90.5t88.5 -131t33.5 -194q0 -108 -39.5 -194.5t-110.5 -147.5t-164 -94t-200 -33zM298 -160l415 1820h26
l-416 -1820h-25zM475 -160l415 1820h26l-416 -1820h-25z" />
    <glyph glyph-name="percent" unicode="%" horiz-adv-x="2000" 
d="M387 0l1370 1500h33l-1372 -1500h-31zM550 641q-96 0 -166 31.5t-109 97.5t-39 169q0 123 38.5 228.5t106.5 184.5t157.5 123.5t191.5 44.5q96 0 166.5 -32t108.5 -98t38 -169q0 -123 -38 -228.5t-106 -184.5t-157.5 -123t-191.5 -44zM547 665q35 0 69 28t65 76.5
t56.5 110.5t44.5 131t30 139t11 132q0 94 -22 153.5t-68 59.5q-35 0 -69 -28t-65 -76t-57 -110t-45.5 -131t-30 -138.5t-10.5 -132.5q0 -93 22.5 -153.5t68.5 -60.5zM1460 -20q-96 0 -166 32t-109 98t-39 169q0 123 38.5 228.5t107 184.5t157.5 123t192 44q95 0 165.5 -31.5
t108.5 -97.5t38 -169q0 -123 -38 -228.5t-106 -184.5t-157.5 -123.5t-191.5 -44.5zM1457 5q35 0 69 26t65 72.5t56.5 105.5t44.5 126t30 135t11 130q0 63 -9.5 116.5t-29.5 86.5t-51 33q-35 0 -69 -28t-65 -76.5t-57 -110.5t-45.5 -131t-30.5 -138.5t-11 -132.5
q0 -93 23 -153.5t69 -60.5z" />
    <glyph glyph-name="ampersand" unicode="&#x26;" horiz-adv-x="1611" 
d="M1145 -20q-115 0 -187 50.5t-114 151.5l-323 757q-26 62 -39 118.5t-13 108.5q0 100 61 180t167 127t241 47q67 0 130 -17t113.5 -49t80 -79t29.5 -107q0 -76 -41.5 -135t-111.5 -106t-157 -86.5t-178 -76.5l-9 23q90 39 151 97.5t92 128.5t31 143q0 62 -13 117t-44 89.5
t-86 34.5q-72 0 -121 -38.5t-73.5 -96.5t-24.5 -120q0 -52 18.5 -125.5t61.5 -177.5l327 -785q13 -33 29.5 -62.5t42 -47.5t64.5 -18q52 0 101.5 36t73.5 86l22 -7q-28 -66 -103.5 -113.5t-197.5 -47.5zM493 -20q-143 0 -244.5 41t-155 117t-53.5 182q0 115 44.5 190
t122 125.5t176 89.5t205.5 82l9 -20q-90 -42 -160 -106t-110 -146t-40 -183q0 -50 13 -107.5t44 -108.5t84.5 -83.5t134.5 -32.5q147 0 291 48.5t272.5 127.5t227.5 173.5t155.5 188.5t56.5 171h24q0 -28 -22 -49.5t-57 -34t-73 -12.5q-45 0 -79 19t-52.5 50t-18.5 69
q0 33 17.5 62t49 47t71.5 18q51 0 88.5 -22t57.5 -60.5t20 -86.5q0 -86 -60 -187t-165.5 -200t-245 -181t-300 -131.5t-328.5 -49.5z" />
    <glyph glyph-name="quotesingle" unicode="'" horiz-adv-x="431" 
d="M291 957q19 68 23 117.5t-1 90.5t-14.5 84.5t-17.5 99.5q-1 11 -2 20t-1 18q0 63 38.5 98t90.5 35q50 0 81.5 -32.5t31.5 -80.5q0 -10 -1.5 -21t-4.5 -22q-14 -56 -38 -99.5t-52.5 -85.5t-56.5 -94.5t-51 -127.5h-25z" />
    <glyph glyph-name="parenleft" unicode="(" horiz-adv-x="729" 
d="M550 -340q-113 50 -200 151.5t-136 243.5t-49 315q0 176 46 337.5t126.5 302.5t184 256.5t219 200.5t231.5 133l12 -22q-77 -43 -152 -121.5t-143.5 -183.5t-125.5 -227t-100 -252.5t-66.5 -260t-23.5 -249.5q0 -124 11 -216t34 -161t59 -122.5t85 -101.5z" />
    <glyph glyph-name="parenright" unicode=")" horiz-adv-x="729" 
d="M-114 -340l-12 22q77 43 152 121.5t143.5 183.5t126 227t100 252.5t66 260t23.5 249.5q0 125 -11 216.5t-34 160.5t-58.5 122.5t-84.5 101.5l12 23q113 -50 199.5 -151t136 -243.5t49.5 -315.5q0 -176 -46.5 -337.5t-126.5 -302.5t-184 -256.5t-219.5 -200.5t-231.5 -133
z" />
    <glyph glyph-name="asterisk" unicode="*" horiz-adv-x="1269" 
d="M762 1008l-13 21q71 41 119 80t84 76t70.5 73t78.5 72q36 25 75 36t73.5 1.5t55.5 -47.5q20 -35 12.5 -72t-37 -67.5t-72.5 -46.5q-53 -20 -103 -27.5t-102 -14.5t-111 -25t-130 -59zM410 711q-36 -25 -75 -36.5t-73 -1.5t-56 48q-20 35 -12 72t37 67.5t73 46.5
q53 20 102.5 27t101 13.5t110.5 24t130 58.5l13 -21q-71 -41 -118.5 -79.5t-83.5 -75t-70.5 -72t-78.5 -71.5zM665 457q-38 0 -65.5 21.5t-37 59.5t4.5 88q16 56 41 99t52 84.5t49.5 91.5t33.5 119h25q-15 -84 -13 -136.5t12 -90t19.5 -76t9.5 -94.5q0 -48 -16.5 -85.5
t-46 -59t-68.5 -21.5zM748 1009q-71 41 -116.5 54.5t-80 16t-70.5 7t-88 26.5q-42 19 -67.5 50.5t-31 68t14.5 71.5q21 37 57 51.5t77 7.5t78 -32q36 -28 54 -57t29 -59t26 -60t45.5 -61.5t86.5 -63.5zM993 716q-35 28 -53.5 56.5t-30.5 57t-28 57.5t-46.5 59.5t-86.5 62.5
l14 20q71 -41 116.5 -54.5t80 -15.5t71 -6t88.5 -25q42 -18 68 -49.5t31 -68.5t-15 -72q-21 -37 -56.5 -49.5t-76 -4.5t-76.5 32zM743 1020q15 85 13 137.5t-12 90t-19.5 76t-9.5 94.5q0 48 16.5 85.5t46 59t68.5 21.5q38 0 65 -21t37 -59.5t-4 -88.5q-15 -56 -40 -99.5
t-52 -84.5t-50 -91t-34 -120h-25z" />
    <glyph glyph-name="plus" unicode="+" horiz-adv-x="1059" 
d="M233 647v250h593v-250h-593zM404 474v594h250v-594h-250z" />
    <glyph glyph-name="comma" unicode="," horiz-adv-x="466" 
d="M-73 -312v25q70 0 139.5 32.5t125.5 88t87.5 126t23.5 146.5h23q0 -38 -22.5 -66.5t-58 -44t-73.5 -15.5q-72 0 -107.5 38t-35.5 91q0 37 19.5 69.5t54 52t76.5 19.5q44 0 78.5 -19t54 -57t19.5 -95q0 -75 -35 -145t-92.5 -125.5t-129.5 -88t-147 -32.5z" />
    <glyph glyph-name="hyphen" unicode="-" horiz-adv-x="719" 
d="M166 538v24h480v-24h-480z" />
    <glyph glyph-name="period" unicode="." horiz-adv-x="433" 
d="M166 -20q-38 0 -69 18.5t-50 49.5t-19 69t19 69t50 49.5t69 18.5t69 -18.5t49 -49.5t18 -69t-18 -69t-49 -49.5t-69 -18.5z" />
    <glyph glyph-name="slash" unicode="/" horiz-adv-x="1039" 
d="M-61 -300l1268 1861h33l-1267 -1861h-34z" />
    <glyph glyph-name="zero" unicode="0" horiz-adv-x="1261" 
d="M555 -20q-131 0 -223 63.5t-140.5 166.5t-48.5 224q0 173 40 333.5t112 297.5t167.5 239t206 159t226.5 57q131 0 223.5 -63.5t141 -166.5t48.5 -224q0 -173 -40.5 -333.5t-112.5 -297.5t-167.5 -239t-205.5 -159t-227 -57zM555 3q66 0 126.5 44t113.5 120t97.5 174
t80.5 207t60.5 219t37.5 210t13 179q0 62 -7 122.5t-27 110t-57.5 79t-97.5 29.5q-66 0 -126 -43.5t-113.5 -119t-98 -173.5t-80 -206.5t-60 -219t-38 -211t-13.5 -180.5q0 -61 7.5 -122t27 -110.5t57 -79t97.5 -29.5z" />
    <glyph glyph-name="one" unicode="1" horiz-adv-x="903" 
d="M161 0l333 1475h-229v25h459l-340 -1500h-223zM-54 0v25h663v-25h-663z" />
    <glyph glyph-name="two" unicode="2" horiz-adv-x="1130" 
d="M-30 0l32 150l547 428q70 55 136.5 124.5t120.5 149.5t85.5 166t31.5 174q0 80 -24 145t-76 104t-135 39q-79 0 -155 -33.5t-137 -91.5t-97 -133t-36 -159h-22q0 30 21 56.5t54.5 42.5t69.5 16q52 0 92 -32.5t40 -92.5q0 -65 -40.5 -104t-100.5 -39q-57 0 -97.5 39.5
t-40.5 113.5q0 88 38.5 170t108.5 146.5t166 102.5t211 38q121 0 209 -40.5t135.5 -111.5t47.5 -163q0 -63 -29.5 -123t-77 -116t-103 -104.5t-108.5 -88.5t-92 -69l-617 -490h807l32 150h25l-79 -364h-943z" />
    <glyph glyph-name="three" unicode="3" horiz-adv-x="1072" 
d="M416 -20q-142 0 -232.5 45t-134 115.5t-43.5 144.5q0 67 38 104.5t96 37.5q51 0 86 -33t35 -92q0 -36 -18 -62.5t-47 -41.5t-62 -15q-32 0 -61 13.5t-47 36.5t-18 52h23q0 -83 48.5 -146t127 -97.5t169.5 -34.5q98 0 169 38.5t117.5 102.5t69.5 143.5t23 161.5
q0 56 -10 116t-42 113t-94 86t-166 33v15q162 0 267.5 -27t166.5 -76.5t85.5 -117.5t24.5 -151q0 -102 -47.5 -187t-129 -147t-183.5 -96t-211 -34zM443 809v16q117 0 197 45.5t127.5 114.5t68.5 142t21 127q0 70 -21.5 122.5t-71 81.5t-132.5 29q-53 0 -109 -20t-104 -55
t-78.5 -83.5t-30.5 -104.5h-23q0 33 20 57t49.5 37t58.5 13q33 0 62 -14t47 -41t18 -65q0 -44 -20 -71.5t-49 -40.5t-58 -13q-34 0 -63.5 16t-48 46.5t-18.5 75.5q0 57 32.5 110t88.5 94t127.5 65.5t150.5 24.5q84 0 157.5 -14.5t129 -47.5t87.5 -88.5t32 -138.5
q0 -75 -36.5 -149t-114 -135.5t-200.5 -98.5t-296 -37z" />
    <glyph glyph-name="four" unicode="4" horiz-adv-x="1226" 
d="M638 0l306 1416l-834 -973h1072v-25h-1125l928 1082h208l-331 -1500h-224zM468 0v25h564v-25h-564z" />
    <glyph glyph-name="five" unicode="5" horiz-adv-x="1035" 
d="M139 746l262 754h705l23 109h24l-68 -323h-731l-189 -540h-26zM375 -20q-106 0 -190 39t-133 104.5t-49 142.5q0 44 17.5 75t47 47t63.5 16q29 0 59 -13.5t50.5 -41.5t20.5 -71q0 -38 -17 -66t-45 -43t-62 -15q-33 0 -63.5 16t-49.5 42t-19 54h23q0 -56 27.5 -103.5
t74 -82t103 -53.5t115.5 -19q78 0 140 35.5t108.5 95.5t77 134t45.5 150.5t15 145.5q0 92 -23.5 167t-69.5 120t-117 45q-69 0 -134.5 -19t-120 -53.5t-89.5 -82.5h-24q36 57 96 98.5t138 64t169 22.5q129 0 222 -39.5t143 -121.5t50 -212q0 -113 -49.5 -217.5
t-134.5 -185.5t-192.5 -128t-222.5 -47z" />
    <glyph glyph-name="six" unicode="6" horiz-adv-x="1147" 
d="M489 -20q-114 0 -204 48t-142.5 149.5t-52.5 261.5q0 132 53.5 279.5t150.5 289.5t229.5 258t291 185t333.5 69v-23q-116 0 -221.5 -48.5t-197.5 -132.5t-167 -192t-128.5 -228t-82 -241.5t-28.5 -231.5l-4 -108q0 -87 18.5 -157.5t58 -111.5t100.5 -41q62 0 117.5 40
t101.5 107.5t79 149t51.5 165.5t18.5 157q0 145 -34.5 228t-113.5 83t-142.5 -43t-111 -112.5t-79.5 -152.5t-48 -165t-16 -147h-23q0 57 12 128t36.5 146t62 145t89.5 126t119 88.5t149 32.5q63 0 122.5 -20.5t107 -65.5t76 -117.5t28.5 -177.5q0 -116 -51.5 -227
t-138 -199.5t-195.5 -141t-224 -52.5z" />
    <glyph glyph-name="seven" unicode="7" horiz-adv-x="1038" 
d="M430 -20q-57 0 -98.5 42t-41.5 121q0 62 36 139.5t94.5 163t124.5 172.5t127 169q49 65 111 149.5t128.5 173t127.5 167.5h-755l-34 -151h-24l80 374h936l-36.5 -48t-96 -127t-130 -173t-140 -187.5t-125.5 -168.5q-68 -92 -129 -174.5t-100 -149t-39 -111.5
q0 -37 20.5 -58.5t47 -41t47 -49t20.5 -82.5q0 -61 -39.5 -105.5t-111.5 -44.5z" />
    <glyph glyph-name="eight" unicode="8" horiz-adv-x="1133" 
d="M504 -20q-217 0 -330 85t-113 235q0 120 57.5 227t174 174t291.5 67q218 0 331 -79t113 -229q0 -120 -58 -230t-174.5 -180t-291.5 -70zM496 5q56 0 103.5 26.5t84 72.5t62 105t38.5 124t13 128q0 82 -21.5 146.5t-67.5 102t-118 37.5q-57 0 -104.5 -25.5t-84 -70.5
t-62 -103t-38.5 -122t-13 -127q0 -82 22 -148.5t68 -106t118 -39.5zM623 760q-121 0 -206.5 39t-131 105t-45.5 146q0 90 38.5 174t107.5 151t162 106t202 39q125 0 210.5 -49.5t129.5 -125.5t44 -156q0 -91 -39.5 -169t-110 -136.5t-163 -91t-198.5 -32.5zM623 781
q51 0 94 23.5t77.5 65t58.5 96t37 116t13 125.5q0 60 -12 127t-45.5 114t-96.5 47q-49 0 -92 -26.5t-77 -72.5t-58.5 -105t-38 -124t-13.5 -128q0 -62 12.5 -121.5t45 -98t95.5 -38.5z" />
    <glyph glyph-name="nine" unicode="9" horiz-adv-x="1147" 
d="M53 -20v23q115 0 221 48.5t197.5 132.5t166.5 192t128.5 228t82 241.5t28.5 231.5l5 108q0 87 -19 157.5t-58.5 111.5t-100.5 41q-62 0 -117.5 -40t-101 -107.5t-79 -149t-52 -165.5t-18.5 -157q0 -145 35 -228t113 -83q79 0 142.5 43t111 112.5t79.5 152.5t48.5 165
t16.5 147h22q0 -56 -12 -127.5t-36.5 -146.5t-62 -145t-89.5 -126t-118.5 -88.5t-149.5 -32.5q-63 0 -122.5 20.5t-107 65.5t-75.5 117.5t-28 177.5q0 117 51 227.5t138 199t195.5 141t224.5 52.5q113 0 203.5 -48t143 -149.5t52.5 -261.5q0 -132 -53.5 -279.5t-151 -289.5
t-230 -258t-290.5 -185t-333 -69z" />
    <glyph glyph-name="colon" unicode=":" horiz-adv-x="429" 
d="M344 820q-38 0 -69 18.5t-50 49.5t-19 69t19 69t50 49.5t69 18.5t69 -18.5t49 -49.5t18 -69t-18 -69t-49 -49.5t-69 -18.5zM157 -20q-38 0 -69 18.5t-50 49.5t-19 69t19 69t50 49.5t69 18.5t69 -18.5t49 -49.5t18 -69t-18 -69t-49 -49.5t-69 -18.5z" />
    <glyph glyph-name="semicolon" unicode=";" horiz-adv-x="466" 
d="M351 820q-38 0 -69 18.5t-50 49.5t-19 69t19 69t50 49.5t69 18.5t69 -18.5t49 -49.5t18 -69t-18 -69t-49 -49.5t-69 -18.5zM-83 -312v25q70 0 139.5 32.5t125.5 88t87.5 126t23.5 146.5h23q0 -38 -22.5 -66.5t-58 -44t-73.5 -15.5q-72 0 -107.5 38t-35.5 91
q0 37 19.5 69.5t54 52t76.5 19.5q44 0 78.5 -19t54 -57t19.5 -95q0 -75 -35 -145t-92.5 -125.5t-129.5 -88t-147 -32.5z" />
    <glyph glyph-name="less" unicode="&#x3c;" horiz-adv-x="1119" 
d="M120 765v27l880 416v-27zM1000 343l-880 415v27l880 -416v-26z" />
    <glyph glyph-name="equal" unicode="=" horiz-adv-x="1119" 
d="M204 909v24h880v-24h-880zM204 608v24h880v-24h-880z" />
    <glyph glyph-name="greater" unicode="&#x3e;" horiz-adv-x="1119" 
d="M734 638l-614 318l266 125l614 -319zM386 469l-266 125l614 317l266 -123z" />
    <glyph glyph-name="question" unicode="?" horiz-adv-x="1119" 
d="M511 438l58 269q107 31 200 101t150.5 169t57.5 217q0 81 -15 149.5t-64 109.5t-151 41q-78 0 -147.5 -27.5t-123.5 -73.5t-85 -103t-31 -115h-24q0 33 18 58t47 38.5t60 13.5q33 0 62 -14.5t47 -42t18 -65.5q0 -43 -20 -70.5t-49.5 -40.5t-57.5 -13q-33 0 -62 15.5
t-47 46t-18 74.5q0 63 33.5 124t92.5 111t136.5 80t165.5 30q99 0 181 -21.5t142 -64.5t92.5 -106t32.5 -147q0 -87 -37 -160.5t-100.5 -132.5t-144 -101.5t-168 -67.5t-172.5 -30l-52 -251h-25zM464 -20q-38 0 -69 18.5t-50 49.5t-19 69t19 69t50 49.5t69 18.5t69 -18.5
t49 -49.5t18 -69t-18 -69t-49 -49.5t-69 -18.5z" />
    <glyph glyph-name="at" unicode="@" horiz-adv-x="2019" 
d="M838 -428q-137 0 -267 45t-234.5 144.5t-166 262.5t-61.5 398q0 188 53.5 360.5t151 317.5t230 253t291.5 167.5t335 59.5q190 0 329.5 -69t230.5 -183t135.5 -251.5t44.5 -274.5q0 -121 -34.5 -239t-102.5 -214.5t-168 -154t-231 -57.5q-74 0 -120 26t-69.5 68.5
t-27.5 92.5t6 96l144 620h211l-151 -628q-4 -15 -11.5 -43t-12 -61.5t0 -64.5t25 -50.5t63.5 -19.5q99 0 181.5 52.5t143.5 142t94.5 202t33.5 232.5q0 134 -42.5 267t-130.5 243t-223 176.5t-320 66.5q-170 0 -325 -58.5t-284.5 -164t-224.5 -247.5t-147.5 -310.5
t-52.5 -352.5q0 -229 59.5 -387t160 -254.5t226 -140t257.5 -43.5q161 0 291 32t234.5 96.5t189.5 162.5l17 -16q-126 -147 -306.5 -223.5t-425.5 -76.5zM852 141q-84 0 -151 37.5t-105.5 109.5t-38.5 174q0 108 39 214t105.5 192.5t150.5 138.5t174 52q64 0 104.5 -30.5
t63 -81t31 -111.5t8.5 -123q0 -108 -30.5 -210t-83 -184t-121.5 -130t-146 -48zM896 186q60 0 116.5 44t101.5 119t71.5 168.5t26.5 192.5q0 32 -3.5 81.5t-17 100t-43.5 84.5t-85 34q-52 0 -102.5 -54.5t-91 -142t-64 -190t-23.5 -198.5q0 -61 11 -115.5t36.5 -89
t66.5 -34.5z" />
    <glyph glyph-name="A" unicode="A" horiz-adv-x="1476" 
d="M72 0l882 1529h53l190 -1529h-244l-128 1258l-725 -1258h-28zM-91 0v25h440v-25h-440zM723 0v25h614v-25h-614zM370 477v25h658v-25h-658z" />
    <glyph glyph-name="B" unicode="B" horiz-adv-x="1282" 
d="M-91 0v25h185l338 1450h-173v25h576q247 0 352 -70.5t105 -225.5q0 -82 -40 -155.5t-110.5 -131t-163 -95.5t-197.5 -50q123 -7 213 -41t139 -97.5t49 -159.5q0 -112 -50.5 -200t-138.5 -149.5t-203 -93t-245 -31.5h-636zM318 25h227q86 0 156.5 39.5t121 109t78.5 158.5
t28 188q0 89 -29 141t-82 74t-126 22h-252l6 26h239q57 0 122 29.5t122.5 87t93.5 142t36 194.5q0 67 -22.5 121.5t-72.5 86t-130 31.5h-178z" />
    <glyph glyph-name="C" unicode="C" horiz-adv-x="1352" 
d="M633 -20q-158 0 -276 64.5t-183.5 183.5t-65.5 282q0 205 70 387.5t191.5 322.5t279.5 220t335 80q121 0 214 -50t141.5 -147.5t36.5 -240.5h-14q8 105 -18 181.5t-75.5 126.5t-116 74t-139.5 24q-105 0 -194 -49.5t-161.5 -136t-128.5 -197.5t-93.5 -234.5t-57 -248.5
t-19.5 -237q0 -101 31.5 -186t97.5 -136.5t170 -51.5q130 0 240.5 54t194 146t133.5 207h16q-46 -123 -135 -222.5t-210 -157.5t-264 -58zM1119 0l-75 139q38 39 77 83t75 112l30 84h25l-110 -418h-22zM1362 1082l7 71q-4 60 -17 109.5t-42 94.5l153 143h21l-97 -418h-25z
" />
    <glyph glyph-name="D" unicode="D" horiz-adv-x="1424" 
d="M-71 0v25h592q105 0 193.5 48.5t161 132.5t128 191.5t92.5 226t56.5 235.5t19.5 219q0 69 -16 139t-51.5 128.5t-96 94t-150.5 35.5h-609v25h618q163 0 289 -59t198 -174t72 -283q0 -201 -69.5 -379.5t-192.5 -314t-285 -213t-347 -77.5h-603zM108 0l341 1500h224
l-341 -1500h-224z" />
    <glyph glyph-name="E" unicode="E" horiz-adv-x="1181" 
d="M79 0l348 1500h223l-348 -1500h-223zM-91 0v25h695q137 0 231.5 53.5t154 149t93.5 222.5h25l-104 -450h-1095zM755 548q11 67 -8.5 115t-61 74t-98.5 26h-139v25h139q57 0 112 24t97 69.5t62 112.5h24l-102 -446h-25zM1211 1090q21 107 3 194.5t-81.5 139t-180.5 51.5
h-705v25h1085l-96 -410h-25z" />
    <glyph glyph-name="F" unicode="F" horiz-adv-x="1138" 
d="M79 0l348 1500h223l-348 -1500h-223zM-91 0v25h594v-25h-594zM763 525q11 67 -8.5 113.5t-70.5 71t-136 24.5h-103v25h103q84 0 149 21.5t107.5 65.5t59.5 111h25l-101 -432h-25zM1188 1090q21 107 4 194.5t-80 139t-180 51.5h-685v25h1062l-96 -410h-25z" />
    <glyph glyph-name="G" unicode="G" horiz-adv-x="1493" 
d="M633 -20q-156 0 -274 63.5t-184.5 182t-66.5 284.5t46.5 316.5t129.5 277t194.5 220t242.5 145t272 51.5q120 0 214.5 -50t143.5 -147.5t36 -240.5h-14q9 103 -17 179.5t-76 126t-117 74.5t-142 25q-126 0 -230.5 -69.5t-185 -185.5t-135 -259.5t-83 -294.5t-28.5 -287
q0 -102 23.5 -190t80 -142t155.5 -54q86 0 151.5 29.5t112 72t76 83t42.5 60.5l83 317h242l-62 -237q-34 -47 -90.5 -107t-136 -115.5t-180.5 -91.5t-223 -36zM900 557v25h568v-25h-568zM1373 1082l8 67q-2 53 -16 109t-46 103l155 139h21l-97 -418h-25z" />
    <glyph glyph-name="H" unicode="H" horiz-adv-x="1471" 
d="M418 727v25h720v-25h-720zM819 1475h-173l-328 -1450h171v-25h-570v25h175l329 1450h-174v25h570v-25zM1662 1500v-25h-176l-328 -1450h174v-25h-571v25h173l329 1450h-172v25h571z" />
    <glyph glyph-name="I" unicode="I" horiz-adv-x="731" 
d="M139 0l340 1500h223l-340 -1500h-223zM-81 0v25h674v-25h-674zM249 1475v25h674v-25h-674z" />
    <glyph glyph-name="J" unicode="J" horiz-adv-x="911" 
d="M200 -61q-81 0 -140.5 33.5t-91.5 86.5t-32 110q0 46 18.5 79t48.5 50t65 17q29 0 59 -14.5t50.5 -44t20.5 -74.5q0 -41 -18.5 -69.5t-48 -42.5t-63.5 -14q-30 0 -60 14.5t-50 40t-20 58.5h23q1 -39 18 -75.5t47.5 -65t72 -45.5t90.5 -17q62 0 101.5 48t69.5 140.5
t61 225.5l260 1120h222l-260 -1160q-33 -58 -77.5 -126.5t-99.5 -131t-121.5 -103t-144.5 -40.5zM417 1475v25h686v-25h-686z" />
    <glyph glyph-name="K" unicode="K" horiz-adv-x="1392" 
d="M269 434l1032 1064h35l-1031 -1064h-36zM-81 0v25h570v-25h-570zM618 0v25h647v-25h-647zM89 0l340 1500h223l-340 -1500h-223zM846 0l-250 763l175 171l326 -934h-251zM249 1475v25h576v-25h-576zM1033 1475v25h480v-25h-480z" />
    <glyph glyph-name="L" unicode="L" horiz-adv-x="1158" 
d="M79 0l348 1500h223l-348 -1500h-223zM-91 0v25h681q157 0 251 53.5t147 149t86 222.5h25l-104 -450h-1086zM247 1475v25h583v-25h-583z" />
    <glyph glyph-name="M" unicode="M" horiz-adv-x="1721" 
d="M651 -20l-236 1520h225l194 -1193l666 1193h28l-849 -1520h-28zM-51 0v25h320v-25h-320zM86 0l312 1475h-149v25h179l-316 -1500h-26zM1059 0v25h523v-25h-523zM1199 0l320 1500h343v-25h-127l-313 -1475h-223z" />
    <glyph glyph-name="N" unicode="N" horiz-adv-x="1463" 
d="M1079 -20l-620 1520h269l450 -1129l258 1129h26l-346 -1520h-37zM-71 0v25h454v-25h-454zM117 0l331 1475h-199v25h230l-336 -1500h-26zM1196 1475v25h459v-25h-459z" />
    <glyph glyph-name="O" unicode="O" horiz-adv-x="1450" 
d="M610 -20q-236 0 -369 143t-133 387q0 167 46 318t127.5 277.5t188.5 219.5t229.5 144t249.5 51q147 0 260.5 -64.5t177.5 -183.5t64 -282q0 -209 -67.5 -392t-185.5 -322t-269.5 -217.5t-318.5 -78.5zM610 3q93 0 173 50t146 137.5t117 200.5t86 239t53 253t18 243
q0 63 -12.5 128t-41.5 120t-78 89t-122 34q-88 0 -165.5 -50t-143.5 -137.5t-118.5 -200.5t-89.5 -239t-56 -253t-19 -243q0 -103 22.5 -187.5t78 -134t152.5 -49.5z" />
    <glyph glyph-name="P" unicode="P" horiz-adv-x="1245" 
d="M370 663l6 24h262q100 0 177 46.5t130 121.5t80.5 162t27.5 169q0 44 -8.5 94.5t-32 94.5t-65.5 72t-109 28h-192l-338 -1450h195v-25h-584v25h165l339 1450h-174v25h603q131 0 233.5 -35.5t161.5 -111t59 -195.5q0 -150 -79.5 -261.5t-226.5 -172.5t-348 -61h-282z" />
    <glyph glyph-name="Q" unicode="Q" horiz-adv-x="1442" 
d="M610 -20q-236 0 -369 143t-133 387q0 167 46 318t127.5 277.5t188.5 219.5t229.5 144t249.5 51q147 0 260.5 -64.5t177.5 -183.5t64 -282q0 -209 -67.5 -392t-185.5 -322t-269.5 -217.5t-318.5 -78.5zM879 -500q-201 0 -304 53.5t-122.5 165t30.5 284.5q62 -16 131 -15.5
t133 15.5q-37 -136 -44.5 -228.5t12 -147t61.5 -78.5t103 -24v-25zM610 3q93 0 173 50t146 137.5t117 200.5t86 239t53 253t18 243q0 62 -12.5 127t-41.5 120.5t-78 89.5t-122 34q-88 0 -165.5 -50t-143.5 -137.5t-118.5 -200.5t-89.5 -239t-56 -253t-19 -243
q0 -102 22.5 -186.5t78 -134.5t152.5 -50z" />
    <glyph glyph-name="R" unicode="R" horiz-adv-x="1458" 
d="M119 0l350 1500h223l-349 -1500h-224zM-79 0v25h641v-25h-641zM1130 -11q-92 0 -141.5 32.5t-69 87.5t-21 123t3 141t3 141t-21.5 123t-69 87.5t-141 32.5h-211v14h265q150 0 236 -40t125.5 -107t49.5 -146.5t5.5 -159t-7.5 -146t13 -107t68 -40.5q30 0 53 7t46 16l8 -25
q-54 -20 -95 -27t-99 -7zM462 767v16h266q82 0 147 27.5t113 74t79.5 104.5t47 120t15.5 120q0 36 -6.5 79t-27.5 81t-62.5 62t-112.5 24h-670v25h690q131 0 229.5 -29t153.5 -95t55 -176q0 -140 -75.5 -236.5t-218 -146.5t-343.5 -50h-280z" />
    <glyph glyph-name="S" unicode="S" horiz-adv-x="1132" 
d="M479 -29q-117 0 -197.5 34t-130 94t-74 139t-30.5 169h25q5 -84 27 -158.5t67.5 -131t120 -88.5t183.5 -32q105 0 190 40t135 112t50 167q0 89 -33.5 149.5t-88 102t-120 74.5t-130.5 67t-120 79t-88 110t-33 161q0 115 47.5 201t122.5 144t159.5 87t158.5 29
q128 0 215.5 -51t133.5 -145.5t51 -225.5h-25q-4 124 -46 212t-122 135.5t-199 47.5q-76 0 -148 -33.5t-119 -94.5t-47 -144q0 -79 33.5 -131.5t88.5 -89t121 -68t132 -68t120.5 -88t88 -129t33.5 -191.5q0 -104 -44 -193t-121 -154.5t-176.5 -101.5t-210.5 -36zM-51 -20
l98 427h25l5 -101q13 -51 28 -93.5t36 -78.5l-171 -154h-21zM1095 1098l4 75q-10 52 -25 101.5t-48 103.5l165 142h22l-93 -422h-25z" />
    <glyph glyph-name="T" unicode="T" horiz-adv-x="1291" 
d="M413 0l348 1500h224l-348 -1500h-224zM201 0v25h664v-25h-664zM149 1042l105 458h1238l-105 -458h-26q26 127 20 224.5t-59 153t-167 55.5h-584q-86 0 -149.5 -32t-110 -90t-80 -137t-58.5 -174h-24z" />
    <glyph glyph-name="U" unicode="U" horiz-adv-x="1392" 
d="M624 -29q-163 0 -272.5 54t-151.5 162.5t-4 272.5l240 1040h224l-240 -1020q-22 -94 -24 -179.5t22.5 -153t82.5 -106t156 -38.5q136 0 232.5 51.5t159 153.5t97.5 252l239 1040h26l-241 -1040q-36 -157 -103.5 -266.5t-176 -166t-266.5 -56.5zM246 1475v25h604v-25h-604
zM1183 1475v25h400v-25h-400z" />
    <glyph glyph-name="V" unicode="V" horiz-adv-x="1476" 
d="M569 -27l-190 1527h243l127 -1255l723 1255h28l-878 -1527h-53zM239 1475v25h613v-25h-613zM1227 1475v25h450v-25h-450z" />
    <glyph glyph-name="W" unicode="W" horiz-adv-x="2001" 
d="M1113 -20l-135 1520h224l105 -1209l697 1209h28l-876 -1520h-43zM553 -20l-136 1520h233l104 -1209l322 560h27l-500 -871h-50zM239 1475v25h1495v-25h-1495zM1166 834l384 666h27l-384 -666h-27zM1827 1475v25h383v-25h-383z" />
    <glyph glyph-name="X" unicode="X" horiz-adv-x="1480" 
d="M961 0l-512 1500h255l520 -1500h-263zM-101 0v25h480v-25h-480zM102 0l684 834h33l-684 -834h-33zM769 0v25h593v-25h-593zM309 1475v25h593v-25h-593zM778 754l598 742h32l-596 -742h-34zM1159 1475v25h440v-25h-440z" />
    <glyph glyph-name="Y" unicode="Y" horiz-adv-x="1464" 
d="M503 0l170 754l-294 746h255l258 -727l585 723h31l-617 -765l-164 -731h-224zM323 0v25h604v-25h-604zM239 1475v25h612v-25h-612zM1245 1475v25h420v-25h-420z" />
    <glyph glyph-name="Z" unicode="Z" horiz-adv-x="1129" 
d="M-101 0v25l1081 1450h-337q-137 0 -221 -36t-133 -108t-80 -179h-24l82 348h994v-25l-1081 -1450h396q136 0 220.5 38.5t134.5 118.5t87 206h24l-90 -388h-1053z" />
    <glyph glyph-name="bracketleft" unicode="[" horiz-adv-x="689" 
d="M-20 -300l420 1861h500v-26h-299l-406 -1810h285v-25h-500z" />
    <glyph glyph-name="backslash" unicode="\" horiz-adv-x="1039" 
d="M793 -300l-434 1861h27l434 -1861h-27z" />
    <glyph glyph-name="bracketright" unicode="]" horiz-adv-x="669" 
d="M-191 -301v26h298l407 1810h-285v25h499l-420 -1861h-499z" />
    <glyph glyph-name="asciicircum" unicode="^" horiz-adv-x="1089" 
d="M438 1242l-18 18l340 280h131l218 -280l-16 -17l-277 202z" />
    <glyph glyph-name="underscore" unicode="_" horiz-adv-x="1119" 
d="M-10 -312v24h1140v-24h-1140z" />
    <glyph glyph-name="grave" unicode="`" horiz-adv-x="1000" 
d="M964 1685l-269 118q-25 10 -39.5 31.5t-16 47t11.5 45.5q9 14 25 24.5t36 12.5t40 -5.5t38 -28.5l188 -229z" />
    <glyph glyph-name="a" unicode="a" horiz-adv-x="1103" 
d="M314 -20q-134 0 -194.5 87t-60.5 238q0 115 42.5 227.5t114.5 204.5t158.5 147.5t174.5 55.5q70 0 108.5 -38.5t53.5 -102t15 -137.5q0 -63 -13 -137.5t-38.5 -151t-61.5 -147t-82 -126t-100.5 -88t-116.5 -32.5zM361 31q53 0 103.5 40t94.5 107.5t77 150t51.5 169
t18.5 164.5q0 68 -12 120.5t-39 82t-73 29.5q-49 0 -97.5 -44.5t-92.5 -118.5t-78 -163t-53.5 -179t-19.5 -166q0 -96 32.5 -144t87.5 -48zM756 -20q-75 0 -110.5 39.5t-35.5 102.5q0 17 1 31t3 24l28 148l48 153l28 169l66 273h197l-222 -833q-4 -15 -4 -31
q0 -17 8.5 -27.5t29.5 -10.5q44 0 84.5 29t81 94.5t83.5 174.5l24 -8q-44 -114 -89 -186.5t-98 -107t-123 -34.5z" />
    <glyph glyph-name="b" unicode="b" horiz-adv-x="1000" 
d="M369 -20q-81 0 -142 37.5t-103.5 97t-66.5 125.5l332 1235h-160v25h353l-357 -1326q0 -74 27 -120t99 -46q64 0 122.5 44t107 117t84 161.5t55 181.5t19.5 174q0 101 -34 156.5t-93 55.5q-58 0 -106 -38.5t-86.5 -103.5t-68.5 -145.5t-54 -164.5h-22q32 113 69.5 204
t82 155.5t99.5 98.5t122 34q126 0 202.5 -98.5t76.5 -258.5q0 -117 -44 -225t-122 -192.5t-178.5 -134t-213.5 -49.5z" />
    <glyph glyph-name="c" unicode="c" horiz-adv-x="902" 
d="M365 -20q-148 0 -226.5 87.5t-78.5 229.5q0 117 44 230.5t121.5 207t176.5 149.5t209 56q84 0 145 -32t94 -77.5t33 -88.5q0 -58 -33.5 -92t-82.5 -34q-42 0 -76.5 26.5t-34.5 82.5q0 47 31.5 79t75.5 32q31 0 57.5 -8.5t43.5 -29t17 -56.5h-23q0 38 -30 76.5t-80.5 64.5
t-113.5 26q-69 0 -130 -48t-110 -128t-84 -174.5t-54 -188.5t-19 -170q0 -85 38.5 -135.5t113.5 -50.5q82 0 153 34.5t128 93.5t99 130l22 -13q-41 -74 -102.5 -137.5t-142.5 -102.5t-181 -39z" />
    <glyph glyph-name="d" unicode="d" horiz-adv-x="1112" 
d="M756 -20q-75 0 -110.5 39.5t-35.5 102.5q0 9 0.5 24t3.5 31l28 148l58 165l9 121l232 864h-166v25h361l-377 -1412q-4 -16 -4 -32q0 -15 8.5 -27t29.5 -12q45 0 85 29t80.5 95t83.5 175l24 -8q-44 -114 -88.5 -186.5t-98 -107t-123.5 -34.5zM315 -20q-134 0 -195 87
t-61 238q0 115 42.5 227.5t114.5 204.5t158.5 147.5t174.5 55.5q69 0 107.5 -37.5t54 -101t15.5 -139.5q0 -63 -13 -137.5t-38 -151t-61 -147t-82 -126t-100.5 -88t-116.5 -32.5zM361 31q53 0 103.5 40t94.5 107t77 150t51.5 169.5t18.5 164.5q0 68 -12 120.5t-39 82
t-73 29.5q-49 0 -97.5 -44.5t-92.5 -118.5t-78 -163t-53.5 -179t-19.5 -166q0 -95 31.5 -143.5t88.5 -48.5z" />
    <glyph glyph-name="e" unicode="e" horiz-adv-x="939" 
d="M360 -20q-100 0 -167.5 41t-102.5 113t-35 166q0 117 43.5 231t121 206.5t181.5 147.5t225 55q118 0 183 -56t65 -138q0 -79 -53.5 -141.5t-144 -106.5t-204.5 -69.5t-236 -33.5v21q83 6 155 26.5t130 54t99.5 79.5t63.5 103t22 123q0 44 -18.5 78.5t-64.5 34.5
q-54 0 -103.5 -34.5t-93 -94t-79.5 -134t-62 -155.5t-40 -160t-14 -145q0 -102 43 -140.5t109 -38.5q80 0 150.5 33.5t128.5 91.5t102 133l22 -13q-41 -74 -102 -137.5t-142 -102t-182 -38.5z" />
    <glyph glyph-name="f" unicode="f" horiz-adv-x="718" 
d="M-167 -520q-79 0 -131.5 29t-78.5 73t-26 88q0 59 34.5 92.5t83.5 33.5q47 0 82 -28.5t35 -84.5q0 -36 -17 -62t-45 -39.5t-58 -13.5q-27 0 -53 12t-43 35t-17 55h24q0 -35 22 -73.5t67 -65t114 -26.5q56 0 96 33t69.5 93.5t52 140t44.5 172.5l249 1079q23 98 60 187
t91 159t127.5 110.5t168.5 40.5q79 0 131.5 -29t78.5 -72.5t26 -88.5q0 -58 -33.5 -92t-83.5 -34q-46 0 -82.5 29t-36.5 84q0 35 16.5 60.5t43.5 40t59 14.5q19 0 39.5 -7t37.5 -20t27.5 -32t10.5 -43h-24q0 35 -21.5 73t-66.5 65t-113 27q-55 0 -94.5 -33.5t-68 -93.5
t-51.5 -140t-45 -174l-253 -1077q-23 -97 -60 -186t-90.5 -159.5t-127.5 -111t-170 -40.5zM115 895v25h657v-25h-657z" />
    <glyph glyph-name="g" unicode="g" horiz-adv-x="1189" 
d="M300 -520q-145 0 -233 33t-127 89t-39 123q0 58 34.5 107.5t87.5 87t109.5 58.5t101.5 21h34q-64 -9 -111 -47.5t-73 -98t-26 -129.5q0 -100 58.5 -158t180.5 -58q118 0 220 28t177.5 76.5t118 112.5t42.5 136q0 57 -38.5 82t-105.5 25h-60.5h-93.5h-103h-89.5h-51.5
q-90 0 -156.5 24.5t-103 68t-36.5 102.5q0 50 28 91.5t77 71.5t114.5 46.5t140.5 16.5l-2 -15q-98 0 -147.5 -43t-49.5 -89q0 -43 30 -66.5t75 -32t91 -8.5q35 0 85.5 0.5t99.5 1t77 0.5q116 0 193 -48t77 -173q0 -109 -53.5 -191t-143 -136.5t-196.5 -81.5t-213 -27z
M518 320q-86 0 -154 33t-107 94t-39 146q0 96 55.5 174.5t147 125t197.5 46.5q86 0 153.5 -35t107 -98.5t39.5 -148.5q0 -95 -56 -171.5t-146.5 -121t-197.5 -44.5zM493 346q38 0 75.5 28.5t71.5 76.5t59.5 105t40.5 114.5t15 104.5q0 59 -27 98.5t-85 39.5q-38 0 -76 -28.5
t-71.5 -76t-59.5 -104.5t-41 -114.5t-15 -104.5q0 -59 27.5 -99t85.5 -40zM1043 930q57 0 95 -35t38 -94q0 -45 -27.5 -77.5t-73.5 -32.5q-41 0 -72 26t-31 72q0 40 25 64.5t59 29.5q26 -3 48 -16.5t34 -38.5q-9 37 -38.5 57t-65.5 20q-46 0 -85 -24t-73.5 -70t-67.5 -112
l-18 10q53 111 114 166t139 55z" />
    <glyph glyph-name="h" unicode="h" horiz-adv-x="1129" 
d="M28 0l395 1475h-158v25h356l-400 -1500h-193zM762 -20q-73 0 -117 35.5t-44 95.5q0 17 5 39t12 47l123 423q24 83 33 143t-6 91.5t-62 31.5q-45 0 -103 -50.5t-117 -138t-110.5 -199t-84.5 -232.5h-14q21 82 57 174.5t83.5 181t104.5 160t119.5 114.5t127.5 43
q86 0 130.5 -41t53 -109t-15.5 -150l-156 -544q-2 -8 -3.5 -17.5t-1.5 -17.5q0 -39 37 -39q70 0 129 70t120 225l24 -8q-45 -116 -91 -188.5t-102 -106t-131 -33.5z" />
    <glyph glyph-name="i" unicode="i" horiz-adv-x="591" 
d="M230 -20q-83 0 -121.5 35.5t-38.5 94.5q0 18 3 36.5t7 34.5l203 714h-148v25h339l-233 -831q-2 -8 -3 -16.5t-1 -16.5q0 -15 8 -26.5t28 -11.5q46 0 86.5 28.5t80.5 94.5t84 175l24 -8q-44 -114 -89 -186.5t-99.5 -107t-129.5 -34.5zM473 1242q-37 0 -67 18.5t-48 49.5
t-18 67q0 37 18 67.5t48 48.5t67 18t68 -18t49 -48.5t18 -67.5q0 -36 -18 -67t-49 -49.5t-68 -18.5z" />
    <glyph glyph-name="j" unicode="j" horiz-adv-x="527" 
d="M-224 -520q-54 0 -102.5 19.5t-78.5 55t-30 82.5q0 40 16.5 67.5t43 41.5t58.5 14q51 0 84.5 -30.5t33.5 -81.5q0 -42 -29.5 -76t-84.5 -34q-48 0 -84 28.5t-36 70.5h23q0 -37 26.5 -67t69.5 -48.5t93 -18.5q70 0 116 54t79 146.5t62 209.5l242 982h-135v25h332
l-242 -943q-25 -99 -69 -188.5t-103 -159t-130.5 -109.5t-154.5 -40zM459 1251q-55 0 -94.5 40t-39.5 95q0 56 39.5 95t94.5 39q56 0 94.5 -39t38.5 -95q0 -55 -38.5 -95t-94.5 -40z" />
    <glyph glyph-name="k" unicode="k" horiz-adv-x="1023" 
d="M28 0l396 1475h-178v25h375l-412 -1500h-181zM650 -20q-70 0 -106.5 35t-36.5 103q0 13 2 29.5t6 29.5l25 106q10 41 23 89.5t16.5 92.5t-15 72.5t-70.5 28.5q-65 0 -100 -31t-52.5 -74.5t-28.5 -80.5h-15q22 90 55 134t73 58.5t83 14.5q55 0 98.5 -19t72 -59.5
t36.5 -104.5t-6 -154l-35 -171q-1 -5 -1.5 -11t-0.5 -9q0 -34 37 -34q42 0 86.5 32t88.5 99t86 172l24 -9q-66 -168 -148.5 -253.5t-196.5 -85.5zM420 462q-23 0 -43.5 6t-32.5 15l10 24q11 -10 26.5 -15.5t39.5 -5.5q42 0 72.5 33t56 86.5t52.5 115.5q43 102 99.5 160
t140.5 58q46 0 80.5 -20.5t54 -57t19.5 -84.5q0 -54 -35 -87t-78 -33q-45 0 -77 28.5t-32 81.5q0 45 30.5 74.5t74.5 29.5q25 0 51.5 -11.5t45 -32t18.5 -50.5h-24q0 40 -15 71t-44 49.5t-70 18.5q-71 0 -122.5 -53t-91.5 -148q-27 -66 -56 -124t-65 -93.5t-85 -35.5z" />
    <glyph glyph-name="l" unicode="l" horiz-adv-x="589" 
d="M216 -20q-84 0 -124.5 36t-40.5 94q0 22 3 40t8 31l349 1294h-186v25h378l-380 -1412q-2 -9 -3 -18t-1 -16q0 -36 37 -36q45 0 85.5 29t81 94.5t83.5 174.5l24 -8q-44 -114 -89 -186.5t-99.5 -107t-125.5 -34.5z" />
    <glyph glyph-name="m" unicode="m" horiz-adv-x="1646" 
d="M1270 -20q-84 0 -120.5 38t-36.5 98q0 22 5 43t9 38l123 419q38 133 40 204.5t-51 71.5q-58 0 -118 -54t-116 -144t-101.5 -201.5t-75.5 -226.5h-18q30 114 76 232.5t107.5 218.5t135 161t156.5 61q89 0 131 -41.5t46.5 -109.5t-18.5 -149l-158 -547q-4 -10 -5.5 -21
t-1.5 -21q0 -14 9.5 -23.5t26.5 -9.5q44 0 85 28.5t82.5 94.5t83.5 176l24 -8q-44 -116 -89.5 -188.5t-100.5 -106t-130 -33.5zM46 0l217 895h-134v25h328l-223 -920h-188zM576 0l152 616q33 135 37.5 206t-48.5 71q-57 0 -119 -54t-119.5 -144.5t-104.5 -202t-76 -226.5
h-18q29 114 77 232.5t111 218.5t138.5 161t160.5 61q82 0 122 -41.5t46.5 -109.5t-13.5 -149l-159 -639h-187z" />
    <glyph glyph-name="n" unicode="n" horiz-adv-x="1150" 
d="M763 -20q-81 0 -121.5 33.5t-40.5 99.5q0 22 4.5 42.5t8.5 35.5l131 429q24 77 33.5 137.5t-5.5 95t-63 34.5q-45 0 -103 -52.5t-117.5 -141t-111 -199.5t-81.5 -228h-18q21 81 57 172.5t84 180t105.5 161.5t119.5 116t126 43q86 0 131.5 -41t54.5 -109t-15 -150
l-160 -544q-3 -9 -4.5 -19t-1.5 -18q0 -15 8 -26t27 -11q73 0 131.5 70t120.5 225l23 -8q-45 -116 -91 -188.5t-102 -106t-130 -33.5zM37 0l228 895h-137v25h336l-235 -920h-192z" />
    <glyph glyph-name="o" unicode="o" horiz-adv-x="991" 
d="M368 -20q-154 0 -231 89t-77 229q0 129 44.5 245t122 205t177 140.5t209.5 51.5q155 0 232 -90.5t77 -229.5q0 -129 -44.5 -244.5t-121.5 -204.5t-177 -140t-211 -51zM355 5q51 0 100.5 35.5t94 97.5t82.5 140t66 164t43.5 170t15.5 156q0 68 -32 107t-100 39
q-50 0 -99.5 -35.5t-94.5 -97.5t-83 -140t-66 -164t-43.5 -170t-15.5 -156q0 -68 32.5 -107t99.5 -39z" />
    <glyph glyph-name="p" unicode="p" horiz-adv-x="1110" 
d="M-59 -500l374 1395h-136v25h305l-81 -344l-44 -160l-11 -89l-219 -827h-188zM-205 -500v25h505v-25h-505zM473 26q49 0 98 44.5t92.5 118.5t77.5 164t53.5 181t19.5 169q0 87 -29.5 136.5t-89.5 49.5q-53 0 -103.5 -40t-94 -107t-76.5 -150t-52 -169.5t-19 -164.5
q0 -102 28 -167t95 -65zM508 -20q-70 0 -109 38.5t-54 102t-15 137.5q0 63 13 137.5t38 151t61.5 147t82 126t100 88t117.5 32.5q133 0 194 -87t61 -238q0 -115 -43 -227.5t-114.5 -204.5t-158 -147.5t-173.5 -55.5z" />
    <glyph glyph-name="q" unicode="q" horiz-adv-x="1014" 
d="M408 -500l219 810q17 42 38.5 96t32.5 100l4 85l83 309l195 40l-387 -1440h-185zM252 -500v25h516v-25h-516zM306 -20q-133 0 -194 87t-61 238q0 115 43 227.5t114.5 204.5t158 147.5t174.5 55.5q69 0 107.5 -37.5t54.5 -101t16 -139.5q0 -63 -13.5 -138t-38.5 -151
t-61.5 -146.5t-82.5 -126t-100 -88t-117 -32.5zM354 31q52 0 102.5 39.5t94.5 106.5t77 150t51.5 170t18.5 165q0 68 -11.5 120.5t-39 82t-73.5 29.5q-48 0 -97 -45.5t-92.5 -119.5t-77.5 -164.5t-54 -181t-20 -166.5q0 -87 31.5 -136.5t89.5 -49.5z" />
    <glyph glyph-name="r" unicode="r" horiz-adv-x="875" 
d="M37 0l224 895h-155v25h338l-221 -920h-186zM282 314q18 77 44.5 163t61.5 168t78.5 148.5t96 106t113.5 39.5q68 0 107.5 -38t39.5 -94q0 -52 -30.5 -89t-83.5 -37q-51 0 -84 32t-33 81q0 47 31.5 78t85.5 31q47 0 79.5 -26t32.5 -70l-24 1q0 45 -31.5 76t-88.5 31
q-59 0 -109 -39t-91.5 -104t-75.5 -144.5t-60 -161t-43 -152.5h-16z" />
    <glyph glyph-name="s" unicode="s" horiz-adv-x="841" 
d="M371 -20q-91 0 -168.5 27.5t-126 80t-48.5 126.5q0 48 30.5 83.5t82.5 35.5q46 0 76 -31t30 -80q0 -52 -33 -78.5t-76 -26.5q-29 0 -53.5 11t-39.5 32.5t-15 53.5h33q0 -68 41.5 -114.5t110.5 -70t149 -23.5q55 0 110.5 19t93 58t37.5 98q0 54 -32.5 95.5t-84 76
t-109.5 67t-109.5 69t-84 82.5t-32.5 109q0 74 44 133t123 92.5t182 33.5q95 0 159 -28t96.5 -70.5t32.5 -85.5q0 -58 -31 -85t-70 -27q-42 0 -75 27t-33 80q0 42 29.5 72.5t75.5 30.5q42 0 72 -27.5t30 -70.5h-28q0 39 -30 75.5t-86 60t-135 23.5q-52 0 -101.5 -16.5
t-82 -50t-32.5 -85.5q0 -50 32 -87.5t83 -68.5t108.5 -62.5t108.5 -69.5t83 -88.5t32 -121.5q0 -88 -52.5 -151.5t-137 -98t-179.5 -34.5z" />
    <glyph glyph-name="t" unicode="t" horiz-adv-x="661" 
d="M278 -20q-66 0 -107 20t-59.5 52t-18.5 67q0 18 5.5 48t13.5 60l241 893h188l-279 -1018q-3 -11 -6 -24t-3 -27q0 -36 56 -36q42 0 83 19.5t79.5 58.5t74.5 99t69 141l24 -7q-44 -111 -96.5 -188.5t-117.5 -117.5t-147 -40zM99 895v25h568v-25h-568z" />
    <glyph glyph-name="u" unicode="u" horiz-adv-x="1145" 
d="M252 -20q-93 0 -138 41t-50.5 109.5t14.5 151.5l151 613h-133v25h337l-158 -619q-20 -78 -29.5 -139t4.5 -95.5t64 -34.5q44 0 104 52.5t121.5 141.5t113.5 200t81 228h20q-20 -81 -56.5 -173t-86 -181t-108 -161.5t-122.5 -115.5t-129 -43zM770 -20q-84 0 -124.5 40
t-40.5 90q0 13 3 32t7 35l186 743h196l-223 -831q-2 -9 -3 -18.5t-1 -16.5q0 -36 34 -36q46 0 87.5 29t81.5 94.5t84 174.5l23 -8q-44 -114 -89.5 -186.5t-98.5 -107t-122 -34.5z" />
    <glyph glyph-name="v" unicode="v" horiz-adv-x="1029" 
d="M421 -20q-96 0 -153 33.5t-75 96.5t3 152l136 568q2 9 4 19.5t2 17.5q0 16 -9.5 25t-27.5 9q-34 0 -65.5 -18.5t-61.5 -54.5t-58 -89t-55 -124l-23 7q28 73 58 131.5t66 100t80.5 63.5t99.5 22q77 0 122.5 -41.5t45.5 -101.5q0 -22 -4 -41.5t-6 -33.5l-107 -459
q-19 -84 -25 -138.5t12 -81t69 -26.5q63 0 129.5 46.5t128 124.5t111 173.5t78 196t28.5 188.5q0 56 -16 93t-44.5 56t-64.5 19v23q36 0 65.5 -16t46.5 -44.5t17 -67.5q0 -53 -38.5 -89.5t-90.5 -36.5q-58 0 -92 35t-34 93q0 52 36 90t90 38q44 0 78 -22.5t53 -65.5t19 -105
q0 -91 -30 -195.5t-82 -205t-120 -183.5t-143.5 -132t-152.5 -49z" />
    <glyph glyph-name="w" unicode="w" horiz-adv-x="1469" 
d="M896 -20q-67 0 -118.5 20.5t-83.5 65.5t-40.5 119.5t10.5 182.5l134 552h188l-134 -557q-15 -63 -30 -125.5t-17 -114t21.5 -82.5t84.5 -31q96 0 172 56.5t132.5 146t94 192.5t55.5 198.5t18 160.5q0 62 -29 105t-81 44v23q39 0 67 -20.5t42 -49.5t14 -56q0 -60 -37 -94
t-91 -34q-57 0 -93.5 34t-36.5 89q0 56 37.5 94.5t97.5 38.5t98.5 -50t38.5 -124q0 -66 -18 -165t-56.5 -206t-99 -201t-145 -153t-195.5 -59zM338 -20q-95 0 -145.5 40.5t-60.5 109.5t17 152l187 548q3 9 5.5 19.5t2.5 19.5q0 32 -36 32q-56 0 -100 -34.5t-81 -101
t-74 -161.5l-24 8q38 100 80 173.5t99.5 114t142.5 40.5q81 0 123 -32.5t42 -84.5q0 -22 -4 -47.5t-11 -46.5l-165 -477q-41 -118 -29 -175.5t69 -57.5q63 0 113 43t90.5 119.5t74 177t61.5 215.5h19q-22 -89 -47.5 -175t-57.5 -162t-73 -133.5t-94.5 -90.5t-123.5 -33z" />
    <glyph glyph-name="x" unicode="x" horiz-adv-x="1064" 
d="M712 -20q-80 0 -126 48t-69 125q-19 64 -46 157.5t-57.5 194.5t-58 190t-47.5 143q-6 16 -16 34.5t-37 18.5q-26 0 -56.5 -22.5t-61 -69t-56.5 -116.5l-23 10q51 133 116.5 189.5t160.5 56.5q80 0 121 -48t63 -125q20 -67 46 -154.5t55.5 -183t58.5 -186t56 -162.5
q6 -16 19.5 -32t39.5 -16q23 0 53 22.5t60 66.5t53 108l23 -10q-51 -133 -120.5 -186t-150.5 -53zM93 -20q-56 0 -92 24t-53 60t-17 71q0 57 34 93t94 36t90 -38.5t30 -81.5q0 -30 -13.5 -56.5t-40 -43t-66.5 -16.5q-26 0 -55.5 13.5t-50 37.5t-20.5 56h24q0 -51 36.5 -88.5
t105.5 -37.5q37 0 69.5 17t57.5 41t42 45q28 34 54.5 75t61 102t85.5 154l25 -11q-44 -76 -88.5 -155.5t-93 -147t-103 -108.5t-116.5 -41zM548 477l-25 12q51 85 97.5 165.5t93.5 145t99 102.5t114 38q55 0 89.5 -22.5t51.5 -57t17 -68.5q0 -57 -33.5 -92.5t-91.5 -35.5
q-62 0 -91 39.5t-29 82.5q0 41 30 77.5t88 36.5q25 0 54 -15t50 -39.5t21 -53.5h-24q0 48 -36.5 84.5t-104.5 36.5q-37 0 -69.5 -17.5t-58 -42t-42.5 -45.5q-26 -34 -52.5 -75.5t-61.5 -102t-86 -153.5z" />
    <glyph glyph-name="y" unicode="y" horiz-adv-x="1051" 
d="M113 -520q-70 0 -121 29t-79 80t-28 117q0 36 16.5 69t46.5 53.5t71 20.5q28 0 56.5 -12.5t47.5 -38.5t19 -67q0 -54 -34.5 -87.5t-78.5 -33.5q-30 0 -63 11t-56 32t-23 53h23q0 -61 24.5 -106.5t70 -70.5t107.5 -25q78 0 167.5 54.5t183 146t183 205.5t168 235.5
t138.5 235.5t94.5 205t34.5 144q0 40 -14 82.5t-45.5 72t-82.5 29.5v23q41 0 72.5 -18t49 -46t17.5 -59q0 -36 -19 -64.5t-49.5 -44t-67.5 -15.5q-64 0 -101 37t-37 88t38 87.5t97 36.5q63 0 100 -34t52.5 -83t15.5 -91q0 -56 -34.5 -150.5t-95.5 -211t-141 -240
t-171.5 -239t-187.5 -208.5t-189.5 -147.5t-174.5 -54.5zM637 -129q-36 63 -72 148.5t-69.5 182t-64.5 194t-56.5 185t-46.5 155.5t-35 104q-6 16 -19 30.5t-45 14.5q-37 0 -83 -43t-88 -159l-24 10q33 90 73 144t91 78t115 24q93 0 137.5 -49t65.5 -125q20 -67 44.5 -159.5
t56 -192.5t70 -194.5t86.5 -166.5q-17 -24 -32 -46t-31 -43t-34 -43.5t-39 -48.5z" />
    <glyph glyph-name="z" unicode="z" horiz-adv-x="870" 
d="M-78 -3l349 349l564 575l-344 -343zM-63 -20l-16 19q98 78 174.5 125t139.5 68t119 21q42 0 73.5 -15t59.5 -34.5t59 -34.5t71 -15q49 0 82.5 37.5t50.5 89t17 93.5h24q-3 -28 -21 -49t-44 -33t-54 -12q-27 0 -53 13t-43 37.5t-17 57.5q0 54 35.5 82.5t78.5 28.5
q33 0 60.5 -13.5t43.5 -41t16 -70.5t-21 -103t-60.5 -117.5t-93.5 -95.5t-119 -38q-48 0 -84.5 15.5t-70 35t-71 35t-87.5 15.5q-72 0 -136.5 -26.5t-112.5 -74.5zM59 552l91 387q54 -30 111.5 -47t112.5 -24t101 -7q36 0 84 3.5t98.5 11.5t93.5 23.5t68 39.5l19 -19
q-58 -47 -119.5 -90t-124 -76t-121.5 -52.5t-113 -19.5q-66 0 -127 24.5t-100 54.5l-49 -209h-25z" />
    <glyph glyph-name="braceleft" unicode="{" horiz-adv-x="571" 
d="M170 624v22q30 10 70.5 31.5t71.5 56t31 85.5q0 42 -6 73t-13.5 64t-13 77t-5.5 110q0 91 29.5 167.5t90 132.5t152 87t215.5 31v-30q-88 0 -149 -42.5t-92.5 -111.5t-31.5 -148q0 -56 5 -99.5t10 -94t5 -127.5q0 -66 -35 -115.5t-91 -84.5t-120 -56t-123 -28zM372 -300
q-131 0 -210.5 22.5t-115.5 72.5t-36 133q0 71 26.5 137t65 125.5t77 112t65 98.5t26.5 84q0 61 -27.5 88t-72.5 42v23q78 -10 132.5 -32t82 -63.5t27.5 -108.5q0 -75 -28.5 -145t-66 -135t-66 -125t-28.5 -116q0 -46 11.5 -88t43.5 -69.5t94 -27.5v-28z" />
    <glyph glyph-name="bar" unicode="|" horiz-adv-x="459" 
d="M20 -500l480 2061h24l-481 -2061h-23z" />
    <glyph glyph-name="braceright" unicode="}" horiz-adv-x="571" 
d="M-80 -301v30q88 0 149 42.5t92.5 111.5t31.5 148q0 56 -5 99.5t-10 94t-5 127.5q0 66 35 115.5t91 84.5t120.5 56t122.5 28v-22q-30 -10 -70.5 -31.5t-71.5 -56t-31 -85.5q0 -42 6 -73t13.5 -64t13 -77t5.5 -110q0 -91 -29.5 -167.5t-90 -132.5t-152 -87t-215.5 -31z
M542 622q-78 10 -132 32t-82 63.5t-28 108.5q0 75 28.5 145t66 135t66 125t28.5 116q0 46 -11.5 88t-43.5 69.5t-94 27.5v28q131 0 210.5 -22.5t115.5 -72.5t36 -133q0 -71 -26.5 -137t-65 -125.5t-77 -112t-65 -98.5t-26.5 -84q0 -61 27.5 -88t72.5 -42v-23z" />
    <glyph glyph-name="asciitilde" unicode="~" horiz-adv-x="1375" 
d="M995 678q-71 0 -121.5 19t-88.5 47t-72 56t-71.5 47t-87.5 19q-87 0 -143.5 -39t-84.5 -141h-31q22 115 67.5 191t111 113.5t147.5 37.5q66 0 111 -19t79 -47t65.5 -56t70.5 -47t95 -19q102 0 161 39t87 141h30q-21 -115 -66.5 -191t-111 -113.5t-147.5 -37.5z" />
    <glyph glyph-name="uni00A0" unicode="&#xa0;" horiz-adv-x="500" 
 />
    <glyph glyph-name="exclamdown" unicode="&#xa1;" horiz-adv-x="637" 
d="M151 -476q-58 0 -95.5 41.5t-27.5 104.5q11 66 38.5 151t64.5 182t77.5 199t76.5 202.5t61 191.5h23q-18 -90 -30.5 -180t-19.5 -179t-11 -174t-5.5 -166.5t-1.5 -157.5q0 -60 -16 -109t-49 -77.5t-85 -28.5zM439 790q-38 0 -68 18t-48.5 48.5t-18.5 68.5q0 37 18.5 68
t48.5 49t68 18t68.5 -18t48.5 -49t18 -68q0 -38 -18 -68.5t-48.5 -48.5t-68.5 -18z" />
    <glyph glyph-name="cent" unicode="&#xa2;" horiz-adv-x="934" 
d="M365 -20q-148 0 -226.5 87.5t-78.5 229.5q0 117 44 230.5t121.5 207t176.5 149.5t209 56q84 0 145 -32t94 -77.5t33 -88.5q0 -58 -33.5 -92t-82.5 -34q-42 0 -76.5 26.5t-34.5 82.5q0 47 31.5 79t75.5 32q31 0 57.5 -8.5t43.5 -29t17 -56.5h-23q0 38 -30 76.5t-80.5 64.5
t-113.5 26q-69 0 -130 -48t-110 -128t-84 -174.5t-54 -188.5t-19 -170q0 -85 38.5 -135.5t113.5 -50.5q82 0 153 34.5t128 93.5t99 130l22 -13q-41 -74 -102.5 -137.5t-142.5 -102.5t-181 -39zM316 -170l340 1279h24l-340 -1279h-24z" />
    <glyph glyph-name="sterling" unicode="&#xa3;" horiz-adv-x="1258" 
d="M64 -40q-10 83 25 153.5t94 133t119.5 122.5t102.5 122t42 131q0 55 -15.5 115.5t-31 130.5t-15.5 155q0 113 47 204t132 157t199.5 101t250.5 35t225.5 -48t133.5 -124.5t44 -161.5q0 -45 -19.5 -76.5t-50 -47.5t-64.5 -16q-45 0 -88 31t-43 97q0 40 19 67.5t49 42
t63 14.5q40 0 67.5 -23t33.5 -50q-2 64 -41 125t-114 101t-187 40q-100 0 -174.5 -38t-123.5 -97.5t-73.5 -125.5t-24.5 -122q0 -67 10.5 -123.5t21 -117.5t10.5 -145q0 -82 -33.5 -146.5t-89 -116t-120.5 -96t-130 -87t-118 -89t-83 -102t-26 -125.5h-24zM796 -61
q-103 0 -177 18.5t-130.5 42.5t-103 42.5t-93.5 18.5q-62 0 -117.5 -28t-84.5 -73h-15q24 60 61 109t85.5 84.5t107.5 54.5t127 19q75 0 123 -10t86 -23.5t81.5 -23.5t110.5 -10q76 0 144 13t117 53t69 122h25q-15 -110 -54.5 -187.5t-96 -126t-124.5 -72t-141 -23.5z
M130 785v26h927v-26h-927z" />
    <glyph glyph-name="currency" unicode="&#xa4;" horiz-adv-x="1140" 
d="M365 310q-141 0 -229.5 63t-120.5 167.5t-3 229.5t109 229.5t197.5 167t258.5 62.5t229 -62.5t119.5 -167t2.5 -229.5t-108.5 -229.5t-196.5 -167.5t-258 -63zM-122 275l-12 18l212 172l14 -18zM832 275l-132 172l23 18l131 -171zM371 338q133 0 242.5 59.5t183.5 158
t101 214.5t-2 214.5t-111 157.5t-215 59q-132 0 -242 -59t-184.5 -157.5t-102.5 -214.5q-26 -116 3.5 -214.5t112 -158t214.5 -59.5zM218 1074l-133 172l23 19l132 -173zM863 1075l-14 18l212 171l14 -18z" />
    <glyph glyph-name="yen" unicode="&#xa5;" horiz-adv-x="1464" 
d="M503 0l170 754l-294 746h255l258 -727l585 723h31l-617 -765l-164 -731h-224zM323 0v25h604v-25h-604zM275 329v24h880v-24h-880zM275 630v24h880v-24h-880zM239 1475v25h612v-25h-612zM1245 1475v25h420v-25h-420z" />
    <glyph glyph-name="brokenbar" unicode="&#xa6;" horiz-adv-x="439" 
d="M13 -500l192 832h23l-191 -832h-24zM317 818l172 743h24l-172 -743h-24z" />
    <glyph glyph-name="section" unicode="&#xa7;" horiz-adv-x="947" 
d="M367 -20q-88 0 -169 30t-133 92t-52 158q0 64 42 115.5t106 51.5q50 0 83.5 -30.5t33.5 -86.5q0 -52 -38.5 -85.5t-95.5 -33.5q-40 0 -67 17t-35 42q2 -84 48 -138t119.5 -80t157.5 -26q101 0 166 38.5t96.5 92t31.5 100.5q0 56 -37.5 92t-97 61t-126.5 48t-126.5 53
t-97 76t-37.5 117q0 54 25.5 102.5t65.5 89.5t83 72t77 49l23 -5q-14 -11 -33 -36.5t-33.5 -59.5t-14.5 -74q0 -63 34.5 -100t89 -61t116 -46.5t116 -54.5t89 -85.5t34.5 -142.5q0 -78 -35.5 -142.5t-98 -111t-142.5 -72.5t-168 -26zM651 511l-24 7q31 22 61.5 50t50.5 62
t20 74q0 55 -34 88t-88 57t-115 48.5t-115 58.5t-88 89t-34 141q0 78 34.5 140t92.5 105t129.5 66t144.5 23q98 0 168 -39t107.5 -99.5t37.5 -126.5q0 -91 -36.5 -133t-93.5 -42q-49 0 -82.5 31t-33.5 89q0 50 37.5 83t84.5 33q39 0 63 -18t32 -28q-2 51 -33 103t-93 86.5
t-159 34.5q-72 0 -131.5 -29.5t-95.5 -80t-36 -113.5q0 -53 36 -88t93.5 -60.5t121.5 -50.5t121.5 -58t93.5 -83t36 -126q0 -59 -27 -103.5t-70 -78t-89.5 -61t-86.5 -51.5z" />
    <glyph glyph-name="dieresis" unicode="&#xa8;" horiz-adv-x="1000" 
d="M979 1689q-44 0 -75.5 31t-31.5 75t31.5 75.5t75.5 31.5t74.5 -31.5t30.5 -75.5t-30.5 -75t-74.5 -31zM639 1689q-44 0 -75.5 31t-31.5 75t31.5 75.5t75.5 31.5t74.5 -31.5t30.5 -75.5t-30.5 -75t-74.5 -31z" />
    <glyph glyph-name="copyright" unicode="&#xa9;" horiz-adv-x="1739" 
d="M840 -20q-193 0 -344.5 77t-238.5 218t-87 334q0 140 49.5 273.5t136.5 248.5t202.5 202.5t248.5 137t273 49.5q193 0 344.5 -77t238.5 -218t87 -334q0 -140 -49.5 -273.5t-136.5 -248.5t-202.5 -202.5t-248.5 -137t-273 -49.5zM1131 300l-46 83q23 24 46.5 50t44.5 68
l19 50h15l-66 -251h-13zM839 288q-142 0 -228.5 85.5t-86.5 232.5q0 123 41.5 232.5t115 193.5t168 132t201.5 48q108 0 177 -67t58 -196h-8q5 84 -23 138t-78.5 80t-108.5 26q-76 0 -138 -42.5t-109 -113t-79.5 -157.5t-49 -177.5t-16.5 -171.5q0 -61 18.5 -112t58.5 -81.5
t102 -30.5q78 0 144.5 32t116.5 87.5t80 124.5h9q-28 -74 -81 -133.5t-125.5 -94.5t-158.5 -35zM840 5q135 0 264.5 48t241.5 133t197.5 197t133.5 242t48 266q0 185 -83.5 320.5t-229.5 209.5t-332 74q-135 0 -264.5 -48t-241.5 -133t-197.5 -197t-133.5 -242t-48 -266
q0 -186 83.5 -321.5t229 -209t332.5 -73.5zM1277 949l4 43q-3 36 -10.5 65.5t-25.5 56.5l91 86h14l-59 -251h-14z" />
    <glyph glyph-name="ordfeminine" unicode="&#xaa;" horiz-adv-x="705" 
d="M640 952q-80 0 -116.5 52.5t-36.5 142.5q0 69 26 136.5t68.5 123t94.5 88.5t105 33q42 0 65 -23t32.5 -61t9.5 -83t-11.5 -99.5t-33 -109t-52 -100t-68.5 -73t-83 -27.5zM669 983q39 0 76 36.5t66.5 94.5t47 123.5t17.5 123.5q0 61 -17 100.5t-57 39.5q-37 0 -73.5 -41
t-66.5 -104t-48 -132t-18 -126q0 -58 19.5 -86.5t53.5 -28.5zM906 952q-46 0 -67 24t-21 61q0 10 0.5 18.5t2.5 14.5l16 88l29 93l17 101l40 164h117l-132 -500q-3 -9 -3 -19q0 -22 23 -22q26 0 50.5 17.5t48.5 56.5t51 105l14 -5q-40 -103 -82 -150t-104 -47z" />
    <glyph glyph-name="guillemotleft" unicode="&#xab;" horiz-adv-x="1389" 
d="M1270 290l-560 460v50l780 460l13 -13l-513 -472l293 -472zM710 290l-560 460v50l780 460l13 -13l-513 -472l293 -472z" />
    <glyph glyph-name="logicalnot" unicode="&#xac;" horiz-adv-x="971" 
d="M827 406v354h-707v25h732v-379h-25z" />
    <glyph glyph-name="uni00AD" unicode="&#xad;" horiz-adv-x="919" 
d="M166 538v24h480v-24h-480z" />
    <glyph glyph-name="registered" unicode="&#xae;" horiz-adv-x="1739" 
d="M840 -20q-193 0 -344.5 77t-238.5 218t-87 334q0 140 49.5 273.5t136.5 248.5t202.5 202.5t248.5 137t273 49.5q193 0 344.5 -77t238.5 -218t87 -334q0 -140 -49.5 -273.5t-136.5 -248.5t-202.5 -202.5t-248.5 -137t-273 -49.5zM461 296v15h384v-15h-384zM579 296
l210 900h134l-210 -900h-134zM1185 289q-63 0 -93 25t-38.5 66.5t-6.5 90.5t3.5 98t-7 90.5t-39 66.5t-93.5 25h-126v8h159q105 0 158.5 -32.5t72.5 -83.5t19 -108t-4 -108t3.5 -83t44.5 -32q18 0 32 3.5t27 9.5l5 -15q-32 -12 -57 -16.5t-60 -4.5zM840 5q135 0 264.5 48
t241.5 133t197.5 197t133.5 242t48 266q0 185 -83.5 320.5t-229.5 209.5t-332 74q-135 0 -264.5 -48t-241.5 -133t-197.5 -197t-133.5 -242t-48 -266q0 -186 83.5 -321.5t229 -209t332.5 -73.5zM785 756v9h159q61 0 106.5 25.5t75.5 65.5t45 87t15 90q0 30 -8 64.5t-34.5 59
t-82.5 24.5h-402v15h413q79 0 138.5 -17.5t92 -57t32.5 -105.5q0 -126 -101 -193t-282 -67h-167z" />
    <glyph glyph-name="macron" unicode="&#xaf;" horiz-adv-x="1000" 
d="M549 1700v25h480v-25h-480z" />
    <glyph glyph-name="degree" unicode="&#xb0;" horiz-adv-x="639" 
d="M628 1120q-66 0 -120.5 32.5t-86.5 86.5t-32 120t32 121t86.5 87.5t120.5 32.5t120.5 -32.5t87 -87.5t32.5 -121t-32.5 -120t-87 -86.5t-120.5 -32.5zM628 1188q74 0 123 49t49 122q0 75 -49.5 124t-122.5 49t-122.5 -49t-49.5 -124q0 -73 49.5 -122t122.5 -49z" />
    <glyph glyph-name="plusminus" unicode="&#xb1;" horiz-adv-x="1059" 
d="M120 9v24h819v-24h-819zM517 361v819h25v-819h-25zM120 760v24h819v-24h-819z" />
    <glyph glyph-name="uni00B2" unicode="&#xb2;" horiz-adv-x="939" 
d="M384 914l20 90l327 257q57 43 108 102.5t84 127.5t33 138q0 48 -14.5 87t-46 62.5t-80.5 23.5q-48 0 -93.5 -20t-82 -54.5t-58 -80t-21.5 -95.5h-14q0 27 27.5 47.5t60.5 20.5q31 0 55 -19t24 -55q0 -39 -24 -62.5t-61 -23.5q-34 0 -58.5 23.5t-24.5 68.5
q0 70 40.5 132.5t111 102t163.5 39.5q73 0 125.5 -24t81 -66.5t28.5 -98.5q0 -47 -27 -91.5t-67 -84t-81.5 -71.5t-70.5 -54l-370 -294h484l19 90h15l-47 -218h-566z" />
    <glyph glyph-name="uni00B3" unicode="&#xb3;" horiz-adv-x="899" 
d="M580 902q-85 0 -139.5 27t-80.5 69t-26 87q0 40 22.5 62.5t57.5 22.5q30 0 51 -19.5t21 -55.5q0 -32 -23 -51.5t-53 -19.5q-29 0 -52 17.5t-23 43.5h14q0 -50 29 -87.5t75.5 -58t102.5 -20.5q58 0 100.5 22.5t70.5 61t42 86.5t14 97q0 44 -12 92.5t-52 82t-123 33.5v10
q129 0 200 -28.5t98.5 -79t27.5 -116.5q0 -61 -28.5 -112t-77.5 -88t-110 -57.5t-126 -20.5zM596 1400v9q70 0 118 27.5t77 68.5t41 85t12 76q0 64 -30 102t-105 38q-42 0 -86.5 -20.5t-75 -56t-30.5 -81.5h-14q0 31 25 47.5t51 16.5q30 0 53 -18.5t23 -52.5q0 -40 -25 -58
t-51 -18q-31 0 -54.5 22t-23.5 61q0 46 33.5 86.5t88 65.5t117.5 25q67 0 122.5 -16t88.5 -54t33 -104q0 -60 -39.5 -118t-125 -95.5t-223.5 -37.5z" />
    <glyph glyph-name="acute" unicode="&#xb4;" horiz-adv-x="1000" 
d="M652 1684l-14 16l188 230q17 21 37.5 28.5t40.5 5.5t36 -12.5t25 -24.5q13 -20 11 -45.5t-16 -47t-39 -31.5z" />
    <glyph glyph-name="uni00B5" unicode="&#xb5;" horiz-adv-x="1145" 
d="M1057 316l23 -8q-44 -114 -89.5 -186.5t-98.5 -107t-122 -34.5q-84 0 -124.5 40t-40.5 90q0 13 3 32t7 35l75 302q-34 -86 -82.5 -174.5t-106.5 -162t-121 -118t-128 -44.5q-70 0 -109.5 25t-55 68.5t-13.5 99.5l-102 -415q-19 -76 0.5 -129.5t64 -84t103.5 -37.5
q-27 12 -46.5 45t-19.5 77q0 57 42 98t96 41t92.5 -40.5t38.5 -100.5q0 -61 -41.5 -104t-131.5 -43q-55 0 -102 19t-80.5 54.5t-45.5 87t5 117.5l282 1137h-133v25h337l-158 -619q-20 -78 -29 -139t4.5 -95.5t63.5 -34.5q44 0 101.5 50.5t118 135.5t112 192t82.5 220l73 290
h196l-223 -831q-2 -9 -3 -18.5t-1 -16.5q0 -36 34 -36q46 0 87.5 29t81.5 94.5t84 174.5z" />
    <glyph glyph-name="paragraph" unicode="&#xb6;" horiz-adv-x="1243" 
d="M297 -300v25h206l230 998h-148q-88 0 -163 18t-132 54t-89 90.5t-32 128.5q0 113 46.5 203t128.5 153t190.5 96.5t232.5 33.5h516v-25h-196l-403 -1750h194v-25h-581zM527 -275h132l403 1750h-131z" />
    <glyph glyph-name="periodcentered" unicode="&#xb7;" horiz-adv-x="395" 
d="M332 680q-38 0 -69 18.5t-50 49.5t-19 69t19 69t50 49.5t69 18.5t69 -18.5t49 -49.5t18 -69t-18 -69t-49 -49.5t-69 -18.5z" />
    <glyph glyph-name="cedilla" unicode="&#xb8;" horiz-adv-x="1000" 
d="M138 -509v24q86 0 147 40t61 113q0 62 -53 83t-146 21l223 239h31l-148 -159q79 -1 138.5 -15.5t92.5 -47t33 -84.5q0 -60 -49 -109t-134 -77t-196 -28z" />
    <glyph glyph-name="uni00B9" unicode="&#xb9;" horiz-adv-x="1059" 
d="M572 912l200 885h-138v15h276l-204 -900h-134zM442 912v15h398v-15h-398z" />
    <glyph glyph-name="ordmasculine" unicode="&#xba;" horiz-adv-x="991" 
d="M669 950q-93 0 -139 53.5t-46 136.5q0 78 26.5 147.5t73.5 123.5t106.5 84.5t125.5 30.5q93 0 139 -54t46 -138q0 -103 -46 -190.5t-121.5 -140.5t-164.5 -53zM661 964q37 0 72 31t66 81t54 111t36 122.5t13 113.5q0 40 -19 64t-59 24q-38 0 -73 -30.5t-65.5 -81
t-54 -111t-36.5 -122.5t-13 -114q0 -40 19 -64t60 -24z" />
    <glyph glyph-name="guillemotright" unicode="&#xbb;" horiz-adv-x="1389" 
d="M660 290l-13 13l513 472l-293 472l13 13l560 -460v-50zM100 290l-13 13l513 472l-293 472l13 13l560 -460v-50z" />
    <glyph glyph-name="onequarter" unicode="&#xbc;" horiz-adv-x="1281" 
d="M-34 -200l1283 1500h22l-1282 -1500h-23zM363 1612h276l-201 -885h131v-15h-398v15h133l197 870h-138v15zM1071 694h125l-140 -635h134v-14h-137l-53 -236h100v-15h-339v15h105l51 236h-403zM1046 644l-500 -585h375z" />
    <glyph glyph-name="onehalf" unicode="&#xbd;" horiz-adv-x="1339" 
d="M-34 -200l1283 1500h22l-1282 -1500h-23zM171 712v15h398v-15h-398zM664 -202l20 90l327 257q57 43 108 102.5t84 127.5t33 138q0 48 -14.5 87t-46 62.5t-80.5 23.5q-48 0 -93.5 -20t-82 -54.5t-58 -80t-21.5 -95.5h-14q0 27 27.5 47.5t60.5 20.5q31 0 55 -19t24 -55
q0 -39 -24 -62.5t-61 -23.5q-34 0 -58.5 23.5t-24.5 68.5q0 70 40.5 132.5t111 102t163.5 39.5q73 0 125.5 -24t81 -66.5t28.5 -98.5q0 -47 -27 -91.5t-67 -84t-81.5 -71.5t-70.5 -54l-370 -294h484l19 90h15l-47 -218h-566zM301 712l200 885h-138v15h276l-204 -900h-134z
" />
    <glyph glyph-name="threequarters" unicode="&#xbe;" horiz-adv-x="1401" 
d="M86 -200l1283 1500h24l-1284 -1500h-23zM881 -206v15h339v-15h-339zM983 -206l184 850l-501 -585h644v-14h-676l557 649h125l-198 -900h-135zM420 696q-85 0 -139.5 27t-80.5 69t-26 87q0 40 22.5 62.5t57.5 22.5q30 0 51 -19.5t21 -55.5q0 -32 -23 -51.5t-53 -19.5
q-29 0 -52 17.5t-23 43.5h14q0 -50 29 -87.5t75.5 -58t102.5 -20.5q58 0 100.5 22.5t70.5 61t42 86.5t14 97q0 44 -12 92.5t-52 82t-123 33.5v10q129 0 200 -28t98.5 -79t27.5 -117q0 -61 -28.5 -112t-77.5 -88t-110 -57.5t-126 -20.5zM436 1194v9q70 0 118 27.5t77 68.5
t41 85t12 76q0 64 -30 102t-105 38q-42 0 -86.5 -20.5t-75 -56t-30.5 -81.5h-14q0 31 25 47.5t51 16.5q30 0 53 -18.5t23 -53.5q0 -39 -25 -57t-51 -18q-31 0 -54.5 21.5t-23.5 61.5q0 46 33.5 86.5t88 65.5t117.5 25q67 0 122.5 -16t88.5 -54t33 -104q0 -60 -39.5 -117.5
t-125 -95.5t-223.5 -38z" />
    <glyph glyph-name="questiondown" unicode="&#xbf;" horiz-adv-x="1121" 
d="M468 -480q-100 0 -182 21.5t-141.5 64.5t-92 106t-32.5 147q0 87 37 160.5t100.5 132.5t144 101.5t167.5 67.5t172 30l52 251h26l-58 -269q-107 -31 -200.5 -101t-150.5 -169t-57 -217q0 -81 15 -149.5t64 -109.5t151 -41q78 0 147.5 27.5t123.5 73.5t85 103t31 115h23
q0 -33 -17.5 -57.5t-46 -38.5t-60.5 -14q-33 0 -62 14.5t-47 42t-18 65.5q0 43 20 70.5t49 40.5t58 13q34 0 62.5 -15.5t46 -46t17.5 -74.5q0 -62 -33.5 -123.5t-92.5 -111.5t-136 -80t-165 -30zM766 786q-38 0 -69 18.5t-49.5 49.5t-18.5 69t18.5 69t49.5 49.5t69 18.5
q37 0 68.5 -18.5t50 -49.5t18.5 -69t-18.5 -69t-50 -49.5t-68.5 -18.5z" />
    <glyph glyph-name="Agrave" unicode="&#xc0;" horiz-adv-x="1476" 
d="M72 0l882 1529h53l190 -1529h-244l-128 1258l-725 -1258h-28zM-91 0v25h440v-25h-440zM723 0v25h614v-25h-614zM370 477v25h658v-25h-658zM1122 1685l-269 118q-25 10 -39.5 31.5t-16 47t11.5 45.5q9 14 25 24.5t36 12.5t40 -5.5t38 -28.5l188 -229z" />
    <glyph glyph-name="Aacute" unicode="&#xc1;" horiz-adv-x="1476" 
d="M72 0l882 1529h53l190 -1529h-244l-128 1258l-725 -1258h-28zM-91 0v25h440v-25h-440zM723 0v25h614v-25h-614zM370 477v25h658v-25h-658zM882 1684l-14 16l188 230q17 21 37.5 28.5t40.5 5.5t36 -12.5t25 -24.5q13 -20 11 -45.5t-16 -47t-39 -31.5z" />
    <glyph glyph-name="Acircumflex" unicode="&#xc2;" horiz-adv-x="1476" 
d="M72 0l882 1529h53l190 -1529h-244l-128 1258l-725 -1258h-28zM-91 0v25h440v-25h-440zM723 0v25h614v-25h-614zM370 477v25h658v-25h-658zM707 1704l-14 15l272 234h142l185 -234l-15 -16l-245 146z" />
    <glyph glyph-name="Atilde" unicode="&#xc3;" horiz-adv-x="1476" 
d="M72 0l882 1529h53l190 -1529h-244l-128 1258l-725 -1258h-28zM-91 0v25h440v-25h-440zM723 0v25h614v-25h-614zM370 477v25h658v-25h-658zM1190 1672q-59 0 -104 24t-83 55t-76 55t-83 24q-56 0 -91.5 -29.5t-64.5 -100.5h-25q20 85 60.5 143.5t92.5 88.5t105 30
q54 0 96.5 -24t80 -55t73 -55t75.5 -24q57 0 92.5 30t63.5 100h26q-20 -95 -56 -152.5t-82.5 -83.5t-99.5 -26z" />
    <glyph glyph-name="Adieresis" unicode="&#xc4;" horiz-adv-x="1476" 
d="M72 0l882 1529h53l190 -1529h-244l-128 1258l-725 -1258h-28zM-91 0v25h440v-25h-440zM723 0v25h614v-25h-614zM370 477v25h658v-25h-658zM1151 1689q-44 0 -75.5 31t-31.5 75t31.5 75.5t75.5 31.5t74.5 -31.5t30.5 -75.5t-30.5 -75t-74.5 -31zM811 1689q-44 0 -75.5 31
t-31.5 75t31.5 75.5t75.5 31.5t74.5 -31.5t30.5 -75.5t-30.5 -75t-74.5 -31z" />
    <glyph glyph-name="Aring" unicode="&#xc5;" horiz-adv-x="1476" 
d="M72 0l882 1529h53l190 -1529h-244l-128 1258l-725 -1258h-28zM-91 0v25h440v-25h-440zM723 0v25h614v-25h-614zM370 477v25h658v-25h-658zM995 1680q-80 0 -133 51.5t-53 127.5q0 77 53 129t133 52q81 0 134 -52t53 -129q0 -76 -53 -127.5t-134 -51.5zM985 1703
q25 0 45.5 19t35 49t23 64t8.5 63q0 53 -22 85.5t-70 32.5q-25 0 -45.5 -19.5t-35 -49.5t-22.5 -63.5t-8 -63.5q0 -53 21.5 -85t69.5 -32z" />
    <glyph glyph-name="AE" unicode="&#xc6;" horiz-adv-x="2030" 
d="M86 0l1207 1500h31l-1205 -1500h-33zM-56 0v25h441v-25h-441zM520 501v25h583v-25h-583zM794 0v25h666q137 0 237.5 53.5t166.5 149t99 222.5h25l-105 -450h-1089zM965 0l347 1500h224l-348 -1500h-223zM1619 549q11 67 -3 114.5t-50 73.5t-93 26h-138v25h138
q57 0 106.5 24t86.5 69.5t55 112.5h25l-103 -445h-24zM2091 1090q22 107 -2 194.5t-94 139t-187 51.5h-457v25h861l-96 -410h-25z" />
    <glyph glyph-name="Ccedilla" unicode="&#xc7;" horiz-adv-x="1352" 
d="M633 -20q-158 0 -276 64.5t-183.5 183.5t-65.5 282q0 205 70 387.5t191.5 322.5t279.5 220t335 80q121 0 214 -50t141.5 -147.5t36.5 -240.5h-14q8 105 -18 181.5t-75.5 126.5t-116 74t-139.5 24q-105 0 -194 -49.5t-161.5 -136t-128.5 -197.5t-93.5 -234.5t-57 -248.5
t-19.5 -237q0 -101 31.5 -186t97.5 -136.5t170 -51.5q130 0 240.5 54t194 146t133.5 207h16q-46 -123 -135 -222.5t-210 -157.5t-264 -58zM1119 0l-75 139q38 39 77 83t75 112l30 84h25l-110 -418h-22zM1362 1082l7 71q-4 60 -17 109.5t-42 94.5l153 143h21l-97 -418h-25z
M424 -509v24q86 0 147 40t61 113q0 62 -53 83t-146 21l223 239h31l-148 -159q79 -1 138.5 -15.5t92.5 -47t33 -84.5q0 -60 -49 -109t-134 -77t-196 -28z" />
    <glyph glyph-name="Egrave" unicode="&#xc8;" horiz-adv-x="1181" 
d="M79 0l348 1500h223l-348 -1500h-223zM-91 0v25h695q137 0 231.5 53.5t154 149t93.5 222.5h25l-104 -450h-1095zM755 548q11 67 -8.5 115t-61 74t-98.5 26h-139v25h139q57 0 112 24t97 69.5t62 112.5h24l-102 -446h-25zM1211 1090q21 107 3 194.5t-81.5 139t-180.5 51.5
h-705v25h1085l-96 -410h-25zM1020 1685l-269 118q-25 10 -39.5 31.5t-16 47t11.5 45.5q9 14 25 24.5t36 12.5t40 -5.5t38 -28.5l188 -229z" />
    <glyph glyph-name="Eacute" unicode="&#xc9;" horiz-adv-x="1181" 
d="M79 0l348 1500h223l-348 -1500h-223zM-91 0v25h695q137 0 231.5 53.5t154 149t93.5 222.5h25l-104 -450h-1095zM755 548q11 67 -8.5 115t-61 74t-98.5 26h-139v25h139q57 0 112 24t97 69.5t62 112.5h24l-102 -446h-25zM1211 1090q21 107 3 194.5t-81.5 139t-180.5 51.5
h-705v25h1085l-96 -410h-25zM780 1684l-14 16l188 230q17 21 37.5 28.5t40.5 5.5t36 -12.5t25 -24.5q13 -20 11 -45.5t-16 -47t-39 -31.5z" />
    <glyph glyph-name="Ecircumflex" unicode="&#xca;" horiz-adv-x="1181" 
d="M79 0l348 1500h223l-348 -1500h-223zM-91 0v25h695q137 0 231.5 53.5t154 149t93.5 222.5h25l-104 -450h-1095zM755 548q11 67 -8.5 115t-61 74t-98.5 26h-139v25h139q57 0 112 24t97 69.5t62 112.5h24l-102 -446h-25zM1211 1090q21 107 3 194.5t-81.5 139t-180.5 51.5
h-705v25h1085l-96 -410h-25zM606 1704l-14 15l272 234h142l185 -234l-15 -16l-245 146z" />
    <glyph glyph-name="Edieresis" unicode="&#xcb;" horiz-adv-x="1181" 
d="M79 0l348 1500h223l-348 -1500h-223zM-91 0v25h695q137 0 231.5 53.5t154 149t93.5 222.5h25l-104 -450h-1095zM755 548q11 67 -8.5 115t-61 74t-98.5 26h-139v25h139q57 0 112 24t97 69.5t62 112.5h24l-102 -446h-25zM1211 1090q21 107 3 194.5t-81.5 139t-180.5 51.5
h-705v25h1085l-96 -410h-25zM1050 1689q-44 0 -75.5 31t-31.5 75t31.5 75.5t75.5 31.5t74.5 -31.5t30.5 -75.5t-30.5 -75t-74.5 -31zM710 1689q-44 0 -75.5 31t-31.5 75t31.5 75.5t75.5 31.5t74.5 -31.5t30.5 -75.5t-30.5 -75t-74.5 -31z" />
    <glyph glyph-name="Igrave" unicode="&#xcc;" horiz-adv-x="731" 
d="M139 0l340 1500h223l-340 -1500h-223zM-81 0v25h674v-25h-674zM249 1475v25h674v-25h-674zM764 1685l-269 118q-25 10 -39.5 31.5t-16 47t11.5 45.5q9 14 25 24.5t36 12.5t40 -5.5t38 -28.5l188 -229z" />
    <glyph glyph-name="Iacute" unicode="&#xcd;" horiz-adv-x="731" 
d="M139 0l340 1500h223l-340 -1500h-223zM-81 0v25h674v-25h-674zM249 1475v25h674v-25h-674zM524 1684l-14 16l188 230q17 21 37.5 28.5t40.5 5.5t36 -12.5t25 -24.5q13 -20 11 -45.5t-16 -47t-39 -31.5z" />
    <glyph glyph-name="Icircumflex" unicode="&#xce;" horiz-adv-x="731" 
d="M139 0l340 1500h223l-340 -1500h-223zM-81 0v25h674v-25h-674zM249 1475v25h674v-25h-674zM350 1704l-14 15l272 234h142l185 -234l-15 -16l-245 146z" />
    <glyph glyph-name="Idieresis" unicode="&#xcf;" horiz-adv-x="731" 
d="M139 0l340 1500h223l-340 -1500h-223zM-81 0v25h674v-25h-674zM249 1475v25h674v-25h-674zM794 1689q-44 0 -75.5 31t-31.5 75t31.5 75.5t75.5 31.5t74.5 -31.5t30.5 -75.5t-30.5 -75t-74.5 -31zM454 1689q-44 0 -75.5 31t-31.5 75t31.5 75.5t75.5 31.5t74.5 -31.5
t30.5 -75.5t-30.5 -75t-74.5 -31z" />
    <glyph glyph-name="Eth" unicode="&#xd0;" horiz-adv-x="1424" 
d="M141 718v24h614v-24h-614zM-71 0v25h592q105 0 193.5 48.5t161 132.5t128 191.5t92.5 226t56.5 235.5t19.5 219q0 69 -16 139t-51.5 128.5t-96 94t-150.5 35.5h-609v25h618q163 0 289 -59t198 -174t72 -283q0 -201 -69.5 -379.5t-192.5 -314t-285 -213t-347 -77.5h-603z
M108 0l341 1500h224l-341 -1500h-224z" />
    <glyph glyph-name="Ntilde" unicode="&#xd1;" horiz-adv-x="1463" 
d="M1079 -20l-620 1520h269l450 -1129l258 1129h26l-346 -1520h-37zM-71 0v25h454v-25h-454zM117 0l331 1475h-199v25h230l-336 -1500h-26zM1196 1475v25h459v-25h-459zM1185 1672q-59 0 -104 24t-83 55t-76 55t-83 24q-56 0 -91.5 -29.5t-64.5 -100.5h-25q20 85 60.5 143.5
t92.5 88.5t105 30q54 0 96.5 -24t80 -55t73 -55t75.5 -24q57 0 92.5 30t63.5 100h26q-20 -95 -56 -152.5t-82.5 -83.5t-99.5 -26z" />
    <glyph glyph-name="Ograve" unicode="&#xd2;" horiz-adv-x="1450" 
d="M610 -20q-236 0 -369 143t-133 387q0 167 46 318t127.5 277.5t188.5 219.5t229.5 144t249.5 51q147 0 260.5 -64.5t177.5 -183.5t64 -282q0 -209 -67.5 -392t-185.5 -322t-269.5 -217.5t-318.5 -78.5zM610 3q93 0 173 50t146 137.5t117 200.5t86 239t53 253t18 243
q0 63 -12.5 128t-41.5 120t-78 89t-122 34q-88 0 -165.5 -50t-143.5 -137.5t-118.5 -200.5t-89.5 -239t-56 -253t-19 -243q0 -103 22.5 -187.5t78 -134t152.5 -49.5zM1122 1685l-269 118q-25 10 -39.5 31.5t-16 47t11.5 45.5q9 14 25 24.5t36 12.5t40 -5.5t38 -28.5
l188 -229z" />
    <glyph glyph-name="Oacute" unicode="&#xd3;" horiz-adv-x="1450" 
d="M610 -20q-236 0 -369 143t-133 387q0 167 46 318t127.5 277.5t188.5 219.5t229.5 144t249.5 51q147 0 260.5 -64.5t177.5 -183.5t64 -282q0 -209 -67.5 -392t-185.5 -322t-269.5 -217.5t-318.5 -78.5zM610 3q93 0 173 50t146 137.5t117 200.5t86 239t53 253t18 243
q0 63 -12.5 128t-41.5 120t-78 89t-122 34q-88 0 -165.5 -50t-143.5 -137.5t-118.5 -200.5t-89.5 -239t-56 -253t-19 -243q0 -103 22.5 -187.5t78 -134t152.5 -49.5zM882 1684l-14 16l188 230q17 21 37.5 28.5t40.5 5.5t36 -12.5t25 -24.5q13 -20 11 -45.5t-16 -47
t-39 -31.5z" />
    <glyph glyph-name="Ocircumflex" unicode="&#xd4;" horiz-adv-x="1450" 
d="M610 -20q-236 0 -369 143t-133 387q0 167 46 318t127.5 277.5t188.5 219.5t229.5 144t249.5 51q147 0 260.5 -64.5t177.5 -183.5t64 -282q0 -209 -67.5 -392t-185.5 -322t-269.5 -217.5t-318.5 -78.5zM610 3q93 0 173 50t146 137.5t117 200.5t86 239t53 253t18 243
q0 63 -12.5 128t-41.5 120t-78 89t-122 34q-88 0 -165.5 -50t-143.5 -137.5t-118.5 -200.5t-89.5 -239t-56 -253t-19 -243q0 -103 22.5 -187.5t78 -134t152.5 -49.5zM708 1704l-14 15l272 234h142l185 -234l-15 -16l-245 146z" />
    <glyph glyph-name="Otilde" unicode="&#xd5;" horiz-adv-x="1450" 
d="M610 -20q-236 0 -369 143t-133 387q0 167 46 318t127.5 277.5t188.5 219.5t229.5 144t249.5 51q147 0 260.5 -64.5t177.5 -183.5t64 -282q0 -209 -67.5 -392t-185.5 -322t-269.5 -217.5t-318.5 -78.5zM610 3q93 0 173 50t146 137.5t117 200.5t86 239t53 253t18 243
q0 63 -12.5 128t-41.5 120t-78 89t-122 34q-88 0 -165.5 -50t-143.5 -137.5t-118.5 -200.5t-89.5 -239t-56 -253t-19 -243q0 -103 22.5 -187.5t78 -134t152.5 -49.5zM1191 1672q-59 0 -104 24t-83 55t-76 55t-83 24q-56 0 -91.5 -29.5t-64.5 -100.5h-25q20 85 60.5 143.5
t92.5 88.5t105 30q54 0 96.5 -24t80 -55t73 -55t75.5 -24q57 0 92.5 30t63.5 100h26q-20 -95 -56 -152.5t-82.5 -83.5t-99.5 -26z" />
    <glyph glyph-name="Odieresis" unicode="&#xd6;" horiz-adv-x="1450" 
d="M610 -20q-236 0 -369 143t-133 387q0 167 46 318t127.5 277.5t188.5 219.5t229.5 144t249.5 51q147 0 260.5 -64.5t177.5 -183.5t64 -282q0 -209 -67.5 -392t-185.5 -322t-269.5 -217.5t-318.5 -78.5zM610 3q93 0 173 50t146 137.5t117 200.5t86 239t53 253t18 243
q0 63 -12.5 128t-41.5 120t-78 89t-122 34q-88 0 -165.5 -50t-143.5 -137.5t-118.5 -200.5t-89.5 -239t-56 -253t-19 -243q0 -103 22.5 -187.5t78 -134t152.5 -49.5zM1152 1689q-44 0 -75.5 31t-31.5 75t31.5 75.5t75.5 31.5t74.5 -31.5t30.5 -75.5t-30.5 -75t-74.5 -31z
M812 1689q-44 0 -75.5 31t-31.5 75t31.5 75.5t75.5 31.5t74.5 -31.5t30.5 -75.5t-30.5 -75t-74.5 -31z" />
    <glyph glyph-name="multiply" unicode="&#xd7;" horiz-adv-x="922" 
d="M309 472l-177 177l420 420l177 -177zM552 472l-419 420l177 177l419 -420z" />
    <glyph glyph-name="Oslash" unicode="&#xd8;" horiz-adv-x="1450" 
d="M119 -200l1268 1861h33l-1267 -1861h-34zM610 -20q-236 0 -369 143t-133 387q0 167 46 318t127.5 277.5t188.5 219.5t229.5 144t249.5 51q147 0 260.5 -64.5t177.5 -183.5t64 -282q0 -209 -67.5 -392t-185.5 -322t-269.5 -217.5t-318.5 -78.5zM610 3q93 0 173 50
t146 137.5t117 200.5t86 239t53 253t18 243q0 63 -12.5 128t-41.5 120t-78 89t-122 34q-88 0 -165.5 -50t-143.5 -137.5t-118.5 -200.5t-89.5 -239t-56 -253t-19 -243q0 -103 22.5 -187.5t78 -134t152.5 -49.5z" />
    <glyph glyph-name="Ugrave" unicode="&#xd9;" horiz-adv-x="1392" 
d="M624 -29q-163 0 -272.5 54t-151.5 162.5t-4 272.5l240 1040h224l-240 -1020q-22 -94 -24 -179.5t22.5 -153t82.5 -106t156 -38.5q136 0 232.5 51.5t159 153.5t97.5 252l239 1040h26l-241 -1040q-36 -157 -103.5 -266.5t-176 -166t-266.5 -56.5zM246 1475v25h604v-25h-604
zM1183 1475v25h400v-25h-400zM1131 1685l-269 118q-25 10 -39.5 31.5t-16 47t11.5 45.5q9 14 25 24.5t36 12.5t40 -5.5t38 -28.5l188 -229z" />
    <glyph glyph-name="Uacute" unicode="&#xda;" horiz-adv-x="1392" 
d="M624 -29q-163 0 -272.5 54t-151.5 162.5t-4 272.5l240 1040h224l-240 -1020q-22 -94 -24 -179.5t22.5 -153t82.5 -106t156 -38.5q136 0 232.5 51.5t159 153.5t97.5 252l239 1040h26l-241 -1040q-36 -157 -103.5 -266.5t-176 -166t-266.5 -56.5zM246 1475v25h604v-25h-604
zM1183 1475v25h400v-25h-400zM891 1684l-14 16l188 230q17 21 37.5 28.5t40.5 5.5t36 -12.5t25 -24.5q13 -20 11 -45.5t-16 -47t-39 -31.5z" />
    <glyph glyph-name="Ucircumflex" unicode="&#xdb;" horiz-adv-x="1392" 
d="M624 -29q-163 0 -272.5 54t-151.5 162.5t-4 272.5l240 1040h224l-240 -1020q-22 -94 -24 -179.5t22.5 -153t82.5 -106t156 -38.5q136 0 232.5 51.5t159 153.5t97.5 252l239 1040h26l-241 -1040q-36 -157 -103.5 -266.5t-176 -166t-266.5 -56.5zM246 1475v25h604v-25h-604
zM1183 1475v25h400v-25h-400zM716 1704l-14 15l272 234h142l185 -234l-15 -16l-245 146z" />
    <glyph glyph-name="Udieresis" unicode="&#xdc;" horiz-adv-x="1392" 
d="M624 -29q-163 0 -272.5 54t-151.5 162.5t-4 272.5l240 1040h224l-240 -1020q-22 -94 -24 -179.5t22.5 -153t82.5 -106t156 -38.5q136 0 232.5 51.5t159 153.5t97.5 252l239 1040h26l-241 -1040q-36 -157 -103.5 -266.5t-176 -166t-266.5 -56.5zM246 1475v25h604v-25h-604
zM1183 1475v25h400v-25h-400zM1160 1689q-44 0 -75.5 31t-31.5 75t31.5 75.5t75.5 31.5t74.5 -31.5t30.5 -75.5t-30.5 -75t-74.5 -31zM820 1689q-44 0 -75.5 31t-31.5 75t31.5 75.5t75.5 31.5t74.5 -31.5t30.5 -75.5t-30.5 -75t-74.5 -31z" />
    <glyph glyph-name="Yacute" unicode="&#xdd;" horiz-adv-x="1464" 
d="M503 0l170 754l-294 746h255l258 -727l585 723h31l-617 -765l-164 -731h-224zM323 0v25h604v-25h-604zM239 1475v25h612v-25h-612zM1245 1475v25h420v-25h-420zM919 1684l-14 16l188 230q17 21 37.5 28.5t40.5 5.5t36 -12.5t25 -24.5q13 -20 11 -45.5t-16 -47t-39 -31.5z
" />
    <glyph glyph-name="Thorn" unicode="&#xde;" horiz-adv-x="1245" 
d="M122 0l347 1500h223l-347 -1500h-223zM-56 0v25h584v-25h-584zM401 359v26h206q100 0 177 47.5t130 123.5t80.5 164t27.5 170q0 44 -9 93.5t-32 93t-65 71t-109 27.5h-296v25h310q131 0 233.5 -34.5t161.5 -109t59 -194.5q0 -150 -79.5 -263t-226.5 -176.5t-348 -63.5
h-220zM290 1475v25h583v-25h-583z" />
    <glyph glyph-name="germandbls" unicode="&#xdf;" horiz-adv-x="1409" 
d="M130 0l221 982q38 169 122 289.5t215.5 184.5t311.5 64q100 0 185.5 -20t149.5 -59.5t100 -99.5t36 -139q0 -85 -45 -157t-130 -126t-205 -83.5t-271 -29.5v18q97 0 173.5 36t131 94t83.5 125.5t29 130.5q0 72 -20 138t-72.5 107.5t-147.5 41.5q-108 0 -181 -45
t-120.5 -121.5t-78 -172t-54.5 -196.5l-219 -962h-214zM-45 0v25h574v-25h-574zM907 -20q-92 0 -154.5 35t-94 95t-31.5 133q0 58 20 98t53 61.5t72 21.5q52 0 87 -32.5t35 -90.5q0 -35 -19.5 -62.5t-50 -43t-62.5 -15.5q-41 0 -69.5 21.5t-36.5 51.5q-6 -66 20 -122
t79.5 -89.5t130.5 -33.5q67 0 111.5 33.5t70.5 90.5t37.5 126t11.5 139q0 71 -15.5 141.5t-50.5 129.5t-92 94.5t-139 35.5v18q181 0 298.5 -51.5t174.5 -146t57 -224.5q0 -110 -41 -188.5t-107.5 -128.5t-144 -73.5t-150.5 -23.5z" />
    <glyph glyph-name="agrave" unicode="&#xe0;" horiz-adv-x="1103" 
d="M314 -20q-134 0 -194.5 87t-60.5 238q0 115 42.5 227.5t114.5 204.5t158.5 147.5t174.5 55.5q70 0 108.5 -38.5t53.5 -102t15 -137.5q0 -63 -13 -137.5t-38.5 -151t-61.5 -147t-82 -126t-100.5 -88t-116.5 -32.5zM361 31q53 0 103.5 40t94.5 107.5t77 150t51.5 169
t18.5 164.5q0 68 -12 120.5t-39 82t-73 29.5q-49 0 -97.5 -44.5t-92.5 -118.5t-78 -163t-53.5 -179t-19.5 -166q0 -96 32.5 -144t87.5 -48zM756 -20q-75 0 -110.5 39.5t-35.5 102.5q0 17 1 31t3 24l28 148l48 153l28 169l66 273h197l-222 -833q-4 -15 -4 -31
q0 -17 8.5 -27.5t29.5 -10.5q44 0 84.5 29t81 94.5t83.5 174.5l24 -8q-44 -114 -89 -186.5t-98 -107t-123 -34.5zM816 1105l-269 118q-25 10 -39.5 31.5t-16 47t11.5 45.5q9 14 25 24.5t36 12.5t40 -5.5t38 -28.5l188 -229z" />
    <glyph glyph-name="aacute" unicode="&#xe1;" horiz-adv-x="1103" 
d="M314 -20q-134 0 -194.5 87t-60.5 238q0 115 42.5 227.5t114.5 204.5t158.5 147.5t174.5 55.5q70 0 108.5 -38.5t53.5 -102t15 -137.5q0 -63 -13 -137.5t-38.5 -151t-61.5 -147t-82 -126t-100.5 -88t-116.5 -32.5zM361 31q53 0 103.5 40t94.5 107.5t77 150t51.5 169
t18.5 164.5q0 68 -12 120.5t-39 82t-73 29.5q-49 0 -97.5 -44.5t-92.5 -118.5t-78 -163t-53.5 -179t-19.5 -166q0 -96 32.5 -144t87.5 -48zM756 -20q-75 0 -110.5 39.5t-35.5 102.5q0 17 1 31t3 24l28 148l48 153l28 169l66 273h197l-222 -833q-4 -15 -4 -31
q0 -17 8.5 -27.5t29.5 -10.5q44 0 84.5 29t81 94.5t83.5 174.5l24 -8q-44 -114 -89 -186.5t-98 -107t-123 -34.5zM576 1104l-14 16l188 230q17 21 37.5 28.5t40.5 5.5t36 -12.5t25 -24.5q13 -20 11 -45.5t-16 -47t-39 -31.5z" />
    <glyph glyph-name="acircumflex" unicode="&#xe2;" horiz-adv-x="1103" 
d="M314 -20q-134 0 -194.5 87t-60.5 238q0 115 42.5 227.5t114.5 204.5t158.5 147.5t174.5 55.5q70 0 108.5 -38.5t53.5 -102t15 -137.5q0 -63 -13 -137.5t-38.5 -151t-61.5 -147t-82 -126t-100.5 -88t-116.5 -32.5zM361 31q53 0 103.5 40t94.5 107.5t77 150t51.5 169
t18.5 164.5q0 68 -12 120.5t-39 82t-73 29.5q-49 0 -97.5 -44.5t-92.5 -118.5t-78 -163t-53.5 -179t-19.5 -166q0 -96 32.5 -144t87.5 -48zM756 -20q-75 0 -110.5 39.5t-35.5 102.5q0 17 1 31t3 24l28 148l48 153l28 169l66 273h197l-222 -833q-4 -15 -4 -31
q0 -17 8.5 -27.5t29.5 -10.5q44 0 84.5 29t81 94.5t83.5 174.5l24 -8q-44 -114 -89 -186.5t-98 -107t-123 -34.5zM402 1124l-14 15l272 234h142l185 -234l-15 -16l-245 146z" />
    <glyph glyph-name="atilde" unicode="&#xe3;" horiz-adv-x="1103" 
d="M314 -20q-134 0 -194.5 87t-60.5 238q0 115 42.5 227.5t114.5 204.5t158.5 147.5t174.5 55.5q70 0 108.5 -38.5t53.5 -102t15 -137.5q0 -63 -13 -137.5t-38.5 -151t-61.5 -147t-82 -126t-100.5 -88t-116.5 -32.5zM361 31q53 0 103.5 40t94.5 107.5t77 150t51.5 169
t18.5 164.5q0 68 -12 120.5t-39 82t-73 29.5q-49 0 -97.5 -44.5t-92.5 -118.5t-78 -163t-53.5 -179t-19.5 -166q0 -96 32.5 -144t87.5 -48zM756 -20q-75 0 -110.5 39.5t-35.5 102.5q0 17 1 31t3 24l28 148l48 153l28 169l66 273h197l-222 -833q-4 -15 -4 -31
q0 -17 8.5 -27.5t29.5 -10.5q44 0 84.5 29t81 94.5t83.5 174.5l24 -8q-44 -114 -89 -186.5t-98 -107t-123 -34.5zM885 1092q-59 0 -104 24t-83 55t-76 55t-83 24q-56 0 -91.5 -29.5t-64.5 -100.5h-25q20 85 60.5 143.5t92.5 88.5t105 30q54 0 96.5 -24t80 -55t73 -55
t75.5 -24q57 0 92.5 30t63.5 100h26q-20 -95 -56 -152.5t-82.5 -83.5t-99.5 -26z" />
    <glyph glyph-name="adieresis" unicode="&#xe4;" horiz-adv-x="1103" 
d="M314 -20q-134 0 -194.5 87t-60.5 238q0 115 42.5 227.5t114.5 204.5t158.5 147.5t174.5 55.5q70 0 108.5 -38.5t53.5 -102t15 -137.5q0 -63 -13 -137.5t-38.5 -151t-61.5 -147t-82 -126t-100.5 -88t-116.5 -32.5zM361 31q53 0 103.5 40t94.5 107.5t77 150t51.5 169
t18.5 164.5q0 68 -12 120.5t-39 82t-73 29.5q-49 0 -97.5 -44.5t-92.5 -118.5t-78 -163t-53.5 -179t-19.5 -166q0 -96 32.5 -144t87.5 -48zM756 -20q-75 0 -110.5 39.5t-35.5 102.5q0 17 1 31t3 24l28 148l48 153l28 169l66 273h197l-222 -833q-4 -15 -4 -31
q0 -17 8.5 -27.5t29.5 -10.5q44 0 84.5 29t81 94.5t83.5 174.5l24 -8q-44 -114 -89 -186.5t-98 -107t-123 -34.5zM846 1109q-44 0 -75.5 31t-31.5 75t31.5 75.5t75.5 31.5t74.5 -31.5t30.5 -75.5t-30.5 -75t-74.5 -31zM506 1109q-44 0 -75.5 31t-31.5 75t31.5 75.5
t75.5 31.5t74.5 -31.5t30.5 -75.5t-30.5 -75t-74.5 -31z" />
    <glyph glyph-name="aring" unicode="&#xe5;" horiz-adv-x="1103" 
d="M314 -20q-134 0 -194.5 87t-60.5 238q0 115 42.5 227.5t114.5 204.5t158.5 147.5t174.5 55.5q70 0 108.5 -38.5t53.5 -102t15 -137.5q0 -63 -13 -137.5t-38.5 -151t-61.5 -147t-82 -126t-100.5 -88t-116.5 -32.5zM361 31q53 0 103.5 40t94.5 107.5t77 150t51.5 169
t18.5 164.5q0 68 -12 120.5t-39 82t-73 29.5q-49 0 -97.5 -44.5t-92.5 -118.5t-78 -163t-53.5 -179t-19.5 -166q0 -96 32.5 -144t87.5 -48zM756 -20q-75 0 -110.5 39.5t-35.5 102.5q0 17 1 31t3 24l28 148l48 153l28 169l66 273h197l-222 -833q-4 -15 -4 -31
q0 -17 8.5 -27.5t29.5 -10.5q44 0 84.5 29t81 94.5t83.5 174.5l24 -8q-44 -114 -89 -186.5t-98 -107t-123 -34.5zM690 1100q-80 0 -133 51.5t-53 127.5q0 77 53 129t133 52q81 0 134 -52t53 -129q0 -76 -53 -127.5t-134 -51.5zM680 1123q25 0 45.5 19t35 49t23 64t8.5 63
q0 53 -22 85.5t-70 32.5q-25 0 -45.5 -19.5t-35 -49.5t-22.5 -63.5t-8 -63.5q0 -53 21.5 -85t69.5 -32z" />
    <glyph glyph-name="ae" unicode="&#xe6;" horiz-adv-x="1567" 
d="M993 -20q-81 0 -149 35t-110 110t-42 195l40 -9q2 142 47 258t119.5 198.5t169.5 127t195 44.5q82 0 149 -18.5t107.5 -62t40.5 -117.5t-36.5 -125.5t-98 -85t-136.5 -52.5t-153 -27.5t-148 -11t-120 -2.5v22q73 0 156 8.5t157 37.5t120.5 88t46.5 158q0 66 -20 115.5
t-71 49.5q-61 0 -126 -53t-120.5 -144.5t-90 -206.5t-34.5 -238q0 -72 17 -130.5t53 -92.5t94 -34q84 0 158 37.5t133 99t100 132.5h26q-40 -77 -107 -147t-159.5 -114.5t-207.5 -44.5zM346 -20q-82 0 -152.5 20.5t-114 66t-43.5 119.5q0 94 60.5 168t175 117t276.5 43h153
v-25h-136q-82 0 -150 -41t-108.5 -112.5t-40.5 -163.5q0 -80 31 -123.5t79 -43.5q56 0 108.5 48.5t94 129.5t63.5 178l55 248q11 48 14 101t-7.5 98t-41.5 73.5t-90 28.5q-45 0 -96.5 -10t-97.5 -31.5t-71 -56.5q48 22 86 15t60.5 -32.5t22.5 -58.5q0 -62 -43 -93.5
t-89 -31.5q-53 0 -85 29.5t-32 85.5q0 62 52 109.5t135.5 74t177.5 26.5q130 0 193.5 -45t78.5 -119.5t-1 -162.5l-83 -248q-17 -93 -55 -164t-94 -119.5t-128 -73t-157 -24.5z" />
    <glyph glyph-name="ccedilla" unicode="&#xe7;" horiz-adv-x="902" 
d="M365 -20q-148 0 -226.5 87.5t-78.5 229.5q0 117 44 230.5t121.5 207t176.5 149.5t209 56q84 0 145 -32t94 -77.5t33 -88.5q0 -58 -33.5 -92t-82.5 -34q-42 0 -76.5 26.5t-34.5 82.5q0 47 31.5 79t75.5 32q31 0 57.5 -8.5t43.5 -29t17 -56.5h-23q0 38 -30 76.5t-80.5 64.5
t-113.5 26q-69 0 -130 -48t-110 -128t-84 -174.5t-54 -188.5t-19 -170q0 -85 38.5 -135.5t113.5 -50.5q82 0 153 34.5t128 93.5t99 130l22 -13q-41 -74 -102.5 -137.5t-142.5 -102.5t-181 -39zM171 -509v24q86 0 147 40t61 113q0 62 -53 83t-146 21l223 239h31l-148 -159
q79 -1 138.5 -15.5t92.5 -47t33 -84.5q0 -60 -49 -109t-134 -77t-196 -28z" />
    <glyph glyph-name="egrave" unicode="&#xe8;" horiz-adv-x="939" 
d="M360 -20q-100 0 -167.5 41t-102.5 113t-35 166q0 117 43.5 231t121 206.5t181.5 147.5t225 55q118 0 183 -56t65 -138q0 -79 -53.5 -141.5t-144 -106.5t-204.5 -69.5t-236 -33.5v21q83 6 155 26.5t130 54t99.5 79.5t63.5 103t22 123q0 44 -18.5 78.5t-64.5 34.5
q-54 0 -103.5 -34.5t-93 -94t-79.5 -134t-62 -155.5t-40 -160t-14 -145q0 -102 43 -140.5t109 -38.5q80 0 150.5 33.5t128.5 91.5t102 133l22 -13q-41 -74 -102 -137.5t-142 -102t-182 -38.5zM739 1105l-269 118q-25 10 -39.5 31.5t-16 47t11.5 45.5q9 14 25 24.5t36 12.5
t40 -5.5t38 -28.5l188 -229z" />
    <glyph glyph-name="eacute" unicode="&#xe9;" horiz-adv-x="939" 
d="M360 -20q-100 0 -167.5 41t-102.5 113t-35 166q0 117 43.5 231t121 206.5t181.5 147.5t225 55q118 0 183 -56t65 -138q0 -79 -53.5 -141.5t-144 -106.5t-204.5 -69.5t-236 -33.5v21q83 6 155 26.5t130 54t99.5 79.5t63.5 103t22 123q0 44 -18.5 78.5t-64.5 34.5
q-54 0 -103.5 -34.5t-93 -94t-79.5 -134t-62 -155.5t-40 -160t-14 -145q0 -102 43 -140.5t109 -38.5q80 0 150.5 33.5t128.5 91.5t102 133l22 -13q-41 -74 -102 -137.5t-142 -102t-182 -38.5zM499 1104l-14 16l188 230q17 21 37.5 28.5t40.5 5.5t36 -12.5t25 -24.5
q13 -20 11 -45.5t-16 -47t-39 -31.5z" />
    <glyph glyph-name="ecircumflex" unicode="&#xea;" horiz-adv-x="939" 
d="M360 -20q-100 0 -167.5 41t-102.5 113t-35 166q0 117 43.5 231t121 206.5t181.5 147.5t225 55q118 0 183 -56t65 -138q0 -79 -53.5 -141.5t-144 -106.5t-204.5 -69.5t-236 -33.5v21q83 6 155 26.5t130 54t99.5 79.5t63.5 103t22 123q0 44 -18.5 78.5t-64.5 34.5
q-54 0 -103.5 -34.5t-93 -94t-79.5 -134t-62 -155.5t-40 -160t-14 -145q0 -102 43 -140.5t109 -38.5q80 0 150.5 33.5t128.5 91.5t102 133l22 -13q-41 -74 -102 -137.5t-142 -102t-182 -38.5zM325 1124l-14 15l272 234h142l185 -234l-15 -16l-245 146z" />
    <glyph glyph-name="edieresis" unicode="&#xeb;" horiz-adv-x="939" 
d="M360 -20q-100 0 -167.5 41t-102.5 113t-35 166q0 117 43.5 231t121 206.5t181.5 147.5t225 55q118 0 183 -56t65 -138q0 -79 -53.5 -141.5t-144 -106.5t-204.5 -69.5t-236 -33.5v21q83 6 155 26.5t130 54t99.5 79.5t63.5 103t22 123q0 44 -18.5 78.5t-64.5 34.5
q-54 0 -103.5 -34.5t-93 -94t-79.5 -134t-62 -155.5t-40 -160t-14 -145q0 -102 43 -140.5t109 -38.5q80 0 150.5 33.5t128.5 91.5t102 133l22 -13q-41 -74 -102 -137.5t-142 -102t-182 -38.5zM769 1109q-44 0 -75.5 31t-31.5 75t31.5 75.5t75.5 31.5t74.5 -31.5t30.5 -75.5
t-30.5 -75t-74.5 -31zM429 1109q-44 0 -75.5 31t-31.5 75t31.5 75.5t75.5 31.5t74.5 -31.5t30.5 -75.5t-30.5 -75t-74.5 -31z" />
    <glyph glyph-name="igrave" unicode="&#xec;" horiz-adv-x="679" 
d="M258 -20q-79 0 -118 36t-39 114q0 9 1 23t3 23l165 719h-139v25h353l-194 -821q-2 -9 -3.5 -19t-1.5 -18q0 -16 8.5 -27t27.5 -11q52 0 104 41t97.5 111t77.5 157l24 -8q-58 -151 -148.5 -248t-217.5 -97zM552 1105l-269 118q-25 10 -39.5 31.5t-16 47t11.5 45.5
q9 14 25 24.5t36 12.5t40 -5.5t38 -28.5l188 -229z" />
    <glyph glyph-name="iacute" unicode="&#xed;" horiz-adv-x="679" 
d="M258 -20q-79 0 -118 36t-39 114q0 9 1 23t3 23l165 719h-139v25h353l-194 -821q-2 -9 -3.5 -19t-1.5 -18q0 -16 8.5 -27t27.5 -11q52 0 104 41t97.5 111t77.5 157l24 -8q-58 -151 -148.5 -248t-217.5 -97zM313 1104l-14 16l188 230q17 21 37.5 28.5t40.5 5.5t36 -12.5
t25 -24.5q13 -20 11 -45.5t-16 -47t-39 -31.5z" />
    <glyph glyph-name="icircumflex" unicode="&#xee;" horiz-adv-x="679" 
d="M258 -20q-79 0 -118 36t-39 114q0 9 1 23t3 23l165 719h-139v25h353l-194 -821q-2 -9 -3.5 -19t-1.5 -18q0 -16 8.5 -27t27.5 -11q52 0 104 41t97.5 111t77.5 157l24 -8q-58 -151 -148.5 -248t-217.5 -97zM138 1124l-14 15l272 234h142l185 -234l-15 -16l-245 146z" />
    <glyph glyph-name="idieresis" unicode="&#xef;" horiz-adv-x="679" 
d="M258 -20q-79 0 -118 36t-39 114q0 9 1 23t3 23l165 719h-139v25h353l-194 -821q-2 -9 -3.5 -19t-1.5 -18q0 -16 8.5 -27t27.5 -11q52 0 104 41t97.5 111t77.5 157l24 -8q-58 -151 -148.5 -248t-217.5 -97zM582 1109q-44 0 -75.5 31t-31.5 75t31.5 75.5t75.5 31.5
t74.5 -31.5t30.5 -75.5t-30.5 -75t-74.5 -31zM242 1109q-44 0 -75.5 31t-31.5 75t31.5 75.5t75.5 31.5t74.5 -31.5t30.5 -75.5t-30.5 -75t-74.5 -31z" />
    <glyph glyph-name="eth" unicode="&#xf0;" horiz-adv-x="1147" 
d="M487 -20q-188 0 -297.5 85.5t-109.5 280.5q0 156 56 274t145 198t190.5 121t192.5 41q106 0 157 -46.5t67 -132t15 -202.5l-20 82q0 66 -16.5 125.5t-53.5 97.5t-100 38q-62 0 -121.5 -36.5t-110.5 -100.5t-89.5 -147.5t-60.5 -179t-22 -193.5q0 -73 14.5 -137
t52.5 -103.5t108 -39.5q60 0 118 46t109 122t89.5 166t60.5 179.5t22 162.5l7 14q1 119 -1.5 235t-21.5 218.5t-63.5 180.5t-124.5 123t-206 45v23q173 0 299 -57t208 -157.5t121.5 -232t39.5 -279.5q0 -157 -52.5 -303t-145 -261.5t-210 -182.5t-246.5 -67zM434 1235v25
h851v-25h-851z" />
    <glyph glyph-name="ntilde" unicode="&#xf1;" horiz-adv-x="1150" 
d="M763 -20q-81 0 -121.5 33.5t-40.5 99.5q0 22 4.5 42.5t8.5 35.5l131 429q24 77 33.5 137.5t-5.5 95t-63 34.5q-45 0 -103 -52.5t-117.5 -141t-111 -199.5t-81.5 -228h-18q21 81 57 172.5t84 180t105.5 161.5t119.5 116t126 43q86 0 131.5 -41t54.5 -109t-15 -150
l-160 -544q-3 -9 -4.5 -19t-1.5 -18q0 -15 8 -26t27 -11q73 0 131.5 70t120.5 225l23 -8q-45 -116 -91 -188.5t-102 -106t-130 -33.5zM37 0l228 895h-137v25h336l-235 -920h-192zM879 1092q-59 0 -104 24t-83 55t-76 55t-83 24q-56 0 -91.5 -29.5t-64.5 -100.5h-25
q20 85 60.5 143.5t92.5 88.5t105 30q54 0 96.5 -24t80 -55t73 -55t75.5 -24q57 0 92.5 30t63.5 100h26q-20 -95 -56 -152.5t-82.5 -83.5t-99.5 -26z" />
    <glyph glyph-name="ograve" unicode="&#xf2;" horiz-adv-x="991" 
d="M368 -20q-154 0 -231 89t-77 229q0 129 44.5 245t122 205t177 140.5t209.5 51.5q155 0 232 -90.5t77 -229.5q0 -129 -44.5 -244.5t-121.5 -204.5t-177 -140t-211 -51zM355 5q51 0 100.5 35.5t94 97.5t82.5 140t66 164t43.5 170t15.5 156q0 68 -32 107t-100 39
q-50 0 -99.5 -35.5t-94.5 -97.5t-83 -140t-66 -164t-43.5 -170t-15.5 -156q0 -68 32.5 -107t99.5 -39zM782 1105l-269 118q-25 10 -39.5 31.5t-16 47t11.5 45.5q9 14 25 24.5t36 12.5t40 -5.5t38 -28.5l188 -229z" />
    <glyph glyph-name="oacute" unicode="&#xf3;" horiz-adv-x="991" 
d="M368 -20q-154 0 -231 89t-77 229q0 129 44.5 245t122 205t177 140.5t209.5 51.5q155 0 232 -90.5t77 -229.5q0 -129 -44.5 -244.5t-121.5 -204.5t-177 -140t-211 -51zM355 5q51 0 100.5 35.5t94 97.5t82.5 140t66 164t43.5 170t15.5 156q0 68 -32 107t-100 39
q-50 0 -99.5 -35.5t-94.5 -97.5t-83 -140t-66 -164t-43.5 -170t-15.5 -156q0 -68 32.5 -107t99.5 -39zM542 1104l-14 16l188 230q17 21 37.5 28.5t40.5 5.5t36 -12.5t25 -24.5q13 -20 11 -45.5t-16 -47t-39 -31.5z" />
    <glyph glyph-name="ocircumflex" unicode="&#xf4;" horiz-adv-x="991" 
d="M368 -20q-154 0 -231 89t-77 229q0 129 44.5 245t122 205t177 140.5t209.5 51.5q155 0 232 -90.5t77 -229.5q0 -129 -44.5 -244.5t-121.5 -204.5t-177 -140t-211 -51zM355 5q51 0 100.5 35.5t94 97.5t82.5 140t66 164t43.5 170t15.5 156q0 68 -32 107t-100 39
q-50 0 -99.5 -35.5t-94.5 -97.5t-83 -140t-66 -164t-43.5 -170t-15.5 -156q0 -68 32.5 -107t99.5 -39zM368 1124l-14 15l272 234h142l185 -234l-15 -16l-245 146z" />
    <glyph glyph-name="otilde" unicode="&#xf5;" horiz-adv-x="991" 
d="M368 -20q-154 0 -231 89t-77 229q0 129 44.5 245t122 205t177 140.5t209.5 51.5q155 0 232 -90.5t77 -229.5q0 -129 -44.5 -244.5t-121.5 -204.5t-177 -140t-211 -51zM355 5q51 0 100.5 35.5t94 97.5t82.5 140t66 164t43.5 170t15.5 156q0 68 -32 107t-100 39
q-50 0 -99.5 -35.5t-94.5 -97.5t-83 -140t-66 -164t-43.5 -170t-15.5 -156q0 -68 32.5 -107t99.5 -39zM851 1092q-59 0 -104 24t-83 55t-76 55t-83 24q-56 0 -91.5 -29.5t-64.5 -100.5h-25q20 85 60.5 143.5t92.5 88.5t105 30q54 0 96.5 -24t80 -55t73 -55t75.5 -24
q57 0 92.5 30t63.5 100h26q-20 -95 -56 -152.5t-82.5 -83.5t-99.5 -26z" />
    <glyph glyph-name="odieresis" unicode="&#xf6;" horiz-adv-x="991" 
d="M368 -20q-154 0 -231 89t-77 229q0 129 44.5 245t122 205t177 140.5t209.5 51.5q155 0 232 -90.5t77 -229.5q0 -129 -44.5 -244.5t-121.5 -204.5t-177 -140t-211 -51zM355 5q51 0 100.5 35.5t94 97.5t82.5 140t66 164t43.5 170t15.5 156q0 68 -32 107t-100 39
q-50 0 -99.5 -35.5t-94.5 -97.5t-83 -140t-66 -164t-43.5 -170t-15.5 -156q0 -68 32.5 -107t99.5 -39zM812 1109q-44 0 -75.5 31t-31.5 75t31.5 75.5t75.5 31.5t74.5 -31.5t30.5 -75.5t-30.5 -75t-74.5 -31zM472 1109q-44 0 -75.5 31t-31.5 75t31.5 75.5t75.5 31.5
t74.5 -31.5t30.5 -75.5t-30.5 -75t-74.5 -31z" />
    <glyph glyph-name="divide" unicode="&#xf7;" horiz-adv-x="1119" 
d="M561 982q-52 0 -91 38t-39 90q0 53 39 90.5t91 37.5q54 0 90.5 -37.5t36.5 -90.5q0 -52 -36.5 -90t-90.5 -38zM561 272q-52 0 -91 38t-39 90q0 53 39 90.5t91 37.5q54 0 90.5 -37.5t36.5 -90.5q0 -52 -36.5 -90t-90.5 -38zM100 758v24h920v-24h-920z" />
    <glyph glyph-name="oslash" unicode="&#xf8;" horiz-adv-x="991" 
d="M-128 -246l1267 1404h33l-1267 -1404h-33zM368 -20q-154 0 -231 89t-77 229q0 129 44.5 245t122 205t177 140.5t209.5 51.5q155 0 232 -90.5t77 -229.5q0 -129 -44.5 -244.5t-121.5 -204.5t-177 -140t-211 -51zM355 5q51 0 100.5 35.5t94 97.5t82.5 140t66 164t43.5 170
t15.5 156q0 68 -32 107t-100 39q-50 0 -99.5 -35.5t-94.5 -97.5t-83 -140t-66 -164t-43.5 -170t-15.5 -156q0 -68 32.5 -107t99.5 -39z" />
    <glyph glyph-name="ugrave" unicode="&#xf9;" horiz-adv-x="1145" 
d="M252 -20q-93 0 -138 41t-50.5 109.5t14.5 151.5l151 613h-133v25h337l-158 -619q-20 -78 -29.5 -139t4.5 -95.5t64 -34.5q44 0 104 52.5t121.5 141.5t113.5 200t81 228h20q-20 -81 -56.5 -173t-86 -181t-108 -161.5t-122.5 -115.5t-129 -43zM770 -20q-84 0 -124.5 40
t-40.5 90q0 13 3 32t7 35l186 743h196l-223 -831q-2 -9 -3 -18.5t-1 -16.5q0 -36 34 -36q46 0 87.5 29t81.5 94.5t84 174.5l23 -8q-44 -114 -89.5 -186.5t-98.5 -107t-122 -34.5zM703 1105l-269 118q-25 10 -39.5 31.5t-16 47t11.5 45.5q9 14 25 24.5t36 12.5t40 -5.5
t38 -28.5l188 -229z" />
    <glyph glyph-name="uacute" unicode="&#xfa;" horiz-adv-x="1145" 
d="M252 -20q-93 0 -138 41t-50.5 109.5t14.5 151.5l151 613h-133v25h337l-158 -619q-20 -78 -29.5 -139t4.5 -95.5t64 -34.5q44 0 104 52.5t121.5 141.5t113.5 200t81 228h20q-20 -81 -56.5 -173t-86 -181t-108 -161.5t-122.5 -115.5t-129 -43zM770 -20q-84 0 -124.5 40
t-40.5 90q0 13 3 32t7 35l186 743h196l-223 -831q-2 -9 -3 -18.5t-1 -16.5q0 -36 34 -36q46 0 87.5 29t81.5 94.5t84 174.5l23 -8q-44 -114 -89.5 -186.5t-98.5 -107t-122 -34.5zM463 1104l-14 16l188 230q17 21 37.5 28.5t40.5 5.5t36 -12.5t25 -24.5q13 -20 11 -45.5
t-16 -47t-39 -31.5z" />
    <glyph glyph-name="ucircumflex" unicode="&#xfb;" horiz-adv-x="1145" 
d="M252 -20q-93 0 -138 41t-50.5 109.5t14.5 151.5l151 613h-133v25h337l-158 -619q-20 -78 -29.5 -139t4.5 -95.5t64 -34.5q44 0 104 52.5t121.5 141.5t113.5 200t81 228h20q-20 -81 -56.5 -173t-86 -181t-108 -161.5t-122.5 -115.5t-129 -43zM770 -20q-84 0 -124.5 40
t-40.5 90q0 13 3 32t7 35l186 743h196l-223 -831q-2 -9 -3 -18.5t-1 -16.5q0 -36 34 -36q46 0 87.5 29t81.5 94.5t84 174.5l23 -8q-44 -114 -89.5 -186.5t-98.5 -107t-122 -34.5zM289 1124l-14 15l272 234h142l185 -234l-15 -16l-245 146z" />
    <glyph glyph-name="udieresis" unicode="&#xfc;" horiz-adv-x="1145" 
d="M252 -20q-93 0 -138 41t-50.5 109.5t14.5 151.5l151 613h-133v25h337l-158 -619q-20 -78 -29.5 -139t4.5 -95.5t64 -34.5q44 0 104 52.5t121.5 141.5t113.5 200t81 228h20q-20 -81 -56.5 -173t-86 -181t-108 -161.5t-122.5 -115.5t-129 -43zM770 -20q-84 0 -124.5 40
t-40.5 90q0 13 3 32t7 35l186 743h196l-223 -831q-2 -9 -3 -18.5t-1 -16.5q0 -36 34 -36q46 0 87.5 29t81.5 94.5t84 174.5l23 -8q-44 -114 -89.5 -186.5t-98.5 -107t-122 -34.5zM733 1109q-44 0 -75.5 31t-31.5 75t31.5 75.5t75.5 31.5t74.5 -31.5t30.5 -75.5t-30.5 -75
t-74.5 -31zM393 1109q-44 0 -75.5 31t-31.5 75t31.5 75.5t75.5 31.5t74.5 -31.5t30.5 -75.5t-30.5 -75t-74.5 -31z" />
    <glyph glyph-name="yacute" unicode="&#xfd;" horiz-adv-x="1051" 
d="M113 -520q-70 0 -121 29t-79 80t-28 117q0 36 16.5 69t46.5 53.5t71 20.5q28 0 56.5 -12.5t47.5 -38.5t19 -67q0 -54 -34.5 -87.5t-78.5 -33.5q-30 0 -63 11t-56 32t-23 53h23q0 -61 24.5 -106.5t70 -70.5t107.5 -25q78 0 167.5 54.5t183 146t183 205.5t168 235.5
t138.5 235.5t94.5 205t34.5 144q0 40 -14 82.5t-45.5 72t-82.5 29.5v23q41 0 72.5 -18t49 -46t17.5 -59q0 -36 -19 -64.5t-49.5 -44t-67.5 -15.5q-64 0 -101 37t-37 88t38 87.5t97 36.5q63 0 100 -34t52.5 -83t15.5 -91q0 -56 -34.5 -150.5t-95.5 -211t-141 -240
t-171.5 -239t-187.5 -208.5t-189.5 -147.5t-174.5 -54.5zM637 -129q-36 63 -72 148.5t-69.5 182t-64.5 194t-56.5 185t-46.5 155.5t-35 104q-6 16 -19 30.5t-45 14.5q-37 0 -83 -43t-88 -159l-24 10q33 90 73 144t91 78t115 24q93 0 137.5 -49t65.5 -125q20 -67 44.5 -159.5
t56 -192.5t70 -194.5t86.5 -166.5q-17 -24 -32 -46t-31 -43t-34 -43.5t-39 -48.5zM523 1104l-14 16l188 230q17 21 37.5 28.5t40.5 5.5t36 -12.5t25 -24.5q13 -20 11 -45.5t-16 -47t-39 -31.5z" />
    <glyph glyph-name="thorn" unicode="&#xfe;" horiz-adv-x="1167" 
d="M-26 -500l453 1977h-138v23h352l-209 -915l-41 -142l-15 -117l-194 -826h-208zM-153 -500v23h478v-23h-478zM518 38q67 0 129.5 56.5t112.5 147t79.5 196.5t29.5 205q0 111 -37.5 178t-108.5 67q-63 0 -116 -40t-95.5 -106t-72.5 -144.5t-45.5 -158t-15.5 -145.5
q0 -70 16.5 -128t47.5 -93t76 -35zM582 -20q-118 0 -170.5 88t-52.5 226q0 65 16.5 149.5t49.5 171t83.5 160.5t119 119t155.5 45q70 0 143.5 -31t124 -104.5t50.5 -199.5q0 -143 -49 -258t-128 -197t-169.5 -125.5t-172.5 -43.5z" />
    <glyph glyph-name="ydieresis" unicode="&#xff;" horiz-adv-x="1051" 
d="M113 -520q-70 0 -121 29t-79 80t-28 117q0 36 16.5 69t46.5 53.5t71 20.5q28 0 56.5 -12.5t47.5 -38.5t19 -67q0 -54 -34.5 -87.5t-78.5 -33.5q-30 0 -63 11t-56 32t-23 53h23q0 -61 24.5 -106.5t70 -70.5t107.5 -25q78 0 167.5 54.5t183 146t183 205.5t168 235.5
t138.5 235.5t94.5 205t34.5 144q0 40 -14 82.5t-45.5 72t-82.5 29.5v23q41 0 72.5 -18t49 -46t17.5 -59q0 -36 -19 -64.5t-49.5 -44t-67.5 -15.5q-64 0 -101 37t-37 88t38 87.5t97 36.5q63 0 100 -34t52.5 -83t15.5 -91q0 -56 -34.5 -150.5t-95.5 -211t-141 -240
t-171.5 -239t-187.5 -208.5t-189.5 -147.5t-174.5 -54.5zM637 -129q-36 63 -72 148.5t-69.5 182t-64.5 194t-56.5 185t-46.5 155.5t-35 104q-6 16 -19 30.5t-45 14.5q-37 0 -83 -43t-88 -159l-24 10q33 90 73 144t91 78t115 24q93 0 137.5 -49t65.5 -125q20 -67 44.5 -159.5
t56 -192.5t70 -194.5t86.5 -166.5q-17 -24 -32 -46t-31 -43t-34 -43.5t-39 -48.5zM792 1109q-44 0 -75.5 31t-31.5 75t31.5 75.5t75.5 31.5t74.5 -31.5t30.5 -75.5t-30.5 -75t-74.5 -31zM452 1109q-44 0 -75.5 31t-31.5 75t31.5 75.5t75.5 31.5t74.5 -31.5t30.5 -75.5
t-30.5 -75t-74.5 -31z" />
    <glyph glyph-name="Amacron" unicode="&#x100;" horiz-adv-x="1476" 
d="M72 0l882 1529h53l190 -1529h-244l-128 1258l-725 -1258h-28zM-91 0v25h440v-25h-440zM723 0v25h614v-25h-614zM370 477v25h658v-25h-658zM705 1700v25h480v-25h-480z" />
    <glyph glyph-name="amacron" unicode="&#x101;" horiz-adv-x="1103" 
d="M314 -20q-134 0 -194.5 87t-60.5 238q0 115 42.5 227.5t114.5 204.5t158.5 147.5t174.5 55.5q70 0 108.5 -38.5t53.5 -102t15 -137.5q0 -63 -13 -137.5t-38.5 -151t-61.5 -147t-82 -126t-100.5 -88t-116.5 -32.5zM361 31q53 0 103.5 40t94.5 107.5t77 150t51.5 169
t18.5 164.5q0 68 -12 120.5t-39 82t-73 29.5q-49 0 -97.5 -44.5t-92.5 -118.5t-78 -163t-53.5 -179t-19.5 -166q0 -96 32.5 -144t87.5 -48zM756 -20q-75 0 -110.5 39.5t-35.5 102.5q0 17 1 31t3 24l28 148l48 153l28 169l66 273h197l-222 -833q-4 -15 -4 -31
q0 -17 8.5 -27.5t29.5 -10.5q44 0 84.5 29t81 94.5t83.5 174.5l24 -8q-44 -114 -89 -186.5t-98 -107t-123 -34.5zM399 1120v25h480v-25h-480z" />
    <glyph glyph-name="Abreve" unicode="&#x102;" horiz-adv-x="1476" 
d="M72 0l882 1529h53l190 -1529h-244l-128 1258l-725 -1258h-28zM-91 0v25h440v-25h-440zM723 0v25h614v-25h-614zM370 477v25h658v-25h-658zM989 1682q-64 0 -100.5 25.5t-53.5 66.5t-18 89t6 94h25q-8 -48 13 -79.5t60.5 -47.5t87.5 -16t99.5 15.5t91 47t50.5 80.5h24
q-7 -46 -26 -94t-53 -89t-84.5 -66.5t-121.5 -25.5z" />
    <glyph glyph-name="abreve" unicode="&#x103;" horiz-adv-x="1103" 
d="M314 -20q-134 0 -194.5 87t-60.5 238q0 115 42.5 227.5t114.5 204.5t158.5 147.5t174.5 55.5q70 0 108.5 -38.5t53.5 -102t15 -137.5q0 -63 -13 -137.5t-38.5 -151t-61.5 -147t-82 -126t-100.5 -88t-116.5 -32.5zM361 31q53 0 103.5 40t94.5 107.5t77 150t51.5 169
t18.5 164.5q0 68 -12 120.5t-39 82t-73 29.5q-49 0 -97.5 -44.5t-92.5 -118.5t-78 -163t-53.5 -179t-19.5 -166q0 -96 32.5 -144t87.5 -48zM756 -20q-75 0 -110.5 39.5t-35.5 102.5q0 17 1 31t3 24l28 148l48 153l28 169l66 273h197l-222 -833q-4 -15 -4 -31
q0 -17 8.5 -27.5t29.5 -10.5q44 0 84.5 29t81 94.5t83.5 174.5l24 -8q-44 -114 -89 -186.5t-98 -107t-123 -34.5zM683 1102q-64 0 -100.5 25.5t-53.5 66.5t-18 89t6 94h25q-8 -48 13 -79.5t60.5 -47.5t87.5 -16t99.5 15.5t91 47t50.5 80.5h24q-7 -46 -26 -94t-53 -89
t-84.5 -66.5t-121.5 -25.5z" />
    <glyph glyph-name="Aogonek" unicode="&#x104;" horiz-adv-x="1476" 
d="M72 0l882 1529h53l190 -1529h-244l-128 1258l-725 -1258h-28zM-91 0v25h440v-25h-440zM723 0v25h614v-25h-614zM370 477v25h658v-25h-658zM972 -446q-54 0 -102.5 13t-79.5 46t-31 92q0 60 37.5 110.5t94.5 90t119.5 67.5t112.5 44l7 -11q-33 -20 -70.5 -58t-63.5 -94
t-26 -128q0 -62 23 -93t58 -31t63 18t48.5 44t33.5 50l20 -9q-15 -28 -43.5 -63.5t-77 -61.5t-123.5 -26z" />
    <glyph glyph-name="aogonek" unicode="&#x105;" horiz-adv-x="1103" 
d="M314 -20q-134 0 -194.5 87t-60.5 238q0 115 42.5 227.5t114.5 204.5t158.5 147.5t174.5 55.5q70 0 108.5 -38.5t53.5 -102t15 -137.5q0 -63 -13 -137.5t-38.5 -151t-61.5 -147t-82 -126t-100.5 -88t-116.5 -32.5zM361 31q53 0 103.5 40t94.5 107.5t77 150t51.5 169
t18.5 164.5q0 68 -12 120.5t-39 82t-73 29.5q-49 0 -97.5 -44.5t-92.5 -118.5t-78 -163t-53.5 -179t-19.5 -166q0 -96 32.5 -144t87.5 -48zM756 -20q-75 0 -110.5 39.5t-35.5 102.5q0 17 1 31t3 24l28 148l48 153l28 169l66 273h197l-222 -833q-4 -15 -4 -31
q0 -17 8.5 -27.5t29.5 -10.5q44 0 84.5 29t81 94.5t83.5 174.5l24 -8q-44 -114 -89 -186.5t-98 -107t-123 -34.5zM704 -446q-54 0 -102.5 13t-79.5 46t-31 92q0 60 37.5 110.5t94.5 90t119.5 67.5t112.5 44l7 -11q-33 -20 -70.5 -58t-63.5 -94t-26 -128q0 -62 23 -93t58 -31
t63 18t48.5 44t33.5 50l20 -9q-15 -28 -43.5 -63.5t-77 -61.5t-123.5 -26z" />
    <glyph glyph-name="Cacute" unicode="&#x106;" horiz-adv-x="1352" 
d="M633 -20q-158 0 -276 64.5t-183.5 183.5t-65.5 282q0 205 70 387.5t191.5 322.5t279.5 220t335 80q121 0 214 -50t141.5 -147.5t36.5 -240.5h-14q8 105 -18 181.5t-75.5 126.5t-116 74t-139.5 24q-105 0 -194 -49.5t-161.5 -136t-128.5 -197.5t-93.5 -234.5t-57 -248.5
t-19.5 -237q0 -101 31.5 -186t97.5 -136.5t170 -51.5q130 0 240.5 54t194 146t133.5 207h16q-46 -123 -135 -222.5t-210 -157.5t-264 -58zM1119 0l-75 139q38 39 77 83t75 112l30 84h25l-110 -418h-22zM1362 1082l7 71q-4 60 -17 109.5t-42 94.5l153 143h21l-97 -418h-25z
M908 1684l-14 16l188 230q17 21 37.5 28.5t40.5 5.5t36 -12.5t25 -24.5q13 -20 11 -45.5t-16 -47t-39 -31.5z" />
    <glyph glyph-name="cacute" unicode="&#x107;" horiz-adv-x="902" 
d="M365 -20q-148 0 -226.5 87.5t-78.5 229.5q0 117 44 230.5t121.5 207t176.5 149.5t209 56q84 0 145 -32t94 -77.5t33 -88.5q0 -58 -33.5 -92t-82.5 -34q-42 0 -76.5 26.5t-34.5 82.5q0 47 31.5 79t75.5 32q31 0 57.5 -8.5t43.5 -29t17 -56.5h-23q0 38 -30 76.5t-80.5 64.5
t-113.5 26q-69 0 -130 -48t-110 -128t-84 -174.5t-54 -188.5t-19 -170q0 -85 38.5 -135.5t113.5 -50.5q82 0 153 34.5t128 93.5t99 130l22 -13q-41 -74 -102.5 -137.5t-142.5 -102.5t-181 -39zM540 1104l-14 16l188 230q17 21 37.5 28.5t40.5 5.5t36 -12.5t25 -24.5
q13 -20 11 -45.5t-16 -47t-39 -31.5z" />
    <glyph glyph-name="Ccircumflex" unicode="&#x108;" horiz-adv-x="1352" 
d="M633 -20q-158 0 -276 64.5t-183.5 183.5t-65.5 282q0 205 70 387.5t191.5 322.5t279.5 220t335 80q121 0 214 -50t141.5 -147.5t36.5 -240.5h-14q8 105 -18 181.5t-75.5 126.5t-116 74t-139.5 24q-105 0 -194 -49.5t-161.5 -136t-128.5 -197.5t-93.5 -234.5t-57 -248.5
t-19.5 -237q0 -101 31.5 -186t97.5 -136.5t170 -51.5q130 0 240.5 54t194 146t133.5 207h16q-46 -123 -135 -222.5t-210 -157.5t-264 -58zM1119 0l-75 139q38 39 77 83t75 112l30 84h25l-110 -418h-22zM1362 1082l7 71q-4 60 -17 109.5t-42 94.5l153 143h21l-97 -418h-25z
M734 1704l-14 15l272 234h142l185 -234l-15 -16l-245 146z" />
    <glyph glyph-name="ccircumflex" unicode="&#x109;" horiz-adv-x="902" 
d="M365 -20q-148 0 -226.5 87.5t-78.5 229.5q0 117 44 230.5t121.5 207t176.5 149.5t209 56q84 0 145 -32t94 -77.5t33 -88.5q0 -58 -33.5 -92t-82.5 -34q-42 0 -76.5 26.5t-34.5 82.5q0 47 31.5 79t75.5 32q31 0 57.5 -8.5t43.5 -29t17 -56.5h-23q0 38 -30 76.5t-80.5 64.5
t-113.5 26q-69 0 -130 -48t-110 -128t-84 -174.5t-54 -188.5t-19 -170q0 -85 38.5 -135.5t113.5 -50.5q82 0 153 34.5t128 93.5t99 130l22 -13q-41 -74 -102.5 -137.5t-142.5 -102.5t-181 -39zM366 1124l-14 15l272 234h142l185 -234l-15 -16l-245 146z" />
    <glyph glyph-name="Cdotaccent" unicode="&#x10a;" horiz-adv-x="1352" 
d="M633 -20q-158 0 -276 64.5t-183.5 183.5t-65.5 282q0 205 70 387.5t191.5 322.5t279.5 220t335 80q121 0 214 -50t141.5 -147.5t36.5 -240.5h-14q8 105 -18 181.5t-75.5 126.5t-116 74t-139.5 24q-105 0 -194 -49.5t-161.5 -136t-128.5 -197.5t-93.5 -234.5t-57 -248.5
t-19.5 -237q0 -101 31.5 -186t97.5 -136.5t170 -51.5q130 0 240.5 54t194 146t133.5 207h16q-46 -123 -135 -222.5t-210 -157.5t-264 -58zM1119 0l-75 139q38 39 77 83t75 112l30 84h25l-110 -418h-22zM1362 1082l7 71q-4 60 -17 109.5t-42 94.5l153 143h21l-97 -418h-25z
M1076 1824q-37 0 -67 18.5t-48 49t-18 67.5q0 36 18 66.5t48 49t67 18.5q38 0 68.5 -18.5t48.5 -49t18 -66.5q0 -37 -18 -67.5t-48.5 -49t-68.5 -18.5z" />
    <glyph glyph-name="cdotaccent" unicode="&#x10b;" horiz-adv-x="902" 
d="M365 -20q-148 0 -226.5 87.5t-78.5 229.5q0 117 44 230.5t121.5 207t176.5 149.5t209 56q84 0 145 -32t94 -77.5t33 -88.5q0 -58 -33.5 -92t-82.5 -34q-42 0 -76.5 26.5t-34.5 82.5q0 47 31.5 79t75.5 32q31 0 57.5 -8.5t43.5 -29t17 -56.5h-23q0 38 -30 76.5t-80.5 64.5
t-113.5 26q-69 0 -130 -48t-110 -128t-84 -174.5t-54 -188.5t-19 -170q0 -85 38.5 -135.5t113.5 -50.5q82 0 153 34.5t128 93.5t99 130l22 -13q-41 -74 -102.5 -137.5t-142.5 -102.5t-181 -39zM708 1244q-37 0 -67 18.5t-48 49t-18 67.5q0 36 18 66.5t48 49t67 18.5
q38 0 68.5 -18.5t48.5 -49t18 -66.5q0 -37 -18 -67.5t-48.5 -49t-68.5 -18.5z" />
    <glyph glyph-name="Ccaron" unicode="&#x10c;" horiz-adv-x="1352" 
d="M633 -20q-158 0 -276 64.5t-183.5 183.5t-65.5 282q0 205 70 387.5t191.5 322.5t279.5 220t335 80q121 0 214 -50t141.5 -147.5t36.5 -240.5h-14q8 105 -18 181.5t-75.5 126.5t-116 74t-139.5 24q-105 0 -194 -49.5t-161.5 -136t-128.5 -197.5t-93.5 -234.5t-57 -248.5
t-19.5 -237q0 -101 31.5 -186t97.5 -136.5t170 -51.5q130 0 240.5 54t194 146t133.5 207h16q-46 -123 -135 -222.5t-210 -157.5t-264 -58zM1119 0l-75 139q38 39 77 83t75 112l30 84h25l-110 -418h-22zM1362 1082l7 71q-4 60 -17 109.5t-42 94.5l153 143h21l-97 -418h-25z
M951 1700l-185 235l17 16l243 -147l324 146l14 -15l-273 -235h-140z" />
    <glyph glyph-name="ccaron" unicode="&#x10d;" horiz-adv-x="902" 
d="M365 -20q-148 0 -226.5 87.5t-78.5 229.5q0 117 44 230.5t121.5 207t176.5 149.5t209 56q84 0 145 -32t94 -77.5t33 -88.5q0 -58 -33.5 -92t-82.5 -34q-42 0 -76.5 26.5t-34.5 82.5q0 47 31.5 79t75.5 32q31 0 57.5 -8.5t43.5 -29t17 -56.5h-23q0 38 -30 76.5t-80.5 64.5
t-113.5 26q-69 0 -130 -48t-110 -128t-84 -174.5t-54 -188.5t-19 -170q0 -85 38.5 -135.5t113.5 -50.5q82 0 153 34.5t128 93.5t99 130l22 -13q-41 -74 -102.5 -137.5t-142.5 -102.5t-181 -39zM584 1120l-185 235l17 16l243 -147l324 146l14 -15l-273 -235h-140z" />
    <glyph glyph-name="Dcaron" unicode="&#x10e;" horiz-adv-x="1424" 
d="M-71 0v25h592q105 0 193.5 48.5t161 132.5t128 191.5t92.5 226t56.5 235.5t19.5 219q0 69 -16 139t-51.5 128.5t-96 94t-150.5 35.5h-609v25h618q163 0 289 -59t198 -174t72 -283q0 -201 -69.5 -379.5t-192.5 -314t-285 -213t-347 -77.5h-603zM108 0l341 1500h224
l-341 -1500h-224zM738 1700l-185 235l17 16l243 -147l324 146l14 -15l-273 -235h-140z" />
    <glyph glyph-name="dcaron" unicode="&#x10f;" horiz-adv-x="1112" 
d="M756 -20q-75 0 -110.5 39.5t-35.5 102.5q0 9 0.5 24t3.5 31l28 148l58 165l9 121l232 864h-166v25h361l-377 -1412q-4 -16 -4 -32q0 -15 8.5 -27t29.5 -12q45 0 85 29t80.5 95t83.5 175l24 -8q-44 -114 -88.5 -186.5t-98 -107t-123.5 -34.5zM315 -20q-134 0 -195 87
t-61 238q0 115 42.5 227.5t114.5 204.5t158.5 147.5t174.5 55.5q69 0 107.5 -37.5t54 -101t15.5 -139.5q0 -63 -13 -137.5t-38 -151t-61 -147t-82 -126t-100.5 -88t-116.5 -32.5zM361 31q53 0 103.5 40t94.5 107t77 150t51.5 169.5t18.5 164.5q0 68 -12 120.5t-39 82
t-73 29.5q-49 0 -97.5 -44.5t-92.5 -118.5t-78 -163t-53.5 -179t-19.5 -166q0 -95 31.5 -143.5t88.5 -48.5zM1174 980v24q66 0 132.5 32t120.5 86t83.5 122t21.5 140h23q0 -36 -21.5 -63.5t-55.5 -42t-71 -14.5q-68 0 -102 35.5t-34 86.5q0 36 19 66.5t52 49t73 18.5
q62 0 103 -40.5t41 -122.5q0 -72 -33 -139.5t-88 -121t-123.5 -85t-140.5 -31.5z" />
    <glyph glyph-name="Dcroat" unicode="&#x110;" horiz-adv-x="1424" 
d="M141 718v24h614v-24h-614zM-71 0v25h592q105 0 193.5 48.5t161 132.5t128 191.5t92.5 226t56.5 235.5t19.5 219q0 69 -16 139t-51.5 128.5t-96 94t-150.5 35.5h-609v25h618q163 0 289 -59t198 -174t72 -283q0 -201 -69.5 -379.5t-192.5 -314t-285 -213t-347 -77.5h-603z
M108 0l341 1500h224l-341 -1500h-224z" />
    <glyph glyph-name="dcroat" unicode="&#x111;" horiz-adv-x="1112" 
d="M551 1128v24h617v-24h-617zM756 -20q-75 0 -110.5 39.5t-35.5 102.5q0 9 0.5 24t3.5 31l28 148l58 165l9 121l232 864h-166v25h361l-377 -1412q-4 -16 -4 -32q0 -15 8.5 -27t29.5 -12q45 0 85 29t80.5 95t83.5 175l24 -8q-44 -114 -88.5 -186.5t-98 -107t-123.5 -34.5z
M315 -20q-134 0 -195 87t-61 238q0 115 42.5 227.5t114.5 204.5t158.5 147.5t174.5 55.5q69 0 107.5 -37.5t54 -101t15.5 -139.5q0 -63 -13 -137.5t-38 -151t-61 -147t-82 -126t-100.5 -88t-116.5 -32.5zM361 31q53 0 103.5 40t94.5 107t77 150t51.5 169.5t18.5 164.5
q0 68 -12 120.5t-39 82t-73 29.5q-49 0 -97.5 -44.5t-92.5 -118.5t-78 -163t-53.5 -179t-19.5 -166q0 -95 31.5 -143.5t88.5 -48.5z" />
    <glyph glyph-name="Emacron" unicode="&#x112;" horiz-adv-x="1181" 
d="M79 0l348 1500h223l-348 -1500h-223zM-91 0v25h695q137 0 231.5 53.5t154 149t93.5 222.5h25l-104 -450h-1095zM755 548q11 67 -8.5 115t-61 74t-98.5 26h-139v25h139q57 0 112 24t97 69.5t62 112.5h24l-102 -446h-25zM1211 1090q21 107 3 194.5t-81.5 139t-180.5 51.5
h-705v25h1085l-96 -410h-25zM603 1700v25h480v-25h-480z" />
    <glyph glyph-name="emacron" unicode="&#x113;" horiz-adv-x="939" 
d="M360 -20q-100 0 -167.5 41t-102.5 113t-35 166q0 117 43.5 231t121 206.5t181.5 147.5t225 55q118 0 183 -56t65 -138q0 -79 -53.5 -141.5t-144 -106.5t-204.5 -69.5t-236 -33.5v21q83 6 155 26.5t130 54t99.5 79.5t63.5 103t22 123q0 44 -18.5 78.5t-64.5 34.5
q-54 0 -103.5 -34.5t-93 -94t-79.5 -134t-62 -155.5t-40 -160t-14 -145q0 -102 43 -140.5t109 -38.5q80 0 150.5 33.5t128.5 91.5t102 133l22 -13q-41 -74 -102 -137.5t-142 -102t-182 -38.5zM322 1120v25h480v-25h-480z" />
    <glyph glyph-name="Ebreve" unicode="&#x114;" horiz-adv-x="1181" 
d="M79 0l348 1500h223l-348 -1500h-223zM-91 0v25h695q137 0 231.5 53.5t154 149t93.5 222.5h25l-104 -450h-1095zM755 548q11 67 -8.5 115t-61 74t-98.5 26h-139v25h139q57 0 112 24t97 69.5t62 112.5h24l-102 -446h-25zM1211 1090q21 107 3 194.5t-81.5 139t-180.5 51.5
h-705v25h1085l-96 -410h-25zM887 1682q-64 0 -100.5 25.5t-53.5 66.5t-18 89t6 94h25q-8 -48 13 -79.5t60.5 -47.5t87.5 -16t99.5 15.5t91 47t50.5 80.5h24q-7 -46 -26 -94t-53 -89t-84.5 -66.5t-121.5 -25.5z" />
    <glyph glyph-name="ebreve" unicode="&#x115;" horiz-adv-x="939" 
d="M360 -20q-100 0 -167.5 41t-102.5 113t-35 166q0 117 43.5 231t121 206.5t181.5 147.5t225 55q118 0 183 -56t65 -138q0 -79 -53.5 -141.5t-144 -106.5t-204.5 -69.5t-236 -33.5v21q83 6 155 26.5t130 54t99.5 79.5t63.5 103t22 123q0 44 -18.5 78.5t-64.5 34.5
q-54 0 -103.5 -34.5t-93 -94t-79.5 -134t-62 -155.5t-40 -160t-14 -145q0 -102 43 -140.5t109 -38.5q80 0 150.5 33.5t128.5 91.5t102 133l22 -13q-41 -74 -102 -137.5t-142 -102t-182 -38.5zM606 1102q-64 0 -100.5 25.5t-53.5 66.5t-18 89t6 94h25q-8 -48 13 -79.5
t60.5 -47.5t87.5 -16t99.5 15.5t91 47t50.5 80.5h24q-7 -46 -26 -94t-53 -89t-84.5 -66.5t-121.5 -25.5z" />
    <glyph glyph-name="Edotaccent" unicode="&#x116;" horiz-adv-x="1181" 
d="M79 0l348 1500h223l-348 -1500h-223zM-91 0v25h695q137 0 231.5 53.5t154 149t93.5 222.5h25l-104 -450h-1095zM755 548q11 67 -8.5 115t-61 74t-98.5 26h-139v25h139q57 0 112 24t97 69.5t62 112.5h24l-102 -446h-25zM1211 1090q21 107 3 194.5t-81.5 139t-180.5 51.5
h-705v25h1085l-96 -410h-25zM948 1824q-37 0 -67 18.5t-48 49t-18 67.5q0 36 18 66.5t48 49t67 18.5q38 0 68.5 -18.5t48.5 -49t18 -66.5q0 -37 -18 -67.5t-48.5 -49t-68.5 -18.5z" />
    <glyph glyph-name="edotaccent" unicode="&#x117;" horiz-adv-x="939" 
d="M360 -20q-100 0 -167.5 41t-102.5 113t-35 166q0 117 43.5 231t121 206.5t181.5 147.5t225 55q118 0 183 -56t65 -138q0 -79 -53.5 -141.5t-144 -106.5t-204.5 -69.5t-236 -33.5v21q83 6 155 26.5t130 54t99.5 79.5t63.5 103t22 123q0 44 -18.5 78.5t-64.5 34.5
q-54 0 -103.5 -34.5t-93 -94t-79.5 -134t-62 -155.5t-40 -160t-14 -145q0 -102 43 -140.5t109 -38.5q80 0 150.5 33.5t128.5 91.5t102 133l22 -13q-41 -74 -102 -137.5t-142 -102t-182 -38.5zM667 1244q-37 0 -67 18.5t-48 49t-18 67.5q0 36 18 66.5t48 49t67 18.5
q38 0 68.5 -18.5t48.5 -49t18 -66.5q0 -37 -18 -67.5t-48.5 -49t-68.5 -18.5z" />
    <glyph glyph-name="Eogonek" unicode="&#x118;" horiz-adv-x="1181" 
d="M79 0l348 1500h223l-348 -1500h-223zM-91 0v25h695q137 0 231.5 53.5t154 149t93.5 222.5h25l-104 -450h-1095zM755 548q11 67 -8.5 115t-61 74t-98.5 26h-139v25h139q57 0 112 24t97 69.5t62 112.5h24l-102 -446h-25zM1211 1090q21 107 3 194.5t-81.5 139t-180.5 51.5
h-705v25h1085l-96 -410h-25zM719 -446q-54 0 -102.5 13t-79.5 46t-31 92q0 60 37.5 110.5t94.5 90t119.5 67.5t112.5 44l7 -11q-33 -20 -70.5 -58t-63.5 -94t-26 -128q0 -62 23 -93t58 -31t63 18t48.5 44t33.5 50l20 -9q-15 -28 -43.5 -63.5t-77 -61.5t-123.5 -26z" />
    <glyph glyph-name="eogonek" unicode="&#x119;" horiz-adv-x="939" 
d="M360 -20q-100 0 -167.5 41t-102.5 113t-35 166q0 117 43.5 231t121 206.5t181.5 147.5t225 55q118 0 183 -56t65 -138q0 -79 -53.5 -141.5t-144 -106.5t-204.5 -69.5t-236 -33.5v21q83 6 155 26.5t130 54t99.5 79.5t63.5 103t22 123q0 44 -18.5 78.5t-64.5 34.5
q-54 0 -103.5 -34.5t-93 -94t-79.5 -134t-62 -155.5t-40 -160t-14 -145q0 -102 43 -140.5t109 -38.5q80 0 150.5 33.5t128.5 91.5t102 133l22 -13q-41 -74 -102 -137.5t-142 -102t-182 -38.5zM350 -446q-54 0 -102.5 13t-79.5 46t-31 92q0 60 37.5 110.5t94.5 90t119.5 67.5
t112.5 44l7 -11q-33 -20 -70.5 -58t-63.5 -94t-26 -128q0 -62 23 -93t58 -31t63 18t48.5 44t33.5 50l20 -9q-15 -28 -43.5 -63.5t-77 -61.5t-123.5 -26z" />
    <glyph glyph-name="Ecaron" unicode="&#x11a;" horiz-adv-x="1181" 
d="M79 0l348 1500h223l-348 -1500h-223zM-91 0v25h695q137 0 231.5 53.5t154 149t93.5 222.5h25l-104 -450h-1095zM755 548q11 67 -8.5 115t-61 74t-98.5 26h-139v25h139q57 0 112 24t97 69.5t62 112.5h24l-102 -446h-25zM1211 1090q21 107 3 194.5t-81.5 139t-180.5 51.5
h-705v25h1085l-96 -410h-25zM824 1700l-185 235l17 16l243 -147l324 146l14 -15l-273 -235h-140z" />
    <glyph glyph-name="ecaron" unicode="&#x11b;" horiz-adv-x="939" 
d="M360 -20q-100 0 -167.5 41t-102.5 113t-35 166q0 117 43.5 231t121 206.5t181.5 147.5t225 55q118 0 183 -56t65 -138q0 -79 -53.5 -141.5t-144 -106.5t-204.5 -69.5t-236 -33.5v21q83 6 155 26.5t130 54t99.5 79.5t63.5 103t22 123q0 44 -18.5 78.5t-64.5 34.5
q-54 0 -103.5 -34.5t-93 -94t-79.5 -134t-62 -155.5t-40 -160t-14 -145q0 -102 43 -140.5t109 -38.5q80 0 150.5 33.5t128.5 91.5t102 133l22 -13q-41 -74 -102 -137.5t-142 -102t-182 -38.5zM543 1120l-185 235l17 16l243 -147l324 146l14 -15l-273 -235h-140z" />
    <glyph glyph-name="Gcircumflex" unicode="&#x11c;" horiz-adv-x="1493" 
d="M633 -20q-156 0 -274 63.5t-184.5 182t-66.5 284.5t46.5 316.5t129.5 277t194.5 220t242.5 145t272 51.5q120 0 214.5 -50t143.5 -147.5t36 -240.5h-14q9 103 -17 179.5t-76 126t-117 74.5t-142 25q-126 0 -230.5 -69.5t-185 -185.5t-135 -259.5t-83 -294.5t-28.5 -287
q0 -102 23.5 -190t80 -142t155.5 -54q86 0 151.5 29.5t112 72t76 83t42.5 60.5l83 317h242l-62 -237q-34 -47 -90.5 -107t-136 -115.5t-180.5 -91.5t-223 -36zM900 557v25h568v-25h-568zM1373 1082l8 67q-2 53 -16 109t-46 103l155 139h21l-97 -418h-25zM752 1704l-14 15
l272 234h142l185 -234l-15 -16l-245 146z" />
    <glyph glyph-name="gcircumflex" unicode="&#x11d;" horiz-adv-x="1189" 
d="M300 -520q-145 0 -233 33t-127 89t-39 123q0 58 34.5 107.5t87.5 87t109.5 58.5t101.5 21h34q-64 -9 -111 -47.5t-73 -98t-26 -129.5q0 -100 58.5 -158t180.5 -58q118 0 220 28t177.5 76.5t118 112.5t42.5 136q0 57 -38.5 82t-105.5 25h-60.5h-93.5h-103h-89.5h-51.5
q-90 0 -156.5 24.5t-103 68t-36.5 102.5q0 50 28 91.5t77 71.5t114.5 46.5t140.5 16.5l-2 -15q-98 0 -147.5 -43t-49.5 -89q0 -43 30 -66.5t75 -32t91 -8.5q35 0 85.5 0.5t99.5 1t77 0.5q116 0 193 -48t77 -173q0 -109 -53.5 -191t-143 -136.5t-196.5 -81.5t-213 -27z
M518 320q-86 0 -154 33t-107 94t-39 146q0 96 55.5 174.5t147 125t197.5 46.5q86 0 153.5 -35t107 -98.5t39.5 -148.5q0 -95 -56 -171.5t-146.5 -121t-197.5 -44.5zM493 346q38 0 75.5 28.5t71.5 76.5t59.5 105t40.5 114.5t15 104.5q0 59 -27 98.5t-85 39.5q-38 0 -76 -28.5
t-71.5 -76t-59.5 -104.5t-41 -114.5t-15 -104.5q0 -59 27.5 -99t85.5 -40zM1043 930q57 0 95 -35t38 -94q0 -45 -27.5 -77.5t-73.5 -32.5q-41 0 -72 26t-31 72q0 40 25 64.5t59 29.5q26 -3 48 -16.5t34 -38.5q-9 37 -38.5 57t-65.5 20q-46 0 -85 -24t-73.5 -70t-67.5 -112
l-18 10q53 111 114 166t139 55zM402 1136l-14 15l272 234h142l185 -234l-15 -16l-245 146z" />
    <glyph glyph-name="Gbreve" unicode="&#x11e;" horiz-adv-x="1493" 
d="M633 -20q-156 0 -274 63.5t-184.5 182t-66.5 284.5t46.5 316.5t129.5 277t194.5 220t242.5 145t272 51.5q120 0 214.5 -50t143.5 -147.5t36 -240.5h-14q9 103 -17 179.5t-76 126t-117 74.5t-142 25q-126 0 -230.5 -69.5t-185 -185.5t-135 -259.5t-83 -294.5t-28.5 -287
q0 -102 23.5 -190t80 -142t155.5 -54q86 0 151.5 29.5t112 72t76 83t42.5 60.5l83 317h242l-62 -237q-34 -47 -90.5 -107t-136 -115.5t-180.5 -91.5t-223 -36zM900 557v25h568v-25h-568zM1373 1082l8 67q-2 53 -16 109t-46 103l155 139h21l-97 -418h-25zM1033 1682
q-64 0 -100.5 25.5t-53.5 66.5t-18 89t6 94h25q-8 -48 13 -79.5t60.5 -47.5t87.5 -16t99.5 15.5t91 47t50.5 80.5h24q-7 -46 -26 -94t-53 -89t-84.5 -66.5t-121.5 -25.5z" />
    <glyph glyph-name="gbreve" unicode="&#x11f;" horiz-adv-x="1189" 
d="M300 -520q-145 0 -233 33t-127 89t-39 123q0 58 34.5 107.5t87.5 87t109.5 58.5t101.5 21h34q-64 -9 -111 -47.5t-73 -98t-26 -129.5q0 -100 58.5 -158t180.5 -58q118 0 220 28t177.5 76.5t118 112.5t42.5 136q0 57 -38.5 82t-105.5 25h-60.5h-93.5h-103h-89.5h-51.5
q-90 0 -156.5 24.5t-103 68t-36.5 102.5q0 50 28 91.5t77 71.5t114.5 46.5t140.5 16.5l-2 -15q-98 0 -147.5 -43t-49.5 -89q0 -43 30 -66.5t75 -32t91 -8.5q35 0 85.5 0.5t99.5 1t77 0.5q116 0 193 -48t77 -173q0 -109 -53.5 -191t-143 -136.5t-196.5 -81.5t-213 -27z
M518 320q-86 0 -154 33t-107 94t-39 146q0 96 55.5 174.5t147 125t197.5 46.5q86 0 153.5 -35t107 -98.5t39.5 -148.5q0 -95 -56 -171.5t-146.5 -121t-197.5 -44.5zM493 346q38 0 75.5 28.5t71.5 76.5t59.5 105t40.5 114.5t15 104.5q0 59 -27 98.5t-85 39.5q-38 0 -76 -28.5
t-71.5 -76t-59.5 -104.5t-41 -114.5t-15 -104.5q0 -59 27.5 -99t85.5 -40zM1043 930q57 0 95 -35t38 -94q0 -45 -27.5 -77.5t-73.5 -32.5q-41 0 -72 26t-31 72q0 40 25 64.5t59 29.5q26 -3 48 -16.5t34 -38.5q-9 37 -38.5 57t-65.5 20q-46 0 -85 -24t-73.5 -70t-67.5 -112
l-18 10q53 111 114 166t139 55zM683 1114q-64 0 -100.5 25.5t-53.5 66.5t-18 89t6 94h25q-8 -48 13 -79.5t60.5 -47.5t87.5 -16t99.5 15.5t91 47t50.5 80.5h24q-7 -46 -26 -94t-53 -89t-84.5 -66.5t-121.5 -25.5z" />
    <glyph glyph-name="Gdotaccent" unicode="&#x120;" horiz-adv-x="1493" 
d="M633 -20q-156 0 -274 63.5t-184.5 182t-66.5 284.5t46.5 316.5t129.5 277t194.5 220t242.5 145t272 51.5q120 0 214.5 -50t143.5 -147.5t36 -240.5h-14q9 103 -17 179.5t-76 126t-117 74.5t-142 25q-126 0 -230.5 -69.5t-185 -185.5t-135 -259.5t-83 -294.5t-28.5 -287
q0 -102 23.5 -190t80 -142t155.5 -54q86 0 151.5 29.5t112 72t76 83t42.5 60.5l83 317h242l-62 -237q-34 -47 -90.5 -107t-136 -115.5t-180.5 -91.5t-223 -36zM900 557v25h568v-25h-568zM1373 1082l8 67q-2 53 -16 109t-46 103l155 139h21l-97 -418h-25zM1094 1824
q-37 0 -67 18.5t-48 49t-18 67.5q0 36 18 66.5t48 49t67 18.5q38 0 68.5 -18.5t48.5 -49t18 -66.5q0 -37 -18 -67.5t-48.5 -49t-68.5 -18.5z" />
    <glyph glyph-name="gdotaccent" unicode="&#x121;" horiz-adv-x="1189" 
d="M300 -520q-145 0 -233 33t-127 89t-39 123q0 58 34.5 107.5t87.5 87t109.5 58.5t101.5 21h34q-64 -9 -111 -47.5t-73 -98t-26 -129.5q0 -100 58.5 -158t180.5 -58q118 0 220 28t177.5 76.5t118 112.5t42.5 136q0 57 -38.5 82t-105.5 25h-60.5h-93.5h-103h-89.5h-51.5
q-90 0 -156.5 24.5t-103 68t-36.5 102.5q0 50 28 91.5t77 71.5t114.5 46.5t140.5 16.5l-2 -15q-98 0 -147.5 -43t-49.5 -89q0 -43 30 -66.5t75 -32t91 -8.5q35 0 85.5 0.5t99.5 1t77 0.5q116 0 193 -48t77 -173q0 -109 -53.5 -191t-143 -136.5t-196.5 -81.5t-213 -27z
M518 320q-86 0 -154 33t-107 94t-39 146q0 96 55.5 174.5t147 125t197.5 46.5q86 0 153.5 -35t107 -98.5t39.5 -148.5q0 -95 -56 -171.5t-146.5 -121t-197.5 -44.5zM493 346q38 0 75.5 28.5t71.5 76.5t59.5 105t40.5 114.5t15 104.5q0 59 -27 98.5t-85 39.5q-38 0 -76 -28.5
t-71.5 -76t-59.5 -104.5t-41 -114.5t-15 -104.5q0 -59 27.5 -99t85.5 -40zM1043 930q57 0 95 -35t38 -94q0 -45 -27.5 -77.5t-73.5 -32.5q-41 0 -72 26t-31 72q0 40 25 64.5t59 29.5q26 -3 48 -16.5t34 -38.5q-9 37 -38.5 57t-65.5 20q-46 0 -85 -24t-73.5 -70t-67.5 -112
l-18 10q53 111 114 166t139 55zM743 1256q-37 0 -67 18.5t-48 49t-18 67.5q0 36 18 66.5t48 49t67 18.5q38 0 68.5 -18.5t48.5 -49t18 -66.5q0 -37 -18 -67.5t-48.5 -49t-68.5 -18.5z" />
    <glyph glyph-name="uni0122" unicode="&#x122;" horiz-adv-x="1493" 
d="M633 -20q-156 0 -274 63.5t-184.5 182t-66.5 284.5t46.5 316.5t129.5 277t194.5 220t242.5 145t272 51.5q120 0 214.5 -50t143.5 -147.5t36 -240.5h-14q9 103 -17 179.5t-76 126t-117 74.5t-142 25q-126 0 -230.5 -69.5t-185 -185.5t-135 -259.5t-83 -294.5t-28.5 -287
q0 -102 23.5 -190t80 -142t155.5 -54q86 0 151.5 29.5t112 72t76 83t42.5 60.5l83 317h242l-62 -237q-34 -47 -90.5 -107t-136 -115.5t-180.5 -91.5t-223 -36zM900 557v25h568v-25h-568zM1373 1082l8 67q-2 53 -16 109t-46 103l155 139h21l-97 -418h-25zM367 -647v21
q55 0 110.5 26t100.5 70.5t70 101t19 116.5h20q0 -30 -18.5 -53t-47 -35.5t-59.5 -12.5q-58 0 -86 30.5t-28 72.5q0 30 16 55.5t43.5 41.5t60.5 16q52 0 86.5 -34t34.5 -103q0 -60 -27.5 -116t-74 -100.5t-104 -70.5t-116.5 -26z" />
    <glyph glyph-name="uni0123" unicode="&#x123;" horiz-adv-x="1189" 
d="M300 -520q-145 0 -233 33t-127 89t-39 123q0 58 34.5 107.5t87.5 87t109.5 58.5t101.5 21h34q-64 -9 -111 -47.5t-73 -98t-26 -129.5q0 -100 58.5 -158t180.5 -58q118 0 220 28t177.5 76.5t118 112.5t42.5 136q0 57 -38.5 82t-105.5 25h-60.5h-93.5h-103h-89.5h-51.5
q-90 0 -156.5 24.5t-103 68t-36.5 102.5q0 50 28 91.5t77 71.5t114.5 46.5t140.5 16.5l-2 -15q-98 0 -147.5 -43t-49.5 -89q0 -43 30 -66.5t75 -32t91 -8.5q35 0 85.5 0.5t99.5 1t77 0.5q116 0 193 -48t77 -173q0 -109 -53.5 -191t-143 -136.5t-196.5 -81.5t-213 -27z
M518 320q-86 0 -154 33t-107 94t-39 146q0 96 55.5 174.5t147 125t197.5 46.5q86 0 153.5 -35t107 -98.5t39.5 -148.5q0 -95 -56 -171.5t-146.5 -121t-197.5 -44.5zM493 346q38 0 75.5 28.5t71.5 76.5t59.5 105t40.5 114.5t15 104.5q0 59 -27 98.5t-85 39.5q-38 0 -76 -28.5
t-71.5 -76t-59.5 -104.5t-41 -114.5t-15 -104.5q0 -59 27.5 -99t85.5 -40zM1043 930q57 0 95 -35t38 -94q0 -45 -27.5 -77.5t-73.5 -32.5q-41 0 -72 26t-31 72q0 40 25 64.5t59 29.5q26 -3 48 -16.5t34 -38.5q-9 37 -38.5 57t-65.5 20q-46 0 -85 -24t-73.5 -70t-67.5 -112
l-18 10q53 111 114 166t139 55zM693 1114q-52 0 -86.5 34.5t-34.5 102.5q0 60 27.5 116t74 100.5t103.5 70.5t117 26v-21q-55 0 -110.5 -26t-100.5 -70.5t-70 -101t-20 -116.5h-19q0 31 18.5 53.5t47 35t59.5 12.5q58 0 86 -30.5t28 -72.5q0 -30 -16 -55.5t-43.5 -41.5
t-60.5 -16z" />
    <glyph glyph-name="Hcircumflex" unicode="&#x124;" horiz-adv-x="1471" 
d="M418 727v25h720v-25h-720zM819 1475h-173l-328 -1450h171v-25h-570v25h175l329 1450h-174v25h570v-25zM1662 1500v-25h-176l-328 -1450h174v-25h-571v25h173l329 1450h-172v25h571zM717 1704l-14 15l272 234h142l185 -234l-15 -16l-245 146z" />
    <glyph glyph-name="hcircumflex" unicode="&#x125;" horiz-adv-x="1129" 
d="M28 0l395 1475h-158v25h356l-400 -1500h-193zM762 -20q-73 0 -117 35.5t-44 95.5q0 17 5 39t12 47l123 423q24 83 33 143t-6 91.5t-62 31.5q-45 0 -103 -50.5t-117 -138t-110.5 -199t-84.5 -232.5h-14q21 82 57 174.5t83.5 181t104.5 160t119.5 114.5t127.5 43
q86 0 130.5 -41t53 -109t-15.5 -150l-156 -544q-2 -8 -3.5 -17.5t-1.5 -17.5q0 -39 37 -39q70 0 129 70t120 225l24 -8q-45 -116 -91 -188.5t-102 -106t-131 -33.5zM583 1603l-14 15l272 234h142l185 -234l-15 -16l-245 146z" />
    <glyph glyph-name="Hbar" unicode="&#x126;" horiz-adv-x="1471" 
d="M217 1098v24h1420v-24h-1420zM418 727v25h720v-25h-720zM819 1475h-173l-328 -1450h171v-25h-570v25h175l329 1450h-174v25h570v-25zM1662 1500v-25h-176l-328 -1450h174v-25h-571v25h173l329 1450h-172v25h571z" />
    <glyph glyph-name="hbar" unicode="&#x127;" horiz-adv-x="1129" 
d="M127 1178v24h596v-24h-596zM28 0l395 1475h-158v25h356l-400 -1500h-193zM762 -20q-73 0 -117 35.5t-44 95.5q0 17 5 39t12 47l123 423q24 83 33 143t-6 91.5t-62 31.5q-45 0 -103 -50.5t-117 -138t-110.5 -199t-84.5 -232.5h-14q21 82 57 174.5t83.5 181t104.5 160
t119.5 114.5t127.5 43q86 0 130.5 -41t53 -109t-15.5 -150l-156 -544q-2 -8 -3.5 -17.5t-1.5 -17.5q0 -39 37 -39q70 0 129 70t120 225l24 -8q-45 -116 -91 -188.5t-102 -106t-131 -33.5z" />
    <glyph glyph-name="Itilde" unicode="&#x128;" horiz-adv-x="731" 
d="M139 0l340 1500h223l-340 -1500h-223zM-81 0v25h674v-25h-674zM249 1475v25h674v-25h-674zM833 1672q-59 0 -104 24t-83 55t-76 55t-83 24q-56 0 -91.5 -29.5t-64.5 -100.5h-25q20 85 60.5 143.5t92.5 88.5t105 30q54 0 96.5 -24t80 -55t73 -55t75.5 -24q57 0 92.5 30
t63.5 100h26q-20 -95 -56 -152.5t-82.5 -83.5t-99.5 -26z" />
    <glyph glyph-name="itilde" unicode="&#x129;" horiz-adv-x="679" 
d="M258 -20q-79 0 -118 36t-39 114q0 9 1 23t3 23l165 719h-139v25h353l-194 -821q-2 -9 -3.5 -19t-1.5 -18q0 -16 8.5 -27t27.5 -11q52 0 104 41t97.5 111t77.5 157l24 -8q-58 -151 -148.5 -248t-217.5 -97zM621 1092q-59 0 -104 24t-83 55t-76 55t-83 24
q-56 0 -91.5 -29.5t-64.5 -100.5h-25q20 85 60.5 143.5t92.5 88.5t105 30q54 0 96.5 -24t80 -55t73 -55t75.5 -24q57 0 92.5 30t63.5 100h26q-20 -95 -56 -152.5t-82.5 -83.5t-99.5 -26z" />
    <glyph glyph-name="Imacron" unicode="&#x12a;" horiz-adv-x="731" 
d="M139 0l340 1500h223l-340 -1500h-223zM-81 0v25h674v-25h-674zM249 1475v25h674v-25h-674zM347 1700v25h480v-25h-480z" />
    <glyph glyph-name="imacron" unicode="&#x12b;" horiz-adv-x="679" 
d="M258 -20q-79 0 -118 36t-39 114q0 9 1 23t3 23l165 719h-139v25h353l-194 -821q-2 -9 -3.5 -19t-1.5 -18q0 -16 8.5 -27t27.5 -11q52 0 104 41t97.5 111t77.5 157l24 -8q-58 -151 -148.5 -248t-217.5 -97zM135 1120v25h480v-25h-480z" />
    <glyph glyph-name="Ibreve" unicode="&#x12c;" horiz-adv-x="731" 
d="M139 0l340 1500h223l-340 -1500h-223zM-81 0v25h674v-25h-674zM249 1475v25h674v-25h-674zM631 1682q-64 0 -100.5 25.5t-53.5 66.5t-18 89t6 94h25q-8 -48 13 -79.5t60.5 -47.5t87.5 -16t99.5 15.5t91 47t50.5 80.5h24q-7 -46 -26 -94t-53 -89t-84.5 -66.5t-121.5 -25.5
z" />
    <glyph glyph-name="ibreve" unicode="&#x12d;" horiz-adv-x="679" 
d="M258 -20q-79 0 -118 36t-39 114q0 9 1 23t3 23l165 719h-139v25h353l-194 -821q-2 -9 -3.5 -19t-1.5 -18q0 -16 8.5 -27t27.5 -11q52 0 104 41t97.5 111t77.5 157l24 -8q-58 -151 -148.5 -248t-217.5 -97zM419 1102q-64 0 -100.5 25.5t-53.5 66.5t-18 89t6 94h25
q-8 -48 13 -79.5t60.5 -47.5t87.5 -16t99.5 15.5t91 47t50.5 80.5h24q-7 -46 -26 -94t-53 -89t-84.5 -66.5t-121.5 -25.5z" />
    <glyph glyph-name="Iogonek" unicode="&#x12e;" horiz-adv-x="731" 
d="M139 0l340 1500h223l-340 -1500h-223zM-81 0v25h674v-25h-674zM249 1475v25h674v-25h-674zM142 -446q-54 0 -102.5 13t-79.5 46t-31 92q0 60 37.5 110.5t94.5 90t119.5 67.5t112.5 44l7 -11q-33 -20 -70.5 -58t-63.5 -94t-26 -128q0 -62 23 -93t58 -31t63 18t48.5 44
t33.5 50l20 -9q-15 -28 -43.5 -63.5t-77 -61.5t-123.5 -26z" />
    <glyph glyph-name="iogonek" unicode="&#x12f;" horiz-adv-x="679" 
d="M258 -20q-79 0 -118 36t-39 114q0 9 1 23t3 23l165 719h-139v25h353l-194 -821q-2 -9 -3.5 -19t-1.5 -18q0 -16 8.5 -27t27.5 -11q52 0 104 41t97.5 111t77.5 157l24 -8q-58 -151 -148.5 -248t-217.5 -97zM480 1244q-37 0 -67 18.5t-48 49t-18 67.5q0 36 18 66.5t48 49
t67 18.5q38 0 68.5 -18.5t48.5 -49t18 -66.5q0 -37 -18 -67.5t-48.5 -49t-68.5 -18.5zM218 -446q-54 0 -102.5 13t-79.5 46t-31 92q0 60 37.5 110.5t94.5 90t119.5 67.5t112.5 44l7 -11q-33 -20 -70.5 -58t-63.5 -94t-26 -128q0 -62 23 -93t58 -31t63 18t48.5 44t33.5 50
l20 -9q-15 -28 -43.5 -63.5t-77 -61.5t-123.5 -26z" />
    <glyph glyph-name="Idotaccent" unicode="&#x130;" horiz-adv-x="731" 
d="M139 0l340 1500h223l-340 -1500h-223zM-81 0v25h674v-25h-674zM249 1475v25h674v-25h-674zM691 1824q-37 0 -67 18.5t-48 49t-18 67.5q0 36 18 66.5t48 49t67 18.5q38 0 68.5 -18.5t48.5 -49t18 -66.5q0 -37 -18 -67.5t-48.5 -49t-68.5 -18.5z" />
    <glyph glyph-name="dotlessi" unicode="&#x131;" horiz-adv-x="679" 
d="M258 -20q-79 0 -118 36t-39 114q0 9 1 23t3 23l165 719h-139v25h353l-194 -821q-2 -9 -3.5 -19t-1.5 -18q0 -16 8.5 -27t27.5 -11q52 0 104 41t97.5 111t77.5 157l24 -8q-58 -151 -148.5 -248t-217.5 -97z" />
    <glyph glyph-name="IJ" unicode="&#x132;" horiz-adv-x="1774" 
d="M139 0l340 1500h223l-340 -1500h-223zM-81 0v25h674v-25h-674zM249 1475v25h674v-25h-674zM980 -61q-81 0 -140.5 33.5t-91.5 86.5t-32 110q0 46 18.5 79t48.5 50t65 17q29 0 59 -14.5t50.5 -44t20.5 -74.5q0 -41 -18.5 -69.5t-48 -42.5t-63.5 -14q-30 0 -60 14.5t-50 40
t-20 58.5h23q1 -39 18 -75.5t47.5 -65t72 -45.5t90.5 -17q62 0 101.5 48t69.5 140.5t61 225.5l260 1120h222l-260 -1160q-33 -58 -77.5 -126.5t-99.5 -131t-121.5 -103t-144.5 -40.5zM1197 1475v25h686v-25h-686z" />
    <glyph glyph-name="ij" unicode="&#x133;" horiz-adv-x="1147" 
d="M230 -20q-83 0 -121.5 35.5t-38.5 94.5q0 18 3 36.5t7 34.5l203 714h-148v25h339l-233 -831q-2 -8 -3 -16.5t-1 -16.5q0 -15 8 -26.5t28 -11.5q46 0 86.5 28.5t80.5 94.5t84 175l24 -8q-44 -114 -89 -186.5t-99.5 -107t-129.5 -34.5zM473 1242q-37 0 -67 18.5t-48 49.5
t-18 67q0 37 18 67.5t48 48.5t67 18t68 -18t49 -48.5t18 -67.5q0 -36 -18 -67t-49 -49.5t-68 -18.5zM281 -520q-54 0 -102.5 19.5t-78.5 55t-30 82.5q0 40 16.5 67.5t43 41.5t58.5 14q51 0 84.5 -30.5t33.5 -81.5q0 -42 -29.5 -76t-84.5 -34q-48 0 -84 28.5t-36 70.5h23
q0 -37 26.5 -67t69.5 -48.5t93 -18.5q70 0 116 54t79 146.5t62 209.5l242 982h-135v25h332l-242 -943q-25 -99 -69 -188.5t-103 -159t-130.5 -109.5t-154.5 -40zM964 1251q-55 0 -94.5 40t-39.5 95q0 56 39.5 95t94.5 39q56 0 94.5 -39t38.5 -95q0 -55 -38.5 -95t-94.5 -40z
" />
    <glyph glyph-name="Jcircumflex" unicode="&#x134;" horiz-adv-x="911" 
d="M200 -61q-81 0 -140.5 33.5t-91.5 86.5t-32 110q0 46 18.5 79t48.5 50t65 17q29 0 59 -14.5t50.5 -44t20.5 -74.5q0 -41 -18.5 -69.5t-48 -42.5t-63.5 -14q-30 0 -60 14.5t-50 40t-20 58.5h23q1 -39 18 -75.5t47.5 -65t72 -45.5t90.5 -17q62 0 101.5 48t69.5 140.5
t61 225.5l260 1120h222l-260 -1160q-33 -58 -77.5 -126.5t-99.5 -131t-121.5 -103t-144.5 -40.5zM417 1475v25h686v-25h-686zM541 1704l-14 15l272 234h142l185 -234l-15 -16l-245 146z" />
    <glyph glyph-name="jcircumflex" unicode="&#x135;" horiz-adv-x="643" 
d="M-110 -520q-82 0 -136 31t-80.5 80.5t-26.5 103.5q0 44 18 76t47.5 50t62.5 18q27 0 56 -12t49 -38.5t20 -68.5q0 -29 -15.5 -57t-42.5 -46.5t-64 -18.5q-32 0 -61.5 11t-48.5 32t-19 54h23q0 -51 23.5 -94.5t71 -70t118.5 -26.5q68 0 109.5 48.5t65.5 127.5t40 173.5
t33 186.5l167 855h-189v25h398l-187 -943q-19 -95 -52 -183.5t-85 -159.5t-124.5 -112.5t-170.5 -41.5zM190 1124l-14 15l272 234h142l185 -234l-15 -16l-245 146z" />
    <glyph glyph-name="uni0136" unicode="&#x136;" horiz-adv-x="1392" 
d="M269 434l1032 1064h35l-1031 -1064h-36zM-81 0v25h570v-25h-570zM618 0v25h647v-25h-647zM89 0l340 1500h223l-340 -1500h-223zM846 0l-250 763l175 171l326 -934h-251zM249 1475v25h576v-25h-576zM1033 1475v25h480v-25h-480zM308 -647v21q55 0 110.5 26t100.5 70.5
t70 101t19 116.5h20q0 -30 -18.5 -53t-47 -35.5t-59.5 -12.5q-58 0 -86 30.5t-28 72.5q0 30 16 55.5t43.5 41.5t60.5 16q52 0 86.5 -34t34.5 -103q0 -60 -27.5 -116t-74 -100.5t-104 -70.5t-116.5 -26z" />
    <glyph glyph-name="uni0137" unicode="&#x137;" horiz-adv-x="1023" 
d="M28 0l396 1475h-178v25h375l-412 -1500h-181zM650 -20q-70 0 -106.5 35t-36.5 103q0 13 2 29.5t6 29.5l25 106q10 41 23 89.5t16.5 92.5t-15 72.5t-70.5 28.5q-65 0 -100 -31t-52.5 -74.5t-28.5 -80.5h-15q22 90 55 134t73 58.5t83 14.5q55 0 98.5 -19t72 -59.5
t36.5 -104.5t-6 -154l-35 -171q-1 -5 -1.5 -11t-0.5 -9q0 -34 37 -34q42 0 86.5 32t88.5 99t86 172l24 -9q-66 -168 -148.5 -253.5t-196.5 -85.5zM420 462q-23 0 -43.5 6t-32.5 15l10 24q11 -10 26.5 -15.5t39.5 -5.5q42 0 72.5 33t56 86.5t52.5 115.5q43 102 99.5 160
t140.5 58q46 0 80.5 -20.5t54 -57t19.5 -84.5q0 -54 -35 -87t-78 -33q-45 0 -77 28.5t-32 81.5q0 45 30.5 74.5t74.5 29.5q25 0 51.5 -11.5t45 -32t18.5 -50.5h-24q0 40 -15 71t-44 49.5t-70 18.5q-71 0 -122.5 -53t-91.5 -148q-27 -66 -56 -124t-65 -93.5t-85 -35.5z
M219 -647v21q55 0 110.5 26t100.5 70.5t70 101t19 116.5h20q0 -30 -18.5 -53t-47 -35.5t-59.5 -12.5q-58 0 -86 30.5t-28 72.5q0 30 16 55.5t43.5 41.5t60.5 16q52 0 86.5 -34t34.5 -103q0 -60 -27.5 -116t-74 -100.5t-104 -70.5t-116.5 -26z" />
    <glyph glyph-name="kgreenlandic" unicode="&#x138;" horiz-adv-x="1141" 
d="M89 0l204 884h-170v36h391l-219 -920h-206zM730 -20q-74 0 -113 36.5t-39 112.5q0 9 1.5 23.5t3.5 23.5l23 108q9 44 22.5 92t17 90.5t-14 69t-68.5 26.5q-66 0 -101.5 -31t-52 -73.5t-25.5 -77.5h-21q22 92 58 136.5t79.5 58.5t87.5 14q53 0 100 -18t79 -58t41.5 -105.5
t-12.5 -162.5l-39 -170q-2 -9 -2 -17q0 -33 39 -33q47 0 96.5 36t95.5 104.5t84 167.5l24 -8q-64 -166 -153 -255.5t-211 -89.5zM493 462q-23 0 -44 6.5t-32 16.5l9 24q11 -11 27 -17t40 -6q42 0 71.5 32.5t53.5 86t51 117.5q43 102 98 159.5t138 57.5q35 0 64.5 -11.5
t52 -34.5t35.5 -56t13 -75q0 -60 -36 -92t-80 -32q-28 0 -53 13.5t-41.5 38t-16.5 60.5q0 47 33.5 76t81.5 29q21 0 46.5 -10.5t44.5 -31t19 -51.5h-24q0 36 -10 64t-29 48.5t-43.5 30.5t-54.5 10q-70 0 -122 -51t-91 -148q-27 -69 -54.5 -126.5t-62 -92.5t-84.5 -35z" />
    <glyph glyph-name="Lacute" unicode="&#x139;" horiz-adv-x="1158" 
d="M79 0l348 1500h223l-348 -1500h-223zM-91 0v25h681q157 0 251 53.5t147 149t86 222.5h25l-104 -450h-1086zM247 1475v25h583v-25h-583zM465 1684l-14 16l188 230q17 21 37.5 28.5t40.5 5.5t36 -12.5t25 -24.5q13 -20 11 -45.5t-16 -47t-39 -31.5z" />
    <glyph glyph-name="lacute" unicode="&#x13a;" horiz-adv-x="589" 
d="M216 -20q-84 0 -124.5 36t-40.5 94q0 22 3 40t8 31l349 1294h-186v25h378l-380 -1412q-2 -9 -3 -18t-1 -16q0 -36 37 -36q45 0 85.5 29t81 94.5t83.5 174.5l24 -8q-44 -114 -89 -186.5t-99.5 -107t-125.5 -34.5zM357 1684l-14 16l188 230q17 21 37.5 28.5t40.5 5.5
t36 -12.5t25 -24.5q13 -20 11 -45.5t-16 -47t-39 -31.5z" />
    <glyph glyph-name="uni013B" unicode="&#x13b;" horiz-adv-x="1158" 
d="M79 0l348 1500h223l-348 -1500h-223zM-91 0v25h681q157 0 251 53.5t147 149t86 222.5h25l-104 -450h-1086zM247 1475v25h583v-25h-583zM192 -647v21q55 0 110.5 26t100.5 70.5t70 101t19 116.5h20q0 -30 -18.5 -53t-47 -35.5t-59.5 -12.5q-58 0 -86 30.5t-28 72.5
q0 30 16 55.5t43.5 41.5t60.5 16q52 0 86.5 -34t34.5 -103q0 -60 -27.5 -116t-74 -100.5t-104 -70.5t-116.5 -26z" />
    <glyph glyph-name="uni013C" unicode="&#x13c;" horiz-adv-x="589" 
d="M216 -20q-84 0 -124.5 36t-40.5 94q0 22 3 40t8 31l349 1294h-186v25h378l-380 -1412q-2 -9 -3 -18t-1 -16q0 -36 37 -36q45 0 85.5 29t81 94.5t83.5 174.5l24 -8q-44 -114 -89 -186.5t-99.5 -107t-125.5 -34.5zM-46 -647v21q55 0 110.5 26t100.5 70.5t70 101t19 116.5
h20q0 -30 -18.5 -53t-47 -35.5t-59.5 -12.5q-58 0 -86 30.5t-28 72.5q0 30 16 55.5t43.5 41.5t60.5 16q52 0 86.5 -34t34.5 -103q0 -60 -27.5 -116t-74 -100.5t-104 -70.5t-116.5 -26z" />
    <glyph glyph-name="Lcaron" unicode="&#x13d;" horiz-adv-x="1158" 
d="M79 0l348 1500h223l-348 -1500h-223zM-91 0v25h681q157 0 251 53.5t147 149t86 222.5h25l-104 -450h-1086zM247 1475v25h583v-25h-583zM847 980v24q66 0 132.5 32t120.5 86t83.5 122t21.5 140h23q0 -36 -21.5 -63.5t-55.5 -42t-71 -14.5q-68 0 -102 35.5t-34 86.5
q0 36 19 66.5t52 49t73 18.5q62 0 103 -40.5t41 -122.5q0 -72 -33 -139.5t-88 -121t-123.5 -85t-140.5 -31.5z" />
    <glyph glyph-name="lcaron" unicode="&#x13e;" horiz-adv-x="589" 
d="M216 -20q-84 0 -124.5 36t-40.5 94q0 22 3 40t8 31l349 1294h-186v25h378l-380 -1412q-2 -9 -3 -18t-1 -16q0 -36 37 -36q45 0 85.5 29t81 94.5t83.5 174.5l24 -8q-44 -114 -89 -186.5t-99.5 -107t-125.5 -34.5zM613 980v24q66 0 132.5 32t120.5 86t83.5 122t21.5 140h23
q0 -36 -21.5 -63.5t-55.5 -42t-71 -14.5q-68 0 -102 35.5t-34 86.5q0 36 19 66.5t52 49t73 18.5q62 0 103 -40.5t41 -122.5q0 -72 -33 -139.5t-88 -121t-123.5 -85t-140.5 -31.5z" />
    <glyph glyph-name="Ldot" unicode="&#x13f;" horiz-adv-x="1158" 
d="M79 0l348 1500h223l-348 -1500h-223zM-91 0v25h681q157 0 251 53.5t147 149t86 222.5h25l-104 -450h-1086zM247 1475v25h583v-25h-583zM974 680q-38 0 -69 18.5t-50 49.5t-19 69t19 69t50 49.5t69 18.5t69 -18.5t49 -49.5t18 -69t-18 -69t-49 -49.5t-69 -18.5z" />
    <glyph glyph-name="ldot" unicode="&#x140;" horiz-adv-x="686" 
d="M216 -20q-84 0 -124.5 36t-40.5 94q0 22 3 40t8 31l349 1294h-186v25h378l-380 -1412q-2 -9 -3 -18t-1 -16q0 -36 37 -36q45 0 85.5 29t81 94.5t83.5 174.5l24 -8q-44 -114 -89 -186.5t-99.5 -107t-125.5 -34.5zM675 676q-38 0 -69 18.5t-50 49.5t-19 69t19 69t50 49.5
t69 18.5t69 -18.5t49 -49.5t18 -69t-18 -69t-49 -49.5t-69 -18.5z" />
    <glyph glyph-name="Lslash" unicode="&#x141;" horiz-adv-x="1158" 
d="M86 692v29l721 439v-28zM79 0l348 1500h223l-348 -1500h-223zM-91 0v25h681q157 0 251 53.5t147 149t86 222.5h25l-104 -450h-1086zM247 1475v25h583v-25h-583z" />
    <glyph glyph-name="lslash" unicode="&#x142;" horiz-adv-x="589" 
d="M67 771v29l592 360v-29zM216 -20q-84 0 -124.5 36t-40.5 94q0 22 3 40t8 31l349 1294h-186v25h378l-380 -1412q-2 -9 -3 -18t-1 -16q0 -36 37 -36q45 0 85.5 29t81 94.5t83.5 174.5l24 -8q-44 -114 -89 -186.5t-99.5 -107t-125.5 -34.5z" />
    <glyph glyph-name="Nacute" unicode="&#x143;" horiz-adv-x="1463" 
d="M1079 -20l-620 1520h269l450 -1129l258 1129h26l-346 -1520h-37zM-71 0v25h454v-25h-454zM117 0l331 1475h-199v25h230l-336 -1500h-26zM1196 1475v25h459v-25h-459zM877 1684l-14 16l188 230q17 21 37.5 28.5t40.5 5.5t36 -12.5t25 -24.5q13 -20 11 -45.5t-16 -47
t-39 -31.5z" />
    <glyph glyph-name="nacute" unicode="&#x144;" horiz-adv-x="1150" 
d="M763 -20q-81 0 -121.5 33.5t-40.5 99.5q0 22 4.5 42.5t8.5 35.5l131 429q24 77 33.5 137.5t-5.5 95t-63 34.5q-45 0 -103 -52.5t-117.5 -141t-111 -199.5t-81.5 -228h-18q21 81 57 172.5t84 180t105.5 161.5t119.5 116t126 43q86 0 131.5 -41t54.5 -109t-15 -150
l-160 -544q-3 -9 -4.5 -19t-1.5 -18q0 -15 8 -26t27 -11q73 0 131.5 70t120.5 225l23 -8q-45 -116 -91 -188.5t-102 -106t-130 -33.5zM37 0l228 895h-137v25h336l-235 -920h-192zM571 1104l-14 16l188 230q17 21 37.5 28.5t40.5 5.5t36 -12.5t25 -24.5q13 -20 11 -45.5
t-16 -47t-39 -31.5z" />
    <glyph glyph-name="uni0145" unicode="&#x145;" horiz-adv-x="1463" 
d="M1079 -20l-620 1520h269l450 -1129l258 1129h26l-346 -1520h-37zM-71 0v25h454v-25h-454zM117 0l331 1475h-199v25h230l-336 -1500h-26zM1196 1475v25h459v-25h-459zM383 -647v21q55 0 110.5 26t100.5 70.5t70 101t19 116.5h20q0 -30 -18.5 -53t-47 -35.5t-59.5 -12.5
q-58 0 -86 30.5t-28 72.5q0 30 16 55.5t43.5 41.5t60.5 16q52 0 86.5 -34t34.5 -103q0 -60 -27.5 -116t-74 -100.5t-104 -70.5t-116.5 -26z" />
    <glyph glyph-name="uni0146" unicode="&#x146;" horiz-adv-x="1150" 
d="M763 -20q-81 0 -121.5 33.5t-40.5 99.5q0 22 4.5 42.5t8.5 35.5l131 429q24 77 33.5 137.5t-5.5 95t-63 34.5q-45 0 -103 -52.5t-117.5 -141t-111 -199.5t-81.5 -228h-18q21 81 57 172.5t84 180t105.5 161.5t119.5 116t126 43q86 0 131.5 -41t54.5 -109t-15 -150
l-160 -544q-3 -9 -4.5 -19t-1.5 -18q0 -15 8 -26t27 -11q73 0 131.5 70t120.5 225l23 -8q-45 -116 -91 -188.5t-102 -106t-130 -33.5zM37 0l228 895h-137v25h336l-235 -920h-192zM231 -647v21q55 0 110.5 26t100.5 70.5t70 101t19 116.5h20q0 -30 -18.5 -53t-47 -35.5
t-59.5 -12.5q-58 0 -86 30.5t-28 72.5q0 30 16 55.5t43.5 41.5t60.5 16q52 0 86.5 -34t34.5 -103q0 -60 -27.5 -116t-74 -100.5t-104 -70.5t-116.5 -26z" />
    <glyph glyph-name="Ncaron" unicode="&#x147;" horiz-adv-x="1463" 
d="M1079 -20l-620 1520h269l450 -1129l258 1129h26l-346 -1520h-37zM-71 0v25h454v-25h-454zM117 0l331 1475h-199v25h230l-336 -1500h-26zM1196 1475v25h459v-25h-459zM920 1700l-185 235l17 16l243 -147l324 146l14 -15l-273 -235h-140z" />
    <glyph glyph-name="ncaron" unicode="&#x148;" horiz-adv-x="1150" 
d="M763 -20q-81 0 -121.5 33.5t-40.5 99.5q0 22 4.5 42.5t8.5 35.5l131 429q24 77 33.5 137.5t-5.5 95t-63 34.5q-45 0 -103 -52.5t-117.5 -141t-111 -199.5t-81.5 -228h-18q21 81 57 172.5t84 180t105.5 161.5t119.5 116t126 43q86 0 131.5 -41t54.5 -109t-15 -150
l-160 -544q-3 -9 -4.5 -19t-1.5 -18q0 -15 8 -26t27 -11q73 0 131.5 70t120.5 225l23 -8q-45 -116 -91 -188.5t-102 -106t-130 -33.5zM37 0l228 895h-137v25h336l-235 -920h-192zM614 1120l-185 235l17 16l243 -147l324 146l14 -15l-273 -235h-140z" />
    <glyph glyph-name="napostrophe" unicode="&#x149;" horiz-adv-x="1494" 
d="M1033 -20q-81 0 -121.5 33.5t-40.5 99.5q0 22 4.5 42.5t8.5 35.5l131 429q24 77 33.5 137.5t-5.5 95t-63 34.5q-45 0 -103 -52.5t-117.5 -141t-111 -199.5t-81.5 -228h-18q21 81 57 172.5t84 180t105.5 161.5t119.5 116t126 43q86 0 131.5 -41t54.5 -109t-15 -150
l-160 -544q-3 -9 -4.5 -19t-1.5 -18q0 -15 8 -26t27 -11q73 0 131.5 70t120.5 225l23 -8q-45 -116 -91 -188.5t-102 -106t-130 -33.5zM307 0l228 895h-137v25h336l-235 -920h-192zM116 928v25q70 0 139.5 32.5t125.5 88t87.5 126t23.5 146.5h23q0 -38 -22.5 -66.5t-58 -44
t-73.5 -15.5q-72 0 -107.5 38t-35.5 91q0 37 19.5 69.5t54 52t76.5 19.5q44 0 78.5 -19t54 -57t19.5 -95q0 -75 -35 -145t-92.5 -125.5t-129.5 -88t-147 -32.5z" />
    <glyph glyph-name="Eng" unicode="&#x14a;" horiz-adv-x="1558" 
d="M649 -520q-96 0 -156 33.5t-84 86.5t-10 112q10 43 34.5 73.5t57 46t67.5 15.5q44 0 77.5 -28.5t19.5 -91.5q-11 -45 -52 -82.5t-97 -37.5q-30 0 -52.5 16t-24.5 41q0 -63 55.5 -111.5t166.5 -48.5q68 0 117.5 47t84.5 125.5t61 173.5t48 190l222 958q21 93 15.5 177
t-36.5 148.5t-86.5 101.5t-132.5 37q-100 0 -184 -44t-147.5 -114t-104.5 -148t-57 -146h-17q16 67 59.5 153.5t115.5 167.5t174.5 134.5t234.5 53.5q169 0 262.5 -67.5t121.5 -178t-1 -238.5l-246 -1058q-22 -97 -63.5 -186.5t-104 -159.5t-146.5 -110.5t-192 -40.5z
M-122 0l5 25h140l335 1450h-140l6 25h340l-340 -1475h137l-5 -25h-478z" />
    <glyph glyph-name="eng" unicode="&#x14b;" horiz-adv-x="1232" 
d="M367 -520q-84 0 -135 31t-70 82.5t-5 110.5q10 43 34.5 73t57.5 46t67 16q44 0 78 -29t19 -92q-10 -44 -51 -82t-97 -38q-34 0 -60.5 13.5t-40 37t-5.5 55.5h23q-12 -54 5 -99.5t62.5 -73.5t118.5 -28q68 0 111 47.5t70 126t46.5 173.5t41.5 190l130 562l217 37
l-154 -662q-22 -97 -61 -186.5t-96 -159.5t-132.5 -110.5t-173.5 -40.5zM-122 0l5 25h478l-5 -25h-478zM18 0l207 895h-140l5 25h340l-212 -920h-200zM305 451q14 62 54 144.5t101.5 161t141.5 130.5t175 52q115 0 165.5 -38.5t56 -106.5t-14.5 -155l-217 -37
q19 83 23 147.5t-14 100.5t-67 36q-66 0 -129 -43.5t-116 -111.5t-90 -142.5t-52 -137.5h-17z" />
    <glyph glyph-name="Omacron" unicode="&#x14c;" horiz-adv-x="1450" 
d="M610 -20q-236 0 -369 143t-133 387q0 167 46 318t127.5 277.5t188.5 219.5t229.5 144t249.5 51q147 0 260.5 -64.5t177.5 -183.5t64 -282q0 -209 -67.5 -392t-185.5 -322t-269.5 -217.5t-318.5 -78.5zM610 3q93 0 173 50t146 137.5t117 200.5t86 239t53 253t18 243
q0 63 -12.5 128t-41.5 120t-78 89t-122 34q-88 0 -165.5 -50t-143.5 -137.5t-118.5 -200.5t-89.5 -239t-56 -253t-19 -243q0 -103 22.5 -187.5t78 -134t152.5 -49.5zM705 1700v25h480v-25h-480z" />
    <glyph glyph-name="omacron" unicode="&#x14d;" horiz-adv-x="991" 
d="M368 -20q-154 0 -231 89t-77 229q0 129 44.5 245t122 205t177 140.5t209.5 51.5q155 0 232 -90.5t77 -229.5q0 -129 -44.5 -244.5t-121.5 -204.5t-177 -140t-211 -51zM355 5q51 0 100.5 35.5t94 97.5t82.5 140t66 164t43.5 170t15.5 156q0 68 -32 107t-100 39
q-50 0 -99.5 -35.5t-94.5 -97.5t-83 -140t-66 -164t-43.5 -170t-15.5 -156q0 -68 32.5 -107t99.5 -39zM365 1120v25h480v-25h-480z" />
    <glyph glyph-name="Obreve" unicode="&#x14e;" horiz-adv-x="1450" 
d="M610 -20q-236 0 -369 143t-133 387q0 167 46 318t127.5 277.5t188.5 219.5t229.5 144t249.5 51q147 0 260.5 -64.5t177.5 -183.5t64 -282q0 -209 -67.5 -392t-185.5 -322t-269.5 -217.5t-318.5 -78.5zM610 3q93 0 173 50t146 137.5t117 200.5t86 239t53 253t18 243
q0 63 -12.5 128t-41.5 120t-78 89t-122 34q-88 0 -165.5 -50t-143.5 -137.5t-118.5 -200.5t-89.5 -239t-56 -253t-19 -243q0 -103 22.5 -187.5t78 -134t152.5 -49.5zM989 1682q-64 0 -100.5 25.5t-53.5 66.5t-18 89t6 94h25q-8 -48 13 -79.5t60.5 -47.5t87.5 -16t99.5 15.5
t91 47t50.5 80.5h24q-7 -46 -26 -94t-53 -89t-84.5 -66.5t-121.5 -25.5z" />
    <glyph glyph-name="obreve" unicode="&#x14f;" horiz-adv-x="991" 
d="M368 -20q-154 0 -231 89t-77 229q0 129 44.5 245t122 205t177 140.5t209.5 51.5q155 0 232 -90.5t77 -229.5q0 -129 -44.5 -244.5t-121.5 -204.5t-177 -140t-211 -51zM355 5q51 0 100.5 35.5t94 97.5t82.5 140t66 164t43.5 170t15.5 156q0 68 -32 107t-100 39
q-50 0 -99.5 -35.5t-94.5 -97.5t-83 -140t-66 -164t-43.5 -170t-15.5 -156q0 -68 32.5 -107t99.5 -39zM649 1102q-64 0 -100.5 25.5t-53.5 66.5t-18 89t6 94h25q-8 -48 13 -79.5t60.5 -47.5t87.5 -16t99.5 15.5t91 47t50.5 80.5h24q-7 -46 -26 -94t-53 -89t-84.5 -66.5
t-121.5 -25.5z" />
    <glyph glyph-name="Ohungarumlaut" unicode="&#x150;" horiz-adv-x="1450" 
d="M610 -20q-236 0 -369 143t-133 387q0 167 46 318t127.5 277.5t188.5 219.5t229.5 144t249.5 51q147 0 260.5 -64.5t177.5 -183.5t64 -282q0 -209 -67.5 -392t-185.5 -322t-269.5 -217.5t-318.5 -78.5zM610 3q93 0 173 50t146 137.5t117 200.5t86 239t53 253t18 243
q0 63 -12.5 128t-41.5 120t-78 89t-122 34q-88 0 -165.5 -50t-143.5 -137.5t-118.5 -200.5t-89.5 -239t-56 -253t-19 -243q0 -103 22.5 -187.5t78 -134t152.5 -49.5zM1094 1684l-14 16l188 230q17 21 37.5 28.5t40.5 5.5t36 -12.5t25 -24.5q13 -20 11 -45.5t-16 -47
t-39 -31.5zM670 1684l-14 16l188 230q17 21 37.5 28.5t40.5 5.5t36 -12.5t25 -24.5q13 -20 11 -45.5t-16 -47t-39 -31.5z" />
    <glyph glyph-name="ohungarumlaut" unicode="&#x151;" horiz-adv-x="991" 
d="M368 -20q-154 0 -231 89t-77 229q0 129 44.5 245t122 205t177 140.5t209.5 51.5q155 0 232 -90.5t77 -229.5q0 -129 -44.5 -244.5t-121.5 -204.5t-177 -140t-211 -51zM355 5q51 0 100.5 35.5t94 97.5t82.5 140t66 164t43.5 170t15.5 156q0 68 -32 107t-100 39
q-50 0 -99.5 -35.5t-94.5 -97.5t-83 -140t-66 -164t-43.5 -170t-15.5 -156q0 -68 32.5 -107t99.5 -39zM753 1104l-14 16l188 230q17 21 37.5 28.5t40.5 5.5t36 -12.5t25 -24.5q13 -20 11 -45.5t-16 -47t-39 -31.5zM329 1104l-14 16l188 230q17 21 37.5 28.5t40.5 5.5
t36 -12.5t25 -24.5q13 -20 11 -45.5t-16 -47t-39 -31.5z" />
    <glyph glyph-name="OE" unicode="&#x152;" horiz-adv-x="1935" 
d="M993 1500q-164 0 -316.5 -76t-273.5 -211.5t-191.5 -316t-70.5 -389.5q0 -125 36.5 -220t105 -159t163 -96t209.5 -32v66q-150 0 -206.5 81.5t-56.5 232.5q0 139 27.5 286.5t79.5 284.5t125.5 246t167 173t201.5 64v66zM824 0l348 1500h224l-348 -1500h-224zM654 0v25
h696q137 0 231 53.5t154 149t94 222.5h24l-104 -450h-1095zM1501 548q10 67 -9 115t-61 74t-99 26h-139v25h139q57 0 112 24t97.5 69.5t61.5 112.5h25l-103 -446h-24zM1957 1090q20 107 2.5 194.5t-81 139t-180.5 51.5h-706v25h1085l-96 -410h-24z" />
    <glyph glyph-name="oe" unicode="&#x153;" horiz-adv-x="1568" 
d="M368 -20q-154 0 -231 89t-77 229q0 129 44.5 245t122 205t177 140.5t209.5 51.5q155 0 232 -90.5t77 -229.5q0 -129 -44.5 -244.5t-121.5 -204.5t-177 -140t-211 -51zM355 5q51 0 100.5 35.5t94 97.5t82.5 140t66 164t43.5 170t15.5 156q0 68 -32 107t-100 39
q-50 0 -99.5 -35.5t-94.5 -97.5t-83 -140t-66 -164t-43.5 -170t-15.5 -156q0 -68 32.5 -107t99.5 -39zM989 -20q-100 0 -167.5 41t-102.5 113t-35 166q0 117 43.5 231t121 206.5t181.5 147.5t225 55q118 0 183 -56t65 -138q0 -79 -53.5 -141.5t-144 -106.5t-204.5 -69.5
t-236 -33.5v21q83 6 155 26.5t130 54t99.5 79.5t63.5 103t22 123q0 44 -18.5 78.5t-64.5 34.5q-54 0 -103.5 -34.5t-93 -94t-79.5 -134t-62 -155.5t-40 -160t-14 -145q0 -102 43 -140.5t109 -38.5q80 0 150.5 33.5t128.5 91.5t102 133l22 -13q-41 -74 -102 -137.5t-142 -102
t-182 -38.5z" />
    <glyph glyph-name="Racute" unicode="&#x154;" horiz-adv-x="1458" 
d="M119 0l350 1500h223l-349 -1500h-224zM-79 0v25h641v-25h-641zM1130 -11q-92 0 -141.5 32.5t-69 87.5t-21 123t3 141t3 141t-21.5 123t-69 87.5t-141 32.5h-211v14h265q150 0 236 -40t125.5 -107t49.5 -146.5t5.5 -159t-7.5 -146t13 -107t68 -40.5q30 0 53 7t46 16l8 -25
q-54 -20 -95 -27t-99 -7zM462 767v16h266q82 0 147 27.5t113 74t79.5 104.5t47 120t15.5 120q0 36 -6.5 79t-27.5 81t-62.5 62t-112.5 24h-670v25h690q131 0 229.5 -29t153.5 -95t55 -176q0 -140 -75.5 -236.5t-218 -146.5t-343.5 -50h-280zM758 1684l-14 16l188 230
q17 21 37.5 28.5t40.5 5.5t36 -12.5t25 -24.5q13 -20 11 -45.5t-16 -47t-39 -31.5z" />
    <glyph glyph-name="racute" unicode="&#x155;" horiz-adv-x="875" 
d="M37 0l224 895h-155v25h338l-221 -920h-186zM282 314q18 77 44.5 163t61.5 168t78.5 148.5t96 106t113.5 39.5q68 0 107.5 -38t39.5 -94q0 -52 -30.5 -89t-83.5 -37q-51 0 -84 32t-33 81q0 47 31.5 78t85.5 31q47 0 79.5 -26t32.5 -70l-24 1q0 45 -31.5 76t-88.5 31
q-59 0 -109 -39t-91.5 -104t-75.5 -144.5t-60 -161t-43 -152.5h-16zM467 1104l-14 16l188 230q17 21 37.5 28.5t40.5 5.5t36 -12.5t25 -24.5q13 -20 11 -45.5t-16 -47t-39 -31.5z" />
    <glyph glyph-name="uni0156" unicode="&#x156;" horiz-adv-x="1458" 
d="M119 0l350 1500h223l-349 -1500h-224zM-79 0v25h641v-25h-641zM1130 -11q-92 0 -141.5 32.5t-69 87.5t-21 123t3 141t3 141t-21.5 123t-69 87.5t-141 32.5h-211v14h265q150 0 236 -40t125.5 -107t49.5 -146.5t5.5 -159t-7.5 -146t13 -107t68 -40.5q30 0 53 7t46 16l8 -25
q-54 -20 -95 -27t-99 -7zM462 767v16h266q82 0 147 27.5t113 74t79.5 104.5t47 120t15.5 120q0 36 -6.5 79t-27.5 81t-62.5 62t-112.5 24h-670v25h690q131 0 229.5 -29t153.5 -95t55 -176q0 -140 -75.5 -236.5t-218 -146.5t-343.5 -50h-280zM430 -647v21q55 0 110.5 26
t100.5 70.5t70 101t19 116.5h20q0 -30 -18.5 -53t-47 -35.5t-59.5 -12.5q-58 0 -86 30.5t-28 72.5q0 30 16 55.5t43.5 41.5t60.5 16q52 0 86.5 -34t34.5 -103q0 -60 -27.5 -116t-74 -100.5t-104 -70.5t-116.5 -26z" />
    <glyph glyph-name="uni0157" unicode="&#x157;" horiz-adv-x="875" 
d="M37 0l224 895h-155v25h338l-221 -920h-186zM282 314q18 77 44.5 163t61.5 168t78.5 148.5t96 106t113.5 39.5q68 0 107.5 -38t39.5 -94q0 -52 -30.5 -89t-83.5 -37q-51 0 -84 32t-33 81q0 47 31.5 78t85.5 31q47 0 79.5 -26t32.5 -70l-24 1q0 45 -31.5 76t-88.5 31
q-59 0 -109 -39t-91.5 -104t-75.5 -144.5t-60 -161t-43 -152.5h-16zM-109 -647v21q55 0 110.5 26t100.5 70.5t70 101t19 116.5h20q0 -30 -18.5 -53t-47 -35.5t-59.5 -12.5q-58 0 -86 30.5t-28 72.5q0 30 16 55.5t43.5 41.5t60.5 16q52 0 86.5 -34t34.5 -103
q0 -60 -27.5 -116t-74 -100.5t-104 -70.5t-116.5 -26z" />
    <glyph glyph-name="Rcaron" unicode="&#x158;" horiz-adv-x="1458" 
d="M119 0l350 1500h223l-349 -1500h-224zM-79 0v25h641v-25h-641zM1130 -11q-92 0 -141.5 32.5t-69 87.5t-21 123t3 141t3 141t-21.5 123t-69 87.5t-141 32.5h-211v14h265q150 0 236 -40t125.5 -107t49.5 -146.5t5.5 -159t-7.5 -146t13 -107t68 -40.5q30 0 53 7t46 16l8 -25
q-54 -20 -95 -27t-99 -7zM462 767v16h266q82 0 147 27.5t113 74t79.5 104.5t47 120t15.5 120q0 36 -6.5 79t-27.5 81t-62.5 62t-112.5 24h-670v25h690q131 0 229.5 -29t153.5 -95t55 -176q0 -140 -75.5 -236.5t-218 -146.5t-343.5 -50h-280zM801 1700l-185 235l17 16
l243 -147l324 146l14 -15l-273 -235h-140z" />
    <glyph glyph-name="rcaron" unicode="&#x159;" horiz-adv-x="875" 
d="M37 0l224 895h-155v25h338l-221 -920h-186zM282 314q18 77 44.5 163t61.5 168t78.5 148.5t96 106t113.5 39.5q68 0 107.5 -38t39.5 -94q0 -52 -30.5 -89t-83.5 -37q-51 0 -84 32t-33 81q0 47 31.5 78t85.5 31q47 0 79.5 -26t32.5 -70l-24 1q0 45 -31.5 76t-88.5 31
q-59 0 -109 -39t-91.5 -104t-75.5 -144.5t-60 -161t-43 -152.5h-16zM510 1120l-185 235l17 16l243 -147l324 146l14 -15l-273 -235h-140z" />
    <glyph glyph-name="Sacute" unicode="&#x15a;" horiz-adv-x="1132" 
d="M479 -29q-117 0 -197.5 34t-130 94t-74 139t-30.5 169h25q5 -84 27 -158.5t67.5 -131t120 -88.5t183.5 -32q105 0 190 40t135 112t50 167q0 89 -33.5 149.5t-88 102t-120 74.5t-130.5 67t-120 79t-88 110t-33 161q0 115 47.5 201t122.5 144t159.5 87t158.5 29
q128 0 215.5 -51t133.5 -145.5t51 -225.5h-25q-4 124 -46 212t-122 135.5t-199 47.5q-76 0 -148 -33.5t-119 -94.5t-47 -144q0 -79 33.5 -131.5t88.5 -89t121 -68t132 -68t120.5 -88t88 -129t33.5 -191.5q0 -104 -44 -193t-121 -154.5t-176.5 -101.5t-210.5 -36zM-51 -20
l98 427h25l5 -101q13 -51 28 -93.5t36 -78.5l-171 -154h-21zM1095 1098l4 75q-10 52 -25 101.5t-48 103.5l165 142h22l-93 -422h-25zM674 1684l-14 16l188 230q17 21 37.5 28.5t40.5 5.5t36 -12.5t25 -24.5q13 -20 11 -45.5t-16 -47t-39 -31.5z" />
    <glyph glyph-name="sacute" unicode="&#x15b;" horiz-adv-x="841" 
d="M371 -20q-91 0 -168.5 27.5t-126 80t-48.5 126.5q0 48 30.5 83.5t82.5 35.5q46 0 76 -31t30 -80q0 -52 -33 -78.5t-76 -26.5q-29 0 -53.5 11t-39.5 32.5t-15 53.5h33q0 -68 41.5 -114.5t110.5 -70t149 -23.5q55 0 110.5 19t93 58t37.5 98q0 54 -32.5 95.5t-84 76
t-109.5 67t-109.5 69t-84 82.5t-32.5 109q0 74 44 133t123 92.5t182 33.5q95 0 159 -28t96.5 -70.5t32.5 -85.5q0 -58 -31 -85t-70 -27q-42 0 -75 27t-33 80q0 42 29.5 72.5t75.5 30.5q42 0 72 -27.5t30 -70.5h-28q0 39 -30 75.5t-86 60t-135 23.5q-52 0 -101.5 -16.5
t-82 -50t-32.5 -85.5q0 -50 32 -87.5t83 -68.5t108.5 -62.5t108.5 -69.5t83 -88.5t32 -121.5q0 -88 -52.5 -151.5t-137 -98t-179.5 -34.5zM430 1104l-14 16l188 230q17 21 37.5 28.5t40.5 5.5t36 -12.5t25 -24.5q13 -20 11 -45.5t-16 -47t-39 -31.5z" />
    <glyph glyph-name="Scircumflex" unicode="&#x15c;" horiz-adv-x="1132" 
d="M479 -29q-117 0 -197.5 34t-130 94t-74 139t-30.5 169h25q5 -84 27 -158.5t67.5 -131t120 -88.5t183.5 -32q105 0 190 40t135 112t50 167q0 89 -33.5 149.5t-88 102t-120 74.5t-130.5 67t-120 79t-88 110t-33 161q0 115 47.5 201t122.5 144t159.5 87t158.5 29
q128 0 215.5 -51t133.5 -145.5t51 -225.5h-25q-4 124 -46 212t-122 135.5t-199 47.5q-76 0 -148 -33.5t-119 -94.5t-47 -144q0 -79 33.5 -131.5t88.5 -89t121 -68t132 -68t120.5 -88t88 -129t33.5 -191.5q0 -104 -44 -193t-121 -154.5t-176.5 -101.5t-210.5 -36zM-51 -20
l98 427h25l5 -101q13 -51 28 -93.5t36 -78.5l-171 -154h-21zM1095 1098l4 75q-10 52 -25 101.5t-48 103.5l165 142h22l-93 -422h-25zM499 1704l-14 15l272 234h142l185 -234l-15 -16l-245 146z" />
    <glyph glyph-name="scircumflex" unicode="&#x15d;" horiz-adv-x="841" 
d="M371 -20q-91 0 -168.5 27.5t-126 80t-48.5 126.5q0 48 30.5 83.5t82.5 35.5q46 0 76 -31t30 -80q0 -52 -33 -78.5t-76 -26.5q-29 0 -53.5 11t-39.5 32.5t-15 53.5h33q0 -68 41.5 -114.5t110.5 -70t149 -23.5q55 0 110.5 19t93 58t37.5 98q0 54 -32.5 95.5t-84 76
t-109.5 67t-109.5 69t-84 82.5t-32.5 109q0 74 44 133t123 92.5t182 33.5q95 0 159 -28t96.5 -70.5t32.5 -85.5q0 -58 -31 -85t-70 -27q-42 0 -75 27t-33 80q0 42 29.5 72.5t75.5 30.5q42 0 72 -27.5t30 -70.5h-28q0 39 -30 75.5t-86 60t-135 23.5q-52 0 -101.5 -16.5
t-82 -50t-32.5 -85.5q0 -50 32 -87.5t83 -68.5t108.5 -62.5t108.5 -69.5t83 -88.5t32 -121.5q0 -88 -52.5 -151.5t-137 -98t-179.5 -34.5zM256 1124l-14 15l272 234h142l185 -234l-15 -16l-245 146z" />
    <glyph glyph-name="Scedilla" unicode="&#x15e;" horiz-adv-x="1132" 
d="M479 -29q-117 0 -197.5 34t-130 94t-74 139t-30.5 169h25q5 -84 27 -158.5t67.5 -131t120 -88.5t183.5 -32q105 0 190 40t135 112t50 167q0 89 -33.5 149.5t-88 102t-120 74.5t-130.5 67t-120 79t-88 110t-33 161q0 115 47.5 201t122.5 144t159.5 87t158.5 29
q128 0 215.5 -51t133.5 -145.5t51 -225.5h-25q-4 124 -46 212t-122 135.5t-199 47.5q-76 0 -148 -33.5t-119 -94.5t-47 -144q0 -79 33.5 -131.5t88.5 -89t121 -68t132 -68t120.5 -88t88 -129t33.5 -191.5q0 -104 -44 -193t-121 -154.5t-176.5 -101.5t-210.5 -36zM-51 -20
l98 427h25l5 -101q13 -51 28 -93.5t36 -78.5l-171 -154h-21zM1095 1098l4 75q-10 52 -25 101.5t-48 103.5l165 142h22l-93 -422h-25zM241 -509v24q86 0 147 40t61 113q0 62 -53 83t-146 21l223 239h31l-148 -159q79 -1 138.5 -15.5t92.5 -47t33 -84.5q0 -60 -49 -109
t-134 -77t-196 -28z" />
    <glyph glyph-name="scedilla" unicode="&#x15f;" horiz-adv-x="841" 
d="M371 -20q-91 0 -168.5 27.5t-126 80t-48.5 126.5q0 48 30.5 83.5t82.5 35.5q46 0 76 -31t30 -80q0 -52 -33 -78.5t-76 -26.5q-29 0 -53.5 11t-39.5 32.5t-15 53.5h33q0 -68 41.5 -114.5t110.5 -70t149 -23.5q55 0 110.5 19t93 58t37.5 98q0 54 -32.5 95.5t-84 76
t-109.5 67t-109.5 69t-84 82.5t-32.5 109q0 74 44 133t123 92.5t182 33.5q95 0 159 -28t96.5 -70.5t32.5 -85.5q0 -58 -31 -85t-70 -27q-42 0 -75 27t-33 80q0 42 29.5 72.5t75.5 30.5q42 0 72 -27.5t30 -70.5h-28q0 39 -30 75.5t-86 60t-135 23.5q-52 0 -101.5 -16.5
t-82 -50t-32.5 -85.5q0 -50 32 -87.5t83 -68.5t108.5 -62.5t108.5 -69.5t83 -88.5t32 -121.5q0 -88 -52.5 -151.5t-137 -98t-179.5 -34.5zM130 -509v24q86 0 147 40t61 113q0 62 -53 83t-146 21l223 239h31l-148 -159q79 -1 138.5 -15.5t92.5 -47t33 -84.5q0 -60 -49 -109
t-134 -77t-196 -28z" />
    <glyph glyph-name="Scaron" unicode="&#x160;" horiz-adv-x="1132" 
d="M479 -29q-117 0 -197.5 34t-130 94t-74 139t-30.5 169h25q5 -84 27 -158.5t67.5 -131t120 -88.5t183.5 -32q105 0 190 40t135 112t50 167q0 89 -33.5 149.5t-88 102t-120 74.5t-130.5 67t-120 79t-88 110t-33 161q0 115 47.5 201t122.5 144t159.5 87t158.5 29
q128 0 215.5 -51t133.5 -145.5t51 -225.5h-25q-4 124 -46 212t-122 135.5t-199 47.5q-76 0 -148 -33.5t-119 -94.5t-47 -144q0 -79 33.5 -131.5t88.5 -89t121 -68t132 -68t120.5 -88t88 -129t33.5 -191.5q0 -104 -44 -193t-121 -154.5t-176.5 -101.5t-210.5 -36zM-51 -20
l98 427h25l5 -101q13 -51 28 -93.5t36 -78.5l-171 -154h-21zM1095 1098l4 75q-10 52 -25 101.5t-48 103.5l165 142h22l-93 -422h-25zM717 1700l-185 235l17 16l243 -147l324 146l14 -15l-273 -235h-140z" />
    <glyph glyph-name="scaron" unicode="&#x161;" horiz-adv-x="841" 
d="M371 -20q-91 0 -168.5 27.5t-126 80t-48.5 126.5q0 48 30.5 83.5t82.5 35.5q46 0 76 -31t30 -80q0 -52 -33 -78.5t-76 -26.5q-29 0 -53.5 11t-39.5 32.5t-15 53.5h33q0 -68 41.5 -114.5t110.5 -70t149 -23.5q55 0 110.5 19t93 58t37.5 98q0 54 -32.5 95.5t-84 76
t-109.5 67t-109.5 69t-84 82.5t-32.5 109q0 74 44 133t123 92.5t182 33.5q95 0 159 -28t96.5 -70.5t32.5 -85.5q0 -58 -31 -85t-70 -27q-42 0 -75 27t-33 80q0 42 29.5 72.5t75.5 30.5q42 0 72 -27.5t30 -70.5h-28q0 39 -30 75.5t-86 60t-135 23.5q-52 0 -101.5 -16.5
t-82 -50t-32.5 -85.5q0 -50 32 -87.5t83 -68.5t108.5 -62.5t108.5 -69.5t83 -88.5t32 -121.5q0 -88 -52.5 -151.5t-137 -98t-179.5 -34.5zM473 1120l-185 235l17 16l243 -147l324 146l14 -15l-273 -235h-140z" />
    <glyph glyph-name="uni0162" unicode="&#x162;" horiz-adv-x="1291" 
d="M413 0l348 1500h224l-348 -1500h-224zM201 0v25h664v-25h-664zM149 1042l105 458h1238l-105 -458h-26q26 127 20 224.5t-59 153t-167 55.5h-584q-86 0 -149.5 -32t-110 -90t-80 -137t-58.5 -174h-24zM329 -509v24q86 0 147 40t61 113q0 62 -53 83t-146 21l223 239h31
l-148 -159q79 -1 138.5 -15.5t92.5 -47t33 -84.5q0 -60 -49 -109t-134 -77t-196 -28z" />
    <glyph glyph-name="uni0163" unicode="&#x163;" horiz-adv-x="661" 
d="M278 -20q-66 0 -107 20t-59.5 52t-18.5 67q0 18 5.5 48t13.5 60l241 893h188l-279 -1018q-3 -11 -6 -24t-3 -27q0 -36 56 -36q42 0 83 19.5t79.5 58.5t74.5 99t69 141l24 -7q-44 -111 -96.5 -188.5t-117.5 -117.5t-147 -40zM99 895v25h568v-25h-568zM55 -509v24
q86 0 147 40t61 113q0 62 -53 83t-146 21l223 239h31l-148 -159q79 -1 138.5 -15.5t92.5 -47t33 -84.5q0 -60 -49 -109t-134 -77t-196 -28z" />
    <glyph glyph-name="Tcaron" unicode="&#x164;" horiz-adv-x="1291" 
d="M413 0l348 1500h224l-348 -1500h-224zM201 0v25h664v-25h-664zM149 1042l105 458h1238l-105 -458h-26q26 127 20 224.5t-59 153t-167 55.5h-584q-86 0 -149.5 -32t-110 -90t-80 -137t-58.5 -174h-24zM867 1700l-185 235l17 16l243 -147l324 146l14 -15l-273 -235h-140z
" />
    <glyph glyph-name="tcaron" unicode="&#x165;" horiz-adv-x="661" 
d="M278 -20q-66 0 -107 20t-59.5 52t-18.5 67q0 18 5.5 48t13.5 60l241 893h188l-279 -1018q-3 -11 -6 -24t-3 -27q0 -36 56 -36q42 0 83 19.5t79.5 58.5t74.5 99t69 141l24 -7q-44 -111 -96.5 -188.5t-117.5 -117.5t-147 -40zM99 895v25h568v-25h-568zM621 1027v24
q66 0 132.5 32t120.5 86t83.5 122t21.5 140h23q0 -36 -21.5 -63.5t-55.5 -42t-71 -14.5q-68 0 -102 35.5t-34 86.5q0 36 19 66.5t52 49t73 18.5q62 0 103 -40.5t41 -122.5q0 -72 -33 -139.5t-88 -121t-123.5 -85t-140.5 -31.5z" />
    <glyph glyph-name="Tbar" unicode="&#x166;" horiz-adv-x="1291" 
d="M393 744v24h624v-24h-624zM413 1l348 1500h224l-348 -1500h-224zM201 1v25h664v-25h-664zM149 1043l105 458h1238l-105 -458h-26q26 127 20 224.5t-59 153t-167 55.5h-584q-86 0 -149.5 -32t-110 -90t-80 -137t-58.5 -174h-24z" />
    <glyph glyph-name="tbar" unicode="&#x167;" horiz-adv-x="661" 
d="M45 598v24h579v-24h-579zM278 -20q-66 0 -107 20t-59.5 52t-18.5 67q0 18 5.5 48t13.5 60l241 893h188l-279 -1018q-3 -11 -6 -24t-3 -27q0 -36 56 -36q42 0 83 19.5t79.5 58.5t74.5 99t69 141l24 -7q-44 -111 -96.5 -188.5t-117.5 -117.5t-147 -40zM99 895v25h568v-25
h-568z" />
    <glyph glyph-name="Utilde" unicode="&#x168;" horiz-adv-x="1392" 
d="M624 -29q-163 0 -272.5 54t-151.5 162.5t-4 272.5l240 1040h224l-240 -1020q-22 -94 -24 -179.5t22.5 -153t82.5 -106t156 -38.5q136 0 232.5 51.5t159 153.5t97.5 252l239 1040h26l-241 -1040q-36 -157 -103.5 -266.5t-176 -166t-266.5 -56.5zM246 1475v25h604v-25h-604
zM1183 1475v25h400v-25h-400zM1199 1672q-59 0 -104 24t-83 55t-76 55t-83 24q-56 0 -91.5 -29.5t-64.5 -100.5h-25q20 85 60.5 143.5t92.5 88.5t105 30q54 0 96.5 -24t80 -55t73 -55t75.5 -24q57 0 92.5 30t63.5 100h26q-20 -95 -56 -152.5t-82.5 -83.5t-99.5 -26z" />
    <glyph glyph-name="utilde" unicode="&#x169;" horiz-adv-x="1145" 
d="M252 -20q-93 0 -138 41t-50.5 109.5t14.5 151.5l151 613h-133v25h337l-158 -619q-20 -78 -29.5 -139t4.5 -95.5t64 -34.5q44 0 104 52.5t121.5 141.5t113.5 200t81 228h20q-20 -81 -56.5 -173t-86 -181t-108 -161.5t-122.5 -115.5t-129 -43zM770 -20q-84 0 -124.5 40
t-40.5 90q0 13 3 32t7 35l186 743h196l-223 -831q-2 -9 -3 -18.5t-1 -16.5q0 -36 34 -36q46 0 87.5 29t81.5 94.5t84 174.5l23 -8q-44 -114 -89.5 -186.5t-98.5 -107t-122 -34.5zM772 1092q-59 0 -104 24t-83 55t-76 55t-83 24q-56 0 -91.5 -29.5t-64.5 -100.5h-25
q20 85 60.5 143.5t92.5 88.5t105 30q54 0 96.5 -24t80 -55t73 -55t75.5 -24q57 0 92.5 30t63.5 100h26q-20 -95 -56 -152.5t-82.5 -83.5t-99.5 -26z" />
    <glyph glyph-name="Umacron" unicode="&#x16a;" horiz-adv-x="1392" 
d="M624 -29q-163 0 -272.5 54t-151.5 162.5t-4 272.5l240 1040h224l-240 -1020q-22 -94 -24 -179.5t22.5 -153t82.5 -106t156 -38.5q136 0 232.5 51.5t159 153.5t97.5 252l239 1040h26l-241 -1040q-36 -157 -103.5 -266.5t-176 -166t-266.5 -56.5zM246 1475v25h604v-25h-604
zM1183 1475v25h400v-25h-400zM714 1700v25h480v-25h-480z" />
    <glyph glyph-name="umacron" unicode="&#x16b;" horiz-adv-x="1145" 
d="M252 -20q-93 0 -138 41t-50.5 109.5t14.5 151.5l151 613h-133v25h337l-158 -619q-20 -78 -29.5 -139t4.5 -95.5t64 -34.5q44 0 104 52.5t121.5 141.5t113.5 200t81 228h20q-20 -81 -56.5 -173t-86 -181t-108 -161.5t-122.5 -115.5t-129 -43zM770 -20q-84 0 -124.5 40
t-40.5 90q0 13 3 32t7 35l186 743h196l-223 -831q-2 -9 -3 -18.5t-1 -16.5q0 -36 34 -36q46 0 87.5 29t81.5 94.5t84 174.5l23 -8q-44 -114 -89.5 -186.5t-98.5 -107t-122 -34.5zM286 1120v25h480v-25h-480z" />
    <glyph glyph-name="Ubreve" unicode="&#x16c;" horiz-adv-x="1392" 
d="M624 -29q-163 0 -272.5 54t-151.5 162.5t-4 272.5l240 1040h224l-240 -1020q-22 -94 -24 -179.5t22.5 -153t82.5 -106t156 -38.5q136 0 232.5 51.5t159 153.5t97.5 252l239 1040h26l-241 -1040q-36 -157 -103.5 -266.5t-176 -166t-266.5 -56.5zM246 1475v25h604v-25h-604
zM1183 1475v25h400v-25h-400zM998 1682q-64 0 -100.5 25.5t-53.5 66.5t-18 89t6 94h25q-8 -48 13 -79.5t60.5 -47.5t87.5 -16t99.5 15.5t91 47t50.5 80.5h24q-7 -46 -26 -94t-53 -89t-84.5 -66.5t-121.5 -25.5z" />
    <glyph glyph-name="ubreve" unicode="&#x16d;" horiz-adv-x="1145" 
d="M252 -20q-93 0 -138 41t-50.5 109.5t14.5 151.5l151 613h-133v25h337l-158 -619q-20 -78 -29.5 -139t4.5 -95.5t64 -34.5q44 0 104 52.5t121.5 141.5t113.5 200t81 228h20q-20 -81 -56.5 -173t-86 -181t-108 -161.5t-122.5 -115.5t-129 -43zM770 -20q-84 0 -124.5 40
t-40.5 90q0 13 3 32t7 35l186 743h196l-223 -831q-2 -9 -3 -18.5t-1 -16.5q0 -36 34 -36q46 0 87.5 29t81.5 94.5t84 174.5l23 -8q-44 -114 -89.5 -186.5t-98.5 -107t-122 -34.5zM570 1102q-64 0 -100.5 25.5t-53.5 66.5t-18 89t6 94h25q-8 -48 13 -79.5t60.5 -47.5
t87.5 -16t99.5 15.5t91 47t50.5 80.5h24q-7 -46 -26 -94t-53 -89t-84.5 -66.5t-121.5 -25.5z" />
    <glyph glyph-name="Uring" unicode="&#x16e;" horiz-adv-x="1392" 
d="M624 -29q-163 0 -272.5 54t-151.5 162.5t-4 272.5l240 1040h224l-240 -1020q-22 -94 -24 -179.5t22.5 -153t82.5 -106t156 -38.5q136 0 232.5 51.5t159 153.5t97.5 252l239 1040h26l-241 -1040q-36 -157 -103.5 -266.5t-176 -166t-266.5 -56.5zM246 1475v25h604v-25h-604
zM1183 1475v25h400v-25h-400zM1004 1680q-80 0 -133 51.5t-53 127.5q0 77 53 129t133 52q81 0 134 -52t53 -129q0 -76 -53 -127.5t-134 -51.5zM994 1703q25 0 45.5 19t35 49t23 64t8.5 63q0 53 -22 85.5t-70 32.5q-25 0 -45.5 -19.5t-35 -49.5t-22.5 -63.5t-8 -63.5
q0 -53 21.5 -85t69.5 -32z" />
    <glyph glyph-name="uring" unicode="&#x16f;" horiz-adv-x="1145" 
d="M252 -20q-93 0 -138 41t-50.5 109.5t14.5 151.5l151 613h-133v25h337l-158 -619q-20 -78 -29.5 -139t4.5 -95.5t64 -34.5q44 0 104 52.5t121.5 141.5t113.5 200t81 228h20q-20 -81 -56.5 -173t-86 -181t-108 -161.5t-122.5 -115.5t-129 -43zM770 -20q-84 0 -124.5 40
t-40.5 90q0 13 3 32t7 35l186 743h196l-223 -831q-2 -9 -3 -18.5t-1 -16.5q0 -36 34 -36q46 0 87.5 29t81.5 94.5t84 174.5l23 -8q-44 -114 -89.5 -186.5t-98.5 -107t-122 -34.5zM577 1100q-80 0 -133 51.5t-53 127.5q0 77 53 129t133 52q81 0 134 -52t53 -129
q0 -76 -53 -127.5t-134 -51.5zM567 1123q25 0 45.5 19t35 49t23 64t8.5 63q0 53 -22 85.5t-70 32.5q-25 0 -45.5 -19.5t-35 -49.5t-22.5 -63.5t-8 -63.5q0 -53 21.5 -85t69.5 -32z" />
    <glyph glyph-name="Uhungarumlaut" unicode="&#x170;" horiz-adv-x="1392" 
d="M624 -29q-163 0 -272.5 54t-151.5 162.5t-4 272.5l240 1040h224l-240 -1020q-22 -94 -24 -179.5t22.5 -153t82.5 -106t156 -38.5q136 0 232.5 51.5t159 153.5t97.5 252l239 1040h26l-241 -1040q-36 -157 -103.5 -266.5t-176 -166t-266.5 -56.5zM246 1475v25h604v-25h-604
zM1183 1475v25h400v-25h-400zM1102 1684l-14 16l188 230q17 21 37.5 28.5t40.5 5.5t36 -12.5t25 -24.5q13 -20 11 -45.5t-16 -47t-39 -31.5zM678 1684l-14 16l188 230q17 21 37.5 28.5t40.5 5.5t36 -12.5t25 -24.5q13 -20 11 -45.5t-16 -47t-39 -31.5z" />
    <glyph glyph-name="uhungarumlaut" unicode="&#x171;" horiz-adv-x="1145" 
d="M252 -20q-93 0 -138 41t-50.5 109.5t14.5 151.5l151 613h-133v25h337l-158 -619q-20 -78 -29.5 -139t4.5 -95.5t64 -34.5q44 0 104 52.5t121.5 141.5t113.5 200t81 228h20q-20 -81 -56.5 -173t-86 -181t-108 -161.5t-122.5 -115.5t-129 -43zM770 -20q-84 0 -124.5 40
t-40.5 90q0 13 3 32t7 35l186 743h196l-223 -831q-2 -9 -3 -18.5t-1 -16.5q0 -36 34 -36q46 0 87.5 29t81.5 94.5t84 174.5l23 -8q-44 -114 -89.5 -186.5t-98.5 -107t-122 -34.5zM675 1104l-14 16l188 230q17 21 37.5 28.5t40.5 5.5t36 -12.5t25 -24.5q13 -20 11 -45.5
t-16 -47t-39 -31.5zM251 1104l-14 16l188 230q17 21 37.5 28.5t40.5 5.5t36 -12.5t25 -24.5q13 -20 11 -45.5t-16 -47t-39 -31.5z" />
    <glyph glyph-name="Uogonek" unicode="&#x172;" horiz-adv-x="1392" 
d="M624 -29q-163 0 -272.5 54t-151.5 162.5t-4 272.5l240 1040h224l-240 -1020q-22 -94 -24 -179.5t22.5 -153t82.5 -106t156 -38.5q136 0 232.5 51.5t159 153.5t97.5 252l239 1040h26l-241 -1040q-36 -157 -103.5 -266.5t-176 -166t-266.5 -56.5zM246 1475v25h604v-25h-604
zM1183 1475v25h400v-25h-400zM682 -446q-54 0 -102.5 13t-79.5 46t-31 92q0 60 37.5 110.5t94.5 90t119.5 67.5t112.5 44l7 -11q-33 -20 -70.5 -58t-63.5 -94t-26 -128q0 -62 23 -93t58 -31t63 18t48.5 44t33.5 50l20 -9q-15 -28 -43.5 -63.5t-77 -61.5t-123.5 -26z" />
    <glyph glyph-name="uogonek" unicode="&#x173;" horiz-adv-x="1145" 
d="M252 -20q-93 0 -138 41t-50.5 109.5t14.5 151.5l151 613h-133v25h337l-158 -619q-20 -78 -29.5 -139t4.5 -95.5t64 -34.5q44 0 104 52.5t121.5 141.5t113.5 200t81 228h20q-20 -81 -56.5 -173t-86 -181t-108 -161.5t-122.5 -115.5t-129 -43zM770 -20q-84 0 -124.5 40
t-40.5 90q0 13 3 32t7 35l186 743h196l-223 -831q-2 -9 -3 -18.5t-1 -16.5q0 -36 34 -36q46 0 87.5 29t81.5 94.5t84 174.5l23 -8q-44 -114 -89.5 -186.5t-98.5 -107t-122 -34.5zM717 -446q-54 0 -102.5 13t-79.5 46t-31 92q0 60 37.5 110.5t94.5 90t119.5 67.5t112.5 44
l7 -11q-33 -20 -70.5 -58t-63.5 -94t-26 -128q0 -62 23 -93t58 -31t63 18t48.5 44t33.5 50l20 -9q-15 -28 -43.5 -63.5t-77 -61.5t-123.5 -26z" />
    <glyph glyph-name="Wcircumflex" unicode="&#x174;" horiz-adv-x="2001" 
d="M1113 -20l-135 1520h224l105 -1209l697 1209h28l-876 -1520h-43zM553 -20l-136 1520h233l104 -1209l322 560h27l-500 -871h-50zM239 1475v25h1495v-25h-1495zM1166 834l384 666h27l-384 -666h-27zM1827 1475v25h383v-25h-383zM1004 1704l-14 15l272 234h142l185 -234
l-15 -16l-245 146z" />
    <glyph glyph-name="wcircumflex" unicode="&#x175;" horiz-adv-x="1469" 
d="M896 -20q-67 0 -118.5 20.5t-83.5 65.5t-40.5 119.5t10.5 182.5l134 552h188l-134 -557q-15 -63 -30 -125.5t-17 -114t21.5 -82.5t84.5 -31q96 0 172 56.5t132.5 146t94 192.5t55.5 198.5t18 160.5q0 62 -29 105t-81 44v23q39 0 67 -20.5t42 -49.5t14 -56q0 -60 -37 -94
t-91 -34q-57 0 -93.5 34t-36.5 89q0 56 37.5 94.5t97.5 38.5t98.5 -50t38.5 -124q0 -66 -18 -165t-56.5 -206t-99 -201t-145 -153t-195.5 -59zM338 -20q-95 0 -145.5 40.5t-60.5 109.5t17 152l187 548q3 9 5.5 19.5t2.5 19.5q0 32 -36 32q-56 0 -100 -34.5t-81 -101
t-74 -161.5l-24 8q38 100 80 173.5t99.5 114t142.5 40.5q81 0 123 -32.5t42 -84.5q0 -22 -4 -47.5t-11 -46.5l-165 -477q-41 -118 -29 -175.5t69 -57.5q63 0 113 43t90.5 119.5t74 177t61.5 215.5h19q-22 -89 -47.5 -175t-57.5 -162t-73 -133.5t-94.5 -90.5t-123.5 -33z
M651 1124l-14 15l272 234h142l185 -234l-15 -16l-245 146z" />
    <glyph glyph-name="Ycircumflex" unicode="&#x176;" horiz-adv-x="1464" 
d="M503 0l170 754l-294 746h255l258 -727l585 723h31l-617 -765l-164 -731h-224zM323 0v25h604v-25h-604zM239 1475v25h612v-25h-612zM1245 1475v25h420v-25h-420zM745 1704l-14 15l272 234h142l185 -234l-15 -16l-245 146z" />
    <glyph glyph-name="ycircumflex" unicode="&#x177;" horiz-adv-x="1051" 
d="M113 -520q-70 0 -121 29t-79 80t-28 117q0 36 16.5 69t46.5 53.5t71 20.5q28 0 56.5 -12.5t47.5 -38.5t19 -67q0 -54 -34.5 -87.5t-78.5 -33.5q-30 0 -63 11t-56 32t-23 53h23q0 -61 24.5 -106.5t70 -70.5t107.5 -25q78 0 167.5 54.5t183 146t183 205.5t168 235.5
t138.5 235.5t94.5 205t34.5 144q0 40 -14 82.5t-45.5 72t-82.5 29.5v23q41 0 72.5 -18t49 -46t17.5 -59q0 -36 -19 -64.5t-49.5 -44t-67.5 -15.5q-64 0 -101 37t-37 88t38 87.5t97 36.5q63 0 100 -34t52.5 -83t15.5 -91q0 -56 -34.5 -150.5t-95.5 -211t-141 -240
t-171.5 -239t-187.5 -208.5t-189.5 -147.5t-174.5 -54.5zM637 -129q-36 63 -72 148.5t-69.5 182t-64.5 194t-56.5 185t-46.5 155.5t-35 104q-6 16 -19 30.5t-45 14.5q-37 0 -83 -43t-88 -159l-24 10q33 90 73 144t91 78t115 24q93 0 137.5 -49t65.5 -125q20 -67 44.5 -159.5
t56 -192.5t70 -194.5t86.5 -166.5q-17 -24 -32 -46t-31 -43t-34 -43.5t-39 -48.5zM348 1124l-14 15l272 234h142l185 -234l-15 -16l-245 146z" />
    <glyph glyph-name="Ydieresis" unicode="&#x178;" horiz-adv-x="1464" 
d="M503 0l170 754l-294 746h255l258 -727l585 723h31l-617 -765l-164 -731h-224zM323 0v25h604v-25h-604zM239 1475v25h612v-25h-612zM1245 1475v25h420v-25h-420zM1189 1689q-44 0 -75.5 31t-31.5 75t31.5 75.5t75.5 31.5t74.5 -31.5t30.5 -75.5t-30.5 -75t-74.5 -31z
M849 1689q-44 0 -75.5 31t-31.5 75t31.5 75.5t75.5 31.5t74.5 -31.5t30.5 -75.5t-30.5 -75t-74.5 -31z" />
    <glyph glyph-name="Zacute" unicode="&#x179;" horiz-adv-x="1129" 
d="M-101 0v25l1081 1450h-337q-137 0 -221 -36t-133 -108t-80 -179h-24l82 348h994v-25l-1081 -1450h396q136 0 220.5 38.5t134.5 118.5t87 206h24l-90 -388h-1053zM629 1684l-14 16l188 230q17 21 37.5 28.5t40.5 5.5t36 -12.5t25 -24.5q13 -20 11 -45.5t-16 -47t-39 -31.5
z" />
    <glyph glyph-name="zacute" unicode="&#x17a;" horiz-adv-x="870" 
d="M-78 -3l349 349l564 575l-344 -343zM-63 -20l-16 19q98 78 174.5 125t139.5 68t119 21q42 0 73.5 -15t59.5 -34.5t59 -34.5t71 -15q49 0 82.5 37.5t50.5 89t17 93.5h24q-3 -28 -21 -49t-44 -33t-54 -12q-27 0 -53 13t-43 37.5t-17 57.5q0 54 35.5 82.5t78.5 28.5
q33 0 60.5 -13.5t43.5 -41t16 -70.5t-21 -103t-60.5 -117.5t-93.5 -95.5t-119 -38q-48 0 -84.5 15.5t-70 35t-71 35t-87.5 15.5q-72 0 -136.5 -26.5t-112.5 -74.5zM59 552l91 387q54 -30 111.5 -47t112.5 -24t101 -7q36 0 84 3.5t98.5 11.5t93.5 23.5t68 39.5l19 -19
q-58 -47 -119.5 -90t-124 -76t-121.5 -52.5t-113 -19.5q-66 0 -127 24.5t-100 54.5l-49 -209h-25zM432 1104l-14 16l188 230q17 21 37.5 28.5t40.5 5.5t36 -12.5t25 -24.5q13 -20 11 -45.5t-16 -47t-39 -31.5z" />
    <glyph glyph-name="Zdotaccent" unicode="&#x17b;" horiz-adv-x="1129" 
d="M-101 0v25l1081 1450h-337q-137 0 -221 -36t-133 -108t-80 -179h-24l82 348h994v-25l-1081 -1450h396q136 0 220.5 38.5t134.5 118.5t87 206h24l-90 -388h-1053zM797 1824q-37 0 -67 18.5t-48 49t-18 67.5q0 36 18 66.5t48 49t67 18.5q38 0 68.5 -18.5t48.5 -49t18 -66.5
q0 -37 -18 -67.5t-48.5 -49t-68.5 -18.5z" />
    <glyph glyph-name="zdotaccent" unicode="&#x17c;" horiz-adv-x="870" 
d="M-78 -3l349 349l564 575l-344 -343zM-63 -20l-16 19q98 78 174.5 125t139.5 68t119 21q42 0 73.5 -15t59.5 -34.5t59 -34.5t71 -15q49 0 82.5 37.5t50.5 89t17 93.5h24q-3 -28 -21 -49t-44 -33t-54 -12q-27 0 -53 13t-43 37.5t-17 57.5q0 54 35.5 82.5t78.5 28.5
q33 0 60.5 -13.5t43.5 -41t16 -70.5t-21 -103t-60.5 -117.5t-93.5 -95.5t-119 -38q-48 0 -84.5 15.5t-70 35t-71 35t-87.5 15.5q-72 0 -136.5 -26.5t-112.5 -74.5zM59 552l91 387q54 -30 111.5 -47t112.5 -24t101 -7q36 0 84 3.5t98.5 11.5t93.5 23.5t68 39.5l19 -19
q-58 -47 -119.5 -90t-124 -76t-121.5 -52.5t-113 -19.5q-66 0 -127 24.5t-100 54.5l-49 -209h-25zM599 1244q-37 0 -67 18.5t-48 49t-18 67.5q0 36 18 66.5t48 49t67 18.5q38 0 68.5 -18.5t48.5 -49t18 -66.5q0 -37 -18 -67.5t-48.5 -49t-68.5 -18.5z" />
    <glyph glyph-name="Zcaron" unicode="&#x17d;" horiz-adv-x="1129" 
d="M-101 0v25l1081 1450h-337q-137 0 -221 -36t-133 -108t-80 -179h-24l82 348h994v-25l-1081 -1450h396q136 0 220.5 38.5t134.5 118.5t87 206h24l-90 -388h-1053zM673 1700l-185 235l17 16l243 -147l324 146l14 -15l-273 -235h-140z" />
    <glyph glyph-name="zcaron" unicode="&#x17e;" horiz-adv-x="870" 
d="M-78 -3l349 349l564 575l-344 -343zM-63 -20l-16 19q98 78 174.5 125t139.5 68t119 21q42 0 73.5 -15t59.5 -34.5t59 -34.5t71 -15q49 0 82.5 37.5t50.5 89t17 93.5h24q-3 -28 -21 -49t-44 -33t-54 -12q-27 0 -53 13t-43 37.5t-17 57.5q0 54 35.5 82.5t78.5 28.5
q33 0 60.5 -13.5t43.5 -41t16 -70.5t-21 -103t-60.5 -117.5t-93.5 -95.5t-119 -38q-48 0 -84.5 15.5t-70 35t-71 35t-87.5 15.5q-72 0 -136.5 -26.5t-112.5 -74.5zM59 552l91 387q54 -30 111.5 -47t112.5 -24t101 -7q36 0 84 3.5t98.5 11.5t93.5 23.5t68 39.5l19 -19
q-58 -47 -119.5 -90t-124 -76t-121.5 -52.5t-113 -19.5q-66 0 -127 24.5t-100 54.5l-49 -209h-25zM475 1120l-185 235l17 16l243 -147l324 146l14 -15l-273 -235h-140z" />
    <glyph glyph-name="longs" unicode="&#x17f;" horiz-adv-x="729" 
d="M-161 -520q-79 0 -131.5 29t-78.5 73t-26 88q0 59 34.5 92.5t83.5 33.5q47 0 82 -28.5t35 -84.5q0 -36 -17 -62t-45 -39.5t-59 -13.5q-26 0 -52 12t-43 35t-17 55h24q0 -35 22 -73.5t67 -65t114 -26.5q56 0 96 33t69.5 93.5t52 140t44.5 172.5l250 1079q22 98 59 187
t91 159t127.5 110.5t168.5 40.5q79 0 131.5 -29t78.5 -72.5t26 -88.5q0 -58 -33.5 -92t-83.5 -34q-46 0 -82.5 29t-36.5 84q0 35 16.5 60.5t43.5 40t59 14.5q19 0 39.5 -7t37.5 -20t27.5 -32t10.5 -43h-23q0 35 -22 73t-66.5 65t-113.5 27q-55 0 -94.5 -33.5t-68.5 -93.5
t-51.5 -140t-44.5 -174l-253 -1077q-23 -97 -60 -186t-90.5 -159.5t-127.5 -111t-170 -40.5z" />
    <glyph glyph-name="florin" unicode="&#x192;" horiz-adv-x="729" 
d="M-161 -520q-79 0 -131.5 29t-78.5 73t-26 88q0 59 34.5 92.5t83.5 33.5q47 0 82 -28.5t35 -84.5q0 -36 -17 -62t-45 -39.5t-59 -13.5q-26 0 -52 12t-43 35t-17 55h24q0 -35 22 -73.5t67 -65t114 -26.5q56 0 96 33t69.5 93.5t52 140t44.5 172.5l250 1079q22 98 59 187
t91 159t127.5 110.5t168.5 40.5q79 0 131.5 -29t78.5 -72.5t26 -88.5q0 -58 -33.5 -92t-83.5 -34q-46 0 -82.5 29t-36.5 84q0 35 16.5 60.5t43.5 40t59 14.5q19 0 39.5 -7t37.5 -20t27.5 -32t10.5 -43h-23q0 35 -22 73t-66.5 65t-113.5 27q-55 0 -94.5 -33.5t-68.5 -93.5
t-51.5 -140t-44.5 -174l-253 -1077q-23 -97 -60 -186t-90.5 -159.5t-127.5 -111t-170 -40.5zM121 895v25h657v-25h-657z" />
    <glyph glyph-name="uni0212" unicode="&#x212;" horiz-adv-x="1458" 
d="M119 0l350 1500h223l-349 -1500h-224zM-79 0v25h641v-25h-641zM1130 -11q-92 0 -141.5 32.5t-69 87.5t-21 123t3 141t3 141t-21.5 123t-69 87.5t-141 32.5h-211v14h265q150 0 236 -40t125.5 -107t49.5 -146.5t5.5 -159t-7.5 -146t13 -107t68 -40.5q30 0 53 7t46 16l8 -25
q-54 -20 -95 -27t-99 -7zM462 767v16h266q82 0 147 27.5t113 74t79.5 104.5t47 120t15.5 120q0 36 -6.5 79t-27.5 81t-62.5 62t-112.5 24h-670v25h690q131 0 229.5 -29t153.5 -95t55 -176q0 -140 -75.5 -236.5t-218 -146.5t-343.5 -50h-280zM584 1681q8 46 27 94t53 89
t84.5 66.5t121.5 25.5q63 0 100 -25.5t53.5 -66.5t18 -89t-6.5 -94h-24q7 47 -14 79t-60 47.5t-87 15.5t-100 -15t-91 -46.5t-50 -80.5h-25z" />
    <glyph glyph-name="uni0213" unicode="&#x213;" horiz-adv-x="875" 
d="M37 0l224 895h-155v25h338l-221 -920h-186zM282 314q18 77 44.5 163t61.5 168t78.5 148.5t96 106t113.5 39.5q68 0 107.5 -38t39.5 -94q0 -52 -30.5 -89t-83.5 -37q-51 0 -84 32t-33 81q0 47 31.5 78t85.5 31q47 0 79.5 -26t32.5 -70l-24 1q0 45 -31.5 76t-88.5 31
q-59 0 -109 -39t-91.5 -104t-75.5 -144.5t-60 -161t-43 -152.5h-16zM293 1101q8 46 27 94t53 89t84.5 66.5t121.5 25.5q63 0 100 -25.5t53.5 -66.5t18 -89t-6.5 -94h-24q7 47 -14 79t-60 47.5t-87 15.5t-100 -15t-91 -46.5t-50 -80.5h-25z" />
    <glyph glyph-name="uni0218" unicode="&#x218;" horiz-adv-x="1132" 
d="M479 -29q-117 0 -197.5 34t-130 94t-74 139t-30.5 169h25q5 -84 27 -158.5t67.5 -131t120 -88.5t183.5 -32q105 0 190 40t135 112t50 167q0 89 -33.5 149.5t-88 102t-120 74.5t-130.5 67t-120 79t-88 110t-33 161q0 115 47.5 201t122.5 144t159.5 87t158.5 29
q128 0 215.5 -51t133.5 -145.5t51 -225.5h-25q-4 124 -46 212t-122 135.5t-199 47.5q-76 0 -148 -33.5t-119 -94.5t-47 -144q0 -79 33.5 -131.5t88.5 -89t121 -68t132 -68t120.5 -88t88 -129t33.5 -191.5q0 -104 -44 -193t-121 -154.5t-176.5 -101.5t-210.5 -36zM-51 -20
l98 427h25l5 -101q13 -51 28 -93.5t36 -78.5l-171 -154h-21zM1095 1098l4 75q-10 52 -25 101.5t-48 103.5l165 142h22l-93 -422h-25zM214 -647v21q55 0 110.5 26t100.5 70.5t70 101t19 116.5h20q0 -30 -18.5 -53t-47 -35.5t-59.5 -12.5q-58 0 -86 30.5t-28 72.5
q0 30 16 55.5t43.5 41.5t60.5 16q52 0 86.5 -34t34.5 -103q0 -60 -27.5 -116t-74 -100.5t-104 -70.5t-116.5 -26z" />
    <glyph glyph-name="uni0219" unicode="&#x219;" horiz-adv-x="841" 
d="M371 -20q-91 0 -168.5 27.5t-126 80t-48.5 126.5q0 48 30.5 83.5t82.5 35.5q46 0 76 -31t30 -80q0 -52 -33 -78.5t-76 -26.5q-29 0 -53.5 11t-39.5 32.5t-15 53.5h33q0 -68 41.5 -114.5t110.5 -70t149 -23.5q55 0 110.5 19t93 58t37.5 98q0 54 -32.5 95.5t-84 76
t-109.5 67t-109.5 69t-84 82.5t-32.5 109q0 74 44 133t123 92.5t182 33.5q95 0 159 -28t96.5 -70.5t32.5 -85.5q0 -58 -31 -85t-70 -27q-42 0 -75 27t-33 80q0 42 29.5 72.5t75.5 30.5q42 0 72 -27.5t30 -70.5h-28q0 39 -30 75.5t-86 60t-135 23.5q-52 0 -101.5 -16.5
t-82 -50t-32.5 -85.5q0 -50 32 -87.5t83 -68.5t108.5 -62.5t108.5 -69.5t83 -88.5t32 -121.5q0 -88 -52.5 -151.5t-137 -98t-179.5 -34.5zM102 -647v21q55 0 110.5 26t100.5 70.5t70 101t19 116.5h20q0 -30 -18.5 -53t-47 -35.5t-59.5 -12.5q-58 0 -86 30.5t-28 72.5
q0 30 16 55.5t43.5 41.5t60.5 16q52 0 86.5 -34t34.5 -103q0 -60 -27.5 -116t-74 -100.5t-104 -70.5t-116.5 -26z" />
    <glyph glyph-name="uni021A" unicode="&#x21a;" horiz-adv-x="1291" 
d="M413 0l348 1500h224l-348 -1500h-224zM201 0v25h664v-25h-664zM149 1042l105 458h1238l-105 -458h-26q26 127 20 224.5t-59 153t-167 55.5h-584q-86 0 -149.5 -32t-110 -90t-80 -137t-58.5 -174h-24zM302 -647v21q55 0 110.5 26t100.5 70.5t70 101t19 116.5h20
q0 -30 -18.5 -53t-47 -35.5t-59.5 -12.5q-58 0 -86 30.5t-28 72.5q0 30 16 55.5t43.5 41.5t60.5 16q52 0 86.5 -34t34.5 -103q0 -60 -27.5 -116t-74 -100.5t-104 -70.5t-116.5 -26z" />
    <glyph glyph-name="uni021B" unicode="&#x21b;" horiz-adv-x="661" 
d="M278 -20q-66 0 -107 20t-59.5 52t-18.5 67q0 18 5.5 48t13.5 60l241 893h188l-279 -1018q-3 -11 -6 -24t-3 -27q0 -36 56 -36q42 0 83 19.5t79.5 58.5t74.5 99t69 141l24 -7q-44 -111 -96.5 -188.5t-117.5 -117.5t-147 -40zM99 895v25h568v-25h-568zM28 -647v21
q55 0 110.5 26t100.5 70.5t70 101t19 116.5h20q0 -30 -18.5 -53t-47 -35.5t-59.5 -12.5q-58 0 -86 30.5t-28 72.5q0 30 16 55.5t43.5 41.5t60.5 16q52 0 86.5 -34t34.5 -103q0 -60 -27.5 -116t-74 -100.5t-104 -70.5t-116.5 -26z" />
    <glyph glyph-name="uni0237" unicode="&#x237;" horiz-adv-x="643" 
d="M-110 -520q-82 0 -136 31t-80.5 80.5t-26.5 103.5q0 44 18 76t47.5 50t62.5 18q27 0 56 -12t49 -38.5t20 -68.5q0 -29 -15.5 -57t-42.5 -46.5t-64 -18.5q-32 0 -61.5 11t-48.5 32t-19 54h23q0 -51 23.5 -94.5t71 -70t118.5 -26.5q68 0 109.5 48.5t65.5 127.5t40 173.5
t33 186.5l167 855h-189v25h398l-187 -943q-19 -95 -52 -183.5t-85 -159.5t-124.5 -112.5t-170.5 -41.5z" />
    <glyph glyph-name="circumflex" unicode="&#x2c6;" horiz-adv-x="1000" 
d="M506 1704l-14 15l272 234h142l185 -234l-15 -16l-245 146z" />
    <glyph glyph-name="caron" unicode="&#x2c7;" horiz-adv-x="1000" 
d="M726 1700l-185 235l17 16l243 -147l324 146l14 -15l-273 -235h-140z" />
    <glyph glyph-name="breve" unicode="&#x2d8;" horiz-adv-x="1000" 
d="M786 1682q-64 0 -100.5 25.5t-53.5 66.5t-18 89t6 94h25q-8 -48 13 -79.5t60.5 -47.5t87.5 -16t99.5 15.5t91 47t50.5 80.5h24q-7 -46 -26 -94t-53 -89t-84.5 -66.5t-121.5 -25.5z" />
    <glyph glyph-name="dotaccent" unicode="&#x2d9;" horiz-adv-x="1000" 
d="M710 1244q-37 0 -67 18.5t-48 49t-18 67.5q0 36 18 66.5t48 49t67 18.5q38 0 68.5 -18.5t48.5 -49t18 -66.5q0 -37 -18 -67.5t-48.5 -49t-68.5 -18.5z" />
    <glyph glyph-name="ring" unicode="&#x2da;" horiz-adv-x="1000" 
d="M823 1680q-80 0 -133 51.5t-53 127.5q0 77 53 129t133 52q81 0 134 -52t53 -129q0 -76 -53 -127.5t-134 -51.5zM813 1703q25 0 45.5 19t35 49t23 64t8.5 63q0 53 -22 85.5t-70 32.5q-25 0 -45.5 -19.5t-35 -49.5t-22.5 -63.5t-8 -63.5q0 -53 21.5 -85t69.5 -32z" />
    <glyph glyph-name="ogonek" unicode="&#x2db;" horiz-adv-x="1000" 
d="M320 -419q-54 0 -102.5 13t-79.5 46t-31 92q0 60 37.5 110.5t94.5 90t119.5 67.5t112.5 44l7 -11q-33 -20 -70.5 -58t-63.5 -94t-26 -128q0 -62 23 -93t58 -31t63 18t48.5 44t33.5 50l20 -9q-15 -28 -43.5 -63.5t-77 -61.5t-123.5 -26z" />
    <glyph glyph-name="tilde" unicode="&#x2dc;" horiz-adv-x="1000" 
d="M958 1672q-59 0 -104 24t-83 55t-76 55t-83 24q-56 0 -91.5 -29.5t-64.5 -100.5h-25q20 85 60.5 143.5t92.5 88.5t105 30q54 0 96.5 -24t80 -55t73 -55t75.5 -24q57 0 92.5 30t63.5 100h26q-20 -95 -56 -152.5t-82.5 -83.5t-99.5 -26z" />
    <glyph glyph-name="hungarumlaut" unicode="&#x2dd;" horiz-adv-x="1000" 
d="M864 1684l-14 16l188 230q17 21 37.5 28.5t40.5 5.5t36 -12.5t25 -24.5q13 -20 11 -45.5t-16 -47t-39 -31.5zM440 1684l-14 16l188 230q17 21 37.5 28.5t40.5 5.5t36 -12.5t25 -24.5q13 -20 11 -45.5t-16 -47t-39 -31.5z" />
    <glyph glyph-name="gravecomb" unicode="&#x300;" 
d="M964 1685l-269 118q-25 10 -39.5 31.5t-16 47t11.5 45.5q9 14 25 24.5t36 12.5t40 -5.5t38 -28.5l188 -229z" />
    <glyph glyph-name="acutecomb" unicode="&#x301;" 
d="M652 1684l-14 16l188 230q17 21 37.5 28.5t40.5 5.5t36 -12.5t25 -24.5q13 -20 11 -45.5t-16 -47t-39 -31.5z" />
    <glyph glyph-name="uni0302" unicode="&#x302;" 
d="M506 1704l-14 15l272 234h142l185 -234l-15 -16l-245 146z" />
    <glyph glyph-name="tildecomb" unicode="&#x303;" 
d="M958 1672q-59 0 -104 24t-83 55t-76 55t-83 24q-56 0 -91.5 -29.5t-64.5 -100.5h-25q20 85 60.5 143.5t92.5 88.5t105 30q54 0 96.5 -24t80 -55t73 -55t75.5 -24q57 0 92.5 30t63.5 100h26q-20 -95 -56 -152.5t-82.5 -83.5t-99.5 -26z" />
    <glyph glyph-name="uni0304" unicode="&#x304;" 
d="M549 1700v25h480v-25h-480z" />
    <glyph glyph-name="uni0306" unicode="&#x306;" 
d="M786 1682q-64 0 -100.5 25.5t-53.5 66.5t-18 89t6 94h25q-8 -48 13 -79.5t60.5 -47.5t87.5 -16t99.5 15.5t91 47t50.5 80.5h24q-7 -46 -26 -94t-53 -89t-84.5 -66.5t-121.5 -25.5z" />
    <glyph glyph-name="uni0307" unicode="&#x307;" 
d="M710 1244q-37 0 -67 18.5t-48 49t-18 67.5q0 36 18 66.5t48 49t67 18.5q38 0 68.5 -18.5t48.5 -49t18 -66.5q0 -37 -18 -67.5t-48.5 -49t-68.5 -18.5z" />
    <glyph glyph-name="uni0308" unicode="&#x308;" 
d="M979 1689q-44 0 -75.5 31t-31.5 75t31.5 75.5t75.5 31.5t74.5 -31.5t30.5 -75.5t-30.5 -75t-74.5 -31zM639 1689q-44 0 -75.5 31t-31.5 75t31.5 75.5t75.5 31.5t74.5 -31.5t30.5 -75.5t-30.5 -75t-74.5 -31z" />
    <glyph glyph-name="uni030A" unicode="&#x30a;" 
d="M823 1680q-80 0 -133 51.5t-53 127.5q0 77 53 129t133 52q81 0 134 -52t53 -129q0 -76 -53 -127.5t-134 -51.5zM813 1703q25 0 45.5 19t35 49t23 64t8.5 63q0 53 -22 85.5t-70 32.5q-25 0 -45.5 -19.5t-35 -49.5t-22.5 -63.5t-8 -63.5q0 -53 21.5 -85t69.5 -32z" />
    <glyph glyph-name="uni030B" unicode="&#x30b;" 
d="M864 1684l-14 16l188 230q17 21 37.5 28.5t40.5 5.5t36 -12.5t25 -24.5q13 -20 11 -45.5t-16 -47t-39 -31.5zM440 1684l-14 16l188 230q17 21 37.5 28.5t40.5 5.5t36 -12.5t25 -24.5q13 -20 11 -45.5t-16 -47t-39 -31.5z" />
    <glyph glyph-name="uni030C" unicode="&#x30c;" 
d="M726 1700l-185 235l17 16l243 -147l324 146l14 -15l-273 -235h-140z" />
    <glyph glyph-name="uni0311" unicode="&#x311;" 
d="M557 1681q8 46 27 94t53 89t84.5 66.5t121.5 25.5q63 0 100 -25.5t53.5 -66.5t18 -89t-6.5 -94h-24q7 47 -14 79t-60 47.5t-87 15.5t-100 -15t-91 -46.5t-50 -80.5h-25z" />
    <glyph glyph-name="uni0312" unicode="&#x312;" 
d="M656 1102q-52 0 -86.5 34.5t-34.5 102.5q0 60 27.5 116t74 100.5t103.5 70.5t117 26v-21q-55 0 -110.5 -26t-100.5 -70.5t-70 -101t-20 -116.5h-19q0 31 18.5 53.5t47 35t59.5 12.5q58 0 86 -30.5t28 -72.5q0 -30 -16 -55.5t-43.5 -41.5t-60.5 -16z" />
    <glyph glyph-name="dotbelowcomb" unicode="&#x323;" 
d="M358 -431q-56 0 -95 39.5t-39 94.5q0 57 39 95.5t95 38.5t95 -38.5t39 -95.5q0 -55 -39 -94.5t-95 -39.5z" />
    <glyph glyph-name="uni0326" unicode="&#x326;" 
d="M119 -647v21q55 0 110.5 26t100.5 70.5t70 101t19 116.5h20q0 -30 -18.5 -53t-47 -35.5t-59.5 -12.5q-58 0 -86 30.5t-28 72.5q0 30 16 55.5t43.5 41.5t60.5 16q52 0 86.5 -34t34.5 -103q0 -60 -27.5 -116t-74 -100.5t-104 -70.5t-116.5 -26z" />
    <glyph glyph-name="uni0327" unicode="&#x327;" 
d="M138 -509v24q86 0 147 40t61 113q0 62 -53 83t-146 21l223 239h31l-148 -159q79 -1 138.5 -15.5t92.5 -47t33 -84.5q0 -60 -49 -109t-134 -77t-196 -28z" />
    <glyph glyph-name="uni0328" unicode="&#x328;" 
d="M320 -419q-54 0 -102.5 13t-79.5 46t-31 92q0 60 37.5 110.5t94.5 90t119.5 67.5t112.5 44l7 -11q-33 -20 -70.5 -58t-63.5 -94t-26 -128q0 -62 23 -93t58 -31t63 18t48.5 44t33.5 50l20 -9q-15 -28 -43.5 -63.5t-77 -61.5t-123.5 -26z" />
    <glyph glyph-name="uni0394" unicode="&#x394;" horiz-adv-x="1289" 
d="M-104 0l894 1529h65l177 -1529h-260l-114 1257l-734 -1257h-28zM-86 0l5 25h1040l-5 -25h-1040z" />
    <glyph glyph-name="uni03A9" unicode="&#x3a9;" horiz-adv-x="1552" 
d="M506 339q-82 19 -159.5 64t-133.5 116.5t-77.5 168.5t6.5 219q44 188 155 326t273.5 212.5t359.5 74.5t325 -74.5t175.5 -212.5t4.5 -326q-28 -122 -94 -217.5t-154.5 -165.5t-186 -113.5t-189.5 -62.5l5 23q88 35 160.5 111t125.5 184.5t83 240.5q27 117 34 223.5
t-18 189t-91.5 130t-185.5 47.5t-207 -47.5t-151 -130t-105 -189t-69 -223.5q-30 -131 -28 -242.5t39 -189.5t109 -113zM-17 0l75 328h25q-16 -70 11.5 -103.5t104.5 -33.5h250l37 163h24l-81 -354h-446zM730 0l84 363h24l-40 -172h250q77 0 119.5 33.5t58.5 103.5h25
l-75 -328h-446z" />
    <glyph glyph-name="uni03BC" unicode="&#x3bc;" horiz-adv-x="1145" 
d="M1057 316l23 -8q-44 -114 -89.5 -186.5t-98.5 -107t-122 -34.5q-84 0 -124.5 40t-40.5 90q0 13 3 32t7 35l75 302q-34 -86 -82.5 -174.5t-106.5 -162t-121 -118t-128 -44.5q-70 0 -109.5 25t-55 68.5t-13.5 99.5l-102 -415q-19 -76 0.5 -129.5t64 -84t103.5 -37.5
q-27 12 -46.5 45t-19.5 77q0 57 42 98t96 41t92.5 -40.5t38.5 -100.5q0 -61 -41.5 -104t-131.5 -43q-55 0 -102 19t-80.5 54.5t-45.5 87t5 117.5l282 1137h-133v25h337l-158 -619q-20 -78 -29 -139t4.5 -95.5t63.5 -34.5q44 0 101.5 50.5t118 135.5t112 192t82.5 220l73 290
h196l-223 -831q-2 -9 -3 -18.5t-1 -16.5q0 -36 34 -36q46 0 87.5 29t81.5 94.5t84 174.5z" />
    <glyph glyph-name="pi" unicode="&#x3c0;" horiz-adv-x="1195" 
d="M130 562l84 358h1011l-66 -208h-969l-36 -150h-24zM162 -20q-63 0 -95 31.5t-32 72.5q0 39 18.5 64.5t48.5 47t67.5 47.5t76.5 65.5t74.5 101t61.5 154.5l94 336h112l-110 -414q-29 -111 -60.5 -203.5t-68.5 -160.5t-83 -105t-104 -37zM816 -20q-46 0 -86.5 22.5
t-60.5 67t-4 109.5l167 661h214l-172 -644q-15 -55 4.5 -74.5t51.5 -19.5q49 0 78.5 31.5t57.5 82.5l20 -10q-36 -105 -102.5 -165.5t-167.5 -60.5z" />
    <glyph glyph-name="Wgrave" unicode="&#x1e80;" horiz-adv-x="2001" 
d="M1113 -20l-135 1520h224l105 -1209l697 1209h28l-876 -1520h-43zM553 -20l-136 1520h233l104 -1209l322 560h27l-500 -871h-50zM239 1475v25h1495v-25h-1495zM1166 834l384 666h27l-384 -666h-27zM1827 1475v25h383v-25h-383zM1419 1685l-269 118q-25 10 -39.5 31.5
t-16 47t11.5 45.5q9 14 25 24.5t36 12.5t40 -5.5t38 -28.5l188 -229z" />
    <glyph glyph-name="wgrave" unicode="&#x1e81;" horiz-adv-x="1469" 
d="M896 -20q-67 0 -118.5 20.5t-83.5 65.5t-40.5 119.5t10.5 182.5l134 552h188l-134 -557q-15 -63 -30 -125.5t-17 -114t21.5 -82.5t84.5 -31q96 0 172 56.5t132.5 146t94 192.5t55.5 198.5t18 160.5q0 62 -29 105t-81 44v23q39 0 67 -20.5t42 -49.5t14 -56q0 -60 -37 -94
t-91 -34q-57 0 -93.5 34t-36.5 89q0 56 37.5 94.5t97.5 38.5t98.5 -50t38.5 -124q0 -66 -18 -165t-56.5 -206t-99 -201t-145 -153t-195.5 -59zM338 -20q-95 0 -145.5 40.5t-60.5 109.5t17 152l187 548q3 9 5.5 19.5t2.5 19.5q0 32 -36 32q-56 0 -100 -34.5t-81 -101
t-74 -161.5l-24 8q38 100 80 173.5t99.5 114t142.5 40.5q81 0 123 -32.5t42 -84.5q0 -22 -4 -47.5t-11 -46.5l-165 -477q-41 -118 -29 -175.5t69 -57.5q63 0 113 43t90.5 119.5t74 177t61.5 215.5h19q-22 -89 -47.5 -175t-57.5 -162t-73 -133.5t-94.5 -90.5t-123.5 -33z
M1065 1105l-269 118q-25 10 -39.5 31.5t-16 47t11.5 45.5q9 14 25 24.5t36 12.5t40 -5.5t38 -28.5l188 -229z" />
    <glyph glyph-name="Wacute" unicode="&#x1e82;" horiz-adv-x="2001" 
d="M1113 -20l-135 1520h224l105 -1209l697 1209h28l-876 -1520h-43zM553 -20l-136 1520h233l104 -1209l322 560h27l-500 -871h-50zM239 1475v25h1495v-25h-1495zM1166 834l384 666h27l-384 -666h-27zM1827 1475v25h383v-25h-383zM1179 1684l-14 16l188 230q17 21 37.5 28.5
t40.5 5.5t36 -12.5t25 -24.5q13 -20 11 -45.5t-16 -47t-39 -31.5z" />
    <glyph glyph-name="wacute" unicode="&#x1e83;" horiz-adv-x="1469" 
d="M896 -20q-67 0 -118.5 20.5t-83.5 65.5t-40.5 119.5t10.5 182.5l134 552h188l-134 -557q-15 -63 -30 -125.5t-17 -114t21.5 -82.5t84.5 -31q96 0 172 56.5t132.5 146t94 192.5t55.5 198.5t18 160.5q0 62 -29 105t-81 44v23q39 0 67 -20.5t42 -49.5t14 -56q0 -60 -37 -94
t-91 -34q-57 0 -93.5 34t-36.5 89q0 56 37.5 94.5t97.5 38.5t98.5 -50t38.5 -124q0 -66 -18 -165t-56.5 -206t-99 -201t-145 -153t-195.5 -59zM338 -20q-95 0 -145.5 40.5t-60.5 109.5t17 152l187 548q3 9 5.5 19.5t2.5 19.5q0 32 -36 32q-56 0 -100 -34.5t-81 -101
t-74 -161.5l-24 8q38 100 80 173.5t99.5 114t142.5 40.5q81 0 123 -32.5t42 -84.5q0 -22 -4 -47.5t-11 -46.5l-165 -477q-41 -118 -29 -175.5t69 -57.5q63 0 113 43t90.5 119.5t74 177t61.5 215.5h19q-22 -89 -47.5 -175t-57.5 -162t-73 -133.5t-94.5 -90.5t-123.5 -33z
M825 1104l-14 16l188 230q17 21 37.5 28.5t40.5 5.5t36 -12.5t25 -24.5q13 -20 11 -45.5t-16 -47t-39 -31.5z" />
    <glyph glyph-name="Wdieresis" unicode="&#x1e84;" horiz-adv-x="2001" 
d="M1113 -20l-135 1520h224l105 -1209l697 1209h28l-876 -1520h-43zM553 -20l-136 1520h233l104 -1209l322 560h27l-500 -871h-50zM239 1475v25h1495v-25h-1495zM1166 834l384 666h27l-384 -666h-27zM1827 1475v25h383v-25h-383zM1448 1689q-44 0 -75.5 31t-31.5 75
t31.5 75.5t75.5 31.5t74.5 -31.5t30.5 -75.5t-30.5 -75t-74.5 -31zM1108 1689q-44 0 -75.5 31t-31.5 75t31.5 75.5t75.5 31.5t74.5 -31.5t30.5 -75.5t-30.5 -75t-74.5 -31z" />
    <glyph glyph-name="wdieresis" unicode="&#x1e85;" horiz-adv-x="1469" 
d="M896 -20q-67 0 -118.5 20.5t-83.5 65.5t-40.5 119.5t10.5 182.5l134 552h188l-134 -557q-15 -63 -30 -125.5t-17 -114t21.5 -82.5t84.5 -31q96 0 172 56.5t132.5 146t94 192.5t55.5 198.5t18 160.5q0 62 -29 105t-81 44v23q39 0 67 -20.5t42 -49.5t14 -56q0 -60 -37 -94
t-91 -34q-57 0 -93.5 34t-36.5 89q0 56 37.5 94.5t97.5 38.5t98.5 -50t38.5 -124q0 -66 -18 -165t-56.5 -206t-99 -201t-145 -153t-195.5 -59zM338 -20q-95 0 -145.5 40.5t-60.5 109.5t17 152l187 548q3 9 5.5 19.5t2.5 19.5q0 32 -36 32q-56 0 -100 -34.5t-81 -101
t-74 -161.5l-24 8q38 100 80 173.5t99.5 114t142.5 40.5q81 0 123 -32.5t42 -84.5q0 -22 -4 -47.5t-11 -46.5l-165 -477q-41 -118 -29 -175.5t69 -57.5q63 0 113 43t90.5 119.5t74 177t61.5 215.5h19q-22 -89 -47.5 -175t-57.5 -162t-73 -133.5t-94.5 -90.5t-123.5 -33z
M1095 1109q-44 0 -75.5 31t-31.5 75t31.5 75.5t75.5 31.5t74.5 -31.5t30.5 -75.5t-30.5 -75t-74.5 -31zM755 1109q-44 0 -75.5 31t-31.5 75t31.5 75.5t75.5 31.5t74.5 -31.5t30.5 -75.5t-30.5 -75t-74.5 -31z" />
    <glyph glyph-name="uni1E86" unicode="&#x1e86;" horiz-adv-x="2001" 
d="M1113 -20l-135 1520h224l105 -1209l697 1209h28l-876 -1520h-43zM553 -20l-136 1520h233l104 -1209l322 560h27l-500 -871h-50zM239 1475v25h1495v-25h-1495zM1166 834l384 666h27l-384 -666h-27zM1827 1475v25h383v-25h-383zM1346 1824q-37 0 -67 18.5t-48 49t-18 67.5
q0 36 18 66.5t48 49t67 18.5q38 0 68.5 -18.5t48.5 -49t18 -66.5q0 -37 -18 -67.5t-48.5 -49t-68.5 -18.5z" />
    <glyph glyph-name="uni1E87" unicode="&#x1e87;" horiz-adv-x="1469" 
d="M896 -20q-67 0 -118.5 20.5t-83.5 65.5t-40.5 119.5t10.5 182.5l134 552h188l-134 -557q-15 -63 -30 -125.5t-17 -114t21.5 -82.5t84.5 -31q96 0 172 56.5t132.5 146t94 192.5t55.5 198.5t18 160.5q0 62 -29 105t-81 44v23q39 0 67 -20.5t42 -49.5t14 -56q0 -60 -37 -94
t-91 -34q-57 0 -93.5 34t-36.5 89q0 56 37.5 94.5t97.5 38.5t98.5 -50t38.5 -124q0 -66 -18 -165t-56.5 -206t-99 -201t-145 -153t-195.5 -59zM338 -20q-95 0 -145.5 40.5t-60.5 109.5t17 152l187 548q3 9 5.5 19.5t2.5 19.5q0 32 -36 32q-56 0 -100 -34.5t-81 -101
t-74 -161.5l-24 8q38 100 80 173.5t99.5 114t142.5 40.5q81 0 123 -32.5t42 -84.5q0 -22 -4 -47.5t-11 -46.5l-165 -477q-41 -118 -29 -175.5t69 -57.5q63 0 113 43t90.5 119.5t74 177t61.5 215.5h19q-22 -89 -47.5 -175t-57.5 -162t-73 -133.5t-94.5 -90.5t-123.5 -33z
M993 1244q-37 0 -67 18.5t-48 49t-18 67.5q0 36 18 66.5t48 49t67 18.5q38 0 68.5 -18.5t48.5 -49t18 -66.5q0 -37 -18 -67.5t-48.5 -49t-68.5 -18.5z" />
    <glyph glyph-name="uni1E88" unicode="&#x1e88;" horiz-adv-x="2001" 
d="M1113 -20l-135 1520h224l105 -1209l697 1209h28l-876 -1520h-43zM553 -20l-136 1520h233l104 -1209l322 560h27l-500 -871h-50zM239 1475v25h1495v-25h-1495zM1166 834l384 666h27l-384 -666h-27zM1827 1475v25h383v-25h-383zM864 -431q-56 0 -95 39.5t-39 94.5
q0 57 39 95.5t95 38.5t95 -38.5t39 -95.5q0 -55 -39 -94.5t-95 -39.5z" />
    <glyph glyph-name="uni1E89" unicode="&#x1e89;" horiz-adv-x="1469" 
d="M896 -20q-67 0 -118.5 20.5t-83.5 65.5t-40.5 119.5t10.5 182.5l134 552h188l-134 -557q-15 -63 -30 -125.5t-17 -114t21.5 -82.5t84.5 -31q96 0 172 56.5t132.5 146t94 192.5t55.5 198.5t18 160.5q0 62 -29 105t-81 44v23q39 0 67 -20.5t42 -49.5t14 -56q0 -60 -37 -94
t-91 -34q-57 0 -93.5 34t-36.5 89q0 56 37.5 94.5t97.5 38.5t98.5 -50t38.5 -124q0 -66 -18 -165t-56.5 -206t-99 -201t-145 -153t-195.5 -59zM338 -20q-95 0 -145.5 40.5t-60.5 109.5t17 152l187 548q3 9 5.5 19.5t2.5 19.5q0 32 -36 32q-56 0 -100 -34.5t-81 -101
t-74 -161.5l-24 8q38 100 80 173.5t99.5 114t142.5 40.5q81 0 123 -32.5t42 -84.5q0 -22 -4 -47.5t-11 -46.5l-165 -477q-41 -118 -29 -175.5t69 -57.5q63 0 113 43t90.5 119.5t74 177t61.5 215.5h19q-22 -89 -47.5 -175t-57.5 -162t-73 -133.5t-94.5 -90.5t-123.5 -33z
M569 -431q-56 0 -95 39.5t-39 94.5q0 57 39 95.5t95 38.5t95 -38.5t39 -95.5q0 -55 -39 -94.5t-95 -39.5z" />
    <glyph glyph-name="uni1E9E" unicode="&#x1e9e;" horiz-adv-x="1632" 
d="M130 0l204 896q44 193 156 333t279 215.5t377 75.5q141 0 244.5 -22t171 -62t100 -95t32.5 -121q0 -65 -33.5 -137.5t-109 -135.5t-200.5 -102.5t-309 -39.5v19q130 0 210 46t123.5 114.5t59.5 139.5t16 121q0 41 -11 85t-43.5 82t-93.5 61.5t-160 23.5
q-129 0 -226 -51.5t-166 -140t-114.5 -199.5t-73.5 -231l-202 -875h-231zM-47 0v25h590v-25h-590zM983 -20q-138 0 -218.5 43.5t-116 111.5t-35.5 142q0 45 17 78t47 51t69 18q52 0 87 -32.5t35 -90.5q0 -35 -18.5 -62.5t-48 -43t-61.5 -15.5q-38 0 -61.5 20.5t-31.5 36.5
q5 -57 37 -108t96 -82.5t166 -31.5q99 0 171.5 38.5t120 103.5t70.5 145t23 164q0 58 -11.5 116.5t-43 107t-88 78.5t-146.5 30v15q198 0 314.5 -40.5t166.5 -118.5t50 -191q0 -116 -47.5 -206.5t-129.5 -152t-188 -93t-225 -31.5z" />
    <glyph glyph-name="Ygrave" unicode="&#x1ef2;" horiz-adv-x="1464" 
d="M503 0l170 754l-294 746h255l258 -727l585 723h31l-617 -765l-164 -731h-224zM323 0v25h604v-25h-604zM239 1475v25h612v-25h-612zM1245 1475v25h420v-25h-420zM1159 1685l-269 118q-25 10 -39.5 31.5t-16 47t11.5 45.5q9 14 25 24.5t36 12.5t40 -5.5t38 -28.5l188 -229z
" />
    <glyph glyph-name="ygrave" unicode="&#x1ef3;" horiz-adv-x="1051" 
d="M113 -520q-70 0 -121 29t-79 80t-28 117q0 36 16.5 69t46.5 53.5t71 20.5q28 0 56.5 -12.5t47.5 -38.5t19 -67q0 -54 -34.5 -87.5t-78.5 -33.5q-30 0 -63 11t-56 32t-23 53h23q0 -61 24.5 -106.5t70 -70.5t107.5 -25q78 0 167.5 54.5t183 146t183 205.5t168 235.5
t138.5 235.5t94.5 205t34.5 144q0 40 -14 82.5t-45.5 72t-82.5 29.5v23q41 0 72.5 -18t49 -46t17.5 -59q0 -36 -19 -64.5t-49.5 -44t-67.5 -15.5q-64 0 -101 37t-37 88t38 87.5t97 36.5q63 0 100 -34t52.5 -83t15.5 -91q0 -56 -34.5 -150.5t-95.5 -211t-141 -240
t-171.5 -239t-187.5 -208.5t-189.5 -147.5t-174.5 -54.5zM637 -129q-36 63 -72 148.5t-69.5 182t-64.5 194t-56.5 185t-46.5 155.5t-35 104q-6 16 -19 30.5t-45 14.5q-37 0 -83 -43t-88 -159l-24 10q33 90 73 144t91 78t115 24q93 0 137.5 -49t65.5 -125q20 -67 44.5 -159.5
t56 -192.5t70 -194.5t86.5 -166.5q-17 -24 -32 -46t-31 -43t-34 -43.5t-39 -48.5zM762 1105l-269 118q-25 10 -39.5 31.5t-16 47t11.5 45.5q9 14 25 24.5t36 12.5t40 -5.5t38 -28.5l188 -229z" />
    <glyph glyph-name="uni2000" unicode="&#x2000;" horiz-adv-x="1000" 
 />
    <glyph glyph-name="uni2001" unicode="&#x2001;" horiz-adv-x="2000" 
 />
    <glyph glyph-name="uni2002" unicode="&#x2002;" horiz-adv-x="1000" 
 />
    <glyph glyph-name="uni2003" unicode="&#x2003;" horiz-adv-x="2000" 
 />
    <glyph glyph-name="uni2004" unicode="&#x2004;" horiz-adv-x="666" 
 />
    <glyph glyph-name="uni2005" unicode="&#x2005;" horiz-adv-x="500" 
 />
    <glyph glyph-name="uni2006" unicode="&#x2006;" horiz-adv-x="333" 
 />
    <glyph glyph-name="uni2007" unicode="&#x2007;" horiz-adv-x="1160" 
 />
    <glyph glyph-name="uni2008" unicode="&#x2008;" horiz-adv-x="399" 
 />
    <glyph glyph-name="uni2009" unicode="&#x2009;" horiz-adv-x="333" 
 />
    <glyph glyph-name="uni200A" unicode="&#x200a;" horiz-adv-x="200" 
 />
    <glyph glyph-name="uni200B" unicode="&#x200b;" 
 />
    <glyph glyph-name="uni2010" unicode="&#x2010;" horiz-adv-x="719" 
d="M166 538v24h480v-24h-480z" />
    <glyph glyph-name="uni2011" unicode="&#x2011;" horiz-adv-x="719" 
d="M166 538v24h480v-24h-480z" />
    <glyph glyph-name="figuredash" unicode="&#x2012;" horiz-adv-x="934" 
d="M166 538v24h695v-24h-695z" />
    <glyph glyph-name="endash" unicode="&#x2013;" horiz-adv-x="1081" 
d="M166 538v24h841v-24h-841z" />
    <glyph glyph-name="emdash" unicode="&#x2014;" horiz-adv-x="1569" 
d="M167 538v24h1329v-24h-1329z" />
    <glyph glyph-name="uni2015" unicode="&#x2015;" horiz-adv-x="1715" 
d="M165 538v24h1477v-24h-1477z" />
    <glyph glyph-name="quoteleft" unicode="&#x2018;" horiz-adv-x="470" 
d="M424 998q-43 0 -77.5 19t-54 57.5t-19.5 94.5q0 76 34.5 145.5t92.5 125t130 88t146 32.5v-25q-69 0 -138.5 -32.5t-126 -88t-87.5 -126t-23 -146.5h-24q0 39 22.5 67t58 43.5t74.5 15.5q72 0 107.5 -38t35.5 -91q0 -37 -20 -69t-54 -52t-77 -20z" />
    <glyph glyph-name="quoteright" unicode="&#x2019;" horiz-adv-x="470" 
d="M226 1012v25q70 0 139.5 32.5t125.5 88t87.5 126t23.5 146.5h23q0 -38 -22.5 -66.5t-58 -44t-73.5 -15.5q-72 0 -107.5 38t-35.5 91q0 37 19.5 69.5t54 52t76.5 19.5q44 0 78.5 -19t54 -57t19.5 -95q0 -75 -35 -145t-92.5 -125.5t-129.5 -88t-147 -32.5z" />
    <glyph glyph-name="quotesinglbase" unicode="&#x201a;" horiz-adv-x="680" 
d="M-73 -312v25q70 0 139.5 32.5t125.5 88t87.5 126t23.5 146.5h23q0 -38 -22.5 -66.5t-58 -44t-73.5 -15.5q-72 0 -107.5 38t-35.5 91q0 37 19.5 69.5t54 52t76.5 19.5q44 0 78.5 -19t54 -57t19.5 -95q0 -75 -35 -145t-92.5 -125.5t-129.5 -88t-147 -32.5z" />
    <glyph glyph-name="quotedblleft" unicode="&#x201c;" horiz-adv-x="891" 
d="M842 998q-43 0 -77 19t-54 57.5t-20 94.5q0 76 35 145.5t92.5 125t130 88t145.5 32.5v-25q-69 0 -138.5 -32.5t-126 -88t-87.5 -126t-23 -146.5h-24q0 39 22.5 67t58 43.5t74.5 15.5q72 0 107.5 -38t35.5 -91q0 -37 -20 -69t-54 -52t-77 -20zM422 998q-43 0 -77.5 19
t-54 57.5t-19.5 94.5q0 76 34.5 145.5t92.5 125t130 88t146 32.5v-25q-69 0 -138.5 -32.5t-126 -88t-87.5 -126t-24 -146.5h-23q0 39 22.5 67t58 43.5t74.5 15.5q72 0 107.5 -38t35.5 -91q0 -37 -20 -69t-54.5 -52t-76.5 -20z" />
    <glyph glyph-name="quotedblright" unicode="&#x201d;" horiz-adv-x="891" 
d="M658 1012v25q69 0 138.5 32.5t126 88t87.5 126t24 146.5h23q0 -38 -22.5 -66.5t-58 -44t-74.5 -15.5q-71 0 -107 38t-36 91q0 37 20 69.5t54.5 52t76.5 19.5q43 0 77.5 -19t54 -57t19.5 -95q0 -75 -34.5 -145t-92.5 -125.5t-129.5 -88t-146.5 -32.5zM238 1012v25
q69 0 138.5 32.5t126 88t87.5 126t23 146.5h24q0 -38 -22.5 -66.5t-58 -44t-74.5 -15.5q-71 0 -107 38t-36 91q0 37 20 69.5t54 52t77 19.5t77.5 -19t54 -57t19.5 -95q0 -75 -34.5 -145t-92.5 -125.5t-130 -88t-146 -32.5z" />
    <glyph glyph-name="quotedblbase" unicode="&#x201e;" horiz-adv-x="891" 
d="M348 -312v25q69 0 138.5 32.5t126 88t87.5 126t23 146.5h24q0 -38 -22.5 -66.5t-58 -44t-74.5 -15.5q-71 0 -107 38t-36 91q0 37 20 69.5t54 52t77 19.5t77.5 -19t54 -57t19.5 -95q0 -75 -34.5 -145t-92.5 -125.5t-130 -88t-146 -32.5zM-73 -312v25q70 0 139.5 32.5
t125.5 88t87.5 126t23.5 146.5h23q0 -38 -22.5 -66.5t-58 -44t-73.5 -15.5q-72 0 -107.5 38t-35.5 91q0 37 19.5 69.5t54 52t76.5 19.5q44 0 78.5 -19t54 -57t19.5 -95q0 -75 -35 -145t-92.5 -125.5t-129.5 -88t-147 -32.5z" />
    <glyph glyph-name="dagger" unicode="&#x2020;" horiz-adv-x="1200" 
d="M276 -500q44 193 73.5 352t43 284.5t8.5 216.5t-29 147h292q-67 -75 -128 -211.5t-119 -334t-117 -454.5h-24zM372 500q47 50 94 121.5t86.5 161t64.5 194.5h24q-18 -79 -23.5 -149t-1 -131t17 -110t30.5 -87h-292zM234 858q-62 0 -90 33.5t-17 83.5q8 34 30 60.5
t55.5 41.5t75.5 15h17.5t18.5 -2q53 -8 91 -24.5t69.5 -34.5t66 -30.5t80.5 -12.5l-6 -25q-46 0 -86.5 -12.5t-80.5 -31t-85 -35t-102 -24.5q-10 -1 -19 -1.5t-18 -0.5zM968 858q-9 0 -17 0.5t-19 1.5q-53 8 -91 24.5t-69.5 35t-66 31t-80.5 12.5l6 25q46 0 86.5 12.5
t80.5 30.5t85 34.5t101 24.5q11 2 19.5 2h17.5q64 0 91.5 -33.5t15.5 -83.5q-8 -33 -30 -60t-55.5 -42t-74.5 -15zM617 977q18 79 16 127t-12 83t-18.5 71.5t-3.5 91.5q1 11 3 19.5t4 17.5q10 42 32 72t52.5 45.5t63.5 15.5q50 0 75.5 -35t10.5 -98q-2 -9 -4.5 -17.5
t-6.5 -19.5q-20 -55 -45 -91.5t-51 -71.5t-50 -83t-42 -127h-24z" />
    </font>
</defs>
</svg>
