<?xml version="1.0" standalone="no"?>
<!DOCTYPE svg PUBLIC "-//W3C//DTD SVG 1.1//EN" "http://www.w3.org/Graphics/SVG/1.1/DTD/svg11.dtd" >
<svg xmlns="http://www.w3.org/2000/svg" xmlns:xlink="http://www.w3.org/1999/xlink" version="1.1">
<metadata>
Created by FontForge 20170731 at Sun Nov 22 11:20:21 2020
 By Aleksey,,,
Copyright 2020 The Bodoni Moda Project Authors (https://github.com/indestructible-type)
</metadata>
<defs>
<font id="BodoniModa18pt-BlackItalic" horiz-adv-x="1639" >
  <font-face 
    font-family="Bodoni Moda 18pt Black"
    font-weight="900"
    font-style="italic"
    font-stretch="normal"
    units-per-em="2000"
    panose-1="0 0 0 0 0 0 0 0 0 0"
    ascent="1600"
    descent="-400"
    x-height="920"
    cap-height="1500"
    bbox="-515 -794 4120 2101"
    underline-thickness="50"
    underline-position="-175"
    slope="-13"
    unicode-range="U+000D-FB02"
  />
<missing-glyph horiz-adv-x="1200" 
d="M122 0l330 1500h774l-330 -1500h-774zM172 39h692l313 1423h-693zM687 733l-21 35q53 31 86.5 55t59.5 46.5t60 49.5q27 18 57.5 22.5t47.5 -26.5q16 -27 -0.5 -53t-49.5 -40q-40 -16 -74 -24t-73 -21.5t-93 -43.5zM479 583q-27 -19 -57.5 -23t-47.5 26q-15 27 1.5 53.5
t48.5 39.5q40 16 74.5 24.5t73 21.5t92.5 44l21 -35q-53 -31 -86.5 -55t-59.5 -46.5t-60 -49.5zM627 442q-30 0 -44 26t-4 64q12 42 26.5 72t27.5 63t22 84h42q-12 -63 -12.5 -95t2.5 -57t3 -67q0 -40 -16.5 -65t-46.5 -25zM664 734q-53 31 -77.5 40.5t-44.5 14t-60 20.5
q-34 15 -50 42.5t0 54.5q16 30 47.5 30t59.5 -19q34 -26 45.5 -48.5t30 -47t71.5 -54.5zM814 587q-34 27 -46 49t-31 45t-73 54l22 33q54 -31 78.5 -40.5t44.5 -14t60 -20.5q34 -15 50 -42.5t0 -55.5q-16 -29 -47 -27t-58 19zM655 751q11 62 11.5 94t-2.5 57t-3 68
q0 40 17 64.5t46 24.5q30 0 44.5 -25.5t3.5 -63.5q-12 -43 -26.5 -73t-27.5 -62.5t-21 -83.5h-42z" />
    <glyph glyph-name="fi" unicode="fi" horiz-adv-x="1552" 
d="M-74 -520q-101 0 -174 41t-112.5 103t-39.5 124q0 92 64 143t140 51q45 0 92 -19.5t78.5 -59.5t31.5 -100q0 -55 -25.5 -100.5t-68.5 -73t-94 -27.5q-49 0 -99 23.5t-83.5 65.5t-33.5 97h23q0 -60 38.5 -115.5t104.5 -91.5t149 -36q71 0 121 53.5t84 147t55 214.5
l193 1103q20 116 73 207.5t136 156.5t195 99t251 34q113 0 189.5 -28t122 -69.5t65.5 -85t20 -75.5q0 -84 -51 -144t-142 -60q-55 0 -106.5 24.5t-85 67t-33.5 97.5q0 50 25 96t69 75.5t102 29.5q55 0 105.5 -25.5t82.5 -68t32 -92.5h-23q0 48 -37.5 102t-117 92.5
t-205.5 38.5q-70 0 -129 -53.5t-101 -147t-63 -214.5l-192 -1103q-21 -122 -71 -215t-128.5 -155.5t-185 -94.5t-241.5 -32zM1092 -20q-123 0 -182.5 40t-59.5 146q0 8 1 21t3 23l176 685h-848v25h1232l-202 -797q-5 -20 -5 -37q0 -16 9 -27t28 -11q42 0 93 36.5t98 100.5
t78 148l24 -7q-57 -150 -164 -248t-281 -98z" />
    <glyph glyph-name="fl" unicode="fl" horiz-adv-x="1663" 
d="M-24 -520q-116 0 -200.5 36.5t-130 95.5t-45.5 126q0 92 60.5 148t143.5 56q75 0 138.5 -49.5t63.5 -139.5q0 -65 -31 -107.5t-76.5 -63t-90.5 -20.5q-42 0 -90 17t-82 55.5t-34 103.5h23q0 -65 43.5 -118t117.5 -84t166 -31q71 0 112.5 53.5t66.5 147t46 214.5l193 1103
q23 134 76.5 228.5t136 154t193 87t249.5 27.5q102 0 183 -41t127.5 -100.5t46.5 -116.5q0 -56 -29.5 -102.5t-76 -74t-97.5 -27.5q-45 0 -92.5 24.5t-80 67t-32.5 97.5q0 58 29 101t74 66.5t93 23.5q42 0 91 -21t84 -60.5t35 -94.5h-23q0 54 -44.5 108t-118 89.5
t-160.5 35.5q-85 0 -141.5 -53.5t-91.5 -147t-57 -214.5l-192 -1103q-21 -122 -72.5 -215t-128 -155.5t-171.5 -94.5t-204 -32zM183 895v25h820v-25h-820zM1211 -20q-112 0 -165.5 25.5t-69.5 68t-16 92.5q0 8 1.5 21.5t3.5 22.5l285 1240l398 90l-329 -1424q-4 -16 -4 -36
q0 -16 8 -27.5t27 -11.5q29 0 81 33t105.5 98.5t87.5 160.5l24 -7q-57 -150 -165 -248t-272 -98z" />
    <glyph glyph-name="f_f" unicode="ff" horiz-adv-x="1687" 
d="M620 -420q-101 0 -174 41t-112.5 103t-39.5 124q0 92 64 143t140 51q45 0 92 -20t78.5 -59.5t31.5 -99.5q0 -55 -28.5 -100.5t-71.5 -73t-88 -27.5q-42 0 -92.5 23.5t-87 65.5t-36.5 97h23q0 -60 39 -115.5t105 -91.5t148 -36q71 0 121 53.5t84 147t55 214.5l179 1003
q20 116 65.5 207.5t118.5 156.5t177.5 99t243.5 34q95 0 161 -28t107 -69.5t60 -85t19 -75.5q0 -84 -51 -144t-142 -60q-55 0 -106.5 24.5t-85 67t-33.5 97.5q0 53 26.5 99t72.5 74t104 28q52 0 101 -25.5t80.5 -68t31.5 -92.5h-23q0 45 -34 99.5t-102.5 94t-173.5 39.5
q-70 0 -116.5 -53.5t-76 -147t-50.5 -214.5l-178 -1003q-28 -163 -107.5 -273.5t-209 -167t-309.5 -56.5zM-80 -520q-101 0 -174 41t-112.5 103t-39.5 124q0 92 64 143t140 51q45 0 92 -19.5t78.5 -59.5t31.5 -100q0 -58 -28.5 -103.5t-71.5 -71.5t-88 -26t-95.5 22
t-85.5 63.5t-35 100.5h23q0 -60 38 -115.5t104 -91.5t150 -36q71 0 121 53.5t84 147t55 214.5l179 1003q20 116 65.5 207.5t118.5 156.5t177.5 99t243.5 34q95 0 161 -28t107 -69.5t60 -85t19 -75.5q0 -84 -51 -144t-142 -60q-55 0 -106.5 24.5t-85 67t-33.5 97.5
q0 50 26.5 96t71 75.5t98.5 29.5q49 0 99.5 -25.5t85.5 -68t35 -92.5h-23q0 45 -34.5 99.5t-103 94t-172.5 39.5q-70 0 -116.5 -53.5t-76 -147t-50.5 -214.5l-178 -1003q-21 -122 -71 -215t-128.5 -155.5t-185 -94.5t-241.5 -32zM182 895v25h1502v-25h-1502z" />
    <glyph glyph-name="f_f_i" unicode="ffi" horiz-adv-x="2232" 
d="M620 -420q-101 0 -174 41t-112.5 103t-39.5 124q0 92 64.5 143t139.5 51q45 0 92 -20t78.5 -59.5t31.5 -99.5q0 -55 -28 -100.5t-71.5 -73t-88.5 -27.5q-42 0 -92.5 23.5t-87 65.5t-36.5 97h24q0 -63 39 -118.5t105.5 -90t147.5 -34.5q71 0 120.5 53.5t83.5 147t55 214.5
l179 1003q27 154 111.5 265.5t221.5 171.5t322 60q117 0 194.5 -28t121.5 -69.5t62.5 -85t18.5 -75.5q0 -84 -51 -144t-142 -60q-55 0 -106.5 24.5t-85 67t-33.5 97.5q0 53 26.5 99t73 74t103.5 28q60 0 108 -25.5t76.5 -68t28.5 -92.5h-23q0 34 -18.5 74t-60.5 76.5
t-111 59.5t-169 23q-71 0 -129.5 -53.5t-100.5 -147t-64 -214.5l-178 -1003q-28 -163 -107 -273.5t-209 -167t-310 -56.5zM-80 -520q-101 0 -174 41t-112.5 103t-39.5 124q0 92 64.5 143t139.5 51q45 0 92 -19.5t78.5 -59.5t31.5 -100q0 -55 -27 -100.5t-71.5 -73
t-95.5 -27.5q-49 0 -97 23.5t-80.5 65.5t-32.5 97h24q0 -61 39 -117t105.5 -91t147.5 -35q71 0 120.5 53.5t83.5 147t55 214.5l179 1003q27 154 99 265.5t196.5 171.5t309.5 60q95 0 161 -28t107.5 -69.5t60 -85t18.5 -75.5q0 -84 -51 -144t-142 -60q-55 0 -106.5 24.5
t-85 67t-33.5 97.5q0 50 26.5 96t71 75.5t98.5 29.5q49 0 100 -25.5t85.5 -68t34.5 -92.5h-23q0 45 -34 99.5t-103 94t-172 39.5q-71 0 -117 -53.5t-75.5 -147t-51.5 -214.5l-178 -1003q-21 -122 -70.5 -215t-128 -155.5t-185.5 -94.5t-242 -32zM1770 -20q-123 0 -183 40
t-60 146q0 8 2 21t4 23l175 685h-1526v25h1910l-202 -797q-2 -9 -3 -19t-1 -18q0 -38 36 -38q40 0 90.5 33.5t98.5 97.5t82 154l24 -7q-57 -150 -165 -248t-282 -98z" />
    <glyph glyph-name="f_f_l" unicode="ffl" horiz-adv-x="2341" 
d="M620 -420q-101 0 -174 41t-112.5 103t-39.5 124q0 92 64 143t140 51q45 0 92 -20t78.5 -59.5t31.5 -99.5q0 -55 -28.5 -100.5t-71.5 -73t-88 -27.5q-42 0 -92.5 23.5t-87 65.5t-36.5 97h23q0 -60 38.5 -115.5t104.5 -91.5t149 -36q71 0 121 53.5t84 147t55 214.5
l179 1003q27 154 103.5 265.5t214 171.5t347.5 60q93 0 158.5 -28t107.5 -69.5t61.5 -85t19.5 -75.5q0 -84 -51 -144t-142 -60q-55 0 -106.5 24.5t-85 67t-33.5 97.5q0 50 26.5 96t71 75.5t98.5 29.5q49 0 99.5 -25.5t85.5 -68t35 -92.5h-23q0 45 -35.5 99.5t-104.5 94
t-170 39.5q-95 0 -154.5 -53.5t-93.5 -147t-55 -214.5l-178 -1003q-28 -163 -107.5 -273.5t-209 -167t-309.5 -56.5zM-80 -520q-101 0 -174 41t-112.5 103t-39.5 124q0 92 64 143t140 51q45 0 92 -19.5t78.5 -59.5t31.5 -100q0 -55 -27.5 -100.5t-71.5 -73t-96 -27.5
q-42 0 -90.5 22t-83.5 64t-35 100h23q0 -60 38 -115.5t104 -91.5t150 -36q71 0 121 53.5t84 147t55 214.5l179 1003q20 116 65.5 207.5t118.5 156.5t177.5 99t243.5 34q95 0 161 -28t107 -69.5t60 -85t19 -75.5q0 -84 -51 -144t-142 -60q-55 0 -106.5 24.5t-85 67
t-33.5 97.5q0 57 26.5 102.5t71 72t98.5 26.5q55 0 105.5 -25.5t82.5 -68t32 -92.5h-23q0 48 -35.5 102t-104.5 92.5t-170 38.5q-70 0 -116.5 -53.5t-76 -147t-50.5 -214.5l-178 -1003q-21 -122 -71 -215t-128.5 -155.5t-185 -94.5t-241.5 -32zM182 895v25h1502v-25h-1502z
M1879 -20q-123 0 -182 40t-59 146q0 8 2 21.5t3 22.5l286 1250l397 80l-323 -1410q-2 -9 -3 -19t-1 -18q0 -16 9 -27t28 -11q43 0 92.5 33.5t95.5 96t77 149.5l25 -8q-57 -150 -165 -248t-282 -98z" />
    <glyph glyph-name="f_j.liga" unicode="fj" horiz-adv-x="1526" 
d="M-53 -520q-111 0 -190.5 38.5t-121.5 98t-42 121.5q0 92 51 147.5t141 55.5q82 0 148 -48.5t66 -138.5q0 -78 -47.5 -125.5t-115.5 -53.5q-39 -4 -69.5 9t-52 31t-31.5 31q9 -32 40.5 -63t78 -51.5t99.5 -20.5q70 0 122.5 51.5t88.5 143.5t57 214l192 1103
q26 146 92 242.5t160 152t202.5 79t219.5 23.5q128 0 211 -38.5t123.5 -98t40.5 -121.5q0 -91 -51 -147t-141 -56q-82 0 -148 48.5t-66 138.5q0 78 48.5 125.5t115.5 53.5q54 5 93 -19.5t62 -51.5q-12 42 -49.5 73t-88.5 47.5t-104 16.5q-80 0 -151.5 -52t-122.5 -144.5
t-72 -214.5l-192 -1103q-25 -146 -84.5 -242.5t-141.5 -152t-177 -79t-193 -23.5zM634 -420q-91 0 -170 34t-127.5 90.5t-48.5 123.5q0 92 67 153t157 61q82 0 142 -52.5t60 -123.5q0 -49 -23 -89.5t-59 -66t-77 -29.5q-53 -7 -103.5 7t-63.5 46q20 -42 58.5 -70t85 -42.5
t92.5 -14.5q75 0 114.5 49t58 127.5t30.5 172.5t32 185l166 754h-850v25h1236l-173 -844q-19 -94 -79 -182.5t-145 -159.5t-183.5 -112.5t-196.5 -41.5z" />
    <glyph glyph-name=".notdef" horiz-adv-x="1200" 
d="M122 0l330 1500h774l-330 -1500h-774zM172 39h692l313 1423h-693zM687 733l-21 35q53 31 86.5 55t59.5 46.5t60 49.5q27 18 57.5 22.5t47.5 -26.5q16 -27 -0.5 -53t-49.5 -40q-40 -16 -74 -24t-73 -21.5t-93 -43.5zM479 583q-27 -19 -57.5 -23t-47.5 26q-15 27 1.5 53.5
t48.5 39.5q40 16 74.5 24.5t73 21.5t92.5 44l21 -35q-53 -31 -86.5 -55t-59.5 -46.5t-60 -49.5zM627 442q-30 0 -44 26t-4 64q12 42 26.5 72t27.5 63t22 84h42q-12 -63 -12.5 -95t2.5 -57t3 -67q0 -40 -16.5 -65t-46.5 -25zM664 734q-53 31 -77.5 40.5t-44.5 14t-60 20.5
q-34 15 -50 42.5t0 54.5q16 30 47.5 30t59.5 -19q34 -26 45.5 -48.5t30 -47t71.5 -54.5zM814 587q-34 27 -46 49t-31 45t-73 54l22 33q54 -31 78.5 -40.5t44.5 -14t60 -20.5q34 -15 50 -42.5t0 -55.5q-16 -29 -47 -27t-58 19zM655 751q11 62 11.5 94t-2.5 57t-3 68
q0 40 17 64.5t46 24.5q30 0 44.5 -25.5t3.5 -63.5q-12 -43 -26.5 -73t-27.5 -62.5t-21 -83.5h-42z" />
    <glyph glyph-name=".null" horiz-adv-x="0" 
 />
    <glyph glyph-name="nonmarkingreturn" horiz-adv-x="666" 
 />
    <glyph glyph-name="CR" unicode="&#xd;" horiz-adv-x="500" 
 />
    <glyph glyph-name="space" unicode=" " horiz-adv-x="500" 
 />
    <glyph glyph-name="exclam" unicode="!" horiz-adv-x="877" 
d="M491 616q18 90 14 152.5t-20 110t-36 92t-34.5 98t-14.5 129.5q0 86 41.5 158.5t106.5 116t134 43.5q98 0 156 -60.5t58 -137.5t-31.5 -141t-80 -124.5t-103 -124.5t-102 -140t-74.5 -172h-14zM408 -20q-66 0 -120.5 32.5t-87 87.5t-32.5 121t32.5 120t87 86.5
t120.5 32.5t120.5 -32.5t87 -86.5t32.5 -120t-32.5 -121t-87 -87.5t-120.5 -32.5z" />
    <glyph glyph-name="quotedbl" unicode="&#x22;" horiz-adv-x="1177" 
d="M935 836q20 75 8.5 132t-37.5 104.5t-51 95t-34 103.5q-1 11 -1 24.5v22.5q0 89 68 145.5t172 56.5q89 0 148.5 -54t59.5 -128q0 -16 -1.5 -33t-4.5 -28q-14 -56 -53.5 -104t-88.5 -97.5t-92.5 -107t-66.5 -132.5h-26zM385 836q20 75 8.5 132t-37.5 104.5t-51 95
t-34 103.5q-1 11 -1 24.5v22.5q0 89 68 145.5t172 56.5q89 0 148.5 -54t59.5 -128q0 -16 -1.5 -33t-4.5 -28q-14 -56 -53.5 -104t-88.5 -97.5t-92.5 -107t-66.5 -132.5h-26z" />
    <glyph glyph-name="numbersign" unicode="#" horiz-adv-x="1259" 
d="M739 -12l350 1520l26 2l-350 -1520zM132 490v24h1080v-24h-1080zM339 -10l351 1520h25l-350 -1520h-26zM232 1016v25h1080v-25h-1080z" />
    <glyph glyph-name="dollar" unicode="$" horiz-adv-x="1289" 
d="M560 -29q-132 0 -226.5 40t-155 101t-89 125t-28.5 113q0 92 55.5 158t143.5 66q68 0 128 -51.5t60 -140.5q0 -55 -28.5 -98t-73 -68t-93.5 -25q-71 0 -130.5 39.5t-59.5 119.5h23q0 -46 27 -106.5t83.5 -118t146 -95t214.5 -37.5q81 0 158.5 32.5t128.5 91t51 137.5
q0 76 -34.5 125.5t-91 84.5t-124 65t-135.5 64.5t-124.5 84.5t-91 125.5t-34.5 186.5q0 109 55.5 205t148 169t205 114.5t225.5 41.5q108 0 203 -41t154 -109.5t59 -149.5q0 -99 -55.5 -161.5t-144.5 -62.5q-68 0 -127.5 48t-59.5 144q0 83 59.5 137t132.5 54q47 0 91.5 -25
t73 -62t28.5 -72h-23q0 72 -53 135.5t-141.5 102.5t-194.5 39q-81 0 -145 -27.5t-101 -76.5t-37 -113q0 -76 33.5 -124t88.5 -80t120.5 -58.5t131 -59t120.5 -81.5t88.5 -125t33.5 -192q0 -127 -59.5 -234.5t-158 -187t-216.5 -123.5t-235 -44zM398 -160l415 1820h25
l-415 -1820h-25zM531 -160l415 1820h25l-415 -1820h-25z" />
    <glyph glyph-name="percent" unicode="%" horiz-adv-x="2000" 
d="M387 0l1370 1500h33l-1372 -1500h-31zM550 641q-113 0 -203.5 31.5t-143.5 97.5t-53 169q0 123 47 228.5t128 184.5t185.5 123.5t219.5 44.5q113 0 203.5 -32t143.5 -98t53 -169q0 -123 -47 -228.5t-128 -184.5t-185.5 -123t-219.5 -44zM532 665q22 0 49 43.5t54.5 115
t53 156.5t46 170t32 156t11.5 112q0 33 -4.5 55t-25.5 22q-22 0 -49 -42.5t-56 -113t-56 -154.5t-48.5 -168t-34 -154t-12.5 -111q0 -33 9.5 -60t30.5 -27zM1460 -20q-113 0 -203.5 32t-143 98t-52.5 169q0 123 46.5 228.5t128 184.5t186 123t219.5 44q113 0 203.5 -31.5
t143 -97.5t52.5 -169q0 -123 -47 -228.5t-128 -184.5t-185.5 -123.5t-219.5 -44.5zM1442 5q22 0 48.5 43.5t54.5 115t53.5 156.5t46 170t32.5 156t12 112q0 22 -2 39.5t-8.5 28.5t-20.5 11q-22 0 -49 -43t-56 -113.5t-56 -154.5t-48.5 -168.5t-34.5 -154.5t-13 -111
q0 -33 10 -60t31 -27z" />
    <glyph glyph-name="ampersand" unicode="&#x26;" horiz-adv-x="1733" 
d="M1420 -20q-147 0 -263 56t-175 146l-495 757q-36 56 -53 115.5t-17 111.5q0 100 74 180t193 127t254 47q80 0 160 -19t146 -54.5t105.5 -84.5t39.5 -109q0 -76 -38.5 -125t-105 -82.5t-153 -63.5t-181.5 -68l-8 23q31 20 48.5 64t24.5 108.5t7 146.5q0 62 -6 117
t-20 89.5t-39 34.5q-34 0 -54.5 -38.5t-29 -95t-8.5 -109.5q0 -52 19.5 -136t78.5 -179l468 -750q22 -36 48.5 -71t57 -58.5t67.5 -23.5q39 0 82 28.5t70 82.5l21 -6q-28 -66 -102.5 -113.5t-215.5 -47.5zM579 -20q-143 0 -266 34t-198 108.5t-75 197.5q0 107 44.5 184
t121.5 134.5t175 103t206 88.5l8 -21q-47 -32 -79.5 -91t-49 -134t-16.5 -155q0 -63 24.5 -129.5t73 -123.5t121 -92t169.5 -35q115 0 235 34t229.5 93.5t196 136t137.5 162.5t51 172h23q0 -45 -34.5 -85.5t-89 -66t-114.5 -25.5q-75 0 -128 32t-80.5 82t-27.5 105
q0 51 32 99t83.5 79t108.5 31q73 0 130 -35t89.5 -92.5t32.5 -123.5q0 -99 -57.5 -195.5t-162.5 -181.5t-246.5 -150t-311 -102.5t-355.5 -37.5z" />
    <glyph glyph-name="quotesingle" unicode="'" horiz-adv-x="627" 
d="M385 836q20 75 8.5 132t-37.5 104.5t-51 95t-34 103.5q-1 11 -1 24.5v22.5q0 89 68 145.5t172 56.5q89 0 148.5 -54t59.5 -128q0 -16 -1.5 -33t-4.5 -28q-14 -56 -53.5 -104t-88.5 -97.5t-92.5 -107t-66.5 -132.5h-26z" />
    <glyph glyph-name="parenleft" unicode="(" horiz-adv-x="769" 
d="M572 -340q-113 50 -204 151.5t-144.5 243.5t-53.5 315q0 176 49.5 337.5t135 302.5t194.5 256.5t228 200.5t235 133l13 -23q-77 -60 -144 -168t-122.5 -248t-98 -295.5t-72.5 -312t-45.5 -298.5t-15.5 -253q0 -54 4.5 -102.5t12 -89.5t18 -74t22.5 -56z" />
    <glyph glyph-name="parenright" unicode=")" horiz-adv-x="769" 
d="M-182 -340l-13 23q77 60 144 168t122.5 248t98 295.5t72.5 312t45.5 298.5t15.5 253q0 54 -4.5 102.5t-12 89.5t-18 74t-22.5 56l12 20q113 -50 204 -151t144.5 -243.5t53.5 -315.5q0 -176 -49.5 -337.5t-135 -302.5t-194.5 -256.5t-228 -200.5t-235 -133z" />
    <glyph glyph-name="asterisk" unicode="*" horiz-adv-x="1269" 
d="M772 889l-13 20q71 41 117.5 90.5t81.5 102t69.5 101t81.5 87.5q58 48 118.5 56.5t112 -15.5t82.5 -73q35 -54 26 -123.5t-55.5 -127t-124.5 -73.5q-55 -11 -113 -5t-119.5 12.5t-127 -2.5t-136.5 -50zM420 510q-58 -48 -118.5 -56.5t-112 15.5t-82.5 73
q-35 54 -25.5 123.5t56 127t124.5 73.5q56 11 113.5 5t119 -13t127 2t136.5 50l13 -21q-71 -41 -117.5 -90.5t-81.5 -101t-70 -100t-82 -87.5zM646 216q-55 0 -106 24.5t-76 77.5t-2 136q16 58 58.5 104.5t92.5 93.5t90 106t51 142h24q-15 -97 1 -162t44 -112.5t51.5 -91.5
t23.5 -100q0 -57 -36 -106.5t-93.5 -80.5t-122.5 -31zM759 889q-71 41 -136.5 46t-125 -5t-115 -14.5t-107.5 18.5q-59 27 -81.5 78.5t-15.5 111t38 110.5q34 54 94.5 84.5t129 29.5t126.5 -43q40 -29 57 -69.5t24.5 -86t17 -90.5t33.5 -84t75 -66zM964 496q-40 29 -56.5 69
t-24 85t-17.5 90t-33.5 84t-74.5 66l15 19q71 -41 135.5 -45.5t124 6t114.5 15t107 -18.5q59 -27 82 -78.5t16 -111t-38 -110.5q-34 -54 -94.5 -84.5t-129 -29t-126.5 43.5zM753 900q15 98 -1 162.5t-44.5 112t-52 91.5t-23.5 100q0 57 36 106.5t93.5 80.5t122.5 31
q55 0 103 -24t72.5 -76.5t8.5 -137.5q-10 -58 -51.5 -104.5t-93 -93.5t-93.5 -106t-53 -142h-24z" />
    <glyph glyph-name="plus" unicode="+" horiz-adv-x="1059" 
d="M233 647v250h593v-250h-593zM404 474v594h250v-594h-250z" />
    <glyph glyph-name="comma" unicode="," horiz-adv-x="695" 
d="M-64 -312v25q109 0 220 28.5t204.5 86.5t151 146.5t57.5 207.5h23q0 -70 -41.5 -114.5t-101 -66t-113.5 -21.5q-117 0 -186 67t-69 165q0 63 35 119t93 90.5t126 34.5q69 0 128 -34t95 -95.5t36 -144.5q0 -124 -58 -216.5t-154.5 -154t-213 -92.5t-232.5 -31z" />
    <glyph glyph-name="hyphen" unicode="-" horiz-adv-x="719" 
d="M166 538v24h480v-24h-480z" />
    <glyph glyph-name="period" unicode="." horiz-adv-x="639" 
d="M320 -20q-66 0 -120.5 33t-87 87.5t-32.5 120.5t32.5 120t87 86.5t120.5 32.5t121 -32.5t87.5 -86.5t32.5 -120t-32.5 -120.5t-87.5 -87.5t-121 -33z" />
    <glyph glyph-name="slash" unicode="/" horiz-adv-x="1039" 
d="M-61 -300l1268 1861h33l-1267 -1861h-34z" />
    <glyph glyph-name="zero" unicode="0" horiz-adv-x="1399" 
d="M624 -20q-148 0 -256 68.5t-166.5 179.5t-58.5 240q0 173 44 330.5t123 289t183 228.5t224 150.5t247 53.5q148 0 256 -68t166.5 -179.5t58.5 -240.5q0 -173 -44 -330.5t-123 -289t-183 -228.5t-224 -150.5t-247 -53.5zM624 3q48 0 93.5 56t88 151.5t79.5 215t67.5 247
t52 249t33.5 221t12 159.5q0 48 -3 84t-12 60.5t-26 37.5t-45 13q-48 0 -93.5 -54t-88 -146.5t-79.5 -209t-67.5 -243t-52 -249t-33.5 -225.5t-12 -172q0 -47 3 -83.5t12 -61t26 -37.5t45 -13z" />
    <glyph glyph-name="one" unicode="1" horiz-adv-x="1109" 
d="M141 0l332 1475h-229v25h666l-340 -1500h-429zM-75 0v25h870v-25h-870z" />
    <glyph glyph-name="two" unicode="2" horiz-adv-x="1319" 
d="M-80 0l66 270l491 302q90 55 159.5 130.5t117 162t72 175t24.5 170.5q0 67 -14.5 123.5t-52 92t-108.5 35.5q-67 0 -146.5 -30.5t-150.5 -84t-116.5 -126t-45.5 -156.5h-22q0 50 37 96t93 75t114 29q97 0 160.5 -52t63.5 -150q0 -97 -68.5 -167.5t-173.5 -70.5
q-90 0 -159 62.5t-69 177.5q0 88 51.5 169.5t141.5 146t207 102.5t248 38q121 0 224 -33.5t166 -102t63 -173.5q0 -81 -50 -152.5t-130 -133.5t-172.5 -115t-178.5 -97.5t-146 -81.5l-345 -211h869l37 150h25l-134 -570h-1148z" />
    <glyph glyph-name="three" unicode="3" horiz-adv-x="1261" 
d="M442 -20q-142 0 -240.5 60.5t-150 150.5t-51.5 177q0 99 65 163.5t155 64.5q83 0 145 -59.5t62 -151.5q0 -57 -30.5 -103.5t-79 -74t-103.5 -27.5q-54 0 -102.5 26t-79 69t-30.5 93h23q0 -85 47.5 -167t132.5 -135.5t197 -53.5q97 0 162 49t103.5 128t55.5 169t17 172
q0 56 -7 104.5t-30 85.5t-70.5 58t-129.5 21v15q162 0 285 -23t206.5 -68t125.5 -109.5t42 -147.5q0 -124 -64.5 -215.5t-171 -151.5t-233 -89.5t-251.5 -29.5zM503 808v15q108 0 177.5 49.5t109 122.5t55 146t15.5 121q0 64 -13 115t-49.5 81t-105.5 30q-50 0 -116 -17
t-128 -52.5t-103 -90t-41 -128.5h-23q0 55 32.5 98.5t82 69t99.5 25.5q55 0 103.5 -26.5t79 -73t30.5 -106.5q0 -65 -32.5 -112.5t-81.5 -73t-99 -25.5q-55 0 -104.5 28.5t-80.5 79t-31 116.5q0 77 44.5 136t115.5 99.5t154 61.5t159 21q84 0 176 -17t172.5 -53.5t131 -94.5
t50.5 -141q0 -75 -56.5 -147t-160 -130.5t-246.5 -92.5t-316 -34z" />
    <glyph glyph-name="four" unicode="4" horiz-adv-x="1451" 
d="M600 0l322 1285l-770 -842h1198v-25h-1257l987 1082h352l-403 -1500h-429zM430 0v25h770v-25h-770z" />
    <glyph glyph-name="five" unicode="5" horiz-adv-x="1253" 
d="M187 694l270 806h855l26 109h25l-121 -529h-900l-131 -386h-24zM452 -20q-127 0 -229.5 37.5t-162.5 113t-60 187.5q0 61 30.5 112t81.5 81.5t111 30.5q55 0 104.5 -28t80.5 -76t31 -108t-31.5 -107.5t-80.5 -75t-104 -27.5t-105.5 28.5t-83 74t-32.5 95.5h23
q0 -80 32 -137.5t85 -94.5t116 -55t124 -18q86 0 148 40.5t102.5 107.5t64 147.5t33.5 162t10 150.5q0 74 -22 123.5t-60.5 73.5t-87.5 24q-60 0 -126 -17.5t-123.5 -50.5t-92.5 -80h-25q36 57 108 98.5t162 64t181 22.5q141 0 258.5 -30.5t188 -104t70.5 -203.5
q0 -124 -62 -226.5t-165.5 -177.5t-231.5 -116t-260 -41z" />
    <glyph glyph-name="six" unicode="6" horiz-adv-x="1319" 
d="M568 -20q-131 0 -237 48t-168.5 149.5t-62.5 261.5q0 152 61.5 306t173.5 293t265.5 247.5t338.5 171.5t391 63v-23q-148 0 -267 -56t-210 -153.5t-156.5 -222.5t-107.5 -264t-62 -279t-20 -265l-1 -97q0 -44 8 -79t25 -55.5t43 -20.5q42 0 80.5 58t71 150.5t56.5 197.5
t37 200.5t13 158.5q0 80 -13.5 114.5t-49.5 34.5q-65 0 -112 -58t-78 -150.5t-48.5 -196.5t-25 -198.5t-7.5 -155.5h-26q0 48 4.5 127t17 173t37.5 187t66 170.5t101.5 125t144.5 47.5q76 0 151.5 -22t138.5 -68.5t100.5 -120.5t37.5 -179q0 -142 -62 -256.5t-165 -196
t-229.5 -124.5t-254.5 -43z" />
    <glyph glyph-name="seven" unicode="7" horiz-adv-x="1215" 
d="M504 -20q-96 0 -164.5 57t-68.5 175q0 74 44.5 137.5t114.5 122.5t149 121.5t149 135.5q65 67 110 115.5t89.5 99.5t107.5 126h-746l-34 -150h-25l131 580h1060l-38 -47.5t-101.5 -125.5t-141 -171t-157 -185t-148.5 -166q-76 -82 -124.5 -131.5t-71.5 -87t-23 -82.5
q0 -32 20.5 -63t47.5 -64t47.5 -72t20.5 -89q0 -100 -68.5 -168t-179.5 -68z" />
    <glyph glyph-name="eight" unicode="8" horiz-adv-x="1339" 
d="M590 -20q-256 0 -392.5 85t-136.5 235q0 120 68.5 228.5t204 177t336.5 68.5q257 0 393.5 -82t136.5 -232q0 -120 -68.5 -230t-204.5 -180t-337 -70zM529 5q42 0 79.5 42.5t69 111t54 148t35 156t12.5 132.5q0 44 -5 81t-20 59t-44 22q-42 0 -79.5 -41.5t-68.5 -110
t-54 -148t-35.5 -155.5t-12.5 -132q0 -44 5 -82t20 -60.5t44 -22.5zM710 766q-121 0 -228.5 37.5t-174.5 102t-67 144.5q0 90 49.5 174t137 151t201.5 106t242 39q151 0 256 -49.5t159.5 -125.5t54.5 -156q0 -97 -57.5 -175t-151.5 -134t-204.5 -85t-216.5 -29zM704 783
q35 0 67.5 41.5t59.5 110t47 148t31 155.5t11 132q0 14 -2.5 44t-14 55.5t-37.5 25.5q-23 0 -51 -42.5t-55 -111t-50 -148t-36.5 -156t-13.5 -132.5q0 -24 2.5 -52.5t11.5 -49t30 -20.5z" />
    <glyph glyph-name="nine" unicode="9" horiz-adv-x="1319" 
d="M159 -20v23q148 0 267 56t210 153.5t156.5 223t107.5 264t62 278.5t20 265l1 97q0 44 -8 79t-25 55.5t-43 20.5q-42 0 -80.5 -58t-71 -150.5t-56.5 -197.5t-37 -200.5t-13 -158.5q0 -80 13.5 -114.5t49.5 -34.5q65 0 112 58t78 150.5t48.5 196.5t25 198.5t7.5 155.5h26
q0 -48 -4.5 -127t-17 -173t-37.5 -187t-66 -170.5t-101.5 -125t-144.5 -47.5q-76 0 -151.5 22t-138.5 68.5t-100.5 120.5t-37.5 179q0 143 62 257t165 195.5t229.5 124.5t254.5 43q131 0 237 -48t168.5 -149.5t62.5 -261.5q0 -152 -61.5 -306t-173.5 -293t-265.5 -247.5
t-338.5 -171.5t-391 -63z" />
    <glyph glyph-name="colon" unicode=":" horiz-adv-x="635" 
d="M457 820q-66 0 -120.5 33t-87 87.5t-32.5 120.5t32.5 120t87 86.5t120.5 32.5t121 -32.5t87.5 -86.5t32.5 -120t-32.5 -120.5t-87.5 -87.5t-121 -33zM259 -20q-66 0 -120.5 33t-87 87.5t-32.5 120.5t32.5 120t87 86.5t120.5 32.5t121 -32.5t87.5 -86.5t32.5 -120
t-32.5 -120.5t-87.5 -87.5t-121 -33z" />
    <glyph glyph-name="semicolon" unicode=";" horiz-adv-x="695" 
d="M445 820q-66 0 -120.5 33t-87 87.5t-32.5 120.5t32.5 120t87 86.5t120.5 32.5t121 -32.5t87.5 -86.5t32.5 -120t-32.5 -120.5t-87.5 -87.5t-121 -33zM-134 -312v25q109 0 220 28.5t204.5 86.5t151 146.5t57.5 207.5h23q0 -70 -41.5 -114.5t-101 -66t-113.5 -21.5
q-117 0 -186 67t-69 165q0 63 35 119t93 90.5t126 34.5q69 0 128 -34t95 -95.5t36 -144.5q0 -124 -58 -216.5t-154.5 -154t-213 -92.5t-232.5 -31z" />
    <glyph glyph-name="less" unicode="&#x3c;" horiz-adv-x="1119" 
d="M120 765v27l880 416v-27zM1000 343l-880 415v27l880 -416v-26z" />
    <glyph glyph-name="equal" unicode="=" horiz-adv-x="1119" 
d="M204 909v24h880v-24h-880zM204 608v24h880v-24h-880z" />
    <glyph glyph-name="greater" unicode="&#x3e;" horiz-adv-x="1119" 
d="M734 638l-614 318l266 125l614 -319zM386 469l-266 125l614 317l266 -123z" />
    <glyph glyph-name="question" unicode="?" horiz-adv-x="1240" 
d="M570 558l40 193q107 31 172.5 112t95.5 190t30 227q0 64 -14.5 111t-48.5 72.5t-93 25.5q-67 0 -141.5 -28t-139 -78t-105.5 -114.5t-41 -136.5h-23q0 50 29 92.5t75 68.5t98 26q53 0 99.5 -27t75.5 -72t29 -100q0 -60 -30.5 -105t-78 -70.5t-95.5 -25.5q-54 0 -100.5 28
t-75 76t-28.5 109q0 69 39.5 137.5t110.5 125.5t166 91t206 34q83 0 172 -18t165.5 -57t123.5 -102t47 -153q0 -105 -45 -180.5t-120 -126.5t-167.5 -82.5t-188 -47t-180.5 -21.5l-34 -174h-25zM618 -20q-66 0 -120.5 33t-87 87.5t-32.5 120.5t32.5 120t87 86.5t120.5 32.5
t121 -32.5t87.5 -86.5t32.5 -120t-32.5 -120.5t-87.5 -87.5t-121 -33z" />
    <glyph glyph-name="at" unicode="@" horiz-adv-x="2019" 
d="M838 -428q-137 0 -267 45t-234.5 144.5t-166 262.5t-61.5 398q0 188 53.5 360.5t151 317.5t230 253t291.5 167.5t335 59.5q190 0 329.5 -69t230.5 -183t135.5 -251.5t44.5 -274.5q0 -127 -35.5 -246.5t-108 -214t-183 -149.5t-261.5 -55q-112 0 -174.5 26t-88.5 68.5
t-27.5 92.5t8.5 96l144 620h420l-150 -641q-6 -29 -12 -57.5t-8.5 -53.5t1.5 -44t17 -30t38 -11q68 0 138 43.5t128 123t93.5 189.5t35.5 243q0 134 -42.5 267t-130 243t-222.5 176.5t-321 66.5q-170 0 -324.5 -58t-284 -163.5t-225 -247.5t-148 -311t-52.5 -353
q0 -231 59.5 -389.5t160 -254.5t226 -138.5t257.5 -42.5q160 0 290 32t235 96.5t190 162.5l17 -16q-126 -147 -306.5 -223.5t-425.5 -76.5zM714 141q-91 0 -160 36.5t-107.5 107.5t-38.5 175q0 113 36.5 219.5t100 192t147.5 136.5t180 51q74 0 119.5 -28t70 -75t33 -105.5
t8.5 -120.5q0 -121 -24 -228t-73 -188t-121.5 -127t-170.5 -46zM928 284q23 0 49 31.5t49 87t37.5 129.5t14.5 159q0 32 -1.5 70.5t-6 74t-14.5 58t-28 22.5q-24 0 -55 -31.5t-59 -88.5t-46 -135t-18 -171q0 -67 9.5 -113t27 -69.5t41.5 -23.5z" />
    <glyph glyph-name="A" unicode="A" 
d="M66 0l882 1529h222l189 -1529h-449l-123 1200l-693 -1200h-28zM-100 0v25h440v-25h-440zM680 0v25h820v-25h-820zM369 477v25h651v-25h-651z" />
    <glyph glyph-name="B" unicode="B" horiz-adv-x="1479" 
d="M-100 0v25h186l338 1450h-174v25h680q271 0 415.5 -75t144.5 -255q0 -93 -51.5 -163.5t-137 -119.5t-192 -77.5t-216.5 -37.5q127 -7 238 -40.5t180 -104t69 -188.5q0 -112 -63.5 -195t-170.5 -137t-238.5 -80.5t-266.5 -26.5h-741zM516 25h125q53 0 103 35t89.5 100.5
t63 156.5t23.5 203q0 89 -19 141t-56 74t-93 22h-120l6 26h141q57 0 106.5 39t86.5 107.5t57.5 156t20.5 184.5q0 59 -13.5 105.5t-42 73t-74.5 26.5h-66z" />
    <glyph glyph-name="C" unicode="C" horiz-adv-x="1455" 
d="M710 -20q-183 0 -320.5 64.5t-213.5 183.5t-76 282q0 205 70 387.5t195 322.5t290 220t355 80q138 0 234.5 -63t154 -174t81.5 -254h-15q-27 127 -70.5 213t-96 138.5t-106.5 75t-102 22.5q-92 0 -168.5 -57.5t-137.5 -154t-107 -216t-76.5 -247t-45.5 -245t-15 -208.5
q0 -92 13 -167.5t61 -120t152 -44.5t205 60.5t197.5 163t186.5 229.5h15q-80 -123 -178.5 -235.5t-218.5 -184t-263 -71.5zM1248 0l-181 131q55 43 110 100t111 132l67 108h25l-110 -471h-22zM1465 1029l-18 109q-24 73 -50.5 124.5t-66.5 97.5l244 140h22l-106 -471h-25z
" />
    <glyph glyph-name="D" unicode="D" 
d="M-80 0v25h730q92 0 167 58t134.5 155.5t102.5 217.5t71.5 244.5t42.5 236.5t14 193q0 69 -7 131.5t-28.5 110.5t-63.5 75.5t-112 27.5h-731v25h789q163 0 302.5 -57t224.5 -178.5t85 -314.5q0 -182 -65.5 -352t-185.5 -305t-287.5 -214t-372.5 -79h-810zM100 0l339 1500
h431l-341 -1500h-429z" />
    <glyph glyph-name="E" unicode="E" horiz-adv-x="1327" 
d="M70 0l348 1500h430l-348 -1500h-430zM-100 0v25h730q137 0 251 53.5t201.5 149t146.5 222.5h25l-104 -450h-1250zM939 496q-15 67 -45.5 128.5t-75.5 100t-102 38.5h-122v25h122q57 0 121.5 36.5t124.5 95.5t105 126h25l-128 -550h-25zM1357 1090q-5 107 -50.5 194.5
t-128 139t-199.5 51.5h-741v25h1240l-96 -410h-25z" />
    <glyph glyph-name="F" unicode="F" horiz-adv-x="1267" 
d="M70 0l348 1500h430l-348 -1500h-430zM-100 0v25h800v-25h-800zM911 456q-15 67 -44 131t-75.5 105t-113.5 41h-71v26h71q66 0 133.5 38.5t127 99.5t102.5 128h25l-130 -569h-25zM1317 1090q-5 107 -45.5 194.5t-118.5 139t-195 51.5h-720v25h1200l-96 -410h-25z" />
    <glyph glyph-name="G" unicode="G" horiz-adv-x="1665" 
d="M710 -20q-173 0 -311 56t-218.5 173.5t-80.5 300.5q0 176 53.5 330t147.5 279t217.5 214.5t264.5 138t287 48.5q139 0 242.5 -63t166 -174t80.5 -254h-16q-17 107 -55 189.5t-91 140t-115.5 87t-131.5 29.5q-117 0 -213 -72.5t-170 -192.5t-124.5 -264t-76.5 -289
t-26 -266q0 -102 15 -190t54.5 -142t113.5 -54q40 0 74.5 20.5t65 55.5t58 79t54.5 90l82 316h448l-62 -236q-33 -47 -105.5 -107t-172 -115.5t-216.5 -91.5t-239 -36zM840 557v25h740v-25h-740zM1546 1029l-17 96q-18 60 -54 133.5t-86 127.5l265 114h22l-108 -471h-22z
" />
    <glyph glyph-name="H" unicode="H" horiz-adv-x="1669" 
d="M446 727v25h720v-25h-720zM1000 1475h-156l-328 -1450h154v-25h-760v25h176l328 1450h-174v25h760v-25zM1859 1500v-25h-175l-328 -1450h173v-25h-759v25h156l328 1450h-154v25h759z" />
    <glyph glyph-name="I" unicode="I" horiz-adv-x="929" 
d="M130 0l341 1500h429l-339 -1500h-431zM-90 0v25h880v-25h-880zM240 1475v25h880v-25h-880z" />
    <glyph glyph-name="J" unicode="J" horiz-adv-x="1251" 
d="M338 -61q-112 0 -203 37.5t-145 108t-54 170.5q0 72 34.5 127.5t89 86.5t115.5 31q55 0 110 -28.5t91.5 -80.5t36.5 -123q0 -63 -34.5 -114t-89 -81t-114.5 -30q-59 0 -113.5 30t-89 78.5t-34.5 103.5h23q1 -72 31 -125t77.5 -87t103 -51t105.5 -17q57 0 108.5 46t94 136
t73.5 223l260 1120h428l-260 -1160q-56 -87 -127.5 -160t-154 -127t-174 -84t-188.5 -30zM544 1475v25h898v-25h-898z" />
    <glyph glyph-name="K" unicode="K" horiz-adv-x="1693" 
d="M309 434l1277 1062h38l-1276 -1062h-39zM-90 0v25h760v-25h-760zM764 0v25h812v-25h-812zM80 0l340 1500h430l-340 -1500h-430zM941 0l-255 744l366 298l368 -1042h-479zM240 1475v25h800v-25h-800zM1334 1475v25h480v-25h-480z" />
    <glyph glyph-name="L" unicode="L" horiz-adv-x="1313" 
d="M70 0l348 1500h430l-348 -1500h-430zM-100 0v25h690q157 0 279 53.5t211.5 149t148.5 222.5h25l-104 -450h-1250zM238 1475v25h789v-25h-789z" />
    <glyph glyph-name="M" unicode="M" horiz-adv-x="1919" 
d="M642 -20l-236 1520h432l149 -908l505 908h27l-845 -1520h-32zM-61 0v25h325v-25h-325zM71 0l319 1475h-150v25h179l-322 -1500h-26zM1050 0v25h730v-25h-730zM1190 0l320 1500h550v-25h-122l-318 -1475h-430z" />
    <glyph glyph-name="N" unicode="N" horiz-adv-x="1549" 
d="M1134 -20l-684 1520h510l368 -782l178 782h26l-346 -1520h-52zM-80 0v25h442v-25h-442zM109 0l330 1475h-199v25h229l-334 -1500h-26zM1266 1475v25h484v-25h-484z" />
    <glyph glyph-name="O" unicode="O" horiz-adv-x="1579" 
d="M670 -20q-274 0 -422 143t-148 387q0 188 53 345.5t144.5 280.5t208.5 209t246.5 130.5t257.5 44.5q173 0 301 -64.5t198.5 -183.5t70.5 -282q0 -235 -78.5 -421.5t-209.5 -318t-293 -201t-329 -69.5zM670 3q67 0 129 58t117 157t99.5 225t77 263.5t50 272.5t17.5 251
q0 67 -8.5 117t-26.5 83t-46.5 50t-68.5 17q-62 0 -122 -58t-115 -157t-101 -224.5t-80 -263.5t-53 -273t-19 -251q0 -109 15 -166.5t48 -79t87 -21.5z" />
    <glyph glyph-name="P" unicode="P" horiz-adv-x="1469" 
d="M545 663l6 24h199q87 0 148.5 57t100.5 145.5t57 186t18 179.5q0 44 -6.5 84t-21 70.5t-38 48t-58.5 17.5h-106l-338 -1450h194v-25h-790v25h166l338 1450h-174v25h810q131 0 240 -31t174 -102.5t65 -191.5q0 -150 -86 -265.5t-239 -181t-354 -65.5h-305z" />
    <glyph glyph-name="Q" unicode="Q" horiz-adv-x="1519" 
d="M670 -20q-274 0 -422 143t-148 387q0 188 53 345.5t144.5 280.5t208.5 209t246.5 130.5t257.5 44.5q173 0 301 -64.5t198.5 -183.5t70.5 -282q0 -235 -78.5 -421.5t-209.5 -318t-293 -201t-329 -69.5zM1061 -500q-253 0 -408 57.5t-209.5 173t-4.5 288.5q114 -32 232 -31
t239 31q-37 -136 -43 -231t15 -152.5t67 -84t112 -26.5v-25zM670 3q67 0 129 58t117 157t99.5 224.5t77 263.5t50 273t17.5 251q0 62 -8.5 111t-26.5 84t-46.5 53.5t-68.5 18.5q-62 0 -122 -58t-115 -157t-101 -224.5t-80 -263.5t-53 -273t-19 -251q0 -102 15 -160.5
t48 -82.5t87 -24z" />
    <glyph glyph-name="R" unicode="R" 
d="M109 0l351 1500h431l-351 -1500h-431zM-70 0v25h830v-25h-830zM1189 -20q-121 0 -185 32.5t-87.5 88.5t-21 125t16.5 143t23.5 143t0.5 124.5t-51.5 88t-134.5 32.5h-90v14h231q168 0 263.5 -40t138 -107t49.5 -147t-3.5 -159.5t-21.5 -146.5t-4 -107.5t51 -40.5
q21 0 46.5 7t51.5 17l9 -24q-54 -20 -126 -31.5t-156 -11.5zM660 767v16h110q88 0 150 35.5t103 93t64.5 125t33 131.5t9.5 111q0 37 -9 72.5t-31 63t-61 44t-99 16.5h-670v25h810q131 0 242.5 -29t180 -95t68.5 -176q0 -140 -89 -236.5t-245 -146.5t-357 -50h-210z" />
    <glyph glyph-name="S" unicode="S" horiz-adv-x="1261" 
d="M557 -29q-117 0 -202 49.5t-143 130t-95.5 175t-60.5 184.5h25q20 -77 54 -165t86.5 -166t130 -128t184.5 -50q96 0 163 33.5t102 92.5t35 135q0 78 -34 129.5t-90.5 87t-123.5 65.5t-134 64t-123.5 82.5t-90.5 120.5t-34 179q0 128 52 226.5t136.5 166t185.5 102.5
t199 35q128 0 217.5 -68t145.5 -180t86 -243h-25q-31 125 -82 229.5t-130 167.5t-191 63q-66 0 -124 -25.5t-94 -72.5t-36 -113q0 -61 34.5 -104.5t91.5 -78.5t125.5 -68t137 -72t125.5 -92t91.5 -126.5t34.5 -175.5q0 -105 -47 -209.5t-132 -190.5t-200 -138t-250 -52z
M-60 -20l116 530h25l27 -118q30 -88 66 -161.5t86 -132.5l-298 -118h-22zM1203 1029l-18 95q-28 78 -58.5 145t-90.5 142l284 109h22l-114 -491h-25z" />
    <glyph glyph-name="T" unicode="T" horiz-adv-x="1463" 
d="M396 0l348 1500h430l-348 -1500h-430zM196 0v25h870v-25h-870zM141 990l113 510h1410l-114 -510h-25q-1 127 -36 237.5t-101.5 179t-163.5 68.5h-550q-73 0 -144.5 -40t-138 -108t-124.5 -155t-102 -182h-24z" />
    <glyph glyph-name="U" unicode="U" horiz-adv-x="1483" 
d="M664 -29q-163 0 -285 54t-177.5 162.5t-17.5 272.5l240 1040h430l-241 -1020q-22 -94 -30 -176.5t7 -145t60.5 -98t130.5 -35.5q98 0 189.5 46t161.5 142t105 247l240 1040h24l-240 -1040q-36 -157 -116 -266.5t-201.5 -166t-279.5 -56.5zM234 1475v25h810v-25h-810z
M1273 1475v25h401v-25h-401z" />
    <glyph glyph-name="V" unicode="V" 
d="M561 -9l-191 1509h450l123 -1182l689 1182h29l-879 -1509h-221zM230 1475v25h820v-25h-820zM1391 1475v25h449v-25h-449z" />
    <glyph glyph-name="W" unicode="W" horiz-adv-x="2465" 
d="M1423 -20l-282 1520h440l205 -1099l678 1099h27l-936 -1520h-132zM656 -20l-282 1520h504l195 -1100l334 554h27l-586 -974h-192zM230 1475v25h1960v-25h-1960zM1544 834l410 666h27l-410 -666h-27zM2266 1475v25h400v-25h-400z" />
    <glyph glyph-name="X" unicode="X" horiz-adv-x="1669" 
d="M952 0l-513 1500h463l520 -1500h-470zM-109 0v25h479v-25h-479zM84 0l793 834h32l-792 -834h-33zM760 0v25h800v-25h-800zM300 1475v25h800v-25h-800zM890 754l673 742h31l-669 -742h-35zM1340 1475v25h439v-25h-439z" />
    <glyph glyph-name="Y" unicode="Y" horiz-adv-x="1559" 
d="M460 0l170 754l-260 746h472l219 -686l521 682h32l-560 -728l-163 -768h-431zM279 0v25h811v-25h-811zM230 1475v25h812v-25h-812zM1340 1475v25h420v-25h-420z" />
    <glyph glyph-name="Z" unicode="Z" horiz-adv-x="1327" 
d="M-109 0v25l1037 1450h-190q-137 0 -236 -49t-173.5 -134t-139.5 -192h-25l94 400h1200v-25l-1038 -1450h250q137 0 232 51t170.5 144t154.5 219h25l-102 -439h-1259z" />
    <glyph glyph-name="bracketleft" unicode="[" horiz-adv-x="809" 
d="M-20 -300l420 1861h620v-26h-247l-406 -1810h233v-25h-620z" />
    <glyph glyph-name="backslash" unicode="\" horiz-adv-x="1039" 
d="M793 -300l-434 1861h27l434 -1861h-27z" />
    <glyph glyph-name="bracketright" unicode="]" horiz-adv-x="789" 
d="M-192 -301v26h247l406 1810h-233v25h620l-420 -1861h-620z" />
    <glyph glyph-name="asciicircum" unicode="^" horiz-adv-x="1089" 
d="M449 1231l-29 29l340 280h131l218 -280l-27 -27l-266 212z" />
    <glyph glyph-name="underscore" unicode="_" horiz-adv-x="1119" 
d="M-10 -312v24h1140v-24h-1140z" />
    <glyph glyph-name="grave" unicode="`" horiz-adv-x="1000" 
d="M1037 1677l-283 41q-80 12 -124.5 61.5t-51.5 111.5t26 110q20 29 58.5 46t84.5 15.5t89.5 -26.5t72.5 -80l139 -264z" />
    <glyph glyph-name="a" unicode="a" horiz-adv-x="1167" 
d="M300 -20q-143 0 -205 89.5t-62 235.5q0 115 42.5 227.5t115 204.5t163 147.5t186.5 55.5q53 0 90.5 -24t57.5 -69.5t20 -109.5q0 -31 -10.5 -98.5t-32 -153t-54.5 -174t-78 -163.5t-103 -121.5t-130 -46.5zM442 89q25 0 58 46t65.5 121.5t60.5 164t45 174.5t17 154
q0 26 -5 43.5t-13.5 26.5t-19.5 9q-28 0 -61.5 -47.5t-66.5 -124t-60.5 -165t-44.5 -174t-17 -148.5q0 -34 9.5 -57t32.5 -23zM789 -20q-109 0 -159 47.5t-50 128.5q0 23 2 38.5t4 25.5l32 150l50 163l25 145l59 242h369l-219 -825q-4 -15 -4 -29q0 -8 4.5 -13t12.5 -5
q13 0 44.5 18.5t78 78.5t104.5 185l25 -8q-53 -111 -107 -187t-119.5 -115.5t-151.5 -39.5z" />
    <glyph glyph-name="b" unicode="b" horiz-adv-x="1090" 
d="M461 -20q-81 0 -163.5 30.5t-155 88.5t-122.5 141l332 1235h-148v25h513l-381 -1419q1 -22 9 -45t27 -23q34 0 74 54t80 141.5t73.5 188.5t53.5 196.5t20 164.5q0 43 -11 68.5t-34 25.5q-35 0 -66 -49.5t-58.5 -126t-51 -161t-42.5 -155.5h-22q38 133 70 239.5t70.5 182
t94.5 116t143 40.5q146 0 212.5 -88t66.5 -235q0 -117 -46 -230t-127 -204.5t-186.5 -146t-224.5 -54.5z" />
    <glyph glyph-name="c" unicode="c" horiz-adv-x="1035" 
d="M397 -20q-171 0 -264 79t-93 222q0 117 52 233.5t143.5 213t211.5 154.5t256 58q97 0 172 -33.5t117.5 -90.5t42.5 -126q0 -83 -56 -138.5t-137 -55.5q-75 0 -132 41t-57 123q0 79 54.5 129t133.5 50q42 0 86.5 -18.5t75 -52t30.5 -78.5h-20q0 62 -36.5 109t-88.5 73.5
t-99 26.5q-78 0 -141.5 -57.5t-112 -151t-81 -199.5t-49.5 -204.5t-17 -166.5q0 -54 25.5 -76.5t64.5 -22.5q80 0 155 37.5t140.5 95.5t114.5 120l21 -15q-54 -65 -125 -129.5t-166 -107t-221 -42.5z" />
    <glyph glyph-name="d" unicode="d" horiz-adv-x="1227" 
d="M789 -20q-109 0 -159 47.5t-50 128.5q0 18 1.5 34t4.5 30l32 150l56 163l13 121l221 821h-148v25h514l-372 -1405q-4 -16 -4 -29q0 -7 3.5 -12.5t13.5 -5.5q15 0 45.5 18.5t77 78.5t104.5 185l25 -8q-53 -111 -107 -187t-119.5 -115.5t-151.5 -39.5zM301 -20
q-144 0 -206 89.5t-62 235.5q0 115 42.5 227.5t115 204.5t163 147.5t186.5 55.5q53 0 90.5 -24t57.5 -69.5t20 -109.5q0 -30 -10.5 -97t-31.5 -153t-54 -174.5t-78.5 -164t-103.5 -122t-129 -46.5zM442 89q25 0 58 46t65.5 121.5t60.5 164t45 175t17 153.5q0 25 -5 43
t-13.5 27t-19.5 9q-28 0 -61.5 -47.5t-66.5 -124t-60.5 -165t-44.5 -174t-17 -148.5q0 -34 10 -57t32 -23z" />
    <glyph glyph-name="e" unicode="e" horiz-adv-x="1063" 
d="M397 -20q-121 0 -200 44.5t-118 117.5t-39 158q0 131 50 247t137.5 204.5t201.5 138.5t242 50q176 0 274 -70.5t98 -171.5q0 -64 -35 -119t-110.5 -97.5t-197 -69.5t-295.5 -35v17q56 3 108.5 47.5t96 110.5t76.5 136t51.5 125t18.5 75q0 13 -4.5 20t-18.5 7
q-32 0 -70.5 -45t-77 -120.5t-74 -165.5t-63.5 -183t-44 -174t-16 -134q0 -44 21.5 -60.5t61.5 -16.5q59 0 131 29t146 86t140 143l21 -15q-54 -65 -125 -129.5t-165.5 -107t-221.5 -42.5z" />
    <glyph glyph-name="f" unicode="f" horiz-adv-x="917" 
d="M-85 -520q-108 0 -185.5 34t-119.5 89.5t-42 119.5q0 92 62.5 150.5t141.5 58.5q90 0 147 -57.5t57 -141.5q0 -56 -30 -101.5t-78 -72.5t-103 -27q-49 0 -94 28.5t-73 72.5t-28 90h23q0 -55 33.5 -102.5t91.5 -76.5t132 -29q75 0 120 48t72 131t48 188.5t48 220.5
l210 920q30 128 75.5 221.5t110 155t152.5 91t204 29.5q109 0 186.5 -34t119 -89t41.5 -120q0 -88 -60.5 -148.5t-143.5 -60.5q-82 0 -143 57t-61 142q0 58 29.5 103t78.5 71.5t105 26.5q35 0 69 -16.5t62 -44.5t45 -61.5t17 -68.5h-23q0 54 -33.5 102t-91.5 77t-132 29
q-75 0 -119 -48t-69.5 -130.5t-45 -188.5t-46.5 -221l-210 -920q-29 -128 -75 -221.5t-112 -154.5t-156 -91t-207 -30zM133 895v25h811v-25h-811z" />
    <glyph glyph-name="g" unicode="g" horiz-adv-x="1270" 
d="M280 -520q-123 0 -225.5 21.5t-163.5 69.5t-61 128q0 38 23.5 73.5t69.5 63t112.5 43.5t153.5 16h15q-21 -13 -46 -42.5t-43.5 -71.5t-18.5 -91q0 -95 71 -135t204 -40q72 0 150.5 20.5t146 56t109.5 82t42 98.5q0 50 -27.5 80t-91.5 30h-60.5h-96h-106h-92h-52.5
q-90 0 -169.5 26t-128.5 75t-49 119q0 64 41 110.5t107 76.5t144 44.5t153 14.5l-1 -15q-103 0 -154 -26.5t-51 -55.5q0 -22 19 -33.5t57 -15t93 -3.5q35 0 85.5 0.5t99.5 1t77 0.5q135 0 220 -70.5t85 -214.5q0 -109 -56 -191t-149 -136.5t-206.5 -81.5t-229.5 -27z
M498 320q-116 0 -207 33t-143.5 94t-52.5 146q0 96 69 174.5t183.5 125t250.5 46.5q116 0 207 -35t143.5 -98.5t52.5 -148.5q0 -95 -69 -171.5t-183 -121t-251 -44.5zM467 347q17 0 40.5 44t47.5 113t45 143.5t33.5 137t12.5 91.5q0 15 -3 26.5t-14 11.5q-17 0 -40.5 -44.5
t-47.5 -113t-45 -143t-33.5 -136.5t-12.5 -91q0 -16 3.5 -27.5t13.5 -11.5zM1136 930q89 0 148 -55.5t59 -135.5q0 -71 -41 -120.5t-118 -49.5q-62 0 -105 43t-43 109q0 62 46.5 101t108.5 40q31 0 59 -17.5t37 -48.5q-11 47 -53.5 78.5t-101.5 31.5q-57 0 -106 -22
t-90 -67.5t-76 -116.5l-18 9q53 111 125 166t169 55z" />
    <glyph glyph-name="h" unicode="h" horiz-adv-x="1236" 
d="M0 0l395 1475h-146v25h516l-400 -1500h-365zM790 -20q-96 0 -145 52.5t-49 131.5q0 23 6 54t13 56l104 370q22 78 29 118.5t2.5 54.5t-15.5 14q-16 0 -52 -40t-80 -114.5t-88.5 -178.5t-79.5 -232h-16q25 91 59.5 186t79 182t97 156t112.5 109t127 40q80 0 130.5 -37.5
t66.5 -105t-10 -157.5l-144 -501q-2 -7 -4.5 -19.5t-2.5 -20.5q0 -30 20 -30q37 0 96.5 66.5t118.5 195.5l24 -8q-55 -126 -118 -201t-133 -108t-148 -33z" />
    <glyph glyph-name="i" unicode="i" horiz-adv-x="705" 
d="M273 -20q-116 0 -164 41t-48 111q0 38 8 70t12 49l169 644h-135v25h499l-218 -820q-2 -9 -3.5 -17.5t-1.5 -16.5q0 -9 4 -13.5t12 -4.5q14 0 45 18.5t78 78.5t104 185l25 -8q-52 -111 -106.5 -187t-122 -115.5t-157.5 -39.5zM515 1079q-63 0 -112.5 31t-78 81.5
t-28.5 108.5t28.5 108t78 81t112.5 31t113 -31t79 -81t29 -108t-29 -108.5t-79 -81.5t-113 -31z" />
    <glyph glyph-name="j" unicode="j" horiz-adv-x="658" 
d="M-209 -520q-106 0 -174 39.5t-100 96t-32 107.5q0 61 28 108t75.5 74t103.5 27q85 0 143 -54t58 -144q0 -68 -56 -123.5t-144 -55.5q-81 0 -143.5 46.5t-62.5 121.5h23q0 -54 35 -104t97.5 -83t147.5 -33q70 0 115 51.5t76 143.5t61 215l242 982h-123v25h492l-242 -943
q-33 -129 -102.5 -223t-158.5 -154.5t-182.5 -90t-176.5 -29.5zM551 1079q-94 0 -157 63.5t-63 157.5q0 95 63 157.5t157 62.5q95 0 157 -62.5t62 -157.5q0 -94 -62 -157.5t-157 -63.5z" />
    <glyph glyph-name="k" unicode="k" horiz-adv-x="1166" 
d="M0 0l396 1475h-186v25h555l-412 -1500h-353zM712 -20q-67 0 -120 30t-53 97q0 26 7.5 57t15.5 56l29 89q16 46 31.5 92.5t21.5 85.5t-3.5 62t-42.5 23q-26 0 -52 -23.5t-49.5 -67t-39.5 -101.5h-15q21 75 48 123t63 72t82 24q56 0 115 -24.5t105 -69.5t64.5 -107
t-4.5 -136l-45 -147q-1 -5 -2 -12t-1 -10q0 -15 15 -15q8 0 30 19t56.5 73.5t77.5 159.5l24 -8q-70 -172 -153 -257t-205 -85zM516 458q-11 0 -18.5 2.5t-15.5 8.5l9 24q6 -7 11.5 -9t13.5 -2q26 0 46.5 33.5t41.5 87t47 112.5q45 102 108.5 163t172.5 61q65 0 113 -28.5
t74.5 -72.5t26.5 -91q0 -82 -55 -135.5t-138 -53.5q-88 0 -138.5 51.5t-50.5 138.5q0 75 50 129.5t133 54.5q44 0 90 -23.5t76.5 -65t30.5 -96.5h-23q0 41 -24 79.5t-66.5 64t-99.5 25.5q-95 0 -154 -54.5t-101 -151.5q-28 -63 -51 -121t-48.5 -94.5t-60.5 -36.5z" />
    <glyph glyph-name="l" unicode="l" horiz-adv-x="638" 
d="M251 -20q-115 0 -163 41t-48 111q0 36 7.5 68.5t11.5 50.5l330 1224h-147v25h512l-379 -1401q-2 -8 -4 -15.5t-2 -14.5q0 -21 17 -21q13 0 44.5 18.5t78.5 78.5t105 185l24 -8q-52 -111 -107 -187t-122 -115.5t-158 -39.5z" />
    <glyph glyph-name="m" unicode="m" horiz-adv-x="1689" 
d="M1313 -20q-112 0 -163.5 52.5t-51.5 131.5q0 22 6 53.5t13 56.5l100 342q34 117 42.5 162t-6.5 45q-17 0 -53 -43.5t-79.5 -120t-86 -177.5t-74.5 -216h-13q31 115 77 233.5t106 218t134 160.5t161 61q88 0 129.5 -41.5t46.5 -109.5t-18 -149l-153 -529q-4 -14 -7.5 -30
t-3.5 -26q0 -6 3 -10.5t10 -4.5q13 0 47 19.5t82.5 81.5t103.5 190l24 -8q-54 -126 -109.5 -201t-120 -108t-146.5 -33zM0 0l240 895h-135v25h500l-245 -920h-360zM530 0l165 616q29 119 41 167t-5 48t-54 -44.5t-82.5 -123t-89.5 -180.5t-75 -217h-13q31 112 78 230
t107.5 218.5t133 162.5t154.5 62q80 0 125 -41.5t56 -109.5t-10 -149l-172 -639h-359z" />
    <glyph glyph-name="n" unicode="n" horiz-adv-x="1185" 
d="M786 -20q-96 0 -145 52.5t-49 131.5q0 23 6 54t13 56l104 370q22 78 29 118.5t2.5 54.5t-15.5 14q-16 0 -52 -40t-80 -114.5t-88.5 -178.5t-79.5 -232h-17q25 91 60 186t79 182t97 156t113 109t127 40q80 0 130.5 -37.5t66.5 -105t-10 -157.5l-144 -501q-2 -8 -4.5 -20
t-2.5 -20q0 -17 5 -23.5t15 -6.5q37 0 96.5 66.5t118.5 195.5l24 -8q-55 -126 -118 -201t-133 -108t-148 -33zM0 0l240 895h-138v25h508l-251 -920h-359z" />
    <glyph glyph-name="o" unicode="o" horiz-adv-x="1128" 
d="M417 -20q-174 0 -275.5 72t-101.5 237q0 120 52.5 236t143.5 209.5t209.5 149.5t250.5 56q174 0 280.5 -77.5t106.5 -242.5q0 -116 -50 -229.5t-140 -206.5t-211.5 -148.5t-264.5 -55.5zM413 5q27 0 60.5 45.5t69 121.5t69 169t60 188.5t42 181t15.5 144.5q0 29 -6 44.5
t-23 15.5q-27 0 -60.5 -45.5t-69 -121.5t-69 -169t-60 -188.5t-42 -181t-15.5 -144.5q0 -29 6.5 -44.5t22.5 -15.5z" />
    <glyph glyph-name="p" unicode="p" horiz-adv-x="1132" 
d="M-140 -500l375 1395h-125v25h471l-91 -375l-51 -189l-7 -58l-212 -798h-360zM-280 -500v25h665v-25h-665zM463 92q28 0 61.5 47.5t66.5 124t60.5 165t44.5 174t17 148.5q0 34 -8 57t-31 23q-26 0 -58.5 -46t-66 -121.5t-61.5 -164t-45.5 -175t-17.5 -153.5
q0 -39 10.5 -59t27.5 -20zM573 -20q-53 0 -90.5 24t-57 69.5t-19.5 109.5q0 31 10 97.5t31.5 152.5t54 174.5t78 164t103.5 122t130 46.5q141 0 204 -89.5t63 -235.5q0 -115 -42.5 -227.5t-115 -204.5t-163 -147.5t-186.5 -55.5z" />
    <glyph glyph-name="q" unicode="q" horiz-adv-x="1092" 
d="M388 -500l238 880q13 43 26.5 70.5t24.5 68.5l12 105l76 276l367 40l-387 -1440h-357zM238 -500v25h676v-25h-676zM307 -20q-143 0 -205 89.5t-62 235.5q0 115 42.5 227.5t115 204.5t163 147.5t186.5 55.5q53 0 90.5 -24t57.5 -69.5t20 -109.5q0 -33 -10.5 -101
t-32 -153.5t-54.5 -173.5t-78 -163t-103 -120.5t-130 -45.5zM449 89q26 0 58 46t65 121.5t61 164t45 174.5t17 154q0 26 -5 43.5t-13.5 26.5t-19.5 9q-28 0 -61.5 -47.5t-66.5 -124t-60.5 -165.5t-44.5 -174t-17 -148q0 -34 10 -57t32 -23z" />
    <glyph glyph-name="r" unicode="r" horiz-adv-x="998" 
d="M0 0l233 895h-163v25h518l-230 -920h-358zM409 266q18 77 44.5 168t62.5 180t83 163t105 118t129 44q91 0 153 -54.5t62 -147.5q0 -88 -58 -147.5t-145 -59.5q-82 0 -139 52.5t-57 134.5q0 85 58.5 136.5t140.5 51.5t140 -42.5t58 -125.5l-24 1q0 84 -54 130.5t-137 46.5
q-66 0 -120.5 -44t-99.5 -116t-80.5 -158.5t-62 -173t-44.5 -157.5h-15z" />
    <glyph glyph-name="s" unicode="s" horiz-adv-x="974" 
d="M411 -20q-129 0 -221 32.5t-141 90.5t-49 132q0 76 52.5 130t137.5 54q79 0 131 -47t52 -129q0 -83 -54.5 -126t-129.5 -43q-51 0 -94 22t-68 58.5t-25 80.5h33q0 -70 46.5 -121t123 -78.5t165.5 -27.5q51 0 90.5 25t62.5 63.5t23 79.5q0 51 -29 90.5t-75 72.5t-98 65.5
t-98 68t-75 79.5t-29 102q0 79 51 146t146.5 107.5t228.5 40.5q138 0 218 -35t114 -87.5t34 -104.5q0 -76 -52.5 -120t-117.5 -44q-74 0 -134 48.5t-60 127.5q0 65 47.5 109.5t126.5 44.5q75 0 131.5 -45.5t56.5 -120.5h-29q0 51 -34.5 96t-98.5 73.5t-152 28.5
q-56 0 -93.5 -24t-56.5 -59t-19 -69q0 -52 31.5 -92.5t81 -74.5t105 -67t105 -71t81 -86t31.5 -112q0 -84 -57 -148t-163 -100t-253 -36z" />
    <glyph glyph-name="t" unicode="t" horiz-adv-x="744" 
d="M297 -20q-92 0 -143.5 23t-72.5 59t-21 75q0 31 10 67t18 66l221 850h360l-267 -1005q-3 -11 -6 -24t-3 -27q0 -28 23 -28q10 0 34 9t58 37.5t74.5 88.5t82.5 162l25 -7q-53 -120 -105.5 -196.5t-120 -113t-167.5 -36.5zM64 895v25h740v-25h-740z" />
    <glyph glyph-name="u" unicode="u" horiz-adv-x="1196" 
d="M260 -20q-79 0 -129.5 37.5t-66 105t8.5 159.5l165 613h-123v25h497l-177 -644q-22 -79 -28.5 -119t-2.5 -54t15 -14q17 0 52.5 39.5t80 114t89 178.5t78.5 233h20q-24 -92 -59.5 -187t-80 -182t-98 -156t-114 -109t-127.5 -40zM810 -20q-115 0 -165.5 41.5t-50.5 120.5
q0 19 3 40t7 38l185 700h365l-220 -821q-3 -9 -4.5 -17t-1.5 -15q0 -19 17 -19q13 0 44.5 18.5t78 78.5t104.5 185l24 -8q-51 -111 -106 -187t-122.5 -115.5t-157.5 -39.5z" />
    <glyph glyph-name="v" unicode="v" horiz-adv-x="1153" 
d="M496 -20q-96 0 -176 28.5t-119.5 90.5t-15.5 163l131 548q2 9 4 22t2 20q0 12 -4.5 18.5t-16.5 6.5q-10 0 -30 -10t-48 -38t-61.5 -82.5t-71.5 -143.5l-24 7q26 58 56.5 116.5t71 106.5t93.5 77t125 29q112 0 178.5 -60.5t66.5 -140.5q0 -22 -5 -51t-13 -61l-83 -358
q-25 -114 -32 -165t5 -64.5t41 -13.5q64 0 139 38t148.5 103t135 147.5t98.5 174t37 180.5q0 63 -26 119t-73.5 91t-111.5 35v23q60 0 105 -31.5t69 -82.5t24 -111q0 -86 -56.5 -143.5t-141.5 -57.5q-97 0 -154.5 58.5t-57.5 155.5q0 91 59.5 152.5t152.5 61.5
q78 0 130.5 -40t79 -102t26.5 -128q0 -91 -38.5 -187.5t-104.5 -186t-150.5 -160.5t-178 -112.5t-185.5 -41.5z" />
    <glyph glyph-name="w" unicode="w" horiz-adv-x="1706" 
d="M1114 -20q-67 0 -139 24t-131.5 75t-88 132.5t-7.5 196.5l135 512h360l-135 -509q-17 -63 -38.5 -132.5t-31.5 -131t7 -100.5t78 -39q100 0 185.5 48t154 125.5t116.5 168t74 177t26 151.5q0 109 -55.5 171.5t-135.5 63.5v23q60 0 107 -31t74 -79.5t27 -101.5
q0 -103 -65 -158.5t-148 -55.5q-82 0 -144.5 57.5t-62.5 151.5q0 95 63.5 157t148.5 62q95 0 156.5 -69t61.5 -191q0 -66 -26 -156t-76 -184.5t-122 -175.5t-164.5 -131.5t-203.5 -50.5zM342 -20q-90 0 -150.5 33t-80 100t15.5 169l172 504q3 9 7.5 23.5t4.5 27.5
q0 23 -23 23q-19 0 -58.5 -33t-83 -93.5t-75.5 -143.5l-24 8q38 100 98.5 177.5t135.5 121t158 43.5q97 0 157 -43t60 -108q0 -25 -7 -53.5t-14 -49.5l-143 -416q-41 -118 -57.5 -172t14.5 -54q36 0 83 39t96 110.5t92.5 168.5t71.5 212h22q-17 -70 -46 -151t-70 -159.5
t-94 -142.5t-119 -102.5t-143 -38.5z" />
    <glyph glyph-name="x" unicode="x" horiz-adv-x="1226" 
d="M823 -20q-122 0 -195 53.5t-107 162.5q-20 64 -44 149t-50 175t-50.5 170.5t-43.5 134.5q-6 16 -17 32t-38 16q-24 0 -56.5 -25t-65 -68t-56.5 -97l-23 10q57 120 141.5 183t214.5 63q122 0 185.5 -53t97.5 -163q21 -67 45.5 -146t51 -162.5t53.5 -165.5t54 -155
q6 -15 18 -31.5t38 -16.5q22 0 54 24t65 66.5t58 97.5l23 -10q-57 -123 -143.5 -183.5t-209.5 -60.5zM183 -20q-76 0 -128 31.5t-78.5 82.5t-26.5 111q0 92 59.5 149.5t150.5 57.5q93 0 146 -57.5t53 -139.5q0 -53 -26.5 -96.5t-72.5 -70t-103 -26.5q-60 0 -106.5 22.5
t-72.5 64t-26 96.5h23q0 -80 56 -138t161 -58q33 0 63 10.5t58 30.5t52 49q33 38 61.5 85.5t57 109t56.5 143.5l24 -11q-34 -95 -74 -176t-87.5 -142t-102 -94.5t-117.5 -33.5zM693 483l-25 12q42 103 84.5 185.5t87.5 140.5t97.5 88.5t115.5 30.5q75 0 124.5 -28t74 -75
t24.5 -104q0 -91 -55.5 -148t-146.5 -57q-93 0 -145.5 58.5t-52.5 140.5q0 76 55 133.5t138 57.5q57 0 103.5 -25.5t74 -67.5t27.5 -92h-23q0 76 -53.5 128t-156.5 52q-33 0 -63.5 -11t-58.5 -32t-53 -50q-31 -38 -60 -85.5t-57 -109t-56 -142.5z" />
    <glyph glyph-name="y" unicode="y" horiz-adv-x="1358" 
d="M283 -520q-87 0 -151.5 37t-100.5 100t-36 140q0 56 26.5 104.5t72.5 78t104 29.5q45 0 89.5 -22t73.5 -63.5t29 -101.5q0 -84 -54.5 -137t-133.5 -53q-53 0 -100 22.5t-76 60t-29 82.5h24q0 -70 32 -127.5t90 -92t139 -34.5q93 0 193.5 53.5t201.5 144t195.5 203
t175 232.5t141.5 233t95 204.5t34 145.5q0 50 -24 94.5t-68.5 72.5t-107.5 28v23q64 0 113.5 -29t77 -74t27.5 -95q0 -53 -29.5 -95.5t-77.5 -67t-102 -24.5q-90 0 -151.5 54.5t-61.5 139.5q0 83 59.5 138t144.5 55q78 0 128 -32t74 -81.5t24 -103.5q0 -56 -34 -150
t-95.5 -209.5t-143 -238t-177.5 -237.5t-199.5 -207t-208 -146t-203.5 -54zM700 -289q-37 63 -77 157t-80 203t-77.5 220.5t-70.5 211.5t-57.5 176t-38.5 112q-6 16 -19 40t-43 24q-36 0 -87.5 -38.5t-86.5 -134.5l-24 11q33 90 89.5 144t128 78t149.5 24q145 0 210.5 -56.5
t93.5 -151.5q20 -68 46 -160.5t59 -193t72.5 -195.5t86.5 -167q-28 -37 -58.5 -74t-65 -74t-72 -76t-78.5 -80z" />
    <glyph glyph-name="z" unicode="z" horiz-adv-x="1016" 
d="M-80 -1l966 918l41 4l-928 -881zM-64 -20l-16 19q111 92 211 170.5t183.5 125.5t145.5 47q54 0 90.5 -22t67.5 -51t68 -51.5t91 -22.5q51 0 92 23.5t66.5 73.5t25.5 128h23q0 -45 -28.5 -83t-73.5 -61.5t-96 -23.5q-46 0 -85.5 25t-64 65.5t-24.5 89.5q0 75 55 128.5
t130 53.5q49 0 92 -25t70 -69t27 -100q0 -82 -37 -160.5t-99.5 -142t-138 -100.5t-152.5 -37q-57 0 -105 15t-92 34t-88.5 34t-94.5 15q-72 0 -133.5 -25t-109.5 -73zM3 380l134 559q54 -30 120 -47.5t129.5 -25t109.5 -7.5q36 0 93 4t119 12.5t117 24t87 39.5l15 -18
q-81 -60 -167.5 -131.5t-171.5 -135.5t-160.5 -105t-133.5 -41q-66 0 -122 21.5t-95 44.5l-49 -194h-25z" />
    <glyph glyph-name="braceleft" unicode="{" horiz-adv-x="743" 
d="M170 620v40q30 10 75 29t79.5 51.5t34.5 83.5q0 48 -8 79.5t-19 62t-19 71t-8 106.5q0 104 55.5 182t150 130.5t212 79t241.5 26.5v-51q-62 0 -123 -30t-101 -91.5t-40 -154.5q0 -56 7 -99.5t14.5 -88.5t7.5 -105q0 -84 -57 -142.5t-145 -95t-183.5 -56t-173.5 -27.5z
M544 -300q-165 0 -284.5 24.5t-184.5 85.5t-65 170q0 76 26.5 137.5t65 112t77 93t65 81t26.5 76.5q0 62 -27.5 83.5t-72.5 36.5v41q104 -10 199 -31t155 -69t60 -141q0 -75 -28.5 -138.5t-65.5 -120.5t-65.5 -111.5t-28.5 -111.5q0 -43 11 -81.5t43 -62.5t94 -24v-50z" />
    <glyph glyph-name="bar" unicode="|" horiz-adv-x="459" 
d="M20 -500l480 2061h24l-481 -2061h-23z" />
    <glyph glyph-name="braceright" unicode="}" horiz-adv-x="743" 
d="M-80 -301v51q62 0 123 30.5t101 91.5t40 154q0 56 -7 99.5t-14.5 88.5t-7.5 105q0 84 57 142.5t145 95t183.5 56.5t173.5 27v-40q-30 -10 -75 -29t-79.5 -51.5t-34.5 -83.5q0 -48 8 -79.5t19 -62t19 -71t8 -106.5q0 -104 -55.5 -182t-150 -130.5t-212 -79t-241.5 -26.5z
M714 619q-104 10 -199 31t-155 69t-60 141q0 75 28.5 138.5t65.5 120.5t65.5 111.5t28.5 111.5q0 43 -11 81.5t-43 62.5t-94 24v50q165 0 285 -24.5t184.5 -85.5t64.5 -170q0 -76 -26.5 -137.5t-65 -112t-77 -93t-65 -81t-26.5 -76.5q0 -62 27.5 -83.5t72.5 -36.5v-41z" />
    <glyph glyph-name="asciitilde" unicode="~" horiz-adv-x="1375" 
d="M979 626q-77 0 -125.5 19t-82.5 47t-64 56t-69 47t-99 19q-74 0 -115.5 -32.5t-63.5 -95.5h-60q30 115 71 204t105 139.5t163 50.5q66 0 110.5 -19t78 -47t65 -56t70 -46.5t94.5 -18.5q89 0 133 32t66 95h60q-30 -115 -70.5 -204t-104 -139.5t-162.5 -50.5z" />
    <glyph glyph-name="uni00A0" unicode="&#xa0;" horiz-adv-x="500" 
 />
    <glyph glyph-name="exclamdown" unicode="&#xa1;" horiz-adv-x="637" 
d="M36 -476q-97 0 -155.5 61t-58.5 137q0 77 31.5 141t80 124.5t103 124.5t102 140t74.5 172h14q-18 -90 -14 -152.5t20 -110t36 -92t34.5 -98t14.5 -129.5q0 -86 -41.5 -158.5t-106.5 -116t-134 -43.5zM310 580q-66 0 -120.5 32.5t-87 86.5t-32.5 120t32.5 121t87 87.5
t120.5 32.5t120.5 -32.5t87 -87.5t32.5 -121t-32.5 -120t-87 -86.5t-120.5 -32.5z" />
    <glyph glyph-name="cent" unicode="&#xa2;" horiz-adv-x="1035" 
d="M397 -20q-171 0 -264 79t-93 222q0 117 52 233.5t143.5 213t211.5 154.5t256 58q97 0 172 -33.5t117.5 -90.5t42.5 -126q0 -83 -56 -138.5t-137 -55.5q-75 0 -132 41t-57 123q0 79 54.5 129t133.5 50q42 0 86.5 -18.5t75 -52t30.5 -78.5h-20q0 62 -36.5 109t-88.5 73.5
t-99 26.5q-78 0 -141.5 -57.5t-112 -151t-81 -199.5t-49.5 -204.5t-17 -166.5q0 -54 25.5 -76.5t64.5 -22.5q80 0 155 37.5t140.5 95.5t114.5 120l21 -15q-54 -65 -125 -129.5t-166 -107t-221 -42.5zM377 -170l340 1279h15l-340 -1279h-15z" />
    <glyph glyph-name="sterling" unicode="&#xa3;" horiz-adv-x="1305" 
d="M64 -40q-5 83 25 152t77.5 130t96 120t82 122.5t33.5 137.5q0 64 -15.5 128t-31 134.5t-15.5 155.5q0 113 63 201.5t168.5 151t236 95t266.5 32.5q162 0 259.5 -49.5t141 -133t43.5 -185.5q0 -71 -32 -126t-84 -86.5t-112 -31.5q-97 0 -165.5 63.5t-68.5 169.5
q0 65 34 111.5t87.5 72t112.5 25.5q74 0 127.5 -41.5t67.5 -90.5q-13 89 -61 148t-118.5 89t-151.5 30q-74 0 -132 -29.5t-98 -77.5t-61 -105t-21 -113q0 -59 10.5 -98t20.5 -83.5t10 -119.5q0 -90 -41.5 -159t-111 -125.5t-152.5 -107t-165.5 -101.5t-151 -109t-110 -130.5
t-40.5 -166.5h-23zM870 -61q-103 0 -190 18.5t-160 42.5t-132.5 42.5t-107.5 18.5q-72 0 -121 -28t-69 -73h-19q30 86 96.5 170t152.5 153t174.5 110t161.5 41t122.5 -10.5t90 -23.5t85 -23.5t106.5 -10.5q70 0 130.5 13t104.5 53.5t64 122.5h25q-15 -115 -56 -224
t-106.5 -197.5t-153.5 -141.5t-198 -53zM130 785v26h1100v-26h-1100z" />
    <glyph glyph-name="currency" unicode="&#xa4;" horiz-adv-x="1140" 
d="M365 310q-141 0 -229.5 63t-120.5 167.5t-3 229.5t109 229.5t197.5 167t258.5 62.5t229 -62.5t119.5 -167t2.5 -229.5t-108.5 -229.5t-196.5 -167.5t-258 -63zM-122 275l-12 18l212 172l14 -18zM832 275l-132 172l23 18l131 -171zM371 338q133 0 242.5 59.5t183.5 158
t101 214.5t-2 214.5t-111 157.5t-215 59q-132 0 -242 -59t-184.5 -157.5t-102.5 -214.5q-26 -116 3.5 -214.5t112 -158t214.5 -59.5zM218 1074l-133 172l23 19l132 -173zM863 1075l-14 18l212 171l14 -18z" />
    <glyph glyph-name="yen" unicode="&#xa5;" horiz-adv-x="1559" 
d="M460 0l170 754l-260 746h472l219 -686l521 682h32l-560 -728l-163 -768h-431zM279 0v25h811v-25h-811zM334 329v24h880v-24h-880zM334 630v24h880v-24h-880zM230 1475v25h812v-25h-812zM1340 1475v25h420v-25h-420z" />
    <glyph glyph-name="brokenbar" unicode="&#xa6;" horiz-adv-x="439" 
d="M13 -500l192 832h23l-191 -832h-24zM317 818l172 743h24l-172 -743h-24z" />
    <glyph glyph-name="section" unicode="&#xa7;" horiz-adv-x="947" 
d="M350 -20q-88 0 -177.5 27t-150 86t-60.5 155q0 77 53 130.5t143 53.5q75 0 123.5 -38.5t48.5 -107.5q0 -78 -50 -127.5t-124 -49.5q-48 0 -91.5 23.5t-63.5 61.5q16 -69 71.5 -111.5t130 -61t147.5 -18.5q103 0 170.5 30t100.5 74.5t33 85.5q0 50 -37 84t-96 60t-125 52
t-125 59.5t-95.5 82t-36.5 119.5q0 54 28.5 107.5t73.5 99.5t94 78.5t89 44.5h17q-21 -9 -42 -19.5t-35.5 -31.5t-14.5 -61q0 -48 38.5 -82.5t99 -64t128 -60t128 -67.5t99 -88t38.5 -122q0 -78 -44 -150.5t-119.5 -129.5t-170.5 -90.5t-196 -33.5zM688 527l-14 5
q31 22 52 38.5t31 39t10 62.5q0 48 -35.5 76.5t-91.5 49.5t-118.5 43.5t-118.5 56t-92 88t-36 140.5q0 78 42.5 149t112 126t155 87t171.5 32q98 0 173 -34.5t118 -91.5t43 -123q0 -91 -52 -141t-134 -50q-75 0 -121.5 44t-46.5 128q0 63 49 106.5t119 43.5q61 0 94.5 -24
t47.5 -50q-10 41 -45.5 79.5t-97 64t-147.5 25.5q-73 0 -129 -26t-87.5 -70.5t-31.5 -101.5t33.5 -93.5t87 -63t113.5 -51t113.5 -56.5t87.5 -80t34 -121q0 -56 -30.5 -102t-76.5 -83t-95 -67t-87 -55z" />
    <glyph glyph-name="dieresis" unicode="&#xa8;" horiz-adv-x="1000" 
d="M1051 1682q-70 0 -119 49.5t-49 119.5q0 69 49 118t119 49q69 0 118.5 -49t49.5 -118q0 -70 -49.5 -119.5t-118.5 -49.5zM591 1682q-70 0 -119 49.5t-49 119.5q0 69 49 118t119 49q69 0 118.5 -49t49.5 -118q0 -70 -49.5 -119.5t-118.5 -49.5z" />
    <glyph glyph-name="copyright" unicode="&#xa9;" horiz-adv-x="1739" 
d="M840 -20q-193 0 -344.5 77t-238.5 218t-87 334q0 140 49.5 273.5t136.5 248.5t202.5 202.5t248.5 137t273 49.5q193 0 344.5 -77t238.5 -218t87 -334q0 -140 -49.5 -273.5t-136.5 -248.5t-202.5 -202.5t-248.5 -137t-273 -49.5zM1177 300l-108 78q33 26 66 60.5t67 79.5
l40 64h15l-66 -282h-14zM855 288q-165 0 -265.5 85.5t-100.5 232.5q0 123 42 232.5t117 193.5t174 132t213 48q124 0 192 -83t90 -211h-9q-22 101 -60.5 160t-82.5 84t-82 25q-67 0 -119.5 -48.5t-92 -126.5t-66 -169.5t-39.5 -179.5t-13 -153q0 -55 7.5 -100.5t36.5 -72
t91 -26.5q63 0 123.5 36t118.5 97.5t112 137.5h9q-48 -73 -107.5 -140.5t-131.5 -110.5t-157 -43zM840 5q135 0 264.5 48t241.5 133t197.5 197t133.5 242t48 266q0 185 -83.5 320.5t-229.5 209.5t-332 74q-135 0 -264.5 -48t-241.5 -133t-197.5 -197t-133.5 -242t-48 -266
q0 -186 83.5 -321.5t229 -209t332.5 -73.5zM1308 918l-11 65q-15 44 -31 75t-40 58l147 84h13l-63 -282h-15z" />
    <glyph glyph-name="ordfeminine" unicode="&#xaa;" horiz-adv-x="705" 
d="M633 952q-87 0 -124 53.5t-37 141.5q0 69 25.5 136.5t69 123t98 88.5t111.5 33q32 0 54.5 -14.5t34 -41.5t11.5 -66q0 -22 -8.5 -74.5t-27.5 -117t-48 -124.5t-68.5 -99t-90.5 -39zM717 1017q20 0 44.5 42t48.5 106t39.5 131t15.5 117q0 24 -6.5 36t-16.5 12
q-21 0 -47 -43t-49.5 -107.5t-38 -131t-14.5 -114.5q0 -20 5.5 -34t18.5 -14zM925 952q-65 0 -95 28.5t-30 77.5q0 13 1.5 22.5t2.5 15.5l19 90l29 98l16 87l36 145h221l-132 -495q-2 -9 -2 -18q0 -11 9 -11q8 0 27 11.5t47 47.5t64 111l14 -5q-47 -99 -98.5 -152
t-128.5 -53z" />
    <glyph glyph-name="guillemotleft" unicode="&#xab;" horiz-adv-x="1389" 
d="M1270 290l-560 460v50l780 460l13 -13l-341 -472l121 -472zM710 290l-560 460v50l780 460l13 -13l-341 -472l121 -472z" />
    <glyph glyph-name="logicalnot" unicode="&#xac;" horiz-adv-x="971" 
d="M827 406v354h-707v25h732v-379h-25z" />
    <glyph glyph-name="uni00AD" unicode="&#xad;" horiz-adv-x="919" 
d="M166 538v24h480v-24h-480z" />
    <glyph glyph-name="registered" unicode="&#xae;" horiz-adv-x="1739" 
d="M840 -20q-193 0 -344.5 77t-238.5 218t-87 334q0 140 49.5 273.5t136.5 248.5t202.5 202.5t248.5 137t273 49.5q193 0 344.5 -77t238.5 -218t87 -334q0 -140 -49.5 -273.5t-136.5 -248.5t-202.5 -202.5t-248.5 -137t-273 -49.5zM415 296v15h498v-15h-498zM522 296
l211 900h258l-210 -900h-259zM1170 284q-83 0 -122 25t-48.5 67t-3 91.5t16 99.5t8.5 91.5t-26 67t-88 25.5h-54v8h138q118 0 177.5 -32.5t79 -83.5t16 -108.5t-13 -108.5t-8 -83.5t32.5 -32.5q12 0 27.5 4t30.5 10l6 -14q-33 -12 -76 -19t-93 -7zM840 5q135 0 264.5 48
t241.5 133t197.5 197t133.5 242t48 266q0 185 -83.5 320.5t-229.5 209.5t-332 74q-135 0 -264.5 -48t-241.5 -133t-197.5 -197t-133.5 -242t-48 -266q0 -186 83.5 -321.5t229 -209t332.5 -73.5zM853 756v9h66q65 0 107.5 33t66 81.5t33 98.5t9.5 86q0 29 -10 56t-36 44
t-74 17h-402v15h486q78 0 145 -17.5t108 -57t41 -105.5q0 -126 -117 -193t-297 -67h-126z" />
    <glyph glyph-name="macron" unicode="&#xaf;" horiz-adv-x="1000" 
d="M549 1700v25h480v-25h-480z" />
    <glyph glyph-name="degree" unicode="&#xb0;" horiz-adv-x="639" 
d="M628 1120q-66 0 -120 32t-86.5 86.5t-32.5 120.5t32.5 121t86.5 87.5t120 32.5t120.5 -32.5t87 -87.5t32.5 -121t-32.5 -120.5t-87 -86.5t-120.5 -32zM628 1230q56 0 93 37t37 92q0 56 -37 93.5t-93 37.5q-55 0 -92.5 -37.5t-37.5 -93.5q0 -55 37.5 -92t92.5 -37z" />
    <glyph glyph-name="plusminus" unicode="&#xb1;" horiz-adv-x="1059" 
d="M119 9v24h820v-24h-820zM517 361v819h25v-819h-25zM120 760v24h819v-24h-819z" />
    <glyph glyph-name="uni00B2" unicode="&#xb2;" horiz-adv-x="939" 
d="M354 914l40 162l294 181q73 45 122.5 109.5t75.5 136.5t26 137q0 40 -8.5 74.5t-31 55.5t-65.5 21q-41 0 -88 -18.5t-90 -50.5t-70 -75.5t-27 -94.5h-14q0 45 47.5 82.5t99.5 37.5q58 0 96 -31t38 -90q0 -58 -41 -100.5t-104 -42.5q-54 0 -95.5 37.5t-41.5 106.5
q0 71 53.5 133.5t142 101.5t193.5 39q73 0 134.5 -20t99.5 -61t38 -104q0 -61 -45.5 -112.5t-112.5 -95t-135 -78.5t-113 -62l-207 -127h522l21 90h15l-80 -342h-689z" />
    <glyph glyph-name="uni00B3" unicode="&#xb3;" horiz-adv-x="899" 
d="M595 902q-85 0 -144 36.5t-90 90t-31 106.5q0 59 39 98t93 39q50 0 87 -36t37 -91q0 -51 -39.5 -87t-88.5 -36q-48 0 -87.5 34t-39.5 79h14q0 -51 28.5 -100.5t79 -81.5t118.5 -32q58 0 97 29.5t62.5 77t33.5 101.5t10 103q0 44 -8.5 81t-38.5 58.5t-95 21.5v10
q129 0 217 -25t133 -71.5t45 -113.5q0 -74 -38.5 -128.5t-102.5 -90.5t-140 -54t-151 -18zM632 1399v9q64 0 106 29.5t65.5 73.5t33 87.5t9.5 72.5q0 58 -19.5 96.5t-81.5 38.5q-40 0 -95 -18t-96 -56.5t-41 -97.5h-14q0 50 41.5 83t86.5 33q49 0 88.5 -35t39.5 -89
q0 -58 -41.5 -92t-86.5 -34q-50 0 -90 37.5t-40 96.5q0 62 45.5 104.5t111.5 64.5t127 22q67 0 141 -18.5t125.5 -59t51.5 -106.5q0 -60 -59 -115.5t-164.5 -91t-243.5 -35.5z" />
    <glyph glyph-name="acute" unicode="&#xb4;" horiz-adv-x="1000" 
d="M583 1676l-11 16l139 264q28 55 71 80t89 26.5t85 -15.5t60 -46q33 -48 25.5 -110t-52 -111.5t-123.5 -61.5z" />
    <glyph glyph-name="uni00B5" unicode="&#xb5;" horiz-adv-x="1196" 
d="M1172 330l24 -8q-51 -111 -106 -187t-122.5 -115.5t-157.5 -39.5q-115 0 -165.5 41.5t-50.5 120.5q0 20 3 42t8 38l62 225q-34 -88 -78 -171.5t-96.5 -150.5t-111 -106t-121.5 -39q-62 0 -104 24.5t-63 69.5t-19 108l-114 -424q-24 -90 5.5 -144t91.5 -79.5t135 -29.5
q-44 14 -79 60.5t-35 112.5q0 72 52 124t131 52q80 0 131.5 -52t51.5 -132q0 -81 -52 -135.5t-161 -54.5q-64 0 -125.5 14.5t-107 47t-64.5 85.5t2 131l302 1137h-123v25h497l-177 -644q-22 -78 -28.5 -118.5t-2.5 -54.5t15 -14q16 0 49.5 36.5t76 105t85.5 165t78 215.5
l81 309h365l-220 -821q-2 -9 -4 -17t-2 -15q0 -19 17 -19q13 0 44.5 18.5t78 78.5t104.5 185z" />
    <glyph glyph-name="paragraph" unicode="&#xb6;" horiz-adv-x="1434" 
d="M505 -300v25h200l151 654h-155q-90 0 -183.5 21t-172 69t-126.5 129t-48 201q0 161 62.5 290.5t173.5 221t258 140.5t316 49h492v-25h-196l-403 -1750h194v-25h-563zM729 -275h120l403 1750h-119z" />
    <glyph glyph-name="periodcentered" unicode="&#xb7;" horiz-adv-x="395" 
d="M486 680q-66 0 -120.5 33t-87 87.5t-32.5 120.5t32.5 120t87 86.5t120.5 32.5t121 -32.5t87.5 -86.5t32.5 -120t-32.5 -120.5t-87.5 -87.5t-121 -33z" />
    <glyph glyph-name="cedilla" unicode="&#xb8;" horiz-adv-x="1000" 
d="M50 -509v24q84 0 140 37t56 118q0 50 -32 76t-100 26l232 233h38l-153 -154q84 0 158 -11.5t120.5 -42t46.5 -88.5q0 -80 -72 -128t-187.5 -69t-246.5 -21z" />
    <glyph glyph-name="uni00B9" unicode="&#xb9;" horiz-adv-x="1059" 
d="M559 912l200 885h-138v15h400l-204 -900h-258zM430 912v15h522v-15h-522z" />
    <glyph glyph-name="ordmasculine" unicode="&#xba;" horiz-adv-x="1128" 
d="M698 950q-104 0 -165 43t-61 142q0 72 31.5 141.5t86 126t125.5 90t151 33.5q104 0 168 -46.5t64 -145.5q0 -93 -52.5 -181t-142.5 -145.5t-205 -57.5zM696 964q20 0 44.5 39t50 100t47 131t34.5 134.5t13 106.5q0 18 -3.5 27t-13.5 9q-20 0 -44.5 -38.5t-50 -99.5
t-47 -131t-34.5 -134.5t-13 -107.5q0 -17 3.5 -26.5t13.5 -9.5z" />
    <glyph glyph-name="guillemotright" unicode="&#xbb;" horiz-adv-x="1389" 
d="M660 290l-13 13l341 472l-121 472l13 13l560 -460v-50zM100 290l-13 13l341 472l-121 472l13 13l560 -460v-50z" />
    <glyph glyph-name="onequarter" unicode="&#xbc;" horiz-adv-x="1281" 
d="M-34 -200l1283 1500h22l-1282 -1500h-23zM350 1612h400l-201 -885h132v-15h-522v15h133l196 870h-138v15zM1128 694h211l-170 -635h121v-14h-125l-63 -236h98v-15h-462v15h106l58 236h-366zM1033 565l-462 -506h336z" />
    <glyph glyph-name="onehalf" unicode="&#xbd;" horiz-adv-x="1339" 
d="M-34 -200l1283 1500h22l-1282 -1500h-23zM159 712v15h522v-15h-522zM634 -202l40 162l294 181q73 45 122.5 109.5t75.5 136.5t26 137q0 40 -8.5 74.5t-31 55.5t-65.5 21q-41 0 -88 -18.5t-90 -50.5t-70 -75.5t-27 -94.5h-14q0 45 47.5 82.5t99.5 37.5q58 0 96 -31t38 -90
q0 -58 -41 -100.5t-104 -42.5q-54 0 -95.5 37.5t-41.5 106.5q0 71 53.5 133.5t142 101.5t193.5 39q73 0 134.5 -20t99.5 -61t38 -104q0 -61 -45.5 -112.5t-112.5 -95t-135 -78.5t-113 -62l-207 -127h522l21 90h15l-80 -342h-689zM288 712l200 885h-138v15h400l-204 -900
h-258z" />
    <glyph glyph-name="threequarters" unicode="&#xbe;" horiz-adv-x="1401" 
d="M86 -200l1283 1500h24l-1284 -1500h-23zM858 -206v15h462v-15h-462zM960 -206l193 771l-462 -506h719v-14h-754l592 649h211l-241 -900h-258zM435 696q-85 0 -144 36.5t-90 90t-31 106.5q0 59 39 98t93 39q50 0 87 -36t37 -91q0 -51 -39.5 -87t-88.5 -36q-48 0 -87.5 34
t-39.5 79h14q0 -51 28.5 -100.5t79 -81.5t118.5 -32q58 0 97 29.5t62.5 77t33.5 101.5t10 103q0 44 -8.5 80.5t-38.5 58.5t-95 22v10q129 0 217 -25t133 -71.5t45 -113.5q0 -74 -38.5 -128.5t-102.5 -90.5t-140 -54t-151 -18zM472 1193v9q64 0 106 29.5t65.5 73.5t33 87.5
t9.5 72.5q0 58 -19.5 96.5t-81.5 38.5q-40 0 -95 -18t-96 -56.5t-41 -97.5h-14q0 50 41.5 83t86.5 33q49 0 88.5 -35t39.5 -89q0 -58 -41.5 -92t-86.5 -34q-50 0 -90 37.5t-40 96.5q0 62 45.5 104.5t111.5 64.5t127 22q67 0 141 -18.5t125.5 -59t51.5 -106.5
q0 -60 -59 -115.5t-164.5 -91t-243.5 -35.5z" />
    <glyph glyph-name="questiondown" unicode="&#xbf;" horiz-adv-x="1259" 
d="M528 -480q-83 0 -172 18t-165.5 57t-123.5 102t-47 153q0 105 45 180.5t120 126.5t167.5 82.5t188 47t180.5 21.5l34 174h25l-40 -193q-107 -31 -172.5 -111.5t-95.5 -190t-30 -227.5q0 -64 14.5 -111t48.5 -72.5t93 -25.5q67 0 141.5 28.5t139 78t105.5 114t41 136.5h23
q0 -50 -29 -92.5t-75 -68.5t-98 -26q-53 0 -99.5 27t-75.5 72t-29 100q0 60 30.5 105.5t78 70.5t95.5 25q54 0 100.5 -28t75 -76t28.5 -109q0 -69 -39.5 -137.5t-110.5 -125.5t-166 -91t-206 -34zM732 580q-66 0 -120.5 32.5t-87.5 86.5t-33 120t33 120.5t87.5 87.5
t120.5 33t120.5 -33t87 -87.5t32.5 -120.5t-32.5 -120t-87 -86.5t-120.5 -32.5z" />
    <glyph glyph-name="Agrave" unicode="&#xc0;" 
d="M66 0l882 1529h222l189 -1529h-449l-123 1200l-693 -1200h-28zM-100 0v25h440v-25h-440zM680 0v25h820v-25h-820zM369 477v25h651v-25h-651zM1235 1677l-283 41q-80 12 -124.5 61.5t-51.5 111.5t26 110q20 29 58.5 46t84.5 15.5t89.5 -26.5t72.5 -80l139 -264z" />
    <glyph glyph-name="Aacute" unicode="&#xc1;" 
d="M66 0l882 1529h222l189 -1529h-449l-123 1200l-693 -1200h-28zM-100 0v25h440v-25h-440zM680 0v25h820v-25h-820zM369 477v25h651v-25h-651zM957 1676l-11 16l139 264q28 55 71 80t89 26.5t85 -15.5t60 -46q33 -48 25.5 -110t-52 -111.5t-123.5 -61.5z" />
    <glyph glyph-name="Acircumflex" unicode="&#xc2;" 
d="M66 0l882 1529h222l189 -1529h-449l-123 1200l-693 -1200h-28zM-100 0v25h440v-25h-440zM680 0v25h820v-25h-820zM369 477v25h651v-25h-651zM690 1706l-13 14l325 319h209l236 -319l-12 -12l-334 141z" />
    <glyph glyph-name="Atilde" unicode="&#xc3;" 
d="M66 0l882 1529h222l189 -1529h-449l-123 1200l-693 -1200h-28zM-100 0v25h440v-25h-440zM680 0v25h820v-25h-820zM369 477v25h651v-25h-651zM1243 1620q-58 0 -103.5 24t-86 55t-80.5 54.5t-84 23.5q-35 0 -67 -14.5t-62 -62.5h-25q20 85 52.5 156.5t85 114.5t131.5 43
q52 0 96 -24t83.5 -55.5t77 -55.5t76.5 -24q35 0 67 15.5t62 63.5h25q-20 -95 -47.5 -165.5t-74.5 -109.5t-126 -39z" />
    <glyph glyph-name="Adieresis" unicode="&#xc4;" 
d="M66 0l882 1529h222l189 -1529h-449l-123 1200l-693 -1200h-28zM-100 0v25h440v-25h-440zM680 0v25h820v-25h-820zM369 477v25h651v-25h-651zM1293 1682q-70 0 -119 49.5t-49 119.5q0 69 49 118t119 49q69 0 118.5 -49t49.5 -118q0 -70 -49.5 -119.5t-118.5 -49.5z
M833 1682q-70 0 -119 49.5t-49 119.5q0 69 49 118t119 49q69 0 118.5 -49t49.5 -118q0 -70 -49.5 -119.5t-118.5 -49.5z" />
    <glyph glyph-name="Aring" unicode="&#xc5;" 
d="M66 0l882 1529h222l189 -1529h-449l-123 1200l-693 -1200h-28zM-100 0v25h440v-25h-440zM680 0v25h820v-25h-820zM369 477v25h651v-25h-651zM1064 1680q-107 0 -169 51.5t-62 127.5q0 77 62 129t169 52q106 0 167.5 -52t61.5 -129q0 -76 -61.5 -127.5t-167.5 -51.5z
M1032 1696q21 0 38 32t30 77.5t20 89.5t7 68q0 18 -4 39t-30 21q-20 0 -37.5 -32t-30 -78t-19.5 -90t-7 -68q0 -18 4 -38.5t29 -20.5z" />
    <glyph glyph-name="AE" unicode="&#xc6;" horiz-adv-x="2212" 
d="M61 0l1198 1500h30l-1195 -1500h-33zM-90 0v25h441v-25h-441zM491 501l2 25h576v-25h-578zM760 0v25h717q137 0 260.5 53.5t220.5 149t151 222.5h25l-105 -450h-1269zM931 0l347 1500h430l-348 -1500h-429zM1796 497q-10 67 -41 128t-76.5 99.5t-102.5 38.5h-112v25h112
q57 0 122.5 36.5t126 95.5t99.5 126h26l-129 -549h-25zM2237 1090q0 107 -54.5 194.5t-147.5 139t-210 51.5h-508v25h1041l-96 -410h-25z" />
    <glyph glyph-name="Ccedilla" unicode="&#xc7;" horiz-adv-x="1455" 
d="M710 -20q-183 0 -320.5 64.5t-213.5 183.5t-76 282q0 205 70 387.5t195 322.5t290 220t355 80q138 0 234.5 -63t154 -174t81.5 -254h-15q-27 127 -70.5 213t-96 138.5t-106.5 75t-102 22.5q-92 0 -168.5 -57.5t-137.5 -154t-107 -216t-76.5 -247t-45.5 -245t-15 -208.5
q0 -92 13 -167.5t61 -120t152 -44.5t205 60.5t197.5 163t186.5 229.5h15q-80 -123 -178.5 -235.5t-218.5 -184t-263 -71.5zM1248 0l-181 131q55 43 110 100t111 132l67 108h25l-110 -471h-22zM1465 1029l-18 109q-24 73 -50.5 124.5t-66.5 97.5l244 140h22l-106 -471h-25z
M367 -509v24q84 0 140 37t56 118q0 50 -32 76t-100 26l232 233h38l-153 -154q84 0 158 -11.5t120.5 -42t46.5 -88.5q0 -80 -72 -128t-187.5 -69t-246.5 -21z" />
    <glyph glyph-name="Egrave" unicode="&#xc8;" horiz-adv-x="1327" 
d="M70 0l348 1500h430l-348 -1500h-430zM-100 0v25h730q137 0 251 53.5t201.5 149t146.5 222.5h25l-104 -450h-1250zM939 496q-15 67 -45.5 128.5t-75.5 100t-102 38.5h-122v25h122q57 0 121.5 36.5t124.5 95.5t105 126h25l-128 -550h-25zM1357 1090q-5 107 -50.5 194.5
t-128 139t-199.5 51.5h-741v25h1240l-96 -410h-25zM1125 1677l-283 41q-80 12 -124.5 61.5t-51.5 111.5t26 110q20 29 58.5 46t84.5 15.5t89.5 -26.5t72.5 -80l139 -264z" />
    <glyph glyph-name="Eacute" unicode="&#xc9;" horiz-adv-x="1327" 
d="M70 0l348 1500h430l-348 -1500h-430zM-100 0v25h730q137 0 251 53.5t201.5 149t146.5 222.5h25l-104 -450h-1250zM939 496q-15 67 -45.5 128.5t-75.5 100t-102 38.5h-122v25h122q57 0 121.5 36.5t124.5 95.5t105 126h25l-128 -550h-25zM1357 1090q-5 107 -50.5 194.5
t-128 139t-199.5 51.5h-741v25h1240l-96 -410h-25zM847 1676l-11 16l139 264q28 55 71 80t89 26.5t85 -15.5t60 -46q33 -48 25.5 -110t-52 -111.5t-123.5 -61.5z" />
    <glyph glyph-name="Ecircumflex" unicode="&#xca;" horiz-adv-x="1327" 
d="M70 0l348 1500h430l-348 -1500h-430zM-100 0v25h730q137 0 251 53.5t201.5 149t146.5 222.5h25l-104 -450h-1250zM939 496q-15 67 -45.5 128.5t-75.5 100t-102 38.5h-122v25h122q57 0 121.5 36.5t124.5 95.5t105 126h25l-128 -550h-25zM1357 1090q-5 107 -50.5 194.5
t-128 139t-199.5 51.5h-741v25h1240l-96 -410h-25zM580 1706l-13 14l325 319h209l236 -319l-12 -12l-334 141z" />
    <glyph glyph-name="Edieresis" unicode="&#xcb;" horiz-adv-x="1327" 
d="M70 0l348 1500h430l-348 -1500h-430zM-100 0v25h730q137 0 251 53.5t201.5 149t146.5 222.5h25l-104 -450h-1250zM939 496q-15 67 -45.5 128.5t-75.5 100t-102 38.5h-122v25h122q57 0 121.5 36.5t124.5 95.5t105 126h25l-128 -550h-25zM1357 1090q-5 107 -50.5 194.5
t-128 139t-199.5 51.5h-741v25h1240l-96 -410h-25zM1183 1682q-70 0 -119 49.5t-49 119.5q0 69 49 118t119 49q69 0 118.5 -49t49.5 -118q0 -70 -49.5 -119.5t-118.5 -49.5zM723 1682q-70 0 -119 49.5t-49 119.5q0 69 49 118t119 49q69 0 118.5 -49t49.5 -118
q0 -70 -49.5 -119.5t-118.5 -49.5z" />
    <glyph glyph-name="Igrave" unicode="&#xcc;" horiz-adv-x="929" 
d="M130 0l341 1500h429l-339 -1500h-431zM-90 0v25h880v-25h-880zM240 1475v25h880v-25h-880zM903 1677l-283 41q-80 12 -124.5 61.5t-51.5 111.5t26 110q20 29 58.5 46t84.5 15.5t89.5 -26.5t72.5 -80l139 -264z" />
    <glyph glyph-name="Iacute" unicode="&#xcd;" horiz-adv-x="929" 
d="M130 0l341 1500h429l-339 -1500h-431zM-90 0v25h880v-25h-880zM240 1475v25h880v-25h-880zM625 1676l-11 16l139 264q28 55 71 80t89 26.5t85 -15.5t60 -46q33 -48 25.5 -110t-52 -111.5t-123.5 -61.5z" />
    <glyph glyph-name="Icircumflex" unicode="&#xce;" horiz-adv-x="929" 
d="M130 0l341 1500h429l-339 -1500h-431zM-90 0v25h880v-25h-880zM240 1475v25h880v-25h-880zM358 1706l-13 14l325 319h209l236 -319l-12 -12l-334 141z" />
    <glyph glyph-name="Idieresis" unicode="&#xcf;" horiz-adv-x="929" 
d="M130 0l341 1500h429l-339 -1500h-431zM-90 0v25h880v-25h-880zM240 1475v25h880v-25h-880zM961 1682q-70 0 -119 49.5t-49 119.5q0 69 49 118t119 49q69 0 118.5 -49t49.5 -118q0 -70 -49.5 -119.5t-118.5 -49.5zM501 1682q-70 0 -119 49.5t-49 119.5q0 69 49 118t119 49
q69 0 118.5 -49t49.5 -118q0 -70 -49.5 -119.5t-118.5 -49.5z" />
    <glyph glyph-name="Eth" unicode="&#xd0;" 
d="M115 718v24h785v-24h-785zM-80 0v25h730q92 0 167 58t134.5 155.5t102.5 217.5t71.5 244.5t42.5 236.5t14 193q0 69 -7 131.5t-28.5 110.5t-63.5 75.5t-112 27.5h-731v25h789q163 0 302.5 -57t224.5 -178.5t85 -314.5q0 -182 -65.5 -352t-185.5 -305t-287.5 -214
t-372.5 -79h-810zM100 0l339 1500h431l-341 -1500h-429z" />
    <glyph glyph-name="Ntilde" unicode="&#xd1;" horiz-adv-x="1549" 
d="M1134 -20l-684 1520h510l368 -782l178 782h26l-346 -1520h-52zM-80 0v25h442v-25h-442zM109 0l330 1475h-199v25h229l-334 -1500h-26zM1266 1475v25h484v-25h-484zM1195 1620q-58 0 -103.5 24t-86 55t-80.5 54.5t-84 23.5q-35 0 -67 -14.5t-62 -62.5h-25
q20 85 52.5 156.5t85 114.5t131.5 43q52 0 96 -24t83.5 -55.5t77 -55.5t76.5 -24q35 0 67 15.5t62 63.5h25q-20 -95 -47.5 -165.5t-74.5 -109.5t-126 -39z" />
    <glyph glyph-name="Ograve" unicode="&#xd2;" horiz-adv-x="1579" 
d="M670 -20q-274 0 -422 143t-148 387q0 188 53 345.5t144.5 280.5t208.5 209t246.5 130.5t257.5 44.5q173 0 301 -64.5t198.5 -183.5t70.5 -282q0 -235 -78.5 -421.5t-209.5 -318t-293 -201t-329 -69.5zM670 3q67 0 129 58t117 157t99.5 225t77 263.5t50 272.5t17.5 251
q0 67 -8.5 117t-26.5 83t-46.5 50t-68.5 17q-62 0 -122 -58t-115 -157t-101 -224.5t-80 -263.5t-53 -273t-19 -251q0 -109 15 -166.5t48 -79t87 -21.5zM1227 1677l-283 41q-80 12 -124.5 61.5t-51.5 111.5t26 110q20 29 58.5 46t84.5 15.5t89.5 -26.5t72.5 -80l139 -264z
" />
    <glyph glyph-name="Oacute" unicode="&#xd3;" horiz-adv-x="1579" 
d="M670 -20q-274 0 -422 143t-148 387q0 188 53 345.5t144.5 280.5t208.5 209t246.5 130.5t257.5 44.5q173 0 301 -64.5t198.5 -183.5t70.5 -282q0 -235 -78.5 -421.5t-209.5 -318t-293 -201t-329 -69.5zM670 3q67 0 129 58t117 157t99.5 225t77 263.5t50 272.5t17.5 251
q0 67 -8.5 117t-26.5 83t-46.5 50t-68.5 17q-62 0 -122 -58t-115 -157t-101 -224.5t-80 -263.5t-53 -273t-19 -251q0 -109 15 -166.5t48 -79t87 -21.5zM949 1676l-11 16l139 264q28 55 71 80t89 26.5t85 -15.5t60 -46q33 -48 25.5 -110t-52 -111.5t-123.5 -61.5z" />
    <glyph glyph-name="Ocircumflex" unicode="&#xd4;" horiz-adv-x="1579" 
d="M670 -20q-274 0 -422 143t-148 387q0 188 53 345.5t144.5 280.5t208.5 209t246.5 130.5t257.5 44.5q173 0 301 -64.5t198.5 -183.5t70.5 -282q0 -235 -78.5 -421.5t-209.5 -318t-293 -201t-329 -69.5zM670 3q67 0 129 58t117 157t99.5 225t77 263.5t50 272.5t17.5 251
q0 67 -8.5 117t-26.5 83t-46.5 50t-68.5 17q-62 0 -122 -58t-115 -157t-101 -224.5t-80 -263.5t-53 -273t-19 -251q0 -109 15 -166.5t48 -79t87 -21.5zM682 1706l-13 14l325 319h209l236 -319l-12 -12l-334 141z" />
    <glyph glyph-name="Otilde" unicode="&#xd5;" horiz-adv-x="1579" 
d="M670 -20q-274 0 -422 143t-148 387q0 188 53 345.5t144.5 280.5t208.5 209t246.5 130.5t257.5 44.5q173 0 301 -64.5t198.5 -183.5t70.5 -282q0 -235 -78.5 -421.5t-209.5 -318t-293 -201t-329 -69.5zM670 3q67 0 129 58t117 157t99.5 225t77 263.5t50 272.5t17.5 251
q0 67 -8.5 117t-26.5 83t-46.5 50t-68.5 17q-62 0 -122 -58t-115 -157t-101 -224.5t-80 -263.5t-53 -273t-19 -251q0 -109 15 -166.5t48 -79t87 -21.5zM1235 1620q-58 0 -103.5 24t-86 55t-80.5 54.5t-84 23.5q-35 0 -67 -14.5t-62 -62.5h-25q20 85 52.5 156.5t85 114.5
t131.5 43q52 0 96 -24t83.5 -55.5t77 -55.5t76.5 -24q35 0 67 15.5t62 63.5h25q-20 -95 -47.5 -165.5t-74.5 -109.5t-126 -39z" />
    <glyph glyph-name="Odieresis" unicode="&#xd6;" horiz-adv-x="1579" 
d="M670 -20q-274 0 -422 143t-148 387q0 188 53 345.5t144.5 280.5t208.5 209t246.5 130.5t257.5 44.5q173 0 301 -64.5t198.5 -183.5t70.5 -282q0 -235 -78.5 -421.5t-209.5 -318t-293 -201t-329 -69.5zM670 3q67 0 129 58t117 157t99.5 225t77 263.5t50 272.5t17.5 251
q0 67 -8.5 117t-26.5 83t-46.5 50t-68.5 17q-62 0 -122 -58t-115 -157t-101 -224.5t-80 -263.5t-53 -273t-19 -251q0 -109 15 -166.5t48 -79t87 -21.5zM1285 1682q-70 0 -119 49.5t-49 119.5q0 69 49 118t119 49q69 0 118.5 -49t49.5 -118q0 -70 -49.5 -119.5t-118.5 -49.5z
M825 1682q-70 0 -119 49.5t-49 119.5q0 69 49 118t119 49q69 0 118.5 -49t49.5 -118q0 -70 -49.5 -119.5t-118.5 -49.5z" />
    <glyph glyph-name="multiply" unicode="&#xd7;" horiz-adv-x="922" 
d="M309 472l-177 177l420 420l177 -177zM552 472l-419 420l177 177l419 -420z" />
    <glyph glyph-name="Oslash" unicode="&#xd8;" horiz-adv-x="1579" 
d="M119 -200l1268 1861h33l-1267 -1861h-34zM670 -20q-274 0 -422 143t-148 387q0 188 53 345.5t144.5 280.5t208.5 209t246.5 130.5t257.5 44.5q173 0 301 -64.5t198.5 -183.5t70.5 -282q0 -235 -78.5 -421.5t-209.5 -318t-293 -201t-329 -69.5zM670 3q67 0 129 58t117 157
t99.5 225t77 263.5t50 272.5t17.5 251q0 67 -8.5 117t-26.5 83t-46.5 50t-68.5 17q-62 0 -122 -58t-115 -157t-101 -224.5t-80 -263.5t-53 -273t-19 -251q0 -109 15 -166.5t48 -79t87 -21.5z" />
    <glyph glyph-name="Ugrave" unicode="&#xd9;" horiz-adv-x="1483" 
d="M664 -29q-163 0 -285 54t-177.5 162.5t-17.5 272.5l240 1040h430l-241 -1020q-22 -94 -30 -176.5t7 -145t60.5 -98t130.5 -35.5q98 0 189.5 46t161.5 142t105 247l240 1040h24l-240 -1040q-36 -157 -116 -266.5t-201.5 -166t-279.5 -56.5zM234 1475v25h810v-25h-810z
M1273 1475v25h401v-25h-401zM1287 1677l-283 41q-80 12 -124.5 61.5t-51.5 111.5t26 110q20 29 58.5 46t84.5 15.5t89.5 -26.5t72.5 -80l139 -264z" />
    <glyph glyph-name="Uacute" unicode="&#xda;" horiz-adv-x="1483" 
d="M664 -29q-163 0 -285 54t-177.5 162.5t-17.5 272.5l240 1040h430l-241 -1020q-22 -94 -30 -176.5t7 -145t60.5 -98t130.5 -35.5q98 0 189.5 46t161.5 142t105 247l240 1040h24l-240 -1040q-36 -157 -116 -266.5t-201.5 -166t-279.5 -56.5zM234 1475v25h810v-25h-810z
M1273 1475v25h401v-25h-401zM1009 1676l-11 16l139 264q28 55 71 80t89 26.5t85 -15.5t60 -46q33 -48 25.5 -110t-52 -111.5t-123.5 -61.5z" />
    <glyph glyph-name="Ucircumflex" unicode="&#xdb;" horiz-adv-x="1483" 
d="M664 -29q-163 0 -285 54t-177.5 162.5t-17.5 272.5l240 1040h430l-241 -1020q-22 -94 -30 -176.5t7 -145t60.5 -98t130.5 -35.5q98 0 189.5 46t161.5 142t105 247l240 1040h24l-240 -1040q-36 -157 -116 -266.5t-201.5 -166t-279.5 -56.5zM234 1475v25h810v-25h-810z
M1273 1475v25h401v-25h-401zM742 1706l-13 14l325 319h209l236 -319l-12 -12l-334 141z" />
    <glyph glyph-name="Udieresis" unicode="&#xdc;" horiz-adv-x="1483" 
d="M664 -29q-163 0 -285 54t-177.5 162.5t-17.5 272.5l240 1040h430l-241 -1020q-22 -94 -30 -176.5t7 -145t60.5 -98t130.5 -35.5q98 0 189.5 46t161.5 142t105 247l240 1040h24l-240 -1040q-36 -157 -116 -266.5t-201.5 -166t-279.5 -56.5zM234 1475v25h810v-25h-810z
M1273 1475v25h401v-25h-401zM1345 1682q-70 0 -119 49.5t-49 119.5q0 69 49 118t119 49q69 0 118.5 -49t49.5 -118q0 -70 -49.5 -119.5t-118.5 -49.5zM885 1682q-70 0 -119 49.5t-49 119.5q0 69 49 118t119 49q69 0 118.5 -49t49.5 -118q0 -70 -49.5 -119.5t-118.5 -49.5z
" />
    <glyph glyph-name="Yacute" unicode="&#xdd;" horiz-adv-x="1559" 
d="M460 0l170 754l-260 746h472l219 -686l521 682h32l-560 -728l-163 -768h-431zM279 0v25h811v-25h-811zM230 1475v25h812v-25h-812zM1340 1475v25h420v-25h-420zM1029 1676l-11 16l139 264q28 55 71 80t89 26.5t85 -15.5t60 -46q33 -48 25.5 -110t-52 -111.5t-123.5 -61.5
z" />
    <glyph glyph-name="Thorn" unicode="&#xde;" horiz-adv-x="1469" 
d="M70 0l350 1500h430l-350 -1500h-430zM-90 0v25h790v-25h-790zM529 359v26h121q87 0 148.5 56.5t100.5 144t57.5 185t18.5 179.5q0 44 -7 84.5t-21.5 72t-38 50t-58.5 18.5h-330v25h430q131 0 240 -30t174.5 -100t65.5 -190q0 -150 -86.5 -267.5t-239.5 -185.5t-354 -68
h-221zM250 1475v25h790v-25h-790z" />
    <glyph glyph-name="germandbls" unicode="&#xdf;" horiz-adv-x="1701" 
d="M130 0l229 982q43 192 158.5 310.5t290.5 173t398 54.5q100 0 200 -15.5t182.5 -51.5t132.5 -97.5t50 -153.5q0 -97 -59 -171t-162.5 -124t-238.5 -74.5t-286 -24.5v16q97 0 158.5 44t96 112t47.5 143.5t13 138.5q0 72 -20 125t-55 81.5t-79 28.5q-108 0 -178.5 -45
t-114.5 -121.5t-72 -172t-51 -196.5l-220 -962h-420zM-50 0v25h780v-25h-780zM992 -20q-109 0 -174 49t-94 125t-29 158q0 66 27 123t75 92t113 35q90 0 149 -54t59 -138q0 -52 -34 -95t-84.5 -69t-99.5 -26q-67 0 -110.5 29t-65.5 66q3 -73 33 -133t84 -96.5t132 -36.5
q66 0 113.5 49t77 125.5t43.5 161.5t14 155q0 71 -14 126t-39.5 93.5t-61.5 58.5t-81 20v16q181 0 320.5 -29.5t218.5 -102t79 -202.5q0 -142 -61 -238.5t-159 -154t-211.5 -82.5t-219.5 -25z" />
    <glyph glyph-name="agrave" unicode="&#xe0;" horiz-adv-x="1167" 
d="M300 -20q-143 0 -205 89.5t-62 235.5q0 115 42.5 227.5t115 204.5t163 147.5t186.5 55.5q53 0 90.5 -24t57.5 -69.5t20 -109.5q0 -31 -10.5 -98.5t-32 -153t-54.5 -174t-78 -163.5t-103 -121.5t-130 -46.5zM442 89q25 0 58 46t65.5 121.5t60.5 164t45 174.5t17 154
q0 26 -5 43.5t-13.5 26.5t-19.5 9q-28 0 -61.5 -47.5t-66.5 -124t-60.5 -165t-44.5 -174t-17 -148.5q0 -34 9.5 -57t32.5 -23zM789 -20q-109 0 -159 47.5t-50 128.5q0 23 2 38.5t4 25.5l32 150l50 163l25 145l59 242h369l-219 -825q-4 -15 -4 -29q0 -8 4.5 -13t12.5 -5
q13 0 44.5 18.5t78 78.5t104.5 185l25 -8q-53 -111 -107 -187t-119.5 -115.5t-151.5 -39.5zM900 1097l-283 41q-80 12 -124.5 61.5t-51.5 111.5t26 110q20 29 58.5 46t84.5 15.5t89.5 -26.5t72.5 -80l139 -264z" />
    <glyph glyph-name="aacute" unicode="&#xe1;" horiz-adv-x="1167" 
d="M300 -20q-143 0 -205 89.5t-62 235.5q0 115 42.5 227.5t115 204.5t163 147.5t186.5 55.5q53 0 90.5 -24t57.5 -69.5t20 -109.5q0 -31 -10.5 -98.5t-32 -153t-54.5 -174t-78 -163.5t-103 -121.5t-130 -46.5zM442 89q25 0 58 46t65.5 121.5t60.5 164t45 174.5t17 154
q0 26 -5 43.5t-13.5 26.5t-19.5 9q-28 0 -61.5 -47.5t-66.5 -124t-60.5 -165t-44.5 -174t-17 -148.5q0 -34 9.5 -57t32.5 -23zM789 -20q-109 0 -159 47.5t-50 128.5q0 23 2 38.5t4 25.5l32 150l50 163l25 145l59 242h369l-219 -825q-4 -15 -4 -29q0 -8 4.5 -13t12.5 -5
q13 0 44.5 18.5t78 78.5t104.5 185l25 -8q-53 -111 -107 -187t-119.5 -115.5t-151.5 -39.5zM622 1096l-11 16l139 264q28 55 71 80t89 26.5t85 -15.5t60 -46q33 -48 25.5 -110t-52 -111.5t-123.5 -61.5z" />
    <glyph glyph-name="acircumflex" unicode="&#xe2;" horiz-adv-x="1167" 
d="M300 -20q-143 0 -205 89.5t-62 235.5q0 115 42.5 227.5t115 204.5t163 147.5t186.5 55.5q53 0 90.5 -24t57.5 -69.5t20 -109.5q0 -31 -10.5 -98.5t-32 -153t-54.5 -174t-78 -163.5t-103 -121.5t-130 -46.5zM442 89q25 0 58 46t65.5 121.5t60.5 164t45 174.5t17 154
q0 26 -5 43.5t-13.5 26.5t-19.5 9q-28 0 -61.5 -47.5t-66.5 -124t-60.5 -165t-44.5 -174t-17 -148.5q0 -34 9.5 -57t32.5 -23zM789 -20q-109 0 -159 47.5t-50 128.5q0 23 2 38.5t4 25.5l32 150l50 163l25 145l59 242h369l-219 -825q-4 -15 -4 -29q0 -8 4.5 -13t12.5 -5
q13 0 44.5 18.5t78 78.5t104.5 185l25 -8q-53 -111 -107 -187t-119.5 -115.5t-151.5 -39.5zM356 1126l-13 14l325 319h209l236 -319l-12 -12l-334 141z" />
    <glyph glyph-name="atilde" unicode="&#xe3;" horiz-adv-x="1167" 
d="M300 -20q-143 0 -205 89.5t-62 235.5q0 115 42.5 227.5t115 204.5t163 147.5t186.5 55.5q53 0 90.5 -24t57.5 -69.5t20 -109.5q0 -31 -10.5 -98.5t-32 -153t-54.5 -174t-78 -163.5t-103 -121.5t-130 -46.5zM442 89q25 0 58 46t65.5 121.5t60.5 164t45 174.5t17 154
q0 26 -5 43.5t-13.5 26.5t-19.5 9q-28 0 -61.5 -47.5t-66.5 -124t-60.5 -165t-44.5 -174t-17 -148.5q0 -34 9.5 -57t32.5 -23zM789 -20q-109 0 -159 47.5t-50 128.5q0 23 2 38.5t4 25.5l32 150l50 163l25 145l59 242h369l-219 -825q-4 -15 -4 -29q0 -8 4.5 -13t12.5 -5
q13 0 44.5 18.5t78 78.5t104.5 185l25 -8q-53 -111 -107 -187t-119.5 -115.5t-151.5 -39.5zM909 1040q-58 0 -103.5 24t-86 55t-80.5 54.5t-84 23.5q-35 0 -67 -14.5t-62 -62.5h-25q20 85 52.5 156.5t85 114.5t131.5 43q52 0 96 -24t83.5 -55.5t77 -55.5t76.5 -24
q35 0 67 15.5t62 63.5h25q-20 -95 -47.5 -165.5t-74.5 -109.5t-126 -39z" />
    <glyph glyph-name="adieresis" unicode="&#xe4;" horiz-adv-x="1167" 
d="M300 -20q-143 0 -205 89.5t-62 235.5q0 115 42.5 227.5t115 204.5t163 147.5t186.5 55.5q53 0 90.5 -24t57.5 -69.5t20 -109.5q0 -31 -10.5 -98.5t-32 -153t-54.5 -174t-78 -163.5t-103 -121.5t-130 -46.5zM442 89q25 0 58 46t65.5 121.5t60.5 164t45 174.5t17 154
q0 26 -5 43.5t-13.5 26.5t-19.5 9q-28 0 -61.5 -47.5t-66.5 -124t-60.5 -165t-44.5 -174t-17 -148.5q0 -34 9.5 -57t32.5 -23zM789 -20q-109 0 -159 47.5t-50 128.5q0 23 2 38.5t4 25.5l32 150l50 163l25 145l59 242h369l-219 -825q-4 -15 -4 -29q0 -8 4.5 -13t12.5 -5
q13 0 44.5 18.5t78 78.5t104.5 185l25 -8q-53 -111 -107 -187t-119.5 -115.5t-151.5 -39.5zM958 1102q-70 0 -119 49.5t-49 119.5q0 69 49 118t119 49q69 0 118.5 -49t49.5 -118q0 -70 -49.5 -119.5t-118.5 -49.5zM498 1102q-70 0 -119 49.5t-49 119.5q0 69 49 118t119 49
q69 0 118.5 -49t49.5 -118q0 -70 -49.5 -119.5t-118.5 -49.5z" />
    <glyph glyph-name="aring" unicode="&#xe5;" horiz-adv-x="1167" 
d="M300 -20q-143 0 -205 89.5t-62 235.5q0 115 42.5 227.5t115 204.5t163 147.5t186.5 55.5q53 0 90.5 -24t57.5 -69.5t20 -109.5q0 -31 -10.5 -98.5t-32 -153t-54.5 -174t-78 -163.5t-103 -121.5t-130 -46.5zM442 89q25 0 58 46t65.5 121.5t60.5 164t45 174.5t17 154
q0 26 -5 43.5t-13.5 26.5t-19.5 9q-28 0 -61.5 -47.5t-66.5 -124t-60.5 -165t-44.5 -174t-17 -148.5q0 -34 9.5 -57t32.5 -23zM789 -20q-109 0 -159 47.5t-50 128.5q0 23 2 38.5t4 25.5l32 150l50 163l25 145l59 242h369l-219 -825q-4 -15 -4 -29q0 -8 4.5 -13t12.5 -5
q13 0 44.5 18.5t78 78.5t104.5 185l25 -8q-53 -111 -107 -187t-119.5 -115.5t-151.5 -39.5zM729 1100q-107 0 -169 51.5t-62 127.5q0 77 62 129t169 52q106 0 167.5 -52t61.5 -129q0 -76 -61.5 -127.5t-167.5 -51.5zM697 1116q21 0 38 32t30 77.5t20 89.5t7 68q0 18 -4 39
t-30 21q-20 0 -37.5 -32t-30 -78t-19.5 -90t-7 -68q0 -18 4 -38.5t29 -20.5z" />
    <glyph glyph-name="ae" unicode="&#xe6;" horiz-adv-x="1825" 
d="M1148 -20q-81 0 -153.5 35t-118.5 110t-46 195l40 -9q2 142 47.5 258t125 198.5t184.5 127t225 44.5q82 0 166.5 -19.5t142 -66t57.5 -128.5q0 -80 -43.5 -136.5t-113 -92.5t-149.5 -57t-154.5 -31t-128 -12.5t-69.5 -2.5v22q22 0 71.5 20t103.5 63t92.5 112.5
t38.5 167.5q0 56 -11 96.5t-43 40.5q-29 0 -68.5 -58.5t-77.5 -156t-63 -217.5t-25 -243q0 -60 12 -106.5t41 -73.5t78 -27t116.5 30.5t135.5 87t121 135.5h26q-49 -77 -126 -147t-185 -114.5t-249 -44.5zM380 -20q-99 0 -176.5 20.5t-122.5 66t-45 119.5q0 94 60.5 167
t175 114.5t276.5 41.5h188v-24h-68q-56 0 -111.5 -46.5t-93 -123.5t-37.5 -169q0 -70 16 -103t38 -33q47 0 83 47t63.5 127t49.5 177l56 248q10 48 11.5 101t-11.5 99t-43.5 74.5t-83.5 28.5q-47 0 -87 -10t-72 -26.5t-57 -33.5q59 32 119 25.5t100 -41t40 -90.5
q0 -75 -60 -134.5t-158 -59.5q-105 0 -154 40t-49 109q0 62 53.5 118t144 91.5t201.5 35.5q130 0 232.5 -27t156 -98t37.5 -202l-66 -248q-17 -93 -76.5 -164t-145.5 -119.5t-186 -73t-198 -24.5z" />
    <glyph glyph-name="ccedilla" unicode="&#xe7;" horiz-adv-x="1035" 
d="M397 -20q-171 0 -264 79t-93 222q0 117 52 233.5t143.5 213t211.5 154.5t256 58q97 0 172 -33.5t117.5 -90.5t42.5 -126q0 -83 -56 -138.5t-137 -55.5q-75 0 -132 41t-57 123q0 79 54.5 129t133.5 50q42 0 86.5 -18.5t75 -52t30.5 -78.5h-20q0 62 -36.5 109t-88.5 73.5
t-99 26.5q-78 0 -141.5 -57.5t-112 -151t-81 -199.5t-49.5 -204.5t-17 -166.5q0 -54 25.5 -76.5t64.5 -22.5q80 0 155 37.5t140.5 95.5t114.5 120l21 -15q-54 -65 -125 -129.5t-166 -107t-221 -42.5zM82 -509v24q84 0 140 37t56 118q0 50 -32 76t-100 26l232 233h38
l-153 -154q84 0 158 -11.5t120.5 -42t46.5 -88.5q0 -80 -72 -128t-187.5 -69t-246.5 -21z" />
    <glyph glyph-name="egrave" unicode="&#xe8;" horiz-adv-x="1063" 
d="M397 -20q-121 0 -200 44.5t-118 117.5t-39 158q0 131 50 247t137.5 204.5t201.5 138.5t242 50q176 0 274 -70.5t98 -171.5q0 -64 -35 -119t-110.5 -97.5t-197 -69.5t-295.5 -35v17q56 3 108.5 47.5t96 110.5t76.5 136t51.5 125t18.5 75q0 13 -4.5 20t-18.5 7
q-32 0 -70.5 -45t-77 -120.5t-74 -165.5t-63.5 -183t-44 -174t-16 -134q0 -44 21.5 -60.5t61.5 -16.5q59 0 131 29t146 86t140 143l21 -15q-54 -65 -125 -129.5t-165.5 -107t-221.5 -42.5zM906 1097l-283 41q-80 12 -124.5 61.5t-51.5 111.5t26 110q20 29 58.5 46t84.5 15.5
t89.5 -26.5t72.5 -80l139 -264z" />
    <glyph glyph-name="eacute" unicode="&#xe9;" horiz-adv-x="1063" 
d="M397 -20q-121 0 -200 44.5t-118 117.5t-39 158q0 131 50 247t137.5 204.5t201.5 138.5t242 50q176 0 274 -70.5t98 -171.5q0 -64 -35 -119t-110.5 -97.5t-197 -69.5t-295.5 -35v17q56 3 108.5 47.5t96 110.5t76.5 136t51.5 125t18.5 75q0 13 -4.5 20t-18.5 7
q-32 0 -70.5 -45t-77 -120.5t-74 -165.5t-63.5 -183t-44 -174t-16 -134q0 -44 21.5 -60.5t61.5 -16.5q59 0 131 29t146 86t140 143l21 -15q-54 -65 -125 -129.5t-165.5 -107t-221.5 -42.5zM628 1096l-11 16l139 264q28 55 71 80t89 26.5t85 -15.5t60 -46q33 -48 25.5 -110
t-52 -111.5t-123.5 -61.5z" />
    <glyph glyph-name="ecircumflex" unicode="&#xea;" horiz-adv-x="1063" 
d="M397 -20q-121 0 -200 44.5t-118 117.5t-39 158q0 131 50 247t137.5 204.5t201.5 138.5t242 50q176 0 274 -70.5t98 -171.5q0 -64 -35 -119t-110.5 -97.5t-197 -69.5t-295.5 -35v17q56 3 108.5 47.5t96 110.5t76.5 136t51.5 125t18.5 75q0 13 -4.5 20t-18.5 7
q-32 0 -70.5 -45t-77 -120.5t-74 -165.5t-63.5 -183t-44 -174t-16 -134q0 -44 21.5 -60.5t61.5 -16.5q59 0 131 29t146 86t140 143l21 -15q-54 -65 -125 -129.5t-165.5 -107t-221.5 -42.5zM361 1126l-13 14l325 319h209l236 -319l-12 -12l-334 141z" />
    <glyph glyph-name="edieresis" unicode="&#xeb;" horiz-adv-x="1063" 
d="M397 -20q-121 0 -200 44.5t-118 117.5t-39 158q0 131 50 247t137.5 204.5t201.5 138.5t242 50q176 0 274 -70.5t98 -171.5q0 -64 -35 -119t-110.5 -97.5t-197 -69.5t-295.5 -35v17q56 3 108.5 47.5t96 110.5t76.5 136t51.5 125t18.5 75q0 13 -4.5 20t-18.5 7
q-32 0 -70.5 -45t-77 -120.5t-74 -165.5t-63.5 -183t-44 -174t-16 -134q0 -44 21.5 -60.5t61.5 -16.5q59 0 131 29t146 86t140 143l21 -15q-54 -65 -125 -129.5t-165.5 -107t-221.5 -42.5zM964 1102q-70 0 -119 49.5t-49 119.5q0 69 49 118t119 49q69 0 118.5 -49t49.5 -118
q0 -70 -49.5 -119.5t-118.5 -49.5zM504 1102q-70 0 -119 49.5t-49 119.5q0 69 49 118t119 49q69 0 118.5 -49t49.5 -118q0 -70 -49.5 -119.5t-118.5 -49.5z" />
    <glyph glyph-name="igrave" unicode="&#xec;" horiz-adv-x="790" 
d="M318 -20q-115 0 -172.5 41t-57.5 133q0 17 2.5 34t4.5 28l175 679h-156v25h535l-204 -792q-2 -9 -3.5 -19t-1.5 -19q0 -15 8 -28t25 -13q38 0 86.5 32t96.5 94.5t84 153.5l23 -9q-65 -161 -177 -250.5t-268 -89.5zM678 1097l-283 41q-80 12 -124.5 61.5t-51.5 111.5
t26 110q20 29 58.5 46t84.5 15.5t89.5 -26.5t72.5 -80l139 -264z" />
    <glyph glyph-name="iacute" unicode="&#xed;" horiz-adv-x="790" 
d="M318 -20q-115 0 -172.5 41t-57.5 133q0 17 2.5 34t4.5 28l175 679h-156v25h535l-204 -792q-2 -9 -3.5 -19t-1.5 -19q0 -15 8 -28t25 -13q38 0 86.5 32t96.5 94.5t84 153.5l23 -9q-65 -161 -177 -250.5t-268 -89.5zM401 1096l-11 16l139 264q28 55 71 80t89 26.5t85 -15.5
t60 -46q33 -48 25.5 -110t-52 -111.5t-123.5 -61.5z" />
    <glyph glyph-name="icircumflex" unicode="&#xee;" horiz-adv-x="790" 
d="M318 -20q-115 0 -172.5 41t-57.5 133q0 17 2.5 34t4.5 28l175 679h-156v25h535l-204 -792q-2 -9 -3.5 -19t-1.5 -19q0 -15 8 -28t25 -13q38 0 86.5 32t96.5 94.5t84 153.5l23 -9q-65 -161 -177 -250.5t-268 -89.5zM134 1126l-13 14l325 319h209l236 -319l-12 -12
l-334 141z" />
    <glyph glyph-name="idieresis" unicode="&#xef;" horiz-adv-x="790" 
d="M318 -20q-115 0 -172.5 41t-57.5 133q0 17 2.5 34t4.5 28l175 679h-156v25h535l-204 -792q-2 -9 -3.5 -19t-1.5 -19q0 -15 8 -28t25 -13q38 0 86.5 32t96.5 94.5t84 153.5l23 -9q-65 -161 -177 -250.5t-268 -89.5zM736 1102q-70 0 -119 49.5t-49 119.5q0 69 49 118
t119 49q69 0 118.5 -49t49.5 -118q0 -70 -49.5 -119.5t-118.5 -49.5zM276 1102q-70 0 -119 49.5t-49 119.5q0 69 49 118t119 49q69 0 118.5 -49t49.5 -118q0 -70 -49.5 -119.5t-118.5 -49.5z" />
    <glyph glyph-name="eth" unicode="&#xf0;" horiz-adv-x="1319" 
d="M572 -20q-226 0 -359 102.5t-133 297.5q0 143 62 254t158.5 188.5t204 117.5t198.5 40q77 0 116 -28t49 -94.5t0 -183.5l-20 136q0 40 -9.5 67.5t-24.5 41.5t-32 14q-47 0 -90.5 -56t-79.5 -145.5t-62.5 -191t-41 -195t-14.5 -155.5q0 -64 6 -105t21.5 -60.5t44.5 -19.5
q35 0 74 51.5t76 137t67 191.5t47.5 216.5t17.5 208.5l8 -14q10 138 5.5 249.5t-26 196t-65.5 141t-113 85.5t-167 29v23q205 0 359 -55.5t257.5 -157.5t155.5 -241t52 -306q0 -157 -64 -298t-171.5 -249.5t-239 -170.5t-267.5 -62zM520 1235v25h919v-25h-919z" />
    <glyph glyph-name="ntilde" unicode="&#xf1;" horiz-adv-x="1185" 
d="M786 -20q-96 0 -145 52.5t-49 131.5q0 23 6 54t13 56l104 370q22 78 29 118.5t2.5 54.5t-15.5 14q-16 0 -52 -40t-80 -114.5t-88.5 -178.5t-79.5 -232h-17q25 91 60 186t79 182t97 156t113 109t127 40q80 0 130.5 -37.5t66.5 -105t-10 -157.5l-144 -501q-2 -8 -4.5 -20
t-2.5 -20q0 -17 5 -23.5t15 -6.5q37 0 96.5 66.5t118.5 195.5l24 -8q-55 -126 -118 -201t-133 -108t-148 -33zM0 0l240 895h-138v25h508l-251 -920h-359zM913 1040q-58 0 -103.5 24t-86 55t-80.5 54.5t-84 23.5q-35 0 -67 -14.5t-62 -62.5h-25q20 85 52.5 156.5t85 114.5
t131.5 43q52 0 96 -24t83.5 -55.5t77 -55.5t76.5 -24q35 0 67 15.5t62 63.5h25q-20 -95 -47.5 -165.5t-74.5 -109.5t-126 -39z" />
    <glyph glyph-name="ograve" unicode="&#xf2;" horiz-adv-x="1128" 
d="M417 -20q-174 0 -275.5 72t-101.5 237q0 120 52.5 236t143.5 209.5t209.5 149.5t250.5 56q174 0 280.5 -77.5t106.5 -242.5q0 -116 -50 -229.5t-140 -206.5t-211.5 -148.5t-264.5 -55.5zM413 5q27 0 60.5 45.5t69 121.5t69 169t60 188.5t42 181t15.5 144.5q0 29 -6 44.5
t-23 15.5q-27 0 -60.5 -45.5t-69 -121.5t-69 -169t-60 -188.5t-42 -181t-15.5 -144.5q0 -29 6.5 -44.5t22.5 -15.5zM915 1097l-283 41q-80 12 -124.5 61.5t-51.5 111.5t26 110q20 29 58.5 46t84.5 15.5t89.5 -26.5t72.5 -80l139 -264z" />
    <glyph glyph-name="oacute" unicode="&#xf3;" horiz-adv-x="1128" 
d="M417 -20q-174 0 -275.5 72t-101.5 237q0 120 52.5 236t143.5 209.5t209.5 149.5t250.5 56q174 0 280.5 -77.5t106.5 -242.5q0 -116 -50 -229.5t-140 -206.5t-211.5 -148.5t-264.5 -55.5zM413 5q27 0 60.5 45.5t69 121.5t69 169t60 188.5t42 181t15.5 144.5q0 29 -6 44.5
t-23 15.5q-27 0 -60.5 -45.5t-69 -121.5t-69 -169t-60 -188.5t-42 -181t-15.5 -144.5q0 -29 6.5 -44.5t22.5 -15.5zM637 1096l-11 16l139 264q28 55 71 80t89 26.5t85 -15.5t60 -46q33 -48 25.5 -110t-52 -111.5t-123.5 -61.5z" />
    <glyph glyph-name="ocircumflex" unicode="&#xf4;" horiz-adv-x="1128" 
d="M417 -20q-174 0 -275.5 72t-101.5 237q0 120 52.5 236t143.5 209.5t209.5 149.5t250.5 56q174 0 280.5 -77.5t106.5 -242.5q0 -116 -50 -229.5t-140 -206.5t-211.5 -148.5t-264.5 -55.5zM413 5q27 0 60.5 45.5t69 121.5t69 169t60 188.5t42 181t15.5 144.5q0 29 -6 44.5
t-23 15.5q-27 0 -60.5 -45.5t-69 -121.5t-69 -169t-60 -188.5t-42 -181t-15.5 -144.5q0 -29 6.5 -44.5t22.5 -15.5zM370 1126l-13 14l325 319h209l236 -319l-12 -12l-334 141z" />
    <glyph glyph-name="otilde" unicode="&#xf5;" horiz-adv-x="1128" 
d="M417 -20q-174 0 -275.5 72t-101.5 237q0 120 52.5 236t143.5 209.5t209.5 149.5t250.5 56q174 0 280.5 -77.5t106.5 -242.5q0 -116 -50 -229.5t-140 -206.5t-211.5 -148.5t-264.5 -55.5zM413 5q27 0 60.5 45.5t69 121.5t69 169t60 188.5t42 181t15.5 144.5q0 29 -6 44.5
t-23 15.5q-27 0 -60.5 -45.5t-69 -121.5t-69 -169t-60 -188.5t-42 -181t-15.5 -144.5q0 -29 6.5 -44.5t22.5 -15.5zM923 1040q-58 0 -103.5 24t-86 55t-80.5 54.5t-84 23.5q-35 0 -67 -14.5t-62 -62.5h-25q20 85 52.5 156.5t85 114.5t131.5 43q52 0 96 -24t83.5 -55.5
t77 -55.5t76.5 -24q35 0 67 15.5t62 63.5h25q-20 -95 -47.5 -165.5t-74.5 -109.5t-126 -39z" />
    <glyph glyph-name="odieresis" unicode="&#xf6;" horiz-adv-x="1128" 
d="M417 -20q-174 0 -275.5 72t-101.5 237q0 120 52.5 236t143.5 209.5t209.5 149.5t250.5 56q174 0 280.5 -77.5t106.5 -242.5q0 -116 -50 -229.5t-140 -206.5t-211.5 -148.5t-264.5 -55.5zM413 5q27 0 60.5 45.5t69 121.5t69 169t60 188.5t42 181t15.5 144.5q0 29 -6 44.5
t-23 15.5q-27 0 -60.5 -45.5t-69 -121.5t-69 -169t-60 -188.5t-42 -181t-15.5 -144.5q0 -29 6.5 -44.5t22.5 -15.5zM973 1102q-70 0 -119 49.5t-49 119.5q0 69 49 118t119 49q69 0 118.5 -49t49.5 -118q0 -70 -49.5 -119.5t-118.5 -49.5zM513 1102q-70 0 -119 49.5
t-49 119.5q0 69 49 118t119 49q69 0 118.5 -49t49.5 -118q0 -70 -49.5 -119.5t-118.5 -49.5z" />
    <glyph glyph-name="divide" unicode="&#xf7;" horiz-adv-x="1119" 
d="M562 930q-74 0 -128.5 53.5t-54.5 126.5q0 74 54.5 127t128.5 53q75 0 126.5 -53t51.5 -127q0 -73 -51.5 -126.5t-126.5 -53.5zM562 220q-74 0 -128.5 53.5t-54.5 126.5q0 74 54.5 127t128.5 53q75 0 126.5 -53t51.5 -127q0 -73 -51.5 -126.5t-126.5 -53.5zM100 758v24
h920v-24h-920z" />
    <glyph glyph-name="oslash" unicode="&#xf8;" horiz-adv-x="1128" 
d="M-121 -246l1268 1404h32l-1267 -1404h-33zM417 -20q-174 0 -275.5 72t-101.5 237q0 120 52.5 236t143.5 209.5t209.5 149.5t250.5 56q174 0 280.5 -77.5t106.5 -242.5q0 -116 -50 -229.5t-140 -206.5t-211.5 -148.5t-264.5 -55.5zM413 5q27 0 60.5 45.5t69 121.5t69 169
t60 188.5t42 181t15.5 144.5q0 29 -6 44.5t-23 15.5q-27 0 -60.5 -45.5t-69 -121.5t-69 -169t-60 -188.5t-42 -181t-15.5 -144.5q0 -29 6.5 -44.5t22.5 -15.5z" />
    <glyph glyph-name="ugrave" unicode="&#xf9;" horiz-adv-x="1196" 
d="M260 -20q-79 0 -129.5 37.5t-66 105t8.5 159.5l165 613h-123v25h497l-177 -644q-22 -79 -28.5 -119t-2.5 -54t15 -14q17 0 52.5 39.5t80 114t89 178.5t78.5 233h20q-24 -92 -59.5 -187t-80 -182t-98 -156t-114 -109t-127.5 -40zM810 -20q-115 0 -165.5 41.5t-50.5 120.5
q0 19 3 40t7 38l185 700h365l-220 -821q-3 -9 -4.5 -17t-1.5 -15q0 -19 17 -19q13 0 44.5 18.5t78 78.5t104.5 185l24 -8q-51 -111 -106 -187t-122.5 -115.5t-157.5 -39.5zM917 1097l-283 41q-80 12 -124.5 61.5t-51.5 111.5t26 110q20 29 58.5 46t84.5 15.5t89.5 -26.5
t72.5 -80l139 -264z" />
    <glyph glyph-name="uacute" unicode="&#xfa;" horiz-adv-x="1196" 
d="M260 -20q-79 0 -129.5 37.5t-66 105t8.5 159.5l165 613h-123v25h497l-177 -644q-22 -79 -28.5 -119t-2.5 -54t15 -14q17 0 52.5 39.5t80 114t89 178.5t78.5 233h20q-24 -92 -59.5 -187t-80 -182t-98 -156t-114 -109t-127.5 -40zM810 -20q-115 0 -165.5 41.5t-50.5 120.5
q0 19 3 40t7 38l185 700h365l-220 -821q-3 -9 -4.5 -17t-1.5 -15q0 -19 17 -19q13 0 44.5 18.5t78 78.5t104.5 185l24 -8q-51 -111 -106 -187t-122.5 -115.5t-157.5 -39.5zM639 1096l-11 16l139 264q28 55 71 80t89 26.5t85 -15.5t60 -46q33 -48 25.5 -110t-52 -111.5
t-123.5 -61.5z" />
    <glyph glyph-name="ucircumflex" unicode="&#xfb;" horiz-adv-x="1196" 
d="M260 -20q-79 0 -129.5 37.5t-66 105t8.5 159.5l165 613h-123v25h497l-177 -644q-22 -79 -28.5 -119t-2.5 -54t15 -14q17 0 52.5 39.5t80 114t89 178.5t78.5 233h20q-24 -92 -59.5 -187t-80 -182t-98 -156t-114 -109t-127.5 -40zM810 -20q-115 0 -165.5 41.5t-50.5 120.5
q0 19 3 40t7 38l185 700h365l-220 -821q-3 -9 -4.5 -17t-1.5 -15q0 -19 17 -19q13 0 44.5 18.5t78 78.5t104.5 185l24 -8q-51 -111 -106 -187t-122.5 -115.5t-157.5 -39.5zM372 1126l-13 14l325 319h209l236 -319l-12 -12l-334 141z" />
    <glyph glyph-name="udieresis" unicode="&#xfc;" horiz-adv-x="1196" 
d="M260 -20q-79 0 -129.5 37.5t-66 105t8.5 159.5l165 613h-123v25h497l-177 -644q-22 -79 -28.5 -119t-2.5 -54t15 -14q17 0 52.5 39.5t80 114t89 178.5t78.5 233h20q-24 -92 -59.5 -187t-80 -182t-98 -156t-114 -109t-127.5 -40zM810 -20q-115 0 -165.5 41.5t-50.5 120.5
q0 19 3 40t7 38l185 700h365l-220 -821q-3 -9 -4.5 -17t-1.5 -15q0 -19 17 -19q13 0 44.5 18.5t78 78.5t104.5 185l24 -8q-51 -111 -106 -187t-122.5 -115.5t-157.5 -39.5zM975 1102q-70 0 -119 49.5t-49 119.5q0 69 49 118t119 49q69 0 118.5 -49t49.5 -118
q0 -70 -49.5 -119.5t-118.5 -49.5zM515 1102q-70 0 -119 49.5t-49 119.5q0 69 49 118t119 49q69 0 118.5 -49t49.5 -118q0 -70 -49.5 -119.5t-118.5 -49.5z" />
    <glyph glyph-name="yacute" unicode="&#xfd;" horiz-adv-x="1358" 
d="M283 -520q-87 0 -151.5 37t-100.5 100t-36 140q0 56 26.5 104.5t72.5 78t104 29.5q45 0 89.5 -22t73.5 -63.5t29 -101.5q0 -84 -54.5 -137t-133.5 -53q-53 0 -100 22.5t-76 60t-29 82.5h24q0 -70 32 -127.5t90 -92t139 -34.5q93 0 193.5 53.5t201.5 144t195.5 203
t175 232.5t141.5 233t95 204.5t34 145.5q0 50 -24 94.5t-68.5 72.5t-107.5 28v23q64 0 113.5 -29t77 -74t27.5 -95q0 -53 -29.5 -95.5t-77.5 -67t-102 -24.5q-90 0 -151.5 54.5t-61.5 139.5q0 83 59.5 138t144.5 55q78 0 128 -32t74 -81.5t24 -103.5q0 -56 -34 -150
t-95.5 -209.5t-143 -238t-177.5 -237.5t-199.5 -207t-208 -146t-203.5 -54zM700 -289q-37 63 -77 157t-80 203t-77.5 220.5t-70.5 211.5t-57.5 176t-38.5 112q-6 16 -19 40t-43 24q-36 0 -87.5 -38.5t-86.5 -134.5l-24 11q33 90 89.5 144t128 78t149.5 24q145 0 210.5 -56.5
t93.5 -151.5q20 -68 46 -160.5t59 -193t72.5 -195.5t86.5 -167q-28 -37 -58.5 -74t-65 -74t-72 -76t-78.5 -80zM652 1096l-11 16l139 264q28 55 71 80t89 26.5t85 -15.5t60 -46q33 -48 25.5 -110t-52 -111.5t-123.5 -61.5z" />
    <glyph glyph-name="thorn" unicode="&#xfe;" horiz-adv-x="1299" 
d="M-61 -500l459 1985h-140v15h524l-215 -930l-36 -128l-12 -93l-199 -849h-381zM-189 -500v15h649v-15h-649zM604 88q33 0 74 55.5t78 145.5t61.5 196.5t24.5 206.5q0 61 -19.5 98.5t-51.5 37.5q-35 0 -71 -35t-67 -94t-55.5 -130t-38.5 -144t-14 -135q0 -53 8 -99
t25.5 -74.5t45.5 -28.5zM724 -20q-114 0 -162.5 86t-48.5 224q0 65 16.5 149.5t49.5 171.5t83.5 161.5t117.5 120t152 45.5q69 0 143 -30.5t124.5 -105t50.5 -204.5q0 -150 -51 -265t-132.5 -194t-172 -119t-170.5 -40z" />
    <glyph glyph-name="ydieresis" unicode="&#xff;" horiz-adv-x="1358" 
d="M283 -520q-87 0 -151.5 37t-100.5 100t-36 140q0 56 26.5 104.5t72.5 78t104 29.5q45 0 89.5 -22t73.5 -63.5t29 -101.5q0 -84 -54.5 -137t-133.5 -53q-53 0 -100 22.5t-76 60t-29 82.5h24q0 -70 32 -127.5t90 -92t139 -34.5q93 0 193.5 53.5t201.5 144t195.5 203
t175 232.5t141.5 233t95 204.5t34 145.5q0 50 -24 94.5t-68.5 72.5t-107.5 28v23q64 0 113.5 -29t77 -74t27.5 -95q0 -53 -29.5 -95.5t-77.5 -67t-102 -24.5q-90 0 -151.5 54.5t-61.5 139.5q0 83 59.5 138t144.5 55q78 0 128 -32t74 -81.5t24 -103.5q0 -56 -34 -150
t-95.5 -209.5t-143 -238t-177.5 -237.5t-199.5 -207t-208 -146t-203.5 -54zM700 -289q-37 63 -77 157t-80 203t-77.5 220.5t-70.5 211.5t-57.5 176t-38.5 112q-6 16 -19 40t-43 24q-36 0 -87.5 -38.5t-86.5 -134.5l-24 11q33 90 89.5 144t128 78t149.5 24q145 0 210.5 -56.5
t93.5 -151.5q20 -68 46 -160.5t59 -193t72.5 -195.5t86.5 -167q-28 -37 -58.5 -74t-65 -74t-72 -76t-78.5 -80zM988 1102q-70 0 -119 49.5t-49 119.5q0 69 49 118t119 49q69 0 118.5 -49t49.5 -118q0 -70 -49.5 -119.5t-118.5 -49.5zM528 1102q-70 0 -119 49.5t-49 119.5
q0 69 49 118t119 49q69 0 118.5 -49t49.5 -118q0 -70 -49.5 -119.5t-118.5 -49.5z" />
    <glyph glyph-name="Amacron" unicode="&#x100;" 
d="M66 0l882 1529h222l189 -1529h-449l-123 1200l-693 -1200h-28zM-100 0v25h440v-25h-440zM680 0v25h820v-25h-820zM369 477v25h651v-25h-651zM774 1700v25h480v-25h-480z" />
    <glyph glyph-name="amacron" unicode="&#x101;" horiz-adv-x="1167" 
d="M300 -20q-143 0 -205 89.5t-62 235.5q0 115 42.5 227.5t115 204.5t163 147.5t186.5 55.5q53 0 90.5 -24t57.5 -69.5t20 -109.5q0 -31 -10.5 -98.5t-32 -153t-54.5 -174t-78 -163.5t-103 -121.5t-130 -46.5zM442 89q25 0 58 46t65.5 121.5t60.5 164t45 174.5t17 154
q0 26 -5 43.5t-13.5 26.5t-19.5 9q-28 0 -61.5 -47.5t-66.5 -124t-60.5 -165t-44.5 -174t-17 -148.5q0 -34 9.5 -57t32.5 -23zM789 -20q-109 0 -159 47.5t-50 128.5q0 23 2 38.5t4 25.5l32 150l50 163l25 145l59 242h369l-219 -825q-4 -15 -4 -29q0 -8 4.5 -13t12.5 -5
q13 0 44.5 18.5t78 78.5t104.5 185l25 -8q-53 -111 -107 -187t-119.5 -115.5t-151.5 -39.5zM439 1120v25h480v-25h-480z" />
    <glyph glyph-name="Abreve" unicode="&#x102;" 
d="M66 0l882 1529h222l189 -1529h-449l-123 1200l-693 -1200h-28zM-100 0v25h440v-25h-440zM680 0v25h820v-25h-820zM369 477v25h651v-25h-651zM1057 1682q-83 0 -128 41t-62.5 102t-17 125t7.5 109h25q-5 -37 22 -60.5t73 -35.5t100 -12t111.5 7t102.5 29.5t61 71.5h25
q-7 -45 -25 -109t-52.5 -125t-93.5 -102t-149 -41z" />
    <glyph glyph-name="abreve" unicode="&#x103;" horiz-adv-x="1167" 
d="M300 -20q-143 0 -205 89.5t-62 235.5q0 115 42.5 227.5t115 204.5t163 147.5t186.5 55.5q53 0 90.5 -24t57.5 -69.5t20 -109.5q0 -31 -10.5 -98.5t-32 -153t-54.5 -174t-78 -163.5t-103 -121.5t-130 -46.5zM442 89q25 0 58 46t65.5 121.5t60.5 164t45 174.5t17 154
q0 26 -5 43.5t-13.5 26.5t-19.5 9q-28 0 -61.5 -47.5t-66.5 -124t-60.5 -165t-44.5 -174t-17 -148.5q0 -34 9.5 -57t32.5 -23zM789 -20q-109 0 -159 47.5t-50 128.5q0 23 2 38.5t4 25.5l32 150l50 163l25 145l59 242h369l-219 -825q-4 -15 -4 -29q0 -8 4.5 -13t12.5 -5
q13 0 44.5 18.5t78 78.5t104.5 185l25 -8q-53 -111 -107 -187t-119.5 -115.5t-151.5 -39.5zM722 1102q-83 0 -128 41t-62.5 102t-17 125t7.5 109h25q-5 -37 22 -60.5t73 -35.5t100 -12t111.5 7t102.5 29.5t61 71.5h25q-7 -45 -25 -109t-52.5 -125t-93.5 -102t-149 -41z" />
    <glyph glyph-name="Aogonek" unicode="&#x104;" 
d="M66 0l882 1529h222l189 -1529h-449l-123 1200l-693 -1200h-28zM-100 0v25h440v-25h-440zM680 0v25h820v-25h-820zM369 477v25h651v-25h-651zM944 -473q-71 0 -127.5 16.5t-89.5 50t-33 83.5q0 60 45.5 112.5t120 97.5t160 81t164.5 61l6 -13q-31 -24 -62.5 -74
t-52 -111.5t-20.5 -121.5q0 -48 12 -79t39 -31q31 0 61 22.5t53.5 51t33.5 49.5l20 -10q-15 -28 -54 -72t-107 -78.5t-169 -34.5z" />
    <glyph glyph-name="aogonek" unicode="&#x105;" horiz-adv-x="1167" 
d="M300 -20q-143 0 -205 89.5t-62 235.5q0 115 42.5 227.5t115 204.5t163 147.5t186.5 55.5q53 0 90.5 -24t57.5 -69.5t20 -109.5q0 -31 -10.5 -98.5t-32 -153t-54.5 -174t-78 -163.5t-103 -121.5t-130 -46.5zM442 89q25 0 58 46t65.5 121.5t60.5 164t45 174.5t17 154
q0 26 -5 43.5t-13.5 26.5t-19.5 9q-28 0 -61.5 -47.5t-66.5 -124t-60.5 -165t-44.5 -174t-17 -148.5q0 -34 9.5 -57t32.5 -23zM789 -20q-109 0 -159 47.5t-50 128.5q0 23 2 38.5t4 25.5l32 150l50 163l25 145l59 242h369l-219 -825q-4 -15 -4 -29q0 -8 4.5 -13t12.5 -5
q13 0 44.5 18.5t78 78.5t104.5 185l25 -8q-53 -111 -107 -187t-119.5 -115.5t-151.5 -39.5zM683 -473q-71 0 -127.5 16.5t-89.5 50t-33 83.5q0 60 45.5 112.5t120 97.5t160 81t164.5 61l6 -13q-31 -24 -62.5 -74t-52 -111.5t-20.5 -121.5q0 -48 12 -79t39 -31q31 0 61 22.5
t53.5 51t33.5 49.5l20 -10q-15 -28 -54 -72t-107 -78.5t-169 -34.5z" />
    <glyph glyph-name="Cacute" unicode="&#x106;" horiz-adv-x="1455" 
d="M710 -20q-183 0 -320.5 64.5t-213.5 183.5t-76 282q0 205 70 387.5t195 322.5t290 220t355 80q138 0 234.5 -63t154 -174t81.5 -254h-15q-27 127 -70.5 213t-96 138.5t-106.5 75t-102 22.5q-92 0 -168.5 -57.5t-137.5 -154t-107 -216t-76.5 -247t-45.5 -245t-15 -208.5
q0 -92 13 -167.5t61 -120t152 -44.5t205 60.5t197.5 163t186.5 229.5h15q-80 -123 -178.5 -235.5t-218.5 -184t-263 -71.5zM1248 0l-181 131q55 43 110 100t111 132l67 108h25l-110 -471h-22zM1465 1029l-18 109q-24 73 -50.5 124.5t-66.5 97.5l244 140h22l-106 -471h-25z
M949 1677l-11 16l139 264q28 55 71 80t89 26.5t85 -15.5t60 -46q33 -48 25.5 -110t-52 -111.5t-123.5 -61.5z" />
    <glyph glyph-name="cacute" unicode="&#x107;" horiz-adv-x="1035" 
d="M397 -20q-171 0 -264 79t-93 222q0 117 52 233.5t143.5 213t211.5 154.5t256 58q97 0 172 -33.5t117.5 -90.5t42.5 -126q0 -83 -56 -138.5t-137 -55.5q-75 0 -132 41t-57 123q0 79 54.5 129t133.5 50q42 0 86.5 -18.5t75 -52t30.5 -78.5h-20q0 62 -36.5 109t-88.5 73.5
t-99 26.5q-78 0 -141.5 -57.5t-112 -151t-81 -199.5t-49.5 -204.5t-17 -166.5q0 -54 25.5 -76.5t64.5 -22.5q80 0 155 37.5t140.5 95.5t114.5 120l21 -15q-54 -65 -125 -129.5t-166 -107t-221 -42.5zM644 1096l-11 16l139 264q28 55 71 80t89 26.5t85 -15.5t60 -46
q33 -48 25.5 -110t-52 -111.5t-123.5 -61.5z" />
    <glyph glyph-name="Ccircumflex" unicode="&#x108;" horiz-adv-x="1455" 
d="M710 -20q-183 0 -320.5 64.5t-213.5 183.5t-76 282q0 205 70 387.5t195 322.5t290 220t355 80q138 0 234.5 -63t154 -174t81.5 -254h-15q-27 127 -70.5 213t-96 138.5t-106.5 75t-102 22.5q-92 0 -168.5 -57.5t-137.5 -154t-107 -216t-76.5 -247t-45.5 -245t-15 -208.5
q0 -92 13 -167.5t61 -120t152 -44.5t205 60.5t197.5 163t186.5 229.5h15q-80 -123 -178.5 -235.5t-218.5 -184t-263 -71.5zM1248 0l-181 131q55 43 110 100t111 132l67 108h25l-110 -471h-22zM1465 1029l-18 109q-24 73 -50.5 124.5t-66.5 97.5l244 140h22l-106 -471h-25z
M682 1707l-13 14l325 319h209l236 -319l-12 -12l-334 141z" />
    <glyph glyph-name="ccircumflex" unicode="&#x109;" horiz-adv-x="1035" 
d="M397 -20q-171 0 -264 79t-93 222q0 117 52 233.5t143.5 213t211.5 154.5t256 58q97 0 172 -33.5t117.5 -90.5t42.5 -126q0 -83 -56 -138.5t-137 -55.5q-75 0 -132 41t-57 123q0 79 54.5 129t133.5 50q42 0 86.5 -18.5t75 -52t30.5 -78.5h-20q0 62 -36.5 109t-88.5 73.5
t-99 26.5q-78 0 -141.5 -57.5t-112 -151t-81 -199.5t-49.5 -204.5t-17 -166.5q0 -54 25.5 -76.5t64.5 -22.5q80 0 155 37.5t140.5 95.5t114.5 120l21 -15q-54 -65 -125 -129.5t-166 -107t-221 -42.5zM377 1126l-13 14l325 319h209l236 -319l-12 -12l-334 141z" />
    <glyph glyph-name="Cdotaccent" unicode="&#x10a;" horiz-adv-x="1455" 
d="M710 -20q-183 0 -320.5 64.5t-213.5 183.5t-76 282q0 205 70 387.5t195 322.5t290 220t355 80q138 0 234.5 -63t154 -174t81.5 -254h-15q-27 127 -70.5 213t-96 138.5t-106.5 75t-102 22.5q-92 0 -168.5 -57.5t-137.5 -154t-107 -216t-76.5 -247t-45.5 -245t-15 -208.5
q0 -92 13 -167.5t61 -120t152 -44.5t205 60.5t197.5 163t186.5 229.5h15q-80 -123 -178.5 -235.5t-218.5 -184t-263 -71.5zM1248 0l-181 131q55 43 110 100t111 132l67 108h25l-110 -471h-22zM1465 1029l-18 109q-24 73 -50.5 124.5t-66.5 97.5l244 140h22l-106 -471h-25z
M1095 1660q-63 0 -112.5 31t-78 81.5t-28.5 108.5t28.5 108t78 81t112.5 31t113 -31t79 -81t29 -108t-29 -108.5t-79 -81.5t-113 -31z" />
    <glyph glyph-name="cdotaccent" unicode="&#x10b;" horiz-adv-x="1035" 
d="M397 -20q-171 0 -264 79t-93 222q0 117 52 233.5t143.5 213t211.5 154.5t256 58q97 0 172 -33.5t117.5 -90.5t42.5 -126q0 -83 -56 -138.5t-137 -55.5q-75 0 -132 41t-57 123q0 79 54.5 129t133.5 50q42 0 86.5 -18.5t75 -52t30.5 -78.5h-20q0 62 -36.5 109t-88.5 73.5
t-99 26.5q-78 0 -141.5 -57.5t-112 -151t-81 -199.5t-49.5 -204.5t-17 -166.5q0 -54 25.5 -76.5t64.5 -22.5q80 0 155 37.5t140.5 95.5t114.5 120l21 -15q-54 -65 -125 -129.5t-166 -107t-221 -42.5zM790 1079q-63 0 -112.5 31t-78 81.5t-28.5 108.5t28.5 108t78 81
t112.5 31t113 -31t79 -81t29 -108t-29 -108.5t-79 -81.5t-113 -31z" />
    <glyph glyph-name="Ccaron" unicode="&#x10c;" horiz-adv-x="1455" 
d="M710 -20q-183 0 -320.5 64.5t-213.5 183.5t-76 282q0 205 70 387.5t195 322.5t290 220t355 80q138 0 234.5 -63t154 -174t81.5 -254h-15q-27 127 -70.5 213t-96 138.5t-106.5 75t-102 22.5q-92 0 -168.5 -57.5t-137.5 -154t-107 -216t-76.5 -247t-45.5 -245t-15 -208.5
q0 -92 13 -167.5t61 -120t152 -44.5t205 60.5t197.5 163t186.5 229.5h15q-80 -123 -178.5 -235.5t-218.5 -184t-263 -71.5zM1248 0l-181 131q55 43 110 100t111 132l67 108h25l-110 -471h-22zM1465 1029l-18 109q-24 73 -50.5 124.5t-66.5 97.5l244 140h22l-106 -471h-25z
M951 1701l-236 321l13 13l333 -143l413 141l12 -11l-325 -321h-210z" />
    <glyph glyph-name="ccaron" unicode="&#x10d;" horiz-adv-x="1035" 
d="M397 -20q-171 0 -264 79t-93 222q0 117 52 233.5t143.5 213t211.5 154.5t256 58q97 0 172 -33.5t117.5 -90.5t42.5 -126q0 -83 -56 -138.5t-137 -55.5q-75 0 -132 41t-57 123q0 79 54.5 129t133.5 50q42 0 86.5 -18.5t75 -52t30.5 -78.5h-20q0 62 -36.5 109t-88.5 73.5
t-99 26.5q-78 0 -141.5 -57.5t-112 -151t-81 -199.5t-49.5 -204.5t-17 -166.5q0 -54 25.5 -76.5t64.5 -22.5q80 0 155 37.5t140.5 95.5t114.5 120l21 -15q-54 -65 -125 -129.5t-166 -107t-221 -42.5zM646 1120l-236 321l13 13l333 -143l413 141l12 -11l-325 -321h-210z" />
    <glyph glyph-name="Dcaron" unicode="&#x10e;" 
d="M-80 0v25h730q92 0 167 58t134.5 155.5t102.5 217.5t71.5 244.5t42.5 236.5t14 193q0 69 -7 131.5t-28.5 110.5t-63.5 75.5t-112 27.5h-731v25h789q163 0 302.5 -57t224.5 -178.5t85 -314.5q0 -182 -65.5 -352t-185.5 -305t-287.5 -214t-372.5 -79h-810zM100 0l339 1500
h431l-341 -1500h-429zM849 1700l-236 321l13 13l333 -143l413 141l12 -11l-325 -321h-210z" />
    <glyph glyph-name="dcaron" unicode="&#x10f;" horiz-adv-x="1227" 
d="M789 -20q-109 0 -159 47.5t-50 128.5q0 18 1.5 34t4.5 30l32 150l56 163l13 121l221 821h-148v25h514l-372 -1405q-4 -16 -4 -29q0 -7 3.5 -12.5t13.5 -5.5q15 0 45.5 18.5t77 78.5t104.5 185l25 -8q-53 -111 -107 -187t-119.5 -115.5t-151.5 -39.5zM301 -20
q-144 0 -206 89.5t-62 235.5q0 115 42.5 227.5t115 204.5t163 147.5t186.5 55.5q53 0 90.5 -24t57.5 -69.5t20 -109.5q0 -30 -10.5 -97t-31.5 -153t-54 -174.5t-78.5 -164t-103.5 -122t-129 -46.5zM442 89q25 0 58 46t65.5 121.5t60.5 164t45 175t17 153.5q0 25 -5 43
t-13.5 27t-19.5 9q-28 0 -61.5 -47.5t-66.5 -124t-60.5 -165t-44.5 -174t-17 -148.5q0 -34 10 -57t32 -23zM1260 906v20q87 0 176.5 23t164 69t120.5 116.5t46 166.5h18q0 -56 -33 -92t-80.5 -53t-91.5 -17q-93 0 -148.5 53.5t-55.5 132.5q0 51 28.5 95.5t75 72t100.5 27.5
q83 0 145 -60t62 -159t-46.5 -173t-124 -123.5t-170.5 -74t-186 -24.5z" />
    <glyph glyph-name="Dcroat" unicode="&#x110;" 
d="M115 718v24h785v-24h-785zM-80 0v25h730q92 0 167 58t134.5 155.5t102.5 217.5t71.5 244.5t42.5 236.5t14 193q0 69 -7 131.5t-28.5 110.5t-63.5 75.5t-112 27.5h-731v25h789q163 0 302.5 -57t224.5 -178.5t85 -314.5q0 -182 -65.5 -352t-185.5 -305t-287.5 -214
t-372.5 -79h-810zM100 0l339 1500h431l-341 -1500h-429z" />
    <glyph glyph-name="dcroat" unicode="&#x111;" horiz-adv-x="1227" 
d="M584 1128v24h730v-24h-730zM789 -20q-109 0 -159 47.5t-50 128.5q0 18 1.5 34t4.5 30l32 150l56 163l13 121l221 821h-148v25h514l-372 -1405q-4 -16 -4 -29q0 -7 3.5 -12.5t13.5 -5.5q15 0 45.5 18.5t77 78.5t104.5 185l25 -8q-53 -111 -107 -187t-119.5 -115.5
t-151.5 -39.5zM301 -20q-144 0 -206 89.5t-62 235.5q0 115 42.5 227.5t115 204.5t163 147.5t186.5 55.5q53 0 90.5 -24t57.5 -69.5t20 -109.5q0 -30 -10.5 -97t-31.5 -153t-54 -174.5t-78.5 -164t-103.5 -122t-129 -46.5zM442 89q25 0 58 46t65.5 121.5t60.5 164t45 175
t17 153.5q0 25 -5 43t-13.5 27t-19.5 9q-28 0 -61.5 -47.5t-66.5 -124t-60.5 -165t-44.5 -174t-17 -148.5q0 -34 10 -57t32 -23z" />
    <glyph glyph-name="Emacron" unicode="&#x112;" horiz-adv-x="1327" 
d="M70 0l348 1500h430l-348 -1500h-430zM-100 0v25h730q137 0 251 53.5t201.5 149t146.5 222.5h25l-104 -450h-1250zM939 496q-15 67 -45.5 128.5t-75.5 100t-102 38.5h-122v25h122q57 0 121.5 36.5t124.5 95.5t105 126h25l-128 -550h-25zM1357 1090q-5 107 -50.5 194.5
t-128 139t-199.5 51.5h-741v25h1240l-96 -410h-25zM664 1700v25h480v-25h-480z" />
    <glyph glyph-name="emacron" unicode="&#x113;" horiz-adv-x="1063" 
d="M397 -20q-121 0 -200 44.5t-118 117.5t-39 158q0 131 50 247t137.5 204.5t201.5 138.5t242 50q176 0 274 -70.5t98 -171.5q0 -64 -35 -119t-110.5 -97.5t-197 -69.5t-295.5 -35v17q56 3 108.5 47.5t96 110.5t76.5 136t51.5 125t18.5 75q0 13 -4.5 20t-18.5 7
q-32 0 -70.5 -45t-77 -120.5t-74 -165.5t-63.5 -183t-44 -174t-16 -134q0 -44 21.5 -60.5t61.5 -16.5q59 0 131 29t146 86t140 143l21 -15q-54 -65 -125 -129.5t-165.5 -107t-221.5 -42.5zM445 1120v25h480v-25h-480z" />
    <glyph glyph-name="Ebreve" unicode="&#x114;" horiz-adv-x="1327" 
d="M70 0l348 1500h430l-348 -1500h-430zM-100 0v25h730q137 0 251 53.5t201.5 149t146.5 222.5h25l-104 -450h-1250zM939 496q-15 67 -45.5 128.5t-75.5 100t-102 38.5h-122v25h122q57 0 121.5 36.5t124.5 95.5t105 126h25l-128 -550h-25zM1357 1090q-5 107 -50.5 194.5
t-128 139t-199.5 51.5h-741v25h1240l-96 -410h-25zM947 1682q-83 0 -128 41t-62.5 102t-17 125t7.5 109h25q-5 -37 22 -60.5t73 -35.5t100 -12t111.5 7t102.5 29.5t61 71.5h25q-7 -45 -25 -109t-52.5 -125t-93.5 -102t-149 -41z" />
    <glyph glyph-name="ebreve" unicode="&#x115;" horiz-adv-x="1063" 
d="M397 -20q-121 0 -200 44.5t-118 117.5t-39 158q0 131 50 247t137.5 204.5t201.5 138.5t242 50q176 0 274 -70.5t98 -171.5q0 -64 -35 -119t-110.5 -97.5t-197 -69.5t-295.5 -35v17q56 3 108.5 47.5t96 110.5t76.5 136t51.5 125t18.5 75q0 13 -4.5 20t-18.5 7
q-32 0 -70.5 -45t-77 -120.5t-74 -165.5t-63.5 -183t-44 -174t-16 -134q0 -44 21.5 -60.5t61.5 -16.5q59 0 131 29t146 86t140 143l21 -15q-54 -65 -125 -129.5t-165.5 -107t-221.5 -42.5zM728 1102q-83 0 -128 41t-62.5 102t-17 125t7.5 109h25q-5 -37 22 -60.5t73 -35.5
t100 -12t111.5 7t102.5 29.5t61 71.5h25q-7 -45 -25 -109t-52.5 -125t-93.5 -102t-149 -41z" />
    <glyph glyph-name="Edotaccent" unicode="&#x116;" horiz-adv-x="1327" 
d="M70 0l348 1500h430l-348 -1500h-430zM-100 0v25h730q137 0 251 53.5t201.5 149t146.5 222.5h25l-104 -450h-1250zM939 496q-15 67 -45.5 128.5t-75.5 100t-102 38.5h-122v25h122q57 0 121.5 36.5t124.5 95.5t105 126h25l-128 -550h-25zM1357 1090q-5 107 -50.5 194.5
t-128 139t-199.5 51.5h-741v25h1240l-96 -410h-25zM993 1659q-63 0 -112.5 31t-78 81.5t-28.5 108.5t28.5 108t78 81t112.5 31t113 -31t79 -81t29 -108t-29 -108.5t-79 -81.5t-113 -31z" />
    <glyph glyph-name="edotaccent" unicode="&#x117;" horiz-adv-x="1063" 
d="M397 -20q-121 0 -200 44.5t-118 117.5t-39 158q0 131 50 247t137.5 204.5t201.5 138.5t242 50q176 0 274 -70.5t98 -171.5q0 -64 -35 -119t-110.5 -97.5t-197 -69.5t-295.5 -35v17q56 3 108.5 47.5t96 110.5t76.5 136t51.5 125t18.5 75q0 13 -4.5 20t-18.5 7
q-32 0 -70.5 -45t-77 -120.5t-74 -165.5t-63.5 -183t-44 -174t-16 -134q0 -44 21.5 -60.5t61.5 -16.5q59 0 131 29t146 86t140 143l21 -15q-54 -65 -125 -129.5t-165.5 -107t-221.5 -42.5zM774 1079q-63 0 -112.5 31t-78 81.5t-28.5 108.5t28.5 108t78 81t112.5 31t113 -31
t79 -81t29 -108t-29 -108.5t-79 -81.5t-113 -31z" />
    <glyph glyph-name="Eogonek" unicode="&#x118;" horiz-adv-x="1327" 
d="M70 0l348 1500h430l-348 -1500h-430zM-100 0v25h730q137 0 251 53.5t201.5 149t146.5 222.5h25l-104 -450h-1250zM939 496q-15 67 -45.5 128.5t-75.5 100t-102 38.5h-122v25h122q57 0 121.5 36.5t124.5 95.5t105 126h25l-128 -550h-25zM1357 1090q-5 107 -50.5 194.5
t-128 139t-199.5 51.5h-741v25h1240l-96 -410h-25zM814 -473q-71 0 -127.5 16.5t-89.5 50t-33 83.5q0 60 45.5 112.5t120 97.5t160 81t164.5 61l6 -13q-31 -24 -62.5 -74t-52 -111.5t-20.5 -121.5q0 -48 12 -79t39 -31q31 0 61 22.5t53.5 51t33.5 49.5l20 -10
q-15 -28 -54 -72t-107 -78.5t-169 -34.5z" />
    <glyph glyph-name="eogonek" unicode="&#x119;" horiz-adv-x="1063" 
d="M397 -20q-121 0 -200 44.5t-118 117.5t-39 158q0 131 50 247t137.5 204.5t201.5 138.5t242 50q176 0 274 -70.5t98 -171.5q0 -64 -35 -119t-110.5 -97.5t-197 -69.5t-295.5 -35v17q56 3 108.5 47.5t96 110.5t76.5 136t51.5 125t18.5 75q0 13 -4.5 20t-18.5 7
q-32 0 -70.5 -45t-77 -120.5t-74 -165.5t-63.5 -183t-44 -174t-16 -134q0 -44 21.5 -60.5t61.5 -16.5q59 0 131 29t146 86t140 143l21 -15q-54 -65 -125 -129.5t-165.5 -107t-221.5 -42.5zM351 -473q-71 0 -127.5 16.5t-89.5 50t-33 83.5q0 60 45.5 112.5t120 97.5t160 81
t164.5 61l6 -13q-31 -24 -62.5 -74t-52 -111.5t-20.5 -121.5q0 -48 12 -79t39 -31q31 0 61 22.5t53.5 51t33.5 49.5l20 -10q-15 -28 -54 -72t-107 -78.5t-169 -34.5z" />
    <glyph glyph-name="Ecaron" unicode="&#x11a;" horiz-adv-x="1327" 
d="M70 0l348 1500h430l-348 -1500h-430zM-100 0v25h730q137 0 251 53.5t201.5 149t146.5 222.5h25l-104 -450h-1250zM939 496q-15 67 -45.5 128.5t-75.5 100t-102 38.5h-122v25h122q57 0 121.5 36.5t124.5 95.5t105 126h25l-128 -550h-25zM1357 1090q-5 107 -50.5 194.5
t-128 139t-199.5 51.5h-741v25h1240l-96 -410h-25zM849 1700l-236 321l13 13l333 -143l413 141l12 -11l-325 -321h-210z" />
    <glyph glyph-name="ecaron" unicode="&#x11b;" horiz-adv-x="1063" 
d="M397 -20q-121 0 -200 44.5t-118 117.5t-39 158q0 131 50 247t137.5 204.5t201.5 138.5t242 50q176 0 274 -70.5t98 -171.5q0 -64 -35 -119t-110.5 -97.5t-197 -69.5t-295.5 -35v17q56 3 108.5 47.5t96 110.5t76.5 136t51.5 125t18.5 75q0 13 -4.5 20t-18.5 7
q-32 0 -70.5 -45t-77 -120.5t-74 -165.5t-63.5 -183t-44 -174t-16 -134q0 -44 21.5 -60.5t61.5 -16.5q59 0 131 29t146 86t140 143l21 -15q-54 -65 -125 -129.5t-165.5 -107t-221.5 -42.5zM630 1120l-236 321l13 13l333 -143l413 141l12 -11l-325 -321h-210z" />
    <glyph glyph-name="Gcircumflex" unicode="&#x11c;" horiz-adv-x="1665" 
d="M710 -20q-173 0 -311 56t-218.5 173.5t-80.5 300.5q0 176 53.5 330t147.5 279t217.5 214.5t264.5 138t287 48.5q139 0 242.5 -63t166 -174t80.5 -254h-16q-17 107 -55 189.5t-91 140t-115.5 87t-131.5 29.5q-117 0 -213 -72.5t-170 -192.5t-124.5 -264t-76.5 -289
t-26 -266q0 -102 15 -190t54.5 -142t113.5 -54q40 0 74.5 20.5t65 55.5t58 79t54.5 90l82 316h448l-62 -236q-33 -47 -105.5 -107t-172 -115.5t-216.5 -91.5t-239 -36zM840 557v25h740v-25h-740zM1546 1029l-17 96q-18 60 -54 133.5t-86 127.5l265 114h22l-108 -471h-22z
M752 1706l-13 14l325 319h209l236 -319l-12 -12l-334 141z" />
    <glyph glyph-name="gcircumflex" unicode="&#x11d;" horiz-adv-x="1270" 
d="M280 -520q-123 0 -225.5 21.5t-163.5 69.5t-61 128q0 38 23.5 73.5t69.5 63t112.5 43.5t153.5 16h15q-21 -13 -46 -42.5t-43.5 -71.5t-18.5 -91q0 -95 71 -135t204 -40q72 0 150.5 20.5t146 56t109.5 82t42 98.5q0 50 -27.5 80t-91.5 30h-60.5h-96h-106h-92h-52.5
q-90 0 -169.5 26t-128.5 75t-49 119q0 64 41 110.5t107 76.5t144 44.5t153 14.5l-1 -15q-103 0 -154 -26.5t-51 -55.5q0 -22 19 -33.5t57 -15t93 -3.5q35 0 85.5 0.5t99.5 1t77 0.5q135 0 220 -70.5t85 -214.5q0 -109 -56 -191t-149 -136.5t-206.5 -81.5t-229.5 -27z
M498 320q-116 0 -207 33t-143.5 94t-52.5 146q0 96 69 174.5t183.5 125t250.5 46.5q116 0 207 -35t143.5 -98.5t52.5 -148.5q0 -95 -69 -171.5t-183 -121t-251 -44.5zM467 347q17 0 40.5 44t47.5 113t45 143.5t33.5 137t12.5 91.5q0 15 -3 26.5t-14 11.5q-17 0 -40.5 -44.5
t-47.5 -113t-45 -143t-33.5 -136.5t-12.5 -91q0 -16 3.5 -27.5t13.5 -11.5zM1136 930q89 0 148 -55.5t59 -135.5q0 -71 -41 -120.5t-118 -49.5q-62 0 -105 43t-43 109q0 62 46.5 101t108.5 40q31 0 59 -17.5t37 -48.5q-11 47 -53.5 78.5t-101.5 31.5q-57 0 -106 -22
t-90 -67.5t-76 -116.5l-18 9q53 111 125 166t169 55zM281 1126l-13 14l325 319h209l236 -319l-12 -12l-334 141z" />
    <glyph glyph-name="Gbreve" unicode="&#x11e;" horiz-adv-x="1665" 
d="M710 -20q-173 0 -311 56t-218.5 173.5t-80.5 300.5q0 176 53.5 330t147.5 279t217.5 214.5t264.5 138t287 48.5q139 0 242.5 -63t166 -174t80.5 -254h-16q-17 107 -55 189.5t-91 140t-115.5 87t-131.5 29.5q-117 0 -213 -72.5t-170 -192.5t-124.5 -264t-76.5 -289
t-26 -266q0 -102 15 -190t54.5 -142t113.5 -54q40 0 74.5 20.5t65 55.5t58 79t54.5 90l82 316h448l-62 -236q-33 -47 -105.5 -107t-172 -115.5t-216.5 -91.5t-239 -36zM840 557v25h740v-25h-740zM1546 1029l-17 96q-18 60 -54 133.5t-86 127.5l265 114h22l-108 -471h-22z
M1119 1682q-83 0 -128 41t-62.5 102t-17 125t7.5 109h25q-5 -37 22 -60.5t73 -35.5t100 -12t111.5 7t102.5 29.5t61 71.5h25q-7 -45 -25 -109t-52.5 -125t-93.5 -102t-149 -41z" />
    <glyph glyph-name="gbreve" unicode="&#x11f;" horiz-adv-x="1270" 
d="M280 -520q-123 0 -225.5 21.5t-163.5 69.5t-61 128q0 38 23.5 73.5t69.5 63t112.5 43.5t153.5 16h15q-21 -13 -46 -42.5t-43.5 -71.5t-18.5 -91q0 -95 71 -135t204 -40q72 0 150.5 20.5t146 56t109.5 82t42 98.5q0 50 -27.5 80t-91.5 30h-60.5h-96h-106h-92h-52.5
q-90 0 -169.5 26t-128.5 75t-49 119q0 64 41 110.5t107 76.5t144 44.5t153 14.5l-1 -15q-103 0 -154 -26.5t-51 -55.5q0 -22 19 -33.5t57 -15t93 -3.5q35 0 85.5 0.5t99.5 1t77 0.5q135 0 220 -70.5t85 -214.5q0 -109 -56 -191t-149 -136.5t-206.5 -81.5t-229.5 -27z
M498 320q-116 0 -207 33t-143.5 94t-52.5 146q0 96 69 174.5t183.5 125t250.5 46.5q116 0 207 -35t143.5 -98.5t52.5 -148.5q0 -95 -69 -171.5t-183 -121t-251 -44.5zM467 347q17 0 40.5 44t47.5 113t45 143.5t33.5 137t12.5 91.5q0 15 -3 26.5t-14 11.5q-17 0 -40.5 -44.5
t-47.5 -113t-45 -143t-33.5 -136.5t-12.5 -91q0 -16 3.5 -27.5t13.5 -11.5zM1136 930q89 0 148 -55.5t59 -135.5q0 -71 -41 -120.5t-118 -49.5q-62 0 -105 43t-43 109q0 62 46.5 101t108.5 40q31 0 59 -17.5t37 -48.5q-11 47 -53.5 78.5t-101.5 31.5q-57 0 -106 -22
t-90 -67.5t-76 -116.5l-18 9q53 111 125 166t169 55zM647 1102q-83 0 -128 41t-62.5 102t-17 125t7.5 109h25q-5 -37 22 -60.5t73 -35.5t100 -12t111.5 7t102.5 29.5t61 71.5h25q-7 -45 -25 -109t-52.5 -125t-93.5 -102t-149 -41z" />
    <glyph glyph-name="Gdotaccent" unicode="&#x120;" horiz-adv-x="1665" 
d="M710 -20q-173 0 -311 56t-218.5 173.5t-80.5 300.5q0 176 53.5 330t147.5 279t217.5 214.5t264.5 138t287 48.5q139 0 242.5 -63t166 -174t80.5 -254h-16q-17 107 -55 189.5t-91 140t-115.5 87t-131.5 29.5q-117 0 -213 -72.5t-170 -192.5t-124.5 -264t-76.5 -289
t-26 -266q0 -102 15 -190t54.5 -142t113.5 -54q40 0 74.5 20.5t65 55.5t58 79t54.5 90l82 316h448l-62 -236q-33 -47 -105.5 -107t-172 -115.5t-216.5 -91.5t-239 -36zM840 557v25h740v-25h-740zM1546 1029l-17 96q-18 60 -54 133.5t-86 127.5l265 114h22l-108 -471h-22z
M1165 1659q-63 0 -112.5 31t-78 81.5t-28.5 108.5t28.5 108t78 81t112.5 31t113 -31t79 -81t29 -108t-29 -108.5t-79 -81.5t-113 -31z" />
    <glyph glyph-name="gdotaccent" unicode="&#x121;" horiz-adv-x="1270" 
d="M280 -520q-123 0 -225.5 21.5t-163.5 69.5t-61 128q0 38 23.5 73.5t69.5 63t112.5 43.5t153.5 16h15q-21 -13 -46 -42.5t-43.5 -71.5t-18.5 -91q0 -95 71 -135t204 -40q72 0 150.5 20.5t146 56t109.5 82t42 98.5q0 50 -27.5 80t-91.5 30h-60.5h-96h-106h-92h-52.5
q-90 0 -169.5 26t-128.5 75t-49 119q0 64 41 110.5t107 76.5t144 44.5t153 14.5l-1 -15q-103 0 -154 -26.5t-51 -55.5q0 -22 19 -33.5t57 -15t93 -3.5q35 0 85.5 0.5t99.5 1t77 0.5q135 0 220 -70.5t85 -214.5q0 -109 -56 -191t-149 -136.5t-206.5 -81.5t-229.5 -27z
M498 320q-116 0 -207 33t-143.5 94t-52.5 146q0 96 69 174.5t183.5 125t250.5 46.5q116 0 207 -35t143.5 -98.5t52.5 -148.5q0 -95 -69 -171.5t-183 -121t-251 -44.5zM467 347q17 0 40.5 44t47.5 113t45 143.5t33.5 137t12.5 91.5q0 15 -3 26.5t-14 11.5q-17 0 -40.5 -44.5
t-47.5 -113t-45 -143t-33.5 -136.5t-12.5 -91q0 -16 3.5 -27.5t13.5 -11.5zM1136 930q89 0 148 -55.5t59 -135.5q0 -71 -41 -120.5t-118 -49.5q-62 0 -105 43t-43 109q0 62 46.5 101t108.5 40q31 0 59 -17.5t37 -48.5q-11 47 -53.5 78.5t-101.5 31.5q-57 0 -106 -22
t-90 -67.5t-76 -116.5l-18 9q53 111 125 166t169 55zM693 1079q-63 0 -112.5 31t-78 81.5t-28.5 108.5t28.5 108t78 81t112.5 31t113 -31t79 -81t29 -108t-29 -108.5t-79 -81.5t-113 -31z" />
    <glyph glyph-name="uni0122" unicode="&#x122;" horiz-adv-x="1665" 
d="M710 -20q-173 0 -311 56t-218.5 173.5t-80.5 300.5q0 176 53.5 330t147.5 279t217.5 214.5t264.5 138t287 48.5q139 0 242.5 -63t166 -174t80.5 -254h-16q-17 107 -55 189.5t-91 140t-115.5 87t-131.5 29.5q-117 0 -213 -72.5t-170 -192.5t-124.5 -264t-76.5 -289
t-26 -266q0 -102 15 -190t54.5 -142t113.5 -54q40 0 74.5 20.5t65 55.5t58 79t54.5 90l82 316h448l-62 -236q-33 -47 -105.5 -107t-172 -115.5t-216.5 -91.5t-239 -36zM840 557v25h740v-25h-740zM1546 1029l-17 96q-18 60 -54 133.5t-86 127.5l265 114h22l-108 -471h-22z
M348 -794v21q87 0 176 23t164 69t120.5 116.5t45.5 166.5h19q0 -56 -33.5 -92t-81 -53t-90.5 -17q-94 0 -149 53.5t-55 132.5q0 50 28 94.5t74.5 72.5t100.5 28q83 0 145 -60t62 -159t-46.5 -173t-123.5 -123.5t-170 -74.5t-186 -25z" />
    <glyph glyph-name="uni0123" unicode="&#x123;" horiz-adv-x="1270" 
d="M280 -520q-123 0 -225.5 21.5t-163.5 69.5t-61 128q0 38 23.5 73.5t69.5 63t112.5 43.5t153.5 16h15q-21 -13 -46 -42.5t-43.5 -71.5t-18.5 -91q0 -95 71 -135t204 -40q72 0 150.5 20.5t146 56t109.5 82t42 98.5q0 50 -27.5 80t-91.5 30h-60.5h-96h-106h-92h-52.5
q-90 0 -169.5 26t-128.5 75t-49 119q0 64 41 110.5t107 76.5t144 44.5t153 14.5l-1 -15q-103 0 -154 -26.5t-51 -55.5q0 -22 19 -33.5t57 -15t93 -3.5q35 0 85.5 0.5t99.5 1t77 0.5q135 0 220 -70.5t85 -214.5q0 -109 -56 -191t-149 -136.5t-206.5 -81.5t-229.5 -27z
M498 320q-116 0 -207 33t-143.5 94t-52.5 146q0 96 69 174.5t183.5 125t250.5 46.5q116 0 207 -35t143.5 -98.5t52.5 -148.5q0 -95 -69 -171.5t-183 -121t-251 -44.5zM467 347q17 0 40.5 44t47.5 113t45 143.5t33.5 137t12.5 91.5q0 15 -3 26.5t-14 11.5q-17 0 -40.5 -44.5
t-47.5 -113t-45 -143t-33.5 -136.5t-12.5 -91q0 -16 3.5 -27.5t13.5 -11.5zM1136 930q89 0 148 -55.5t59 -135.5q0 -71 -41 -120.5t-118 -49.5q-62 0 -105 43t-43 109q0 62 46.5 101t108.5 40q31 0 59 -17.5t37 -48.5q-11 47 -53.5 78.5t-101.5 31.5q-57 0 -106 -22
t-90 -67.5t-76 -116.5l-18 9q53 111 125 166t169 55zM668 1119q-83 0 -145.5 60t-62.5 159t46.5 173.5t124 124t170.5 74t186 24.5v-21q-87 0 -176.5 -22.5t-164 -69t-120 -117t-45.5 -166.5h-19q0 56 33 92t81 53t91 17q94 0 149 -53.5t55 -132.5q0 -50 -28 -94.5
t-74.5 -72.5t-100.5 -28z" />
    <glyph glyph-name="Hcircumflex" unicode="&#x124;" horiz-adv-x="1669" 
d="M446 727v25h720v-25h-720zM1000 1475h-156l-328 -1450h154v-25h-760v25h176l328 1450h-174v25h760v-25zM1859 1500v-25h-175l-328 -1450h173v-25h-759v25h156l328 1450h-154v25h759zM725 1706l-13 14l325 319h209l236 -319l-12 -12l-334 141z" />
    <glyph glyph-name="hcircumflex" unicode="&#x125;" horiz-adv-x="1236" 
d="M0 0l395 1475h-146v25h516l-400 -1500h-365zM790 -20q-96 0 -145 52.5t-49 131.5q0 23 6 54t13 56l104 370q22 78 29 118.5t2.5 54.5t-15.5 14q-16 0 -52 -40t-80 -114.5t-88.5 -178.5t-79.5 -232h-16q25 91 59.5 186t79 182t97 156t112.5 109t127 40q80 0 130.5 -37.5
t66.5 -105t-10 -157.5l-144 -501q-2 -7 -4.5 -19.5t-2.5 -20.5q0 -30 20 -30q37 0 96.5 66.5t118.5 195.5l24 -8q-55 -126 -118 -201t-133 -108t-148 -33zM554 1605l-13 14l325 319h209l236 -319l-12 -12l-334 141z" />
    <glyph glyph-name="Hbar" unicode="&#x126;" horiz-adv-x="1669" 
d="M200 1099v24h1538v-24h-1538zM446 727v25h720v-25h-720zM1000 1475h-156l-328 -1450h154v-25h-760v25h176l328 1450h-174v25h760v-25zM1859 1500v-25h-175l-328 -1450h173v-25h-759v25h156l328 1450h-154v25h759z" />
    <glyph glyph-name="hbar" unicode="&#x127;" horiz-adv-x="1236" 
d="M180 1178v24h674v-24h-674zM0 0l395 1475h-146v25h516l-400 -1500h-365zM790 -20q-96 0 -145 52.5t-49 131.5q0 23 6 54t13 56l104 370q22 78 29 118.5t2.5 54.5t-15.5 14q-16 0 -52 -40t-80 -114.5t-88.5 -178.5t-79.5 -232h-16q25 91 59.5 186t79 182t97 156t112.5 109
t127 40q80 0 130.5 -37.5t66.5 -105t-10 -157.5l-144 -501q-2 -7 -4.5 -19.5t-2.5 -20.5q0 -30 20 -30q37 0 96.5 66.5t118.5 195.5l24 -8q-55 -126 -118 -201t-133 -108t-148 -33z" />
    <glyph glyph-name="Itilde" unicode="&#x128;" horiz-adv-x="929" 
d="M130 0l341 1500h429l-339 -1500h-431zM-90 0v25h880v-25h-880zM240 1475v25h880v-25h-880zM911 1620q-58 0 -103.5 24t-86 55t-80.5 54.5t-84 23.5q-35 0 -67 -14.5t-62 -62.5h-25q20 85 52.5 156.5t85 114.5t131.5 43q52 0 96 -24t83.5 -55.5t77 -55.5t76.5 -24
q35 0 67 15.5t62 63.5h25q-20 -95 -47.5 -165.5t-74.5 -109.5t-126 -39z" />
    <glyph glyph-name="itilde" unicode="&#x129;" horiz-adv-x="790" 
d="M318 -20q-115 0 -172.5 41t-57.5 133q0 17 2.5 34t4.5 28l175 679h-156v25h535l-204 -792q-2 -9 -3.5 -19t-1.5 -19q0 -15 8 -28t25 -13q38 0 86.5 32t96.5 94.5t84 153.5l23 -9q-65 -161 -177 -250.5t-268 -89.5zM687 1040q-58 0 -103.5 24t-86 55t-80.5 54.5t-84 23.5
q-35 0 -67 -14.5t-62 -62.5h-25q20 85 52.5 156.5t85 114.5t131.5 43q52 0 96 -24t83.5 -55.5t77 -55.5t76.5 -24q35 0 67 15.5t62 63.5h25q-20 -95 -47.5 -165.5t-74.5 -109.5t-126 -39z" />
    <glyph glyph-name="Imacron" unicode="&#x12a;" horiz-adv-x="929" 
d="M130 0l341 1500h429l-339 -1500h-431zM-90 0v25h880v-25h-880zM240 1475v25h880v-25h-880zM442 1700v25h480v-25h-480z" />
    <glyph glyph-name="imacron" unicode="&#x12b;" horiz-adv-x="790" 
d="M318 -20q-115 0 -172.5 41t-57.5 133q0 17 2.5 34t4.5 28l175 679h-156v25h535l-204 -792q-2 -9 -3.5 -19t-1.5 -19q0 -15 8 -28t25 -13q38 0 86.5 32t96.5 94.5t84 153.5l23 -9q-65 -161 -177 -250.5t-268 -89.5zM216 1120v25h480v-25h-480z" />
    <glyph glyph-name="Ibreve" unicode="&#x12c;" horiz-adv-x="929" 
d="M130 0l341 1500h429l-339 -1500h-431zM-90 0v25h880v-25h-880zM240 1475v25h880v-25h-880zM725 1682q-83 0 -128 41t-62.5 102t-17 125t7.5 109h25q-5 -37 22 -60.5t73 -35.5t100 -12t111.5 7t102.5 29.5t61 71.5h25q-7 -45 -25 -109t-52.5 -125t-93.5 -102t-149 -41z
" />
    <glyph glyph-name="ibreve" unicode="&#x12d;" horiz-adv-x="790" 
d="M318 -20q-115 0 -172.5 41t-57.5 133q0 17 2.5 34t4.5 28l175 679h-156v25h535l-204 -792q-2 -9 -3.5 -19t-1.5 -19q0 -15 8 -28t25 -13q38 0 86.5 32t96.5 94.5t84 153.5l23 -9q-65 -161 -177 -250.5t-268 -89.5zM500 1102q-83 0 -128 41t-62.5 102t-17 125t7.5 109h25
q-5 -37 22 -60.5t73 -35.5t100 -12t111.5 7t102.5 29.5t61 71.5h25q-7 -45 -25 -109t-52.5 -125t-93.5 -102t-149 -41z" />
    <glyph glyph-name="Iogonek" unicode="&#x12e;" horiz-adv-x="929" 
d="M130 0l341 1500h429l-339 -1500h-431zM-90 0v25h880v-25h-880zM240 1475v25h880v-25h-880zM166 -473q-71 0 -127.5 16.5t-89.5 50t-33 83.5q0 60 45.5 112.5t120 97.5t160 81t164.5 61l6 -13q-31 -24 -62.5 -74t-52 -111.5t-20.5 -121.5q0 -48 12 -79t39 -31
q31 0 61 22.5t53.5 51t33.5 49.5l20 -10q-15 -28 -54 -72t-107 -78.5t-169 -34.5z" />
    <glyph glyph-name="iogonek" unicode="&#x12f;" horiz-adv-x="790" 
d="M318 -20q-115 0 -172.5 41t-57.5 133q0 17 2.5 34t4.5 28l175 679h-156v25h535l-204 -792q-2 -9 -3.5 -19t-1.5 -19q0 -15 8 -28t25 -13q38 0 86.5 32t96.5 94.5t84 153.5l23 -9q-65 -161 -177 -250.5t-268 -89.5zM546 1079q-63 0 -112.5 31t-78 81.5t-28.5 108.5
t28.5 108t78 81t112.5 31t113 -31t79 -81t29 -108t-29 -108.5t-79 -81.5t-113 -31zM249 -473q-71 0 -127.5 16.5t-89.5 50t-33 83.5q0 60 45.5 112.5t120 97.5t160 81t164.5 61l6 -13q-31 -24 -62.5 -74t-52 -111.5t-20.5 -121.5q0 -48 12 -79t39 -31q31 0 61 22.5t53.5 51
t33.5 49.5l20 -10q-15 -28 -54 -72t-107 -78.5t-169 -34.5z" />
    <glyph glyph-name="Idotaccent" unicode="&#x130;" horiz-adv-x="929" 
d="M130 0l341 1500h429l-339 -1500h-431zM-90 0v25h880v-25h-880zM240 1475v25h880v-25h-880zM771 1659q-63 0 -112.5 31t-78 81.5t-28.5 108.5t28.5 108t78 81t112.5 31t113 -31t79 -81t29 -108t-29 -108.5t-79 -81.5t-113 -31z" />
    <glyph glyph-name="dotlessi" unicode="&#x131;" horiz-adv-x="790" 
d="M318 -20q-115 0 -172.5 41t-57.5 133q0 17 2.5 34t4.5 28l175 679h-156v25h535l-204 -792q-2 -9 -3.5 -19t-1.5 -19q0 -15 8 -28t25 -13q38 0 86.5 32t96.5 94.5t84 153.5l23 -9q-65 -161 -177 -250.5t-268 -89.5z" />
    <glyph glyph-name="IJ" unicode="&#x132;" horiz-adv-x="2151" 
d="M130 0l341 1500h429l-339 -1500h-431zM-90 0v25h880v-25h-880zM240 1475v25h880v-25h-880zM1238 -61q-112 0 -203 37.5t-145 108t-54 170.5q0 72 34.5 127.5t89 86.5t115.5 31q55 0 110 -28.5t91.5 -80.5t36.5 -123q0 -63 -34.5 -114t-89 -81t-114.5 -30q-59 0 -113.5 30
t-89 78.5t-34.5 103.5h23q1 -72 31 -125t77.5 -87t103 -51t105.5 -17q57 0 108.5 46t94 136t73.5 223l260 1120h428l-260 -1160q-56 -87 -127.5 -160t-154 -127t-174 -84t-188.5 -30zM1444 1475v25h898v-25h-898z" />
    <glyph glyph-name="ij" unicode="&#x133;" horiz-adv-x="1453" 
d="M273 -20q-116 0 -164 41t-48 111q0 38 8 70t12 49l169 644h-135v25h499l-218 -820q-2 -9 -3.5 -17.5t-1.5 -16.5q0 -9 4 -13.5t12 -4.5q14 0 45 18.5t78 78.5t104 185l25 -8q-52 -111 -106.5 -187t-122 -115.5t-157.5 -39.5zM515 1079q-63 0 -112.5 31t-78 81.5
t-28.5 108.5t28.5 108t78 81t112.5 31t113 -31t79 -81t29 -108t-29 -108.5t-79 -81.5t-113 -31zM570 -520q-106 0 -174 39.5t-100 96t-32 107.5q0 61 28 108t75.5 74t103.5 27q85 0 143 -54t58 -144q0 -68 -56 -123.5t-144 -55.5q-81 0 -143.5 46.5t-62.5 121.5h23
q0 -54 35 -104t97.5 -83t147.5 -33q70 0 115 51.5t76 143.5t61 215l242 982h-123v25h492l-242 -943q-33 -129 -102.5 -223t-158.5 -154.5t-182.5 -90t-176.5 -29.5zM1330 1079q-94 0 -157 63.5t-63 157.5q0 95 63 157.5t157 62.5q95 0 157 -62.5t62 -157.5q0 -94 -62 -157.5
t-157 -63.5z" />
    <glyph glyph-name="Jcircumflex" unicode="&#x134;" horiz-adv-x="1251" 
d="M338 -61q-112 0 -203 37.5t-145 108t-54 170.5q0 72 34.5 127.5t89 86.5t115.5 31q55 0 110 -28.5t91.5 -80.5t36.5 -123q0 -63 -34.5 -114t-89 -81t-114.5 -30q-59 0 -113.5 30t-89 78.5t-34.5 103.5h23q1 -72 31 -125t77.5 -87t103 -51t105.5 -17q57 0 108.5 46t94 136
t73.5 223l260 1120h428l-260 -1160q-56 -87 -127.5 -160t-154 -127t-174 -84t-188.5 -30zM544 1475v25h898v-25h-898zM622 1706l-13 14l325 319h209l236 -319l-12 -12l-334 141z" />
    <glyph glyph-name="jcircumflex" unicode="&#x135;" horiz-adv-x="679" 
d="M-116 -520q-91 0 -171 32.5t-130 91t-50 134.5q0 61 32.5 107t82 71.5t99.5 25.5q45 0 94 -22t83 -64t34 -102q0 -50 -29.5 -95t-78.5 -73t-106 -28q-49 0 -97 25t-80 66t-32 89h23q0 -71 47 -123t119 -80.5t149 -28.5q68 0 107 48t60 127t35 173t31 186l186 855h-187v25
h574l-195 -943q-19 -94 -78 -183t-144 -160t-182.5 -112.5t-195.5 -41.5zM123 1126l-13 14l325 319h209l236 -319l-12 -12l-334 141z" />
    <glyph glyph-name="uni0136" unicode="&#x136;" horiz-adv-x="1693" 
d="M309 434l1277 1062h38l-1276 -1062h-39zM-90 0v25h760v-25h-760zM764 0v25h812v-25h-812zM80 0l340 1500h430l-340 -1500h-430zM941 0l-255 744l366 298l368 -1042h-479zM240 1475v25h800v-25h-800zM1334 1475v25h480v-25h-480zM341 -794v21q87 0 176 23t164 69
t120.5 116.5t45.5 166.5h19q0 -56 -33.5 -92t-81 -53t-90.5 -17q-94 0 -149 53.5t-55 132.5q0 50 28 94.5t74.5 72.5t100.5 28q83 0 145 -60t62 -159t-46.5 -173t-123.5 -123.5t-170 -74.5t-186 -25z" />
    <glyph glyph-name="uni0137" unicode="&#x137;" horiz-adv-x="1166" 
d="M0 0l396 1475h-186v25h555l-412 -1500h-353zM712 -20q-67 0 -120 30t-53 97q0 26 7.5 57t15.5 56l29 89q16 46 31.5 92.5t21.5 85.5t-3.5 62t-42.5 23q-26 0 -52 -23.5t-49.5 -67t-39.5 -101.5h-15q21 75 48 123t63 72t82 24q56 0 115 -24.5t105 -69.5t64.5 -107
t-4.5 -136l-45 -147q-1 -5 -2 -12t-1 -10q0 -15 15 -15q8 0 30 19t56.5 73.5t77.5 159.5l24 -8q-70 -172 -153 -257t-205 -85zM516 458q-11 0 -18.5 2.5t-15.5 8.5l9 24q6 -7 11.5 -9t13.5 -2q26 0 46.5 33.5t41.5 87t47 112.5q45 102 108.5 163t172.5 61q65 0 113 -28.5
t74.5 -72.5t26.5 -91q0 -82 -55 -135.5t-138 -53.5q-88 0 -138.5 51.5t-50.5 138.5q0 75 50 129.5t133 54.5q44 0 90 -23.5t76.5 -65t30.5 -96.5h-23q0 41 -24 79.5t-66.5 64t-99.5 25.5q-95 0 -154 -54.5t-101 -151.5q-28 -63 -51 -121t-48.5 -94.5t-60.5 -36.5zM147 -794
v21q87 0 176 23t164 69t120.5 116.5t45.5 166.5h19q0 -56 -33.5 -92t-81 -53t-90.5 -17q-94 0 -149 53.5t-55 132.5q0 50 28 94.5t74.5 72.5t100.5 28q83 0 145 -60t62 -159t-46.5 -173t-123.5 -123.5t-170 -74.5t-186 -25z" />
    <glyph glyph-name="kgreenlandic" unicode="&#x138;" horiz-adv-x="1296" 
d="M63 0l215 895h-176v25h558l-225 -920h-372zM832 -20q-104 0 -169.5 41t-65.5 124q0 18 3 37t7 32l24 101q12 44 24 86t18.5 75.5t-0.5 53t-33 19.5q-33 0 -54.5 -26t-35 -65t-23.5 -78h-15q21 92 50 137.5t71 60t99 14.5q56 0 108.5 -18t91 -57t53.5 -101t-4 -151
l-34 -160q-2 -9 -2 -19q0 -28 34 -28q32 0 73.5 24t85.5 83t85 163l24 -8q-64 -167 -166.5 -253.5t-248.5 -86.5zM591 462q-14 0 -23 4t-17 12l9 24q7 -9 13.5 -12.5t17.5 -3.5q27 0 53 33t50.5 86.5t50.5 115.5q44 103 111.5 160.5t160.5 57.5q39 0 82.5 -13.5t82.5 -41
t63.5 -70.5t24.5 -102q0 -88 -57.5 -142t-135.5 -54q-44 0 -86 24.5t-69 66t-27 92.5q0 75 55 126t128 51q41 0 85 -18t74.5 -54.5t30.5 -91.5h-23q0 54 -23 93t-59 63.5t-75 36t-72 11.5q-82 0 -145.5 -54t-102.5 -149q-27 -67 -54.5 -124t-57 -92t-65.5 -35z" />
    <glyph glyph-name="Lacute" unicode="&#x139;" horiz-adv-x="1313" 
d="M70 0l348 1500h430l-348 -1500h-430zM-100 0v25h690q157 0 279 53.5t211.5 149t148.5 222.5h25l-104 -450h-1250zM238 1475v25h789v-25h-789zM557 1676l-11 16l139 264q28 55 71 80t89 26.5t85 -15.5t60 -46q33 -48 25.5 -110t-52 -111.5t-123.5 -61.5z" />
    <glyph glyph-name="lacute" unicode="&#x13a;" horiz-adv-x="638" 
d="M251 -20q-115 0 -163 41t-48 111q0 36 7.5 68.5t11.5 50.5l330 1224h-147v25h512l-379 -1401q-2 -8 -4 -15.5t-2 -14.5q0 -21 17 -21q13 0 44.5 18.5t78.5 78.5t105 185l24 -8q-52 -111 -107 -187t-122 -115.5t-158 -39.5zM441 1676l-11 16l139 264q28 55 71 80t89 26.5
t85 -15.5t60 -46q33 -48 25.5 -110t-52 -111.5t-123.5 -61.5z" />
    <glyph glyph-name="uni013B" unicode="&#x13b;" horiz-adv-x="1313" 
d="M70 0l348 1500h430l-348 -1500h-430zM-100 0v25h690q157 0 279 53.5t211.5 149t148.5 222.5h25l-104 -450h-1250zM238 1475v25h789v-25h-789zM147 -794v21q87 0 176 23t164 69t120.5 116.5t45.5 166.5h19q0 -56 -33.5 -92t-81 -53t-90.5 -17q-94 0 -149 53.5t-55 132.5
q0 50 28 94.5t74.5 72.5t100.5 28q83 0 145 -60t62 -159t-46.5 -173t-123.5 -123.5t-170 -74.5t-186 -25z" />
    <glyph glyph-name="uni013C" unicode="&#x13c;" horiz-adv-x="638" 
d="M251 -20q-115 0 -163 41t-48 111q0 36 7.5 68.5t11.5 50.5l330 1224h-147v25h512l-379 -1401q-2 -8 -4 -15.5t-2 -14.5q0 -21 17 -21q13 0 44.5 18.5t78.5 78.5t105 185l24 -8q-52 -111 -107 -187t-122 -115.5t-158 -39.5zM-125 -794v21q87 0 176 23t164 69t120.5 116.5
t45.5 166.5h19q0 -56 -33.5 -92t-81 -53t-90.5 -17q-94 0 -149 53.5t-55 132.5q0 50 28 94.5t74.5 72.5t100.5 28q83 0 145 -60t62 -159t-46.5 -173t-123.5 -123.5t-170 -74.5t-186 -25z" />
    <glyph glyph-name="Lcaron" unicode="&#x13d;" horiz-adv-x="1313" 
d="M70 0l348 1500h430l-348 -1500h-430zM-100 0v25h690q157 0 279 53.5t211.5 149t148.5 222.5h25l-104 -450h-1250zM238 1475v25h789v-25h-789zM943 906v20q87 0 176.5 23t164 69t120.5 116.5t46 166.5h18q0 -56 -33 -92t-80.5 -53t-91.5 -17q-93 0 -148.5 53.5
t-55.5 132.5q0 51 28.5 95.5t75 72t100.5 27.5q83 0 145 -60t62 -159t-46.5 -173t-124 -123.5t-170.5 -74t-186 -24.5z" />
    <glyph glyph-name="lcaron" unicode="&#x13e;" horiz-adv-x="638" 
d="M251 -20q-115 0 -163 41t-48 111q0 36 7.5 68.5t11.5 50.5l330 1224h-147v25h512l-379 -1401q-2 -8 -4 -15.5t-2 -14.5q0 -21 17 -21q13 0 44.5 18.5t78.5 78.5t105 185l24 -8q-52 -111 -107 -187t-122 -115.5t-158 -39.5zM742 906v20q87 0 176.5 23t164 69t120.5 116.5
t46 166.5h18q0 -56 -33 -92t-80.5 -53t-91.5 -17q-93 0 -148.5 53.5t-55.5 132.5q0 51 28.5 95.5t75 72t100.5 27.5q83 0 145 -60t62 -159t-46.5 -173t-124 -123.5t-170.5 -74t-186 -24.5z" />
    <glyph glyph-name="Ldot" unicode="&#x13f;" horiz-adv-x="1313" 
d="M70 0l348 1500h430l-348 -1500h-430zM-100 0v25h690q157 0 279 53.5t211.5 149t148.5 222.5h25l-104 -450h-1250zM238 1475v25h789v-25h-789zM1153 680q-66 0 -120.5 33t-87 87.5t-32.5 120.5t32.5 120t87 86.5t120.5 32.5t121 -32.5t87.5 -86.5t32.5 -120t-32.5 -120.5
t-87.5 -87.5t-121 -33z" />
    <glyph glyph-name="ldot" unicode="&#x140;" horiz-adv-x="1024" 
d="M251 -20q-115 0 -163 41t-48 111q0 36 7.5 68.5t11.5 50.5l330 1224h-147v25h512l-379 -1401q-2 -8 -4 -15.5t-2 -14.5q0 -21 17 -21q13 0 44.5 18.5t78.5 78.5t105 185l24 -8q-52 -111 -107 -187t-122 -115.5t-158 -39.5zM933 680q-66 0 -120.5 33t-87 87.5t-32.5 120.5
t32.5 120t87 86.5t120.5 32.5t121 -32.5t87.5 -86.5t32.5 -120t-32.5 -120.5t-87.5 -87.5t-121 -33z" />
    <glyph glyph-name="Lslash" unicode="&#x141;" horiz-adv-x="1313" 
d="M90 692v29l911 439v-29zM70 0l348 1500h430l-348 -1500h-430zM-100 0v25h690q157 0 279 53.5t211.5 149t148.5 222.5h25l-104 -450h-1250zM238 1475v25h789v-25h-789z" />
    <glyph glyph-name="lslash" unicode="&#x142;" horiz-adv-x="638" 
d="M85 770v30l730 360v-30zM251 -20q-115 0 -163 41t-48 111q0 36 7.5 68.5t11.5 50.5l330 1224h-147v25h512l-379 -1401q-2 -8 -4 -15.5t-2 -14.5q0 -21 17 -21q13 0 44.5 18.5t78.5 78.5t105 185l24 -8q-52 -111 -107 -187t-122 -115.5t-158 -39.5z" />
    <glyph glyph-name="Nacute" unicode="&#x143;" horiz-adv-x="1549" 
d="M1134 -20l-684 1520h510l368 -782l178 782h26l-346 -1520h-52zM-80 0v25h442v-25h-442zM109 0l330 1475h-199v25h229l-334 -1500h-26zM1266 1475v25h484v-25h-484zM909 1676l-11 16l139 264q28 55 71 80t89 26.5t85 -15.5t60 -46q33 -48 25.5 -110t-52 -111.5
t-123.5 -61.5z" />
    <glyph glyph-name="nacute" unicode="&#x144;" horiz-adv-x="1185" 
d="M786 -20q-96 0 -145 52.5t-49 131.5q0 23 6 54t13 56l104 370q22 78 29 118.5t2.5 54.5t-15.5 14q-16 0 -52 -40t-80 -114.5t-88.5 -178.5t-79.5 -232h-17q25 91 60 186t79 182t97 156t113 109t127 40q80 0 130.5 -37.5t66.5 -105t-10 -157.5l-144 -501q-2 -8 -4.5 -20
t-2.5 -20q0 -17 5 -23.5t15 -6.5q37 0 96.5 66.5t118.5 195.5l24 -8q-55 -126 -118 -201t-133 -108t-148 -33zM0 0l240 895h-138v25h508l-251 -920h-359zM627 1096l-11 16l139 264q28 55 71 80t89 26.5t85 -15.5t60 -46q33 -48 25.5 -110t-52 -111.5t-123.5 -61.5z" />
    <glyph glyph-name="uni0145" unicode="&#x145;" horiz-adv-x="1549" 
d="M1134 -20l-684 1520h510l368 -782l178 782h26l-346 -1520h-52zM-80 0v25h442v-25h-442zM109 0l330 1475h-199v25h229l-334 -1500h-26zM1266 1475v25h484v-25h-484zM287 -794v21q87 0 176 23t164 69t120.5 116.5t45.5 166.5h19q0 -56 -33.5 -92t-81 -53t-90.5 -17
q-94 0 -149 53.5t-55 132.5q0 50 28 94.5t74.5 72.5t100.5 28q83 0 145 -60t62 -159t-46.5 -173t-123.5 -123.5t-170 -74.5t-186 -25z" />
    <glyph glyph-name="uni0146" unicode="&#x146;" horiz-adv-x="1185" 
d="M786 -20q-96 0 -145 52.5t-49 131.5q0 23 6 54t13 56l104 370q22 78 29 118.5t2.5 54.5t-15.5 14q-16 0 -52 -40t-80 -114.5t-88.5 -178.5t-79.5 -232h-17q25 91 60 186t79 182t97 156t113 109t127 40q80 0 130.5 -37.5t66.5 -105t-10 -157.5l-144 -501q-2 -8 -4.5 -20
t-2.5 -20q0 -17 5 -23.5t15 -6.5q37 0 96.5 66.5t118.5 195.5l24 -8q-55 -126 -118 -201t-133 -108t-148 -33zM0 0l240 895h-138v25h508l-251 -920h-359zM117 -794v21q87 0 176 23t164 69t120.5 116.5t45.5 166.5h19q0 -56 -33.5 -92t-81 -53t-90.5 -17q-94 0 -149 53.5
t-55 132.5q0 50 28 94.5t74.5 72.5t100.5 28q83 0 145 -60t62 -159t-46.5 -173t-123.5 -123.5t-170 -74.5t-186 -25z" />
    <glyph glyph-name="Ncaron" unicode="&#x147;" horiz-adv-x="1549" 
d="M1134 -20l-684 1520h510l368 -782l178 782h26l-346 -1520h-52zM-80 0v25h442v-25h-442zM109 0l330 1475h-199v25h229l-334 -1500h-26zM1266 1475v25h484v-25h-484zM911 1700l-236 321l13 13l333 -143l413 141l12 -11l-325 -321h-210z" />
    <glyph glyph-name="ncaron" unicode="&#x148;" horiz-adv-x="1185" 
d="M786 -20q-96 0 -145 52.5t-49 131.5q0 23 6 54t13 56l104 370q22 78 29 118.5t2.5 54.5t-15.5 14q-16 0 -52 -40t-80 -114.5t-88.5 -178.5t-79.5 -232h-17q25 91 60 186t79 182t97 156t113 109t127 40q80 0 130.5 -37.5t66.5 -105t-10 -157.5l-144 -501q-2 -8 -4.5 -20
t-2.5 -20q0 -17 5 -23.5t15 -6.5q37 0 96.5 66.5t118.5 195.5l24 -8q-55 -126 -118 -201t-133 -108t-148 -33zM0 0l240 895h-138v25h508l-251 -920h-359zM628 1120l-236 321l13 13l333 -143l413 141l12 -11l-325 -321h-210z" />
    <glyph glyph-name="napostrophe" unicode="&#x149;" horiz-adv-x="1494" 
d="M1056 -20q-96 0 -145 52.5t-49 131.5q0 23 6 54t13 56l104 370q22 78 29 118.5t2.5 54.5t-15.5 14q-16 0 -52 -40t-80 -114.5t-88.5 -178.5t-79.5 -232h-17q25 91 60 186t79 182t97 156t113 109t127 40q80 0 130.5 -37.5t66.5 -105t-10 -157.5l-144 -501q-2 -8 -4.5 -20
t-2.5 -20q0 -17 5 -23.5t15 -6.5q37 0 96.5 66.5t118.5 195.5l24 -8q-55 -126 -118 -201t-133 -108t-148 -33zM270 0l240 895h-138v25h508l-251 -920h-359zM125 928v25q109 0 220 28.5t204.5 86.5t151 146.5t57.5 207.5h23q0 -70 -41.5 -114.5t-101 -66t-113.5 -21.5
q-117 0 -186 67t-69 165q0 63 35 119t93 90.5t126 34.5q69 0 128 -34t95 -95.5t36 -144.5q0 -124 -58 -216.5t-154.5 -154t-213 -92.5t-232.5 -31z" />
    <glyph glyph-name="Eng" unicode="&#x14a;" horiz-adv-x="1587" 
d="M658 -520q-96 0 -169.5 32.5t-108.5 91t-18 134.5q13 56 52 102.5t94 74t115 27.5q83 0 133.5 -57.5t31.5 -140.5q-20 -83 -88.5 -136t-163.5 -53q-57 4 -93.5 41.5t-41.5 79.5q-1 -71 69.5 -121t185.5 -50q75 0 126 47t84.5 125t58 173t46.5 190l229 992
q23 97 23.5 170.5t-18 122.5t-55 74t-87.5 25q-77 0 -144.5 -46.5t-122.5 -124.5t-96 -175t-64 -197h-19q23 99 67.5 210t117.5 208.5t179.5 158.5t251.5 61q165 0 253 -55.5t111.5 -156.5t-8.5 -238l-253 -1092q-22 -97 -93.5 -186.5t-170.5 -159.5t-207.5 -110.5
t-206.5 -40.5zM-88 0l5 25h141l335 1450h-140l5 25h521l-340 -1475h137l-5 -25h-659z" />
    <glyph glyph-name="eng" unicode="&#x14b;" horiz-adv-x="1287" 
d="M358 -520q-96 0 -169.5 32.5t-108.5 91t-18 134.5q13 56 52 102.5t94 74t115 27.5q83 0 133.5 -57.5t31.5 -140.5t-87.5 -136t-163.5 -53q-59 0 -101 29t-61.5 71.5t-10.5 82.5h23q-15 -68 19 -121t101 -83.5t149 -30.5q75 0 126 47.5t84.5 126t58 173.5t46.5 190
l130 562l389 37l-154 -662q-22 -97 -93.5 -186.5t-170.5 -159.5t-207.5 -110.5t-206.5 -40.5zM-88 0l5 25h659l-5 -25h-659zM52 0l207 895h-140l5 25h521l-212 -920h-381zM518 451q14 62 43 144.5t78.5 161t125.5 130.5t184 52q115 0 174 -38.5t73 -106.5t-6 -155l-389 -37
q18 79 22 131.5t-5 78.5t-31 26q-42 0 -81.5 -36.5t-72 -94.5t-57 -125.5t-39.5 -130.5h-19z" />
    <glyph glyph-name="Omacron" unicode="&#x14c;" horiz-adv-x="1579" 
d="M670 -20q-274 0 -422 143t-148 387q0 188 53 345.5t144.5 280.5t208.5 209t246.5 130.5t257.5 44.5q173 0 301 -64.5t198.5 -183.5t70.5 -282q0 -235 -78.5 -421.5t-209.5 -318t-293 -201t-329 -69.5zM670 3q67 0 129 58t117 157t99.5 225t77 263.5t50 272.5t17.5 251
q0 67 -8.5 117t-26.5 83t-46.5 50t-68.5 17q-62 0 -122 -58t-115 -157t-101 -224.5t-80 -263.5t-53 -273t-19 -251q0 -109 15 -166.5t48 -79t87 -21.5zM766 1700v25h480v-25h-480z" />
    <glyph glyph-name="omacron" unicode="&#x14d;" horiz-adv-x="1128" 
d="M417 -20q-174 0 -275.5 72t-101.5 237q0 120 52.5 236t143.5 209.5t209.5 149.5t250.5 56q174 0 280.5 -77.5t106.5 -242.5q0 -116 -50 -229.5t-140 -206.5t-211.5 -148.5t-264.5 -55.5zM413 5q27 0 60.5 45.5t69 121.5t69 169t60 188.5t42 181t15.5 144.5q0 29 -6 44.5
t-23 15.5q-27 0 -60.5 -45.5t-69 -121.5t-69 -169t-60 -188.5t-42 -181t-15.5 -144.5q0 -29 6.5 -44.5t22.5 -15.5zM454 1120v25h480v-25h-480z" />
    <glyph glyph-name="Obreve" unicode="&#x14e;" horiz-adv-x="1579" 
d="M670 -20q-274 0 -422 143t-148 387q0 188 53 345.5t144.5 280.5t208.5 209t246.5 130.5t257.5 44.5q173 0 301 -64.5t198.5 -183.5t70.5 -282q0 -235 -78.5 -421.5t-209.5 -318t-293 -201t-329 -69.5zM670 3q67 0 129 58t117 157t99.5 225t77 263.5t50 272.5t17.5 251
q0 67 -8.5 117t-26.5 83t-46.5 50t-68.5 17q-62 0 -122 -58t-115 -157t-101 -224.5t-80 -263.5t-53 -273t-19 -251q0 -109 15 -166.5t48 -79t87 -21.5zM1049 1682q-83 0 -128 41t-62.5 102t-17 125t7.5 109h25q-5 -37 22 -60.5t73 -35.5t100 -12t111.5 7t102.5 29.5t61 71.5
h25q-7 -45 -25 -109t-52.5 -125t-93.5 -102t-149 -41z" />
    <glyph glyph-name="obreve" unicode="&#x14f;" horiz-adv-x="1128" 
d="M417 -20q-174 0 -275.5 72t-101.5 237q0 120 52.5 236t143.5 209.5t209.5 149.5t250.5 56q174 0 280.5 -77.5t106.5 -242.5q0 -116 -50 -229.5t-140 -206.5t-211.5 -148.5t-264.5 -55.5zM413 5q27 0 60.5 45.5t69 121.5t69 169t60 188.5t42 181t15.5 144.5q0 29 -6 44.5
t-23 15.5q-27 0 -60.5 -45.5t-69 -121.5t-69 -169t-60 -188.5t-42 -181t-15.5 -144.5q0 -29 6.5 -44.5t22.5 -15.5zM737 1102q-83 0 -128 41t-62.5 102t-17 125t7.5 109h25q-5 -37 22 -60.5t73 -35.5t100 -12t111.5 7t102.5 29.5t61 71.5h25q-7 -45 -25 -109t-52.5 -125
t-93.5 -102t-149 -41z" />
    <glyph glyph-name="Ohungarumlaut" unicode="&#x150;" horiz-adv-x="1579" 
d="M670 -20q-274 0 -422 143t-148 387q0 188 53 345.5t144.5 280.5t208.5 209t246.5 130.5t257.5 44.5q173 0 301 -64.5t198.5 -183.5t70.5 -282q0 -235 -78.5 -421.5t-209.5 -318t-293 -201t-329 -69.5zM670 3q67 0 129 58t117 157t99.5 225t77 263.5t50 272.5t17.5 251
q0 67 -8.5 117t-26.5 83t-46.5 50t-68.5 17q-62 0 -122 -58t-115 -157t-101 -224.5t-80 -263.5t-53 -273t-19 -251q0 -109 15 -166.5t48 -79t87 -21.5zM1169 1676l-11 16l139 264q28 55 71 80t89 26.5t85 -15.5t60 -46q33 -48 25.5 -110t-52 -111.5t-123.5 -61.5zM659 1676
l-11 16l139 264q28 55 71 80t89 26.5t85 -15.5t60 -46q33 -48 25.5 -110t-52 -111.5t-123.5 -61.5z" />
    <glyph glyph-name="ohungarumlaut" unicode="&#x151;" horiz-adv-x="1128" 
d="M417 -20q-174 0 -275.5 72t-101.5 237q0 120 52.5 236t143.5 209.5t209.5 149.5t250.5 56q174 0 280.5 -77.5t106.5 -242.5q0 -116 -50 -229.5t-140 -206.5t-211.5 -148.5t-264.5 -55.5zM413 5q27 0 60.5 45.5t69 121.5t69 169t60 188.5t42 181t15.5 144.5q0 29 -6 44.5
t-23 15.5q-27 0 -60.5 -45.5t-69 -121.5t-69 -169t-60 -188.5t-42 -181t-15.5 -144.5q0 -29 6.5 -44.5t22.5 -15.5zM857 1096l-11 16l139 264q28 55 71 80t89 26.5t85 -15.5t60 -46q33 -48 25.5 -110t-52 -111.5t-123.5 -61.5zM347 1096l-11 16l139 264q28 55 71 80t89 26.5
t85 -15.5t60 -46q33 -48 25.5 -110t-52 -111.5t-123.5 -61.5z" />
    <glyph glyph-name="OE" unicode="&#x152;" horiz-adv-x="2157" 
d="M1078 1500q-190 0 -365.5 -69.5t-314 -201t-219.5 -318t-81 -421.5q0 -145 56 -240t149.5 -150t207.5 -77.5t229 -22.5v25q-111 0 -156.5 74t-45.5 212q0 139 24.5 298t71 312t112.5 278.5t150 200.5t182 75v25zM910 0l348 1500h430l-348 -1500h-430zM740 0v25h730
q137 0 251 53.5t201.5 149t146.5 222.5h25l-104 -450h-1250zM1779 496q-15 67 -45.5 128.5t-75.5 100t-102 38.5h-122v25h122q57 0 121.5 36.5t124.5 95.5t105 126h25l-128 -550h-25zM2197 1090q-5 107 -50.5 194.5t-128 139t-199.5 51.5h-741v25h1240l-96 -410h-25z" />
    <glyph glyph-name="oe" unicode="&#x153;" horiz-adv-x="1655" 
d="M417 -20q-174 0 -275.5 72t-101.5 237q0 120 52.5 236t143.5 209.5t209.5 149.5t250.5 56q174 0 280.5 -77.5t106.5 -242.5q0 -116 -50 -229.5t-140 -206.5t-211.5 -148.5t-264.5 -55.5zM413 5q27 0 60.5 45.5t69 121.5t69 169t60 188.5t42 181t15.5 144.5q0 29 -6 44.5
t-23 15.5q-27 0 -60.5 -45.5t-69 -121.5t-69 -169t-60 -188.5t-42 -181t-15.5 -144.5q0 -29 6.5 -44.5t22.5 -15.5zM989 -20q-121 0 -200 44.5t-118 117.5t-39 158q0 131 50 247t137.5 204.5t201.5 138.5t242 50q176 0 274 -70.5t98 -171.5q0 -64 -35 -119t-110.5 -97.5
t-197 -69.5t-295.5 -35v17q56 3 108.5 47.5t96 110.5t76.5 136t51.5 125t18.5 75q0 13 -4.5 20t-18.5 7q-32 0 -70.5 -45t-77 -120.5t-74 -165.5t-63.5 -183t-44 -174t-16 -134q0 -44 21.5 -60.5t61.5 -16.5q59 0 131 29t146 86t140 143l21 -15q-54 -65 -125 -129.5
t-165.5 -107t-221.5 -42.5z" />
    <glyph glyph-name="Racute" unicode="&#x154;" 
d="M109 0l351 1500h431l-351 -1500h-431zM-70 0v25h830v-25h-830zM1189 -20q-121 0 -185 32.5t-87.5 88.5t-21 125t16.5 143t23.5 143t0.5 124.5t-51.5 88t-134.5 32.5h-90v14h231q168 0 263.5 -40t138 -107t49.5 -147t-3.5 -159.5t-21.5 -146.5t-4 -107.5t51 -40.5
q21 0 46.5 7t51.5 17l9 -24q-54 -20 -126 -31.5t-156 -11.5zM660 767v16h110q88 0 150 35.5t103 93t64.5 125t33 131.5t9.5 111q0 37 -9 72.5t-31 63t-61 44t-99 16.5h-670v25h810q131 0 242.5 -29t180 -95t68.5 -176q0 -140 -89 -236.5t-245 -146.5t-357 -50h-210z
M859 1676l-11 16l139 264q28 55 71 80t89 26.5t85 -15.5t60 -46q33 -48 25.5 -110t-52 -111.5t-123.5 -61.5z" />
    <glyph glyph-name="racute" unicode="&#x155;" horiz-adv-x="998" 
d="M0 0l233 895h-163v25h518l-230 -920h-358zM409 266q18 77 44.5 168t62.5 180t83 163t105 118t129 44q91 0 153 -54.5t62 -147.5q0 -88 -58 -147.5t-145 -59.5q-82 0 -139 52.5t-57 134.5q0 85 58.5 136.5t140.5 51.5t140 -42.5t58 -125.5l-24 1q0 84 -54 130.5t-137 46.5
q-66 0 -120.5 -44t-99.5 -116t-80.5 -158.5t-62 -173t-44.5 -157.5h-15zM586 1096l-11 16l139 264q28 55 71 80t89 26.5t85 -15.5t60 -46q33 -48 25.5 -110t-52 -111.5t-123.5 -61.5z" />
    <glyph glyph-name="uni0156" unicode="&#x156;" 
d="M109 0l351 1500h431l-351 -1500h-431zM-70 0v25h830v-25h-830zM1189 -20q-121 0 -185 32.5t-87.5 88.5t-21 125t16.5 143t23.5 143t0.5 124.5t-51.5 88t-134.5 32.5h-90v14h231q168 0 263.5 -40t138 -107t49.5 -147t-3.5 -159.5t-21.5 -146.5t-4 -107.5t51 -40.5
q21 0 46.5 7t51.5 17l9 -24q-54 -20 -126 -31.5t-156 -11.5zM660 767v16h110q88 0 150 35.5t103 93t64.5 125t33 131.5t9.5 111q0 37 -9 72.5t-31 63t-61 44t-99 16.5h-670v25h810q131 0 242.5 -29t180 -95t68.5 -176q0 -140 -89 -236.5t-245 -146.5t-357 -50h-210z
M377 -794v21q87 0 176 23t164 69t120.5 116.5t45.5 166.5h19q0 -56 -33.5 -92t-81 -53t-90.5 -17q-94 0 -149 53.5t-55 132.5q0 50 28 94.5t74.5 72.5t100.5 28q83 0 145 -60t62 -159t-46.5 -173t-123.5 -123.5t-170 -74.5t-186 -25z" />
    <glyph glyph-name="uni0157" unicode="&#x157;" horiz-adv-x="998" 
d="M0 0l233 895h-163v25h518l-230 -920h-358zM409 266q18 77 44.5 168t62.5 180t83 163t105 118t129 44q91 0 153 -54.5t62 -147.5q0 -88 -58 -147.5t-145 -59.5q-82 0 -139 52.5t-57 134.5q0 85 58.5 136.5t140.5 51.5t140 -42.5t58 -125.5l-24 1q0 84 -54 130.5t-137 46.5
q-66 0 -120.5 -44t-99.5 -116t-80.5 -158.5t-62 -173t-44.5 -157.5h-15zM-193 -794v21q87 0 176 23t164 69t120.5 116.5t45.5 166.5h19q0 -56 -33.5 -92t-81 -53t-90.5 -17q-94 0 -149 53.5t-55 132.5q0 50 28 94.5t74.5 72.5t100.5 28q83 0 145 -60t62 -159t-46.5 -173
t-123.5 -123.5t-170 -74.5t-186 -25z" />
    <glyph glyph-name="Rcaron" unicode="&#x158;" 
d="M109 0l351 1500h431l-351 -1500h-431zM-70 0v25h830v-25h-830zM1189 -20q-121 0 -185 32.5t-87.5 88.5t-21 125t16.5 143t23.5 143t0.5 124.5t-51.5 88t-134.5 32.5h-90v14h231q168 0 263.5 -40t138 -107t49.5 -147t-3.5 -159.5t-21.5 -146.5t-4 -107.5t51 -40.5
q21 0 46.5 7t51.5 17l9 -24q-54 -20 -126 -31.5t-156 -11.5zM660 767v16h110q88 0 150 35.5t103 93t64.5 125t33 131.5t9.5 111q0 37 -9 72.5t-31 63t-61 44t-99 16.5h-670v25h810q131 0 242.5 -29t180 -95t68.5 -176q0 -140 -89 -236.5t-245 -146.5t-357 -50h-210z
M861 1700l-236 321l13 13l333 -143l413 141l12 -11l-325 -321h-210z" />
    <glyph glyph-name="rcaron" unicode="&#x159;" horiz-adv-x="998" 
d="M0 0l233 895h-163v25h518l-230 -920h-358zM409 266q18 77 44.5 168t62.5 180t83 163t105 118t129 44q91 0 153 -54.5t62 -147.5q0 -88 -58 -147.5t-145 -59.5q-82 0 -139 52.5t-57 134.5q0 85 58.5 136.5t140.5 51.5t140 -42.5t58 -125.5l-24 1q0 84 -54 130.5t-137 46.5
q-66 0 -120.5 -44t-99.5 -116t-80.5 -158.5t-62 -173t-44.5 -157.5h-15zM588 1120l-236 321l13 13l333 -143l413 141l12 -11l-325 -321h-210z" />
    <glyph glyph-name="Sacute" unicode="&#x15a;" horiz-adv-x="1261" 
d="M557 -29q-117 0 -202 49.5t-143 130t-95.5 175t-60.5 184.5h25q20 -77 54 -165t86.5 -166t130 -128t184.5 -50q96 0 163 33.5t102 92.5t35 135q0 78 -34 129.5t-90.5 87t-123.5 65.5t-134 64t-123.5 82.5t-90.5 120.5t-34 179q0 128 52 226.5t136.5 166t185.5 102.5
t199 35q128 0 217.5 -68t145.5 -180t86 -243h-25q-31 125 -82 229.5t-130 167.5t-191 63q-66 0 -124 -25.5t-94 -72.5t-36 -113q0 -61 34.5 -104.5t91.5 -78.5t125.5 -68t137 -72t125.5 -92t91.5 -126.5t34.5 -175.5q0 -105 -47 -209.5t-132 -190.5t-200 -138t-250 -52z
M-60 -20l116 530h25l27 -118q30 -88 66 -161.5t86 -132.5l-298 -118h-22zM1203 1029l-18 95q-28 78 -58.5 145t-90.5 142l284 109h22l-114 -491h-25zM749 1676l-11 16l139 264q28 55 71 80t89 26.5t85 -15.5t60 -46q33 -48 25.5 -110t-52 -111.5t-123.5 -61.5z" />
    <glyph glyph-name="sacute" unicode="&#x15b;" horiz-adv-x="974" 
d="M411 -20q-129 0 -221 32.5t-141 90.5t-49 132q0 76 52.5 130t137.5 54q79 0 131 -47t52 -129q0 -83 -54.5 -126t-129.5 -43q-51 0 -94 22t-68 58.5t-25 80.5h33q0 -70 46.5 -121t123 -78.5t165.5 -27.5q51 0 90.5 25t62.5 63.5t23 79.5q0 51 -29 90.5t-75 72.5t-98 65.5
t-98 68t-75 79.5t-29 102q0 79 51 146t146.5 107.5t228.5 40.5q138 0 218 -35t114 -87.5t34 -104.5q0 -76 -52.5 -120t-117.5 -44q-74 0 -134 48.5t-60 127.5q0 65 47.5 109.5t126.5 44.5q75 0 131.5 -45.5t56.5 -120.5h-29q0 51 -34.5 96t-98.5 73.5t-152 28.5
q-56 0 -93.5 -24t-56.5 -59t-19 -69q0 -52 31.5 -92.5t81 -74.5t105 -67t105 -71t81 -86t31.5 -112q0 -84 -57 -148t-163 -100t-253 -36zM520 1096l-11 16l139 264q28 55 71 80t89 26.5t85 -15.5t60 -46q33 -48 25.5 -110t-52 -111.5t-123.5 -61.5z" />
    <glyph glyph-name="Scircumflex" unicode="&#x15c;" horiz-adv-x="1261" 
d="M557 -29q-117 0 -202 49.5t-143 130t-95.5 175t-60.5 184.5h25q20 -77 54 -165t86.5 -166t130 -128t184.5 -50q96 0 163 33.5t102 92.5t35 135q0 78 -34 129.5t-90.5 87t-123.5 65.5t-134 64t-123.5 82.5t-90.5 120.5t-34 179q0 128 52 226.5t136.5 166t185.5 102.5
t199 35q128 0 217.5 -68t145.5 -180t86 -243h-25q-31 125 -82 229.5t-130 167.5t-191 63q-66 0 -124 -25.5t-94 -72.5t-36 -113q0 -61 34.5 -104.5t91.5 -78.5t125.5 -68t137 -72t125.5 -92t91.5 -126.5t34.5 -175.5q0 -105 -47 -209.5t-132 -190.5t-200 -138t-250 -52z
M-60 -20l116 530h25l27 -118q30 -88 66 -161.5t86 -132.5l-298 -118h-22zM1203 1029l-18 95q-28 78 -58.5 145t-90.5 142l284 109h22l-114 -491h-25zM482 1706l-13 14l325 319h209l236 -319l-12 -12l-334 141z" />
    <glyph glyph-name="scircumflex" unicode="&#x15d;" horiz-adv-x="974" 
d="M411 -20q-129 0 -221 32.5t-141 90.5t-49 132q0 76 52.5 130t137.5 54q79 0 131 -47t52 -129q0 -83 -54.5 -126t-129.5 -43q-51 0 -94 22t-68 58.5t-25 80.5h33q0 -70 46.5 -121t123 -78.5t165.5 -27.5q51 0 90.5 25t62.5 63.5t23 79.5q0 51 -29 90.5t-75 72.5t-98 65.5
t-98 68t-75 79.5t-29 102q0 79 51 146t146.5 107.5t228.5 40.5q138 0 218 -35t114 -87.5t34 -104.5q0 -76 -52.5 -120t-117.5 -44q-74 0 -134 48.5t-60 127.5q0 65 47.5 109.5t126.5 44.5q75 0 131.5 -45.5t56.5 -120.5h-29q0 51 -34.5 96t-98.5 73.5t-152 28.5
q-56 0 -93.5 -24t-56.5 -59t-19 -69q0 -52 31.5 -92.5t81 -74.5t105 -67t105 -71t81 -86t31.5 -112q0 -84 -57 -148t-163 -100t-253 -36zM253 1126l-13 14l325 319h209l236 -319l-12 -12l-334 141z" />
    <glyph glyph-name="Scedilla" unicode="&#x15e;" horiz-adv-x="1261" 
d="M557 -29q-117 0 -202 49.5t-143 130t-95.5 175t-60.5 184.5h25q20 -77 54 -165t86.5 -166t130 -128t184.5 -50q96 0 163 33.5t102 92.5t35 135q0 78 -34 129.5t-90.5 87t-123.5 65.5t-134 64t-123.5 82.5t-90.5 120.5t-34 179q0 128 52 226.5t136.5 166t185.5 102.5
t199 35q128 0 217.5 -68t145.5 -180t86 -243h-25q-31 125 -82 229.5t-130 167.5t-191 63q-66 0 -124 -25.5t-94 -72.5t-36 -113q0 -61 34.5 -104.5t91.5 -78.5t125.5 -68t137 -72t125.5 -92t91.5 -126.5t34.5 -175.5q0 -105 -47 -209.5t-132 -190.5t-200 -138t-250 -52z
M-60 -20l116 530h25l27 -118q30 -88 66 -161.5t86 -132.5l-298 -118h-22zM1203 1029l-18 95q-28 78 -58.5 145t-90.5 142l284 109h22l-114 -491h-25zM219 -509v24q84 0 140 37t56 118q0 50 -32 76t-100 26l232 233h38l-153 -154q84 0 158 -11.5t120.5 -42t46.5 -88.5
q0 -80 -72 -128t-187.5 -69t-246.5 -21z" />
    <glyph glyph-name="scedilla" unicode="&#x15f;" horiz-adv-x="974" 
d="M411 -20q-129 0 -221 32.5t-141 90.5t-49 132q0 76 52.5 130t137.5 54q79 0 131 -47t52 -129q0 -83 -54.5 -126t-129.5 -43q-51 0 -94 22t-68 58.5t-25 80.5h33q0 -70 46.5 -121t123 -78.5t165.5 -27.5q51 0 90.5 25t62.5 63.5t23 79.5q0 51 -29 90.5t-75 72.5t-98 65.5
t-98 68t-75 79.5t-29 102q0 79 51 146t146.5 107.5t228.5 40.5q138 0 218 -35t114 -87.5t34 -104.5q0 -76 -52.5 -120t-117.5 -44q-74 0 -134 48.5t-60 127.5q0 65 47.5 109.5t126.5 44.5q75 0 131.5 -45.5t56.5 -120.5h-29q0 51 -34.5 96t-98.5 73.5t-152 28.5
q-56 0 -93.5 -24t-56.5 -59t-19 -69q0 -52 31.5 -92.5t81 -74.5t105 -67t105 -71t81 -86t31.5 -112q0 -84 -57 -148t-163 -100t-253 -36zM79 -509v24q84 0 140 37t56 118q0 50 -32 76t-100 26l232 233h38l-153 -154q84 0 158 -11.5t120.5 -42t46.5 -88.5q0 -80 -72 -128
t-187.5 -69t-246.5 -21z" />
    <glyph glyph-name="Scaron" unicode="&#x160;" horiz-adv-x="1261" 
d="M557 -29q-117 0 -202 49.5t-143 130t-95.5 175t-60.5 184.5h25q20 -77 54 -165t86.5 -166t130 -128t184.5 -50q96 0 163 33.5t102 92.5t35 135q0 78 -34 129.5t-90.5 87t-123.5 65.5t-134 64t-123.5 82.5t-90.5 120.5t-34 179q0 128 52 226.5t136.5 166t185.5 102.5
t199 35q128 0 217.5 -68t145.5 -180t86 -243h-25q-31 125 -82 229.5t-130 167.5t-191 63q-66 0 -124 -25.5t-94 -72.5t-36 -113q0 -61 34.5 -104.5t91.5 -78.5t125.5 -68t137 -72t125.5 -92t91.5 -126.5t34.5 -175.5q0 -105 -47 -209.5t-132 -190.5t-200 -138t-250 -52z
M-60 -20l116 530h25l27 -118q30 -88 66 -161.5t86 -132.5l-298 -118h-22zM1203 1029l-18 95q-28 78 -58.5 145t-90.5 142l284 109h22l-114 -491h-25zM751 1700l-236 321l13 13l333 -143l413 141l12 -11l-325 -321h-210z" />
    <glyph glyph-name="scaron" unicode="&#x161;" horiz-adv-x="974" 
d="M411 -20q-129 0 -221 32.5t-141 90.5t-49 132q0 76 52.5 130t137.5 54q79 0 131 -47t52 -129q0 -83 -54.5 -126t-129.5 -43q-51 0 -94 22t-68 58.5t-25 80.5h33q0 -70 46.5 -121t123 -78.5t165.5 -27.5q51 0 90.5 25t62.5 63.5t23 79.5q0 51 -29 90.5t-75 72.5t-98 65.5
t-98 68t-75 79.5t-29 102q0 79 51 146t146.5 107.5t228.5 40.5q138 0 218 -35t114 -87.5t34 -104.5q0 -76 -52.5 -120t-117.5 -44q-74 0 -134 48.5t-60 127.5q0 65 47.5 109.5t126.5 44.5q75 0 131.5 -45.5t56.5 -120.5h-29q0 51 -34.5 96t-98.5 73.5t-152 28.5
q-56 0 -93.5 -24t-56.5 -59t-19 -69q0 -52 31.5 -92.5t81 -74.5t105 -67t105 -71t81 -86t31.5 -112q0 -84 -57 -148t-163 -100t-253 -36zM522 1120l-236 321l13 13l333 -143l413 141l12 -11l-325 -321h-210z" />
    <glyph glyph-name="uni0162" unicode="&#x162;" horiz-adv-x="1463" 
d="M396 0l348 1500h430l-348 -1500h-430zM196 0v25h870v-25h-870zM141 990l113 510h1410l-114 -510h-25q-1 127 -36 237.5t-101.5 179t-163.5 68.5h-550q-73 0 -144.5 -40t-138 -108t-124.5 -155t-102 -182h-24zM307 -509v24q84 0 140 37t56 118q0 50 -32 76t-100 26
l232 233h38l-153 -154q84 0 158 -11.5t120.5 -42t46.5 -88.5q0 -80 -72 -128t-187.5 -69t-246.5 -21z" />
    <glyph glyph-name="uni0163" unicode="&#x163;" horiz-adv-x="744" 
d="M297 -20q-92 0 -143.5 23t-72.5 59t-21 75q0 31 10 67t18 66l221 850h360l-267 -1005q-3 -11 -6 -24t-3 -27q0 -28 23 -28q10 0 34 9t58 37.5t74.5 88.5t82.5 162l25 -7q-53 -120 -105.5 -196.5t-120 -113t-167.5 -36.5zM64 895v25h740v-25h-740zM-23 -509v24
q84 0 140 37t56 118q0 50 -32 76t-100 26l232 233h38l-153 -154q84 0 158 -11.5t120.5 -42t46.5 -88.5q0 -80 -72 -128t-187.5 -69t-246.5 -21z" />
    <glyph glyph-name="Tcaron" unicode="&#x164;" horiz-adv-x="1463" 
d="M396 0l348 1500h430l-348 -1500h-430zM196 0v25h870v-25h-870zM141 990l113 510h1410l-114 -510h-25q-1 127 -36 237.5t-101.5 179t-163.5 68.5h-550q-73 0 -144.5 -40t-138 -108t-124.5 -155t-102 -182h-24zM910 1700l-236 321l13 13l333 -143l413 141l12 -11l-325 -321
h-210z" />
    <glyph glyph-name="tcaron" unicode="&#x165;" horiz-adv-x="744" 
d="M297 -20q-92 0 -143.5 23t-72.5 59t-21 75q0 31 10 67t18 66l221 850h360l-267 -1005q-3 -11 -6 -24t-3 -27q0 -28 23 -28q10 0 34 9t58 37.5t74.5 88.5t82.5 162l25 -7q-53 -120 -105.5 -196.5t-120 -113t-167.5 -36.5zM64 895v25h740v-25h-740zM735 1006v20
q87 0 176.5 23t164 69t120.5 116.5t46 166.5h18q0 -56 -33 -92t-80.5 -53t-91.5 -17q-93 0 -148.5 53.5t-55.5 132.5q0 51 28.5 95.5t75 72t100.5 27.5q83 0 145 -60t62 -159t-46.5 -173t-124 -123.5t-170.5 -74t-186 -24.5z" />
    <glyph glyph-name="Tbar" unicode="&#x166;" horiz-adv-x="1463" 
d="M358 783v24h871v-24h-871zM396 8l348 1500h430l-348 -1500h-430zM196 8v25h870v-25h-870zM141 998l113 510h1410l-114 -510h-25q-1 127 -36 237.5t-101.5 179t-163.5 68.5h-550q-73 0 -144.5 -40t-138 -108t-124.5 -155t-102 -182h-24z" />
    <glyph glyph-name="tbar" unicode="&#x167;" horiz-adv-x="744" 
d="M29 598v24h681v-24h-681zM297 -20q-92 0 -143.5 23t-72.5 59t-21 75q0 31 10 67t18 66l221 850h360l-267 -1005q-3 -11 -6 -24t-3 -27q0 -28 23 -28q10 0 34 9t58 37.5t74.5 88.5t82.5 162l25 -7q-53 -120 -105.5 -196.5t-120 -113t-167.5 -36.5zM64 895v25h740v-25h-740
z" />
    <glyph glyph-name="Utilde" unicode="&#x168;" horiz-adv-x="1483" 
d="M664 -29q-163 0 -285 54t-177.5 162.5t-17.5 272.5l240 1040h430l-241 -1020q-22 -94 -30 -176.5t7 -145t60.5 -98t130.5 -35.5q98 0 189.5 46t161.5 142t105 247l240 1040h24l-240 -1040q-36 -157 -116 -266.5t-201.5 -166t-279.5 -56.5zM234 1475v25h810v-25h-810z
M1273 1475v25h401v-25h-401zM1295 1620q-58 0 -103.5 24t-86 55t-80.5 54.5t-84 23.5q-35 0 -67 -14.5t-62 -62.5h-25q20 85 52.5 156.5t85 114.5t131.5 43q52 0 96 -24t83.5 -55.5t77 -55.5t76.5 -24q35 0 67 15.5t62 63.5h25q-20 -95 -47.5 -165.5t-74.5 -109.5t-126 -39z
" />
    <glyph glyph-name="utilde" unicode="&#x169;" horiz-adv-x="1196" 
d="M260 -20q-79 0 -129.5 37.5t-66 105t8.5 159.5l165 613h-123v25h497l-177 -644q-22 -79 -28.5 -119t-2.5 -54t15 -14q17 0 52.5 39.5t80 114t89 178.5t78.5 233h20q-24 -92 -59.5 -187t-80 -182t-98 -156t-114 -109t-127.5 -40zM810 -20q-115 0 -165.5 41.5t-50.5 120.5
q0 19 3 40t7 38l185 700h365l-220 -821q-3 -9 -4.5 -17t-1.5 -15q0 -19 17 -19q13 0 44.5 18.5t78 78.5t104.5 185l24 -8q-51 -111 -106 -187t-122.5 -115.5t-157.5 -39.5zM925 1040q-58 0 -103.5 24t-86 55t-80.5 54.5t-84 23.5q-35 0 -67 -14.5t-62 -62.5h-25
q20 85 52.5 156.5t85 114.5t131.5 43q52 0 96 -24t83.5 -55.5t77 -55.5t76.5 -24q35 0 67 15.5t62 63.5h25q-20 -95 -47.5 -165.5t-74.5 -109.5t-126 -39z" />
    <glyph glyph-name="Umacron" unicode="&#x16a;" horiz-adv-x="1483" 
d="M664 -29q-163 0 -285 54t-177.5 162.5t-17.5 272.5l240 1040h430l-241 -1020q-22 -94 -30 -176.5t7 -145t60.5 -98t130.5 -35.5q98 0 189.5 46t161.5 142t105 247l240 1040h24l-240 -1040q-36 -157 -116 -266.5t-201.5 -166t-279.5 -56.5zM234 1475v25h810v-25h-810z
M1273 1475v25h401v-25h-401zM826 1700v25h480v-25h-480z" />
    <glyph glyph-name="umacron" unicode="&#x16b;" horiz-adv-x="1196" 
d="M260 -20q-79 0 -129.5 37.5t-66 105t8.5 159.5l165 613h-123v25h497l-177 -644q-22 -79 -28.5 -119t-2.5 -54t15 -14q17 0 52.5 39.5t80 114t89 178.5t78.5 233h20q-24 -92 -59.5 -187t-80 -182t-98 -156t-114 -109t-127.5 -40zM810 -20q-115 0 -165.5 41.5t-50.5 120.5
q0 19 3 40t7 38l185 700h365l-220 -821q-3 -9 -4.5 -17t-1.5 -15q0 -19 17 -19q13 0 44.5 18.5t78 78.5t104.5 185l24 -8q-51 -111 -106 -187t-122.5 -115.5t-157.5 -39.5zM456 1120v25h480v-25h-480z" />
    <glyph glyph-name="Ubreve" unicode="&#x16c;" horiz-adv-x="1483" 
d="M664 -29q-163 0 -285 54t-177.5 162.5t-17.5 272.5l240 1040h430l-241 -1020q-22 -94 -30 -176.5t7 -145t60.5 -98t130.5 -35.5q98 0 189.5 46t161.5 142t105 247l240 1040h24l-240 -1040q-36 -157 -116 -266.5t-201.5 -166t-279.5 -56.5zM234 1475v25h810v-25h-810z
M1273 1475v25h401v-25h-401zM1109 1682q-83 0 -128 41t-62.5 102t-17 125t7.5 109h25q-5 -37 22 -60.5t73 -35.5t100 -12t111.5 7t102.5 29.5t61 71.5h25q-7 -45 -25 -109t-52.5 -125t-93.5 -102t-149 -41z" />
    <glyph glyph-name="ubreve" unicode="&#x16d;" horiz-adv-x="1196" 
d="M260 -20q-79 0 -129.5 37.5t-66 105t8.5 159.5l165 613h-123v25h497l-177 -644q-22 -79 -28.5 -119t-2.5 -54t15 -14q17 0 52.5 39.5t80 114t89 178.5t78.5 233h20q-24 -92 -59.5 -187t-80 -182t-98 -156t-114 -109t-127.5 -40zM810 -20q-115 0 -165.5 41.5t-50.5 120.5
q0 19 3 40t7 38l185 700h365l-220 -821q-3 -9 -4.5 -17t-1.5 -15q0 -19 17 -19q13 0 44.5 18.5t78 78.5t104.5 185l24 -8q-51 -111 -106 -187t-122.5 -115.5t-157.5 -39.5zM739 1102q-83 0 -128 41t-62.5 102t-17 125t7.5 109h25q-5 -37 22 -60.5t73 -35.5t100 -12t111.5 7
t102.5 29.5t61 71.5h25q-7 -45 -25 -109t-52.5 -125t-93.5 -102t-149 -41z" />
    <glyph glyph-name="Uring" unicode="&#x16e;" horiz-adv-x="1483" 
d="M664 -29q-163 0 -285 54t-177.5 162.5t-17.5 272.5l240 1040h430l-241 -1020q-22 -94 -30 -176.5t7 -145t60.5 -98t130.5 -35.5q98 0 189.5 46t161.5 142t105 247l240 1040h24l-240 -1040q-36 -157 -116 -266.5t-201.5 -166t-279.5 -56.5zM234 1475v25h810v-25h-810z
M1273 1475v25h401v-25h-401zM1116 1680q-107 0 -169 51.5t-62 127.5q0 77 62 129t169 52q106 0 167.5 -52t61.5 -129q0 -76 -61.5 -127.5t-167.5 -51.5zM1084 1696q21 0 38 32t30 77.5t20 89.5t7 68q0 18 -4 39t-30 21q-20 0 -37.5 -32t-30 -78t-19.5 -90t-7 -68
q0 -18 4 -38.5t29 -20.5z" />
    <glyph glyph-name="uring" unicode="&#x16f;" horiz-adv-x="1196" 
d="M260 -20q-79 0 -129.5 37.5t-66 105t8.5 159.5l165 613h-123v25h497l-177 -644q-22 -79 -28.5 -119t-2.5 -54t15 -14q17 0 52.5 39.5t80 114t89 178.5t78.5 233h20q-24 -92 -59.5 -187t-80 -182t-98 -156t-114 -109t-127.5 -40zM810 -20q-115 0 -165.5 41.5t-50.5 120.5
q0 19 3 40t7 38l185 700h365l-220 -821q-3 -9 -4.5 -17t-1.5 -15q0 -19 17 -19q13 0 44.5 18.5t78 78.5t104.5 185l24 -8q-51 -111 -106 -187t-122.5 -115.5t-157.5 -39.5zM746 1100q-107 0 -169 51.5t-62 127.5q0 77 62 129t169 52q106 0 167.5 -52t61.5 -129
q0 -76 -61.5 -127.5t-167.5 -51.5zM714 1116q21 0 38 32t30 77.5t20 89.5t7 68q0 18 -4 39t-30 21q-20 0 -37.5 -32t-30 -78t-19.5 -90t-7 -68q0 -18 4 -38.5t29 -20.5z" />
    <glyph glyph-name="Uhungarumlaut" unicode="&#x170;" horiz-adv-x="1483" 
d="M664 -29q-163 0 -285 54t-177.5 162.5t-17.5 272.5l240 1040h430l-241 -1020q-22 -94 -30 -176.5t7 -145t60.5 -98t130.5 -35.5q98 0 189.5 46t161.5 142t105 247l240 1040h24l-240 -1040q-36 -157 -116 -266.5t-201.5 -166t-279.5 -56.5zM234 1475v25h810v-25h-810z
M1273 1475v25h401v-25h-401zM1229 1676l-11 16l139 264q28 55 71 80t89 26.5t85 -15.5t60 -46q33 -48 25.5 -110t-52 -111.5t-123.5 -61.5zM719 1676l-11 16l139 264q28 55 71 80t89 26.5t85 -15.5t60 -46q33 -48 25.5 -110t-52 -111.5t-123.5 -61.5z" />
    <glyph glyph-name="uhungarumlaut" unicode="&#x171;" horiz-adv-x="1196" 
d="M260 -20q-79 0 -129.5 37.5t-66 105t8.5 159.5l165 613h-123v25h497l-177 -644q-22 -79 -28.5 -119t-2.5 -54t15 -14q17 0 52.5 39.5t80 114t89 178.5t78.5 233h20q-24 -92 -59.5 -187t-80 -182t-98 -156t-114 -109t-127.5 -40zM810 -20q-115 0 -165.5 41.5t-50.5 120.5
q0 19 3 40t7 38l185 700h365l-220 -821q-3 -9 -4.5 -17t-1.5 -15q0 -19 17 -19q13 0 44.5 18.5t78 78.5t104.5 185l24 -8q-51 -111 -106 -187t-122.5 -115.5t-157.5 -39.5zM859 1096l-11 16l139 264q28 55 71 80t89 26.5t85 -15.5t60 -46q33 -48 25.5 -110t-52 -111.5
t-123.5 -61.5zM349 1096l-11 16l139 264q28 55 71 80t89 26.5t85 -15.5t60 -46q33 -48 25.5 -110t-52 -111.5t-123.5 -61.5z" />
    <glyph glyph-name="Uogonek" unicode="&#x172;" horiz-adv-x="1483" 
d="M664 -29q-163 0 -285 54t-177.5 162.5t-17.5 272.5l240 1040h430l-241 -1020q-22 -94 -30 -176.5t7 -145t60.5 -98t130.5 -35.5q98 0 189.5 46t161.5 142t105 247l240 1040h24l-240 -1040q-36 -157 -116 -266.5t-201.5 -166t-279.5 -56.5zM234 1475v25h810v-25h-810z
M1273 1475v25h401v-25h-401zM666 -473q-71 0 -127.5 16.5t-89.5 50t-33 83.5q0 60 45.5 112.5t120 97.5t160 81t164.5 61l6 -13q-31 -24 -62.5 -74t-52 -111.5t-20.5 -121.5q0 -48 12 -79t39 -31q31 0 61 22.5t53.5 51t33.5 49.5l20 -10q-15 -28 -54 -72t-107 -78.5
t-169 -34.5z" />
    <glyph glyph-name="uogonek" unicode="&#x173;" horiz-adv-x="1196" 
d="M260 -20q-79 0 -129.5 37.5t-66 105t8.5 159.5l165 613h-123v25h497l-177 -644q-22 -79 -28.5 -119t-2.5 -54t15 -14q17 0 52.5 39.5t80 114t89 178.5t78.5 233h20q-24 -92 -59.5 -187t-80 -182t-98 -156t-114 -109t-127.5 -40zM810 -20q-115 0 -165.5 41.5t-50.5 120.5
q0 19 3 40t7 38l185 700h365l-220 -821q-3 -9 -4.5 -17t-1.5 -15q0 -19 17 -19q13 0 44.5 18.5t78 78.5t104.5 185l24 -8q-51 -111 -106 -187t-122.5 -115.5t-157.5 -39.5zM711 -473q-71 0 -127.5 16.5t-89.5 50t-33 83.5q0 60 45.5 112.5t120 97.5t160 81t164.5 61l6 -13
q-31 -24 -62.5 -74t-52 -111.5t-20.5 -121.5q0 -48 12 -79t39 -31q31 0 61 22.5t53.5 51t33.5 49.5l20 -10q-15 -28 -54 -72t-107 -78.5t-169 -34.5z" />
    <glyph glyph-name="Wcircumflex" unicode="&#x174;" horiz-adv-x="2465" 
d="M1423 -20l-282 1520h440l205 -1099l678 1099h27l-936 -1520h-132zM656 -20l-282 1520h504l195 -1100l334 554h27l-586 -974h-192zM230 1475v25h1960v-25h-1960zM1544 834l410 666h27l-410 -666h-27zM2266 1475v25h400v-25h-400zM1202 1706l-13 14l325 319h209l236 -319
l-12 -12l-334 141z" />
    <glyph glyph-name="wcircumflex" unicode="&#x175;" horiz-adv-x="1706" 
d="M1114 -20q-67 0 -139 24t-131.5 75t-88 132.5t-7.5 196.5l135 512h360l-135 -509q-17 -63 -38.5 -132.5t-31.5 -131t7 -100.5t78 -39q100 0 185.5 48t154 125.5t116.5 168t74 177t26 151.5q0 109 -55.5 171.5t-135.5 63.5v23q60 0 107 -31t74 -79.5t27 -101.5
q0 -103 -65 -158.5t-148 -55.5q-82 0 -144.5 57.5t-62.5 151.5q0 95 63.5 157t148.5 62q95 0 156.5 -69t61.5 -191q0 -66 -26 -156t-76 -184.5t-122 -175.5t-164.5 -131.5t-203.5 -50.5zM342 -20q-90 0 -150.5 33t-80 100t15.5 169l172 504q3 9 7.5 23.5t4.5 27.5
q0 23 -23 23q-19 0 -58.5 -33t-83 -93.5t-75.5 -143.5l-24 8q38 100 98.5 177.5t135.5 121t158 43.5q97 0 157 -43t60 -108q0 -25 -7 -53.5t-14 -49.5l-143 -416q-41 -118 -57.5 -172t14.5 -54q36 0 83 39t96 110.5t92.5 168.5t71.5 212h22q-17 -70 -46 -151t-70 -159.5
t-94 -142.5t-119 -102.5t-143 -38.5zM742 1126l-13 14l325 319h209l236 -319l-12 -12l-334 141z" />
    <glyph glyph-name="Ycircumflex" unicode="&#x176;" horiz-adv-x="1559" 
d="M460 0l170 754l-260 746h472l219 -686l521 682h32l-560 -728l-163 -768h-431zM279 0v25h811v-25h-811zM230 1475v25h812v-25h-812zM1340 1475v25h420v-25h-420zM762 1706l-13 14l325 319h209l236 -319l-12 -12l-334 141z" />
    <glyph glyph-name="ycircumflex" unicode="&#x177;" horiz-adv-x="1358" 
d="M283 -520q-87 0 -151.5 37t-100.5 100t-36 140q0 56 26.5 104.5t72.5 78t104 29.5q45 0 89.5 -22t73.5 -63.5t29 -101.5q0 -84 -54.5 -137t-133.5 -53q-53 0 -100 22.5t-76 60t-29 82.5h24q0 -70 32 -127.5t90 -92t139 -34.5q93 0 193.5 53.5t201.5 144t195.5 203
t175 232.5t141.5 233t95 204.5t34 145.5q0 50 -24 94.5t-68.5 72.5t-107.5 28v23q64 0 113.5 -29t77 -74t27.5 -95q0 -53 -29.5 -95.5t-77.5 -67t-102 -24.5q-90 0 -151.5 54.5t-61.5 139.5q0 83 59.5 138t144.5 55q78 0 128 -32t74 -81.5t24 -103.5q0 -56 -34 -150
t-95.5 -209.5t-143 -238t-177.5 -237.5t-199.5 -207t-208 -146t-203.5 -54zM700 -289q-37 63 -77 157t-80 203t-77.5 220.5t-70.5 211.5t-57.5 176t-38.5 112q-6 16 -19 40t-43 24q-36 0 -87.5 -38.5t-86.5 -134.5l-24 11q33 90 89.5 144t128 78t149.5 24q145 0 210.5 -56.5
t93.5 -151.5q20 -68 46 -160.5t59 -193t72.5 -195.5t86.5 -167q-28 -37 -58.5 -74t-65 -74t-72 -76t-78.5 -80zM386 1126l-13 14l325 319h209l236 -319l-12 -12l-334 141z" />
    <glyph glyph-name="Ydieresis" unicode="&#x178;" horiz-adv-x="1559" 
d="M460 0l170 754l-260 746h472l219 -686l521 682h32l-560 -728l-163 -768h-431zM279 0v25h811v-25h-811zM230 1475v25h812v-25h-812zM1340 1475v25h420v-25h-420zM1365 1682q-70 0 -119 49.5t-49 119.5q0 69 49 118t119 49q69 0 118.5 -49t49.5 -118q0 -70 -49.5 -119.5
t-118.5 -49.5zM905 1682q-70 0 -119 49.5t-49 119.5q0 69 49 118t119 49q69 0 118.5 -49t49.5 -118q0 -70 -49.5 -119.5t-118.5 -49.5z" />
    <glyph glyph-name="Zacute" unicode="&#x179;" horiz-adv-x="1327" 
d="M-109 0v25l1037 1450h-190q-137 0 -236 -49t-173.5 -134t-139.5 -192h-25l94 400h1200v-25l-1038 -1450h250q137 0 232 51t170.5 144t154.5 219h25l-102 -439h-1259zM739 1676l-11 16l139 264q28 55 71 80t89 26.5t85 -15.5t60 -46q33 -48 25.5 -110t-52 -111.5
t-123.5 -61.5z" />
    <glyph glyph-name="zacute" unicode="&#x17a;" horiz-adv-x="1016" 
d="M-80 -1l966 918l41 4l-928 -881zM-64 -20l-16 19q111 92 211 170.5t183.5 125.5t145.5 47q54 0 90.5 -22t67.5 -51t68 -51.5t91 -22.5q51 0 92 23.5t66.5 73.5t25.5 128h23q0 -45 -28.5 -83t-73.5 -61.5t-96 -23.5q-46 0 -85.5 25t-64 65.5t-24.5 89.5q0 75 55 128.5
t130 53.5q49 0 92 -25t70 -69t27 -100q0 -82 -37 -160.5t-99.5 -142t-138 -100.5t-152.5 -37q-57 0 -105 15t-92 34t-88.5 34t-94.5 15q-72 0 -133.5 -25t-109.5 -73zM3 380l134 559q54 -30 120 -47.5t129.5 -25t109.5 -7.5q36 0 93 4t119 12.5t117 24t87 39.5l15 -18
q-81 -60 -167.5 -131.5t-171.5 -135.5t-160.5 -105t-133.5 -41q-66 0 -122 21.5t-95 44.5l-49 -194h-25zM475 1096l-11 16l139 264q28 55 71 80t89 26.5t85 -15.5t60 -46q33 -48 25.5 -110t-52 -111.5t-123.5 -61.5z" />
    <glyph glyph-name="Zdotaccent" unicode="&#x17b;" horiz-adv-x="1327" 
d="M-109 0v25l1037 1450h-190q-137 0 -236 -49t-173.5 -134t-139.5 -192h-25l94 400h1200v-25l-1038 -1450h250q137 0 232 51t170.5 144t154.5 219h25l-102 -439h-1259zM885 1659q-63 0 -112.5 31t-78 81.5t-28.5 108.5t28.5 108t78 81t112.5 31t113 -31t79 -81t29 -108
t-29 -108.5t-79 -81.5t-113 -31z" />
    <glyph glyph-name="zdotaccent" unicode="&#x17c;" horiz-adv-x="1016" 
d="M-80 -1l966 918l41 4l-928 -881zM-64 -20l-16 19q111 92 211 170.5t183.5 125.5t145.5 47q54 0 90.5 -22t67.5 -51t68 -51.5t91 -22.5q51 0 92 23.5t66.5 73.5t25.5 128h23q0 -45 -28.5 -83t-73.5 -61.5t-96 -23.5q-46 0 -85.5 25t-64 65.5t-24.5 89.5q0 75 55 128.5
t130 53.5q49 0 92 -25t70 -69t27 -100q0 -82 -37 -160.5t-99.5 -142t-138 -100.5t-152.5 -37q-57 0 -105 15t-92 34t-88.5 34t-94.5 15q-72 0 -133.5 -25t-109.5 -73zM3 380l134 559q54 -30 120 -47.5t129.5 -25t109.5 -7.5q36 0 93 4t119 12.5t117 24t87 39.5l15 -18
q-81 -60 -167.5 -131.5t-171.5 -135.5t-160.5 -105t-133.5 -41q-66 0 -122 21.5t-95 44.5l-49 -194h-25zM620 1079q-63 0 -112.5 31t-78 81.5t-28.5 108.5t28.5 108t78 81t112.5 31t113 -31t79 -81t29 -108t-29 -108.5t-79 -81.5t-113 -31z" />
    <glyph glyph-name="Zcaron" unicode="&#x17d;" horiz-adv-x="1327" 
d="M-109 0v25l1037 1450h-190q-137 0 -236 -49t-173.5 -134t-139.5 -192h-25l94 400h1200v-25l-1038 -1450h250q137 0 232 51t170.5 144t154.5 219h25l-102 -439h-1259zM741 1700l-236 321l13 13l333 -143l413 141l12 -11l-325 -321h-210z" />
    <glyph glyph-name="zcaron" unicode="&#x17e;" horiz-adv-x="1016" 
d="M-80 -1l966 918l41 4l-928 -881zM-64 -20l-16 19q111 92 211 170.5t183.5 125.5t145.5 47q54 0 90.5 -22t67.5 -51t68 -51.5t91 -22.5q51 0 92 23.5t66.5 73.5t25.5 128h23q0 -45 -28.5 -83t-73.5 -61.5t-96 -23.5q-46 0 -85.5 25t-64 65.5t-24.5 89.5q0 75 55 128.5
t130 53.5q49 0 92 -25t70 -69t27 -100q0 -82 -37 -160.5t-99.5 -142t-138 -100.5t-152.5 -37q-57 0 -105 15t-92 34t-88.5 34t-94.5 15q-72 0 -133.5 -25t-109.5 -73zM3 380l134 559q54 -30 120 -47.5t129.5 -25t109.5 -7.5q36 0 93 4t119 12.5t117 24t87 39.5l15 -18
q-81 -60 -167.5 -131.5t-171.5 -135.5t-160.5 -105t-133.5 -41q-66 0 -122 21.5t-95 44.5l-49 -194h-25zM476 1120l-236 321l13 13l333 -143l413 141l12 -11l-325 -321h-210z" />
    <glyph glyph-name="longs" unicode="&#x17f;" horiz-adv-x="917" 
d="M-85 -520q-108 0 -185.5 34t-119.5 89.5t-42 119.5q0 92 62.5 150.5t141.5 58.5q90 0 147 -57.5t57 -141.5q0 -56 -30 -101.5t-78 -72.5t-103 -27q-49 0 -94 28.5t-73 72.5t-28 90h23q0 -55 33.5 -102.5t91.5 -76.5t132 -29q75 0 120 48t72 131t48 188.5t48 220.5
l210 920q30 128 75.5 221.5t110 155t152.5 91t204 29.5q109 0 186.5 -34t119 -89t41.5 -120q0 -88 -60.5 -148.5t-143.5 -60.5q-82 0 -143 57t-61 142q0 58 29.5 103t78 71.5t105.5 26.5q35 0 69 -16.5t62 -44.5t45 -61.5t17 -68.5h-23q0 54 -33.5 102t-91.5 77t-132 29
q-75 0 -119 -48t-69.5 -130.5t-45 -188.5t-46.5 -221l-210 -920q-29 -128 -75 -221.5t-112 -154.5t-156 -91t-207 -30z" />
    <glyph glyph-name="florin" unicode="&#x192;" horiz-adv-x="917" 
d="M-85 -520q-108 0 -185.5 34t-119.5 89.5t-42 119.5q0 92 62.5 150.5t141.5 58.5q90 0 147 -57.5t57 -141.5q0 -56 -30 -101.5t-78 -72.5t-103 -27q-49 0 -94 28.5t-73 72.5t-28 90h23q0 -55 33.5 -102.5t91.5 -76.5t132 -29q75 0 120 48t72 131t48 188.5t48 220.5
l210 920q30 128 75.5 221.5t110 155t152.5 91t204 29.5q109 0 186.5 -34t119 -89t41.5 -120q0 -88 -60.5 -148.5t-143.5 -60.5q-82 0 -143 57t-61 142q0 58 29.5 103t78 71.5t105.5 26.5q35 0 69 -16.5t62 -44.5t45 -61.5t17 -68.5h-23q0 54 -33.5 102t-91.5 77t-132 29
q-75 0 -119 -48t-69.5 -130.5t-45 -188.5t-46.5 -221l-210 -920q-29 -128 -75 -221.5t-112 -154.5t-156 -91t-207 -30zM133 895v25h811v-25h-811z" />
    <glyph glyph-name="uni0212" unicode="&#x212;" 
d="M109 0l351 1500h431l-351 -1500h-431zM-70 0v25h830v-25h-830zM1189 -20q-121 0 -185 32.5t-87.5 88.5t-21 125t16.5 143t23.5 143t0.5 124.5t-51.5 88t-134.5 32.5h-90v14h231q168 0 263.5 -40t138 -107t49.5 -147t-3.5 -159.5t-21.5 -146.5t-4 -107.5t51 -40.5
q21 0 46.5 7t51.5 17l9 -24q-54 -20 -126 -31.5t-156 -11.5zM660 767v16h110q88 0 150 35.5t103 93t64.5 125t33 131.5t9.5 111q0 37 -9 72.5t-31 63t-61 44t-99 16.5h-670v25h810q131 0 242.5 -29t180 -95t68.5 -176q0 -140 -89 -236.5t-245 -146.5t-357 -50h-210z
M666 1699q8 45 25.5 109t52 125t93.5 102t149 41q83 0 128 -41t62.5 -102t17.5 -125t-8 -109h-25q5 37 -22 60.5t-73 35.5t-100 12t-111.5 -7t-102.5 -29.5t-61 -71.5h-25z" />
    <glyph glyph-name="uni0213" unicode="&#x213;" horiz-adv-x="998" 
d="M0 0l233 895h-163v25h518l-230 -920h-358zM409 266q18 77 44.5 168t62.5 180t83 163t105 118t129 44q91 0 153 -54.5t62 -147.5q0 -88 -58 -147.5t-145 -59.5q-82 0 -139 52.5t-57 134.5q0 85 58.5 136.5t140.5 51.5t140 -42.5t58 -125.5l-24 1q0 84 -54 130.5t-137 46.5
q-66 0 -120.5 -44t-99.5 -116t-80.5 -158.5t-62 -173t-44.5 -157.5h-15zM393 1119q8 45 25.5 109t52 125t93.5 102t149 41q83 0 128 -41t62.5 -102t17.5 -125t-8 -109h-25q5 37 -22 60.5t-73 35.5t-100 12t-111.5 -7t-102.5 -29.5t-61 -71.5h-25z" />
    <glyph glyph-name="uni0218" unicode="&#x218;" horiz-adv-x="1261" 
d="M557 -29q-117 0 -202 49.5t-143 130t-95.5 175t-60.5 184.5h25q20 -77 54 -165t86.5 -166t130 -128t184.5 -50q96 0 163 33.5t102 92.5t35 135q0 78 -34 129.5t-90.5 87t-123.5 65.5t-134 64t-123.5 82.5t-90.5 120.5t-34 179q0 128 52 226.5t136.5 166t185.5 102.5
t199 35q128 0 217.5 -68t145.5 -180t86 -243h-25q-31 125 -82 229.5t-130 167.5t-191 63q-66 0 -124 -25.5t-94 -72.5t-36 -113q0 -61 34.5 -104.5t91.5 -78.5t125.5 -68t137 -72t125.5 -92t91.5 -126.5t34.5 -175.5q0 -105 -47 -209.5t-132 -190.5t-200 -138t-250 -52z
M-60 -20l116 530h25l27 -118q30 -88 66 -161.5t86 -132.5l-298 -118h-22zM1203 1029l-18 95q-28 78 -58.5 145t-90.5 142l284 109h22l-114 -491h-25zM169 -794v21q87 0 176 23t164 69t120.5 116.5t45.5 166.5h19q0 -56 -33.5 -92t-81 -53t-90.5 -17q-94 0 -149 53.5
t-55 132.5q0 50 28 94.5t74.5 72.5t100.5 28q83 0 145 -60t62 -159t-46.5 -173t-123.5 -123.5t-170 -74.5t-186 -25z" />
    <glyph glyph-name="uni0219" unicode="&#x219;" horiz-adv-x="974" 
d="M411 -20q-129 0 -221 32.5t-141 90.5t-49 132q0 76 52.5 130t137.5 54q79 0 131 -47t52 -129q0 -83 -54.5 -126t-129.5 -43q-51 0 -94 22t-68 58.5t-25 80.5h33q0 -70 46.5 -121t123 -78.5t165.5 -27.5q51 0 90.5 25t62.5 63.5t23 79.5q0 51 -29 90.5t-75 72.5t-98 65.5
t-98 68t-75 79.5t-29 102q0 79 51 146t146.5 107.5t228.5 40.5q138 0 218 -35t114 -87.5t34 -104.5q0 -76 -52.5 -120t-117.5 -44q-74 0 -134 48.5t-60 127.5q0 65 47.5 109.5t126.5 44.5q75 0 131.5 -45.5t56.5 -120.5h-29q0 51 -34.5 96t-98.5 73.5t-152 28.5
q-56 0 -93.5 -24t-56.5 -59t-19 -69q0 -52 31.5 -92.5t81 -74.5t105 -67t105 -71t81 -86t31.5 -112q0 -84 -57 -148t-163 -100t-253 -36zM29 -794v21q87 0 176 23t164 69t120.5 116.5t45.5 166.5h19q0 -56 -33.5 -92t-81 -53t-90.5 -17q-94 0 -149 53.5t-55 132.5
q0 50 28 94.5t74.5 72.5t100.5 28q83 0 145 -60t62 -159t-46.5 -173t-123.5 -123.5t-170 -74.5t-186 -25z" />
    <glyph glyph-name="uni021A" unicode="&#x21a;" horiz-adv-x="1463" 
d="M396 0l348 1500h430l-348 -1500h-430zM196 0v25h870v-25h-870zM141 990l113 510h1410l-114 -510h-25q-1 127 -36 237.5t-101.5 179t-163.5 68.5h-550q-73 0 -144.5 -40t-138 -108t-124.5 -155t-102 -182h-24zM257 -794v21q87 0 176 23t164 69t120.5 116.5t45.5 166.5h19
q0 -56 -33.5 -92t-81 -53t-90.5 -17q-94 0 -149 53.5t-55 132.5q0 50 28 94.5t74.5 72.5t100.5 28q83 0 145 -60t62 -159t-46.5 -173t-123.5 -123.5t-170 -74.5t-186 -25z" />
    <glyph glyph-name="uni021B" unicode="&#x21b;" horiz-adv-x="744" 
d="M297 -20q-92 0 -143.5 23t-72.5 59t-21 75q0 31 10 67t18 66l221 850h360l-267 -1005q-3 -11 -6 -24t-3 -27q0 -28 23 -28q10 0 34 9t58 37.5t74.5 88.5t82.5 162l25 -7q-53 -120 -105.5 -196.5t-120 -113t-167.5 -36.5zM64 895v25h740v-25h-740zM-73 -794v21
q87 0 176 23t164 69t120.5 116.5t45.5 166.5h19q0 -56 -33.5 -92t-81 -53t-90.5 -17q-94 0 -149 53.5t-55 132.5q0 50 28 94.5t74.5 72.5t100.5 28q83 0 145 -60t62 -159t-46.5 -173t-123.5 -123.5t-170 -74.5t-186 -25z" />
    <glyph glyph-name="uni0237" unicode="&#x237;" horiz-adv-x="679" 
d="M-116 -520q-91 0 -171 32.5t-130 91t-50 134.5q0 61 32.5 107t82 71.5t99.5 25.5q45 0 94 -22t83 -64t34 -102q0 -50 -29.5 -95t-78.5 -73t-106 -28q-49 0 -97 25t-80 66t-32 89h23q0 -71 47 -123t119 -80.5t149 -28.5q68 0 107 48t60 127t35 173t31 186l186 855h-187v25
h574l-195 -943q-19 -94 -78 -183t-144 -160t-182.5 -112.5t-195.5 -41.5z" />
    <glyph glyph-name="circumflex" unicode="&#x2c6;" horiz-adv-x="1000" 
d="M419 1706l-13 14l325 319h209l236 -319l-12 -12l-334 141z" />
    <glyph glyph-name="caron" unicode="&#x2c7;" horiz-adv-x="1000" 
d="M711 1700l-236 321l13 13l333 -143l413 141l12 -11l-325 -321h-210z" />
    <glyph glyph-name="breve" unicode="&#x2d8;" horiz-adv-x="1000" 
d="M808 1682q-83 0 -128 41t-62.5 102t-17 125t7.5 109h25q-5 -37 22 -60.5t73 -35.5t100 -12t111.5 7t102.5 29.5t61 71.5h25q-7 -45 -25 -109t-52.5 -125t-93.5 -102t-149 -41z" />
    <glyph glyph-name="dotaccent" unicode="&#x2d9;" horiz-adv-x="1000" 
d="M695 1079q-63 0 -112.5 31t-78 81.5t-28.5 108.5t28.5 108t78 81t112.5 31t113 -31t79 -81t29 -108t-29 -108.5t-79 -81.5t-113 -31z" />
    <glyph glyph-name="ring" unicode="&#x2da;" horiz-adv-x="1000" 
d="M824 1680q-107 0 -169 51.5t-62 127.5q0 77 62 129t169 52q106 0 167.5 -52t61.5 -129q0 -76 -61.5 -127.5t-167.5 -51.5zM792 1696q21 0 38 32t30 77.5t20 89.5t7 68q0 18 -4 39t-30 21q-20 0 -37.5 -32t-30 -78t-19.5 -90t-7 -68q0 -18 4 -38.5t29 -20.5z" />
    <glyph glyph-name="ogonek" unicode="&#x2db;" horiz-adv-x="1000" 
d="M293 -441q-71 0 -127.5 16.5t-89.5 50t-33 83.5q0 60 45.5 112.5t120 97.5t160 81t164.5 61l6 -13q-31 -24 -62.5 -74t-52 -111.5t-20.5 -121.5q0 -48 12 -79t39 -31q31 0 61 22.5t53.5 51t33.5 49.5l20 -10q-15 -28 -54 -72t-107 -78.5t-169 -34.5z" />
    <glyph glyph-name="tilde" unicode="&#x2dc;" horiz-adv-x="1000" 
d="M943 1620q-58 0 -103.5 24t-86 55t-80.5 54.5t-84 23.5q-35 0 -67 -14.5t-62 -62.5h-25q20 85 52.5 156.5t85 114.5t131.5 43q52 0 96 -24t83.5 -55.5t77 -55.5t76.5 -24q35 0 67 15.5t62 63.5h25q-20 -95 -47.5 -165.5t-74.5 -109.5t-126 -39z" />
    <glyph glyph-name="hungarumlaut" unicode="&#x2dd;" horiz-adv-x="1000" 
d="M838 1676l-11 16l139 264q28 55 71 80t89 26.5t85 -15.5t60 -46q33 -48 25.5 -110t-52 -111.5t-123.5 -61.5zM328 1676l-11 16l139 264q28 55 71 80t89 26.5t85 -15.5t60 -46q33 -48 25.5 -110t-52 -111.5t-123.5 -61.5z" />
    <glyph glyph-name="gravecomb" unicode="&#x300;" horiz-adv-x="0" 
d="M1037 1677l-283 41q-80 12 -124.5 61.5t-51.5 111.5t26 110q20 29 58.5 46t84.5 15.5t89.5 -26.5t72.5 -80l139 -264z" />
    <glyph glyph-name="acutecomb" unicode="&#x301;" horiz-adv-x="0" 
d="M583 1676l-11 16l139 264q28 55 71 80t89 26.5t85 -15.5t60 -46q33 -48 25.5 -110t-52 -111.5t-123.5 -61.5z" />
    <glyph glyph-name="uni0302" unicode="&#x302;" horiz-adv-x="0" 
d="M419 1706l-13 14l325 319h209l236 -319l-12 -12l-334 141z" />
    <glyph glyph-name="tildecomb" unicode="&#x303;" horiz-adv-x="0" 
d="M943 1620q-58 0 -103.5 24t-86 55t-80.5 54.5t-84 23.5q-35 0 -67 -14.5t-62 -62.5h-25q20 85 52.5 156.5t85 114.5t131.5 43q52 0 96 -24t83.5 -55.5t77 -55.5t76.5 -24q35 0 67 15.5t62 63.5h25q-20 -95 -47.5 -165.5t-74.5 -109.5t-126 -39z" />
    <glyph glyph-name="uni0304" unicode="&#x304;" horiz-adv-x="0" 
d="M549 1700v25h480v-25h-480z" />
    <glyph glyph-name="uni0306" unicode="&#x306;" horiz-adv-x="0" 
d="M808 1682q-83 0 -128 41t-62.5 102t-17 125t7.5 109h25q-5 -37 22 -60.5t73 -35.5t100 -12t111.5 7t102.5 29.5t61 71.5h25q-7 -45 -25 -109t-52.5 -125t-93.5 -102t-149 -41z" />
    <glyph glyph-name="uni0307" unicode="&#x307;" horiz-adv-x="0" 
d="M695 1079q-63 0 -112.5 31t-78 81.5t-28.5 108.5t28.5 108t78 81t112.5 31t113 -31t79 -81t29 -108t-29 -108.5t-79 -81.5t-113 -31z" />
    <glyph glyph-name="uni0308" unicode="&#x308;" horiz-adv-x="0" 
d="M1051 1682q-70 0 -119 49.5t-49 119.5q0 69 49 118t119 49q69 0 118.5 -49t49.5 -118q0 -70 -49.5 -119.5t-118.5 -49.5zM591 1682q-70 0 -119 49.5t-49 119.5q0 69 49 118t119 49q69 0 118.5 -49t49.5 -118q0 -70 -49.5 -119.5t-118.5 -49.5z" />
    <glyph glyph-name="uni030A" unicode="&#x30a;" horiz-adv-x="0" 
d="M824 1680q-107 0 -169 51.5t-62 127.5q0 77 62 129t169 52q106 0 167.5 -52t61.5 -129q0 -76 -61.5 -127.5t-167.5 -51.5zM792 1696q21 0 38 32t30 77.5t20 89.5t7 68q0 18 -4 39t-30 21q-20 0 -37.5 -32t-30 -78t-19.5 -90t-7 -68q0 -18 4 -38.5t29 -20.5z" />
    <glyph glyph-name="uni030B" unicode="&#x30b;" horiz-adv-x="0" 
d="M838 1676l-11 16l139 264q28 55 71 80t89 26.5t85 -15.5t60 -46q33 -48 25.5 -110t-52 -111.5t-123.5 -61.5zM328 1676l-11 16l139 264q28 55 71 80t89 26.5t85 -15.5t60 -46q33 -48 25.5 -110t-52 -111.5t-123.5 -61.5z" />
    <glyph glyph-name="uni030C" unicode="&#x30c;" horiz-adv-x="0" 
d="M711 1700l-236 321l13 13l333 -143l413 141l12 -11l-325 -321h-210z" />
    <glyph glyph-name="uni0311" unicode="&#x311;" horiz-adv-x="0" 
d="M527 1699q8 45 25.5 109t52 125t93.5 102t149 41q83 0 128 -41t62.5 -102t17.5 -125t-8 -109h-25q5 37 -22 60.5t-73 35.5t-100 12t-111.5 -7t-102.5 -29.5t-61 -71.5h-25z" />
    <glyph glyph-name="uni0312" unicode="&#x312;" horiz-adv-x="0" 
d="M681 1119q-83 0 -145.5 60t-62.5 159t46.5 173.5t124 124t170.5 74t186 24.5v-21q-87 0 -176.5 -22.5t-164 -69t-120 -117t-45.5 -166.5h-19q0 56 33 92t81 53t91 17q94 0 149 -53.5t55 -132.5q0 -50 -28 -94.5t-74.5 -72.5t-100.5 -28z" />
    <glyph glyph-name="dotbelowcomb" unicode="&#x323;" horiz-adv-x="0" 
d="M317 -563q-95 0 -157.5 63t-62.5 157q0 95 62.5 157.5t157.5 62.5q94 0 157 -62.5t63 -157.5q0 -94 -63 -157t-157 -63z" />
    <glyph glyph-name="uni0326" unicode="&#x326;" horiz-adv-x="0" 
d="M-9 -794v21q87 0 176 23t164 69t120.5 116.5t45.5 166.5h19q0 -56 -33.5 -92t-81 -53t-90.5 -17q-94 0 -149 53.5t-55 132.5q0 50 28 94.5t74.5 72.5t100.5 28q83 0 145 -60t62 -159t-46.5 -173t-123.5 -123.5t-170 -74.5t-186 -25z" />
    <glyph glyph-name="uni0327" unicode="&#x327;" horiz-adv-x="0" 
d="M50 -509v24q84 0 140 37t56 118q0 50 -32 76t-100 26l232 233h38l-153 -154q84 0 158 -11.5t120.5 -42t46.5 -88.5q0 -80 -72 -128t-187.5 -69t-246.5 -21z" />
    <glyph glyph-name="uni0328" unicode="&#x328;" horiz-adv-x="0" 
d="M293 -441q-71 0 -127.5 16.5t-89.5 50t-33 83.5q0 60 45.5 112.5t120 97.5t160 81t164.5 61l6 -13q-31 -24 -62.5 -74t-52 -111.5t-20.5 -121.5q0 -48 12 -79t39 -31q31 0 61 22.5t53.5 51t33.5 49.5l20 -10q-15 -28 -54 -72t-107 -78.5t-169 -34.5z" />
    <glyph glyph-name="uni0394" unicode="&#x394;" horiz-adv-x="1427" 
d="M-27 0l890 1529h207l177 -1529h-496l-107 1104l-643 -1104h-28zM-9 0l5 25h1040l-5 -25h-1040z" />
    <glyph glyph-name="uni03A9" unicode="&#x3a9;" horiz-adv-x="1552" 
d="M604 426q-99 19 -187 57.5t-150 101t-85.5 153t4.5 212.5q44 188 154.5 315t279.5 191t387 64q219 0 358 -64t191 -191t9 -315q-28 -122 -93 -211.5t-155.5 -150.5t-195.5 -98t-213 -56l5 23q66 30 116 96t88.5 165.5t68.5 231.5q27 117 37.5 217t-6 174t-67.5 115
t-148 41t-167.5 -41t-120.5 -115t-86 -174t-63 -217q-30 -131 -38 -233.5t11.5 -170.5t71.5 -98zM17 0l115 500h25q-16 -70 33 -103.5t126 -33.5h250l18 77h24l-102 -440h-489zM807 0l104 449h24l-20 -86h250q77 0 141 33.5t80 103.5h25l-115 -500h-489z" />
    <glyph glyph-name="uni03BC" unicode="&#x3bc;" horiz-adv-x="1196" 
d="M1172 330l24 -8q-51 -111 -106 -187t-122.5 -115.5t-157.5 -39.5q-115 0 -165.5 41.5t-50.5 120.5q0 20 3 42t8 38l62 225q-34 -88 -78 -171.5t-96.5 -150.5t-111 -106t-121.5 -39q-62 0 -104 24.5t-63 69.5t-19 108l-114 -424q-24 -90 5.5 -144t91.5 -79.5t135 -29.5
q-44 14 -79 60.5t-35 112.5q0 72 52 124t131 52q80 0 131.5 -52t51.5 -132q0 -81 -52 -135.5t-161 -54.5q-64 0 -125.5 14.5t-107 47t-64.5 85.5t2 131l302 1137h-123v25h497l-177 -644q-22 -78 -28.5 -118.5t-2.5 -54.5t15 -14q16 0 49.5 36.5t76 105t85.5 165t78 215.5
l81 309h365l-220 -821q-2 -9 -4 -17t-2 -15q0 -19 17 -19q13 0 44.5 18.5t78 78.5t104.5 185z" />
    <glyph glyph-name="pi" unicode="&#x3c0;" horiz-adv-x="1401" 
d="M86 391l128 529h1218l-110 -380h-1175l-36 -149h-25zM248 -20q-76 0 -127 44.5t-51 112.5t24 101.5t64 49t89 28.5t99.5 40t96 83t77.5 159l93 302h114l-111 -414q-29 -111 -52.5 -203.5t-57.5 -160.5t-94.5 -105t-163.5 -37zM936 -20q-97 0 -159 42.5t-86.5 106.5
t-8.5 129l150 582h420l-173 -632q-15 -55 3 -80.5t49 -25.5q53 0 83.5 30.5t59.5 83.5l18 -10q-49 -105 -132.5 -165.5t-223.5 -60.5z" />
    <glyph glyph-name="Wgrave" unicode="&#x1e80;" horiz-adv-x="2465" 
d="M1423 -20l-282 1520h440l205 -1099l678 1099h27l-936 -1520h-132zM656 -20l-282 1520h504l195 -1100l334 554h27l-586 -974h-192zM230 1475v25h1960v-25h-1960zM1544 834l410 666h27l-410 -666h-27zM2266 1475v25h400v-25h-400zM1747 1677l-283 41q-80 12 -124.5 61.5
t-51.5 111.5t26 110q20 29 58.5 46t84.5 15.5t89.5 -26.5t72.5 -80l139 -264z" />
    <glyph glyph-name="wgrave" unicode="&#x1e81;" horiz-adv-x="1706" 
d="M1114 -20q-67 0 -139 24t-131.5 75t-88 132.5t-7.5 196.5l135 512h360l-135 -509q-17 -63 -38.5 -132.5t-31.5 -131t7 -100.5t78 -39q100 0 185.5 48t154 125.5t116.5 168t74 177t26 151.5q0 109 -55.5 171.5t-135.5 63.5v23q60 0 107 -31t74 -79.5t27 -101.5
q0 -103 -65 -158.5t-148 -55.5q-82 0 -144.5 57.5t-62.5 151.5q0 95 63.5 157t148.5 62q95 0 156.5 -69t61.5 -191q0 -66 -26 -156t-76 -184.5t-122 -175.5t-164.5 -131.5t-203.5 -50.5zM342 -20q-90 0 -150.5 33t-80 100t15.5 169l172 504q3 9 7.5 23.5t4.5 27.5
q0 23 -23 23q-19 0 -58.5 -33t-83 -93.5t-75.5 -143.5l-24 8q38 100 98.5 177.5t135.5 121t158 43.5q97 0 157 -43t60 -108q0 -25 -7 -53.5t-14 -49.5l-143 -416q-41 -118 -57.5 -172t14.5 -54q36 0 83 39t96 110.5t92.5 168.5t71.5 212h22q-17 -70 -46 -151t-70 -159.5
t-94 -142.5t-119 -102.5t-143 -38.5zM1287 1097l-283 41q-80 12 -124.5 61.5t-51.5 111.5t26 110q20 29 58.5 46t84.5 15.5t89.5 -26.5t72.5 -80l139 -264z" />
    <glyph glyph-name="Wacute" unicode="&#x1e82;" horiz-adv-x="2465" 
d="M1423 -20l-282 1520h440l205 -1099l678 1099h27l-936 -1520h-132zM656 -20l-282 1520h504l195 -1100l334 554h27l-586 -974h-192zM230 1475v25h1960v-25h-1960zM1544 834l410 666h27l-410 -666h-27zM2266 1475v25h400v-25h-400zM1469 1676l-11 16l139 264q28 55 71 80
t89 26.5t85 -15.5t60 -46q33 -48 25.5 -110t-52 -111.5t-123.5 -61.5z" />
    <glyph glyph-name="wacute" unicode="&#x1e83;" horiz-adv-x="1706" 
d="M1114 -20q-67 0 -139 24t-131.5 75t-88 132.5t-7.5 196.5l135 512h360l-135 -509q-17 -63 -38.5 -132.5t-31.5 -131t7 -100.5t78 -39q100 0 185.5 48t154 125.5t116.5 168t74 177t26 151.5q0 109 -55.5 171.5t-135.5 63.5v23q60 0 107 -31t74 -79.5t27 -101.5
q0 -103 -65 -158.5t-148 -55.5q-82 0 -144.5 57.5t-62.5 151.5q0 95 63.5 157t148.5 62q95 0 156.5 -69t61.5 -191q0 -66 -26 -156t-76 -184.5t-122 -175.5t-164.5 -131.5t-203.5 -50.5zM342 -20q-90 0 -150.5 33t-80 100t15.5 169l172 504q3 9 7.5 23.5t4.5 27.5
q0 23 -23 23q-19 0 -58.5 -33t-83 -93.5t-75.5 -143.5l-24 8q38 100 98.5 177.5t135.5 121t158 43.5q97 0 157 -43t60 -108q0 -25 -7 -53.5t-14 -49.5l-143 -416q-41 -118 -57.5 -172t14.5 -54q36 0 83 39t96 110.5t92.5 168.5t71.5 212h22q-17 -70 -46 -151t-70 -159.5
t-94 -142.5t-119 -102.5t-143 -38.5zM1009 1096l-11 16l139 264q28 55 71 80t89 26.5t85 -15.5t60 -46q33 -48 25.5 -110t-52 -111.5t-123.5 -61.5z" />
    <glyph glyph-name="Wdieresis" unicode="&#x1e84;" horiz-adv-x="2465" 
d="M1423 -20l-282 1520h440l205 -1099l678 1099h27l-936 -1520h-132zM656 -20l-282 1520h504l195 -1100l334 554h27l-586 -974h-192zM230 1475v25h1960v-25h-1960zM1544 834l410 666h27l-410 -666h-27zM2266 1475v25h400v-25h-400zM1805 1682q-70 0 -119 49.5t-49 119.5
q0 69 49 118t119 49q69 0 118.5 -49t49.5 -118q0 -70 -49.5 -119.5t-118.5 -49.5zM1345 1682q-70 0 -119 49.5t-49 119.5q0 69 49 118t119 49q69 0 118.5 -49t49.5 -118q0 -70 -49.5 -119.5t-118.5 -49.5z" />
    <glyph glyph-name="wdieresis" unicode="&#x1e85;" horiz-adv-x="1706" 
d="M1114 -20q-67 0 -139 24t-131.5 75t-88 132.5t-7.5 196.5l135 512h360l-135 -509q-17 -63 -38.5 -132.5t-31.5 -131t7 -100.5t78 -39q100 0 185.5 48t154 125.5t116.5 168t74 177t26 151.5q0 109 -55.5 171.5t-135.5 63.5v23q60 0 107 -31t74 -79.5t27 -101.5
q0 -103 -65 -158.5t-148 -55.5q-82 0 -144.5 57.5t-62.5 151.5q0 95 63.5 157t148.5 62q95 0 156.5 -69t61.5 -191q0 -66 -26 -156t-76 -184.5t-122 -175.5t-164.5 -131.5t-203.5 -50.5zM342 -20q-90 0 -150.5 33t-80 100t15.5 169l172 504q3 9 7.5 23.5t4.5 27.5
q0 23 -23 23q-19 0 -58.5 -33t-83 -93.5t-75.5 -143.5l-24 8q38 100 98.5 177.5t135.5 121t158 43.5q97 0 157 -43t60 -108q0 -25 -7 -53.5t-14 -49.5l-143 -416q-41 -118 -57.5 -172t14.5 -54q36 0 83 39t96 110.5t92.5 168.5t71.5 212h22q-17 -70 -46 -151t-70 -159.5
t-94 -142.5t-119 -102.5t-143 -38.5zM1345 1102q-70 0 -119 49.5t-49 119.5q0 69 49 118t119 49q69 0 118.5 -49t49.5 -118q0 -70 -49.5 -119.5t-118.5 -49.5zM885 1102q-70 0 -119 49.5t-49 119.5q0 69 49 118t119 49q69 0 118.5 -49t49.5 -118q0 -70 -49.5 -119.5
t-118.5 -49.5z" />
    <glyph glyph-name="uni1E86" unicode="&#x1e86;" horiz-adv-x="2465" 
d="M1423 -20l-282 1520h440l205 -1099l678 1099h27l-936 -1520h-132zM656 -20l-282 1520h504l195 -1100l334 554h27l-586 -974h-192zM230 1475v25h1960v-25h-1960zM1544 834l410 666h27l-410 -666h-27zM2266 1475v25h400v-25h-400zM1615 1659q-63 0 -112.5 31t-78 81.5
t-28.5 108.5t28.5 108t78 81t112.5 31t113 -31t79 -81t29 -108t-29 -108.5t-79 -81.5t-113 -31z" />
    <glyph glyph-name="uni1E87" unicode="&#x1e87;" horiz-adv-x="1706" 
d="M1114 -20q-67 0 -139 24t-131.5 75t-88 132.5t-7.5 196.5l135 512h360l-135 -509q-17 -63 -38.5 -132.5t-31.5 -131t7 -100.5t78 -39q100 0 185.5 48t154 125.5t116.5 168t74 177t26 151.5q0 109 -55.5 171.5t-135.5 63.5v23q60 0 107 -31t74 -79.5t27 -101.5
q0 -103 -65 -158.5t-148 -55.5q-82 0 -144.5 57.5t-62.5 151.5q0 95 63.5 157t148.5 62q95 0 156.5 -69t61.5 -191q0 -66 -26 -156t-76 -184.5t-122 -175.5t-164.5 -131.5t-203.5 -50.5zM342 -20q-90 0 -150.5 33t-80 100t15.5 169l172 504q3 9 7.5 23.5t4.5 27.5
q0 23 -23 23q-19 0 -58.5 -33t-83 -93.5t-75.5 -143.5l-24 8q38 100 98.5 177.5t135.5 121t158 43.5q97 0 157 -43t60 -108q0 -25 -7 -53.5t-14 -49.5l-143 -416q-41 -118 -57.5 -172t14.5 -54q36 0 83 39t96 110.5t92.5 168.5t71.5 212h22q-17 -70 -46 -151t-70 -159.5
t-94 -142.5t-119 -102.5t-143 -38.5zM1155 1079q-63 0 -112.5 31t-78 81.5t-28.5 108.5t28.5 108t78 81t112.5 31t113 -31t79 -81t29 -108t-29 -108.5t-79 -81.5t-113 -31z" />
    <glyph glyph-name="uni1E88" unicode="&#x1e88;" horiz-adv-x="2465" 
d="M1423 -20l-282 1520h440l205 -1099l678 1099h27l-936 -1520h-132zM656 -20l-282 1520h504l195 -1100l334 554h27l-586 -974h-192zM230 1475v25h1960v-25h-1960zM1544 834l410 666h27l-410 -666h-27zM2266 1475v25h400v-25h-400zM1122 -563q-95 0 -157.5 63t-62.5 157
q0 95 62.5 157.5t157.5 62.5q94 0 157 -62.5t63 -157.5q0 -94 -63 -157t-157 -63z" />
    <glyph glyph-name="uni1E89" unicode="&#x1e89;" horiz-adv-x="1706" 
d="M1114 -20q-67 0 -139 24t-131.5 75t-88 132.5t-7.5 196.5l135 512h360l-135 -509q-17 -63 -38.5 -132.5t-31.5 -131t7 -100.5t78 -39q100 0 185.5 48t154 125.5t116.5 168t74 177t26 151.5q0 109 -55.5 171.5t-135.5 63.5v23q60 0 107 -31t74 -79.5t27 -101.5
q0 -103 -65 -158.5t-148 -55.5q-82 0 -144.5 57.5t-62.5 151.5q0 95 63.5 157t148.5 62q95 0 156.5 -69t61.5 -191q0 -66 -26 -156t-76 -184.5t-122 -175.5t-164.5 -131.5t-203.5 -50.5zM342 -20q-90 0 -150.5 33t-80 100t15.5 169l172 504q3 9 7.5 23.5t4.5 27.5
q0 23 -23 23q-19 0 -58.5 -33t-83 -93.5t-75.5 -143.5l-24 8q38 100 98.5 177.5t135.5 121t158 43.5q97 0 157 -43t60 -108q0 -25 -7 -53.5t-14 -49.5l-143 -416q-41 -118 -57.5 -172t14.5 -54q36 0 83 39t96 110.5t92.5 168.5t71.5 212h22q-17 -70 -46 -151t-70 -159.5
t-94 -142.5t-119 -102.5t-143 -38.5zM712 -563q-95 0 -157.5 63t-62.5 157q0 95 62.5 157.5t157.5 62.5q94 0 157 -62.5t63 -157.5q0 -94 -63 -157t-157 -63z" />
    <glyph glyph-name="uni1E9E" unicode="&#x1e9e;" horiz-adv-x="1821" 
d="M130 0l229 982q43 192 161 310.5t305.5 173t440.5 54.5q122 0 234.5 -15.5t201 -51.5t140 -97.5t51.5 -153.5q0 -97 -59.5 -171t-163.5 -124t-238.5 -74.5t-285.5 -24.5v16q97 0 158.5 44t95.5 112t47 143.5t13 138.5q0 54 -15.5 97.5t-43.5 74t-67.5 47t-87.5 16.5
q-123 0 -204.5 -45t-133 -121.5t-83.5 -172t-55 -196.5l-220 -962h-420zM-50 0v25h780v-25h-780zM1111 -20q-124 0 -202.5 45.5t-115.5 121t-37 165.5q0 66 26.5 123t75 92t113.5 35q90 0 148.5 -54t58.5 -138q0 -52 -33 -95t-82.5 -69t-98.5 -26q-74 0 -111.5 28t-62.5 65
q7 -89 50.5 -148t109.5 -88.5t142 -29.5q67 0 114 49.5t76.5 126.5t43.5 162t14 155q0 71 -13.5 126t-39 93.5t-61.5 58.5t-80 20v16q181 0 320 -29.5t217.5 -102t78.5 -202.5q0 -142 -61 -238.5t-158.5 -154t-211.5 -82.5t-220 -25z" />
    <glyph glyph-name="Ygrave" unicode="&#x1ef2;" horiz-adv-x="1559" 
d="M460 0l170 754l-260 746h472l219 -686l521 682h32l-560 -728l-163 -768h-431zM279 0v25h811v-25h-811zM230 1475v25h812v-25h-812zM1340 1475v25h420v-25h-420zM1307 1677l-283 41q-80 12 -124.5 61.5t-51.5 111.5t26 110q20 29 58.5 46t84.5 15.5t89.5 -26.5t72.5 -80
l139 -264z" />
    <glyph glyph-name="ygrave" unicode="&#x1ef3;" horiz-adv-x="1358" 
d="M283 -520q-87 0 -151.5 37t-100.5 100t-36 140q0 56 26.5 104.5t72.5 78t104 29.5q45 0 89.5 -22t73.5 -63.5t29 -101.5q0 -84 -54.5 -137t-133.5 -53q-53 0 -100 22.5t-76 60t-29 82.5h24q0 -70 32 -127.5t90 -92t139 -34.5q93 0 193.5 53.5t201.5 144t195.5 203
t175 232.5t141.5 233t95 204.5t34 145.5q0 50 -24 94.5t-68.5 72.5t-107.5 28v23q64 0 113.5 -29t77 -74t27.5 -95q0 -53 -29.5 -95.5t-77.5 -67t-102 -24.5q-90 0 -151.5 54.5t-61.5 139.5q0 83 59.5 138t144.5 55q78 0 128 -32t74 -81.5t24 -103.5q0 -56 -34 -150
t-95.5 -209.5t-143 -238t-177.5 -237.5t-199.5 -207t-208 -146t-203.5 -54zM700 -289q-37 63 -77 157t-80 203t-77.5 220.5t-70.5 211.5t-57.5 176t-38.5 112q-6 16 -19 40t-43 24q-36 0 -87.5 -38.5t-86.5 -134.5l-24 11q33 90 89.5 144t128 78t149.5 24q145 0 210.5 -56.5
t93.5 -151.5q20 -68 46 -160.5t59 -193t72.5 -195.5t86.5 -167q-28 -37 -58.5 -74t-65 -74t-72 -76t-78.5 -80zM930 1097l-283 41q-80 12 -124.5 61.5t-51.5 111.5t26 110q20 29 58.5 46t84.5 15.5t89.5 -26.5t72.5 -80l139 -264z" />
    <glyph glyph-name="uni2000" unicode="&#x2000;" horiz-adv-x="1000" 
 />
    <glyph glyph-name="uni2001" unicode="&#x2001;" horiz-adv-x="2000" 
 />
    <glyph glyph-name="uni2002" unicode="&#x2002;" horiz-adv-x="1000" 
 />
    <glyph glyph-name="uni2003" unicode="&#x2003;" horiz-adv-x="2000" 
 />
    <glyph glyph-name="uni2004" unicode="&#x2004;" horiz-adv-x="666" 
 />
    <glyph glyph-name="uni2005" unicode="&#x2005;" horiz-adv-x="500" 
 />
    <glyph glyph-name="uni2006" unicode="&#x2006;" horiz-adv-x="333" 
 />
    <glyph glyph-name="uni2007" unicode="&#x2007;" horiz-adv-x="1160" 
 />
    <glyph glyph-name="uni2008" unicode="&#x2008;" horiz-adv-x="399" 
 />
    <glyph glyph-name="uni2009" unicode="&#x2009;" horiz-adv-x="333" 
 />
    <glyph glyph-name="uni200A" unicode="&#x200a;" horiz-adv-x="200" 
 />
    <glyph glyph-name="uni200B" unicode="&#x200b;" horiz-adv-x="0" 
 />
    <glyph glyph-name="uni2010" unicode="&#x2010;" horiz-adv-x="719" 
d="M166 538v24h480v-24h-480z" />
    <glyph glyph-name="uni2011" unicode="&#x2011;" horiz-adv-x="719" 
d="M166 538v24h480v-24h-480z" />
    <glyph glyph-name="figuredash" unicode="&#x2012;" horiz-adv-x="934" 
d="M166 538v24h695v-24h-695z" />
    <glyph glyph-name="endash" unicode="&#x2013;" horiz-adv-x="1081" 
d="M166 538v24h841v-24h-841z" />
    <glyph glyph-name="emdash" unicode="&#x2014;" horiz-adv-x="1569" 
d="M167 538v24h1329v-24h-1329z" />
    <glyph glyph-name="uni2015" unicode="&#x2015;" horiz-adv-x="1715" 
d="M165 538v24h1477v-24h-1477z" />
    <glyph glyph-name="quoteleft" unicode="&#x2018;" horiz-adv-x="725" 
d="M531 792q-69 0 -128 34t-95 96t-36 144q0 124 58 216.5t154.5 154t213 92.5t232.5 31v-25q-109 0 -220 -28.5t-204.5 -86.5t-151 -146.5t-57.5 -207.5h-23q0 70 41.5 114.5t101 66t113.5 21.5q117 0 186 -67t69 -165q0 -63 -35 -118.5t-93 -90.5t-126 -35z" />
    <glyph glyph-name="quoteright" unicode="&#x2019;" horiz-adv-x="725" 
d="M226 1012v25q109 0 220 28.5t204.5 86.5t151 146.5t57.5 207.5h23q0 -70 -41.5 -114.5t-101 -66t-113.5 -21.5q-117 0 -186 67t-69 165q0 63 35 119t93 90.5t126 34.5q69 0 128 -34t95 -95.5t36 -144.5q0 -124 -58 -216.5t-154.5 -154t-213 -92.5t-232.5 -31z" />
    <glyph glyph-name="quotesinglbase" unicode="&#x201a;" horiz-adv-x="695" 
d="M-64 -312v25q109 0 220 28.5t204.5 86.5t151 146.5t57.5 207.5h23q0 -70 -41.5 -114.5t-101 -66t-113.5 -21.5q-117 0 -186 67t-69 165q0 63 35 119t93 90.5t126 34.5q69 0 128 -34t95 -95.5t36 -144.5q0 -124 -58 -216.5t-154.5 -154t-213 -92.5t-232.5 -31z" />
    <glyph glyph-name="quotedblleft" unicode="&#x201c;" horiz-adv-x="1335" 
d="M1140 792q-69 0 -128 34t-95 96t-36 144q0 124 58 216.5t154.5 154t213 92.5t232.5 31v-25q-109 0 -220 -28.5t-204.5 -86.5t-151 -146.5t-57.5 -207.5h-23q0 70 41.5 114.5t101 66t113.5 21.5q117 0 186 -67t69 -165q0 -63 -35 -118.5t-93 -90.5t-126 -35zM528 792
q-69 0 -128 34t-95 96t-36 144q0 124 58 216.5t154.5 154t213 92.5t232.5 31v-25q-109 0 -220 -28.5t-204.5 -86.5t-151 -146.5t-57.5 -207.5h-23q0 70 41.5 114.5t101 66t113.5 21.5q117 0 186 -67t69 -165q0 -63 -35 -118.5t-93 -90.5t-126 -35z" />
    <glyph glyph-name="quotedblright" unicode="&#x201d;" horiz-adv-x="1335" 
d="M848 1012v25q109 0 220 28.5t204.5 86.5t151 146.5t57.5 207.5h23q0 -70 -41.5 -114.5t-101 -66t-113.5 -21.5q-117 0 -186 67t-69 165q0 63 35 119t93 90.5t126 34.5q69 0 128 -34t95 -95.5t36 -144.5q0 -124 -58 -216.5t-154.5 -154t-213 -92.5t-232.5 -31zM236 1012
v25q109 0 220 28.5t204.5 86.5t151 146.5t57.5 207.5h23q0 -70 -41.5 -114.5t-101 -66t-113.5 -21.5q-117 0 -186 67t-69 165q0 63 35 119t93 90.5t126 34.5q69 0 128 -34t95 -95.5t36 -144.5q0 -124 -58 -216.5t-154.5 -154t-213 -92.5t-232.5 -31z" />
    </font>
</defs>
</svg>
