<?xml version="1.0" standalone="no"?>
<!DOCTYPE svg PUBLIC "-//W3C//DTD SVG 1.1//EN" "http://www.w3.org/Graphics/SVG/1.1/DTD/svg11.dtd" >
<svg xmlns="http://www.w3.org/2000/svg" xmlns:xlink="http://www.w3.org/1999/xlink" version="1.1">
<metadata>
Created by FontForge 20170731 at Sun Nov 22 11:20:21 2020
 By Aleksey,,,
Copyright 2020 The Bodoni Moda Project Authors (https://github.com/indestructible-type)
</metadata>
<defs>
<font id="BodoniModa18pt-ExtraBold" horiz-adv-x="0" >
  <font-face 
    font-family="Bodoni Moda 18pt ExtraBold"
    font-weight="800"
    font-stretch="normal"
    units-per-em="2000"
    panose-1="0 0 0 0 0 0 0 0 0 0"
    ascent="1600"
    descent="-400"
    x-height="920"
    cap-height="1500"
    bbox="-455 -766 2987 2099"
    underline-thickness="50"
    underline-position="-175"
    unicode-range="U+000D-FB02"
  />
<missing-glyph horiz-adv-x="1200" 
d="M213 0v1500h774v-1500h-774zM253 39h694v1422h-694v-1422zM601 443q-56 0 -56 69q0 13 1 21q5 38 12.5 61t13.5 49t8 71q-38 -24 -57 -42.5t-35.5 -36.5t-46.5 -41q-5 -4 -9.5 -6.5t-8.5 -5.5q-59 -33 -87 15q-29 49 31 83q11 7 18 10q36 14 59.5 19.5t49 12.5t65.5 28
q-40 21 -65.5 28.5t-49 13t-59.5 19.5q-7 3 -18 10q-60 34 -31 83q28 48 87 14q4 -2 8.5 -4.5t9.5 -6.5q30 -23 46.5 -41t35.5 -36.5t57 -42.5q-2 45 -8 70.5t-13.5 49t-12.5 61.5q-1 7 -1 20q0 69 56 69q57 0 57 -69q0 -13 -1 -20q-6 -38 -13 -61.5t-13 -49t-9 -70.5
q39 24 58 42.5t35.5 36.5t46.5 41q5 4 9 6.5t8 4.5q60 34 88 -14q29 -49 -31 -83q-11 -7 -19 -10q-35 -14 -58.5 -19.5t-49 -13t-65.5 -28.5q40 -21 65.5 -28t49 -12.5t58.5 -19.5q8 -3 19 -10q60 -34 31 -83q-28 -48 -88 -15q-4 3 -8 5.5t-9 6.5q-30 23 -46.5 41
t-35.5 36.5t-58 42.5q3 -45 9 -71t13 -49t13 -61q1 -8 1 -21q0 -69 -57 -69z" />
    <glyph glyph-name="fi" unicode="fi" horiz-adv-x="1325" 
d="M208 0v1023q0 126 48 219t130.5 155t189.5 92.5t226 30.5q91 0 173.5 -30t134 -83t51.5 -122q0 -88 -53.5 -138.5t-126.5 -50.5q-65 0 -121 43.5t-56 130.5q0 54 26 94t66.5 61.5t84.5 21.5q68 0 123 -44.5t55 -117.5h-23q0 63 -49 110t-125.5 73.5t-159.5 26.5
q-90 0 -153 -47.5t-96 -140.5t-33 -227v-1080h-312zM32 0v25h1265v-25h-1265zM830 0v895h-798v25h1125v-920h-327z" />
    <glyph glyph-name="fl" unicode="fl" horiz-adv-x="1466" 
d="M208 0v1023q0 149 69 261t186.5 174t266.5 62q92 0 158.5 -34.5t102 -88.5t35.5 -112q0 -88 -54 -138.5t-127 -50.5q-65 0 -121 43.5t-56 130.5q0 80 56 125t121 45q68 0 123.5 -41t55.5 -114h-23q0 55 -34.5 102.5t-95.5 77.5t-141 30q-66 0 -113 -51t-72 -144t-25 -220
v-1080h-312zM32 0v25h1395v-25h-1395zM32 895v25h764v-25h-764zM928 0v1460l326 80v-1540h-326z" />
    <glyph glyph-name="f_f" unicode="ff" horiz-adv-x="1498" 
d="M1393 1520q95 0 159.5 -39t97.5 -94t33 -102q0 -88 -54 -138.5t-127 -50.5q-65 0 -121 43.5t-56 130.5q0 52 24.5 91t63 61t79.5 24q31 -1 59.5 -16t45.5 -41q-25 42 -76.5 74t-127.5 32q-69 0 -117 -51t-72.5 -144t-24.5 -220v-160h280v-25h-280v-870h240v-25h-1387v25
h835v870h-835v25h835v103q0 146 67 258t185 175.5t274 63.5zM743 1420q91 0 167 -33.5t122 -88t46 -115.5q0 -89 -54 -139.5t-127 -50.5q-65 0 -121 44t-56 131q0 45 25.5 83t65 61.5t81.5 24.5q36 -1 68.5 -21t46.5 -52q-18 39 -58.5 68.5t-91 46t-100.5 16.5
q-79 0 -131.5 -51t-79 -144t-26.5 -220v-968h-312v911q0 142 69.5 254.5t190 177.5t275.5 65z" />
    <glyph glyph-name="f_f_i" unicode="ffi" horiz-adv-x="1951" 
d="M1460 0v895h-1428v25h1754v-920h-326zM32 0v25h1890v-25h-1890zM208 0v923q0 107 40 197.5t111.5 157.5t164 104.5t197.5 37.5q109 0 189 -32t124 -86t44 -119q0 -89 -54 -139.5t-127 -50.5q-65 0 -121 44t-56 131q0 80 56 124.5t121 44.5q45 0 86 -26t67 -62t26 -66h-24
q0 65 -43 112.5t-110.5 72.5t-141.5 25q-68 0 -121.5 -43t-84.5 -134t-31 -236v-980h-312zM838 0v1023q0 149 71 261t201 174t306 62q117 0 201 -34.5t129 -88.5t45 -112q0 -88 -54 -138.5t-127 -50.5q-65 0 -121 43.5t-56 130.5q0 80 56 125t121 45q68 0 123.5 -41
t55.5 -114h-23q0 54 -44.5 102t-123 78t-182.5 30q-90 0 -149 -51t-88 -144t-29 -220v-1080h-312z" />
    <glyph glyph-name="f_f_l" unicode="ffl" horiz-adv-x="2119" 
d="M32 0v25h835v870h-835v25h835v103q0 153 69.5 264.5t186.5 172t258 60.5q94 0 163 -32.5t106.5 -84.5t37.5 -110q0 -89 -54 -139.5t-127 -50.5q-65 0 -121 44t-56 131q0 77 52.5 121t114.5 47q42 0 80.5 -29t52.5 -64q-20 57 -82 98.5t-145 41.5q-77 0 -126.5 -50.5
t-73.5 -143t-24 -219.5v-160h280v-25h-280v-870h901v-25h-2048zM208 13v910q0 142 69 254.5t186.5 177.5t264.5 65q109 0 187.5 -35t120.5 -89.5t42 -112.5q0 -89 -54 -139.5t-127 -50.5q-65 0 -121 44t-56 131q0 78 54 122.5t118 46.5q31 -1 59.5 -15.5t45.5 -38.5
q-32 47 -96 78t-136 31q-76 0 -131 -50t-84.5 -142.5t-29.5 -219.5v-967h-312zM1586 13v1447l327 80v-1527h-327z" />
    <glyph glyph-name="f_j.liga" unicode="fj" horiz-adv-x="1295" 
d="M648 -520q-92 0 -166 32t-117 88.5t-43 126.5q0 78 54 130.5t133 52.5q47 0 89 -22.5t68.5 -61.5t26.5 -90q0 -71 -48.5 -119.5t-131.5 -48.5q-51 0 -94 24.5t-69 61t-26 73.5h23q0 -65 41.5 -115t106.5 -78.5t135 -28.5q73 0 112.5 47t55 125t18.5 173t3 190v855h-787
v25h1112v-943q0 -98 -40 -187.5t-110 -159t-159 -110t-187 -40.5zM32 0v25h684v-25h-684zM208 0v1023q0 146 70 258t201 175.5t315 63.5q117 0 193.5 -38t115 -94t38.5 -110q0 -89 -56.5 -135.5t-124.5 -46.5q-40 0 -80.5 17t-68.5 54.5t-28 95.5q0 80 52.5 125t117.5 45
q45 0 88 -18.5t70.5 -53.5t27.5 -83h-23q0 52 -36 100.5t-103 81t-161 32.5q-105 0 -170 -50.5t-95.5 -142.5t-30.5 -219v-1080h-312z" />
    <glyph glyph-name=".notdef" horiz-adv-x="1200" 
d="M213 0v1500h774v-1500h-774zM253 39h694v1422h-694v-1422zM601 443q-56 0 -56 69q0 13 1 21q5 38 12.5 61t13.5 49t8 71q-38 -24 -57 -42.5t-35.5 -36.5t-46.5 -41q-5 -4 -9.5 -6.5t-8.5 -5.5q-59 -33 -87 15q-29 49 31 83q11 7 18 10q36 14 59.5 19.5t49 12.5t65.5 28
q-40 21 -65.5 28.5t-49 13t-59.5 19.5q-7 3 -18 10q-60 34 -31 83q28 48 87 14q4 -2 8.5 -4.5t9.5 -6.5q30 -23 46.5 -41t35.5 -36.5t57 -42.5q-2 45 -8 70.5t-13.5 49t-12.5 61.5q-1 7 -1 20q0 69 56 69q57 0 57 -69q0 -13 -1 -20q-6 -38 -13 -61.5t-13 -49t-9 -70.5
q39 24 58 42.5t35.5 36.5t46.5 41q5 4 9 6.5t8 4.5q60 34 88 -14q29 -49 -31 -83q-11 -7 -19 -10q-35 -14 -58.5 -19.5t-49 -13t-65.5 -28.5q40 -21 65.5 -28t49 -12.5t58.5 -19.5q8 -3 19 -10q60 -34 31 -83q-28 -48 -88 -15q-4 3 -8 5.5t-9 6.5q-30 23 -46.5 41
t-35.5 36.5t-58 42.5q3 -45 9 -71t13 -49t13 -61q1 -8 1 -21q0 -69 -57 -69z" />
    <glyph glyph-name=".null" 
 />
    <glyph glyph-name="nonmarkingreturn" horiz-adv-x="666" 
 />
    <glyph glyph-name="CR" unicode="&#xd;" horiz-adv-x="500" 
 />
    <glyph glyph-name="space" unicode=" " horiz-adv-x="500" 
 />
    <glyph glyph-name="exclam" unicode="!" horiz-adv-x="812" 
d="M393 562q0 86 -27 168t-62.5 166.5t-66 174t-38.5 188.5q-1 11 -0.5 20t0.5 18q0 91 51.5 155t154.5 64q104 0 156 -64t52 -155q0 -9 -0.5 -18t-1.5 -20q-8 -99 -38.5 -188.5t-66.5 -174t-62.5 -166.5t-26.5 -168h-24zM407 -20q-57 0 -104.5 28t-75.5 75.5t-28 104.5
t28 104.5t75.5 75.5t104.5 28t104 -28t75.5 -75.5t28.5 -104.5t-28.5 -104.5t-75.5 -75.5t-104 -28z" />
    <glyph glyph-name="quotedbl" unicode="&#x22;" horiz-adv-x="1060" 
d="M762 874q0 83 -23.5 139.5t-55.5 101t-59.5 88.5t-35.5 100q-1 11 -1.5 19t-0.5 17q0 81 56 131t132 50q77 0 132.5 -50t55.5 -131v-17t-2 -19q-8 -56 -35.5 -100t-59.5 -88.5t-55.5 -101t-23.5 -139.5h-24zM276 874q0 83 -23.5 139.5t-55.5 101t-59.5 88.5t-35.5 100
q-1 11 -1.5 19t-0.5 17q0 81 56 131t132 50q77 0 132.5 -50t55.5 -131v-17t-2 -19q-8 -56 -35.5 -100t-59.5 -88.5t-55.5 -101t-23.5 -139.5h-24z" />
    <glyph glyph-name="numbersign" unicode="#" horiz-adv-x="1269" 
d="M704 -12l200 1520l25 2l-200 -1520zM60 490v25h1090v-25h-1090zM321 -10l200 1520h24l-200 -1520h-24zM120 1016v25h1090v-25h-1090z" />
    <glyph glyph-name="dollar" unicode="$" horiz-adv-x="1225" 
d="M614 -29q-184 0 -309 54t-188 134.5t-63 159.5q0 86 50 147t133 61q42 0 83 -21t68.5 -60.5t27.5 -94.5q0 -51 -25.5 -90t-66 -62t-85.5 -23q-43 0 -85.5 18t-70 50.5t-27.5 74.5l25 -8q0 -72 60 -145.5t177.5 -123t287.5 -49.5q145 0 222.5 69.5t77.5 184.5
q0 85 -43.5 140.5t-115 95.5t-157 74.5t-170.5 76t-156.5 100.5t-115 148t-43.5 219q0 96 42 173t113.5 132t160.5 84.5t182 29.5q123 0 231 -40t175 -111t67 -163q0 -77 -46 -133t-129 -56q-41 0 -82 20.5t-68.5 58.5t-27.5 89q0 71 47 119.5t118 48.5q44 0 87 -18t71 -51
t28 -78h-23q0 87 -63.5 152t-165.5 102t-217 37q-90 0 -146.5 -27t-83.5 -75t-27 -109q0 -77 43 -129.5t114.5 -91.5t156.5 -75.5t170 -79t156 -102.5t114.5 -146.5t43.5 -212.5q0 -146 -69.5 -253.5t-190 -166t-272.5 -58.5zM492 -160v1820h25v-1820h-25zM642 -160v1820h25
v-1820h-25z" />
    <glyph glyph-name="percent" unicode="%" horiz-adv-x="2057" 
d="M494 0l1042 1500h28l-1041 -1500h-29zM529 640q-85 0 -166.5 28.5t-147.5 84.5t-105.5 138t-39.5 189t39.5 189t105.5 138t147.5 84.5t166.5 28.5t166.5 -28.5t147.5 -84.5t105 -138t39 -189t-44.5 -189t-115 -138t-149.5 -84.5t-149 -28.5zM529 665q28 0 48 23t33 72.5
t19 129t6 190.5q0 112 -6 191t-19 128.5t-33 72.5t-48 23t-48.5 -23t-33.5 -72.5t-19 -128.5t-6 -191q0 -111 6 -190.5t19 -129t33.5 -72.5t48.5 -23zM1529 -20q-84 0 -166 28.5t-147.5 84.5t-105 138t-39.5 189t39.5 189t105 138t147.5 84.5t166 28.5q85 0 167 -28.5
t148 -84.5t105.5 -138t39.5 -189t-45 -189t-115.5 -138t-150 -84.5t-149.5 -28.5zM1529 5q29 0 49 23t33 72.5t19 129t6 190.5q0 112 -6 191t-19 128.5t-33 72.5t-49 23q-28 0 -48 -23t-33 -72.5t-19 -128.5t-6 -191q0 -111 6 -190.5t19 -129t33 -72.5t48 -23z" />
    <glyph glyph-name="ampersand" unicode="&#x26;" horiz-adv-x="1775" 
d="M1085 0l-662 980q-39 57 -65.5 125.5t-26.5 120.5q0 90 62.5 156t176 102t265.5 36q144 0 247.5 -29t158.5 -82t55 -125q0 -65 -34.5 -115t-94.5 -89t-138.5 -70t-165.5 -57l-13 18q19 14 41.5 41t38.5 89t16 181q0 59 -10 108t-35.5 78.5t-72.5 29.5q-44 0 -72 -25.5
t-41 -65.5t-13 -83q0 -63 43.5 -155.5t107.5 -188.5l628 -955h247v-25h-643zM582 -20q-170 0 -282 49.5t-167.5 135t-55.5 191.5q0 97 37.5 170.5t96 127t122 89.5t118 58t81.5 35l11 -19q-30 -17 -51.5 -47t-33 -77t-11.5 -115q0 -92 21.5 -183.5t64 -167.5t108 -121.5
t153.5 -45.5q95 0 186.5 44t172.5 124t145.5 187.5t106 234t55.5 264.5h24q-13 -133 -56 -266.5t-117 -253.5t-179 -213t-242 -147t-308 -54zM1205 895v25h480v-25h-480z" />
    <glyph glyph-name="quotesingle" unicode="'" horiz-adv-x="574" 
d="M276 874q0 83 -23.5 139.5t-55.5 101t-59.5 88.5t-35.5 100q-1 11 -1.5 19t-0.5 17q0 81 56 131t132 50q77 0 132.5 -50t55.5 -131v-17t-2 -19q-8 -56 -35.5 -100t-59.5 -88.5t-55.5 -101t-23.5 -139.5h-24z" />
    <glyph glyph-name="parenleft" unicode="(" horiz-adv-x="756" 
d="M716 -340q-122 53 -228.5 148t-187 224.5t-125.5 286t-45 331.5q0 233 78.5 422t211.5 323.5t296 204.5l11 -18q-65 -43 -109.5 -139.5t-71.5 -226t-38.5 -276t-11.5 -290.5t11.5 -296.5t38.5 -290t71.5 -240t109.5 -145.5z" />
    <glyph glyph-name="parenright" unicode=")" horiz-adv-x="765" 
d="M49 -340l-11 18q66 43 110.5 139.5t71 226t38 276t11.5 290.5t-11.5 296.5t-38 290t-71 240t-110.5 145.5l11 18q122 -52 228.5 -147.5t187 -225t125.5 -286t45 -331.5q0 -233 -78.5 -422t-211.5 -323.5t-296 -204.5z" />
    <glyph glyph-name="asterisk" unicode="*" horiz-adv-x="1256" 
d="M628 228q-76 0 -124.5 50t-48.5 130q0 9 0.5 17.5t1.5 18.5q8 55 31.5 97t52 84.5t50 96t24.5 128.5q-64 -40 -99.5 -85.5t-58 -91t-47.5 -87t-68 -75.5q-8 -7 -15 -11t-15 -9q-69 -40 -137 -23t-106 83t-19 133t89 107q8 5 15 8.5t17 7.5q50 21 99 21.5t99.5 -2.5
t107.5 5t124 43q-67 35 -124 43t-107.5 4.5t-99.5 -2.5t-99 22q-10 4 -17 8t-15 8q-70 40 -89 107t19 133t106 82.5t137 -23.5q8 -4 15 -8.5t15 -11.5q43 -33 68 -74.5t47.5 -87.5t58 -91t99.5 -86q-3 76 -24.5 129t-50 96t-52 85t-31.5 96q-1 11 -1.5 19t-0.5 17
q0 81 48.5 131t124.5 50q77 0 125.5 -50t48.5 -131v-17t-2 -19q-8 -54 -32 -96t-52 -85t-49.5 -96t-24.5 -129q64 41 99.5 86t58 91t47 87.5t68.5 74.5q8 7 15.5 11.5t14.5 8.5q70 40 137.5 23.5t105.5 -82.5t19 -133t-89 -107q-7 -4 -14.5 -8t-17.5 -8q-50 -21 -99 -22
t-99.5 2.5t-107.5 -4.5t-124 -43q67 -35 123.5 -43.5t107.5 -5.5t100 2.5t99 -20.5q10 -4 17.5 -7.5t14.5 -8.5q70 -40 89 -107t-19 -133t-105.5 -83t-137.5 23q-7 5 -14.5 9t-15.5 11q-44 34 -68.5 75.5t-47 87t-58 91t-99.5 85.5q3 -75 24.5 -128.5t49.5 -96t52 -84.5
t32 -97q2 -10 2 -18.5v-17.5q0 -80 -48.5 -130t-125.5 -50z" />
    <glyph glyph-name="plus" unicode="+" horiz-adv-x="1059" 
d="M233 647v250h593v-250h-593zM404 474v594h250v-594h-250z" />
    <glyph glyph-name="comma" unicode="," horiz-adv-x="611" 
d="M76 -309v26q97 0 180 31.5t142 92t85.5 146.5t11.5 194h8q1 -52 -30 -98t-81 -74.5t-105 -28.5q-97 0 -152 62t-55 144q0 55 30.5 102t81 75.5t110.5 28.5q61 0 113 -34.5t83.5 -96.5t31.5 -147q0 -123 -56.5 -218.5t-158 -150t-239.5 -54.5z" />
    <glyph glyph-name="hyphen" unicode="-" horiz-adv-x="719" 
d="M120 538v24h480v-24h-480z" />
    <glyph glyph-name="period" unicode="." horiz-adv-x="574" 
d="M288 -20q-58 0 -105 28t-75 75.5t-28 104.5t28 104.5t75 75.5t105 28q57 0 104.5 -28t75.5 -75.5t28 -104.5t-28 -104.5t-75.5 -75.5t-104.5 -28z" />
    <glyph glyph-name="slash" unicode="/" horiz-adv-x="1049" 
d="M80 -300l865 1861h25l-865 -1861h-25z" />
    <glyph glyph-name="zero" unicode="0" horiz-adv-x="1356" 
d="M679 -20q-133 0 -243.5 57.5t-189.5 162t-122.5 245t-43.5 305.5t46 305.5t127.5 245t190 162t235.5 57.5q126 0 234.5 -57.5t190.5 -162t127.5 -245t45.5 -305.5t-43 -305.5t-122.5 -245t-189.5 -162t-243 -57.5zM679 3q68 0 106.5 55t57 155t23.5 236.5t5 300.5
t-5.5 300.5t-24.5 236.5t-58 155t-104 55q-61 0 -98.5 -55t-58.5 -155t-28.5 -236.5t-7.5 -300.5t5 -300.5t23.5 -236.5t57.5 -155t107 -55z" />
    <glyph glyph-name="one" unicode="1" horiz-adv-x="1044" 
d="M360 7v1468h-226v25h592v-1493h-366zM100 0v25h846v-25h-846z" />
    <glyph glyph-name="two" unicode="2" horiz-adv-x="1245" 
d="M80 0v232l426 305q126 89 189.5 210t63.5 294q0 118 -33.5 212.5t-95.5 150t-148 55.5q-93 0 -176.5 -45.5t-134.5 -131t-47 -204.5h-22q0 44 33 84t84 65t106 25q52 0 99 -26.5t77 -71.5t30 -102q0 -62 -29.5 -109t-78 -73.5t-105.5 -26.5t-106.5 29.5t-80 82
t-31.5 123.5q-4 130 60 229.5t183.5 156t279.5 56.5q159 0 273.5 -50t176 -136t61.5 -193q0 -90 -37 -160t-96 -125t-128 -101t-132 -89l-428 -310h838v150h24v-506h-1095z" />
    <glyph glyph-name="three" unicode="3" horiz-adv-x="1187" 
d="M535 -20q-160 0 -268 54t-162.5 137.5t-54.5 169.5q0 89 56.5 145t136.5 56q73 0 126.5 -51t53.5 -133q0 -50 -26.5 -90.5t-69 -64t-90.5 -23.5q-47 0 -89.5 22t-69 59t-26.5 80h23q0 -86 53.5 -160.5t142 -120.5t195.5 -46q93 0 151.5 51t86 141t27.5 209
q0 58 -13.5 124t-48 125t-97.5 96.5t-162 37.5v16q181 0 313 -33t217.5 -91t126.5 -132.5t41 -157.5q0 -97 -49 -175t-131.5 -132.5t-184.5 -83.5t-208 -29zM410 807v16q92 0 144.5 33t77.5 86t32 112t7 110q0 59 -9 116.5t-29.5 103.5t-55 73.5t-85.5 27.5
q-48 0 -108.5 -19t-117.5 -55.5t-94.5 -87.5t-37.5 -115h-23q0 49 28.5 86.5t72 59t86.5 21.5q48 0 90.5 -23t69 -63t26.5 -94q0 -58 -28.5 -99.5t-71.5 -63t-86 -21.5q-48 0 -91.5 24.5t-70.5 69t-27 103.5q0 65 40.5 121.5t106.5 99t144.5 66t154.5 23.5q84 0 170.5 -21.5
t159.5 -63.5t118 -105t45 -146q0 -75 -34.5 -142.5t-110.5 -120t-198 -82.5t-295 -30z" />
    <glyph glyph-name="four" unicode="4" horiz-adv-x="1320" 
d="M526 0v25h190v1283l-602 -865h1188v-25h-1233l750 1082h263v-1475h150v-25h-706z" />
    <glyph glyph-name="five" unicode="5" horiz-adv-x="1101" 
d="M432 -20q-120 0 -217.5 39t-155 108.5t-57.5 159.5q0 95 55.5 153.5t145.5 58.5q82 0 142 -53.5t60 -146.5q0 -57 -29 -101.5t-75 -70.5t-98 -26q-36 0 -71 20.5t-64 50.5t-46.5 61.5t-17.5 53.5h24q0 -66 31.5 -117.5t84 -88t116 -55.5t126.5 -19q81 0 133.5 39.5
t82.5 103.5t42.5 140t12.5 148q0 119 -33 210t-92 143t-137 52q-68 0 -119 -24.5t-84.5 -59t-49.5 -64.5h-24q16 37 60.5 84t127 81.5t213.5 34.5q149 0 267.5 -52t186.5 -153.5t68 -251.5q0 -97 -47 -180.5t-130.5 -146t-194 -97t-237.5 -34.5zM105 695v805h843v109h24
v-465h-843v-449h-24z" />
    <glyph glyph-name="six" unicode="6" horiz-adv-x="1265" 
d="M661 -20q-165 0 -291.5 72.5t-198 215t-71.5 352.5q0 182 69.5 344.5t197.5 287.5t303 196.5t386 71.5v-23q-136 0 -241.5 -67.5t-178 -182t-110 -258.5t-37.5 -296l1 -133q0 -125 9.5 -227t30 -175.5t54.5 -113t83 -39.5t78.5 35.5t45 101.5t20.5 157t5 201
q0 167 -18.5 262.5t-54 135t-88.5 39.5q-60 0 -96 -37.5t-52.5 -120.5t-16.5 -219h-19q0 135 17.5 230.5t71.5 146t164 50.5q87 0 172.5 -28.5t155.5 -87.5t112.5 -151t42.5 -220q0 -150 -67.5 -267.5t-190 -185t-288.5 -67.5z" />
    <glyph glyph-name="seven" unicode="7" horiz-adv-x="1111" 
d="M497 -20q-91 0 -155.5 52.5t-64.5 163.5q0 59 32.5 123t84.5 132.5t111.5 143t113.5 156.5q32 50 65.5 105.5t73 123t89.5 154.5h-742v-150h-25v516h1012l-28 -51t-75 -134t-103.5 -181t-115 -195.5t-107.5 -173.5q-51 -81 -79 -126t-39.5 -74t-11.5 -60
q0 -44 27.5 -75.5t63 -63t62.5 -72.5t27 -105q0 -88 -58.5 -148.5t-157.5 -60.5z" />
    <glyph glyph-name="eight" unicode="8" horiz-adv-x="1245" 
d="M623 -20q-274 0 -408.5 110t-134.5 290q0 167 115 271t350 119q-207 15 -316 106.5t-109 243.5q0 110 57.5 201t170 145t275.5 54t275.5 -54t170 -145t57.5 -201q0 -152 -109 -243.5t-316 -106.5q235 -15 350 -119t115 -271q0 -180 -134 -290t-409 -110zM623 5
q63 0 99.5 48.5t52.5 133t16 193.5t-16 193t-52.5 132t-99.5 48q-62 0 -99 -48t-52.5 -132t-15.5 -193t15.5 -193.5t52.5 -133t99 -48.5zM623 787q46 0 74 33t41 106t13 194q0 85 -7.5 154t-22.5 118.5t-39.5 76t-58.5 26.5t-58 -26.5t-39.5 -76t-22.5 -118.5t-7 -154
q0 -121 13 -194t41 -106t73 -33z" />
    <glyph glyph-name="nine" unicode="9" horiz-adv-x="1265" 
d="M210 -20v23q137 0 242 67.5t177.5 182t110 258.5t37.5 296l-1 133q0 125 -9 227t-30 175.5t-54.5 113t-82.5 39.5t-78.5 -35.5t-45 -101.5t-21 -157t-5.5 -201q0 -167 18.5 -262.5t54.5 -135t88 -39.5q60 0 96 37.5t52.5 120.5t16.5 219h20q0 -135 -17.5 -230.5
t-71.5 -146t-165 -50.5q-87 0 -172.5 28.5t-155.5 87.5t-112 151.5t-42 219.5q0 150 67.5 267.5t190 185t287.5 67.5q166 0 292.5 -72.5t197.5 -215t71 -352.5q0 -182 -69.5 -344.5t-197 -287.5t-303 -196.5t-386.5 -71.5z" />
    <glyph glyph-name="colon" unicode=":" horiz-adv-x="573" 
d="M288 674q-58 0 -105 28t-75 75.5t-28 104.5t28 104.5t75 75.5t105 28q57 0 104.5 -28t75.5 -75.5t28 -104.5t-28 -104.5t-75.5 -75.5t-104.5 -28zM288 -20q-58 0 -105 28t-75 75.5t-28 104.5t28 104.5t75 75.5t105 28q57 0 104.5 -28t75.5 -75.5t28 -104.5t-28 -104.5
t-75.5 -75.5t-104.5 -28z" />
    <glyph glyph-name="semicolon" unicode=";" horiz-adv-x="610" 
d="M291 674q-58 0 -105 28t-75 75.5t-28 104.5t28 104.5t75 75.5t105 28q57 0 104.5 -28t75.5 -75.5t28 -104.5t-28 -104.5t-75.5 -75.5t-104.5 -28zM79 -309v26q97 0 180 31.5t142 92t85.5 146.5t11.5 194h8q1 -52 -30 -98t-81 -74.5t-105 -28.5q-97 0 -152 62t-55 144
q0 55 30.5 102t81 75.5t110.5 28.5q61 0 113 -34.5t83.5 -96.5t31.5 -147q0 -123 -56.5 -218.5t-158 -150t-239.5 -54.5z" />
    <glyph glyph-name="less" unicode="&#x3c;" horiz-adv-x="1119" 
d="M120 765v27l880 416v-27zM1000 343l-880 415v27l880 -416v-26z" />
    <glyph glyph-name="equal" unicode="=" horiz-adv-x="1119" 
d="M120 909v24h880v-24h-880zM120 608v24h880v-24h-880z" />
    <glyph glyph-name="greater" unicode="&#x3e;" horiz-adv-x="1119" 
d="M120 1181v26l880 -415v-34l-880 -416v27l859 406z" />
    <glyph glyph-name="question" unicode="?" horiz-adv-x="1201" 
d="M499 520v205q87 30 136 87.5t69.5 136t20.5 171.5q0 71 -6 136t-26 116.5t-63 81.5t-116 30q-69 0 -134.5 -27t-118.5 -74.5t-84.5 -109t-31.5 -128.5h-23q0 49 26.5 87.5t69.5 61t89 22.5q48 0 90.5 -23.5t69.5 -64.5t27 -95q0 -58 -28.5 -99.5t-72 -63t-86.5 -21.5
q-73 0 -130 54t-57 142q0 62 31.5 127.5t92 121.5t148 91t199.5 35q159 0 273.5 -50t176 -140t61.5 -210q0 -115 -73 -203t-203.5 -140.5t-300.5 -61.5v-195h-26zM557 -20q-58 0 -105 28t-75 75.5t-28 104.5t28 104.5t75 75.5t105 28q57 0 104 -28t75 -75.5t28 -104.5
t-28 -104.5t-75 -75.5t-104 -28z" />
    <glyph glyph-name="at" unicode="@" horiz-adv-x="2019" 
d="M838 -428q-137 0 -267 45t-234.5 144.5t-166 262.5t-61.5 398q0 188 53.5 360.5t151 317.5t230 253t291.5 167.5t335 59.5q190 0 329.5 -69t230.5 -183t135.5 -251.5t44.5 -274.5q0 -125 -35 -244t-106.5 -214.5t-178.5 -151.5t-252 -56q-100 0 -157.5 26.5t-83 69
t-28 92.5t8.5 96l144 620h355l-148 -635q-5 -25 -12 -53.5t-10 -56.5t1 -51t19 -36.5t45 -13.5q78 0 151.5 46t132.5 129t94 193.5t35 239.5q0 134 -42.5 267t-130 243t-222.5 176.5t-321 66.5q-170 0 -324.5 -58t-284 -163.5t-225 -248t-148 -311t-52.5 -352.5
q0 -231 59.5 -389t160 -254t226 -139t257.5 -43q160 0 290.5 32t235 96.5t189.5 162.5l17 -16q-126 -147 -306.5 -223.5t-425.5 -76.5zM755 140q-88 0 -157 36.5t-108 108t-39 175.5q0 113 37 219.5t101.5 192t148.5 136.5t178 51q71 0 115 -29.5t68.5 -78t33.5 -108.5
t9 -121q0 -119 -25.5 -224.5t-75.5 -185.5t-121.5 -126t-164.5 -46zM920 254q33 0 68 34.5t64 95t47.5 139.5t18.5 169q0 32 -2.5 74.5t-10 83.5t-24.5 68t-46 27q-33 0 -69 -37.5t-67 -102t-50.5 -148.5t-19.5 -177q0 -67 10 -117.5t30.5 -79.5t50.5 -29z" />
    <glyph glyph-name="A" unicode="A" horiz-adv-x="1620" 
d="M398 474v24h574v-24h-574zM915 1529l522 -1504h148v-25h-733v25h160l-364 1125l-396 -1125h224v-25h-441v25h188l532 1504h160z" />
    <glyph glyph-name="B" unicode="B" horiz-adv-x="1465" 
d="M35 0v25h689q78 0 137 49t91.5 138t32.5 208t-32.5 193.5t-91.5 109.5t-137 35h-211v16h289q163 0 294 -35.5t208 -119.5t77 -228q0 -214 -152 -302.5t-427 -88.5h-767zM216 12v1476h366v-1476h-366zM513 766v17h191q68 0 123 32t86.5 103.5t31.5 190.5t-31.5 200.5
t-86.5 123.5t-123 42h-669v25h728q259 0 408.5 -87.5t149.5 -282.5q0 -184 -141.5 -274t-416.5 -90h-250z" />
    <glyph glyph-name="C" unicode="C" horiz-adv-x="1448" 
d="M824 -20q-233 0 -398 99.5t-253 273.5t-88 397t88 397t253 273.5t398 99.5q89 0 163.5 -30.5t134.5 -85.5l197 96h21v-454h-27q-51 129 -119 228.5t-155 155.5t-195 56q-103 0 -171.5 -63t-108 -168.5t-56.5 -236.5t-17 -268q0 -136 17 -267.5t56.5 -237t108 -168.5
t171.5 -63q99 0 175.5 34t134.5 94.5t102 140.5t78 171h27v-454h-23l-180 105q-64 -59 -147.5 -92t-186.5 -33z" />
    <glyph glyph-name="D" unicode="D" horiz-adv-x="1575" 
d="M713 1500q245 0 419 -92.5t267 -261t93 -396.5q0 -171 -55.5 -309t-158 -236.5t-246 -151.5t-319.5 -53h-678v25h181v1450h-181v25h678zM582 25h131q105 0 176.5 55t114.5 154t62.5 231t19.5 285t-22 285t-67.5 231t-115.5 154t-168 55h-131v-1450z" />
    <glyph glyph-name="E" unicode="E" horiz-adv-x="1303" 
d="M35 0v25h181v1450h-181v25h1185v-410h-24q-22 107 -82 194.5t-151.5 139t-208.5 51.5h-172v-1450h151q137 0 237 53.5t162 149t84 222.5h24v-450h-1205zM899 512q-22 67 -66 124.5t-99.5 92.5t-112.5 35h-106v24h106q57 0 112.5 32.5t99.5 87.5t66 122h25v-518h-25z" />
    <glyph glyph-name="F" unicode="F" horiz-adv-x="1249" 
d="M890 477q-22 67 -61 125.5t-95 95t-128 36.5h-130v24h130q72 0 128 34t95 89.5t61 122.5h25v-527h-25zM1186 1500v-410h-25q-22 107 -74 194.5t-133.5 139t-191.5 51.5h-180v-1450h200v-25h-747v25h181v1450h-181v25h1151z" />
    <glyph glyph-name="G" unicode="G" horiz-adv-x="1560" 
d="M850 583h687v-26h-91v-256q-61 -53 -121 -109t-129.5 -104t-160 -78t-212.5 -30q-230 0 -395 93.5t-254 266t-89 410.5q0 178 62 320.5t170 242.5t246 153.5t290 53.5q81 0 157 -28t141 -77l226 85h22v-454h-25q-23 74 -68 151.5t-109 142.5t-143.5 105t-171.5 40
q-103 0 -177 -62.5t-121.5 -168.5t-70 -236.5t-22.5 -267.5q0 -136 15 -269t51.5 -240.5t101.5 -172t164 -64.5q49 0 87.5 23.5t67.5 61t49.5 80.5t33.5 81v307h-211v26z" />
    <glyph glyph-name="H" unicode="H" horiz-adv-x="1646" 
d="M1612 1500v-25h-181v-1450h181v-25h-717v25h171v703h-484v-703h170v-25h-717v25h181v1450h-181v25h717v-25h-170v-723h484v723h-171v25h717z" />
    <glyph glyph-name="I" unicode="I" horiz-adv-x="896" 
d="M35 0v25h221v1450h-221v25h827v-25h-240v-1450h240v-25h-827z" />
    <glyph glyph-name="J" unicode="J" horiz-adv-x="1172" 
d="M1135 1500v-25h-200v-1135q-34 -80 -80.5 -152.5t-108.5 -128.5t-143 -88t-187 -32q-113 0 -202.5 35t-141 99.5t-51.5 151.5q0 63 28.5 111.5t76.5 75.5t104 27q51 0 99 -24t78.5 -69.5t30.5 -107.5t-30 -105.5t-78.5 -67t-104.5 -21.5q-47 1 -88 31.5t-52 73.5
q15 -59 60 -99.5t106.5 -61t124.5 -20.5q80 0 122 45t57 136.5t15 230.5v1095h-260v25h825z" />
    <glyph glyph-name="K" unicode="K" horiz-adv-x="1622" 
d="M318 434l945 1041h-224v25h480v-25h-222l-945 -1041h-34zM35 0v25h181v1450h-181v25h747v-25h-200v-1450h170v-25h-717zM843 0v25h181l-413 723l245 265l583 -988h170v-25h-766z" />
    <glyph glyph-name="L" unicode="L" horiz-adv-x="1281" 
d="M35 0v25h181v1450h-181v25h726v-25h-179v-1450h149q106 0 188.5 30.5t142 86.5t97.5 134.5t54 173.5h24v-450h-1202z" />
    <glyph glyph-name="M" unicode="M" horiz-adv-x="1848" 
d="M758 -20l-556 1520h367l372 -997l347 997h27l-528 -1520h-29zM215 1500v-1475h151v-25h-320v25h143v1450h-154v25h180zM1813 1500v-25h-140v-1450h140v-25h-666v25h161v1475h505z" />
    <glyph glyph-name="N" unicode="N" horiz-adv-x="1548" 
d="M263 1500v-1475h229v-25h-457v25h203v1450h-203v25h228zM1513 1500v-25h-210v-1495h-34l-1023 1520h434l597 -895v870h-224v25h460z" />
    <glyph glyph-name="O" unicode="O" horiz-adv-x="1566" 
d="M784 -20q-163 0 -292.5 57.5t-220 162t-138.5 245t-48 305.5t50.5 305.5t143 245t221 162t284.5 57.5t284 -57.5t221 -162t143 -245t50 -305.5t-47.5 -305.5t-138 -245t-220 -162t-292.5 -57.5zM784 3q92 0 149.5 55t89 155t43 236.5t11.5 300.5t-14.5 300.5t-47.5 236.5
t-89.5 155t-141.5 55q-84 0 -141 -55t-90 -155t-47.5 -236.5t-14.5 -300.5t11.5 -300.5t42.5 -236.5t89 -155t150 -55z" />
    <glyph glyph-name="P" unicode="P" horiz-adv-x="1412" 
d="M772 1500q195 0 320 -52t184.5 -147.5t59.5 -225.5t-59.5 -222.5t-184.5 -141.5t-320 -49h-190v-637h179v-25h-726v25h181v1450h-181v25h737zM582 687h132q60 0 103.5 35t70.5 92.5t39.5 125.5t12.5 135t-12.5 137t-39.5 130t-70.5 96.5t-103.5 36.5h-132v-788z" />
    <glyph glyph-name="Q" unicode="Q" horiz-adv-x="1566" 
d="M1211 -500q-198 0 -323 22t-192.5 78t-93.5 156.5t-26 257.5q104 -26 205 -26.5t200 26.5q0 -136 5.5 -230t27 -151.5t68.5 -82.5t129 -25v-25zM784 -20q-163 0 -292.5 57.5t-220 162t-138.5 245t-48 305.5t50.5 305.5t143 245t221 162t284.5 57.5t284 -57.5t221 -162
t143 -245t50 -305.5t-47.5 -305.5t-138 -245t-220 -162t-292.5 -57.5zM784 3q92 0 149.5 55t89 155t43 236.5t11.5 300.5t-14.5 300.5t-47.5 236.5t-89.5 155t-141.5 55q-84 0 -141 -55t-90 -155t-47.5 -236.5t-14.5 -300.5t11.5 -300.5t42.5 -236.5t89 -155t150 -55z" />
    <glyph glyph-name="R" unicode="R" horiz-adv-x="1536" 
d="M396 765v16h285q96 0 159.5 35t95 111.5t31.5 200.5t-31.5 200.5t-95 111.5t-159.5 35h-646v25h719q173 0 306 -39t208 -121t75 -212t-71 -210t-203 -116.5t-315 -36.5h-358zM35 0v25h748v-25h-748zM226 13v1475h366v-1475h-366zM1244 -17q-109 0 -171.5 32.5t-92.5 87.5
t-39.5 124t-10 142t-5 142t-26 124.5t-71.5 87.5t-142 32h-290v15h506q136 0 216 -40.5t118.5 -107t50.5 -146t11.5 -158.5t1.5 -145.5t21.5 -107t72.5 -40.5q31 0 60 7.5t50 17.5l8 -23q-24 -13 -95.5 -28.5t-172.5 -15.5z" />
    <glyph glyph-name="S" unicode="S" horiz-adv-x="1233" 
d="M637 -29q-102 0 -181.5 34t-139.5 91l-207 -116h-23v498h26q33 -85 77.5 -170.5t106 -156t143 -113t189.5 -42.5q90 0 155 36t99.5 97.5t34.5 138.5q0 78 -44 130t-116 90t-158 72t-172.5 75.5t-158.5 102t-115.5 149.5t-43.5 219q0 132 65 224.5t169.5 141t223.5 48.5
q85 0 157.5 -27.5t132.5 -79.5l200 107h21v-469h-26q-49 133 -115.5 232.5t-155.5 154.5t-205 55q-109 0 -166.5 -61.5t-57.5 -155.5q0 -70 43.5 -118.5t115 -86.5t157 -74.5t171.5 -81t157.5 -106.5t115 -150.5t43.5 -214.5q0 -145 -70.5 -251t-188.5 -164t-259 -58z" />
    <glyph glyph-name="T" unicode="T" horiz-adv-x="1412" 
d="M304 0v25h220v1450h-90q-77 0 -138.5 -37t-108 -102t-78.5 -150t-48 -180h-26v494h1343v-494h-25q-16 95 -48 180t-78.5 150t-108 102t-138.5 37h-90v-1450h220v-25h-806z" />
    <glyph glyph-name="U" unicode="U" horiz-adv-x="1484" 
d="M1447 1500v-25h-192v-1015q0 -247 -117 -368t-365 -121q-292 0 -425 115t-133 374v1015h-181v25h747v-25h-200v-995q0 -99 10.5 -184t40.5 -148t87 -99t148 -36q106 0 188 45t128.5 143.5t46.5 258.5v1015h-183v25h400z" />
    <glyph glyph-name="V" unicode="V" horiz-adv-x="1614" 
d="M1586 1500v-25h-183l-536 -1504h-169l-522 1504h-147v25h784v-25h-212l368 -1137l406 1137h-240v25h451z" />
    <glyph glyph-name="W" unicode="W" horiz-adv-x="2335" 
d="M762 -20l-580 1495h-158v25h1799v-25h-562l421 -1103l420 1103h-193v25h403v-25h-183l-567 -1495h-99l-580 1495h-278l422 -1103l167 436l14 -38l-302 -790h-144zM1426 914l-23 16l220 563l28 -2z" />
    <glyph glyph-name="X" unicode="X" horiz-adv-x="1646" 
d="M884 0v25h180l-837 1450h-133v25h735v-25h-194l845 -1450h142v-25h-738zM24 0v25h216l557 809l28 -5l-554 -804h231v-25h-478zM812 764l475 711h-214v25h439v-25h-197l-474 -716z" />
    <glyph glyph-name="Y" unicode="Y" horiz-adv-x="1506" 
d="M410 0v25h179v695l-428 755h-137v25h755v-25h-194l360 -681l336 681h-218v25h418v-25h-170l-356 -716v-734h200v-25h-745z" />
    <glyph glyph-name="Z" unicode="Z" horiz-adv-x="1290" 
d="M25 0v25l761 1450h-262q-137 0 -221.5 -45t-133.5 -126t-78 -188h-25v384h1135v-25l-761 -1450h322q137 0 221.5 47t133.5 136t78 216h25v-424h-1195z" />
    <glyph glyph-name="bracketleft" unicode="[" horiz-adv-x="736" 
d="M109 -300v1860h356v-1860h-356zM109 -300v25h569v-25h-569zM109 1535v25h569v-25h-569z" />
    <glyph glyph-name="backslash" unicode="\" horiz-adv-x="1041" 
d="M934 -300l-854 1860h28l855 -1860h-29z" />
    <glyph glyph-name="bracketright" unicode="]" horiz-adv-x="736" 
d="M273 -300v1860h355v-1860h-355zM60 -300v25h568v-25h-568zM60 1535v25h568v-25h-568z" />
    <glyph glyph-name="asciicircum" unicode="^" horiz-adv-x="1089" 
d="M215 1247l-15 13l280 280h129l282 -280l-16 -13l-331 198z" />
    <glyph glyph-name="underscore" unicode="_" horiz-adv-x="1118" 
d="M-11 -312v24h1140v-24h-1140z" />
    <glyph glyph-name="grave" unicode="`" horiz-adv-x="1000" 
d="M704 1677l-281 68q-62 11 -97.5 52t-40.5 91.5t21 89.5q23 33 70 47.5t98.5 -1.5t84.5 -76l158 -254z" />
    <glyph glyph-name="a" unicode="a" horiz-adv-x="1213" 
d="M912 -20q-72 0 -128.5 19t-88 58.5t-31.5 100.5v451q0 72 -14.5 141t-55.5 114.5t-121 45.5q-43 0 -95 -10t-99 -32.5t-77.5 -59.5t-30.5 -91h-29q0 68 54 111t127 43q75 0 131 -38.5t56 -111.5q0 -76 -57 -117t-130 -41q-79 0 -131 42t-52 112q0 61 34 102.5t90.5 67.5
t125 37.5t136.5 11.5q160 0 262.5 -40.5t152 -114t49.5 -172.5v-492q0 -33 15.5 -55.5t53.5 -22.5q25 0 63.5 21t64.5 71l16 -12q-30 -69 -108.5 -104t-182.5 -35zM355 -20q-130 0 -207.5 66.5t-77.5 180.5q0 134 116.5 208.5t329.5 74.5h241v-22h-144q-70 0 -112.5 -36.5
t-61.5 -88.5t-19 -100q0 -46 10 -83.5t32.5 -59.5t58.5 -22q37 0 69.5 28t53 86.5t20.5 149.5h17q0 -119 -39.5 -205t-112 -131.5t-174.5 -45.5z" />
    <glyph glyph-name="b" unicode="b" horiz-adv-x="1298" 
d="M811 -20q-127 0 -207 86t-106 243v-309h-463v25h137v1450h-137v25h463v-888q26 156 105.5 241t207.5 85q108 0 205 -57t157 -164t60 -257t-60 -257.5t-157 -165t-205 -57.5zM731 31q47 0 76 46.5t42.5 141t13.5 241.5t-13.5 241t-42.5 139.5t-76 45.5q-54 0 -108 -47
t-89.5 -141.5t-35.5 -237.5t35.5 -238.5t89.5 -143t108 -47.5z" />
    <glyph glyph-name="c" unicode="c" horiz-adv-x="1067" 
d="M567 -20q-139 0 -252.5 50t-181 156t-67.5 274q0 148 59 255.5t171 165.5t270 58q124 0 218.5 -37t148 -99t53.5 -139q0 -81 -54 -128.5t-128 -47.5q-43 0 -86.5 19t-72 58t-28.5 97q0 80 57 125t130 45q71 0 125.5 -44t54.5 -124h-24q0 54 -29.5 98.5t-77 76.5
t-102.5 49.5t-105 17.5q-65 0 -104 -42.5t-58 -110t-25 -145t-6 -148.5q0 -86 9 -163.5t32 -138t63.5 -95t103.5 -34.5q77 0 135 32t99 89t64 133h26q-39 -138 -139 -220.5t-279 -82.5z" />
    <glyph glyph-name="d" unicode="d" horiz-adv-x="1298" 
d="M488 -19q-109 0 -205.5 57t-157 164t-60.5 257t60.5 257.5t157 165t205.5 57.5q127 0 207 -86t106 -243v865h-137v25h463v-1475h136v-25h-462v307q-26 -156 -106 -241t-207 -85zM568 32q54 0 108 47.5t89.5 142t35.5 237.5t-35.5 238t-89.5 143t-108 48q-47 0 -76 -46.5
t-42.5 -141t-13.5 -241.5t13.5 -241.5t42.5 -140t76 -45.5z" />
    <glyph glyph-name="e" unicode="e" horiz-adv-x="1073" 
d="M566 -20q-145 0 -258 54.5t-178 161.5t-65 264t63 264t174.5 161.5t256.5 54.5q149 0 248 -60.5t149.5 -157t50.5 -205.5h-808v25h471q0 67 -3 132.5t-14 120.5t-33 87.5t-61 32.5q-41 0 -67.5 -34t-42 -93t-21.5 -136t-6 -163q0 -102 8.5 -188.5t31 -150t63.5 -99
t106 -35.5q130 0 223.5 75t130.5 191h26q-39 -129 -147.5 -215.5t-297.5 -86.5z" />
    <glyph glyph-name="f" unicode="f" horiz-adv-x="830" 
d="M203 0v1023q0 146 67 258t185 175.5t274 63.5q92 0 157 -38t99 -94t34 -110q0 -89 -56.5 -135.5t-124.5 -46.5q-40 0 -80.5 17t-68.5 54.5t-28 95.5q0 80 52.5 125t117.5 45q45 0 88 -18.5t70.5 -53.5t27.5 -83h-23q0 60 -34.5 108.5t-90 78t-118.5 29.5q-84 0 -136 -51
t-76 -143.5t-24 -219.5v-1080h-312zM27 0v25h724v-25h-724zM27 895v25h764v-25h-764z" />
    <glyph glyph-name="g" unicode="g" horiz-adv-x="1308" 
d="M528 -520q-92 0 -180 13.5t-158.5 43t-112 76.5t-41.5 114q0 60 36.5 98t89.5 58.5t106.5 28.5t86.5 8h19q-34 -20 -54.5 -61t-20.5 -101q0 -67 31.5 -123.5t96 -90.5t164.5 -34q61 0 124 13t115.5 40.5t85 71t32.5 105.5q0 65 -37 102t-96 52t-124 15h-67.5h-93.5h-69
q-162 0 -261.5 50t-99.5 158q0 66 38.5 109t100.5 67.5t135.5 35t144.5 10.5l-1 -12q-27 0 -63 -4.5t-71 -15.5t-58 -27t-23 -39q0 -35 46.5 -46.5t128.5 -11.5q35 0 74 0.5t75.5 1t64.5 0.5q56 0 117.5 -16.5t115 -56t86.5 -107t33 -169.5q0 -98 -40 -166t-111.5 -109.5
t-165 -61t-199.5 -19.5zM517 323q-75 0 -151 17t-139.5 54t-102.5 95.5t-39 141.5t39 141.5t102.5 95t139.5 54t151 17.5t150 -17.5t138.5 -54t101.5 -95t38 -141.5t-38 -141.5t-101.5 -95.5t-138.5 -54t-150 -17zM517 347q33 0 54 39t31 103.5t10 141.5q0 85 -10 149
t-31 99t-54 35q-34 0 -55 -35t-31 -99t-10 -149q0 -77 6.5 -141.5t26.5 -103.5t63 -39zM1141 596q-54 0 -96 36t-42 101q0 67 42.5 98.5t95.5 31.5q47 0 93.5 -31.5t46.5 -89.5h-23q0 64 -51 114t-139 50q-43 0 -90.5 -19.5t-87.5 -65.5t-60 -127l-18 12q20 86 62.5 135
t93.5 69t98 20q71 0 119.5 -28t73 -71t24.5 -89q0 -80 -44 -113t-98 -33z" />
    <glyph glyph-name="h" unicode="h" horiz-adv-x="1278" 
d="M35 0v25h137v1450h-137v25h463v-1475h92v-25h-555zM689 0v25h93v603q0 84 -7 131.5t-25 67t-54 19.5q-51 0 -88.5 -36t-61.5 -95t-36 -129.5t-12 -139.5l-21 -2q0 75 14 160.5t50.5 162t104.5 125t175 48.5q111 0 173.5 -39t87.5 -107t25 -155v-614h137v-25h-555z" />
    <glyph glyph-name="i" unicode="i" horiz-adv-x="667" 
d="M345 1133q-82 0 -137.5 55.5t-55.5 137.5q0 83 55.5 138t137.5 55q83 0 138 -55t55 -138q0 -82 -55 -137.5t-138 -55.5zM508 920v-895h136v-25h-599v25h137v870h-137v25h463z" />
    <glyph glyph-name="j" unicode="j" horiz-adv-x="695" 
d="M48 -520q-92 0 -166 32t-117.5 88.5t-43.5 126.5q0 78 54.5 130.5t133.5 52.5q47 0 88.5 -22.5t68.5 -61.5t27 -90q0 -71 -49.5 -119.5t-132.5 -48.5q-51 0 -93.5 24.5t-68.5 61t-26 73.5h24q0 -64 41 -114t106 -79t136 -29q73 0 112 47.5t55 126t18.5 173.5t2.5 190v853
h-176v25h502v-943q0 -98 -40.5 -187.5t-110 -159t-158.5 -110t-187 -40.5zM365 1133q-82 0 -137.5 56t-55.5 138q0 83 55.5 138t137.5 55q83 0 138 -55t55 -138q0 -82 -55 -138t-138 -56z" />
    <glyph glyph-name="k" unicode="k" horiz-adv-x="1329" 
d="M35 0v25h177v1450h-177v25h503v-1475h96v-25h-599zM712 0v25h108l-356 512l526 358h-226v25h438v-25h-175l-300 -209l494 -661h93v-25h-602z" />
    <glyph glyph-name="l" unicode="l" horiz-adv-x="749" 
d="M538 1500v-1475h176v-25h-679v25h177v1450h-177v25h503z" />
    <glyph glyph-name="m" unicode="m" horiz-adv-x="1808" 
d="M497 920v-895h85v-25h-547v25h137v870h-137v25h462zM1067 639v-614h85v-25h-495v25h85v604q0 84 -7 132.5t-23.5 68.5t-44.5 20q-41 0 -72.5 -34.5t-53.5 -92.5t-33 -129.5t-11 -146.5l-16 -2q0 75 11 160.5t44.5 161.5t97.5 124.5t169 48.5q98 0 156 -39t83 -107
t25 -155zM1637 639v-614h137v-25h-547v25h85v604q0 84 -7 132.5t-24 68.5t-45 20q-42 0 -73 -34.5t-52.5 -92.5t-32.5 -129.5t-11 -146.5l-16 -2q0 75 10.5 160.5t43 161.5t96.5 124.5t170 48.5q98 0 156.5 -39t84 -107t25.5 -155z" />
    <glyph glyph-name="n" unicode="n" horiz-adv-x="1278" 
d="M497 920v-895h93v-25h-555v25h137v870h-137v25h462zM1107 639v-614h137v-25h-555v25h93v603q0 84 -7 131.5t-25 67t-54 19.5q-51 0 -88.5 -36t-62 -95t-36.5 -129.5t-12 -139.5l-20 -2q0 75 14 160.5t50.5 162t104.5 125t176 48.5q111 0 173 -39t87 -107t25 -155z" />
    <glyph glyph-name="o" unicode="o" horiz-adv-x="1134" 
d="M568 -20q-156 0 -268.5 66t-173.5 175t-61 239t61 239t173.5 175t268.5 66q155 0 267.5 -66t173 -175t60.5 -239t-60.5 -239t-173 -175t-267.5 -66zM568 5q42 0 73 34t50 95.5t28.5 144.5t9.5 181t-9.5 181t-28.5 144.5t-50 95.5t-73 34q-43 0 -74 -34t-50 -95.5
t-28 -144.5t-9 -181t9 -181t28 -144.5t50 -95.5t74 -34z" />
    <glyph glyph-name="p" unicode="p" horiz-adv-x="1298" 
d="M35 -500v25h137v1370h-137v25h463v-308q26 156 105.5 241t207.5 85q108 0 205 -57t157 -164t60 -257t-60 -257.5t-157 -165t-205 -57.5q-127 0 -207 86t-106 243v-784h136v-25h-599zM731 31q47 0 76 46.5t42.5 141t13.5 241.5t-13.5 241t-42.5 139.5t-76 45.5
q-54 0 -108 -47t-89.5 -141.5t-35.5 -237.5t35.5 -238.5t89.5 -143t108 -47.5z" />
    <glyph glyph-name="q" unicode="q" horiz-adv-x="1298" 
d="M664 -500v25h137v782q-26 -156 -106 -241t-207 -85q-109 0 -205.5 57t-157 164t-60.5 257t60.5 257.5t157 165t205.5 57.5q127 0 207 -86t106 -243v310h462v-25h-136v-1370h136v-25h-599zM568 32q54 0 108 47.5t89.5 142t35.5 237.5t-35.5 238t-89.5 143t-108 48
q-47 0 -76 -46.5t-42.5 -141t-13.5 -241.5t13.5 -241.5t42.5 -140t76 -45.5z" />
    <glyph glyph-name="r" unicode="r" horiz-adv-x="1035" 
d="M482 431q0 106 15.5 198.5t49.5 162t90.5 108.5t138.5 39q75 0 126.5 -34t78.5 -87.5t27 -110.5q0 -78 -52.5 -137t-136.5 -59t-137.5 53.5t-53.5 125.5q0 80 52 134.5t137 54.5q55 0 97.5 -25t67 -64t24.5 -83h-24q0 52 -24.5 99.5t-71.5 77.5t-113 30q-71 0 -123 -36
t-85.5 -102t-50.5 -154t-17 -191h-15zM497 920v-895h161v-25h-623v25h137v870h-137v25h462z" />
    <glyph glyph-name="s" unicode="s" horiz-adv-x="913" 
d="M77 -20v326h26q36 -96 90.5 -163t126.5 -102t161 -35q62 0 107.5 16.5t71 45.5t25.5 69q0 49 -42.5 78.5t-109.5 51.5t-142 47t-142 63.5t-109.5 101.5t-42.5 163q0 86 41 152.5t114 105t168 38.5q69 0 124.5 -22.5t98.5 -58.5l124 83h22v-280h-25q-36 68 -83 125
t-110.5 92t-149.5 35q-50 0 -87 -15.5t-57.5 -41.5t-20.5 -59q0 -48 43.5 -78t112 -53t145.5 -48t145.5 -63.5t112 -99.5t43.5 -156q0 -111 -55 -181.5t-140 -103.5t-174 -33q-80 0 -146.5 25t-118.5 72l-125 -97h-22z" />
    <glyph glyph-name="t" unicode="t" horiz-adv-x="768" 
d="M417 -14q-104 0 -159.5 30.5t-77 87t-21.5 133.5v883q78 0 171 13.5t156 46.5v-983q0 -75 17.5 -108.5t58.5 -33.5q44 0 94 38t81 115l23 -10q-37 -93 -122 -152.5t-221 -59.5zM15 895v25h685v-25h-685z" />
    <glyph glyph-name="u" unicode="u" horiz-adv-x="1279" 
d="M458 -20q-111 0 -173 39.5t-87.5 107.5t-25.5 155v613h-137v25h463v-628q0 -84 7 -131.5t25 -67t54 -19.5q51 0 88.5 36t61.5 95t36 129.5t12 139.5l20 2q0 -75 -13.5 -160.5t-50 -162t-104 -125t-176.5 -48.5zM782 0v895h-126v25h452v-895h136v-25h-462z" />
    <glyph glyph-name="v" unicode="v" horiz-adv-x="1169" 
d="M1166 920v-25h-162l-368 -915h-127l-376 915h-132v25h628v-25h-137l226 -640l257 640h-186v25h377z" />
    <glyph glyph-name="w" unicode="w" horiz-adv-x="1711" 
d="M1707 920v-25h-180l-305 -915h-130l-257 695l-277 -695h-130l-297 915h-130v25h648v-25h-172l170 -620l265 665h212l184 -618l192 573h-206v25h413z" />
    <glyph glyph-name="x" unicode="x" horiz-adv-x="1174" 
d="M543 0v25h130l-526 870h-121v25h616v-25h-129l540 -870h101v-25h-611zM21 0v25h143l772 870h-151v25h347v-25h-163l-773 -870h197v-25h-372z" />
    <glyph glyph-name="y" unicode="y" horiz-adv-x="1253" 
d="M521 895l298 -577l-187 -369l-508 946h-137v25h738v-25h-204zM1273 920v-25h-163l-613 -1264q-31 -63 -78.5 -106t-122.5 -43q-44 0 -84.5 19.5t-67 57.5t-26.5 94q0 52 25 92.5t67 63.5t92 23q47 0 88 -25.5t64.5 -70t16.5 -100.5l609 1259h-201v25h394z" />
    <glyph glyph-name="z" unicode="z" horiz-adv-x="986" 
d="M26 0v25l529 870h-124q-84 0 -149.5 -37.5t-109.5 -109t-66 -172.5h-24v344h836v-25l-531 -870h168q81 0 142.5 18.5t106.5 59.5t75 106.5t47 158.5h24v-368h-924z" />
    <glyph glyph-name="braceleft" unicode="{" horiz-adv-x="718" 
d="M660 1560v-25q-62 0 -104 -34t-63 -89t-21 -118q0 -61 17 -117.5t34 -121t17 -149.5q0 -80 -38 -134t-126 -87.5t-239 -53.5q151 -21 239 -54t126 -86.5t38 -134.5q0 -85 -17 -149.5t-34 -121t-17 -117.5q0 -63 21 -118.5t63 -90t104 -34.5v-25q-212 0 -331.5 34
t-169.5 103t-50 172q0 92 18.5 158.5t42.5 117t42 94.5t18 92q0 61 -37.5 96.5t-83.5 50.5v25q46 15 83.5 51.5t37.5 97.5q0 47 -18 91t-42 94.5t-42.5 117t-18.5 158.5q0 103 50 171.5t169.5 102t331.5 33.5z" />
    <glyph glyph-name="bar" unicode="|" horiz-adv-x="469" 
d="M223 -500v2060h25v-2060h-25z" />
    <glyph glyph-name="braceright" unicode="}" horiz-adv-x="718" 
d="M610 625q-162 20 -256 53.5t-134 88t-40 137.5q0 85 17 149.5t34 121t17 117.5q0 63 -21 118.5t-63 90t-104 34.5v25q211 0 331 -34t169.5 -103t49.5 -172q0 -92 -18 -158.5t-42 -117t-42 -94.5t-18 -92q0 -61 37.5 -96.5t82.5 -50.5v-17zM60 -300v25q62 0 104 34t63 89
t21 118q0 61 -17 117.5t-34 121t-17 149.5q0 83 40 137.5t134 88t256 53.5v-16q-45 -15 -82.5 -51t-37.5 -98q0 -47 18 -91t42 -94.5t42 -117t18 -158.5q0 -103 -49.5 -171.5t-169.5 -102t-331 -33.5z" />
    <glyph glyph-name="asciitilde" unicode="~" horiz-adv-x="1375" 
d="M878 642q-76 0 -126 19t-86.5 47t-70.5 56t-77.5 47t-108.5 19q-52 0 -93.5 -15t-66 -47t-24.5 -82h-25q0 115 35.5 200t102 131.5t160.5 46.5q66 0 112.5 -19t82.5 -47l72 -56t78.5 -47t103.5 -19q62 0 108 15t71 47t25 82h25q0 -115 -35.5 -200t-102 -131.5
t-160.5 -46.5z" />
    <glyph glyph-name="uni00A0" unicode="&#xa0;" horiz-adv-x="500" 
 />
    <glyph glyph-name="exclamdown" unicode="&#xa1;" horiz-adv-x="813" 
d="M410 -476q-103 0 -155.5 64t-52.5 155q0 9 1 18.5t2 19.5q8 99 38.5 188.5t66 174t62 167t26.5 167.5h25q0 -85 26.5 -167.5t62 -167t66 -174t38.5 -188.5q2 -10 1 -19.5t-1 -18.5q0 -91 -51 -155t-155 -64zM408 644q-57 0 -104 28t-75 75.5t-28 104.5t28 104.5t75 75.5
t104 28t104.5 -28t75.5 -75.5t28 -104.5t-28 -104.5t-75.5 -75.5t-104.5 -28z" />
    <glyph glyph-name="cent" unicode="&#xa2;" horiz-adv-x="1067" 
d="M567 -20q-139 0 -252.5 50t-181 156t-67.5 274q0 148 59 255.5t171 165.5t270 58q124 0 218.5 -37t148 -99t53.5 -139q0 -81 -54 -128.5t-128 -47.5q-43 0 -86.5 19t-72 58t-28.5 97q0 80 57 125t130 45q71 0 125.5 -44t54.5 -124h-24q0 54 -29.5 98.5t-77 76.5
t-102.5 49.5t-105 17.5q-65 0 -104 -42.5t-58 -110t-25 -145t-6 -148.5q0 -86 9 -163.5t32 -138t63.5 -95t103.5 -34.5q77 0 135 32t99 89t64 133h26q-39 -138 -139 -220.5t-279 -82.5zM563 -170v1279h24v-1279h-24z" />
    <glyph glyph-name="sterling" unicode="&#xa3;" horiz-adv-x="1339" 
d="M145 -40q-11 83 5 152.5t46.5 128t63.5 107.5t56 92t23 81q0 86 -24.5 155.5t-56.5 134t-56.5 134t-24.5 155.5q0 140 73 233t206 140t312 47q122 0 217.5 -34.5t162 -90.5t101.5 -121t35 -127q0 -59 -28.5 -106.5t-76 -76t-103.5 -28.5q-51 0 -96.5 26t-75 71t-29.5 103
q0 53 27.5 98t73 72.5t100.5 27.5q54 0 101 -26.5t76 -69.5t29 -91h-23q0 60 -33 120t-93 110t-141 80t-176 30q-65 0 -111 -24.5t-75 -66.5t-42 -94.5t-13 -108.5q0 -74 17 -129.5t39 -102t39 -93.5t17 -103q0 -90 -40 -156.5t-103 -121t-132 -106.5t-128 -111t-92 -134
t-23 -176h-24zM936 -61q-102 0 -185 18.5t-151 42.5t-123.5 42.5t-102.5 18.5q-41 0 -84 -12.5t-76 -35t-43 -53.5h-15q15 69 56 141t100 132.5t130 98t147 37.5q75 0 122.5 -10t83 -23.5t74 -23.5t95.5 -10q47 0 99.5 6.5t99 26t75.5 57t29 98.5h25q0 -200 -42.5 -321
t-122.5 -175.5t-191 -54.5zM29 785v26h901v-26h-901z" />
    <glyph glyph-name="currency" unicode="&#xa4;" horiz-adv-x="1140" 
d="M94 275l-18 18l157 157q-121 129 -121 320t121 319l-158 157l19 19l157 -158q59 57 140 89.5t180 32.5t180 -32.5t139 -88.5l157 156l18 -18l-157 -157q120 -127 120 -319q0 -190 -119 -320l156 -156l-19 -19l-155 157q-59 -56 -140 -89t-180 -33t-180.5 32.5
t-139.5 89.5zM571 338q133 0 228.5 59.5t147 158t51.5 214.5t-51.5 214.5t-147 157.5t-228.5 59t-229 -59t-148 -157.5t-52 -214.5t52 -214.5t148 -158t229 -59.5z" />
    <glyph glyph-name="yen" unicode="&#xa5;" horiz-adv-x="1506" 
d="M589 0v720l-442 780h425l373 -706l348 703l30 -1l-368 -737v-759h-366zM410 0v25h745v-25h-745zM250 328v24h1049v-24h-1049zM250 629v24h1049v-24h-1049zM24 1475v25h755v-25h-755zM1063 1475v25h418v-25h-418z" />
    <glyph glyph-name="brokenbar" unicode="&#xa6;" horiz-adv-x="438" 
d="M213 -500v832h25v-832h-25zM213 818v742h25v-742h-25z" />
    <glyph glyph-name="section" unicode="&#xa7;" horiz-adv-x="979" 
d="M316 1311q0 -58 41.5 -99.5t107.5 -74.5t140.5 -65t140.5 -71t107.5 -93t41.5 -131q0 -69 -30 -115t-78 -78.5t-102 -60.5l-21 1q52 35 72 59t20 64q0 57 -45 94t-115 66t-149 58.5t-149.5 69.5t-115 100.5t-44.5 151.5q0 104 53 178.5t140 114.5t188 40q66 0 132.5 -14
t122 -45t89 -82t33.5 -125q0 -78 -47.5 -126t-116.5 -48q-62 0 -107 38.5t-45 109.5q0 64 48.5 105.5t109.5 41.5q36 0 69.5 -21t42.5 -49q-13 70 -64 112t-122.5 60t-144.5 18q-63 0 -108.5 -26.5t-70 -68.5t-24.5 -89zM260 878q0 -56 46 -94t118.5 -67.5t154 -61t154 -73
t119 -104t46.5 -154.5q0 -104 -52.5 -181.5t-148.5 -120t-230 -42.5q-66 0 -137 14.5t-132.5 46t-99.5 84t-38 128.5q0 78 47 125.5t116 47.5q62 0 107 -39t45 -110q0 -64 -49.5 -105.5t-112.5 -41.5q-36 1 -68 20.5t-41 50.5q12 -55 49.5 -92.5t89.5 -60.5t111 -33t113 -10
q82 0 136.5 30t82.5 75.5t28 92.5q0 56 -44 93t-113.5 65t-147.5 56t-147.5 63.5t-113.5 87t-44 127.5q0 73 31.5 128.5t78 95.5t91.5 66h22q-20 -14 -35 -29t-23.5 -33.5t-8.5 -44.5z" />
    <glyph glyph-name="dieresis" unicode="&#xa8;" horiz-adv-x="1000" 
d="M700 1683q-51 0 -87.5 36.5t-36.5 87.5t36.5 87.5t87.5 36.5t87.5 -36.5t36.5 -87.5t-36.5 -87.5t-87.5 -36.5zM300 1683q-51 0 -87 36.5t-36 87.5t36 87.5t88 36.5q51 0 87.5 -36.5t36.5 -87.5t-36.5 -87.5t-88.5 -36.5z" />
    <glyph glyph-name="copyright" unicode="&#xa9;" horiz-adv-x="1739" 
d="M895 308q80 0 135 35.5t93.5 96t65.5 133.5h16v-273h-13l-108 63q-39 -35 -89 -55t-112 -20q-139 0 -238.5 60t-152 164t-52.5 238t52.5 238t152 164t238.5 60q54 0 98.5 -18t80.5 -52l118 58h13v-273h-16q-31 78 -71.5 137.5t-93 93.5t-117.5 34q-62 0 -103 -38
t-65 -101.5t-34 -142t-10 -160.5t10 -160.5t34 -142t65 -101.5t103 -38zM870 1520q160 0 299.5 -59.5t245.5 -165.5t165.5 -245.5t59.5 -299.5t-59.5 -299.5t-165.5 -245.5t-245.5 -165.5t-299.5 -59.5t-299.5 59.5t-245.5 165.5t-165.5 245.5t-59.5 299.5t59.5 299.5
t165.5 245.5t245.5 165.5t299.5 59.5zM870 5q154 0 289 58t237.5 160.5t160.5 237.5t58 289t-58 289t-160.5 237.5t-237.5 160.5t-289 58t-289 -58t-237.5 -160.5t-160.5 -237.5t-58 -289t58 -289t160.5 -237.5t237.5 -160.5t289 -58z" />
    <glyph glyph-name="ordfeminine" unicode="&#xaa;" horiz-adv-x="754" 
d="M540 952q-66 0 -108 26t-42 81v270q0 44 -8.5 85.5t-33 68.5t-72.5 27q-35 0 -77 -11t-73 -36.5t-31 -68.5h-18q0 41 32.5 67t76.5 26q45 0 78.5 -23.5t33.5 -66.5q0 -46 -34 -70.5t-78 -24.5q-48 0 -79 25t-31 67q0 48 35 77t88.5 42t108.5 13q95 0 156.5 -24t91 -68.5
t29.5 -104.5v-295q0 -20 10 -33.5t33 -13.5q15 0 38 12.5t38 43.5l10 -8q-18 -41 -65 -62t-109 -21zM205 952q-78 0 -124.5 40t-46.5 108q0 80 70 125t198 45h144v-13h-86q-42 0 -67.5 -22t-37 -53.5t-11.5 -59.5q0 -42 14.5 -70.5t45.5 -28.5q34 0 60 38t26 120h11
q0 -107 -52 -168t-144 -61z" />
    <glyph glyph-name="guillemotleft" unicode="&#xab;" horiz-adv-x="1476" 
d="M1358 290l-749 470v30l749 470l12 -12l-332 -472l332 -474zM798 290l-748 470v30l748 470l12 -12l-362 -472l362 -474z" />
    <glyph glyph-name="logicalnot" unicode="&#xac;" horiz-adv-x="971" 
d="M827 406v354h-707v25h732v-379h-25z" />
    <glyph glyph-name="uni00AD" unicode="&#xad;" horiz-adv-x="718" 
d="M120 538v24h480v-24h-480z" />
    <glyph glyph-name="registered" unicode="&#xae;" horiz-adv-x="1739" 
d="M870 -20q-160 0 -299.5 59.5t-245.5 165.5t-165.5 245.5t-59.5 299.5t59.5 299.5t165.5 245.5t245.5 165.5t299.5 59.5t299.5 -59.5t245.5 -165.5t165.5 -245.5t59.5 -299.5t-59.5 -299.5t-165.5 -245.5t-245.5 -165.5t-299.5 -59.5zM870 5q154 0 289 58t237.5 160.5
t160.5 237.5t58 289t-58 289t-160.5 237.5t-237.5 160.5t-289 58t-289 -58t-237.5 -160.5t-160.5 -237.5t-58 -289t58 -289t160.5 -237.5t237.5 -160.5t289 -58zM1176 286q-87 0 -127 33.5t-51 86t-10.5 112t-6 112t-36.5 86t-104 33.5h-56v-438h114v-15h-449v15h115v870
h-115v15h432q155 0 254 -53t99 -170q0 -105 -75.5 -155.5t-208.5 -60.5q104 -1 158 -34t74.5 -84t22 -107.5t0.5 -106.5t9.5 -82t49.5 -32q19 0 36.5 4.5t29.5 10.5l6 -14q-14 -8 -57.5 -17t-103.5 -9zM785 764h53q86 0 128.5 49t42.5 160t-42.5 159.5t-128.5 48.5h-53v-417
z" />
    <glyph glyph-name="macron" unicode="&#xaf;" horiz-adv-x="1000" 
d="M260 1700v25h480v-25h-480z" />
    <glyph glyph-name="degree" unicode="&#xb0;" horiz-adv-x="639" 
d="M320 1120q-66 0 -120.5 32.5t-87 87t-32.5 120.5t32.5 120.5t87 87t120.5 32.5t120.5 -32.5t87 -87t32.5 -120.5t-32.5 -120.5t-87 -87t-120.5 -32.5zM320 1181q76 0 127.5 51.5t51.5 127.5q0 77 -51.5 128t-127.5 51t-127.5 -51t-51.5 -128q0 -76 51.5 -127.5
t127.5 -51.5z" />
    <glyph glyph-name="plusminus" unicode="&#xb1;" horiz-adv-x="1059" 
d="M233 647v250h593v-250h-593zM121 9v24h819v-24h-819zM404 474v594h250v-594h-250z" />
    <glyph glyph-name="uni00B2" unicode="&#xb2;" horiz-adv-x="938" 
d="M158 917v139l255 183q76 54 114 126t38 177t-44.5 177.5t-122.5 72.5q-55 0 -105 -27.5t-80.5 -78.5t-28.5 -122h-14q0 39 42.5 71.5t92.5 32.5q46 0 84.5 -34t38.5 -86q0 -56 -38 -90.5t-90 -34.5q-51 0 -90.5 38.5t-40.5 102.5q-3 117 83.5 191t230.5 74t225.5 -65.5
t81.5 -161.5q0 -55 -22 -96.5t-57.5 -74.5t-77 -60.5t-79.5 -53.5l-256 -187h502v90h14v-303h-656z" />
    <glyph glyph-name="uni00B3" unicode="&#xb3;" horiz-adv-x="898" 
d="M419 902q-96 0 -161 32.5t-97.5 82t-32.5 102.5t34 87t82 34q44 0 76 -31t32 -80q0 -45 -34.5 -76t-77.5 -31q-42 0 -76.5 29t-34.5 68h14q0 -52 32 -96.5t85 -72.5t117 -28q84 0 121.5 67t37.5 174q0 46 -15 99.5t-56.5 92t-120.5 38.5v9q144 0 237 -34t137.5 -91
t44.5 -123q0 -78 -50.5 -134.5t-129.5 -87t-164 -30.5zM344 1398v10q73 0 106 34t41.5 81.5t8.5 88.5q0 48 -9.5 92t-33 72.5t-64.5 28.5q-28 0 -65 -11.5t-71 -33t-56 -52.5t-22 -69h-14q0 44 36.5 72t75.5 28q43 0 77.5 -30t34.5 -78q0 -52 -36.5 -81t-75.5 -29
q-44 0 -79 32.5t-35 85.5t41.5 94.5t103.5 66.5t123 25q67 0 135.5 -23t114.5 -68t46 -111q0 -60 -38 -111t-122.5 -82.5t-222.5 -31.5z" />
    <glyph glyph-name="acute" unicode="&#xb4;" horiz-adv-x="1000" 
d="M296 1677l-12 17l157 254q34 60 85 76t98.5 1.5t70.5 -47.5q26 -39 20.5 -89.5t-40.5 -91.5t-97 -52z" />
    <glyph glyph-name="uni00B5" unicode="&#xb5;" horiz-adv-x="1279" 
d="M1108 920v-895h136v-25h-462v317q-14 -82 -48.5 -159.5t-100 -127.5t-175.5 -50q-122 0 -182.5 51t-78.5 132v-405q0 -76 34.5 -129.5t92.5 -84t126 -37.5q-37 16 -60.5 62t-23.5 96q0 66 47.5 114t118.5 48q72 0 119.5 -48.5t47.5 -121.5q0 -75 -53.5 -126t-157.5 -51
q-81 0 -153.5 32t-117.5 94t-45 152v1137h-137v25h463v-628q0 -84 7 -131.5t25 -67t54 -19.5q51 0 88.5 36t61.5 95t36 129.5t12 139.5v421h-126v25h452z" />
    <glyph glyph-name="paragraph" unicode="&#xb6;" horiz-adv-x="1348" 
d="M742 486q-176 0 -316 56t-220 168.5t-80 282.5t80 282.5t220 168.5t316 56h520v-25h-360v-989h-160zM687 -300v25h575v-25h-575zM889 -300v1800h24v-1800h-24zM1045 -300v1800h24v-1800h-24z" />
    <glyph glyph-name="periodcentered" unicode="&#xb7;" horiz-adv-x="573" 
d="M288 680q-58 0 -105 28t-75 75.5t-28 104.5t28 104.5t75 75.5t105 28q57 0 104.5 -28t75.5 -75.5t28 -104.5t-28 -104.5t-75.5 -75.5t-104.5 -28z" />
    <glyph glyph-name="cedilla" unicode="&#xb8;" horiz-adv-x="1000" 
d="M292 -503v24q88 0 127 36t39 94q0 52 -24.5 78t-63 34.5t-81.5 8.5l172 232h31l-112 -152q104 -3 180 -20t117 -51.5t41 -90.5q0 -50 -38 -94.5t-131 -71.5t-257 -27z" />
    <glyph glyph-name="uni00B9" unicode="&#xb9;" horiz-adv-x="1058" 
d="M411 917v880h-136v15h355v-895h-219zM255 912v15h507v-15h-507z" />
    <glyph glyph-name="ordmasculine" unicode="&#xba;" horiz-adv-x="1134" 
d="M569 950q-94 0 -161.5 39.5t-103.5 105t-36 143.5t36 143.5t103.5 105t161.5 39.5q93 0 160.5 -39.5t104 -105t36.5 -143.5t-36.5 -143.5t-104 -105t-160.5 -39.5zM569 965q34 0 55.5 35.5t31.5 97.5t10 140t-10 140t-31.5 97.5t-55.5 35.5q-35 0 -56 -35.5t-31 -97.5
t-10 -140t10 -140t31 -97.5t56 -35.5z" />
    <glyph glyph-name="guillemotright" unicode="&#xbb;" horiz-adv-x="1491" 
d="M693 290l-12 12l362 472l-362 474l12 12l748 -470v-30zM133 290l-12 12l332 472l-332 474l12 12l749 -470v-30z" />
    <glyph glyph-name="onequarter" unicode="&#xbc;" horiz-adv-x="1368" 
d="M86 -200l965 1500h25l-965 -1500h-25zM44 712v15h507v-15h-507zM856 -206v15h114v770l-361 -520h712v-14h-739l450 649h157v-885h90v-15h-423zM200 717v880h-136v15h355v-895h-219z" />
    <glyph glyph-name="onehalf" unicode="&#xbd;" horiz-adv-x="1426" 
d="M79 -200l966 1500h24l-964 -1500h-26zM44 712v15h507v-15h-507zM730 -202v139l255 183q76 54 114 126t38 177t-44.5 177.5t-121.5 72.5q-56 0 -106 -27t-80.5 -78.5t-27.5 -122.5h-14q0 39 42.5 71.5t91.5 32.5q46 0 84.5 -34t38.5 -86q0 -56 -38 -90.5t-89 -34.5
t-91 38.5t-40 102.5q-4 117 82.5 191t231.5 74q143 0 225 -65.5t82 -161.5q0 -55 -22 -96.5t-58 -74.5t-77 -60.5t-80 -53.5l-256 -187h502v90h15v-303h-657zM200 717v880h-136v15h355v-895h-219z" />
    <glyph glyph-name="threequarters" unicode="&#xbe;" horiz-adv-x="1488" 
d="M200 -200l965 1500h24l-964 -1500h-25zM331 696q-96 0 -161 32.5t-97.5 82t-32.5 102.5t34 87t82 34q44 0 76 -31t32 -80q0 -45 -34.5 -76t-77.5 -31q-42 0 -76.5 29t-34.5 68h14q0 -52 32 -96.5t85 -72.5t117 -28q85 0 122 67t37 174q0 46 -15 99.5t-56.5 92
t-120.5 38.5v9q144 0 237 -34t137.5 -91t44.5 -123q0 -78 -50.5 -134.5t-129.5 -87t-164 -30.5zM976 -206v15h114v770l-361 -520h712v-14h-739l450 649h157v-885h90v-15h-423zM256 1192v10q73 0 106 34t41.5 81.5t8.5 88.5q0 48 -9.5 92t-33 72.5t-64.5 28.5
q-28 0 -65 -11.5t-71 -33t-56 -52.5t-22 -69h-14q0 44 36.5 72t75.5 28q43 0 77.5 -30t34.5 -78q0 -52 -36.5 -81t-75.5 -29q-44 0 -79 32.5t-35 85.5t41.5 94.5t103.5 66.5t123 25q67 0 135.5 -23t114.5 -68t46 -111q0 -60 -38 -111t-122.5 -82.5t-222.5 -31.5z" />
    <glyph glyph-name="questiondown" unicode="&#xbf;" horiz-adv-x="1201" 
d="M609 -480q-159 0 -273.5 50t-176.5 140t-62 210q0 115 73.5 203t204 140.5t300.5 61.5v195h25v-205q-86 -30 -135 -87.5t-69.5 -136t-20.5 -171.5q0 -70 6 -135.5t26 -117t62.5 -81.5t116.5 -30q69 0 134.5 27t118.5 74.5t84.5 109t31.5 128.5h23q0 -49 -26.5 -87
t-69 -61t-89.5 -23q-48 0 -91 23.5t-70 64.5t-27 95q0 58 29 99.5t72 63t87 21.5q73 0 130 -53.5t57 -142.5q0 -61 -31.5 -127t-92 -122t-148 -91t-199.5 -35zM643 644q-57 0 -104 28t-75.5 75.5t-28.5 104.5t28.5 104.5t75.5 75.5t104 28t104.5 -28t75.5 -75.5t28 -104.5
t-28 -104.5t-75.5 -75.5t-104.5 -28z" />
    <glyph glyph-name="Agrave" unicode="&#xc0;" horiz-adv-x="1620" 
d="M398 474v24h574v-24h-574zM915 1529l522 -1504h148v-25h-733v25h160l-364 1125l-396 -1125h224v-25h-441v25h188l532 1504h160zM926 1677l-281 68q-62 11 -97.5 52t-40.5 91.5t21 89.5q23 33 70 47.5t98.5 -1.5t84.5 -76l158 -254z" />
    <glyph glyph-name="Aacute" unicode="&#xc1;" horiz-adv-x="1620" 
d="M398 474v24h574v-24h-574zM915 1529l522 -1504h148v-25h-733v25h160l-364 1125l-396 -1125h224v-25h-441v25h188l532 1504h160zM721 1677l-12 17l157 254q34 60 85 76t98.5 1.5t70.5 -47.5q26 -39 20.5 -89.5t-40.5 -91.5t-97 -52z" />
    <glyph glyph-name="Acircumflex" unicode="&#xc2;" horiz-adv-x="1620" 
d="M398 474v24h574v-24h-574zM915 1529l522 -1504h148v-25h-733v25h160l-364 1125l-396 -1125h224v-25h-441v25h188l532 1504h160zM495 1704l-13 12l250 293h188l250 -293l-13 -12l-332 142z" />
    <glyph glyph-name="Atilde" unicode="&#xc3;" horiz-adv-x="1620" 
d="M398 474v24h574v-24h-574zM915 1529l522 -1504h148v-25h-733v25h160l-364 1125l-396 -1125h224v-25h-441v25h188l532 1504h160zM990 1651q-62 0 -108.5 23.5t-86.5 55t-83 55t-98 23.5q-54 0 -84.5 -31.5t-30.5 -76.5h-25q0 85 20.5 156t64.5 114t115 43q65 0 110 -24
t82.5 -55t75.5 -55t88 -24q57 0 86 31.5t29 76.5h25q0 -94 -11.5 -164.5t-49.5 -109t-119 -38.5z" />
    <glyph glyph-name="Adieresis" unicode="&#xc4;" horiz-adv-x="1620" 
d="M398 474v24h574v-24h-574zM915 1529l522 -1504h148v-25h-733v25h160l-364 1125l-396 -1125h224v-25h-441v25h188l532 1504h160zM1025 1683q-51 0 -87.5 36.5t-36.5 87.5t36.5 87.5t87.5 36.5t87.5 -36.5t36.5 -87.5t-36.5 -87.5t-87.5 -36.5zM625 1683q-51 0 -87 36.5
t-36 87.5t36 87.5t88 36.5q51 0 87.5 -36.5t36.5 -87.5t-36.5 -87.5t-88.5 -36.5z" />
    <glyph glyph-name="Aring" unicode="&#xc5;" horiz-adv-x="1620" 
d="M398 474v24h574v-24h-574zM915 1529l522 -1504h148v-25h-733v25h160l-364 1125l-396 -1125h224v-25h-441v25h188l532 1504h160zM825 1680q-98 0 -153.5 52t-55.5 128q0 77 55.5 128.5t153.5 51.5q99 0 154 -51.5t55 -128.5q0 -76 -55 -128t-154 -52zM825 1705
q23 0 37.5 17.5t21 52t6.5 85.5t-6.5 85.5t-21 52t-37.5 17.5t-37.5 -17.5t-21 -52t-6.5 -85.5t6.5 -85.5t21 -52t37.5 -17.5z" />
    <glyph glyph-name="AE" unicode="&#xc6;" horiz-adv-x="2141" 
d="M192 0l851 1500h27l-847 -1500h-31zM29 0v25h442v-25h-442zM483 477l8 25h579v-25h-587zM870 0v25h719q130 0 227 53.5t158 149t83 222.5h24v-450h-1211zM1050 0v1500h366v-1500h-366zM1741 512q-22 67 -66 124.5t-100 92.5t-113 35h-120v24h120q57 0 113 32.5t100 87.5
t66 122h25v-518h-25zM2037 1090q-22 107 -81.5 194.5t-148 139t-198.5 51.5h-559v25h1011v-410h-24z" />
    <glyph glyph-name="Ccedilla" unicode="&#xc7;" horiz-adv-x="1448" 
d="M824 -20q-233 0 -398 99.5t-253 273.5t-88 397t88 397t253 273.5t398 99.5q89 0 163.5 -30.5t134.5 -85.5l197 96h21v-454h-27q-51 129 -119 228.5t-155 155.5t-195 56q-103 0 -171.5 -63t-108 -168.5t-56.5 -236.5t-17 -268q0 -136 17 -267.5t56.5 -237t108 -168.5
t171.5 -63q99 0 175.5 34t134.5 94.5t102 140.5t78 171h27v-454h-23l-180 105q-64 -59 -147.5 -92t-186.5 -33zM658 -511v24q88 0 127 36t39 94q0 52 -24.5 78t-63 34.5t-81.5 8.5l172 232h31l-112 -152q104 -3 180 -20t117 -51.5t41 -90.5q0 -50 -38 -94.5t-131 -71.5
t-257 -27z" />
    <glyph glyph-name="Egrave" unicode="&#xc8;" horiz-adv-x="1303" 
d="M35 0v25h181v1450h-181v25h1185v-410h-24q-22 107 -82 194.5t-151.5 139t-208.5 51.5h-172v-1450h151q137 0 237 53.5t162 149t84 222.5h24v-450h-1205zM899 512q-22 67 -66 124.5t-99.5 92.5t-112.5 35h-106v24h106q57 0 112.5 32.5t99.5 87.5t66 122h25v-518h-25z
M787 1677l-281 68q-62 11 -97.5 52t-40.5 91.5t21 89.5q23 33 70 47.5t98.5 -1.5t84.5 -76l158 -254z" />
    <glyph glyph-name="Eacute" unicode="&#xc9;" horiz-adv-x="1303" 
d="M35 0v25h181v1450h-181v25h1185v-410h-24q-22 107 -82 194.5t-151.5 139t-208.5 51.5h-172v-1450h151q137 0 237 53.5t162 149t84 222.5h24v-450h-1205zM899 512q-22 67 -66 124.5t-99.5 92.5t-112.5 35h-106v24h106q57 0 112.5 32.5t99.5 87.5t66 122h25v-518h-25z
M583 1677l-12 17l157 254q34 60 85 76t98.5 1.5t70.5 -47.5q26 -39 20.5 -89.5t-40.5 -91.5t-97 -52z" />
    <glyph glyph-name="Ecircumflex" unicode="&#xca;" horiz-adv-x="1303" 
d="M35 0v25h181v1450h-181v25h1185v-410h-24q-22 107 -82 194.5t-151.5 139t-208.5 51.5h-172v-1450h151q137 0 237 53.5t162 149t84 222.5h24v-450h-1205zM899 512q-22 67 -66 124.5t-99.5 92.5t-112.5 35h-106v24h106q57 0 112.5 32.5t99.5 87.5t66 122h25v-518h-25z
M357 1704l-13 12l250 293h188l250 -293l-13 -12l-332 142z" />
    <glyph glyph-name="Edieresis" unicode="&#xcb;" horiz-adv-x="1303" 
d="M35 0v25h181v1450h-181v25h1185v-410h-24q-22 107 -82 194.5t-151.5 139t-208.5 51.5h-172v-1450h151q137 0 237 53.5t162 149t84 222.5h24v-450h-1205zM899 512q-22 67 -66 124.5t-99.5 92.5t-112.5 35h-106v24h106q57 0 112.5 32.5t99.5 87.5t66 122h25v-518h-25z
M886 1683q-51 0 -87.5 36.5t-36.5 87.5t36.5 87.5t87.5 36.5t87.5 -36.5t36.5 -87.5t-36.5 -87.5t-87.5 -36.5zM486 1683q-51 0 -87 36.5t-36 87.5t36 87.5t88 36.5q51 0 87.5 -36.5t36.5 -87.5t-36.5 -87.5t-88.5 -36.5z" />
    <glyph glyph-name="Igrave" unicode="&#xcc;" horiz-adv-x="896" 
d="M35 0v25h221v1450h-221v25h827v-25h-240v-1450h240v-25h-827zM538 1677l-281 68q-62 11 -97.5 52t-40.5 91.5t21 89.5q23 33 70 47.5t98.5 -1.5t84.5 -76l158 -254z" />
    <glyph glyph-name="Iacute" unicode="&#xcd;" horiz-adv-x="896" 
d="M35 0v25h221v1450h-221v25h827v-25h-240v-1450h240v-25h-827zM333 1677l-12 17l157 254q34 60 85 76t98.5 1.5t70.5 -47.5q26 -39 20.5 -89.5t-40.5 -91.5t-97 -52z" />
    <glyph glyph-name="Icircumflex" unicode="&#xce;" horiz-adv-x="896" 
d="M35 0v25h221v1450h-221v25h827v-25h-240v-1450h240v-25h-827zM107 1704l-13 12l250 293h188l250 -293l-13 -12l-332 142z" />
    <glyph glyph-name="Idieresis" unicode="&#xcf;" horiz-adv-x="896" 
d="M35 0v25h221v1450h-221v25h827v-25h-240v-1450h240v-25h-827zM637 1683q-51 0 -87.5 36.5t-36.5 87.5t36.5 87.5t87.5 36.5t87.5 -36.5t36.5 -87.5t-36.5 -87.5t-87.5 -36.5zM237 1683q-51 0 -87 36.5t-36 87.5t36 87.5t88 36.5q51 0 87.5 -36.5t36.5 -87.5t-36.5 -87.5
t-88.5 -36.5z" />
    <glyph glyph-name="Eth" unicode="&#xd0;" horiz-adv-x="1575" 
d="M54 738v24h758v-24h-758zM713 1500q245 0 419 -92.5t267 -261t93 -396.5q0 -171 -55.5 -309t-158 -236.5t-246 -151.5t-319.5 -53h-678v25h181v1450h-181v25h678zM582 25h131q105 0 176.5 55t114.5 154t62.5 231t19.5 285t-22 285t-67.5 231t-115.5 154t-168 55h-131
v-1450z" />
    <glyph glyph-name="Ntilde" unicode="&#xd1;" horiz-adv-x="1548" 
d="M263 1500v-1475h229v-25h-457v25h203v1450h-203v25h228zM1513 1500v-25h-210v-1495h-34l-1023 1520h434l597 -895v870h-224v25h460zM971 1651q-62 0 -108.5 23.5t-86.5 55t-83 55t-98 23.5q-54 0 -84.5 -31.5t-30.5 -76.5h-25q0 85 20.5 156t64.5 114t115 43
q65 0 110 -24t82.5 -55t75.5 -55t88 -24q57 0 86 31.5t29 76.5h25q0 -94 -11.5 -164.5t-49.5 -109t-119 -38.5z" />
    <glyph glyph-name="Ograve" unicode="&#xd2;" horiz-adv-x="1566" 
d="M784 -20q-163 0 -292.5 57.5t-220 162t-138.5 245t-48 305.5t50.5 305.5t143 245t221 162t284.5 57.5t284 -57.5t221 -162t143 -245t50 -305.5t-47.5 -305.5t-138 -245t-220 -162t-292.5 -57.5zM784 3q92 0 149.5 55t89 155t43 236.5t11.5 300.5t-14.5 300.5t-47.5 236.5
t-89.5 155t-141.5 55q-84 0 -141 -55t-90 -155t-47.5 -236.5t-14.5 -300.5t11.5 -300.5t42.5 -236.5t89 -155t150 -55zM885 1677l-281 68q-62 11 -97.5 52t-40.5 91.5t21 89.5q23 33 70 47.5t98.5 -1.5t84.5 -76l158 -254z" />
    <glyph glyph-name="Oacute" unicode="&#xd3;" horiz-adv-x="1566" 
d="M784 -20q-163 0 -292.5 57.5t-220 162t-138.5 245t-48 305.5t50.5 305.5t143 245t221 162t284.5 57.5t284 -57.5t221 -162t143 -245t50 -305.5t-47.5 -305.5t-138 -245t-220 -162t-292.5 -57.5zM784 3q92 0 149.5 55t89 155t43 236.5t11.5 300.5t-14.5 300.5t-47.5 236.5
t-89.5 155t-141.5 55q-84 0 -141 -55t-90 -155t-47.5 -236.5t-14.5 -300.5t11.5 -300.5t42.5 -236.5t89 -155t150 -55zM681 1677l-12 17l157 254q34 60 85 76t98.5 1.5t70.5 -47.5q26 -39 20.5 -89.5t-40.5 -91.5t-97 -52z" />
    <glyph glyph-name="Ocircumflex" unicode="&#xd4;" horiz-adv-x="1566" 
d="M784 -20q-163 0 -292.5 57.5t-220 162t-138.5 245t-48 305.5t50.5 305.5t143 245t221 162t284.5 57.5t284 -57.5t221 -162t143 -245t50 -305.5t-47.5 -305.5t-138 -245t-220 -162t-292.5 -57.5zM784 3q92 0 149.5 55t89 155t43 236.5t11.5 300.5t-14.5 300.5t-47.5 236.5
t-89.5 155t-141.5 55q-84 0 -141 -55t-90 -155t-47.5 -236.5t-14.5 -300.5t11.5 -300.5t42.5 -236.5t89 -155t150 -55zM455 1704l-13 12l250 293h188l250 -293l-13 -12l-332 142z" />
    <glyph glyph-name="Otilde" unicode="&#xd5;" horiz-adv-x="1566" 
d="M784 -20q-163 0 -292.5 57.5t-220 162t-138.5 245t-48 305.5t50.5 305.5t143 245t221 162t284.5 57.5t284 -57.5t221 -162t143 -245t50 -305.5t-47.5 -305.5t-138 -245t-220 -162t-292.5 -57.5zM784 3q92 0 149.5 55t89 155t43 236.5t11.5 300.5t-14.5 300.5t-47.5 236.5
t-89.5 155t-141.5 55q-84 0 -141 -55t-90 -155t-47.5 -236.5t-14.5 -300.5t11.5 -300.5t42.5 -236.5t89 -155t150 -55zM949 1651q-62 0 -108.5 23.5t-86.5 55t-83 55t-98 23.5q-54 0 -84.5 -31.5t-30.5 -76.5h-25q0 85 20.5 156t64.5 114t115 43q65 0 110 -24t82.5 -55
t75.5 -55t88 -24q57 0 86 31.5t29 76.5h25q0 -94 -11.5 -164.5t-49.5 -109t-119 -38.5z" />
    <glyph glyph-name="Odieresis" unicode="&#xd6;" horiz-adv-x="1566" 
d="M784 -20q-163 0 -292.5 57.5t-220 162t-138.5 245t-48 305.5t50.5 305.5t143 245t221 162t284.5 57.5t284 -57.5t221 -162t143 -245t50 -305.5t-47.5 -305.5t-138 -245t-220 -162t-292.5 -57.5zM784 3q92 0 149.5 55t89 155t43 236.5t11.5 300.5t-14.5 300.5t-47.5 236.5
t-89.5 155t-141.5 55q-84 0 -141 -55t-90 -155t-47.5 -236.5t-14.5 -300.5t11.5 -300.5t42.5 -236.5t89 -155t150 -55zM984 1683q-51 0 -87.5 36.5t-36.5 87.5t36.5 87.5t87.5 36.5t87.5 -36.5t36.5 -87.5t-36.5 -87.5t-87.5 -36.5zM584 1683q-51 0 -87 36.5t-36 87.5
t36 87.5t88 36.5q51 0 87.5 -36.5t36.5 -87.5t-36.5 -87.5t-88.5 -36.5z" />
    <glyph glyph-name="multiply" unicode="&#xd7;" horiz-adv-x="922" 
d="M309 472l-177 177l420 420l177 -177zM552 472l-419 420l177 177l419 -420z" />
    <glyph glyph-name="Oslash" unicode="&#xd8;" horiz-adv-x="1566" 
d="M344 -200l865 1861h25l-865 -1861h-25zM784 -20q-163 0 -292.5 57.5t-220 162t-138.5 245t-48 305.5t50.5 305.5t143 245t221 162t284.5 57.5t284 -57.5t221 -162t143 -245t50 -305.5t-47.5 -305.5t-138 -245t-220 -162t-292.5 -57.5zM784 3q92 0 149.5 55t89 155
t43 236.5t11.5 300.5t-14.5 300.5t-47.5 236.5t-89.5 155t-141.5 55q-84 0 -141 -55t-90 -155t-47.5 -236.5t-14.5 -300.5t11.5 -300.5t42.5 -236.5t89 -155t150 -55z" />
    <glyph glyph-name="Ugrave" unicode="&#xd9;" horiz-adv-x="1484" 
d="M1447 1500v-25h-192v-1015q0 -247 -117 -368t-365 -121q-292 0 -425 115t-133 374v1015h-181v25h747v-25h-200v-995q0 -99 10.5 -184t40.5 -148t87 -99t148 -36q106 0 188 45t128.5 143.5t46.5 258.5v1015h-183v25h400zM936 1677l-281 68q-62 11 -97.5 52t-40.5 91.5
t21 89.5q23 33 70 47.5t98.5 -1.5t84.5 -76l158 -254z" />
    <glyph glyph-name="Uacute" unicode="&#xda;" horiz-adv-x="1484" 
d="M1447 1500v-25h-192v-1015q0 -247 -117 -368t-365 -121q-292 0 -425 115t-133 374v1015h-181v25h747v-25h-200v-995q0 -99 10.5 -184t40.5 -148t87 -99t148 -36q106 0 188 45t128.5 143.5t46.5 258.5v1015h-183v25h400zM732 1677l-12 17l157 254q34 60 85 76t98.5 1.5
t70.5 -47.5q26 -39 20.5 -89.5t-40.5 -91.5t-97 -52z" />
    <glyph glyph-name="Ucircumflex" unicode="&#xdb;" horiz-adv-x="1484" 
d="M1447 1500v-25h-192v-1015q0 -247 -117 -368t-365 -121q-292 0 -425 115t-133 374v1015h-181v25h747v-25h-200v-995q0 -99 10.5 -184t40.5 -148t87 -99t148 -36q106 0 188 45t128.5 143.5t46.5 258.5v1015h-183v25h400zM506 1704l-13 12l250 293h188l250 -293l-13 -12
l-332 142z" />
    <glyph glyph-name="Udieresis" unicode="&#xdc;" horiz-adv-x="1484" 
d="M1447 1500v-25h-192v-1015q0 -247 -117 -368t-365 -121q-292 0 -425 115t-133 374v1015h-181v25h747v-25h-200v-995q0 -99 10.5 -184t40.5 -148t87 -99t148 -36q106 0 188 45t128.5 143.5t46.5 258.5v1015h-183v25h400zM1035 1683q-51 0 -87.5 36.5t-36.5 87.5t36.5 87.5
t87.5 36.5t87.5 -36.5t36.5 -87.5t-36.5 -87.5t-87.5 -36.5zM635 1683q-51 0 -87 36.5t-36 87.5t36 87.5t88 36.5q51 0 87.5 -36.5t36.5 -87.5t-36.5 -87.5t-88.5 -36.5z" />
    <glyph glyph-name="Yacute" unicode="&#xdd;" horiz-adv-x="1506" 
d="M410 0v25h179v695l-428 755h-137v25h755v-25h-194l360 -681l336 681h-218v25h418v-25h-170l-356 -716v-734h200v-25h-745zM727 1677l-12 17l157 254q34 60 85 76t98.5 1.5t70.5 -47.5q26 -39 20.5 -89.5t-40.5 -91.5t-97 -52z" />
    <glyph glyph-name="Thorn" unicode="&#xde;" horiz-adv-x="1399" 
d="M536 360v25h157q72 0 119 36t74 94.5t38 128t11 136.5t-11 136.5t-38 128t-74 94.5t-119 36h-157v25h260q270 0 402 -112.5t132 -307.5t-132 -307.5t-402 -112.5h-260zM28 0v25h728v-25h-728zM210 0v1500h366v-1500h-366zM28 1475v25h728v-25h-728z" />
    <glyph glyph-name="germandbls" unicode="&#xdf;" horiz-adv-x="1625" 
d="M210 0v982q0 141 57.5 242.5t155 167t217.5 97t245 31.5q113 0 220.5 -25.5t193.5 -72.5t137 -113t51 -147q0 -115 -72.5 -194t-212 -119.5t-340.5 -40.5v15q75 0 123 31.5t75 81t37.5 104.5t10.5 103q0 54 -11 115.5t-38 115.5t-73 88.5t-116 34.5q-94 0 -154 -43
t-92.5 -118t-44.5 -171t-12 -203v-962h-357zM29 0v25h673v-25h-673zM1070 -20q-184 0 -282 96t-98 261q0 84 55 140.5t135 56.5q73 0 127 -51t54 -127q0 -53 -27 -92.5t-69.5 -61.5t-90.5 -22q-41 0 -82.5 21t-70 57t-29.5 79h23q0 -111 42.5 -181.5t105.5 -104.5t124 -34
q59 0 95 28.5t54.5 75t25 99t6.5 100.5q0 71 -9 153.5t-39 156.5t-91.5 121.5t-166.5 47.5v15q181 0 310.5 -34.5t212 -96.5t122 -145t39.5 -181q0 -94 -41.5 -165t-110 -118t-153 -70.5t-171.5 -23.5z" />
    <glyph glyph-name="agrave" unicode="&#xe0;" horiz-adv-x="1213" 
d="M912 -20q-72 0 -128.5 19t-88 58.5t-31.5 100.5v451q0 72 -14.5 141t-55.5 114.5t-121 45.5q-43 0 -95 -10t-99 -32.5t-77.5 -59.5t-30.5 -91h-29q0 68 54 111t127 43q75 0 131 -38.5t56 -111.5q0 -76 -57 -117t-130 -41q-79 0 -131 42t-52 112q0 61 34 102.5t90.5 67.5
t125 37.5t136.5 11.5q160 0 262.5 -40.5t152 -114t49.5 -172.5v-492q0 -33 15.5 -55.5t53.5 -22.5q25 0 63.5 21t64.5 71l16 -12q-30 -69 -108.5 -104t-182.5 -35zM355 -20q-130 0 -207.5 66.5t-77.5 180.5q0 134 116.5 208.5t329.5 74.5h241v-22h-144q-70 0 -112.5 -36.5
t-61.5 -88.5t-19 -100q0 -46 10 -83.5t32.5 -59.5t58.5 -22q37 0 69.5 28t53 86.5t20.5 149.5h17q0 -119 -39.5 -205t-112 -131.5t-174.5 -45.5zM686 1097l-281 68q-62 11 -97.5 52t-40.5 91.5t21 89.5q23 33 70 47.5t98.5 -1.5t84.5 -76l158 -254z" />
    <glyph glyph-name="aacute" unicode="&#xe1;" horiz-adv-x="1213" 
d="M912 -20q-72 0 -128.5 19t-88 58.5t-31.5 100.5v451q0 72 -14.5 141t-55.5 114.5t-121 45.5q-43 0 -95 -10t-99 -32.5t-77.5 -59.5t-30.5 -91h-29q0 68 54 111t127 43q75 0 131 -38.5t56 -111.5q0 -76 -57 -117t-130 -41q-79 0 -131 42t-52 112q0 61 34 102.5t90.5 67.5
t125 37.5t136.5 11.5q160 0 262.5 -40.5t152 -114t49.5 -172.5v-492q0 -33 15.5 -55.5t53.5 -22.5q25 0 63.5 21t64.5 71l16 -12q-30 -69 -108.5 -104t-182.5 -35zM355 -20q-130 0 -207.5 66.5t-77.5 180.5q0 134 116.5 208.5t329.5 74.5h241v-22h-144q-70 0 -112.5 -36.5
t-61.5 -88.5t-19 -100q0 -46 10 -83.5t32.5 -59.5t58.5 -22q37 0 69.5 28t53 86.5t20.5 149.5h17q0 -119 -39.5 -205t-112 -131.5t-174.5 -45.5zM482 1097l-12 17l157 254q34 60 85 76t98.5 1.5t70.5 -47.5q26 -39 20.5 -89.5t-40.5 -91.5t-97 -52z" />
    <glyph glyph-name="acircumflex" unicode="&#xe2;" horiz-adv-x="1213" 
d="M912 -20q-72 0 -128.5 19t-88 58.5t-31.5 100.5v451q0 72 -14.5 141t-55.5 114.5t-121 45.5q-43 0 -95 -10t-99 -32.5t-77.5 -59.5t-30.5 -91h-29q0 68 54 111t127 43q75 0 131 -38.5t56 -111.5q0 -76 -57 -117t-130 -41q-79 0 -131 42t-52 112q0 61 34 102.5t90.5 67.5
t125 37.5t136.5 11.5q160 0 262.5 -40.5t152 -114t49.5 -172.5v-492q0 -33 15.5 -55.5t53.5 -22.5q25 0 63.5 21t64.5 71l16 -12q-30 -69 -108.5 -104t-182.5 -35zM355 -20q-130 0 -207.5 66.5t-77.5 180.5q0 134 116.5 208.5t329.5 74.5h241v-22h-144q-70 0 -112.5 -36.5
t-61.5 -88.5t-19 -100q0 -46 10 -83.5t32.5 -59.5t58.5 -22q37 0 69.5 28t53 86.5t20.5 149.5h17q0 -119 -39.5 -205t-112 -131.5t-174.5 -45.5zM256 1124l-13 12l250 293h188l250 -293l-13 -12l-332 142z" />
    <glyph glyph-name="atilde" unicode="&#xe3;" horiz-adv-x="1213" 
d="M912 -20q-72 0 -128.5 19t-88 58.5t-31.5 100.5v451q0 72 -14.5 141t-55.5 114.5t-121 45.5q-43 0 -95 -10t-99 -32.5t-77.5 -59.5t-30.5 -91h-29q0 68 54 111t127 43q75 0 131 -38.5t56 -111.5q0 -76 -57 -117t-130 -41q-79 0 -131 42t-52 112q0 61 34 102.5t90.5 67.5
t125 37.5t136.5 11.5q160 0 262.5 -40.5t152 -114t49.5 -172.5v-492q0 -33 15.5 -55.5t53.5 -22.5q25 0 63.5 21t64.5 71l16 -12q-30 -69 -108.5 -104t-182.5 -35zM355 -20q-130 0 -207.5 66.5t-77.5 180.5q0 134 116.5 208.5t329.5 74.5h241v-22h-144q-70 0 -112.5 -36.5
t-61.5 -88.5t-19 -100q0 -46 10 -83.5t32.5 -59.5t58.5 -22q37 0 69.5 28t53 86.5t20.5 149.5h17q0 -119 -39.5 -205t-112 -131.5t-174.5 -45.5zM750 1071q-62 0 -108.5 23.5t-86.5 55t-83 55t-98 23.5q-54 0 -84.5 -31.5t-30.5 -76.5h-25q0 85 20.5 156t64.5 114t115 43
q65 0 110 -24t82.5 -55t75.5 -55t88 -24q57 0 86 31.5t29 76.5h25q0 -94 -11.5 -164.5t-49.5 -109t-119 -38.5z" />
    <glyph glyph-name="adieresis" unicode="&#xe4;" horiz-adv-x="1213" 
d="M912 -20q-72 0 -128.5 19t-88 58.5t-31.5 100.5v451q0 72 -14.5 141t-55.5 114.5t-121 45.5q-43 0 -95 -10t-99 -32.5t-77.5 -59.5t-30.5 -91h-29q0 68 54 111t127 43q75 0 131 -38.5t56 -111.5q0 -76 -57 -117t-130 -41q-79 0 -131 42t-52 112q0 61 34 102.5t90.5 67.5
t125 37.5t136.5 11.5q160 0 262.5 -40.5t152 -114t49.5 -172.5v-492q0 -33 15.5 -55.5t53.5 -22.5q25 0 63.5 21t64.5 71l16 -12q-30 -69 -108.5 -104t-182.5 -35zM355 -20q-130 0 -207.5 66.5t-77.5 180.5q0 134 116.5 208.5t329.5 74.5h241v-22h-144q-70 0 -112.5 -36.5
t-61.5 -88.5t-19 -100q0 -46 10 -83.5t32.5 -59.5t58.5 -22q37 0 69.5 28t53 86.5t20.5 149.5h17q0 -119 -39.5 -205t-112 -131.5t-174.5 -45.5zM785 1103q-51 0 -87.5 36.5t-36.5 87.5t36.5 87.5t87.5 36.5t87.5 -36.5t36.5 -87.5t-36.5 -87.5t-87.5 -36.5zM385 1103
q-51 0 -87 36.5t-36 87.5t36 87.5t88 36.5q51 0 87.5 -36.5t36.5 -87.5t-36.5 -87.5t-88.5 -36.5z" />
    <glyph glyph-name="aring" unicode="&#xe5;" horiz-adv-x="1213" 
d="M912 -20q-72 0 -128.5 19t-88 58.5t-31.5 100.5v451q0 72 -14.5 141t-55.5 114.5t-121 45.5q-43 0 -95 -10t-99 -32.5t-77.5 -59.5t-30.5 -91h-29q0 68 54 111t127 43q75 0 131 -38.5t56 -111.5q0 -76 -57 -117t-130 -41q-79 0 -131 42t-52 112q0 61 34 102.5t90.5 67.5
t125 37.5t136.5 11.5q160 0 262.5 -40.5t152 -114t49.5 -172.5v-492q0 -33 15.5 -55.5t53.5 -22.5q25 0 63.5 21t64.5 71l16 -12q-30 -69 -108.5 -104t-182.5 -35zM355 -20q-130 0 -207.5 66.5t-77.5 180.5q0 134 116.5 208.5t329.5 74.5h241v-22h-144q-70 0 -112.5 -36.5
t-61.5 -88.5t-19 -100q0 -46 10 -83.5t32.5 -59.5t58.5 -22q37 0 69.5 28t53 86.5t20.5 149.5h17q0 -119 -39.5 -205t-112 -131.5t-174.5 -45.5zM586 1100q-98 0 -153.5 52t-55.5 128q0 77 55.5 128.5t153.5 51.5q99 0 154 -51.5t55 -128.5q0 -76 -55 -128t-154 -52z
M586 1125q23 0 37.5 17.5t21 52t6.5 85.5t-6.5 85.5t-21 52t-37.5 17.5t-37.5 -17.5t-21 -52t-6.5 -85.5t6.5 -85.5t21 -52t37.5 -17.5z" />
    <glyph glyph-name="ae" unicode="&#xe6;" horiz-adv-x="1755" 
d="M433 -20q-59 0 -122 12.5t-117 40.5t-87 76t-33 118q0 84 53.5 148t154.5 100t243 36h139v98q0 50 -8.5 103t-29 97.5t-58 72t-96.5 27.5q-34 0 -75.5 -6.5t-81 -21.5t-70 -40.5t-43.5 -63.5q16 39 55 62.5t79 26.5q72 0 121.5 -42t49.5 -103q0 -76 -60 -117t-131 -41
q-73 0 -124.5 42t-51.5 112q0 81 57.5 129t146.5 69t184 21q105 0 180 -25t123 -68t74 -96l-26 -6q53 99 146.5 150t213.5 51q148 0 248 -60.5t150 -157t50 -205.5h-585q-1 -9 -1 -18v-19q0 -98 9 -182.5t31.5 -147.5t63.5 -98.5t106 -35.5q129 0 223.5 75t131.5 191h25
q-39 -129 -148 -215.5t-297 -86.5q-129 0 -228 58.5t-151 171.5l28 -2q-41 -80 -116.5 -131t-166.5 -75t-179 -24zM531 21q37 0 67 37.5t48 113t18 189.5v128h-58q-65 0 -105.5 -37t-59 -94.5t-18.5 -120.5q0 -105 28.5 -160.5t79.5 -55.5zM1103 544h248q-1 67 -4 133
t-14 120.5t-33 87t-61 32.5q-49 0 -78 -50.5t-42.5 -135.5t-15.5 -187z" />
    <glyph glyph-name="ccedilla" unicode="&#xe7;" horiz-adv-x="1067" 
d="M567 -20q-139 0 -252.5 50t-181 156t-67.5 274q0 148 59 255.5t171 165.5t270 58q124 0 218.5 -37t148 -99t53.5 -139q0 -81 -54 -128.5t-128 -47.5q-43 0 -86.5 19t-72 58t-28.5 97q0 80 57 125t130 45q71 0 125.5 -44t54.5 -124h-24q0 54 -29.5 98.5t-77 76.5
t-102.5 49.5t-105 17.5q-65 0 -104 -42.5t-58 -110t-25 -145t-6 -148.5q0 -86 9 -163.5t32 -138t63.5 -95t103.5 -34.5q77 0 135 32t99 89t64 133h26q-39 -138 -139 -220.5t-279 -82.5zM367 -506v24q88 0 127 36t39 94q0 52 -24.5 78t-63 34.5t-81.5 8.5l172 232h31
l-112 -152q104 -3 180 -20t117 -51.5t41 -90.5q0 -50 -38 -94.5t-131 -71.5t-257 -27z" />
    <glyph glyph-name="egrave" unicode="&#xe8;" horiz-adv-x="1073" 
d="M566 -20q-145 0 -258 54.5t-178 161.5t-65 264t63 264t174.5 161.5t256.5 54.5q149 0 248 -60.5t149.5 -157t50.5 -205.5h-808v25h471q0 67 -3 132.5t-14 120.5t-33 87.5t-61 32.5q-41 0 -67.5 -34t-42 -93t-21.5 -136t-6 -163q0 -102 8.5 -188.5t31 -150t63.5 -99
t106 -35.5q130 0 223.5 75t130.5 191h26q-39 -129 -147.5 -215.5t-297.5 -86.5zM661 1097l-281 68q-62 11 -97.5 52t-40.5 91.5t21 89.5q23 33 70 47.5t98.5 -1.5t84.5 -76l158 -254z" />
    <glyph glyph-name="eacute" unicode="&#xe9;" horiz-adv-x="1073" 
d="M566 -20q-145 0 -258 54.5t-178 161.5t-65 264t63 264t174.5 161.5t256.5 54.5q149 0 248 -60.5t149.5 -157t50.5 -205.5h-808v25h471q0 67 -3 132.5t-14 120.5t-33 87.5t-61 32.5q-41 0 -67.5 -34t-42 -93t-21.5 -136t-6 -163q0 -102 8.5 -188.5t31 -150t63.5 -99
t106 -35.5q130 0 223.5 75t130.5 191h26q-39 -129 -147.5 -215.5t-297.5 -86.5zM457 1097l-12 17l157 254q34 60 85 76t98.5 1.5t70.5 -47.5q26 -39 20.5 -89.5t-40.5 -91.5t-97 -52z" />
    <glyph glyph-name="ecircumflex" unicode="&#xea;" horiz-adv-x="1073" 
d="M566 -20q-145 0 -258 54.5t-178 161.5t-65 264t63 264t174.5 161.5t256.5 54.5q149 0 248 -60.5t149.5 -157t50.5 -205.5h-808v25h471q0 67 -3 132.5t-14 120.5t-33 87.5t-61 32.5q-41 0 -67.5 -34t-42 -93t-21.5 -136t-6 -163q0 -102 8.5 -188.5t31 -150t63.5 -99
t106 -35.5q130 0 223.5 75t130.5 191h26q-39 -129 -147.5 -215.5t-297.5 -86.5zM231 1124l-13 12l250 293h188l250 -293l-13 -12l-332 142z" />
    <glyph glyph-name="edieresis" unicode="&#xeb;" horiz-adv-x="1073" 
d="M566 -20q-145 0 -258 54.5t-178 161.5t-65 264t63 264t174.5 161.5t256.5 54.5q149 0 248 -60.5t149.5 -157t50.5 -205.5h-808v25h471q0 67 -3 132.5t-14 120.5t-33 87.5t-61 32.5q-41 0 -67.5 -34t-42 -93t-21.5 -136t-6 -163q0 -102 8.5 -188.5t31 -150t63.5 -99
t106 -35.5q130 0 223.5 75t130.5 191h26q-39 -129 -147.5 -215.5t-297.5 -86.5zM760 1103q-51 0 -87.5 36.5t-36.5 87.5t36.5 87.5t87.5 36.5t87.5 -36.5t36.5 -87.5t-36.5 -87.5t-87.5 -36.5zM360 1103q-51 0 -87 36.5t-36 87.5t36 87.5t88 36.5q51 0 87.5 -36.5
t36.5 -87.5t-36.5 -87.5t-88.5 -36.5z" />
    <glyph glyph-name="igrave" unicode="&#xec;" horiz-adv-x="673" 
d="M508 920v-895h136v-25h-599v25h137v870h-137v25h463zM445 1097l-281 68q-62 11 -97.5 52t-40.5 91.5t21 89.5q23 33 70 47.5t98.5 -1.5t84.5 -76l158 -254z" />
    <glyph glyph-name="iacute" unicode="&#xed;" horiz-adv-x="673" 
d="M508 920v-895h136v-25h-599v25h137v870h-137v25h463zM241 1097l-12 17l157 254q34 60 85 76t98.5 1.5t70.5 -47.5q26 -39 20.5 -89.5t-40.5 -91.5t-97 -52z" />
    <glyph glyph-name="icircumflex" unicode="&#xee;" horiz-adv-x="673" 
d="M508 920v-895h136v-25h-599v25h137v870h-137v25h463zM15 1124l-13 12l250 293h188l250 -293l-13 -12l-332 142z" />
    <glyph glyph-name="idieresis" unicode="&#xef;" horiz-adv-x="673" 
d="M508 920v-895h136v-25h-599v25h137v870h-137v25h463zM544 1103q-51 0 -87.5 36.5t-36.5 87.5t36.5 87.5t87.5 36.5t87.5 -36.5t36.5 -87.5t-36.5 -87.5t-87.5 -36.5zM144 1103q-51 0 -87 36.5t-36 87.5t36 87.5t88 36.5q51 0 87.5 -36.5t36.5 -87.5t-36.5 -87.5
t-88.5 -36.5z" />
    <glyph glyph-name="eth" unicode="&#xf0;" horiz-adv-x="1265" 
d="M605 -20q-165 0 -287.5 67.5t-190 185t-67.5 267.5q0 128 42 220t112.5 151t155.5 87.5t172 28.5q102 0 157 -54.5t77 -151t22 -221.5h-22q0 140 -21.5 223t-60 119.5t-89.5 36.5q-39 0 -68 -21t-48.5 -70.5t-29 -134.5t-9.5 -213q0 -113 5.5 -204.5t20.5 -156.5
t44.5 -99.5t78.5 -34.5t83 38.5t55 111t30 175t9 230.5l1 139q0 103 -24 214t-71 215t-116 187t-158.5 132.5t-197.5 49.5v23q204 0 378.5 -67.5t304 -189t201.5 -286t72 -357.5q0 -210 -71 -352.5t-197.5 -215t-292.5 -72.5zM279 1235v25h913v-25h-913z" />
    <glyph glyph-name="ntilde" unicode="&#xf1;" horiz-adv-x="1278" 
d="M497 920v-895h93v-25h-555v25h137v870h-137v25h462zM1107 639v-614h137v-25h-555v25h93v603q0 84 -7 131.5t-25 67t-54 19.5q-51 0 -88.5 -36t-62 -95t-36.5 -129.5t-12 -139.5l-20 -2q0 75 14 160.5t50.5 162t104.5 125t176 48.5q111 0 173 -39t87 -107t25 -155z
M809 1071q-62 0 -108.5 23.5t-86.5 55t-83 55t-98 23.5q-54 0 -84.5 -31.5t-30.5 -76.5h-25q0 85 20.5 156t64.5 114t115 43q65 0 110 -24t82.5 -55t75.5 -55t88 -24q57 0 86 31.5t29 76.5h25q0 -94 -11.5 -164.5t-49.5 -109t-119 -38.5z" />
    <glyph glyph-name="ograve" unicode="&#xf2;" horiz-adv-x="1134" 
d="M568 -20q-156 0 -268.5 66t-173.5 175t-61 239t61 239t173.5 175t268.5 66q155 0 267.5 -66t173 -175t60.5 -239t-60.5 -239t-173 -175t-267.5 -66zM568 5q42 0 73 34t50 95.5t28.5 144.5t9.5 181t-9.5 181t-28.5 144.5t-50 95.5t-73 34q-43 0 -74 -34t-50 -95.5
t-28 -144.5t-9 -181t9 -181t28 -144.5t50 -95.5t74 -34zM668 1097l-281 68q-62 11 -97.5 52t-40.5 91.5t21 89.5q23 33 70 47.5t98.5 -1.5t84.5 -76l158 -254z" />
    <glyph glyph-name="oacute" unicode="&#xf3;" horiz-adv-x="1134" 
d="M568 -20q-156 0 -268.5 66t-173.5 175t-61 239t61 239t173.5 175t268.5 66q155 0 267.5 -66t173 -175t60.5 -239t-60.5 -239t-173 -175t-267.5 -66zM568 5q42 0 73 34t50 95.5t28.5 144.5t9.5 181t-9.5 181t-28.5 144.5t-50 95.5t-73 34q-43 0 -74 -34t-50 -95.5
t-28 -144.5t-9 -181t9 -181t28 -144.5t50 -95.5t74 -34zM464 1097l-12 17l157 254q34 60 85 76t98.5 1.5t70.5 -47.5q26 -39 20.5 -89.5t-40.5 -91.5t-97 -52z" />
    <glyph glyph-name="ocircumflex" unicode="&#xf4;" horiz-adv-x="1134" 
d="M568 -20q-156 0 -268.5 66t-173.5 175t-61 239t61 239t173.5 175t268.5 66q155 0 267.5 -66t173 -175t60.5 -239t-60.5 -239t-173 -175t-267.5 -66zM568 5q42 0 73 34t50 95.5t28.5 144.5t9.5 181t-9.5 181t-28.5 144.5t-50 95.5t-73 34q-43 0 -74 -34t-50 -95.5
t-28 -144.5t-9 -181t9 -181t28 -144.5t50 -95.5t74 -34zM237 1124l-13 12l250 293h188l250 -293l-13 -12l-332 142z" />
    <glyph glyph-name="otilde" unicode="&#xf5;" horiz-adv-x="1134" 
d="M568 -20q-156 0 -268.5 66t-173.5 175t-61 239t61 239t173.5 175t268.5 66q155 0 267.5 -66t173 -175t60.5 -239t-60.5 -239t-173 -175t-267.5 -66zM568 5q42 0 73 34t50 95.5t28.5 144.5t9.5 181t-9.5 181t-28.5 144.5t-50 95.5t-73 34q-43 0 -74 -34t-50 -95.5
t-28 -144.5t-9 -181t9 -181t28 -144.5t50 -95.5t74 -34zM732 1071q-62 0 -108.5 23.5t-86.5 55t-83 55t-98 23.5q-54 0 -84.5 -31.5t-30.5 -76.5h-25q0 85 20.5 156t64.5 114t115 43q65 0 110 -24t82.5 -55t75.5 -55t88 -24q57 0 86 31.5t29 76.5h25q0 -94 -11.5 -164.5
t-49.5 -109t-119 -38.5z" />
    <glyph glyph-name="odieresis" unicode="&#xf6;" horiz-adv-x="1134" 
d="M568 -20q-156 0 -268.5 66t-173.5 175t-61 239t61 239t173.5 175t268.5 66q155 0 267.5 -66t173 -175t60.5 -239t-60.5 -239t-173 -175t-267.5 -66zM568 5q42 0 73 34t50 95.5t28.5 144.5t9.5 181t-9.5 181t-28.5 144.5t-50 95.5t-73 34q-43 0 -74 -34t-50 -95.5
t-28 -144.5t-9 -181t9 -181t28 -144.5t50 -95.5t74 -34zM767 1103q-51 0 -87.5 36.5t-36.5 87.5t36.5 87.5t87.5 36.5t87.5 -36.5t36.5 -87.5t-36.5 -87.5t-87.5 -36.5zM367 1103q-51 0 -87 36.5t-36 87.5t36 87.5t88 36.5q51 0 87.5 -36.5t36.5 -87.5t-36.5 -87.5
t-88.5 -36.5z" />
    <glyph glyph-name="divide" unicode="&#xf7;" horiz-adv-x="1119" 
d="M561 946q-67 0 -116.5 48.5t-49.5 115.5q0 68 49.5 116t116.5 48q69 0 116 -48t47 -116q0 -67 -47 -115.5t-116 -48.5zM100 758v24h920v-24h-920zM561 236q-67 0 -116.5 48.5t-49.5 115.5q0 68 49.5 116t116.5 48q69 0 116 -48t47 -116q0 -67 -47 -115.5t-116 -48.5z" />
    <glyph glyph-name="oslash" unicode="&#xf8;" horiz-adv-x="1134" 
d="M118 -246l865 1404h25l-865 -1404h-25zM568 -20q-156 0 -268.5 66t-173.5 175t-61 239t61 239t173.5 175t268.5 66q155 0 267.5 -66t173 -175t60.5 -239t-60.5 -239t-173 -175t-267.5 -66zM568 5q42 0 73 34t50 95.5t28.5 144.5t9.5 181t-9.5 181t-28.5 144.5t-50 95.5
t-73 34q-43 0 -74 -34t-50 -95.5t-28 -144.5t-9 -181t9 -181t28 -144.5t50 -95.5t74 -34z" />
    <glyph glyph-name="ugrave" unicode="&#xf9;" horiz-adv-x="1279" 
d="M458 -20q-111 0 -173 39.5t-87.5 107.5t-25.5 155v613h-137v25h463v-628q0 -84 7 -131.5t25 -67t54 -19.5q51 0 88.5 36t61.5 95t36 129.5t12 139.5l20 2q0 -75 -13.5 -160.5t-50 -162t-104 -125t-176.5 -48.5zM782 0v895h-126v25h452v-895h136v-25h-462zM703 1097
l-281 68q-62 11 -97.5 52t-40.5 91.5t21 89.5q23 33 70 47.5t98.5 -1.5t84.5 -76l158 -254z" />
    <glyph glyph-name="uacute" unicode="&#xfa;" horiz-adv-x="1279" 
d="M458 -20q-111 0 -173 39.5t-87.5 107.5t-25.5 155v613h-137v25h463v-628q0 -84 7 -131.5t25 -67t54 -19.5q51 0 88.5 36t61.5 95t36 129.5t12 139.5l20 2q0 -75 -13.5 -160.5t-50 -162t-104 -125t-176.5 -48.5zM782 0v895h-126v25h452v-895h136v-25h-462zM499 1097
l-12 17l157 254q34 60 85 76t98.5 1.5t70.5 -47.5q26 -39 20.5 -89.5t-40.5 -91.5t-97 -52z" />
    <glyph glyph-name="ucircumflex" unicode="&#xfb;" horiz-adv-x="1279" 
d="M458 -20q-111 0 -173 39.5t-87.5 107.5t-25.5 155v613h-137v25h463v-628q0 -84 7 -131.5t25 -67t54 -19.5q51 0 88.5 36t61.5 95t36 129.5t12 139.5l20 2q0 -75 -13.5 -160.5t-50 -162t-104 -125t-176.5 -48.5zM782 0v895h-126v25h452v-895h136v-25h-462zM272 1124
l-13 12l250 293h188l250 -293l-13 -12l-332 142z" />
    <glyph glyph-name="udieresis" unicode="&#xfc;" horiz-adv-x="1279" 
d="M458 -20q-111 0 -173 39.5t-87.5 107.5t-25.5 155v613h-137v25h463v-628q0 -84 7 -131.5t25 -67t54 -19.5q51 0 88.5 36t61.5 95t36 129.5t12 139.5l20 2q0 -75 -13.5 -160.5t-50 -162t-104 -125t-176.5 -48.5zM782 0v895h-126v25h452v-895h136v-25h-462zM802 1103
q-51 0 -87.5 36.5t-36.5 87.5t36.5 87.5t87.5 36.5t87.5 -36.5t36.5 -87.5t-36.5 -87.5t-87.5 -36.5zM402 1103q-51 0 -87 36.5t-36 87.5t36 87.5t88 36.5q51 0 87.5 -36.5t36.5 -87.5t-36.5 -87.5t-88.5 -36.5z" />
    <glyph glyph-name="yacute" unicode="&#xfd;" horiz-adv-x="1253" 
d="M521 895l298 -577l-187 -369l-508 946h-137v25h738v-25h-204zM1273 920v-25h-163l-613 -1264q-31 -63 -78.5 -106t-122.5 -43q-44 0 -84.5 19.5t-67 57.5t-26.5 94q0 52 25 92.5t67 63.5t92 23q47 0 88 -25.5t64.5 -70t16.5 -100.5l609 1259h-201v25h394zM568 1097
l-12 17l157 254q34 60 85 76t98.5 1.5t70.5 -47.5q26 -39 20.5 -89.5t-40.5 -91.5t-97 -52z" />
    <glyph glyph-name="thorn" unicode="&#xfe;" horiz-adv-x="1299" 
d="M34 -500v25h140v1950h-140v25h467v-888q25 156 105 241t207 85q109 0 205.5 -57t157 -164t60.5 -257t-60.5 -257.5t-157 -165t-205.5 -57.5q-127 0 -207 86t-105 243v-784h139v-25h-606zM734 31q46 0 75 46.5t43 141t14 241.5t-14 241t-43 139.5t-75 45.5
q-55 0 -108.5 -47t-89 -141.5t-35.5 -237.5t35.5 -238.5t89 -143t108.5 -47.5z" />
    <glyph glyph-name="ydieresis" unicode="&#xff;" horiz-adv-x="1253" 
d="M521 895l298 -577l-187 -369l-508 946h-137v25h738v-25h-204zM1273 920v-25h-163l-613 -1264q-31 -63 -78.5 -106t-122.5 -43q-44 0 -84.5 19.5t-67 57.5t-26.5 94q0 52 25 92.5t67 63.5t92 23q47 0 88 -25.5t64.5 -70t16.5 -100.5l609 1259h-201v25h394zM871 1103
q-51 0 -87.5 36.5t-36.5 87.5t36.5 87.5t87.5 36.5t87.5 -36.5t36.5 -87.5t-36.5 -87.5t-87.5 -36.5zM471 1103q-51 0 -87 36.5t-36 87.5t36 87.5t88 36.5q51 0 87.5 -36.5t36.5 -87.5t-36.5 -87.5t-88.5 -36.5z" />
    <glyph glyph-name="Amacron" unicode="&#x100;" horiz-adv-x="1620" 
d="M398 474v24h574v-24h-574zM915 1529l522 -1504h148v-25h-733v25h160l-364 1125l-396 -1125h224v-25h-441v25h188l532 1504h160zM585 1700v25h480v-25h-480z" />
    <glyph glyph-name="amacron" unicode="&#x101;" horiz-adv-x="1213" 
d="M912 -20q-72 0 -128.5 19t-88 58.5t-31.5 100.5v451q0 72 -14.5 141t-55.5 114.5t-121 45.5q-43 0 -95 -10t-99 -32.5t-77.5 -59.5t-30.5 -91h-29q0 68 54 111t127 43q75 0 131 -38.5t56 -111.5q0 -76 -57 -117t-130 -41q-79 0 -131 42t-52 112q0 61 34 102.5t90.5 67.5
t125 37.5t136.5 11.5q160 0 262.5 -40.5t152 -114t49.5 -172.5v-492q0 -33 15.5 -55.5t53.5 -22.5q25 0 63.5 21t64.5 71l16 -12q-30 -69 -108.5 -104t-182.5 -35zM355 -20q-130 0 -207.5 66.5t-77.5 180.5q0 134 116.5 208.5t329.5 74.5h241v-22h-144q-70 0 -112.5 -36.5
t-61.5 -88.5t-19 -100q0 -46 10 -83.5t32.5 -59.5t58.5 -22q37 0 69.5 28t53 86.5t20.5 149.5h17q0 -119 -39.5 -205t-112 -131.5t-174.5 -45.5zM346 1120v25h480v-25h-480z" />
    <glyph glyph-name="Abreve" unicode="&#x102;" horiz-adv-x="1620" 
d="M398 474v24h574v-24h-574zM915 1529l522 -1504h148v-25h-733v25h160l-364 1125l-396 -1125h224v-25h-441v25h188l532 1504h160zM825 1680q-83 0 -138.5 39.5t-83 117t-27.5 189.5h22q0 -46 34 -72t86.5 -36.5t106.5 -10.5t106.5 10.5t86.5 36.5t34 72h22
q0 -112 -27.5 -189.5t-83 -117t-138.5 -39.5z" />
    <glyph glyph-name="abreve" unicode="&#x103;" horiz-adv-x="1213" 
d="M912 -20q-72 0 -128.5 19t-88 58.5t-31.5 100.5v451q0 72 -14.5 141t-55.5 114.5t-121 45.5q-43 0 -95 -10t-99 -32.5t-77.5 -59.5t-30.5 -91h-29q0 68 54 111t127 43q75 0 131 -38.5t56 -111.5q0 -76 -57 -117t-130 -41q-79 0 -131 42t-52 112q0 61 34 102.5t90.5 67.5
t125 37.5t136.5 11.5q160 0 262.5 -40.5t152 -114t49.5 -172.5v-492q0 -33 15.5 -55.5t53.5 -22.5q25 0 63.5 21t64.5 71l16 -12q-30 -69 -108.5 -104t-182.5 -35zM355 -20q-130 0 -207.5 66.5t-77.5 180.5q0 134 116.5 208.5t329.5 74.5h241v-22h-144q-70 0 -112.5 -36.5
t-61.5 -88.5t-19 -100q0 -46 10 -83.5t32.5 -59.5t58.5 -22q37 0 69.5 28t53 86.5t20.5 149.5h17q0 -119 -39.5 -205t-112 -131.5t-174.5 -45.5zM586 1100q-83 0 -138.5 39.5t-83 117t-27.5 189.5h22q0 -46 34 -72t86.5 -36.5t106.5 -10.5t106.5 10.5t86.5 36.5t34 72h22
q0 -112 -27.5 -189.5t-83 -117t-138.5 -39.5z" />
    <glyph glyph-name="Aogonek" unicode="&#x104;" horiz-adv-x="1620" 
d="M398 474v24h574v-24h-574zM915 1529l522 -1504h148v-25h-733v25h160l-364 1125l-396 -1125h224v-25h-441v25h188l532 1504h160zM1146 -460q-72 0 -131 18t-93.5 56t-34.5 98t35 111t91.5 92.5t123 71.5t128.5 47l7 -17q-15 -10 -34.5 -42.5t-33.5 -84t-14 -118.5
q0 -82 27.5 -123.5t66.5 -41.5q36 0 59 25.5t44 63.5l19 -10q-15 -28 -40 -62t-76 -59t-144 -25z" />
    <glyph glyph-name="aogonek" unicode="&#x105;" horiz-adv-x="1213" 
d="M912 -20q-72 0 -128.5 19t-88 58.5t-31.5 100.5v451q0 72 -14.5 141t-55.5 114.5t-121 45.5q-43 0 -95 -10t-99 -32.5t-77.5 -59.5t-30.5 -91h-29q0 68 54 111t127 43q75 0 131 -38.5t56 -111.5q0 -76 -57 -117t-130 -41q-79 0 -131 42t-52 112q0 61 34 102.5t90.5 67.5
t125 37.5t136.5 11.5q160 0 262.5 -40.5t152 -114t49.5 -172.5v-492q0 -33 15.5 -55.5t53.5 -22.5q25 0 63.5 21t64.5 71l16 -12q-30 -69 -108.5 -104t-182.5 -35zM355 -20q-130 0 -207.5 66.5t-77.5 180.5q0 134 116.5 208.5t329.5 74.5h241v-22h-144q-70 0 -112.5 -36.5
t-61.5 -88.5t-19 -100q0 -46 10 -83.5t32.5 -59.5t58.5 -22q37 0 69.5 28t53 86.5t20.5 149.5h17q0 -119 -39.5 -205t-112 -131.5t-174.5 -45.5zM966 -460q-72 0 -131 18t-93.5 56t-34.5 98t35 111t91.5 92.5t123 71.5t128.5 47l7 -17q-15 -10 -34.5 -42.5t-33.5 -84
t-14 -118.5q0 -82 27.5 -123.5t66.5 -41.5q36 0 59 25.5t44 63.5l19 -10q-15 -28 -40 -62t-76 -59t-144 -25z" />
    <glyph glyph-name="Cacute" unicode="&#x106;" horiz-adv-x="1448" 
d="M824 -20q-233 0 -398 99.5t-253 273.5t-88 397t88 397t253 273.5t398 99.5q89 0 163.5 -30.5t134.5 -85.5l197 96h21v-454h-27q-51 129 -119 228.5t-155 155.5t-195 56q-103 0 -171.5 -63t-108 -168.5t-56.5 -236.5t-17 -268q0 -136 17 -267.5t56.5 -237t108 -168.5
t171.5 -63q99 0 175.5 34t134.5 94.5t102 140.5t78 171h27v-454h-23l-180 105q-64 -59 -147.5 -92t-186.5 -33zM721 1677l-12 17l157 254q34 60 85 76t98.5 1.5t70.5 -47.5q26 -39 20.5 -89.5t-40.5 -91.5t-97 -52z" />
    <glyph glyph-name="cacute" unicode="&#x107;" horiz-adv-x="1067" 
d="M567 -20q-139 0 -252.5 50t-181 156t-67.5 274q0 148 59 255.5t171 165.5t270 58q124 0 218.5 -37t148 -99t53.5 -139q0 -81 -54 -128.5t-128 -47.5q-43 0 -86.5 19t-72 58t-28.5 97q0 80 57 125t130 45q71 0 125.5 -44t54.5 -124h-24q0 54 -29.5 98.5t-77 76.5
t-102.5 49.5t-105 17.5q-65 0 -104 -42.5t-58 -110t-25 -145t-6 -148.5q0 -86 9 -163.5t32 -138t63.5 -95t103.5 -34.5q77 0 135 32t99 89t64 133h26q-39 -138 -139 -220.5t-279 -82.5zM465 1097l-12 17l157 254q34 60 85 76t98.5 1.5t70.5 -47.5q26 -39 20.5 -89.5
t-40.5 -91.5t-97 -52z" />
    <glyph glyph-name="Ccircumflex" unicode="&#x108;" horiz-adv-x="1448" 
d="M824 -20q-233 0 -398 99.5t-253 273.5t-88 397t88 397t253 273.5t398 99.5q89 0 163.5 -30.5t134.5 -85.5l197 96h21v-454h-27q-51 129 -119 228.5t-155 155.5t-195 56q-103 0 -171.5 -63t-108 -168.5t-56.5 -236.5t-17 -268q0 -136 17 -267.5t56.5 -237t108 -168.5
t171.5 -63q99 0 175.5 34t134.5 94.5t102 140.5t78 171h27v-454h-23l-180 105q-64 -59 -147.5 -92t-186.5 -33zM494 1704l-13 12l250 293h188l250 -293l-13 -12l-332 142z" />
    <glyph glyph-name="ccircumflex" unicode="&#x109;" horiz-adv-x="1067" 
d="M567 -20q-139 0 -252.5 50t-181 156t-67.5 274q0 148 59 255.5t171 165.5t270 58q124 0 218.5 -37t148 -99t53.5 -139q0 -81 -54 -128.5t-128 -47.5q-43 0 -86.5 19t-72 58t-28.5 97q0 80 57 125t130 45q71 0 125.5 -44t54.5 -124h-24q0 54 -29.5 98.5t-77 76.5
t-102.5 49.5t-105 17.5q-65 0 -104 -42.5t-58 -110t-25 -145t-6 -148.5q0 -86 9 -163.5t32 -138t63.5 -95t103.5 -34.5q77 0 135 32t99 89t64 133h26q-39 -138 -139 -220.5t-279 -82.5zM238 1124l-13 12l250 293h188l250 -293l-13 -12l-332 142z" />
    <glyph glyph-name="Cdotaccent" unicode="&#x10a;" horiz-adv-x="1448" 
d="M824 -20q-233 0 -398 99.5t-253 273.5t-88 397t88 397t253 273.5t398 99.5q89 0 163.5 -30.5t134.5 -85.5l197 96h21v-454h-27q-51 129 -119 228.5t-155 155.5t-195 56q-103 0 -171.5 -63t-108 -168.5t-56.5 -236.5t-17 -268q0 -136 17 -267.5t56.5 -237t108 -168.5
t171.5 -63q99 0 175.5 34t134.5 94.5t102 140.5t78 171h27v-454h-23l-180 105q-64 -59 -147.5 -92t-186.5 -33zM824 1713q-82 0 -137.5 55.5t-55.5 137.5q0 83 55.5 138t137.5 55q83 0 138.5 -55t55.5 -138q0 -82 -55.5 -137.5t-138.5 -55.5z" />
    <glyph glyph-name="cdotaccent" unicode="&#x10b;" horiz-adv-x="1067" 
d="M567 -20q-139 0 -252.5 50t-181 156t-67.5 274q0 148 59 255.5t171 165.5t270 58q124 0 218.5 -37t148 -99t53.5 -139q0 -81 -54 -128.5t-128 -47.5q-43 0 -86.5 19t-72 58t-28.5 97q0 80 57 125t130 45q71 0 125.5 -44t54.5 -124h-24q0 54 -29.5 98.5t-77 76.5
t-102.5 49.5t-105 17.5q-65 0 -104 -42.5t-58 -110t-25 -145t-6 -148.5q0 -86 9 -163.5t32 -138t63.5 -95t103.5 -34.5q77 0 135 32t99 89t64 133h26q-39 -138 -139 -220.5t-279 -82.5zM568 1133q-82 0 -137.5 55.5t-55.5 137.5q0 83 55.5 138t137.5 55q83 0 138.5 -55
t55.5 -138q0 -82 -55.5 -137.5t-138.5 -55.5z" />
    <glyph glyph-name="Ccaron" unicode="&#x10c;" horiz-adv-x="1448" 
d="M824 -20q-233 0 -398 99.5t-253 273.5t-88 397t88 397t253 273.5t398 99.5q89 0 163.5 -30.5t134.5 -85.5l197 96h21v-454h-27q-51 129 -119 228.5t-155 155.5t-195 56q-103 0 -171.5 -63t-108 -168.5t-56.5 -236.5t-17 -268q0 -136 17 -267.5t56.5 -237t108 -168.5
t171.5 -63q99 0 175.5 34t134.5 94.5t102 140.5t78 171h27v-454h-23l-180 105q-64 -59 -147.5 -92t-186.5 -33zM731 1700l-250 293l13 12l331 -142l331 142l13 -12l-250 -293h-188z" />
    <glyph glyph-name="ccaron" unicode="&#x10d;" horiz-adv-x="1067" 
d="M567 -20q-139 0 -252.5 50t-181 156t-67.5 274q0 148 59 255.5t171 165.5t270 58q124 0 218.5 -37t148 -99t53.5 -139q0 -81 -54 -128.5t-128 -47.5q-43 0 -86.5 19t-72 58t-28.5 97q0 80 57 125t130 45q71 0 125.5 -44t54.5 -124h-24q0 54 -29.5 98.5t-77 76.5
t-102.5 49.5t-105 17.5q-65 0 -104 -42.5t-58 -110t-25 -145t-6 -148.5q0 -86 9 -163.5t32 -138t63.5 -95t103.5 -34.5q77 0 135 32t99 89t64 133h26q-39 -138 -139 -220.5t-279 -82.5zM475 1120l-250 293l13 12l331 -142l331 142l13 -12l-250 -293h-188z" />
    <glyph glyph-name="Dcaron" unicode="&#x10e;" horiz-adv-x="1575" 
d="M713 1500q245 0 419 -92.5t267 -261t93 -396.5q0 -171 -55.5 -309t-158 -236.5t-246 -151.5t-319.5 -53h-678v25h181v1450h-181v25h678zM582 25h131q105 0 176.5 55t114.5 154t62.5 231t19.5 285t-22 285t-67.5 231t-115.5 154t-168 55h-131v-1450zM612 1700l-250 293
l13 12l331 -142l331 142l13 -12l-250 -293h-188z" />
    <glyph glyph-name="dcaron" unicode="&#x10f;" horiz-adv-x="1298" 
d="M488 -19q-109 0 -205.5 57t-157 164t-60.5 257t60.5 257.5t157 165t205.5 57.5q127 0 207 -86t106 -243v865h-137v25h463v-1475h136v-25h-462v307q-26 -156 -106 -241t-207 -85zM568 32q54 0 108 47.5t89.5 142t35.5 237.5t-35.5 238t-89.5 143t-108 48q-47 0 -76 -46.5
t-42.5 -141t-13.5 -241.5t13.5 -241.5t42.5 -140t76 -45.5zM1261 975v21q74 0 137 25t107.5 72t64.5 113t8 148h6q1 -39 -22 -73.5t-61 -56t-80 -21.5q-75 0 -116 46.5t-41 108.5q0 63 50 109.5t118 46.5q70 0 122 -57.5t52 -155.5q0 -94 -42.5 -167.5t-120 -116
t-182.5 -42.5z" />
    <glyph glyph-name="Dcroat" unicode="&#x110;" horiz-adv-x="1575" 
d="M54 738v24h758v-24h-758zM713 1500q245 0 419 -92.5t267 -261t93 -396.5q0 -171 -55.5 -309t-158 -236.5t-246 -151.5t-319.5 -53h-678v25h181v1450h-181v25h678zM582 25h131q105 0 176.5 55t114.5 154t62.5 231t19.5 285t-22 285t-67.5 231t-115.5 154t-168 55h-131
v-1450z" />
    <glyph glyph-name="dcroat" unicode="&#x111;" horiz-adv-x="1298" 
d="M510 1128v24h757v-24h-757zM488 -19q-109 0 -205.5 57t-157 164t-60.5 257t60.5 257.5t157 165t205.5 57.5q127 0 207 -86t106 -243v865h-137v25h463v-1475h136v-25h-462v307q-26 -156 -106 -241t-207 -85zM568 32q54 0 108 47.5t89.5 142t35.5 237.5t-35.5 238
t-89.5 143t-108 48q-47 0 -76 -46.5t-42.5 -141t-13.5 -241.5t13.5 -241.5t42.5 -140t76 -45.5z" />
    <glyph glyph-name="Emacron" unicode="&#x112;" horiz-adv-x="1303" 
d="M35 0v25h181v1450h-181v25h1185v-410h-24q-22 107 -82 194.5t-151.5 139t-208.5 51.5h-172v-1450h151q137 0 237 53.5t162 149t84 222.5h24v-450h-1205zM899 512q-22 67 -66 124.5t-99.5 92.5t-112.5 35h-106v24h106q57 0 112.5 32.5t99.5 87.5t66 122h25v-518h-25z
M447 1700v25h480v-25h-480z" />
    <glyph glyph-name="emacron" unicode="&#x113;" horiz-adv-x="1073" 
d="M566 -20q-145 0 -258 54.5t-178 161.5t-65 264t63 264t174.5 161.5t256.5 54.5q149 0 248 -60.5t149.5 -157t50.5 -205.5h-808v25h471q0 67 -3 132.5t-14 120.5t-33 87.5t-61 32.5q-41 0 -67.5 -34t-42 -93t-21.5 -136t-6 -163q0 -102 8.5 -188.5t31 -150t63.5 -99
t106 -35.5q130 0 223.5 75t130.5 191h26q-39 -129 -147.5 -215.5t-297.5 -86.5zM321 1120v25h480v-25h-480z" />
    <glyph glyph-name="Ebreve" unicode="&#x114;" horiz-adv-x="1303" 
d="M35 0v25h181v1450h-181v25h1185v-410h-24q-22 107 -82 194.5t-151.5 139t-208.5 51.5h-172v-1450h151q137 0 237 53.5t162 149t84 222.5h24v-450h-1205zM899 512q-22 67 -66 124.5t-99.5 92.5t-112.5 35h-106v24h106q57 0 112.5 32.5t99.5 87.5t66 122h25v-518h-25z
M687 1680q-83 0 -138.5 39.5t-83 117t-27.5 189.5h22q0 -46 34 -72t86.5 -36.5t106.5 -10.5t106.5 10.5t86.5 36.5t34 72h22q0 -112 -27.5 -189.5t-83 -117t-138.5 -39.5z" />
    <glyph glyph-name="ebreve" unicode="&#x115;" horiz-adv-x="1073" 
d="M566 -20q-145 0 -258 54.5t-178 161.5t-65 264t63 264t174.5 161.5t256.5 54.5q149 0 248 -60.5t149.5 -157t50.5 -205.5h-808v25h471q0 67 -3 132.5t-14 120.5t-33 87.5t-61 32.5q-41 0 -67.5 -34t-42 -93t-21.5 -136t-6 -163q0 -102 8.5 -188.5t31 -150t63.5 -99
t106 -35.5q130 0 223.5 75t130.5 191h26q-39 -129 -147.5 -215.5t-297.5 -86.5zM561 1100q-83 0 -138.5 39.5t-83 117t-27.5 189.5h22q0 -46 34 -72t86.5 -36.5t106.5 -10.5t106.5 10.5t86.5 36.5t34 72h22q0 -112 -27.5 -189.5t-83 -117t-138.5 -39.5z" />
    <glyph glyph-name="Edotaccent" unicode="&#x116;" horiz-adv-x="1303" 
d="M35 0v25h181v1450h-181v25h1185v-410h-24q-22 107 -82 194.5t-151.5 139t-208.5 51.5h-172v-1450h151q137 0 237 53.5t162 149t84 222.5h24v-450h-1205zM899 512q-22 67 -66 124.5t-99.5 92.5t-112.5 35h-106v24h106q57 0 112.5 32.5t99.5 87.5t66 122h25v-518h-25z
M687 1713q-82 0 -137.5 55.5t-55.5 137.5q0 83 55.5 138t137.5 55q83 0 138.5 -55t55.5 -138q0 -82 -55.5 -137.5t-138.5 -55.5z" />
    <glyph glyph-name="edotaccent" unicode="&#x117;" horiz-adv-x="1073" 
d="M566 -20q-145 0 -258 54.5t-178 161.5t-65 264t63 264t174.5 161.5t256.5 54.5q149 0 248 -60.5t149.5 -157t50.5 -205.5h-808v25h471q0 67 -3 132.5t-14 120.5t-33 87.5t-61 32.5q-41 0 -67.5 -34t-42 -93t-21.5 -136t-6 -163q0 -102 8.5 -188.5t31 -150t63.5 -99
t106 -35.5q130 0 223.5 75t130.5 191h26q-39 -129 -147.5 -215.5t-297.5 -86.5zM561 1133q-82 0 -137.5 55.5t-55.5 137.5q0 83 55.5 138t137.5 55q83 0 138.5 -55t55.5 -138q0 -82 -55.5 -137.5t-138.5 -55.5z" />
    <glyph glyph-name="Eogonek" unicode="&#x118;" horiz-adv-x="1303" 
d="M35 0v25h181v1450h-181v25h1185v-410h-24q-22 107 -82 194.5t-151.5 139t-208.5 51.5h-172v-1450h151q137 0 237 53.5t162 149t84 222.5h24v-450h-1205zM899 512q-22 67 -66 124.5t-99.5 92.5t-112.5 35h-106v24h106q57 0 112.5 32.5t99.5 87.5t66 122h25v-518h-25z
M956 -460q-72 0 -131 18t-93.5 56t-34.5 98t35 111t91.5 92.5t123 71.5t128.5 47l7 -17q-15 -10 -34.5 -42.5t-33.5 -84t-14 -118.5q0 -82 27.5 -123.5t66.5 -41.5q36 0 59 25.5t44 63.5l19 -10q-15 -28 -40 -62t-76 -59t-144 -25z" />
    <glyph glyph-name="eogonek" unicode="&#x119;" horiz-adv-x="1073" 
d="M566 -20q-145 0 -258 54.5t-178 161.5t-65 264t63 264t174.5 161.5t256.5 54.5q149 0 248 -60.5t149.5 -157t50.5 -205.5h-808v25h471q0 67 -3 132.5t-14 120.5t-33 87.5t-61 32.5q-41 0 -67.5 -34t-42 -93t-21.5 -136t-6 -163q0 -102 8.5 -188.5t31 -150t63.5 -99
t106 -35.5q130 0 223.5 75t130.5 191h26q-39 -129 -147.5 -215.5t-297.5 -86.5zM641 -460q-72 0 -131 18t-93.5 56t-34.5 98t35 111t91.5 92.5t123 71.5t128.5 47l7 -17q-15 -10 -34.5 -42.5t-33.5 -84t-14 -118.5q0 -82 27.5 -123.5t66.5 -41.5q36 0 59 25.5t44 63.5
l19 -10q-15 -28 -40 -62t-76 -59t-144 -25z" />
    <glyph glyph-name="Ecaron" unicode="&#x11a;" horiz-adv-x="1303" 
d="M35 0v25h181v1450h-181v25h1185v-410h-24q-22 107 -82 194.5t-151.5 139t-208.5 51.5h-172v-1450h151q137 0 237 53.5t162 149t84 222.5h24v-450h-1205zM899 512q-22 67 -66 124.5t-99.5 92.5t-112.5 35h-106v24h106q57 0 112.5 32.5t99.5 87.5t66 122h25v-518h-25z
M594 1700l-250 293l13 12l331 -142l331 142l13 -12l-250 -293h-188z" />
    <glyph glyph-name="ecaron" unicode="&#x11b;" horiz-adv-x="1073" 
d="M566 -20q-145 0 -258 54.5t-178 161.5t-65 264t63 264t174.5 161.5t256.5 54.5q149 0 248 -60.5t149.5 -157t50.5 -205.5h-808v25h471q0 67 -3 132.5t-14 120.5t-33 87.5t-61 32.5q-41 0 -67.5 -34t-42 -93t-21.5 -136t-6 -163q0 -102 8.5 -188.5t31 -150t63.5 -99
t106 -35.5q130 0 223.5 75t130.5 191h26q-39 -129 -147.5 -215.5t-297.5 -86.5zM468 1120l-250 293l13 12l331 -142l331 142l13 -12l-250 -293h-188z" />
    <glyph glyph-name="Gcircumflex" unicode="&#x11c;" horiz-adv-x="1560" 
d="M850 583h687v-26h-91v-256q-61 -53 -121 -109t-129.5 -104t-160 -78t-212.5 -30q-230 0 -395 93.5t-254 266t-89 410.5q0 178 62 320.5t170 242.5t246 153.5t290 53.5q81 0 157 -28t141 -77l226 85h22v-454h-25q-23 74 -68 151.5t-109 142.5t-143.5 105t-171.5 40
q-103 0 -177 -62.5t-121.5 -168.5t-70 -236.5t-22.5 -267.5q0 -136 15 -269t51.5 -240.5t101.5 -172t164 -64.5q49 0 87.5 23.5t67.5 61t49.5 80.5t33.5 81v307h-211v26zM523 1704l-13 12l250 293h188l250 -293l-13 -12l-332 142z" />
    <glyph glyph-name="gcircumflex" unicode="&#x11d;" horiz-adv-x="1308" 
d="M528 -520q-92 0 -180 13.5t-158.5 43t-112 76.5t-41.5 114q0 60 36.5 98t89.5 58.5t106.5 28.5t86.5 8h19q-34 -20 -54.5 -61t-20.5 -101q0 -67 31.5 -123.5t96 -90.5t164.5 -34q61 0 124 13t115.5 40.5t85 71t32.5 105.5q0 65 -37 102t-96 52t-124 15h-67.5h-93.5h-69
q-162 0 -261.5 50t-99.5 158q0 66 38.5 109t100.5 67.5t135.5 35t144.5 10.5l-1 -12q-27 0 -63 -4.5t-71 -15.5t-58 -27t-23 -39q0 -35 46.5 -46.5t128.5 -11.5q35 0 74 0.5t75.5 1t64.5 0.5q56 0 117.5 -16.5t115 -56t86.5 -107t33 -169.5q0 -98 -40 -166t-111.5 -109.5
t-165 -61t-199.5 -19.5zM517 323q-75 0 -151 17t-139.5 54t-102.5 95.5t-39 141.5t39 141.5t102.5 95t139.5 54t151 17.5t150 -17.5t138.5 -54t101.5 -95t38 -141.5t-38 -141.5t-101.5 -95.5t-138.5 -54t-150 -17zM517 347q33 0 54 39t31 103.5t10 141.5q0 85 -10 149
t-31 99t-54 35q-34 0 -55 -35t-31 -99t-10 -149q0 -77 6.5 -141.5t26.5 -103.5t63 -39zM1141 596q-54 0 -96 36t-42 101q0 67 42.5 98.5t95.5 31.5q47 0 93.5 -31.5t46.5 -89.5h-23q0 64 -51 114t-139 50q-43 0 -90.5 -19.5t-87.5 -65.5t-60 -127l-18 12q20 86 62.5 135
t93.5 69t98 20q71 0 119.5 -28t73 -71t24.5 -89q0 -80 -44 -113t-98 -33zM238 1124l-13 12l250 293h188l250 -293l-13 -12l-332 142z" />
    <glyph glyph-name="Gbreve" unicode="&#x11e;" horiz-adv-x="1560" 
d="M850 583h687v-26h-91v-256q-61 -53 -121 -109t-129.5 -104t-160 -78t-212.5 -30q-230 0 -395 93.5t-254 266t-89 410.5q0 178 62 320.5t170 242.5t246 153.5t290 53.5q81 0 157 -28t141 -77l226 85h22v-454h-25q-23 74 -68 151.5t-109 142.5t-143.5 105t-171.5 40
q-103 0 -177 -62.5t-121.5 -168.5t-70 -236.5t-22.5 -267.5q0 -136 15 -269t51.5 -240.5t101.5 -172t164 -64.5q49 0 87.5 23.5t67.5 61t49.5 80.5t33.5 81v307h-211v26zM853 1680q-83 0 -138.5 39.5t-83 117t-27.5 189.5h22q0 -46 34 -72t86.5 -36.5t106.5 -10.5
t106.5 10.5t86.5 36.5t34 72h22q0 -112 -27.5 -189.5t-83 -117t-138.5 -39.5z" />
    <glyph glyph-name="gbreve" unicode="&#x11f;" horiz-adv-x="1308" 
d="M528 -520q-92 0 -180 13.5t-158.5 43t-112 76.5t-41.5 114q0 60 36.5 98t89.5 58.5t106.5 28.5t86.5 8h19q-34 -20 -54.5 -61t-20.5 -101q0 -67 31.5 -123.5t96 -90.5t164.5 -34q61 0 124 13t115.5 40.5t85 71t32.5 105.5q0 65 -37 102t-96 52t-124 15h-67.5h-93.5h-69
q-162 0 -261.5 50t-99.5 158q0 66 38.5 109t100.5 67.5t135.5 35t144.5 10.5l-1 -12q-27 0 -63 -4.5t-71 -15.5t-58 -27t-23 -39q0 -35 46.5 -46.5t128.5 -11.5q35 0 74 0.5t75.5 1t64.5 0.5q56 0 117.5 -16.5t115 -56t86.5 -107t33 -169.5q0 -98 -40 -166t-111.5 -109.5
t-165 -61t-199.5 -19.5zM517 323q-75 0 -151 17t-139.5 54t-102.5 95.5t-39 141.5t39 141.5t102.5 95t139.5 54t151 17.5t150 -17.5t138.5 -54t101.5 -95t38 -141.5t-38 -141.5t-101.5 -95.5t-138.5 -54t-150 -17zM517 347q33 0 54 39t31 103.5t10 141.5q0 85 -10 149
t-31 99t-54 35q-34 0 -55 -35t-31 -99t-10 -149q0 -77 6.5 -141.5t26.5 -103.5t63 -39zM1141 596q-54 0 -96 36t-42 101q0 67 42.5 98.5t95.5 31.5q47 0 93.5 -31.5t46.5 -89.5h-23q0 64 -51 114t-139 50q-43 0 -90.5 -19.5t-87.5 -65.5t-60 -127l-18 12q20 86 62.5 135
t93.5 69t98 20q71 0 119.5 -28t73 -71t24.5 -89q0 -80 -44 -113t-98 -33zM568 1100q-83 0 -138.5 39.5t-83 117t-27.5 189.5h22q0 -46 34 -72t86.5 -36.5t106.5 -10.5t106.5 10.5t86.5 36.5t34 72h22q0 -112 -27.5 -189.5t-83 -117t-138.5 -39.5z" />
    <glyph glyph-name="Gdotaccent" unicode="&#x120;" horiz-adv-x="1560" 
d="M850 583h687v-26h-91v-256q-61 -53 -121 -109t-129.5 -104t-160 -78t-212.5 -30q-230 0 -395 93.5t-254 266t-89 410.5q0 178 62 320.5t170 242.5t246 153.5t290 53.5q81 0 157 -28t141 -77l226 85h22v-454h-25q-23 74 -68 151.5t-109 142.5t-143.5 105t-171.5 40
q-103 0 -177 -62.5t-121.5 -168.5t-70 -236.5t-22.5 -267.5q0 -136 15 -269t51.5 -240.5t101.5 -172t164 -64.5q49 0 87.5 23.5t67.5 61t49.5 80.5t33.5 81v307h-211v26zM853 1713q-82 0 -137.5 55.5t-55.5 137.5q0 83 55.5 138t137.5 55q83 0 138.5 -55t55.5 -138
q0 -82 -55.5 -137.5t-138.5 -55.5z" />
    <glyph glyph-name="gdotaccent" unicode="&#x121;" horiz-adv-x="1308" 
d="M528 -520q-92 0 -180 13.5t-158.5 43t-112 76.5t-41.5 114q0 60 36.5 98t89.5 58.5t106.5 28.5t86.5 8h19q-34 -20 -54.5 -61t-20.5 -101q0 -67 31.5 -123.5t96 -90.5t164.5 -34q61 0 124 13t115.5 40.5t85 71t32.5 105.5q0 65 -37 102t-96 52t-124 15h-67.5h-93.5h-69
q-162 0 -261.5 50t-99.5 158q0 66 38.5 109t100.5 67.5t135.5 35t144.5 10.5l-1 -12q-27 0 -63 -4.5t-71 -15.5t-58 -27t-23 -39q0 -35 46.5 -46.5t128.5 -11.5q35 0 74 0.5t75.5 1t64.5 0.5q56 0 117.5 -16.5t115 -56t86.5 -107t33 -169.5q0 -98 -40 -166t-111.5 -109.5
t-165 -61t-199.5 -19.5zM517 323q-75 0 -151 17t-139.5 54t-102.5 95.5t-39 141.5t39 141.5t102.5 95t139.5 54t151 17.5t150 -17.5t138.5 -54t101.5 -95t38 -141.5t-38 -141.5t-101.5 -95.5t-138.5 -54t-150 -17zM517 347q33 0 54 39t31 103.5t10 141.5q0 85 -10 149
t-31 99t-54 35q-34 0 -55 -35t-31 -99t-10 -149q0 -77 6.5 -141.5t26.5 -103.5t63 -39zM1141 596q-54 0 -96 36t-42 101q0 67 42.5 98.5t95.5 31.5q47 0 93.5 -31.5t46.5 -89.5h-23q0 64 -51 114t-139 50q-43 0 -90.5 -19.5t-87.5 -65.5t-60 -127l-18 12q20 86 62.5 135
t93.5 69t98 20q71 0 119.5 -28t73 -71t24.5 -89q0 -80 -44 -113t-98 -33zM568 1133q-82 0 -137.5 55.5t-55.5 137.5q0 83 55.5 138t137.5 55q83 0 138.5 -55t55.5 -138q0 -82 -55.5 -137.5t-138.5 -55.5z" />
    <glyph glyph-name="uni0122" unicode="&#x122;" horiz-adv-x="1560" 
d="M850 583h687v-26h-91v-256q-61 -53 -121 -109t-129.5 -104t-160 -78t-212.5 -30q-230 0 -395 93.5t-254 266t-89 410.5q0 178 62 320.5t170 242.5t246 153.5t290 53.5q81 0 157 -28t141 -77l226 85h22v-454h-25q-23 74 -68 151.5t-109 142.5t-143.5 105t-171.5 40
q-103 0 -177 -62.5t-121.5 -168.5t-70 -236.5t-22.5 -267.5q0 -136 15 -269t51.5 -240.5t101.5 -172t164 -64.5q49 0 87.5 23.5t67.5 61t49.5 80.5t33.5 81v307h-211v26zM650 -748v21q104 0 185.5 45t123.5 128t26 198h6q1 -41 -24 -78t-64.5 -59.5t-84.5 -22.5
q-78 0 -121.5 49.5t-43.5 114.5q0 44 24 82t64.5 60.5t88.5 22.5q73 0 127.5 -60t54.5 -163q0 -97 -45 -173.5t-126 -120.5t-191 -44z" />
    <glyph glyph-name="uni0123" unicode="&#x123;" horiz-adv-x="1308" 
d="M528 -520q-92 0 -180 13.5t-158.5 43t-112 76.5t-41.5 114q0 60 36.5 98t89.5 58.5t106.5 28.5t86.5 8h19q-34 -20 -54.5 -61t-20.5 -101q0 -67 31.5 -123.5t96 -90.5t164.5 -34q61 0 124 13t115.5 40.5t85 71t32.5 105.5q0 65 -37 102t-96 52t-124 15h-67.5h-93.5h-69
q-162 0 -261.5 50t-99.5 158q0 66 38.5 109t100.5 67.5t135.5 35t144.5 10.5l-1 -12q-27 0 -63 -4.5t-71 -15.5t-58 -27t-23 -39q0 -35 46.5 -46.5t128.5 -11.5q35 0 74 0.5t75.5 1t64.5 0.5q56 0 117.5 -16.5t115 -56t86.5 -107t33 -169.5q0 -98 -40 -166t-111.5 -109.5
t-165 -61t-199.5 -19.5zM517 323q-75 0 -151 17t-139.5 54t-102.5 95.5t-39 141.5t39 141.5t102.5 95t139.5 54t151 17.5t150 -17.5t138.5 -54t101.5 -95t38 -141.5t-38 -141.5t-101.5 -95.5t-138.5 -54t-150 -17zM517 347q33 0 54 39t31 103.5t10 141.5q0 85 -10 149
t-31 99t-54 35q-34 0 -55 -35t-31 -99t-10 -149q0 -77 6.5 -141.5t26.5 -103.5t63 -39zM1141 596q-54 0 -96 36t-42 101q0 67 42.5 98.5t95.5 31.5q47 0 93.5 -31.5t46.5 -89.5h-23q0 64 -51 114t-139 50q-43 0 -90.5 -19.5t-87.5 -65.5t-60 -127l-18 12q20 86 62.5 135
t93.5 69t98 20q71 0 119.5 -28t73 -71t24.5 -89q0 -80 -44 -113t-98 -33zM571 1122q-73 0 -127.5 60t-54.5 162q0 98 45 174.5t126.5 120t191.5 43.5v-21q-104 0 -186 -44.5t-123.5 -127.5t-25.5 -198h-7q-1 41 24 78t65 59.5t84 22.5q79 0 122.5 -49.5t43.5 -114.5
q0 -44 -24 -82t-64.5 -60.5t-89.5 -22.5z" />
    <glyph glyph-name="Hcircumflex" unicode="&#x124;" horiz-adv-x="1646" 
d="M1612 1500v-25h-181v-1450h181v-25h-717v25h171v703h-484v-703h170v-25h-717v25h181v1450h-181v25h717v-25h-170v-723h484v723h-171v25h717zM494 1704l-13 12l250 293h188l250 -293l-13 -12l-332 142z" />
    <glyph glyph-name="hcircumflex" unicode="&#x125;" horiz-adv-x="1278" 
d="M35 0v25h137v1450h-137v25h463v-1475h92v-25h-555zM689 0v25h93v603q0 84 -7 131.5t-25 67t-54 19.5q-51 0 -88.5 -36t-61.5 -95t-36 -129.5t-12 -139.5l-21 -2q0 75 14 160.5t50.5 162t104.5 125t175 48.5q111 0 173.5 -39t87.5 -107t25 -155v-614h137v-25h-555z
M378 1609l-13 12l250 293h188l250 -293l-13 -12l-332 142z" />
    <glyph glyph-name="Hbar" unicode="&#x126;" horiz-adv-x="1646" 
d="M34 1124v24h1577v-24h-1577zM1612 1500v-25h-181v-1450h181v-25h-717v25h171v703h-484v-703h170v-25h-717v25h181v1450h-181v25h717v-25h-170v-723h484v723h-171v25h717z" />
    <glyph glyph-name="hbar" unicode="&#x127;" horiz-adv-x="1211" 
d="M72 1178v24h584v-24h-584zM35 0v25h137v1450h-137v25h463v-1475h92v-25h-555zM689 0v25h93v603q0 84 -7 131.5t-25 67t-54 19.5q-51 0 -88.5 -36t-61.5 -95t-36 -129.5t-12 -139.5l-21 -2q0 75 14 160.5t50.5 162t104.5 125t175 48.5q111 0 173.5 -39t87.5 -107t25 -155
v-614h137v-25h-555z" />
    <glyph glyph-name="Itilde" unicode="&#x128;" horiz-adv-x="896" 
d="M35 0v25h221v1450h-221v25h827v-25h-240v-1450h240v-25h-827zM602 1651q-62 0 -108.5 23.5t-86.5 55t-83 55t-98 23.5q-54 0 -84.5 -31.5t-30.5 -76.5h-25q0 85 20.5 156t64.5 114t115 43q65 0 110 -24t82.5 -55t75.5 -55t88 -24q57 0 86 31.5t29 76.5h25
q0 -94 -11.5 -164.5t-49.5 -109t-119 -38.5z" />
    <glyph glyph-name="itilde" unicode="&#x129;" horiz-adv-x="673" 
d="M508 920v-895h136v-25h-599v25h137v870h-137v25h463zM509 1071q-62 0 -108.5 23.5t-86.5 55t-83 55t-98 23.5q-54 0 -84.5 -31.5t-30.5 -76.5h-25q0 85 20.5 156t64.5 114t115 43q65 0 110 -24t82.5 -55t75.5 -55t88 -24q57 0 86 31.5t29 76.5h25q0 -94 -11.5 -164.5
t-49.5 -109t-119 -38.5z" />
    <glyph glyph-name="Imacron" unicode="&#x12a;" horiz-adv-x="896" 
d="M35 0v25h221v1450h-221v25h827v-25h-240v-1450h240v-25h-827zM197 1700v25h480v-25h-480z" />
    <glyph glyph-name="imacron" unicode="&#x12b;" horiz-adv-x="673" 
d="M508 920v-895h136v-25h-599v25h137v870h-137v25h463zM105 1120v25h480v-25h-480z" />
    <glyph glyph-name="Ibreve" unicode="&#x12c;" horiz-adv-x="896" 
d="M35 0v25h221v1450h-221v25h827v-25h-240v-1450h240v-25h-827zM437 1680q-83 0 -138.5 39.5t-83 117t-27.5 189.5h22q0 -46 34 -72t86.5 -36.5t106.5 -10.5t106.5 10.5t86.5 36.5t34 72h22q0 -112 -27.5 -189.5t-83 -117t-138.5 -39.5z" />
    <glyph glyph-name="ibreve" unicode="&#x12d;" horiz-adv-x="673" 
d="M508 920v-895h136v-25h-599v25h137v870h-137v25h463zM345 1100q-83 0 -138.5 39.5t-83 117t-27.5 189.5h22q0 -46 34 -72t86.5 -36.5t106.5 -10.5t106.5 10.5t86.5 36.5t34 72h22q0 -112 -27.5 -189.5t-83 -117t-138.5 -39.5z" />
    <glyph glyph-name="Iogonek" unicode="&#x12e;" horiz-adv-x="896" 
d="M35 0v25h221v1450h-221v25h827v-25h-240v-1450h240v-25h-827zM417 -460q-72 0 -131 18t-93.5 56t-34.5 98t35 111t91.5 92.5t123 71.5t128.5 47l7 -17q-15 -10 -34.5 -42.5t-33.5 -84t-14 -118.5q0 -82 27.5 -123.5t66.5 -41.5q36 0 59 25.5t44 63.5l19 -10
q-15 -28 -40 -62t-76 -59t-144 -25z" />
    <glyph glyph-name="iogonek" unicode="&#x12f;" horiz-adv-x="673" 
d="M508 920v-895h136v-25h-599v25h137v870h-137v25h463zM345 1133q-82 0 -137.5 55.5t-55.5 137.5q0 83 55.5 138t137.5 55q83 0 138.5 -55t55.5 -138q0 -82 -55.5 -137.5t-138.5 -55.5zM330 -460q-72 0 -131 18t-93.5 56t-34.5 98t35 111t91.5 92.5t123 71.5t128.5 47
l7 -17q-15 -10 -34.5 -42.5t-33.5 -84t-14 -118.5q0 -82 27.5 -123.5t66.5 -41.5q36 0 59 25.5t44 63.5l19 -10q-15 -28 -40 -62t-76 -59t-144 -25z" />
    <glyph glyph-name="Idotaccent" unicode="&#x130;" horiz-adv-x="896" 
d="M35 0v25h221v1450h-221v25h827v-25h-240v-1450h240v-25h-827zM437 1713q-82 0 -137.5 55.5t-55.5 137.5q0 83 55.5 138t137.5 55q83 0 138.5 -55t55.5 -138q0 -82 -55.5 -137.5t-138.5 -55.5z" />
    <glyph glyph-name="dotlessi" unicode="&#x131;" horiz-adv-x="673" 
d="M508 920v-895h136v-25h-599v25h137v870h-137v25h463z" />
    <glyph glyph-name="IJ" unicode="&#x132;" horiz-adv-x="2055" 
d="M35 0v25h221v1450h-221v25h827v-25h-240v-1450h240v-25h-827zM1997 1500v-25h-200v-1135q-34 -80 -80.5 -152.5t-108.5 -128.5t-143 -88t-187 -32q-113 0 -202.5 35t-141 99.5t-51.5 151.5q0 63 28.5 111.5t76.5 75.5t104 27q51 0 99 -24t78.5 -69.5t30.5 -107.5
t-30 -105.5t-78.5 -67t-104.5 -21.5q-47 1 -88 31.5t-52 73.5q15 -59 60 -99.5t106.5 -61t124.5 -20.5q80 0 122 45t57 136.5t15 230.5v1095h-260v25h825z" />
    <glyph glyph-name="ij" unicode="&#x133;" horiz-adv-x="1313" 
d="M345 1133q-82 0 -137.5 55.5t-55.5 137.5q0 83 55.5 138t137.5 55q83 0 138 -55t55 -138q0 -82 -55 -137.5t-138 -55.5zM508 920v-895h136v-25h-599v25h137v870h-137v25h463zM654 -520q-92 0 -166 32t-117.5 88.5t-43.5 126.5q0 78 54.5 130.5t133.5 52.5
q47 0 88.5 -22.5t68.5 -61.5t27 -90q0 -71 -49.5 -119.5t-132.5 -48.5q-51 0 -93.5 24.5t-68.5 61t-26 73.5h24q0 -64 41 -114t106 -79t136 -29q73 0 112 47.5t55 126t18.5 173.5t2.5 190v853h-176v25h502v-943q0 -98 -40.5 -187.5t-110 -159t-158.5 -110t-187 -40.5z
M971 1133q-82 0 -137.5 56t-55.5 138q0 83 55.5 138t137.5 55q83 0 138 -55t55 -138q0 -82 -55 -138t-138 -56z" />
    <glyph glyph-name="Jcircumflex" unicode="&#x134;" horiz-adv-x="1172" 
d="M1135 1500v-25h-200v-1135q-34 -80 -80.5 -152.5t-108.5 -128.5t-143 -88t-187 -32q-113 0 -202.5 35t-141 99.5t-51.5 151.5q0 63 28.5 111.5t76.5 75.5t104 27q51 0 99 -24t78.5 -69.5t30.5 -107.5t-30 -105.5t-78.5 -67t-104.5 -21.5q-47 1 -88 31.5t-52 73.5
q15 -59 60 -99.5t106.5 -61t124.5 -20.5q80 0 122 45t57 136.5t15 230.5v1095h-260v25h825zM395 1704l-13 12l250 293h188l250 -293l-13 -12l-332 142z" />
    <glyph glyph-name="jcircumflex" unicode="&#x135;" horiz-adv-x="695" 
d="M48 -520q-92 0 -166 32t-117.5 88.5t-43.5 126.5q0 78 54.5 130.5t133.5 52.5q47 0 88.5 -22.5t68.5 -61.5t27 -90q0 -71 -49.5 -119.5t-132.5 -48.5q-51 0 -93.5 24.5t-68.5 61t-26 73.5h24q0 -64 41 -114t106 -79t136 -29q73 0 112 47.5t55 126t18.5 173.5t2.5 190v853
h-176v25h502v-943q0 -98 -40.5 -187.5t-110 -159t-158.5 -110t-187 -40.5zM17 1124l-13 12l250 293h188l250 -293l-13 -12l-332 142z" />
    <glyph glyph-name="uni0136" unicode="&#x136;" horiz-adv-x="1622" 
d="M318 434l945 1041h-224v25h480v-25h-222l-945 -1041h-34zM35 0v25h181v1450h-181v25h747v-25h-200v-1450h170v-25h-717zM843 0v25h181l-413 723l245 265l583 -988h170v-25h-766zM637 -748v21q104 0 185.5 45t123.5 128t26 198h6q1 -41 -24 -78t-64.5 -59.5t-84.5 -22.5
q-78 0 -121.5 49.5t-43.5 114.5q0 44 24 82t64.5 60.5t88.5 22.5q73 0 127.5 -60t54.5 -163q0 -97 -45 -173.5t-126 -120.5t-191 -44z" />
    <glyph glyph-name="uni0137" unicode="&#x137;" horiz-adv-x="1329" 
d="M35 0v25h177v1450h-177v25h503v-1475h96v-25h-599zM712 0v25h108l-356 512l526 358h-226v25h438v-25h-175l-300 -209l494 -661h93v-25h-602zM486 -748v21q104 0 185.5 45t123.5 128t26 198h6q1 -41 -24 -78t-64.5 -59.5t-84.5 -22.5q-78 0 -121.5 49.5t-43.5 114.5
q0 44 24 82t64.5 60.5t88.5 22.5q73 0 127.5 -60t54.5 -163q0 -97 -45 -173.5t-126 -120.5t-191 -44z" />
    <glyph glyph-name="kgreenlandic" unicode="&#x138;" horiz-adv-x="1337" 
d="M844 0l-373 537l561 383h36l-335 -234l512 -686h-401zM37 0v25h603v-25h-603zM218 0v895h-181v25h507v-920h-326zM714 0v25h606v-25h-606zM762 895v25h446v-25h-446z" />
    <glyph glyph-name="Lacute" unicode="&#x139;" horiz-adv-x="1281" 
d="M35 0v25h181v1450h-181v25h726v-25h-179v-1450h149q106 0 188.5 30.5t142 86.5t97.5 134.5t54 173.5h24v-450h-1202zM288 1677l-12 17l157 254q34 60 85 76t98.5 1.5t70.5 -47.5q26 -39 20.5 -89.5t-40.5 -91.5t-97 -52z" />
    <glyph glyph-name="lacute" unicode="&#x13a;" horiz-adv-x="749" 
d="M538 1500v-1475h176v-25h-679v25h177v1450h-177v25h503zM277 1677l-12 17l157 254q34 60 85 76t98.5 1.5t70.5 -47.5q26 -39 20.5 -89.5t-40.5 -91.5t-97 -52z" />
    <glyph glyph-name="uni013B" unicode="&#x13b;" horiz-adv-x="1281" 
d="M35 0v25h181v1450h-181v25h726v-25h-179v-1450h149q106 0 188.5 30.5t142 86.5t97.5 134.5t54 173.5h24v-450h-1202zM506 -748v21q104 0 185.5 45t123.5 128t26 198h6q1 -41 -24 -78t-64.5 -59.5t-84.5 -22.5q-78 0 -121.5 49.5t-43.5 114.5q0 44 24 82t64.5 60.5
t88.5 22.5q73 0 127.5 -60t54.5 -163q0 -97 -45 -173.5t-126 -120.5t-191 -44z" />
    <glyph glyph-name="uni013C" unicode="&#x13c;" horiz-adv-x="749" 
d="M538 1500v-1475h176v-25h-679v25h177v1450h-177v25h503zM209 -748v21q104 0 185.5 45t123.5 128t26 198h6q1 -41 -24 -78t-64.5 -59.5t-84.5 -22.5q-78 0 -121.5 49.5t-43.5 114.5q0 44 24 82t64.5 60.5t88.5 22.5q73 0 127.5 -60t54.5 -163q0 -97 -45 -173.5
t-126 -120.5t-191 -44z" />
    <glyph glyph-name="Lcaron" unicode="&#x13d;" horiz-adv-x="1281" 
d="M35 0v25h181v1450h-181v25h726v-25h-179v-1450h149q106 0 188.5 30.5t142 86.5t97.5 134.5t54 173.5h24v-450h-1202zM881 981v21q74 0 137 25t107.5 72t64.5 113t8 148h6q1 -39 -22 -73.5t-61 -56t-80 -21.5q-75 0 -116 46.5t-41 108.5q0 63 50 109.5t118 46.5
q70 0 122 -57.5t52 -155.5q0 -94 -42.5 -167.5t-120 -116t-182.5 -42.5z" />
    <glyph glyph-name="lcaron" unicode="&#x13e;" horiz-adv-x="749" 
d="M538 1500v-1475h176v-25h-679v25h177v1450h-177v25h503zM665 975v21q74 0 137 25t107.5 72t64.5 113t8 148h6q1 -39 -22 -73.5t-61 -56t-80 -21.5q-75 0 -116 46.5t-41 108.5q0 63 50 109.5t118 46.5q70 0 122 -57.5t52 -155.5q0 -94 -42.5 -167.5t-120 -116
t-182.5 -42.5z" />
    <glyph glyph-name="Ldot" unicode="&#x13f;" horiz-adv-x="1281" 
d="M35 0v25h181v1450h-181v25h726v-25h-179v-1450h149q106 0 188.5 30.5t142 86.5t97.5 134.5t54 173.5h24v-450h-1202zM1051 680q-58 0 -105 28t-75 75.5t-28 104.5t28 104.5t75 75.5t105 28q57 0 104.5 -28t75.5 -75.5t28 -104.5t-28 -104.5t-75.5 -75.5t-104.5 -28z" />
    <glyph glyph-name="ldot" unicode="&#x140;" horiz-adv-x="959" 
d="M538 1500v-1475h176v-25h-679v25h177v1450h-177v25h503zM862 680q-58 0 -105 28t-75 75.5t-28 104.5t28 104.5t75 75.5t105 28q57 0 104.5 -28t75.5 -75.5t28 -104.5t-28 -104.5t-75.5 -75.5t-104.5 -28z" />
    <glyph glyph-name="Lslash" unicode="&#x141;" horiz-adv-x="1281" 
d="M36 691v29l837 440v-29zM35 0v25h181v1450h-181v25h726v-25h-179v-1450h149q106 0 188.5 30.5t142 86.5t97.5 134.5t54 173.5h24v-450h-1202z" />
    <glyph glyph-name="lslash" unicode="&#x142;" horiz-adv-x="749" 
d="M32 713v28l717 419v-29zM538 1500v-1475h176v-25h-679v25h177v1450h-177v25h503z" />
    <glyph glyph-name="Nacute" unicode="&#x143;" horiz-adv-x="1548" 
d="M263 1500v-1475h229v-25h-457v25h203v1450h-203v25h228zM1513 1500v-25h-210v-1495h-34l-1023 1520h434l597 -895v870h-224v25h460zM703 1677l-12 17l157 254q34 60 85 76t98.5 1.5t70.5 -47.5q26 -39 20.5 -89.5t-40.5 -91.5t-97 -52z" />
    <glyph glyph-name="nacute" unicode="&#x144;" horiz-adv-x="1278" 
d="M497 920v-895h93v-25h-555v25h137v870h-137v25h462zM1107 639v-614h137v-25h-555v25h93v603q0 84 -7 131.5t-25 67t-54 19.5q-51 0 -88.5 -36t-62 -95t-36.5 -129.5t-12 -139.5l-20 -2q0 75 14 160.5t50.5 162t104.5 125t176 48.5q111 0 173 -39t87 -107t25 -155z
M541 1097l-12 17l157 254q34 60 85 76t98.5 1.5t70.5 -47.5q26 -39 20.5 -89.5t-40.5 -91.5t-97 -52z" />
    <glyph glyph-name="uni0145" unicode="&#x145;" horiz-adv-x="1548" 
d="M263 1500v-1475h229v-25h-457v25h203v1450h-203v25h228zM1513 1500v-25h-210v-1495h-34l-1023 1520h434l597 -895v870h-224v25h460zM591 -748v21q104 0 185.5 45t123.5 128t26 198h6q1 -41 -24 -78t-64.5 -59.5t-84.5 -22.5q-78 0 -121.5 49.5t-43.5 114.5q0 44 24 82
t64.5 60.5t88.5 22.5q73 0 127.5 -60t54.5 -163q0 -97 -45 -173.5t-126 -120.5t-191 -44z" />
    <glyph glyph-name="uni0146" unicode="&#x146;" horiz-adv-x="1278" 
d="M497 920v-895h93v-25h-555v25h137v870h-137v25h462zM1107 639v-614h137v-25h-555v25h93v603q0 84 -7 131.5t-25 67t-54 19.5q-51 0 -88.5 -36t-62 -95t-36.5 -129.5t-12 -139.5l-20 -2q0 75 14 160.5t50.5 162t104.5 125t176 48.5q111 0 173 -39t87 -107t25 -155z
M471 -748v21q104 0 185.5 45t123.5 128t26 198h6q1 -41 -24 -78t-64.5 -59.5t-84.5 -22.5q-78 0 -121.5 49.5t-43.5 114.5q0 44 24 82t64.5 60.5t88.5 22.5q73 0 127.5 -60t54.5 -163q0 -97 -45 -173.5t-126 -120.5t-191 -44z" />
    <glyph glyph-name="Ncaron" unicode="&#x147;" horiz-adv-x="1548" 
d="M263 1500v-1475h229v-25h-457v25h203v1450h-203v25h228zM1513 1500v-25h-210v-1495h-34l-1023 1520h434l597 -895v870h-224v25h460zM714 1700l-250 293l13 12l331 -142l331 142l13 -12l-250 -293h-188z" />
    <glyph glyph-name="ncaron" unicode="&#x148;" horiz-adv-x="1278" 
d="M497 920v-895h93v-25h-555v25h137v870h-137v25h462zM1107 639v-614h137v-25h-555v25h93v603q0 84 -7 131.5t-25 67t-54 19.5q-51 0 -88.5 -36t-62 -95t-36.5 -129.5t-12 -139.5l-20 -2q0 75 14 160.5t50.5 162t104.5 125t176 48.5q111 0 173 -39t87 -107t25 -155z
M551 1120l-250 293l13 12l331 -142l331 142l13 -12l-250 -293h-188z" />
    <glyph glyph-name="napostrophe" unicode="&#x149;" horiz-adv-x="1612" 
d="M809 920v-895h93v-25h-555v25h137v870h-137v25h462zM1419 639v-614h137v-25h-555v25h93v603q0 84 -7 131.5t-25 67t-54 19.5q-51 0 -88.5 -36t-62 -95t-36.5 -129.5t-12 -139.5l-20 -2q0 75 14 160.5t50.5 162t104.5 125t176 48.5q111 0 173 -39t87 -107t25 -155zM16 931
v26q97 0 180 31.5t142 92t85.5 146.5t11.5 194h8q1 -52 -30 -98t-81 -74.5t-105 -28.5q-97 0 -152 62t-55 144q0 55 30.5 102t81 75.5t110.5 28.5q61 0 113 -34.5t83.5 -96.5t31.5 -147q0 -123 -56.5 -218.5t-158 -150t-239.5 -54.5z" />
    <glyph glyph-name="Eng" unicode="&#x14a;" horiz-adv-x="1578" 
d="M919 -520q-96 0 -173 33t-121.5 89.5t-44.5 127.5q0 78 54 130.5t133 52.5q47 0 89 -22.5t68.5 -61.5t26.5 -90q0 -71 -48.5 -119.5t-131.5 -48.5q-51 0 -94 24t-69 61t-26 74h24q0 -67 44 -117.5t112 -78.5t139 -28q73 0 114.5 46.5t60 125t23 173t4.5 189.5v981
q0 96 -16 173.5t-48 133.5t-79 85.5t-107 29.5q-90 0 -155 -47t-106.5 -124t-61.5 -169t-20 -182h-18q0 71 12.5 152.5t43 160.5t83.5 143.5t134 103t194 38.5q166 0 270 -59.5t152.5 -163t48.5 -238.5l-1 -1081q0 -97 -41.5 -186.5t-113 -159.5t-163 -110.5t-192.5 -40.5z
M45 0v25h603v-25h-603zM185 0v1475h-140v25h465v-1500h-325z" />
    <glyph glyph-name="eng" unicode="&#x14b;" horiz-adv-x="1270" 
d="M625 -520q-92 0 -166 32t-117.5 88.5t-43.5 126.5q0 78 54.5 130.5t132.5 52.5q47 0 89 -22.5t69 -61.5t27 -90q0 -71 -49 -119.5t-132 -48.5q-50 0 -93 24.5t-69.5 61t-26.5 73.5h24q0 -64 41 -114.5t108.5 -80t145.5 -29.5q73 0 110.5 47.5t51 126t14 173.5t0.5 190
v562l327 37l-1 -662q0 -97 -40.5 -186.5t-110.5 -159.5t-158.5 -110.5t-186.5 -40.5zM45 0v25h603v-25h-603zM185 0v895h-140v25h465v-920h-325zM492 451q0 62 14 144.5t50.5 161t103 130.5t170.5 52q114 0 177.5 -38.5t89 -106.5t25.5 -155l-327 -37q0 88 -6 141.5
t-24.5 77.5t-53.5 24q-45 0 -82 -33.5t-63.5 -91t-41 -127.5t-14.5 -142h-18z" />
    <glyph glyph-name="Omacron" unicode="&#x14c;" horiz-adv-x="1566" 
d="M784 -20q-163 0 -292.5 57.5t-220 162t-138.5 245t-48 305.5t50.5 305.5t143 245t221 162t284.5 57.5t284 -57.5t221 -162t143 -245t50 -305.5t-47.5 -305.5t-138 -245t-220 -162t-292.5 -57.5zM784 3q92 0 149.5 55t89 155t43 236.5t11.5 300.5t-14.5 300.5t-47.5 236.5
t-89.5 155t-141.5 55q-84 0 -141 -55t-90 -155t-47.5 -236.5t-14.5 -300.5t11.5 -300.5t42.5 -236.5t89 -155t150 -55zM545 1700v25h480v-25h-480z" />
    <glyph glyph-name="omacron" unicode="&#x14d;" horiz-adv-x="1134" 
d="M568 -20q-156 0 -268.5 66t-173.5 175t-61 239t61 239t173.5 175t268.5 66q155 0 267.5 -66t173 -175t60.5 -239t-60.5 -239t-173 -175t-267.5 -66zM568 5q42 0 73 34t50 95.5t28.5 144.5t9.5 181t-9.5 181t-28.5 144.5t-50 95.5t-73 34q-43 0 -74 -34t-50 -95.5
t-28 -144.5t-9 -181t9 -181t28 -144.5t50 -95.5t74 -34zM327 1120v25h480v-25h-480z" />
    <glyph glyph-name="Obreve" unicode="&#x14e;" horiz-adv-x="1566" 
d="M784 -20q-163 0 -292.5 57.5t-220 162t-138.5 245t-48 305.5t50.5 305.5t143 245t221 162t284.5 57.5t284 -57.5t221 -162t143 -245t50 -305.5t-47.5 -305.5t-138 -245t-220 -162t-292.5 -57.5zM784 3q92 0 149.5 55t89 155t43 236.5t11.5 300.5t-14.5 300.5t-47.5 236.5
t-89.5 155t-141.5 55q-84 0 -141 -55t-90 -155t-47.5 -236.5t-14.5 -300.5t11.5 -300.5t42.5 -236.5t89 -155t150 -55zM785 1680q-83 0 -138.5 39.5t-83 117t-27.5 189.5h22q0 -46 34 -72t86.5 -36.5t106.5 -10.5t106.5 10.5t86.5 36.5t34 72h22q0 -112 -27.5 -189.5
t-83 -117t-138.5 -39.5z" />
    <glyph glyph-name="obreve" unicode="&#x14f;" horiz-adv-x="1134" 
d="M568 -20q-156 0 -268.5 66t-173.5 175t-61 239t61 239t173.5 175t268.5 66q155 0 267.5 -66t173 -175t60.5 -239t-60.5 -239t-173 -175t-267.5 -66zM568 5q42 0 73 34t50 95.5t28.5 144.5t9.5 181t-9.5 181t-28.5 144.5t-50 95.5t-73 34q-43 0 -74 -34t-50 -95.5
t-28 -144.5t-9 -181t9 -181t28 -144.5t50 -95.5t74 -34zM568 1100q-83 0 -138.5 39.5t-83 117t-27.5 189.5h22q0 -46 34 -72t86.5 -36.5t106.5 -10.5t106.5 10.5t86.5 36.5t34 72h22q0 -112 -27.5 -189.5t-83 -117t-138.5 -39.5z" />
    <glyph glyph-name="Ohungarumlaut" unicode="&#x150;" horiz-adv-x="1566" 
d="M784 -20q-163 0 -292.5 57.5t-220 162t-138.5 245t-48 305.5t50.5 305.5t143 245t221 162t284.5 57.5t284 -57.5t221 -162t143 -245t50 -305.5t-47.5 -305.5t-138 -245t-220 -162t-292.5 -57.5zM784 3q92 0 149.5 55t89 155t43 236.5t11.5 300.5t-14.5 300.5t-47.5 236.5
t-89.5 155t-141.5 55q-84 0 -141 -55t-90 -155t-47.5 -236.5t-14.5 -300.5t11.5 -300.5t42.5 -236.5t89 -155t150 -55zM435 1676l-13 17l158 254q34 60 85 76t98.5 1.5t69.5 -47.5q27 -39 21.5 -89.5t-40.5 -91.5t-98 -52zM918 1676l-12 17l157 254q34 60 85 76t98.5 1.5
t69.5 -47.5q27 -39 21.5 -89.5t-40.5 -91.5t-98 -52z" />
    <glyph glyph-name="ohungarumlaut" unicode="&#x151;" horiz-adv-x="1134" 
d="M568 -20q-156 0 -268.5 66t-173.5 175t-61 239t61 239t173.5 175t268.5 66q155 0 267.5 -66t173 -175t60.5 -239t-60.5 -239t-173 -175t-267.5 -66zM568 5q42 0 73 34t50 95.5t28.5 144.5t9.5 181t-9.5 181t-28.5 144.5t-50 95.5t-73 34q-43 0 -74 -34t-50 -95.5
t-28 -144.5t-9 -181t9 -181t28 -144.5t50 -95.5t74 -34zM219 1096l-13 17l158 254q34 60 85 76t98.5 1.5t69.5 -47.5q27 -39 21.5 -89.5t-40.5 -91.5t-98 -52zM702 1096l-12 17l157 254q34 60 85 76t98.5 1.5t69.5 -47.5q27 -39 21.5 -89.5t-40.5 -91.5t-98 -52z" />
    <glyph glyph-name="OE" unicode="&#x152;" horiz-adv-x="2029" 
d="M486 750q0 153 18 285t56 231t100.5 154t150.5 55l-49 25q-203 0 -356.5 -95t-239.5 -264t-86 -391t86 -391t239.5 -264t356.5 -95l49 25q-88 0 -150.5 55t-100.5 154t-56 231t-18 285zM761 0v25h180v1450h-180v25h1185v-410h-25q-22 107 -82 194.5t-151.5 139
t-208.5 51.5h-172v-1450h152q137 0 236.5 53.5t161.5 149t84 222.5h25v-450h-1205zM1625 512q-22 67 -66 124.5t-100 92.5t-113 35h-105v24h105q57 0 112.5 32.5t100 87.5t66.5 122h25v-518h-25z" />
    <glyph glyph-name="oe" unicode="&#x153;" horiz-adv-x="1739" 
d="M568 -20q-156 0 -268.5 66t-173.5 175t-61 239t61 239t173.5 175t268.5 66q155 0 267.5 -66t173 -175t60.5 -239t-60.5 -239t-173 -175t-267.5 -66zM568 5q42 0 73 34t50 95.5t28.5 144.5t9.5 181t-9.5 181t-28.5 144.5t-50 95.5t-73 34q-43 0 -74 -34t-50 -95.5
t-28 -144.5t-9 -181t9 -181t28 -144.5t50 -95.5t74 -34zM1233 -20q-145 0 -258 54.5t-178 161.5t-65 264t63 264t174.5 161.5t256.5 54.5q149 0 248 -60.5t149.5 -157t50.5 -205.5h-808v25h471q0 67 -3 132.5t-14 120.5t-33 87.5t-61 32.5q-41 0 -67.5 -34t-42 -93
t-21.5 -136t-6 -163q0 -102 8.5 -188.5t31 -150t63.5 -99t106 -35.5q130 0 223.5 75t130.5 191h26q-39 -129 -147.5 -215.5t-297.5 -86.5z" />
    <glyph glyph-name="Racute" unicode="&#x154;" horiz-adv-x="1536" 
d="M396 765v16h285q96 0 159.5 35t95 111.5t31.5 200.5t-31.5 200.5t-95 111.5t-159.5 35h-646v25h719q173 0 306 -39t208 -121t75 -212t-71 -210t-203 -116.5t-315 -36.5h-358zM35 0v25h748v-25h-748zM226 13v1475h366v-1475h-366zM1244 -17q-109 0 -171.5 32.5t-92.5 87.5
t-39.5 124t-10 142t-5 142t-26 124.5t-71.5 87.5t-142 32h-290v15h506q136 0 216 -40.5t118.5 -107t50.5 -146t11.5 -158.5t1.5 -145.5t21.5 -107t72.5 -40.5q31 0 60 7.5t50 17.5l8 -23q-24 -13 -95.5 -28.5t-172.5 -15.5zM571 1677l-12 17l157 254q34 60 85 76t98.5 1.5
t70.5 -47.5q26 -39 20.5 -89.5t-40.5 -91.5t-97 -52z" />
    <glyph glyph-name="racute" unicode="&#x155;" horiz-adv-x="1035" 
d="M482 431q0 106 15.5 198.5t49.5 162t90.5 108.5t138.5 39q75 0 126.5 -34t78.5 -87.5t27 -110.5q0 -78 -52.5 -137t-136.5 -59t-137.5 53.5t-53.5 125.5q0 80 52 134.5t137 54.5q55 0 97.5 -25t67 -64t24.5 -83h-24q0 52 -24.5 99.5t-71.5 77.5t-113 30q-71 0 -123 -36
t-85.5 -102t-50.5 -154t-17 -191h-15zM497 920v-895h161v-25h-623v25h137v870h-137v25h462zM462 1097l-12 17l157 254q34 60 85 76t98.5 1.5t70.5 -47.5q26 -39 20.5 -89.5t-40.5 -91.5t-97 -52z" />
    <glyph glyph-name="uni0156" unicode="&#x156;" horiz-adv-x="1536" 
d="M396 765v16h285q96 0 159.5 35t95 111.5t31.5 200.5t-31.5 200.5t-95 111.5t-159.5 35h-646v25h719q173 0 306 -39t208 -121t75 -212t-71 -210t-203 -116.5t-315 -36.5h-358zM35 0v25h748v-25h-748zM226 13v1475h366v-1475h-366zM1244 -17q-109 0 -171.5 32.5t-92.5 87.5
t-39.5 124t-10 142t-5 142t-26 124.5t-71.5 87.5t-142 32h-290v15h506q136 0 216 -40.5t118.5 -107t50.5 -146t11.5 -158.5t1.5 -145.5t21.5 -107t72.5 -40.5q31 0 60 7.5t50 17.5l8 -23q-24 -13 -95.5 -28.5t-172.5 -15.5zM627 -748v21q104 0 185.5 45t123.5 128t26 198h6
q1 -41 -24 -78t-64.5 -59.5t-84.5 -22.5q-78 0 -121.5 49.5t-43.5 114.5q0 44 24 82t64.5 60.5t88.5 22.5q73 0 127.5 -60t54.5 -163q0 -97 -45 -173.5t-126 -120.5t-191 -44z" />
    <glyph glyph-name="uni0157" unicode="&#x157;" horiz-adv-x="1035" 
d="M482 431q0 106 15.5 198.5t49.5 162t90.5 108.5t138.5 39q75 0 126.5 -34t78.5 -87.5t27 -110.5q0 -78 -52.5 -137t-136.5 -59t-137.5 53.5t-53.5 125.5q0 80 52 134.5t137 54.5q55 0 97.5 -25t67 -64t24.5 -83h-24q0 52 -24.5 99.5t-71.5 77.5t-113 30q-71 0 -123 -36
t-85.5 -102t-50.5 -154t-17 -191h-15zM497 920v-895h161v-25h-623v25h137v870h-137v25h462zM172 -748v21q104 0 185.5 45t123.5 128t26 198h6q1 -41 -24 -78t-64.5 -59.5t-84.5 -22.5q-78 0 -121.5 49.5t-43.5 114.5q0 44 24 82t64.5 60.5t88.5 22.5q73 0 127.5 -60
t54.5 -163q0 -97 -45 -173.5t-126 -120.5t-191 -44z" />
    <glyph glyph-name="Rcaron" unicode="&#x158;" horiz-adv-x="1536" 
d="M396 765v16h285q96 0 159.5 35t95 111.5t31.5 200.5t-31.5 200.5t-95 111.5t-159.5 35h-646v25h719q173 0 306 -39t208 -121t75 -212t-71 -210t-203 -116.5t-315 -36.5h-358zM35 0v25h748v-25h-748zM226 13v1475h366v-1475h-366zM1244 -17q-109 0 -171.5 32.5t-92.5 87.5
t-39.5 124t-10 142t-5 142t-26 124.5t-71.5 87.5t-142 32h-290v15h506q136 0 216 -40.5t118.5 -107t50.5 -146t11.5 -158.5t1.5 -145.5t21.5 -107t72.5 -40.5q31 0 60 7.5t50 17.5l8 -23q-24 -13 -95.5 -28.5t-172.5 -15.5zM582 1700l-250 293l13 12l331 -142l331 142
l13 -12l-250 -293h-188z" />
    <glyph glyph-name="rcaron" unicode="&#x159;" horiz-adv-x="1035" 
d="M482 431q0 106 15.5 198.5t49.5 162t90.5 108.5t138.5 39q75 0 126.5 -34t78.5 -87.5t27 -110.5q0 -78 -52.5 -137t-136.5 -59t-137.5 53.5t-53.5 125.5q0 80 52 134.5t137 54.5q55 0 97.5 -25t67 -64t24.5 -83h-24q0 52 -24.5 99.5t-71.5 77.5t-113 30q-71 0 -123 -36
t-85.5 -102t-50.5 -154t-17 -191h-15zM497 920v-895h161v-25h-623v25h137v870h-137v25h462zM473 1120l-250 293l13 12l331 -142l331 142l13 -12l-250 -293h-188z" />
    <glyph glyph-name="Sacute" unicode="&#x15a;" horiz-adv-x="1233" 
d="M637 -29q-102 0 -181.5 34t-139.5 91l-207 -116h-23v498h26q33 -85 77.5 -170.5t106 -156t143 -113t189.5 -42.5q90 0 155 36t99.5 97.5t34.5 138.5q0 78 -44 130t-116 90t-158 72t-172.5 75.5t-158.5 102t-115.5 149.5t-43.5 219q0 132 65 224.5t169.5 141t223.5 48.5
q85 0 157.5 -27.5t132.5 -79.5l200 107h21v-469h-26q-49 133 -115.5 232.5t-155.5 154.5t-205 55q-109 0 -166.5 -61.5t-57.5 -155.5q0 -70 43.5 -118.5t115 -86.5t157 -74.5t171.5 -81t157.5 -106.5t115 -150.5t43.5 -214.5q0 -145 -70.5 -251t-188.5 -164t-259 -58z
M495 1677l-12 17l157 254q34 60 85 76t98.5 1.5t70.5 -47.5q26 -39 20.5 -89.5t-40.5 -91.5t-97 -52z" />
    <glyph glyph-name="sacute" unicode="&#x15b;" horiz-adv-x="913" 
d="M77 -20v326h26q36 -96 90.5 -163t126.5 -102t161 -35q62 0 107.5 16.5t71 45.5t25.5 69q0 49 -42.5 78.5t-109.5 51.5t-142 47t-142 63.5t-109.5 101.5t-42.5 163q0 86 41 152.5t114 105t168 38.5q69 0 124.5 -22.5t98.5 -58.5l124 83h22v-280h-25q-36 68 -83 125
t-110.5 92t-149.5 35q-50 0 -87 -15.5t-57.5 -41.5t-20.5 -59q0 -48 43.5 -78t112 -53t145.5 -48t145.5 -63.5t112 -99.5t43.5 -156q0 -111 -55 -181.5t-140 -103.5t-174 -33q-80 0 -146.5 25t-118.5 72l-125 -97h-22zM347 1097l-12 17l157 254q34 60 85 76t98.5 1.5
t70.5 -47.5q26 -39 20.5 -89.5t-40.5 -91.5t-97 -52z" />
    <glyph glyph-name="Scircumflex" unicode="&#x15c;" horiz-adv-x="1233" 
d="M637 -29q-102 0 -181.5 34t-139.5 91l-207 -116h-23v498h26q33 -85 77.5 -170.5t106 -156t143 -113t189.5 -42.5q90 0 155 36t99.5 97.5t34.5 138.5q0 78 -44 130t-116 90t-158 72t-172.5 75.5t-158.5 102t-115.5 149.5t-43.5 219q0 132 65 224.5t169.5 141t223.5 48.5
q85 0 157.5 -27.5t132.5 -79.5l200 107h21v-469h-26q-49 133 -115.5 232.5t-155.5 154.5t-205 55q-109 0 -166.5 -61.5t-57.5 -155.5q0 -70 43.5 -118.5t115 -86.5t157 -74.5t171.5 -81t157.5 -106.5t115 -150.5t43.5 -214.5q0 -145 -70.5 -251t-188.5 -164t-259 -58z
M269 1704l-13 12l250 293h188l250 -293l-13 -12l-332 142z" />
    <glyph glyph-name="scircumflex" unicode="&#x15d;" horiz-adv-x="913" 
d="M77 -20v326h26q36 -96 90.5 -163t126.5 -102t161 -35q62 0 107.5 16.5t71 45.5t25.5 69q0 49 -42.5 78.5t-109.5 51.5t-142 47t-142 63.5t-109.5 101.5t-42.5 163q0 86 41 152.5t114 105t168 38.5q69 0 124.5 -22.5t98.5 -58.5l124 83h22v-280h-25q-36 68 -83 125
t-110.5 92t-149.5 35q-50 0 -87 -15.5t-57.5 -41.5t-20.5 -59q0 -48 43.5 -78t112 -53t145.5 -48t145.5 -63.5t112 -99.5t43.5 -156q0 -111 -55 -181.5t-140 -103.5t-174 -33q-80 0 -146.5 25t-118.5 72l-125 -97h-22zM121 1124l-13 12l250 293h188l250 -293l-13 -12
l-332 142z" />
    <glyph glyph-name="Scedilla" unicode="&#x15e;" horiz-adv-x="1233" 
d="M637 -29q-102 0 -181.5 34t-139.5 91l-207 -116h-23v498h26q33 -85 77.5 -170.5t106 -156t143 -113t189.5 -42.5q90 0 155 36t99.5 97.5t34.5 138.5q0 78 -44 130t-116 90t-158 72t-172.5 75.5t-158.5 102t-115.5 149.5t-43.5 219q0 132 65 224.5t169.5 141t223.5 48.5
q85 0 157.5 -27.5t132.5 -79.5l200 107h21v-469h-26q-49 133 -115.5 232.5t-155.5 154.5t-205 55q-109 0 -166.5 -61.5t-57.5 -155.5q0 -70 43.5 -118.5t115 -86.5t157 -74.5t171.5 -81t157.5 -106.5t115 -150.5t43.5 -214.5q0 -145 -70.5 -251t-188.5 -164t-259 -58z
M460 -522v24q88 0 127 36t39 94q0 52 -24.5 78t-63 34.5t-81.5 8.5l172 232h31l-112 -152q104 -3 180 -20t117 -51.5t41 -90.5q0 -50 -38 -94.5t-131 -71.5t-257 -27z" />
    <glyph glyph-name="scedilla" unicode="&#x15f;" horiz-adv-x="913" 
d="M77 -20v326h26q36 -96 90.5 -163t126.5 -102t161 -35q62 0 107.5 16.5t71 45.5t25.5 69q0 49 -42.5 78.5t-109.5 51.5t-142 47t-142 63.5t-109.5 101.5t-42.5 163q0 86 41 152.5t114 105t168 38.5q69 0 124.5 -22.5t98.5 -58.5l124 83h22v-280h-25q-36 68 -83 125
t-110.5 92t-149.5 35q-50 0 -87 -15.5t-57.5 -41.5t-20.5 -59q0 -48 43.5 -78t112 -53t145.5 -48t145.5 -63.5t112 -99.5t43.5 -156q0 -111 -55 -181.5t-140 -103.5t-174 -33q-80 0 -146.5 25t-118.5 72l-125 -97h-22zM300 -517v24q88 0 127 36t39 94q0 52 -24.5 78
t-63 34.5t-81.5 8.5l172 232h31l-112 -152q104 -3 180 -20t117 -51.5t41 -90.5q0 -50 -38 -94.5t-131 -71.5t-257 -27z" />
    <glyph glyph-name="Scaron" unicode="&#x160;" horiz-adv-x="1233" 
d="M637 -29q-102 0 -181.5 34t-139.5 91l-207 -116h-23v498h26q33 -85 77.5 -170.5t106 -156t143 -113t189.5 -42.5q90 0 155 36t99.5 97.5t34.5 138.5q0 78 -44 130t-116 90t-158 72t-172.5 75.5t-158.5 102t-115.5 149.5t-43.5 219q0 132 65 224.5t169.5 141t223.5 48.5
q85 0 157.5 -27.5t132.5 -79.5l200 107h21v-469h-26q-49 133 -115.5 232.5t-155.5 154.5t-205 55q-109 0 -166.5 -61.5t-57.5 -155.5q0 -70 43.5 -118.5t115 -86.5t157 -74.5t171.5 -81t157.5 -106.5t115 -150.5t43.5 -214.5q0 -145 -70.5 -251t-188.5 -164t-259 -58z
M506 1700l-250 293l13 12l331 -142l331 142l13 -12l-250 -293h-188z" />
    <glyph glyph-name="scaron" unicode="&#x161;" horiz-adv-x="913" 
d="M77 -20v326h26q36 -96 90.5 -163t126.5 -102t161 -35q62 0 107.5 16.5t71 45.5t25.5 69q0 49 -42.5 78.5t-109.5 51.5t-142 47t-142 63.5t-109.5 101.5t-42.5 163q0 86 41 152.5t114 105t168 38.5q69 0 124.5 -22.5t98.5 -58.5l124 83h22v-280h-25q-36 68 -83 125
t-110.5 92t-149.5 35q-50 0 -87 -15.5t-57.5 -41.5t-20.5 -59q0 -48 43.5 -78t112 -53t145.5 -48t145.5 -63.5t112 -99.5t43.5 -156q0 -111 -55 -181.5t-140 -103.5t-174 -33q-80 0 -146.5 25t-118.5 72l-125 -97h-22zM358 1120l-250 293l13 12l331 -142l331 142l13 -12
l-250 -293h-188z" />
    <glyph glyph-name="uni0162" unicode="&#x162;" horiz-adv-x="1412" 
d="M304 0v25h220v1450h-90q-77 0 -138.5 -37t-108 -102t-78.5 -150t-48 -180h-26v494h1343v-494h-25q-16 95 -48 180t-78.5 150t-108 102t-138.5 37h-90v-1450h220v-25h-806zM519 -504v24q88 0 127 36t39 94q0 52 -24.5 78t-63 34.5t-81.5 8.5l172 232h31l-112 -152
q104 -3 180 -20t117 -51.5t41 -90.5q0 -50 -38 -94.5t-131 -71.5t-257 -27z" />
    <glyph glyph-name="uni0163" unicode="&#x163;" horiz-adv-x="768" 
d="M417 -14q-104 0 -159.5 30.5t-77 87t-21.5 133.5v883q78 0 171 13.5t156 46.5v-983q0 -75 17.5 -108.5t58.5 -33.5q44 0 94 38t81 115l23 -10q-37 -93 -122 -152.5t-221 -59.5zM15 895v25h685v-25h-685zM232 -504v24q88 0 127 36t39 94q0 52 -24.5 78t-63 34.5t-81.5 8.5
l172 232h31l-112 -152q104 -3 180 -20t117 -51.5t41 -90.5q0 -50 -38 -94.5t-131 -71.5t-257 -27z" />
    <glyph glyph-name="Tcaron" unicode="&#x164;" horiz-adv-x="1412" 
d="M304 0v25h220v1450h-90q-77 0 -138.5 -37t-108 -102t-78.5 -150t-48 -180h-26v494h1343v-494h-25q-16 95 -48 180t-78.5 150t-108 102t-138.5 37h-90v-1450h220v-25h-806zM621 1700l-250 293l13 12l331 -142l331 142l13 -12l-250 -293h-188z" />
    <glyph glyph-name="tcaron" unicode="&#x165;" horiz-adv-x="768" 
d="M417 -14q-104 0 -159.5 30.5t-77 87t-21.5 133.5v883q78 0 171 13.5t156 46.5v-983q0 -75 17.5 -108.5t58.5 -33.5q44 0 94 38t81 115l23 -10q-37 -93 -122 -152.5t-221 -59.5zM15 895v25h685v-25h-685zM609 1075v21q74 0 137 25t107.5 72t64.5 113t8 148h6
q1 -39 -22 -73.5t-61 -56t-80 -21.5q-75 0 -116 46.5t-41 108.5q0 63 50 109.5t118 46.5q70 0 122 -57.5t52 -155.5q0 -94 -42.5 -167.5t-120 -116t-182.5 -42.5z" />
    <glyph glyph-name="Tbar" unicode="&#x166;" horiz-adv-x="1397" 
d="M311 676v25h793v-25h-793zM304 0v25h220v1450h-90q-77 0 -138.5 -37t-108 -102t-78.5 -150t-48 -180h-26v494h1343v-494h-25q-16 95 -48 180t-78.5 150t-108 102t-138.5 37h-90v-1450h220v-25h-806z" />
    <glyph glyph-name="tbar" unicode="&#x167;" horiz-adv-x="768" 
d="M16 557v24h684v-24h-684zM417 -14q-104 0 -159.5 30.5t-77 87t-21.5 133.5v883q79 0 171.5 13.5t155.5 46.5v-983q0 -75 17.5 -108.5t58.5 -33.5q44 0 94 38t81 115l23 -10q-37 -93 -122 -152.5t-221 -59.5zM15 895v25h685v-25h-685z" />
    <glyph glyph-name="Utilde" unicode="&#x168;" horiz-adv-x="1484" 
d="M1447 1500v-25h-192v-1015q0 -247 -117 -368t-365 -121q-292 0 -425 115t-133 374v1015h-181v25h747v-25h-200v-995q0 -99 10.5 -184t40.5 -148t87 -99t148 -36q106 0 188 45t128.5 143.5t46.5 258.5v1015h-183v25h400zM1000 1651q-62 0 -108.5 23.5t-86.5 55t-83 55
t-98 23.5q-54 0 -84.5 -31.5t-30.5 -76.5h-25q0 85 20.5 156t64.5 114t115 43q65 0 110 -24t82.5 -55t75.5 -55t88 -24q57 0 86 31.5t29 76.5h25q0 -94 -11.5 -164.5t-49.5 -109t-119 -38.5z" />
    <glyph glyph-name="utilde" unicode="&#x169;" horiz-adv-x="1279" 
d="M458 -20q-111 0 -173 39.5t-87.5 107.5t-25.5 155v613h-137v25h463v-628q0 -84 7 -131.5t25 -67t54 -19.5q51 0 88.5 36t61.5 95t36 129.5t12 139.5l20 2q0 -75 -13.5 -160.5t-50 -162t-104 -125t-176.5 -48.5zM782 0v895h-126v25h452v-895h136v-25h-462zM767 1071
q-62 0 -108.5 23.5t-86.5 55t-83 55t-98 23.5q-54 0 -84.5 -31.5t-30.5 -76.5h-25q0 85 20.5 156t64.5 114t115 43q65 0 110 -24t82.5 -55t75.5 -55t88 -24q57 0 86 31.5t29 76.5h25q0 -94 -11.5 -164.5t-49.5 -109t-119 -38.5z" />
    <glyph glyph-name="Umacron" unicode="&#x16a;" horiz-adv-x="1484" 
d="M1447 1500v-25h-192v-1015q0 -247 -117 -368t-365 -121q-292 0 -425 115t-133 374v1015h-181v25h747v-25h-200v-995q0 -99 10.5 -184t40.5 -148t87 -99t148 -36q106 0 188 45t128.5 143.5t46.5 258.5v1015h-183v25h400zM596 1700v25h480v-25h-480z" />
    <glyph glyph-name="umacron" unicode="&#x16b;" horiz-adv-x="1279" 
d="M458 -20q-111 0 -173 39.5t-87.5 107.5t-25.5 155v613h-137v25h463v-628q0 -84 7 -131.5t25 -67t54 -19.5q51 0 88.5 36t61.5 95t36 129.5t12 139.5l20 2q0 -75 -13.5 -160.5t-50 -162t-104 -125t-176.5 -48.5zM782 0v895h-126v25h452v-895h136v-25h-462zM362 1120v25
h480v-25h-480z" />
    <glyph glyph-name="Ubreve" unicode="&#x16c;" horiz-adv-x="1484" 
d="M1447 1500v-25h-192v-1015q0 -247 -117 -368t-365 -121q-292 0 -425 115t-133 374v1015h-181v25h747v-25h-200v-995q0 -99 10.5 -184t40.5 -148t87 -99t148 -36q106 0 188 45t128.5 143.5t46.5 258.5v1015h-183v25h400zM836 1680q-83 0 -138.5 39.5t-83 117t-27.5 189.5
h22q0 -46 34 -72t86.5 -36.5t106.5 -10.5t106.5 10.5t86.5 36.5t34 72h22q0 -112 -27.5 -189.5t-83 -117t-138.5 -39.5z" />
    <glyph glyph-name="ubreve" unicode="&#x16d;" horiz-adv-x="1279" 
d="M458 -20q-111 0 -173 39.5t-87.5 107.5t-25.5 155v613h-137v25h463v-628q0 -84 7 -131.5t25 -67t54 -19.5q51 0 88.5 36t61.5 95t36 129.5t12 139.5l20 2q0 -75 -13.5 -160.5t-50 -162t-104 -125t-176.5 -48.5zM782 0v895h-126v25h452v-895h136v-25h-462zM603 1100
q-83 0 -138.5 39.5t-83 117t-27.5 189.5h22q0 -46 34 -72t86.5 -36.5t106.5 -10.5t106.5 10.5t86.5 36.5t34 72h22q0 -112 -27.5 -189.5t-83 -117t-138.5 -39.5z" />
    <glyph glyph-name="Uring" unicode="&#x16e;" horiz-adv-x="1484" 
d="M1447 1500v-25h-192v-1015q0 -247 -117 -368t-365 -121q-292 0 -425 115t-133 374v1015h-181v25h747v-25h-200v-995q0 -99 10.5 -184t40.5 -148t87 -99t148 -36q106 0 188 45t128.5 143.5t46.5 258.5v1015h-183v25h400zM836 1680q-98 0 -153.5 52t-55.5 128
q0 77 55.5 128.5t153.5 51.5q99 0 154 -51.5t55 -128.5q0 -76 -55 -128t-154 -52zM836 1705q23 0 37.5 17.5t21 52t6.5 85.5t-6.5 85.5t-21 52t-37.5 17.5t-37.5 -17.5t-21 -52t-6.5 -85.5t6.5 -85.5t21 -52t37.5 -17.5z" />
    <glyph glyph-name="uring" unicode="&#x16f;" horiz-adv-x="1279" 
d="M458 -20q-111 0 -173 39.5t-87.5 107.5t-25.5 155v613h-137v25h463v-628q0 -84 7 -131.5t25 -67t54 -19.5q51 0 88.5 36t61.5 95t36 129.5t12 139.5l20 2q0 -75 -13.5 -160.5t-50 -162t-104 -125t-176.5 -48.5zM782 0v895h-126v25h452v-895h136v-25h-462zM602 1100
q-98 0 -153.5 52t-55.5 128q0 77 55.5 128.5t153.5 51.5q99 0 154 -51.5t55 -128.5q0 -76 -55 -128t-154 -52zM602 1125q23 0 37.5 17.5t21 52t6.5 85.5t-6.5 85.5t-21 52t-37.5 17.5t-37.5 -17.5t-21 -52t-6.5 -85.5t6.5 -85.5t21 -52t37.5 -17.5z" />
    <glyph glyph-name="Uhungarumlaut" unicode="&#x170;" horiz-adv-x="1484" 
d="M1447 1500v-25h-192v-1015q0 -247 -117 -368t-365 -121q-292 0 -425 115t-133 374v1015h-181v25h747v-25h-200v-995q0 -99 10.5 -184t40.5 -148t87 -99t148 -36q106 0 188 45t128.5 143.5t46.5 258.5v1015h-183v25h400zM486 1676l-13 17l158 254q34 60 85 76t98.5 1.5
t69.5 -47.5q27 -39 21.5 -89.5t-40.5 -91.5t-98 -52zM969 1676l-12 17l157 254q34 60 85 76t98.5 1.5t69.5 -47.5q27 -39 21.5 -89.5t-40.5 -91.5t-98 -52z" />
    <glyph glyph-name="uhungarumlaut" unicode="&#x171;" horiz-adv-x="1279" 
d="M458 -20q-111 0 -173 39.5t-87.5 107.5t-25.5 155v613h-137v25h463v-628q0 -84 7 -131.5t25 -67t54 -19.5q51 0 88.5 36t61.5 95t36 129.5t12 139.5l20 2q0 -75 -13.5 -160.5t-50 -162t-104 -125t-176.5 -48.5zM782 0v895h-126v25h452v-895h136v-25h-462zM253 1096
l-13 17l158 254q34 60 85 76t98.5 1.5t69.5 -47.5q27 -39 21.5 -89.5t-40.5 -91.5t-98 -52zM736 1096l-12 17l157 254q34 60 85 76t98.5 1.5t69.5 -47.5q27 -39 21.5 -89.5t-40.5 -91.5t-98 -52z" />
    <glyph glyph-name="Uogonek" unicode="&#x172;" horiz-adv-x="1484" 
d="M1447 1500v-25h-192v-1015q0 -247 -117 -368t-365 -121q-292 0 -425 115t-133 374v1015h-181v25h747v-25h-200v-995q0 -99 10.5 -184t40.5 -148t87 -99t148 -36q106 0 188 45t128.5 143.5t46.5 258.5v1015h-183v25h400zM901 -460q-72 0 -131 18t-93.5 56t-34.5 98t35 111
t91.5 92.5t123 71.5t128.5 47l7 -17q-15 -10 -34.5 -42.5t-33.5 -84t-14 -118.5q0 -82 27.5 -123.5t66.5 -41.5q36 0 59 25.5t44 63.5l19 -10q-15 -28 -40 -62t-76 -59t-144 -25z" />
    <glyph glyph-name="uogonek" unicode="&#x173;" horiz-adv-x="1279" 
d="M458 -20q-111 0 -173 39.5t-87.5 107.5t-25.5 155v613h-137v25h463v-628q0 -84 7 -131.5t25 -67t54 -19.5q51 0 88.5 36t61.5 95t36 129.5t12 139.5l20 2q0 -75 -13.5 -160.5t-50 -162t-104 -125t-176.5 -48.5zM782 0v895h-126v25h452v-895h136v-25h-462zM931 -460
q-72 0 -131 18t-93.5 56t-34.5 98t35 111t91.5 92.5t123 71.5t128.5 47l7 -17q-15 -10 -34.5 -42.5t-33.5 -84t-14 -118.5q0 -82 27.5 -123.5t66.5 -41.5q36 0 59 25.5t44 63.5l19 -10q-15 -28 -40 -62t-76 -59t-144 -25z" />
    <glyph glyph-name="Wcircumflex" unicode="&#x174;" horiz-adv-x="2335" 
d="M762 -20l-580 1495h-158v25h1799v-25h-562l421 -1103l420 1103h-193v25h403v-25h-183l-567 -1495h-99l-580 1495h-278l422 -1103l167 436l14 -38l-302 -790h-144zM1426 914l-23 16l220 563l28 -2zM942 1704l-13 12l250 293h188l250 -293l-13 -12l-332 142z" />
    <glyph glyph-name="wcircumflex" unicode="&#x175;" horiz-adv-x="1711" 
d="M1707 920v-25h-180l-305 -915h-130l-257 695l-277 -695h-130l-297 915h-130v25h648v-25h-172l170 -620l265 665h212l184 -618l192 573h-206v25h413zM563 1124l-13 12l250 293h188l250 -293l-13 -12l-332 142z" />
    <glyph glyph-name="Ycircumflex" unicode="&#x176;" horiz-adv-x="1506" 
d="M410 0v25h179v695l-428 755h-137v25h755v-25h-194l360 -681l336 681h-218v25h418v-25h-170l-356 -716v-734h200v-25h-745zM501 1704l-13 12l250 293h188l250 -293l-13 -12l-332 142z" />
    <glyph glyph-name="ycircumflex" unicode="&#x177;" horiz-adv-x="1253" 
d="M521 895l298 -577l-187 -369l-508 946h-137v25h738v-25h-204zM1273 920v-25h-163l-613 -1264q-31 -63 -78.5 -106t-122.5 -43q-44 0 -84.5 19.5t-67 57.5t-26.5 94q0 52 25 92.5t67 63.5t92 23q47 0 88 -25.5t64.5 -70t16.5 -100.5l609 1259h-201v25h394zM342 1124
l-13 12l250 293h188l250 -293l-13 -12l-332 142z" />
    <glyph glyph-name="Ydieresis" unicode="&#x178;" horiz-adv-x="1506" 
d="M410 0v25h179v695l-428 755h-137v25h755v-25h-194l360 -681l336 681h-218v25h418v-25h-170l-356 -716v-734h200v-25h-745zM1031 1683q-51 0 -87.5 36.5t-36.5 87.5t36.5 87.5t87.5 36.5t87.5 -36.5t36.5 -87.5t-36.5 -87.5t-87.5 -36.5zM631 1683q-51 0 -87 36.5
t-36 87.5t36 87.5t88 36.5q51 0 87.5 -36.5t36.5 -87.5t-36.5 -87.5t-88.5 -36.5z" />
    <glyph glyph-name="Zacute" unicode="&#x179;" horiz-adv-x="1290" 
d="M25 0v25l761 1450h-262q-137 0 -221.5 -45t-133.5 -126t-78 -188h-25v384h1135v-25l-761 -1450h322q137 0 221.5 47t133.5 136t78 216h25v-424h-1195zM529 1677l-12 17l157 254q34 60 85 76t98.5 1.5t70.5 -47.5q26 -39 20.5 -89.5t-40.5 -91.5t-97 -52z" />
    <glyph glyph-name="zacute" unicode="&#x17a;" horiz-adv-x="986" 
d="M26 0v25l529 870h-124q-84 0 -149.5 -37.5t-109.5 -109t-66 -172.5h-24v344h836v-25l-531 -870h168q81 0 142.5 18.5t106.5 59.5t75 106.5t47 158.5h24v-368h-924zM402 1097l-12 17l157 254q34 60 85 76t98.5 1.5t70.5 -47.5q26 -39 20.5 -89.5t-40.5 -91.5t-97 -52z" />
    <glyph glyph-name="Zdotaccent" unicode="&#x17b;" horiz-adv-x="1290" 
d="M25 0v25l761 1450h-262q-137 0 -221.5 -45t-133.5 -126t-78 -188h-25v384h1135v-25l-761 -1450h322q137 0 221.5 47t133.5 136t78 216h25v-424h-1195zM633 1713q-82 0 -137.5 55.5t-55.5 137.5q0 83 55.5 138t137.5 55q83 0 138.5 -55t55.5 -138q0 -82 -55.5 -137.5
t-138.5 -55.5z" />
    <glyph glyph-name="zdotaccent" unicode="&#x17c;" horiz-adv-x="986" 
d="M26 0v25l529 870h-124q-84 0 -149.5 -37.5t-109.5 -109t-66 -172.5h-24v344h836v-25l-531 -870h168q81 0 142.5 18.5t106.5 59.5t75 106.5t47 158.5h24v-368h-924zM505 1133q-82 0 -137.5 55.5t-55.5 137.5q0 83 55.5 138t137.5 55q83 0 138.5 -55t55.5 -138
q0 -82 -55.5 -137.5t-138.5 -55.5z" />
    <glyph glyph-name="Zcaron" unicode="&#x17d;" horiz-adv-x="1290" 
d="M25 0v25l761 1450h-262q-137 0 -221.5 -45t-133.5 -126t-78 -188h-25v384h1135v-25l-761 -1450h322q137 0 221.5 47t133.5 136t78 216h25v-424h-1195zM540 1700l-250 293l13 12l331 -142l331 142l13 -12l-250 -293h-188z" />
    <glyph glyph-name="zcaron" unicode="&#x17e;" horiz-adv-x="986" 
d="M26 0v25l529 870h-124q-84 0 -149.5 -37.5t-109.5 -109t-66 -172.5h-24v344h836v-25l-531 -870h168q81 0 142.5 18.5t106.5 59.5t75 106.5t47 158.5h24v-368h-924zM412 1120l-250 293l13 12l331 -142l331 142l13 -12l-250 -293h-188z" />
    <glyph glyph-name="longs" unicode="&#x17f;" horiz-adv-x="830" 
d="M729 1520q92 0 157 -38t99 -94t34 -110q0 -89 -56.5 -135.5t-124.5 -46.5q-40 0 -80.5 17t-68.5 54.5t-28 95.5q0 55 25.5 93.5t66.5 58t85 17.5q39 -1 74.5 -22t47.5 -58q-13 41 -44.5 73t-74.5 50.5t-90 18.5q-84 0 -136 -51t-76 -143.5t-24 -219.5v-1055h236v-25h-724
v25h176v998q0 146 67 258t185 175.5t274 63.5z" />
    <glyph glyph-name="florin" unicode="&#x192;" horiz-adv-x="837" 
d="M-109 -520q-96 0 -174.5 34t-125 89.5t-46.5 121.5q0 56 25.5 98.5t67 65.5t89.5 23q44 0 86.5 -20t71 -59.5t28.5 -97.5q0 -54 -27 -87.5t-68 -49.5t-87 -16q-40 0 -82.5 20t-72 52.5t-29.5 70.5h24q0 -48 26.5 -88t72.5 -69.5t104.5 -46t123.5 -16.5q60 0 106.5 53
t78.5 146.5t44 215.5l113 1103q14 145 95 257t212.5 176t298.5 64q96 0 167 -33.5t110.5 -87t39.5 -114.5q0 -88 -54 -142.5t-127 -54.5q-43 0 -86.5 20t-72.5 59.5t-29 97.5q0 54 27 87.5t69 49.5t84 16q38 0 81.5 -18.5t74.5 -49t31 -65.5h-23q0 44 -23 81.5t-63 66.5
t-91 45.5t-108 16.5q-81 0 -136.5 -53t-89 -146t-47.5 -216l-122 -1103q-16 -143 -87 -255.5t-192.5 -177t-287.5 -64.5zM63 895v25h787v-25h-787z" />
    <glyph glyph-name="uni0212" unicode="&#x212;" horiz-adv-x="1536" 
d="M396 765v16h285q96 0 159.5 35t95 111.5t31.5 200.5t-31.5 200.5t-95 111.5t-159.5 35h-646v25h719q173 0 306 -39t208 -121t75 -212t-71 -210t-203 -116.5t-315 -36.5h-358zM35 0v25h748v-25h-748zM226 13v1475h366v-1475h-366zM1244 -17q-109 0 -171.5 32.5t-92.5 87.5
t-39.5 124t-10 142t-5 142t-26 124.5t-71.5 87.5t-142 32h-290v15h506q136 0 216 -40.5t118.5 -107t50.5 -146t11.5 -158.5t1.5 -145.5t21.5 -107t72.5 -40.5q31 0 60 7.5t50 17.5l8 -23q-24 -13 -95.5 -28.5t-172.5 -15.5zM429 1681q0 112 27.5 189t83 117t138.5 40
t138.5 -40t83 -117t27.5 -189h-22q0 45 -34 71t-86.5 36.5t-106.5 10.5t-106.5 -10.5t-86.5 -36.5t-34 -71h-22z" />
    <glyph glyph-name="uni0213" unicode="&#x213;" horiz-adv-x="1035" 
d="M482 431q0 106 15.5 198.5t49.5 162t90.5 108.5t138.5 39q75 0 126.5 -34t78.5 -87.5t27 -110.5q0 -78 -52.5 -137t-136.5 -59t-137.5 53.5t-53.5 125.5q0 80 52 134.5t137 54.5q55 0 97.5 -25t67 -64t24.5 -83h-24q0 52 -24.5 99.5t-71.5 77.5t-113 30q-71 0 -123 -36
t-85.5 -102t-50.5 -154t-17 -191h-15zM497 920v-895h161v-25h-623v25h137v870h-137v25h462zM320 1101q0 112 27.5 189t83 117t138.5 40t138.5 -40t83 -117t27.5 -189h-22q0 45 -34 71t-86.5 36.5t-106.5 10.5t-106.5 -10.5t-86.5 -36.5t-34 -71h-22z" />
    <glyph glyph-name="uni0218" unicode="&#x218;" horiz-adv-x="1233" 
d="M637 -29q-102 0 -181.5 34t-139.5 91l-207 -116h-23v498h26q33 -85 77.5 -170.5t106 -156t143 -113t189.5 -42.5q90 0 155 36t99.5 97.5t34.5 138.5q0 78 -44 130t-116 90t-158 72t-172.5 75.5t-158.5 102t-115.5 149.5t-43.5 219q0 132 65 224.5t169.5 141t223.5 48.5
q85 0 157.5 -27.5t132.5 -79.5l200 107h21v-469h-26q-49 133 -115.5 232.5t-155.5 154.5t-205 55q-109 0 -166.5 -61.5t-57.5 -155.5q0 -70 43.5 -118.5t115 -86.5t157 -74.5t171.5 -81t157.5 -106.5t115 -150.5t43.5 -214.5q0 -145 -70.5 -251t-188.5 -164t-259 -58z
M474 -766v21q104 0 185.5 45t123.5 128t26 198h6q1 -41 -24 -78t-64.5 -59.5t-84.5 -22.5q-78 0 -121.5 49.5t-43.5 114.5q0 44 24 82t64.5 60.5t88.5 22.5q73 0 127.5 -60t54.5 -163q0 -97 -45 -173.5t-126 -120.5t-191 -44z" />
    <glyph glyph-name="uni0219" unicode="&#x219;" horiz-adv-x="913" 
d="M77 -20v326h26q36 -96 90.5 -163t126.5 -102t161 -35q62 0 107.5 16.5t71 45.5t25.5 69q0 49 -42.5 78.5t-109.5 51.5t-142 47t-142 63.5t-109.5 101.5t-42.5 163q0 86 41 152.5t114 105t168 38.5q69 0 124.5 -22.5t98.5 -58.5l124 83h22v-280h-25q-36 68 -83 125
t-110.5 92t-149.5 35q-50 0 -87 -15.5t-57.5 -41.5t-20.5 -59q0 -48 43.5 -78t112 -53t145.5 -48t145.5 -63.5t112 -99.5t43.5 -156q0 -111 -55 -181.5t-140 -103.5t-174 -33q-80 0 -146.5 25t-118.5 72l-125 -97h-22zM315 -761v21q104 0 185.5 45t123.5 128t26 198h6
q1 -41 -24 -78t-64.5 -59.5t-84.5 -22.5q-78 0 -121.5 49.5t-43.5 114.5q0 44 24 82t64.5 60.5t88.5 22.5q73 0 127.5 -60t54.5 -163q0 -97 -45 -173.5t-126 -120.5t-191 -44z" />
    <glyph glyph-name="uni021A" unicode="&#x21a;" horiz-adv-x="1412" 
d="M304 0v25h220v1450h-90q-77 0 -138.5 -37t-108 -102t-78.5 -150t-48 -180h-26v494h1343v-494h-25q-16 95 -48 180t-78.5 150t-108 102t-138.5 37h-90v-1450h220v-25h-806zM534 -748v21q104 0 185.5 45t123.5 128t26 198h6q1 -41 -24 -78t-64.5 -59.5t-84.5 -22.5
q-78 0 -121.5 49.5t-43.5 114.5q0 44 24 82t64.5 60.5t88.5 22.5q73 0 127.5 -60t54.5 -163q0 -97 -45 -173.5t-126 -120.5t-191 -44z" />
    <glyph glyph-name="uni021B" unicode="&#x21b;" horiz-adv-x="768" 
d="M417 -14q-104 0 -159.5 30.5t-77 87t-21.5 133.5v883q78 0 171 13.5t156 46.5v-983q0 -75 17.5 -108.5t58.5 -33.5q44 0 94 38t81 115l23 -10q-37 -93 -122 -152.5t-221 -59.5zM15 895v25h685v-25h-685zM247 -748v21q104 0 185.5 45t123.5 128t26 198h6q1 -41 -24 -78
t-64.5 -59.5t-84.5 -22.5q-78 0 -121.5 49.5t-43.5 114.5q0 44 24 82t64.5 60.5t88.5 22.5q73 0 127.5 -60t54.5 -163q0 -97 -45 -173.5t-126 -120.5t-191 -44z" />
    <glyph glyph-name="uni0237" unicode="&#x237;" horiz-adv-x="695" 
d="M48 -520q-92 0 -166 32t-117.5 88.5t-43.5 126.5q0 78 54.5 130.5t133.5 52.5q47 0 88.5 -22.5t68.5 -61.5t27 -90q0 -71 -49.5 -119.5t-132.5 -48.5q-51 0 -93.5 24.5t-68.5 61t-26 73.5h24q0 -64 41 -114t106 -79t136 -29q73 0 112 47.5t55 126t18.5 173.5t2.5 190v853
h-176v25h502v-943q0 -98 -40.5 -187.5t-110 -159t-158.5 -110t-187 -40.5z" />
    <glyph glyph-name="circumflex" unicode="&#x2c6;" horiz-adv-x="1000" 
d="M169 1704l-13 12l250 293h188l250 -293l-13 -12l-332 142z" />
    <glyph glyph-name="caron" unicode="&#x2c7;" horiz-adv-x="1000" 
d="M406 1700l-250 293l13 12l331 -142l331 142l13 -12l-250 -293h-188z" />
    <glyph glyph-name="breve" unicode="&#x2d8;" horiz-adv-x="1000" 
d="M500 1680q-83 0 -138.5 39.5t-83 117t-27.5 189.5h22q0 -46 34 -72t86.5 -36.5t106.5 -10.5t106.5 10.5t86.5 36.5t34 72h22q0 -112 -27.5 -189.5t-83 -117t-138.5 -39.5z" />
    <glyph glyph-name="dotaccent" unicode="&#x2d9;" horiz-adv-x="1000" 
d="M500 1133q-82 0 -137.5 55.5t-55.5 137.5q0 83 55.5 138t137.5 55q83 0 138.5 -55t55.5 -138q0 -82 -55.5 -137.5t-138.5 -55.5z" />
    <glyph glyph-name="ring" unicode="&#x2da;" horiz-adv-x="1000" 
d="M500 1680q-98 0 -153.5 52t-55.5 128q0 77 55.5 128.5t153.5 51.5q99 0 154 -51.5t55 -128.5q0 -76 -55 -128t-154 -52zM500 1705q23 0 37.5 17.5t21 52t6.5 85.5t-6.5 85.5t-21 52t-37.5 17.5t-37.5 -17.5t-21 -52t-6.5 -85.5t6.5 -85.5t21 -52t37.5 -17.5z" />
    <glyph glyph-name="ogonek" unicode="&#x2db;" horiz-adv-x="1000" 
d="M500 -420q-72 0 -131 18t-93.5 56t-34.5 98t35 111t91.5 92.5t123 71.5t128.5 47l7 -17q-15 -10 -34.5 -42.5t-33.5 -84t-14 -118.5q0 -82 27.5 -123.5t66.5 -41.5q36 0 59 25.5t44 63.5l19 -10q-15 -28 -40 -62t-76 -59t-144 -25z" />
    <glyph glyph-name="tilde" unicode="&#x2dc;" horiz-adv-x="1000" 
d="M668 1651q-62 0 -108.5 23.5t-86.5 55t-83 55t-98 23.5q-54 0 -84.5 -31.5t-30.5 -76.5h-25q0 85 20.5 156t64.5 114t115 43q65 0 110 -24t82.5 -55t75.5 -55t88 -24q57 0 86 31.5t29 76.5h25q0 -94 -11.5 -164.5t-49.5 -109t-119 -38.5z" />
    <glyph glyph-name="hungarumlaut" unicode="&#x2dd;" horiz-adv-x="1000" 
d="M55 1677l-13 17l158 254q34 60 85 76t98.5 1.5t69.5 -47.5q27 -39 21.5 -89.5t-40.5 -91.5t-98 -52zM538 1677l-12 17l157 254q34 60 85 76t98.5 1.5t69.5 -47.5q27 -39 21.5 -89.5t-40.5 -91.5t-98 -52z" />
    <glyph glyph-name="gravecomb" unicode="&#x300;" 
d="M704 1677l-281 68q-62 11 -97.5 52t-40.5 91.5t21 89.5q23 33 70 47.5t98.5 -1.5t84.5 -76l158 -254z" />
    <glyph glyph-name="acutecomb" unicode="&#x301;" 
d="M296 1677l-12 17l157 254q34 60 85 76t98.5 1.5t70.5 -47.5q26 -39 20.5 -89.5t-40.5 -91.5t-97 -52z" />
    <glyph glyph-name="uni0302" unicode="&#x302;" 
d="M169 1704l-13 12l250 293h188l250 -293l-13 -12l-332 142z" />
    <glyph glyph-name="tildecomb" unicode="&#x303;" 
d="M668 1651q-62 0 -108.5 23.5t-86.5 55t-83 55t-98 23.5q-54 0 -84.5 -31.5t-30.5 -76.5h-25q0 85 20.5 156t64.5 114t115 43q65 0 110 -24t82.5 -55t75.5 -55t88 -24q57 0 86 31.5t29 76.5h25q0 -94 -11.5 -164.5t-49.5 -109t-119 -38.5z" />
    <glyph glyph-name="uni0304" unicode="&#x304;" 
d="M260 1700v25h480v-25h-480z" />
    <glyph glyph-name="uni0306" unicode="&#x306;" 
d="M500 1680q-83 0 -138.5 39.5t-83 117t-27.5 189.5h22q0 -46 34 -72t86.5 -36.5t106.5 -10.5t106.5 10.5t86.5 36.5t34 72h22q0 -112 -27.5 -189.5t-83 -117t-138.5 -39.5z" />
    <glyph glyph-name="uni0307" unicode="&#x307;" 
d="M500 1133q-82 0 -137.5 55.5t-55.5 137.5q0 83 55.5 138t137.5 55q83 0 138.5 -55t55.5 -138q0 -82 -55.5 -137.5t-138.5 -55.5z" />
    <glyph glyph-name="uni0308" unicode="&#x308;" 
d="M700 1683q-51 0 -87.5 36.5t-36.5 87.5t36.5 87.5t87.5 36.5t87.5 -36.5t36.5 -87.5t-36.5 -87.5t-87.5 -36.5zM300 1683q-51 0 -87 36.5t-36 87.5t36 87.5t88 36.5q51 0 87.5 -36.5t36.5 -87.5t-36.5 -87.5t-88.5 -36.5z" />
    <glyph glyph-name="uni030A" unicode="&#x30a;" 
d="M500 1680q-98 0 -153.5 52t-55.5 128q0 77 55.5 128.5t153.5 51.5q99 0 154 -51.5t55 -128.5q0 -76 -55 -128t-154 -52zM500 1705q23 0 37.5 17.5t21 52t6.5 85.5t-6.5 85.5t-21 52t-37.5 17.5t-37.5 -17.5t-21 -52t-6.5 -85.5t6.5 -85.5t21 -52t37.5 -17.5z" />
    <glyph glyph-name="uni030B" unicode="&#x30b;" 
d="M55 1677l-13 17l158 254q34 60 85 76t98.5 1.5t69.5 -47.5q27 -39 21.5 -89.5t-40.5 -91.5t-98 -52zM538 1677l-12 17l157 254q34 60 85 76t98.5 1.5t69.5 -47.5q27 -39 21.5 -89.5t-40.5 -91.5t-98 -52z" />
    <glyph glyph-name="uni030C" unicode="&#x30c;" 
d="M406 1700l-250 293l13 12l331 -142l331 142l13 -12l-250 -293h-188z" />
    <glyph glyph-name="uni0311" unicode="&#x311;" 
d="M251 1681q0 112 27.5 189t83 117t138.5 40t138.5 -40t83 -117t27.5 -189h-22q0 45 -34 71t-86.5 36.5t-106.5 10.5t-106.5 -10.5t-86.5 -36.5t-34 -71h-22z" />
    <glyph glyph-name="uni0312" unicode="&#x312;" 
d="M502 1122q-73 0 -127.5 60t-54.5 162q0 98 45 174.5t126.5 120t191.5 43.5v-21q-104 0 -186 -44.5t-123.5 -127.5t-25.5 -198h-7q-1 41 24 78t65 59.5t84 22.5q79 0 122.5 -49.5t43.5 -114.5q0 -44 -24 -82t-64.5 -60.5t-89.5 -22.5z" />
    <glyph glyph-name="dotbelowcomb" unicode="&#x323;" 
d="M500 -522q-82 0 -137.5 56t-55.5 137q0 83 55.5 138.5t137.5 55.5q83 0 138 -55.5t55 -138.5q0 -81 -55 -137t-138 -56z" />
    <glyph glyph-name="uni0326" unicode="&#x326;" 
d="M319 -748v21q104 0 185.5 45t123.5 128t26 198h6q1 -41 -24 -78t-64.5 -59.5t-84.5 -22.5q-78 0 -121.5 49.5t-43.5 114.5q0 44 24 82t64.5 60.5t88.5 22.5q73 0 127.5 -60t54.5 -163q0 -97 -45 -173.5t-126 -120.5t-191 -44z" />
    <glyph glyph-name="uni0327" unicode="&#x327;" 
d="M292 -503v24q88 0 127 36t39 94q0 52 -24.5 78t-63 34.5t-81.5 8.5l172 232h31l-112 -152q104 -3 180 -20t117 -51.5t41 -90.5q0 -50 -38 -94.5t-131 -71.5t-257 -27z" />
    <glyph glyph-name="uni0328" unicode="&#x328;" 
d="M500 -420q-72 0 -131 18t-93.5 56t-34.5 98t35 111t91.5 92.5t123 71.5t128.5 47l7 -17q-15 -10 -34.5 -42.5t-33.5 -84t-14 -118.5q0 -82 27.5 -123.5t66.5 -41.5q36 0 59 25.5t44 63.5l19 -10q-15 -28 -40 -62t-76 -59t-144 -25z" />
    <glyph glyph-name="uni0394" unicode="&#x394;" horiz-adv-x="1348" 
d="M66 0l542 1529h150l530 -1529h-423l-371 1134l-400 -1134h-28zM83 0v25h1032v-25h-1032z" />
    <glyph glyph-name="uni03A9" unicode="&#x3a9;" horiz-adv-x="1552" 
d="M626 389q-98 18 -192 60.5t-169 109.5t-120 161.5t-45 216.5q0 188 80.5 318t232.5 197.5t363 67.5q212 0 363.5 -67.5t232.5 -197.5t81 -318q0 -122 -45 -215t-120 -158.5t-168.5 -106.5t-192.5 -59v22q66 31 107 103t60.5 177.5t19.5 236.5q0 117 -14 219t-51 178.5
t-103 119.5t-170 43t-170 -43t-102.5 -119.5t-50.5 -178.5t-14 -219q0 -131 19.5 -238.5t60.5 -182t107 -105.5v-22zM150 0v446h25q0 -70 50 -103.5t127 -33.5h250v93l24 -1v-401h-476zM927 0v410l24 2v-103h250q77 0 127 33.5t50 103.5h25v-446h-476z" />
    <glyph glyph-name="uni03BC" unicode="&#x3bc;" horiz-adv-x="1279" 
d="M1108 920v-895h136v-25h-462v317q-14 -82 -48.5 -159.5t-100 -127.5t-175.5 -50q-122 0 -182.5 51t-78.5 132v-405q0 -76 34.5 -129.5t92.5 -84t126 -37.5q-37 16 -60.5 62t-23.5 96q0 66 47.5 114t118.5 48q72 0 119.5 -48.5t47.5 -121.5q0 -75 -53.5 -126t-157.5 -51
q-81 0 -153.5 32t-117.5 94t-45 152v1137h-137v25h463v-628q0 -84 7 -131.5t25 -67t54 -19.5q51 0 88.5 36t61.5 95t36 129.5t12 139.5v421h-126v25h452z" />
    <glyph glyph-name="pi" unicode="&#x3c0;" horiz-adv-x="1307" 
d="M82 444v476h1116v-326h-1091v-150h-25zM267 -20q-83 0 -137.5 42.5t-54.5 112.5q0 52 26 82t66.5 49.5t86 38.5t86.5 47.5t66.5 77.5t25.5 129v181h111v-254q0 -237 -71 -371.5t-205 -134.5zM949 -20q-114 0 -185.5 48t-71.5 147v509h326v-516q0 -30 17.5 -54.5
t60.5 -24.5q36 0 65.5 28.5t57.5 98.5l19 -10q-34 -105 -100 -165.5t-189 -60.5z" />
    <glyph glyph-name="Wgrave" unicode="&#x1e80;" horiz-adv-x="2335" 
d="M762 -20l-580 1495h-158v25h1799v-25h-562l421 -1103l420 1103h-193v25h403v-25h-183l-567 -1495h-99l-580 1495h-278l422 -1103l167 436l14 -38l-302 -790h-144zM1426 914l-23 16l220 563l28 -2zM1372 1677l-281 68q-62 11 -97.5 52t-40.5 91.5t21 89.5q23 33 70 47.5
t98.5 -1.5t84.5 -76l158 -254z" />
    <glyph glyph-name="wgrave" unicode="&#x1e81;" horiz-adv-x="1711" 
d="M1707 920v-25h-180l-305 -915h-130l-257 695l-277 -695h-130l-297 915h-130v25h648v-25h-172l170 -620l265 665h212l184 -618l192 573h-206v25h413zM994 1097l-281 68q-62 11 -97.5 52t-40.5 91.5t21 89.5q23 33 70 47.5t98.5 -1.5t84.5 -76l158 -254z" />
    <glyph glyph-name="Wacute" unicode="&#x1e82;" horiz-adv-x="2335" 
d="M762 -20l-580 1495h-158v25h1799v-25h-562l421 -1103l420 1103h-193v25h403v-25h-183l-567 -1495h-99l-580 1495h-278l422 -1103l167 436l14 -38l-302 -790h-144zM1426 914l-23 16l220 563l28 -2zM1168 1677l-12 17l157 254q34 60 85 76t98.5 1.5t70.5 -47.5
q26 -39 20.5 -89.5t-40.5 -91.5t-97 -52z" />
    <glyph glyph-name="wacute" unicode="&#x1e83;" horiz-adv-x="1711" 
d="M1707 920v-25h-180l-305 -915h-130l-257 695l-277 -695h-130l-297 915h-130v25h648v-25h-172l170 -620l265 665h212l184 -618l192 573h-206v25h413zM789 1097l-12 17l157 254q34 60 85 76t98.5 1.5t70.5 -47.5q26 -39 20.5 -89.5t-40.5 -91.5t-97 -52z" />
    <glyph glyph-name="Wdieresis" unicode="&#x1e84;" horiz-adv-x="2335" 
d="M762 -20l-580 1495h-158v25h1799v-25h-562l421 -1103l420 1103h-193v25h403v-25h-183l-567 -1495h-99l-580 1495h-278l422 -1103l167 436l14 -38l-302 -790h-144zM1426 914l-23 16l220 563l28 -2zM1472 1683q-51 0 -87.5 36.5t-36.5 87.5t36.5 87.5t87.5 36.5t87.5 -36.5
t36.5 -87.5t-36.5 -87.5t-87.5 -36.5zM1072 1683q-51 0 -87 36.5t-36 87.5t36 87.5t88 36.5q51 0 87.5 -36.5t36.5 -87.5t-36.5 -87.5t-88.5 -36.5z" />
    <glyph glyph-name="wdieresis" unicode="&#x1e85;" horiz-adv-x="1711" 
d="M1707 920v-25h-180l-305 -915h-130l-257 695l-277 -695h-130l-297 915h-130v25h648v-25h-172l170 -620l265 665h212l184 -618l192 573h-206v25h413zM1093 1103q-51 0 -87.5 36.5t-36.5 87.5t36.5 87.5t87.5 36.5t87.5 -36.5t36.5 -87.5t-36.5 -87.5t-87.5 -36.5z
M693 1103q-51 0 -87 36.5t-36 87.5t36 87.5t88 36.5q51 0 87.5 -36.5t36.5 -87.5t-36.5 -87.5t-88.5 -36.5z" />
    <glyph glyph-name="uni1E86" unicode="&#x1e86;" horiz-adv-x="2335" 
d="M762 -20l-580 1495h-158v25h1799v-25h-562l421 -1103l420 1103h-193v25h403v-25h-183l-567 -1495h-99l-580 1495h-278l422 -1103l167 436l14 -38l-302 -790h-144zM1426 914l-23 16l220 563l28 -2zM1272 1713q-82 0 -137.5 55.5t-55.5 137.5q0 83 55.5 138t137.5 55
q83 0 138.5 -55t55.5 -138q0 -82 -55.5 -137.5t-138.5 -55.5z" />
    <glyph glyph-name="uni1E87" unicode="&#x1e87;" horiz-adv-x="1711" 
d="M1707 920v-25h-180l-305 -915h-130l-257 695l-277 -695h-130l-297 915h-130v25h648v-25h-172l170 -620l265 665h212l184 -618l192 573h-206v25h413zM893 1133q-82 0 -137.5 55.5t-55.5 137.5q0 83 55.5 138t137.5 55q83 0 138.5 -55t55.5 -138q0 -82 -55.5 -137.5
t-138.5 -55.5z" />
    <glyph glyph-name="uni1E88" unicode="&#x1e88;" horiz-adv-x="2335" 
d="M762 -20l-580 1495h-158v25h1799v-25h-562l421 -1103l420 1103h-193v25h403v-25h-183l-567 -1495h-99l-580 1495h-278l422 -1103l167 436l14 -38l-302 -790h-144zM1426 914l-23 16l220 563l28 -2zM1213 -522q-82 0 -137.5 56t-55.5 137q0 83 55.5 138.5t137.5 55.5
q83 0 138 -55.5t55 -138.5q0 -81 -55 -137t-138 -56z" />
    <glyph glyph-name="uni1E89" unicode="&#x1e89;" horiz-adv-x="1711" 
d="M1707 920v-25h-180l-305 -915h-130l-257 695l-277 -695h-130l-297 915h-130v25h648v-25h-172l170 -620l265 665h212l184 -618l192 573h-206v25h413zM846 -522q-82 0 -137.5 56t-55.5 137q0 83 55.5 138.5t137.5 55.5q83 0 138 -55.5t55 -138.5q0 -81 -55 -137t-138 -56z
" />
    <glyph glyph-name="uni1E9E" unicode="&#x1e9e;" horiz-adv-x="1864" 
d="M210 0v882q0 163 69.5 283t193 198.5t288.5 117.5t355 39q154 0 278 -36t209 -86t123 -91l-430 -555q-53 20 -145.5 40.5t-202.5 29.5l481 614q-49 21 -127.5 39t-185.5 18q-152 0 -254.5 -44t-163 -127t-86.5 -199.5t-26 -262.5v-860h-376zM28 0v25h738v-25h-738z
M1211 -20q-160 0 -268 54.5t-162.5 139t-54.5 170.5q0 89 56.5 150.5t141.5 61.5q79 0 132 -55.5t53 -137.5q0 -50 -26.5 -92t-69 -66.5t-90.5 -24.5q-49 0 -93.5 24.5t-73 62.5t-28.5 77h23q0 -71 33.5 -131.5t90.5 -104.5t126.5 -68.5t141.5 -24.5q97 0 155 53.5t83 143
t25 197.5q0 57 -15 113.5t-47.5 106t-85.5 87.5t-130 60t-180 22v24q232 0 392 -28t258.5 -80.5t142.5 -127.5t44 -169q0 -108 -49 -190t-132 -137t-185 -82.5t-208 -27.5z" />
    <glyph glyph-name="Ygrave" unicode="&#x1ef2;" horiz-adv-x="1506" 
d="M410 0v25h179v695l-428 755h-137v25h755v-25h-194l360 -681l336 681h-218v25h418v-25h-170l-356 -716v-734h200v-25h-745zM932 1677l-281 68q-62 11 -97.5 52t-40.5 91.5t21 89.5q23 33 70 47.5t98.5 -1.5t84.5 -76l158 -254z" />
    <glyph glyph-name="ygrave" unicode="&#x1ef3;" horiz-adv-x="1253" 
d="M521 895l298 -577l-187 -369l-508 946h-137v25h738v-25h-204zM1273 920v-25h-163l-613 -1264q-31 -63 -78.5 -106t-122.5 -43q-44 0 -84.5 19.5t-67 57.5t-26.5 94q0 52 25 92.5t67 63.5t92 23q47 0 88 -25.5t64.5 -70t16.5 -100.5l609 1259h-201v25h394zM772 1097
l-281 68q-62 11 -97.5 52t-40.5 91.5t21 89.5q23 33 70 47.5t98.5 -1.5t84.5 -76l158 -254z" />
    <glyph glyph-name="uni2000" unicode="&#x2000;" horiz-adv-x="1000" 
 />
    <glyph glyph-name="uni2001" unicode="&#x2001;" horiz-adv-x="2000" 
 />
    <glyph glyph-name="uni2002" unicode="&#x2002;" horiz-adv-x="1000" 
 />
    <glyph glyph-name="uni2003" unicode="&#x2003;" horiz-adv-x="2000" 
 />
    <glyph glyph-name="uni2004" unicode="&#x2004;" horiz-adv-x="666" 
 />
    <glyph glyph-name="uni2005" unicode="&#x2005;" horiz-adv-x="500" 
 />
    <glyph glyph-name="uni2006" unicode="&#x2006;" horiz-adv-x="333" 
 />
    <glyph glyph-name="uni2007" unicode="&#x2007;" horiz-adv-x="1160" 
 />
    <glyph glyph-name="uni2008" unicode="&#x2008;" horiz-adv-x="399" 
 />
    <glyph glyph-name="uni2009" unicode="&#x2009;" horiz-adv-x="333" 
 />
    <glyph glyph-name="uni200A" unicode="&#x200a;" horiz-adv-x="200" 
 />
    <glyph glyph-name="uni200B" unicode="&#x200b;" 
 />
    <glyph glyph-name="uni2010" unicode="&#x2010;" horiz-adv-x="719" 
d="M120 538v24h480v-24h-480z" />
    <glyph glyph-name="uni2011" unicode="&#x2011;" horiz-adv-x="719" 
d="M120 538v24h480v-24h-480z" />
    <glyph glyph-name="figuredash" unicode="&#x2012;" horiz-adv-x="934" 
d="M120 538v24h695v-24h-695z" />
    <glyph glyph-name="endash" unicode="&#x2013;" horiz-adv-x="1081" 
d="M119 538v24h842v-24h-842z" />
    <glyph glyph-name="emdash" unicode="&#x2014;" horiz-adv-x="1569" 
d="M119 538v24h1330v-24h-1330z" />
    <glyph glyph-name="uni2015" unicode="&#x2015;" horiz-adv-x="1715" 
d="M120 538v24h1476v-24h-1476z" />
    <glyph glyph-name="quoteleft" unicode="&#x2018;" horiz-adv-x="604" 
d="M304 856q-61 0 -112.5 34t-83.5 96.5t-32 147.5q0 123 56 218.5t158 150t240 54.5v-26q-97 0 -180.5 -31.5t-142 -92t-85.5 -146.5t-11 -194h-8q-1 52 29.5 98t80.5 74.5t106 28.5q98 0 152.5 -61.5t54.5 -144.5q0 -55 -30.5 -101.5t-81 -75.5t-110.5 -29z" />
    <glyph glyph-name="quoteright" unicode="&#x2019;" horiz-adv-x="604" 
d="M76 839v26q97 0 180 31.5t142 92t85.5 146.5t11.5 194h8q1 -52 -30 -98t-81 -74.5t-105 -28.5q-97 0 -152 62t-55 144q0 55 30.5 102t81 75.5t110.5 28.5q61 0 113 -34.5t83.5 -96.5t31.5 -147q0 -123 -56.5 -218.5t-158 -150t-239.5 -54.5z" />
    <glyph glyph-name="quotesinglbase" unicode="&#x201a;" horiz-adv-x="677" 
d="M76 -309v26q97 0 180 31.5t142 92t85.5 146.5t11.5 194h8q1 -52 -30 -98t-81 -74.5t-105 -28.5q-97 0 -152 62t-55 144q0 55 30.5 102t81 75.5t110.5 28.5q61 0 113 -34.5t83.5 -96.5t31.5 -147q0 -123 -56.5 -218.5t-158 -150t-239.5 -54.5z" />
    <glyph glyph-name="quotedblleft" unicode="&#x201c;" horiz-adv-x="1155" 
d="M855 856q-61 0 -113 34t-83.5 96.5t-31.5 147.5q0 123 56 218.5t158 150t240 54.5v-26q-97 0 -180.5 -31.5t-142 -92t-85.5 -146.5t-11 -194h-8q-1 52 30 98t80.5 74.5t105.5 28.5q98 0 152.5 -61.5t54.5 -144.5q0 -55 -30.5 -101.5t-81 -75.5t-110.5 -29zM304 856
q-61 0 -112.5 34t-83.5 96.5t-32 147.5q0 123 56 218.5t158 150t240 54.5v-26q-97 0 -180.5 -31.5t-142 -92t-85.5 -146.5t-11 -194h-8q-1 52 29.5 98t80.5 74.5t106 28.5q98 0 152.5 -61.5t54.5 -144.5q0 -55 -30.5 -101.5t-81 -75.5t-110.5 -29z" />
    <glyph glyph-name="quotedblright" unicode="&#x201d;" horiz-adv-x="1155" 
d="M627 840v25q97 0 180 32t142 92t85.5 146t11.5 194h8q1 -52 -30 -97.5t-81 -74.5t-105 -29q-97 0 -152 62t-55 144q0 55 30.5 102t81 75.5t110.5 28.5q61 0 112.5 -34t83.5 -96.5t32 -147.5q0 -122 -56.5 -217.5t-158 -150t-239.5 -54.5zM76 840v25q97 0 180 32t142 92
t85.5 146t11.5 194h8q1 -52 -30 -97.5t-81 -74.5t-105 -29q-97 0 -152 62t-55 144q0 55 30.5 102t81 75.5t110.5 28.5q61 0 113 -34t83.5 -96.5t31.5 -147.5q0 -122 -56.5 -217.5t-158 -150t-239.5 -54.5z" />
    <glyph glyph-name="quotedblbase" unicode="&#x201e;" horiz-adv-x="1155" 
d="M627 -309v26q97 0 180 31.5t142 92t85.5 146.5t11.5 194h8q1 -52 -30 -98t-81 -74.5t-105 -28.5q-97 0 -152 62t-55 144q0 55 30.5 102t81 75.5t110.5 28.5q61 0 112.5 -34.5t83.5 -96.5t32 -147q0 -123 -56.5 -218.5t-158 -150t-239.5 -54.5zM76 -309v26q97 0 180 31.5
t142 92t85.5 146.5t11.5 194h8q1 -52 -30 -98t-81 -74.5t-105 -28.5q-97 0 -152 62t-55 144q0 55 30.5 102t81 75.5t110.5 28.5q61 0 113 -34.5t83.5 -96.5t31.5 -147q0 -123 -56.5 -218.5t-158 -150t-239.5 -54.5z" />
    <glyph glyph-name="dagger" unicode="&#x2020;" horiz-adv-x="1261" 
d="M618 -500q0 215 -13 377.5t-36.5 281.5t-55.5 202t-70 139h375q-37 -56 -69.5 -139t-56 -202t-37 -281.5t-13.5 -377.5h-24zM281 783q-80 0 -130.5 56t-50.5 132q0 77 50.5 132.5t130.5 55.5q9 0 17 -0.5t19 -1.5q48 -7 84 -34t69.5 -59.5t71.5 -56.5t88 -24v-24
q-50 0 -88 -24t-71.5 -56.5t-69.5 -59.5t-84 -34q-11 -1 -19 -1.5t-17 -0.5zM443 500q35 50 75.5 113t70 150.5t29.5 213.5h24q0 -126 29.5 -213.5t70.5 -150.5t76 -113h-375zM980 783q-9 0 -17 0.5t-19 1.5q-48 7 -84.5 34t-70 59.5t-71 56.5t-88.5 24v24q51 0 88.5 24
t71 56.5t70 59.5t84.5 34q11 1 19 1.5t17 0.5q81 0 131 -55.5t50 -132.5q0 -76 -50 -132t-131 -56zM618 976q0 61 -24 102t-56.5 74.5t-59.5 68t-34 82.5q-1 11 -1.5 19t-0.5 17q0 81 56 131t132 50q77 0 132.5 -50t55.5 -131q0 -9 -0.5 -17t-1.5 -19q-6 -48 -33 -82.5
t-60 -68t-57 -74.5t-24 -102h-24z" />
    <glyph glyph-name="daggerdbl" unicode="&#x2021;" horiz-adv-x="1261" 
d="M630 -520q-76 0 -132 50.5t-56 130.5q0 9 0.5 17.5t1.5 18.5q7 47 33 81t58 66t56 72.5t26 99.5q-47 -4 -82.5 -28t-68 -55.5t-68 -57.5t-81.5 -32q-10 -1 -18.5 -1.5t-17.5 -0.5q-80 0 -130.5 56t-50.5 132q0 77 50.5 132.5t130.5 55.5h17.5t18.5 -2q46 -6 81.5 -32
t68 -57.5t68.5 -56t83 -27.5q-2 120 -31.5 204t-69 144.5t-74.5 109.5q35 49 74.5 109.5t69 145t31.5 203.5q-47 -3 -83 -27.5t-68.5 -56t-68 -57.5t-81.5 -32q-10 -1 -18.5 -1.5t-17.5 -0.5q-80 0 -130.5 56t-50.5 132q0 77 50.5 132.5t130.5 55.5h17.5t18.5 -2
q46 -6 81.5 -32t68 -57.5t68 -55.5t82.5 -28q-2 59 -26 99t-56 72.5t-58 66.5t-33 81q-1 11 -1.5 19t-0.5 17q0 81 56 131t132 50q77 0 132.5 -50t55.5 -131v-17t-2 -19q-6 -47 -32 -81t-58 -66t-56 -72.5t-27 -99.5q48 4 83.5 28t68 55.5t67.5 57.5t82 32q11 2 19 2h17
q81 0 131 -55.5t50 -132.5q0 -76 -50 -132t-131 -56q-9 0 -17 0.5t-19 1.5q-47 6 -82 32t-67.5 57.5t-68.5 56t-83 27.5q2 -119 31.5 -203.5t69 -145t74.5 -109.5q-35 -49 -74.5 -109.5t-69 -144.5t-31.5 -204q47 3 83 27.5t68.5 56t67.5 57.5t82 32q11 2 19 2h17
q81 0 131 -55.5t50 -132.5q0 -76 -50 -132t-131 -56q-9 0 -17 0.5t-19 1.5q-47 6 -82 32t-67.5 57.5t-68 55.5t-83.5 28q3 -59 27 -99t56 -72.5t58 -66.5t32 -81q2 -10 2 -18.5v-17.5q0 -80 -55.5 -130.5t-132.5 -50.5z" />
    <glyph glyph-name="bullet" unicode="&#x2022;" horiz-adv-x="399" 
d="M288 610q-58 0 -105 28t-75 75.5t-28 104.5t28 104.5t75 75.5t105 28q57 0 104.5 -28t75.5 -75.5t28 -104.5t-28 -104.5t-75.5 -75.5t-104.5 -28z" />
    <glyph glyph-name="ellipsis" unicode="&#x2026;" horiz-adv-x="1725" 
d="M1439 -20q-58 0 -105 28t-75 75.5t-28 104.5t28 104.5t75 75.5t105 28q57 0 104.5 -28t75.5 -75.5t28 -104.5t-28 -104.5t-75.5 -75.5t-104.5 -28zM864 -20q-58 0 -105 28t-75 75.5t-28 104.5t28 104.5t75 75.5t105 28q57 0 104.5 -28t75.5 -75.5t28 -104.5t-28 -104.5
t-75.5 -75.5t-104.5 -28zM288 -20q-58 0 -105 28t-75 75.5t-28 104.5t28 104.5t75 75.5t105 28q57 0 104.5 -28t75.5 -75.5t28 -104.5t-28 -104.5t-75.5 -75.5t-104.5 -28z" />
    <glyph glyph-name="perthousand" unicode="&#x2030;" horiz-adv-x="3056" 
d="M498 0l1041 1500h22l-1042 -1500h-21zM529 640q-85 0 -166.5 28.5t-147.5 84.5t-105.5 138t-39.5 189t39.5 189t105.5 138t147.5 84.5t166.5 28.5t166.5 -28.5t147.5 -84.5t105 -138t39 -189t-44.5 -189t-115 -138t-149.5 -84.5t-149 -28.5zM529 657q28 0 48 24.5
t33 75.5t19 131.5t6 191.5q0 112 -6 192t-19 131t-33 75.5t-48 24.5t-48.5 -24.5t-33.5 -75.5t-19 -131t-6 -192q0 -111 6 -191.5t19 -131.5t33.5 -75.5t48.5 -24.5zM1529 -20q-84 0 -166 28.5t-147.5 84.5t-105 138t-39.5 189t39.5 189t105 138t147.5 84.5t166 28.5
q85 0 167 -28.5t148 -84.5t105.5 -138t39.5 -189t-45 -189t-115.5 -138t-150 -84.5t-149.5 -28.5zM1529 -3q29 0 49 24.5t33 75.5t19 131.5t6 191.5q0 112 -6 192t-19 131t-33 75.5t-49 24.5q-28 0 -48 -24.5t-33 -75.5t-19 -131t-6 -192q0 -111 6 -191.5t19 -131.5
t33 -75.5t48 -24.5zM2529 -20q-85 0 -167 28.5t-147.5 84.5t-105 138t-39.5 189t39.5 189t105 138t147.5 84.5t167 28.5t166.5 -28.5t147.5 -84.5t105 -138t39 -189t-44.5 -189t-115 -138t-149.5 -84.5t-149 -28.5zM2529 -3q28 0 48 24.5t33 75.5t19 131.5t6 191.5
q0 112 -6 192t-19 131t-33 75.5t-48 24.5t-48.5 -24.5t-33.5 -75.5t-19 -131t-6 -192q0 -111 6 -191.5t19 -131.5t33.5 -75.5t48.5 -24.5z" />
    <glyph glyph-name="uni2031" unicode="&#x2031;" horiz-adv-x="3055" 
d="M498 0l1041 1500h22l-1042 -1500h-21zM529 640q-85 0 -166.5 28.5t-147.5 84.5t-105.5 138t-39.5 189t39.5 189t105.5 138t147.5 84.5t166.5 28.5t166.5 -28.5t147.5 -84.5t105 -138t39 -189t-44.5 -189t-115 -138t-149.5 -84.5t-149 -28.5zM529 657q28 0 48 24.5
t33 75.5t19 131.5t6 191.5q0 112 -6 192t-19 131t-33 75.5t-48 24.5t-48.5 -24.5t-33.5 -75.5t-19 -131t-6 -192q0 -111 6 -191.5t19 -131.5t33.5 -75.5t48.5 -24.5zM1529 -20q-84 0 -166 28.5t-147.5 84.5t-105 138t-39.5 189t39.5 189t105 138t147.5 84.5t166 28.5
q85 0 167 -28.5t148 -84.5t105.5 -138t39.5 -189t-45 -189t-115.5 -138t-150 -84.5t-149.5 -28.5zM1529 -3q29 0 49 24.5t33 75.5t19 131.5t6 191.5q0 112 -6 192t-19 131t-33 75.5t-49 24.5q-28 0 -48 -24.5t-33 -75.5t-19 -131t-6 -192q0 -111 6 -191.5t19 -131.5
t33 -75.5t48 -24.5zM2529 -20q-85 0 -167 28.5t-147.5 84.5t-105 138t-39.5 189t39.5 189t105 138t147.5 84.5t167 28.5t166.5 -28.5t147.5 -84.5t105 -138t39 -189t-44.5 -189t-115 -138t-149.5 -84.5t-149 -28.5zM2529 -3q28 0 48 24.5t33 75.5t19 131.5t6 191.5
q0 112 -6 192t-19 131t-33 75.5t-48 24.5t-48.5 -24.5t-33.5 -75.5t-19 -131t-6 -192q0 -111 6 -191.5t19 -131.5t33.5 -75.5t48.5 -24.5z" />
    <glyph glyph-name="guilsinglleft" unicode="&#x2039;" horiz-adv-x="917" 
d="M798 290l-748 470v30l748 470l12 -12l-362 -472l362 -474z" />
    <glyph glyph-name="guilsinglright" unicode="&#x203a;" horiz-adv-x="917" 
d="M118 290l-12 12l353 472l-353 474l12 12l748 -470v-30z" />
    <glyph glyph-name="uni203D" unicode="&#x203d;" horiz-adv-x="1374" 
d="M681 670v20q61 4 116 40t98 95.5t67.5 135.5t24.5 159q0 112 -41 195t-118 128.5t-186 45.5q-86 0 -164 -22.5t-140.5 -63t-105 -94.5t-56.5 -118q11 40 47 65.5t75 25.5q48 0 87 -24.5t62 -64.5t23 -86q0 -51 -24.5 -91.5t-64.5 -63.5t-83 -23q-73 0 -122.5 56
t-49.5 134q0 74 37 145.5t109 129.5t177 92t240 34q113 0 220 -26t192.5 -78.5t135.5 -131t50 -184.5q0 -85 -39 -153t-104 -120t-145 -87t-162.5 -52.5t-155.5 -17.5zM657 -20q-58 0 -105 28t-75 75.5t-28 104.5t28 104.5t75 75.5t105 28q57 0 104 -28t75 -75.5t28 -104.5
t-28 -104.5t-75 -75.5t-104 -28zM638 518q0 71 -24 163t-51 193t-38 196q-1 11 -1.5 20t-0.5 18q0 44 21.5 77.5t58.5 53t84 19.5t84 -19.5t58.5 -53t21.5 -77.5v-18t-2 -20q-8 -72 -32 -147t-51 -148t-47.5 -138.5t-20.5 -118.5h-60z" />
    <glyph glyph-name="uni203E" unicode="&#x203e;" horiz-adv-x="718" 
d="M-11 1566v24h740v-24h-740z" />
    <glyph glyph-name="fraction" unicode="&#x2044;" horiz-adv-x="1072" 
d="M80 -300l865 1861h25l-865 -1861h-25z" />
    <glyph glyph-name="uni2074" unicode="&#x2074;" horiz-adv-x="840" 
d="M314 919v15h114v770l-361 -520h712v-14h-739l450 649h157v-885h90v-15h-423z" />
    <glyph glyph-name="Euro" unicode="&#x20ac;" horiz-adv-x="1414" 
d="M859 -20q-137 0 -257 55t-210.5 157.5t-141.5 244t-51 313.5q0 158 49.5 297t142.5 245.5t224.5 167t295.5 60.5q92 0 175.5 -25.5t149.5 -69.5t104 -101t38 -121q0 -63 -29 -107.5t-72 -67.5t-89 -23q-47 0 -89 24t-69.5 66t-27.5 97q0 49 25.5 90.5t67.5 66.5t93 25
q41 0 84.5 -28.5t73.5 -68t30 -74.5h-24q0 61 -35.5 113t-94 91.5t-129 61.5t-140.5 22q-99 0 -163.5 -65.5t-101.5 -174.5t-52.5 -239.5t-15.5 -261.5q0 -146 12 -276.5t45 -231.5t93.5 -159t157.5 -58q91 0 170 44.5t137 119.5t83 166h26q-26 -96 -91.5 -182t-165 -139.5
t-228.5 -53.5zM52 768v24h880v-24h-880zM52 467v24h880v-24h-880z" />
    <glyph glyph-name="uni2116" unicode="&#x2116;" horiz-adv-x="2352" 
d="M1792 1141q0 170 29 258t95 88q67 0 95.5 -88t28.5 -258q0 -172 -28.5 -260t-95.5 -88q-66 0 -95 88t-29 260zM1534 1140q0 -127 50.5 -211.5t136.5 -126.5t195 -42t195.5 42t136.5 126.5t50 211.5t-50 211.5t-136.5 126.5t-195.5 42t-195 -42t-136.5 -126t-50.5 -212z
M1676 618v24h480v-24h-480zM263 1500v-1475h229v-25h-457v25h203v1450h-203v25h228zM1513 1500v-25h-210v-1495h-34l-1023 1520h434l597 -895v870h-224v25h460z" />
    <glyph glyph-name="trademark" unicode="&#x2122;" horiz-adv-x="1326" 
d="M867 969l-194 533v-518h54v-8h-116v8h52v523h-55v9h192l134 -359l125 359h189v-9h-51v-523h51v-8h-240v8h58v523l-187 -538h-12zM169 976v8h80v523h-33q-55 0 -88.5 -50.5t-45.5 -118.5h-10v178h484v-178h-9q-12 68 -45.5 118.5t-89.5 50.5h-32v-523h79v-8h-290z" />
    <glyph glyph-name="partialdiff" unicode="&#x2202;" horiz-adv-x="1265" 
d="M604 -20q-113 0 -212 38.5t-174 109t-117.5 165.5t-42.5 207q0 128 46 219t119.5 148.5t158 85t160.5 27.5q80 0 130 -30.5t77 -86.5t37.5 -130t10.5 -161h-22q0 166 -40 261t-121 95q-60 0 -95.5 -51t-52 -147t-16.5 -230q0 -86 5.5 -173.5t20.5 -160t44 -117t78 -44.5
q54 0 89 50t54 133t26.5 183.5t7.5 200.5l-11 328q0 55 -4 131.5t-18 157t-44 150.5t-80.5 113.5t-127.5 43.5l20 24q118 0 234.5 -50t211.5 -147.5t152 -241t57 -331.5q0 -171 -36.5 -312.5t-108 -244t-176.5 -158t-240 -55.5zM340 1118q-62 0 -107.5 42t-45.5 112
q0 73 46 129.5t120 88t157 30.5l-20 -24q-58 0 -121.5 -25t-107 -74.5t-43.5 -124.5h-29q0 68 47.5 111t103.5 43q59 0 108.5 -41t49.5 -109q0 -76 -50 -117t-108 -41z" />
    <glyph glyph-name="emptyset" unicode="&#x2205;" horiz-adv-x="1140" 
d="M94 275l-19 19l971 971l19 -19zM571 310q-141 0 -244 63t-159 167.5t-56 229.5t56 229.5t159 167t244 62.5t243.5 -62.5t158 -167t55.5 -229.5t-55.5 -229.5t-158 -167.5t-243.5 -63zM571 338q134 0 229.5 60t146.5 158t51 214t-51 214t-146.5 157.5t-229.5 59.5
t-230 -59.5t-147.5 -157.5t-51.5 -214t51.5 -214t147.5 -158t230 -60z" />
    <glyph glyph-name="product" unicode="&#x220f;" horiz-adv-x="1663" 
d="M1074 0v1500h366v-1500h-366zM44 0v25h716v-25h-716zM225 0v1500h365v-1500h-365zM904 0v25h715v-25h-715zM44 1475v25h1575v-25h-1575z" />
    <glyph glyph-name="summation" unicode="&#x2211;" horiz-adv-x="1371" 
d="M56 0l584 604l-554 871v25h1150v-410h-25q-19 107 -83 194.5t-161 139t-214 51.5h-252l407 -654l-795 -796h612q137 0 244 53.5t175 149t86 222.5h25v-450h-1199z" />
    <glyph glyph-name="minus" unicode="&#x2212;" horiz-adv-x="934" 
d="M120 758v24h695v-24h-695z" />
    <glyph glyph-name="uni2215" unicode="&#x2215;" horiz-adv-x="1072" 
d="M80 -300l865 1861h25l-865 -1861h-25z" />
    <glyph glyph-name="uni2219" unicode="&#x2219;" horiz-adv-x="522" 
d="M288 610q-58 0 -105 28t-75 75.5t-28 104.5t28 104.5t75 75.5t105 28q57 0 104.5 -28t75.5 -75.5t28 -104.5t-28 -104.5t-75.5 -75.5t-104.5 -28z" />
    <glyph glyph-name="radical" unicode="&#x221a;" horiz-adv-x="1174" 
d="M539 -20l-308 509l-110 -61l-10 22l352 200l202 -347l288 1197h221v-25h-202l-358 -1495h-75z" />
    <glyph glyph-name="infinity" unicode="&#x221e;" horiz-adv-x="1962" 
d="M1446 329q141 0 241 49t152.5 134t52.5 196h-299q0 -44 -7 -102.5t-26.5 -113t-56.5 -90.5t-97 -36q-65 0 -123 33.5t-109 86t-95.5 112t-82.5 110.5q-68 91 -136 178t-151 144t-195 57q-142 0 -241 -48.5t-151 -134t-52 -196.5h296q0 44 7 102t26 113t56 91t98 36
q65 0 123 -33t108.5 -86t95 -112t83.5 -111q67 -90 137 -177t153.5 -144.5t192.5 -57.5zM514 329q112 0 195.5 57.5t151.5 144.5t135 177q38 52 82.5 111t95.5 112t109 86t123 33q60 0 97 -36t56.5 -91t26.5 -113t7 -102h299q0 111 -52.5 196.5t-152.5 134t-241 48.5
q-112 0 -195.5 -57t-151.5 -144t-136 -178q-38 -51 -82.5 -110.5t-95.5 -112t-109 -86t-123 -33.5q-61 0 -98 36t-56 90.5t-26 113t-7 102.5h-296q0 -116 52 -201t151 -131.5t241 -46.5z" />
    <glyph glyph-name="integral" unicode="&#x222b;" horiz-adv-x="869" 
d="M1126 1288h24q0 35 -31 65t-75 48.5t-81 18.5q-43 0 -84.5 -15.5t-69 -49.5t-27.5 -87q0 -59 29.5 -98t72.5 -59t87 -20q73 0 127 54t54 143q0 60 -40 113t-111.5 86t-165.5 33q-166 0 -299 -64t-212.5 -176t-84.5 -257l-33 -1103q-4 -123 -33.5 -216.5t-77.5 -146
t-107 -52.5q-64 0 -122.5 16t-105 45.5t-73 69t-26.5 87.5h-24q0 -38 29.5 -70.5t72 -52.5t82.5 -20q46 0 87.5 16t68 49.5t26.5 86.5q0 59 -28.5 98t-71 59t-86.5 20q-48 0 -89.5 -23t-67 -65t-25.5 -98q0 -66 47 -121t125.5 -88.5t173.5 -33.5q165 0 288 64.5t193 176.5
t76 256l42 1103q5 123 36.5 216.5t88 146t137.5 52.5q55 0 106 -16.5t91 -45.5t63.5 -66t23.5 -79z" />
    <glyph glyph-name="approxequal" unicode="&#x2248;" horiz-adv-x="1200" 
d="M798 884q-81 0 -131.5 39t-89.5 90q-23 30 -49 55.5t-62.5 41.5t-92.5 16q-72 0 -125.5 -33.5t-77.5 -89t-6 -121.5h-28q-20 70 8.5 132t89.5 101t139 39q66 0 108 -19.5t70 -49t52 -59.5q38 -51 81.5 -82.5t110.5 -31.5q66 0 115 32t70.5 87t3.5 125h28
q18 -75 -8 -136.5t-81.5 -98.5t-124.5 -37zM798 384q-81 0 -131.5 39t-89.5 90q-23 30 -49 55.5t-62.5 41.5t-92.5 16q-72 0 -125.5 -33.5t-77.5 -89t-6 -121.5h-28q-20 70 8.5 132t89.5 101t139 39q66 0 108 -19.5t70 -49t52 -59.5q38 -51 81.5 -82.5t110.5 -31.5
q66 0 115 32t70.5 87t3.5 125h28q18 -75 -8 -136.5t-81.5 -98.5t-124.5 -37z" />
    <glyph glyph-name="notequal" unicode="&#x2260;" horiz-adv-x="1119" 
d="M249 299l-20 14l643 917l19 -14zM120 608v24h880v-24h-880zM120 909v24h880v-24h-880z" />
    <glyph glyph-name="lessequal" unicode="&#x2264;" horiz-adv-x="1119" 
d="M120 765v27l880 416v-27zM120 68v24h880v-24h-880zM1000 343l-880 415v27l880 -416v-26z" />
    <glyph glyph-name="greaterequal" unicode="&#x2265;" horiz-adv-x="1119" 
d="M120 1181v26l880 -415v-34l-880 -416v27l859 406zM1000 68h-880v24h880v-24z" />
    <glyph glyph-name="lozenge" unicode="&#x25ca;" horiz-adv-x="1200" 
d="M612 30l-412 682l412 680l388 -680zM612 86l357 626l-357 624l-379 -624z" />
    <glyph glyph-name="uni2761" unicode="&#x2761;" horiz-adv-x="1322" 
d="M475 -94q-112 0 -191 48.5t-120 120.5t-41 142q0 111 54.5 163t123.5 52q62 0 109.5 -43.5t47.5 -121.5q0 -61 -48.5 -99.5t-108.5 -38.5q-52 0 -93 21.5t-56 45.5q7 -63 47 -124t110.5 -101t165.5 -40q128 0 214 72.5t129 191t43 256.5v1149h25v-1143q0 -145 -45 -271
t-136 -203t-230 -77zM686 619q-271 0 -413 98t-142 293t142 293.5t413 98.5h488v-25h-459q-50 0 -94.5 -42.5t-72 -124.5t-27.5 -200t27.5 -199.5t72 -124t94.5 -42.5h165v-25h-194z" />
    <glyph glyph-name="uniF8E8" unicode="&#xf8e8;" horiz-adv-x="1131" 
d="M564 668q-128 0 -233 62.5t-167 167t-62 232.5t62 232.5t167 167t233 62.5t233 -62.5t167 -167t62 -232.5t-62 -232.5t-167 -167t-233 -62.5zM312 858v8h270v-8h-270zM381 858v540h132v-540h-132zM748 851q-63 0 -86 28t-25.5 69.5t-3 83t-17 69.5t-70.5 28h-104v5h182
q69 0 99 -27t37.5 -67t6.5 -79.5t3.5 -66.5t31.5 -27q11 0 21 2.5t18 6.5l3 -9q-8 -5 -34 -10.5t-62 -5.5zM564 683q124 0 225 60.5t161.5 162t60.5 224.5t-60.5 224.5t-161.5 162t-225 60.5q-123 0 -224.5 -60.5t-162 -162t-60.5 -224.5t60.5 -224.5t162 -162t224.5 -60.5z
M442 1133v5h103q52 0 77.5 29.5t25.5 95.5q0 67 -25.5 96.5t-77.5 29.5h-233v9h259q93 0 152.5 -32t59.5 -103q0 -70 -56.5 -100t-155.5 -30h-129z" />
    <glyph glyph-name="uniF8E9" unicode="&#xf8e9;" horiz-adv-x="1121" 
d="M559 1592q128 0 233 -62t167 -167t62 -233t-62 -233t-167 -167t-233 -62t-233 62t-167 167t-62 233t62 233t167 167t233 62zM560 683q123 0 224 60.5t161.5 162t60.5 224.5t-60.5 224.5t-161.5 162t-224 60.5q-124 0 -225.5 -60.5t-162 -162t-60.5 -224.5t60.5 -224.5
t162 -162t225.5 -60.5zM574 865q48 0 81.5 21.5t56 57.5t38.5 80h11v-164h-8l-66 38q-48 -45 -120 -45q-125 0 -195.5 78.5t-70.5 198.5t70.5 198.5t195.5 78.5q62 0 108 -41l70 34h9v-164h-11q-27 70 -68.5 114.5t-100.5 44.5q-49 0 -77 -39t-39 -99.5t-11 -126.5
q0 -65 11 -126t39 -100t77 -39z" />
    <glyph glyph-name="i.loclTRK" horiz-adv-x="673" 
d="M508 920v-895h136v-25h-599v25h137v870h-137v25h463zM345 1133q-82 0 -137.5 55.5t-55.5 137.5q0 83 55.5 138t137.5 55q83 0 138.5 -55t55.5 -138q0 -82 -55.5 -137.5t-138.5 -55.5z" />
    <glyph glyph-name="longs_t" horiz-adv-x="1449" 
d="M1104 -14q-100 0 -157 29t-80.5 82.5t-23.5 125.5v857q0 127 -15 220t-51 144t-98 51t-97.5 -51t-50.5 -144t-15 -220v-1080h-311v1023q0 131 50.5 244.5t156 183t268.5 69.5t272 -69.5t164 -183t55 -244.5l-1 -842q0 -75 21 -100.5t60 -25.5q24 0 56.5 17t63.5 51t52 85
l22 -10q-37 -94 -123.5 -153t-217.5 -59zM32 0v25h688v-25h-688zM721 895v25h663v-25h-663z" />
    <glyph glyph-name="a.sc" horiz-adv-x="1238" 
d="M97 0l458 1040h147l445 -1040h-425l-296 682l-301 -682h-28zM0 0v25h305v-25h-305zM245 285v25h601v-25h-601zM545 0v25h693v-25h-693z" />
    <glyph glyph-name="aacute.sc" horiz-adv-x="1238" 
d="M97 0l458 1040h147l445 -1040h-425l-296 682l-301 -682h-28zM0 0v25h305v-25h-305zM245 285v25h601v-25h-601zM545 0v25h693v-25h-693zM501 1188l-12 17l157 254q34 60 85 76t98.5 1.5t70.5 -47.5q26 -39 20.5 -89.5t-40.5 -91.5t-97 -52z" />
    <glyph glyph-name="abreve.sc" horiz-adv-x="1238" 
d="M97 0l458 1040h147l445 -1040h-425l-296 682l-301 -682h-28zM0 0v25h305v-25h-305zM245 285v25h601v-25h-601zM545 0v25h693v-25h-693zM605 1191q-83 0 -138.5 39.5t-83 117t-27.5 189.5h22q0 -46 34 -72t86.5 -36.5t106.5 -10.5t106.5 10.5t86.5 36.5t34 72h22
q0 -112 -27.5 -189.5t-83 -117t-138.5 -39.5z" />
    <glyph glyph-name="acircumflex.sc" horiz-adv-x="1238" 
d="M97 0l458 1040h147l445 -1040h-425l-296 682l-301 -682h-28zM0 0v25h305v-25h-305zM245 285v25h601v-25h-601zM545 0v25h693v-25h-693zM275 1215l-13 12l250 293h188l250 -293l-13 -12l-332 142z" />
    <glyph glyph-name="adieresis.sc" horiz-adv-x="1238" 
d="M97 0l458 1040h147l445 -1040h-425l-296 682l-301 -682h-28zM0 0v25h305v-25h-305zM245 285v25h601v-25h-601zM545 0v25h693v-25h-693zM804 1194q-51 0 -87.5 36.5t-36.5 87.5t36.5 87.5t87.5 36.5t87.5 -36.5t36.5 -87.5t-36.5 -87.5t-87.5 -36.5zM404 1194
q-51 0 -87 36.5t-36 87.5t36 87.5t88 36.5q51 0 87.5 -36.5t36.5 -87.5t-36.5 -87.5t-88.5 -36.5z" />
    <glyph glyph-name="agrave.sc" horiz-adv-x="1238" 
d="M97 0l458 1040h147l445 -1040h-425l-296 682l-301 -682h-28zM0 0v25h305v-25h-305zM245 285v25h601v-25h-601zM545 0v25h693v-25h-693zM705 1188l-281 68q-62 11 -97.5 52t-40.5 91.5t21 89.5q23 33 70 47.5t98.5 -1.5t84.5 -76l158 -254z" />
    <glyph glyph-name="aogonek.sc" horiz-adv-x="1238" 
d="M97 0l458 1040h147l445 -1040h-425l-296 682l-301 -682h-28zM0 0v25h305v-25h-305zM245 285v25h601v-25h-601zM545 0v25h693v-25h-693zM858 -460q-72 0 -131 18t-93.5 56t-34.5 98t35 111t91.5 92.5t123 71.5t128.5 47l7 -17q-15 -10 -34.5 -42.5t-33.5 -84t-14 -118.5
q0 -82 27.5 -123.5t66.5 -41.5q36 0 59 25.5t44 63.5l19 -10q-15 -28 -40 -62t-76 -59t-144 -25z" />
    <glyph glyph-name="aring.sc" horiz-adv-x="1238" 
d="M97 0l458 1040h147l445 -1040h-425l-296 682l-301 -682h-28zM0 0v25h305v-25h-305zM245 285v25h601v-25h-601zM545 0v25h693v-25h-693zM605 1191q-98 0 -153.5 52t-55.5 128q0 77 55.5 128.5t153.5 51.5q99 0 154 -51.5t55 -128.5q0 -76 -55 -128t-154 -52zM605 1216
q23 0 37.5 17.5t21 52t6.5 85.5t-6.5 85.5t-21 52t-37.5 17.5t-37.5 -17.5t-21 -52t-6.5 -85.5t6.5 -85.5t21 -52t37.5 -17.5z" />
    <glyph glyph-name="atilde.sc" horiz-adv-x="1238" 
d="M97 0l458 1040h147l445 -1040h-425l-296 682l-301 -682h-28zM0 0v25h305v-25h-305zM245 285v25h601v-25h-601zM545 0v25h693v-25h-693zM769 1162q-62 0 -108.5 23.5t-86.5 55t-83 55t-98 23.5q-54 0 -84.5 -31.5t-30.5 -76.5h-25q0 85 20.5 156t64.5 114t115 43
q65 0 110 -24t82.5 -55t75.5 -55t88 -24q57 0 86 31.5t29 76.5h25q0 -94 -11.5 -164.5t-49.5 -109t-119 -38.5z" />
    <glyph glyph-name="ae.sc" horiz-adv-x="1817" 
d="M126 0l712 1020h33l-713 -1020h-32zM0 0v25h356v-25h-356zM370 324l10 24h601v-24h-611zM721 0v25h631q87 0 154.5 36t112.5 108t63 181h25v-350h-986zM852 0v1020h366v-1020h-366zM1442 377q-11 52 -45 87t-75 52t-72 17h-110v25h110q31 0 72 15t75 48t45 85h25v-329
h-25zM1672 710q-18 89 -61 153t-102 98t-126 34h-449v25h764v-310h-26z" />
    <glyph glyph-name="b.sc" horiz-adv-x="1366" 
d="M85 0v25h622q59 0 97.5 36.5t57 97.5t18.5 136q0 112 -42.5 173.5t-130.5 61.5h-185v16h278q140 0 247.5 -19.5t168 -77t60.5 -169.5q0 -107 -52.5 -168t-158 -86.5t-265.5 -25.5h-715zM225 0v1035h365v-1035h-365zM522 539v16h157q75 0 118.5 59t43.5 169
q0 113 -43.5 170t-118.5 57h-594v25h669q225 0 344.5 -51.5t119.5 -182.5q0 -136 -111.5 -199t-352.5 -63h-232z" />
    <glyph glyph-name="c.sc" horiz-adv-x="1175" 
d="M641 -20q-102 0 -198.5 27.5t-174 89.5t-123 163.5t-45.5 249.5t46 249.5t121.5 163.5t164 89.5t173.5 27.5q80 0 143 -28t109 -75l125 83h22v-352h-25q-21 55 -50 112t-65.5 104t-80 76t-92.5 29q-80 0 -127 -54.5t-68 -161t-21 -263.5q0 -156 22 -264t71 -164t132 -56
q50 0 94 32t81 82t66 106.5t49 105.5h24v-352h-22l-117 89q-46 -48 -105.5 -78.5t-128.5 -30.5z" />
    <glyph glyph-name="cacute.sc" horiz-adv-x="1175" 
d="M641 -20q-102 0 -198.5 27.5t-174 89.5t-123 163.5t-45.5 249.5t46 249.5t121.5 163.5t164 89.5t173.5 27.5q80 0 143 -28t109 -75l125 83h22v-352h-25q-21 55 -50 112t-65.5 104t-80 76t-92.5 29q-80 0 -127 -54.5t-68 -161t-21 -263.5q0 -156 22 -264t71 -164t132 -56
q50 0 94 32t81 82t66 106.5t49 105.5h24v-352h-22l-117 89q-46 -48 -105.5 -78.5t-128.5 -30.5zM547 1197l-12 17l157 254q34 60 85 76t98.5 1.5t70.5 -47.5q26 -39 20.5 -89.5t-40.5 -91.5t-97 -52z" />
    <glyph glyph-name="ccaron.sc" horiz-adv-x="1175" 
d="M641 -20q-102 0 -198.5 27.5t-174 89.5t-123 163.5t-45.5 249.5t46 249.5t121.5 163.5t164 89.5t173.5 27.5q80 0 143 -28t109 -75l125 83h22v-352h-25q-21 55 -50 112t-65.5 104t-80 76t-92.5 29q-80 0 -127 -54.5t-68 -161t-21 -263.5q0 -156 22 -264t71 -164t132 -56
q50 0 94 32t81 82t66 106.5t49 105.5h24v-352h-22l-117 89q-46 -48 -105.5 -78.5t-128.5 -30.5zM558 1220l-250 293l13 12l331 -142l331 142l13 -12l-250 -293h-188z" />
    <glyph glyph-name="ccedilla.sc" horiz-adv-x="1175" 
d="M641 -20q-102 0 -198.5 27.5t-174 89.5t-123 163.5t-45.5 249.5t46 249.5t121.5 163.5t164 89.5t173.5 27.5q80 0 143 -28t109 -75l125 83h22v-352h-25q-21 55 -50 112t-65.5 104t-80 76t-92.5 29q-80 0 -127 -54.5t-68 -161t-21 -263.5q0 -156 22 -264t71 -164t132 -56
q50 0 94 32t81 82t66 106.5t49 105.5h24v-352h-22l-117 89q-46 -48 -105.5 -78.5t-128.5 -30.5zM442 -505v24q88 0 127 36t39 94q0 52 -24.5 78t-63 34.5t-81.5 8.5l172 232h31l-112 -152q104 -3 180 -20t117 -51.5t41 -90.5q0 -50 -38 -94.5t-131 -71.5t-257 -27z" />
    <glyph glyph-name="d.sc" horiz-adv-x="1405" 
d="M85 0v25h592q82 0 132 55.5t72.5 163.5t22.5 266q0 157 -26 265t-76 164t-125 56h-592v25h592q209 0 346 -52t204.5 -165t67.5 -293q0 -182 -72.5 -294t-210.5 -164t-335 -52h-592zM225 0v1020h365v-1020h-365z" />
    <glyph glyph-name="eth.sc" horiz-adv-x="1405" 
d="M100 538v24h636v-24h-636zM85 0v25h592q82 0 132 55.5t72.5 163.5t22.5 266q0 157 -26 265t-76 164t-125 56h-592v25h592q209 0 346 -52t204.5 -165t67.5 -293q0 -182 -72.5 -294t-210.5 -164t-335 -52h-592zM225 0v1020h365v-1020h-365z" />
    <glyph glyph-name="dcaron.sc" horiz-adv-x="1405" 
d="M85 0v25h592q82 0 132 55.5t72.5 163.5t22.5 266q0 157 -26 265t-76 164t-125 56h-592v25h592q209 0 346 -52t204.5 -165t67.5 -293q0 -182 -72.5 -294t-210.5 -164t-335 -52h-592zM225 0v1020h365v-1020h-365zM571 1220l-250 293l13 12l331 -142l331 142l13 -12
l-250 -293h-188z" />
    <glyph glyph-name="dcroat.sc" horiz-adv-x="1405" 
d="M100 538v24h636v-24h-636zM85 0v25h592q82 0 132 55.5t72.5 163.5t22.5 266q0 157 -26 265t-76 164t-125 56h-592v25h592q209 0 346 -52t204.5 -165t67.5 -293q0 -182 -72.5 -294t-210.5 -164t-335 -52h-592zM225 0v1020h365v-1020h-365z" />
    <glyph glyph-name="e.sc" horiz-adv-x="1180" 
d="M806 377q-15 52 -49 86.5t-73 52t-70 17.5h-110v25h110q31 0 70 15t73 48t49 85h25v-329h-25zM1045 350h25v-350h-985v25h131v970h-131v25h976v-310h-25q-18 89 -61 153t-102 98t-126 34h-165v-970h134q86 0 154 36t112.5 108.5t62.5 180.5z" />
    <glyph glyph-name="eacute.sc" horiz-adv-x="1180" 
d="M806 377q-15 52 -49 86.5t-73 52t-70 17.5h-110v25h110q31 0 70 15t73 48t49 85h25v-329h-25zM1045 350h25v-350h-985v25h131v970h-131v25h976v-310h-25q-18 89 -61 153t-102 98t-126 34h-165v-970h134q86 0 154 36t112.5 108.5t62.5 180.5zM539 1197l-12 17l157 254
q34 60 85 76t98.5 1.5t70.5 -47.5q26 -39 20.5 -89.5t-40.5 -91.5t-97 -52z" />
    <glyph glyph-name="ecaron.sc" horiz-adv-x="1180" 
d="M806 377q-15 52 -49 86.5t-73 52t-70 17.5h-110v25h110q31 0 70 15t73 48t49 85h25v-329h-25zM1045 350h25v-350h-985v25h131v970h-131v25h976v-310h-25q-18 89 -61 153t-102 98t-126 34h-165v-970h134q86 0 154 36t112.5 108.5t62.5 180.5zM550 1220l-250 293l13 12
l331 -142l331 142l13 -12l-250 -293h-188z" />
    <glyph glyph-name="ecircumflex.sc" horiz-adv-x="1180" 
d="M806 377q-15 52 -49 86.5t-73 52t-70 17.5h-110v25h110q31 0 70 15t73 48t49 85h25v-329h-25zM1045 350h25v-350h-985v25h131v970h-131v25h976v-310h-25q-18 89 -61 153t-102 98t-126 34h-165v-970h134q86 0 154 36t112.5 108.5t62.5 180.5zM313 1224l-13 12l250 293h188
l250 -293l-13 -12l-332 142z" />
    <glyph glyph-name="edieresis.sc" horiz-adv-x="1180" 
d="M806 377q-15 52 -49 86.5t-73 52t-70 17.5h-110v25h110q31 0 70 15t73 48t49 85h25v-329h-25zM1045 350h25v-350h-985v25h131v970h-131v25h976v-310h-25q-18 89 -61 153t-102 98t-126 34h-165v-970h134q86 0 154 36t112.5 108.5t62.5 180.5zM843 1203q-51 0 -87.5 36.5
t-36.5 87.5t36.5 87.5t87.5 36.5t87.5 -36.5t36.5 -87.5t-36.5 -87.5t-87.5 -36.5zM443 1203q-51 0 -87 36.5t-36 87.5t36 87.5t88 36.5q51 0 87.5 -36.5t36.5 -87.5t-36.5 -87.5t-88.5 -36.5z" />
    <glyph glyph-name="egrave.sc" horiz-adv-x="1180" 
d="M806 377q-15 52 -49 86.5t-73 52t-70 17.5h-110v25h110q31 0 70 15t73 48t49 85h25v-329h-25zM1045 350h25v-350h-985v25h131v970h-131v25h976v-310h-25q-18 89 -61 153t-102 98t-126 34h-165v-970h134q86 0 154 36t112.5 108.5t62.5 180.5zM744 1197l-281 68
q-62 11 -97.5 52t-40.5 91.5t21 89.5q23 33 70 47.5t98.5 -1.5t84.5 -76l158 -254z" />
    <glyph glyph-name="eogonek.sc" horiz-adv-x="1180" 
d="M806 377q-15 52 -49 86.5t-73 52t-70 17.5h-110v25h110q31 0 70 15t73 48t49 85h25v-329h-25zM1045 350h25v-350h-985v25h131v970h-131v25h976v-310h-25q-18 89 -61 153t-102 98t-126 34h-165v-970h134q86 0 154 36t112.5 108.5t62.5 180.5zM838 -460q-72 0 -131 18
t-93.5 56t-34.5 98t35 111t91.5 92.5t123 71.5t128.5 47l7 -17q-15 -10 -34.5 -42.5t-33.5 -84t-14 -118.5q0 -82 27.5 -123.5t66.5 -41.5q36 0 59 25.5t44 63.5l19 -10q-15 -28 -40 -62t-76 -59t-144 -25z" />
    <glyph glyph-name="f.sc" horiz-adv-x="1100" 
d="M826 346q-27 63 -81 105.5t-120 42.5h-111v24h111q66 0 120 37t81 100h25v-309h-25zM1040 1020v-310h-24q-18 92 -62 155.5t-103.5 96.5t-123.5 33h-145v-970h149v-25h-646v25h131v970h-131v25h955z" />
    <glyph glyph-name="g.sc" horiz-adv-x="1252" 
d="M630 -20q-88 0 -179.5 27.5t-169 89.5t-124.5 163.5t-47 249.5t48 249.5t125.5 163.5t166 89.5t169.5 27.5t152.5 -33.5t129 -87t95.5 -114t54 -115.5h-26q-17 54 -53 109.5t-84.5 101.5t-104 74t-111.5 28q-68 0 -109 -58.5t-59 -168t-18 -266.5q0 -156 19.5 -269
t54.5 -174t81 -61q28 0 50 20t37 49t25 58t15 47v247h319v-167q-38 -63 -100 -127.5t-150 -108.5t-206 -44zM649 416v28h538v-28h-538zM1050 690q-22 48 -48 90.5t-60 82.5t-81 79l166 78h23v-330z" />
    <glyph glyph-name="gbreve.sc" horiz-adv-x="1252" 
d="M630 -20q-88 0 -179.5 27.5t-169 89.5t-124.5 163.5t-47 249.5t48 249.5t125.5 163.5t166 89.5t169.5 27.5t152.5 -33.5t129 -87t95.5 -114t54 -115.5h-26q-17 54 -53 109.5t-84.5 101.5t-104 74t-111.5 28q-68 0 -109 -58.5t-59 -168t-18 -266.5q0 -156 19.5 -269
t54.5 -174t81 -61q28 0 50 20t37 49t25 58t15 47v247h319v-167q-38 -63 -100 -127.5t-150 -108.5t-206 -44zM649 416v28h538v-28h-538zM1050 690q-22 48 -48 90.5t-60 82.5t-81 79l166 78h23v-330zM619 1200q-83 0 -138.5 39.5t-83 117t-27.5 189.5h22q0 -46 34 -72
t86.5 -36.5t106.5 -10.5t106.5 10.5t86.5 36.5t34 72h22q0 -112 -27.5 -189.5t-83 -117t-138.5 -39.5z" />
    <glyph glyph-name="h.sc" horiz-adv-x="1506" 
d="M954 0v1020h367v-1020h-367zM85 0v25h609v-25h-609zM216 0v1020h366v-1020h-366zM841 0v25h609v-25h-609zM467 516v25h527v-25h-527zM85 995v25h609v-25h-609zM841 995v25h609v-25h-609z" />
    <glyph glyph-name="i.sc" horiz-adv-x="896" 
d="M256 0v1020h365v-1020h-365zM85 0v25h726v-25h-726zM85 995v25h726v-25h-726z" />
    <glyph glyph-name="iacute.sc" horiz-adv-x="896" 
d="M256 0v1020h365v-1020h-365zM85 0v25h726v-25h-726zM85 995v25h726v-25h-726zM339 1197l-12 17l157 254q34 60 85 76t98.5 1.5t70.5 -47.5q26 -39 20.5 -89.5t-40.5 -91.5t-97 -52z" />
    <glyph glyph-name="icircumflex.sc" horiz-adv-x="896" 
d="M256 0v1020h365v-1020h-365zM85 0v25h726v-25h-726zM85 995v25h726v-25h-726zM113 1224l-13 12l250 293h188l250 -293l-13 -12l-332 142z" />
    <glyph glyph-name="idieresis.sc" horiz-adv-x="896" 
d="M256 0v1020h365v-1020h-365zM85 0v25h726v-25h-726zM85 995v25h726v-25h-726zM643 1203q-51 0 -87.5 36.5t-36.5 87.5t36.5 87.5t87.5 36.5t87.5 -36.5t36.5 -87.5t-36.5 -87.5t-87.5 -36.5zM243 1203q-51 0 -87 36.5t-36 87.5t36 87.5t88 36.5q51 0 87.5 -36.5
t36.5 -87.5t-36.5 -87.5t-88.5 -36.5z" />
    <glyph glyph-name="igrave.sc" horiz-adv-x="896" 
d="M256 0v1020h365v-1020h-365zM85 0v25h726v-25h-726zM85 995v25h726v-25h-726zM544 1197l-281 68q-62 11 -97.5 52t-40.5 91.5t21 89.5q23 33 70 47.5t98.5 -1.5t84.5 -76l158 -254z" />
    <glyph glyph-name="ij.sc" horiz-adv-x="1965" 
d="M256 0v1020h365v-1020h-365zM85 0v25h726v-25h-726zM85 995v25h726v-25h-726zM1249 -20q-104 0 -183.5 40.5t-124.5 107t-45 143.5q0 93 58.5 152t140.5 59q75 0 132 -44t57 -135q0 -74 -56 -125t-129 -51q-33 0 -68.5 13.5t-65 36t-48.5 47.5t-19 47h23q0 -58 25.5 -106
t67.5 -82t92 -53t99 -19q66 0 105.5 64t57 175t17.5 250v520h365v-709q-19 -49 -63 -106t-109.5 -108.5t-149 -84t-179.5 -32.5zM1145 995v25h755v-25h-755z" />
    <glyph glyph-name="j.sc" horiz-adv-x="1069" 
d="M353 -20q-104 0 -183.5 40.5t-124.5 107t-45 143.5q0 93 58.5 152t140.5 59q75 0 132 -44t57 -135q0 -74 -56 -125t-129 -51q-33 0 -68.5 13.5t-65 36t-48.5 47.5t-19 47h23q0 -58 25.5 -106t67.5 -82t92 -53t99 -19q66 0 105.5 64t57 175t17.5 250v520h365v-709
q-19 -49 -63 -106t-109.5 -108.5t-149 -84t-179.5 -32.5zM249 995v25h755v-25h-755z" />
    <glyph glyph-name="k.sc" horiz-adv-x="1410" 
d="M331 244l802 772h36l-801 -772h-37zM85 0v25h587v-25h-587zM216 0v1020h366v-1020h-366zM766 0v25h624v-25h-624zM888 0l-286 500l259 250l443 -750h-416zM85 995v25h646v-25h-646zM926 995v25h381v-25h-381z" />
    <glyph glyph-name="l.sc" horiz-adv-x="1100" 
d="M85 0v25h131v970h-131v25h627v-25h-130v-970h50q90 0 157.5 23.5t116.5 66.5t85 102.5t63 132.5h26v-350h-995z" />
    <glyph glyph-name="lacute.sc" horiz-adv-x="1100" 
d="M85 0v25h131v970h-131v25h627v-25h-130v-970h50q90 0 157.5 23.5t116.5 66.5t85 102.5t63 132.5h26v-350h-995zM282 1197l-12 17l157 254q34 60 85 76t98.5 1.5t70.5 -47.5q26 -39 20.5 -89.5t-40.5 -91.5t-97 -52z" />
    <glyph glyph-name="lcaron.sc" horiz-adv-x="1100" 
d="M85 0v25h131v970h-131v25h627v-25h-130v-970h50q90 0 157.5 23.5t116.5 66.5t85 102.5t63 132.5h26v-350h-995zM785 518v21q74 0 137 25t107.5 72t64.5 113t8 148h6q1 -39 -22 -73.5t-61 -56t-80 -21.5q-75 0 -116 46.5t-41 108.5q0 63 50 109.5t118 46.5q70 0 122 -57.5
t52 -155.5q0 -94 -42.5 -167.5t-120 -116t-182.5 -42.5z" />
    <glyph glyph-name="lslash.sc" horiz-adv-x="1100" 
d="M85 421v30l704 289v-29zM85 0v25h131v970h-131v25h627v-25h-130v-970h50q90 0 157.5 23.5t116.5 66.5t85 102.5t63 132.5h26v-350h-995z" />
    <glyph glyph-name="m.sc" horiz-adv-x="1611" 
d="M610 -20l-413 1040h369l265 -638l222 638h27l-349 -1040h-121zM95 0v25h206v-25h-206zM185 0v995h-100v25h126v-1020h-26zM1003 0v25h566v-25h-566zM1070 0v1020h456v-25h-90v-995h-366z" />
    <glyph glyph-name="n.sc" horiz-adv-x="1320" 
d="M984 -20l-731 1040h428l382 -560v560h26v-1040h-105zM85 0v25h331v-25h-331zM246 0v995h-161v25h187v-1020h-26zM892 995v25h358v-25h-358z" />
    <glyph glyph-name="nacute.sc" horiz-adv-x="1320" 
d="M984 -20l-731 1040h428l382 -560v560h26v-1040h-105zM85 0v25h331v-25h-331zM246 0v995h-161v25h187v-1020h-26zM892 995v25h358v-25h-358zM602 1197l-12 17l157 254q34 60 85 76t98.5 1.5t70.5 -47.5q26 -39 20.5 -89.5t-40.5 -91.5t-97 -52z" />
    <glyph glyph-name="ncaron.sc" horiz-adv-x="1320" 
d="M984 -20l-731 1040h428l382 -560v560h26v-1040h-105zM85 0v25h331v-25h-331zM246 0v995h-161v25h187v-1020h-26zM892 995v25h358v-25h-358zM612 1220l-250 293l13 12l331 -142l331 142l13 -12l-250 -293h-188z" />
    <glyph glyph-name="eng.sc" horiz-adv-x="1433" 
d="M795 -520q-92 0 -166 32t-117.5 88.5t-43.5 126.5q0 78 54 130.5t133 52.5q47 0 89 -22.5t69 -61.5t27 -90q0 -71 -49 -119.5t-132 -48.5q-51 0 -94 24.5t-69 61t-26 73.5h23q0 -64 41.5 -114.5t109 -80t145.5 -29.5q73 0 110.5 47.5t51 126t14 173.5t0.5 190v662l327 37
l-1 -762q0 -97 -40.5 -186.5t-110.5 -159.5t-159 -110.5t-186 -40.5zM45 0v25h603v-25h-603zM185 0v995h-140v25h465v-1020h-325zM492 551q0 66 21.5 149t70.5 160.5t130 128t200 50.5q134 0 217 -38.5t122 -106.5t39 -155l-327 -37q0 88 -21 141.5t-59 77.5t-89 24
q-58 0 -110 -32.5t-91.5 -88.5t-62 -126.5t-22.5 -146.5h-18z" />
    <glyph glyph-name="ntilde.sc" horiz-adv-x="1320" 
d="M984 -20l-731 1040h428l382 -560v560h26v-1040h-105zM85 0v25h331v-25h-331zM246 0v995h-161v25h187v-1020h-26zM892 995v25h358v-25h-358zM870 1171q-62 0 -108.5 23.5t-86.5 55t-83 55t-98 23.5q-54 0 -84.5 -31.5t-30.5 -76.5h-25q0 85 20.5 156t64.5 114t115 43
q65 0 110 -24t82.5 -55t75.5 -55t88 -24q57 0 86 31.5t29 76.5h25q0 -94 -11.5 -164.5t-49.5 -109t-119 -38.5z" />
    <glyph glyph-name="o.sc" horiz-adv-x="1312" 
d="M656 -20q-164 0 -294 64.5t-206 183.5t-76 282t79.5 282t211 183.5t285.5 64.5q155 0 286 -64.5t210.5 -183.5t79.5 -282t-75.5 -282t-206 -183.5t-294.5 -64.5zM656 3q60 0 98.5 41t61 111.5t32 161.5t9.5 193t-12 193t-36.5 161.5t-62.5 111.5t-90 41t-90 -41
t-62.5 -111.5t-36.5 -161.5t-12 -193t9.5 -193t31.5 -161.5t61 -111.5t99 -41z" />
    <glyph glyph-name="oacute.sc" horiz-adv-x="1312" 
d="M656 -20q-164 0 -294 64.5t-206 183.5t-76 282t79.5 282t211 183.5t285.5 64.5q155 0 286 -64.5t210.5 -183.5t79.5 -282t-75.5 -282t-206 -183.5t-294.5 -64.5zM656 3q60 0 98.5 41t61 111.5t32 161.5t9.5 193t-12 193t-36.5 161.5t-62.5 111.5t-90 41t-90 -41
t-62.5 -111.5t-36.5 -161.5t-12 -193t9.5 -193t31.5 -161.5t61 -111.5t99 -41zM552 1197l-12 17l157 254q34 60 85 76t98.5 1.5t70.5 -47.5q26 -39 20.5 -89.5t-40.5 -91.5t-97 -52z" />
    <glyph glyph-name="ocircumflex.sc" horiz-adv-x="1312" 
d="M656 -20q-164 0 -294 64.5t-206 183.5t-76 282t79.5 282t211 183.5t285.5 64.5q155 0 286 -64.5t210.5 -183.5t79.5 -282t-75.5 -282t-206 -183.5t-294.5 -64.5zM656 3q60 0 98.5 41t61 111.5t32 161.5t9.5 193t-12 193t-36.5 161.5t-62.5 111.5t-90 41t-90 -41
t-62.5 -111.5t-36.5 -161.5t-12 -193t9.5 -193t31.5 -161.5t61 -111.5t99 -41zM326 1224l-13 12l250 293h188l250 -293l-13 -12l-332 142z" />
    <glyph glyph-name="odieresis.sc" horiz-adv-x="1312" 
d="M656 -20q-164 0 -294 64.5t-206 183.5t-76 282t79.5 282t211 183.5t285.5 64.5q155 0 286 -64.5t210.5 -183.5t79.5 -282t-75.5 -282t-206 -183.5t-294.5 -64.5zM656 3q60 0 98.5 41t61 111.5t32 161.5t9.5 193t-12 193t-36.5 161.5t-62.5 111.5t-90 41t-90 -41
t-62.5 -111.5t-36.5 -161.5t-12 -193t9.5 -193t31.5 -161.5t61 -111.5t99 -41zM855 1203q-51 0 -87.5 36.5t-36.5 87.5t36.5 87.5t87.5 36.5t87.5 -36.5t36.5 -87.5t-36.5 -87.5t-87.5 -36.5zM455 1203q-51 0 -87 36.5t-36 87.5t36 87.5t88 36.5q51 0 87.5 -36.5t36.5 -87.5
t-36.5 -87.5t-88.5 -36.5z" />
    <glyph glyph-name="ograve.sc" horiz-adv-x="1312" 
d="M656 -20q-164 0 -294 64.5t-206 183.5t-76 282t79.5 282t211 183.5t285.5 64.5q155 0 286 -64.5t210.5 -183.5t79.5 -282t-75.5 -282t-206 -183.5t-294.5 -64.5zM656 3q60 0 98.5 41t61 111.5t32 161.5t9.5 193t-12 193t-36.5 161.5t-62.5 111.5t-90 41t-90 -41
t-62.5 -111.5t-36.5 -161.5t-12 -193t9.5 -193t31.5 -161.5t61 -111.5t99 -41zM756 1197l-281 68q-62 11 -97.5 52t-40.5 91.5t21 89.5q23 33 70 47.5t98.5 -1.5t84.5 -76l158 -254z" />
    <glyph glyph-name="ohungarumlaut.sc" horiz-adv-x="1312" 
d="M656 -20q-164 0 -294 64.5t-206 183.5t-76 282t79.5 282t211 183.5t285.5 64.5q155 0 286 -64.5t210.5 -183.5t79.5 -282t-75.5 -282t-206 -183.5t-294.5 -64.5zM656 3q60 0 98.5 41t61 111.5t32 161.5t9.5 193t-12 193t-36.5 161.5t-62.5 111.5t-90 41t-90 -41
t-62.5 -111.5t-36.5 -161.5t-12 -193t9.5 -193t31.5 -161.5t61 -111.5t99 -41zM306 1196l-13 17l158 254q34 60 85 76t98.5 1.5t69.5 -47.5q27 -39 21.5 -89.5t-40.5 -91.5t-98 -52zM789 1196l-12 17l157 254q34 60 85 76t98.5 1.5t69.5 -47.5q27 -39 21.5 -89.5
t-40.5 -91.5t-98 -52z" />
    <glyph glyph-name="oslash.sc" horiz-adv-x="1312" 
d="M148 -60l1003 1141h30l-1004 -1141h-29zM656 -20q-164 0 -294 64.5t-206 183.5t-76 282t79.5 282t211 183.5t285.5 64.5q155 0 286 -64.5t210.5 -183.5t79.5 -282t-75.5 -282t-206 -183.5t-294.5 -64.5zM656 3q60 0 98.5 40.5t61 111.5t32 162t9.5 193t-12 193t-36.5 162
t-62.5 111.5t-90 40.5t-90 -40.5t-62.5 -111.5t-36.5 -162t-12 -193t9.5 -193t31.5 -162t61 -111.5t99 -40.5z" />
    </font>
</defs>
</svg>
